<svg xmlns="http://www.w3.org/2000/svg" xmlns:xlink="http://www.w3.org/1999/xlink" xmlns:inkscape="http://www.inkscape.org/namespaces/inkscape" version="1.1" width="214" height="172" viewBox="0 0 214 172">
<defs>
<path id="font_1_1" d="M.6049957 .37234498C.6049957 .4173584 .58699038 .4423523 .5649872 .4423523 .5389862 .4423523 .5119934 .41835023 .5119934 .39533998 .5119934 .38534547 .5169983 .37434388 .5269928 .3653412 .5439911 .35032655 .56199648 .32331849 .56199648 .28131105 .56199648 .24130249 .54299929 .1842804 .5119934 .13827515 .48199464 .09526062 .44499208 .06124878 .397995 .06124878 .34098817 .06124878 .30999757 .09725952 .30099488 .15127564 .31199647 .17727661 .33499146 .24130249 .33499146 .26930238 .33499146 .28131105 .32998658 .2913208 .31698609 .2913208 .30899049 .2913208 .2979889 .2893219 .2899933 .27430726 .2789917 .25430299 .2669983 .18928528 .2669983 .15327454 .23399353 .10626221 .19400025 .06124878 .1309967 .06124878 .06498718 .06124878 .04399109 .120269779 .04399109 .17628479 .04399109 .3013153 .1459961 .40634156 .1459961 .4193573 .1459961 .4303589 .13798523 .4383545 .1269989 .4383545 .11399841 .4383545 .10699463 .425354 .100997928 .41635133 .049987794 .34233094 .011993408 .22329712 .011993408 .13226319 .011993408 .06324768 .034988405-.0107421879 .116989139-.0107421879 .18798828-.0107421879 .23498535 .039245607 .2709961 .09425354 .27999879 .036254884 .31900025-.0107421879 .3809967-.0107421879 .45899964-.0107421879 .5069885 .050247194 .54299929 .12527466 .5669861 .17428589 .6049957 .310318 .6049957 .37234498Z"/>
<path id="font_2_1" d="M.5159912 .31925965C.5159912 .42918397 .5029907 .50813296 .45700074 .5780945 .42599488 .62405398 .3639984 .6640625 .28399659 .6640625 .051986696 .6640625 .051986696 .39120484 .051986696 .31925965 .051986696 .2472992 .051986696-.01953125 .28399659-.01953125 .5159912-.01953125 .5159912 .2472992 .5159912 .31925965M.28399659 .008468628C.23799134 .008468628 .1769867 .035446168 .15699768 .117385867 .14299011 .17634583 .14299011 .25830079 .14299011 .33224488 .14299011 .40519715 .14299011 .4811554 .1579895 .53611758 .1789856 .6150665 .24299622 .63604739 .28399659 .63604739 .33799745 .63604739 .3899994 .6030731 .4079895 .545105 .42399598 .4911499 .4249878 .41918946 .4249878 .33224488 .4249878 .25830079 .4249878 .18434143 .4119873 .12138367 .3919983 .030441285 .32398988 .008468628 .28399659 .008468628Z"/>
<path id="font_3_3" d="M.2939911 .64004519C.2939911 .66400149 .2939911 .6660156 .2709961 .6660156 .20899964 .60227969 .12098694 .60227969 .08898926 .60227969V.57128909C.10899353 .57128909 .16799927 .57128909 .21998596 .5972748V.07902527C.21998596 .042999269 .21699524 .0309906 .1269989 .0309906H.09498596V0C.12998963 .0029907227 .21699524 .0029907227 .25698854 .0029907227 .29699708 .0029907227 .38398744 .0029907227 .4189911 0V.0309906H.3869934C.29699708 .0309906 .2939911 .041992189 .2939911 .07902527V.64004519Z"/>
<clipPath id="clip_4">
<path transform="matrix(1.00005,0,0,-1.00005,8.961746,168.30175)" d="M0 0H194.27048V161.39499H0Z"/>
</clipPath>
<path id="font_1_2" d="M.7599945 .69506838C.7599945 .69807437 .7579956 .7050781 .7489929 .7050781 .74598696 .7050781 .7449951 .70407107 .73399356 .69306948L.6639862 .61598208C.6549988 .6300049 .60899356 .7050781 .49798585 .7050781 .2749939 .7050781 .049987794 .4837799 .049987794 .25144959 .049987794 .09249878 .16099549-.022460938 .32299806-.022460938 .36698915-.022460938 .4119873-.013473511 .44799806 .0015258789 .49798585 .021530152 .5169983 .042526246 .5349884 .06251526 .5439911 .037521364 .56999209 .0005340576 .5799866 .0005340576 .58499148 .0005340576 .58699038 .0035247803 .58699038 .0045318605 .58898928 .0065307619 .598999 .044525148 .60398867 .06550598L.6230011 .14248657C.6269989 .15948487 .6319885 .1764679 .6359863 .19346619 .6469879 .2384491 .647995 .240448 .7049866 .24145508 .70999148 .24145508 .72099307 .2424469 .72099307 .26145936 .72099307 .26844789 .71598818 .27246095 .70799258 .27246095 .68499758 .27246095 .6259918 .26945497 .6029968 .26945497 .57199099 .26945497 .49398805 .27246095 .46299745 .27246095 .45399476 .27246095 .44198609 .27246095 .44198609 .25245667 .44198609 .24145508 .44999696 .24145508 .47200013 .24145508 .47299195 .24145508 .5019989 .24145508 .5249939 .23945618 .5509949 .2364502 .55599978 .23345948 .55599978 .22045899 .55599978 .2114563 .54499819 .16647339 .5349884 .12948609 .5069885 .01953125 .3769989 .008529663 .34199525 .008529663 .24598694 .008529663 .14099121 .06550598 .14099121 .21846009 .14099121 .24945069 .15098572 .41467286 .2559967 .5448761 .30999757 .6129761 .40699769 .67407229 .5059967 .67407229 .60798647 .67407229 .6669922 .59695437 .6669922 .48077394 .6669922 .44070436 .6639862 .43971253 .6639862 .4296875 .6639862 .41967774 .6749878 .41967774 .67900088 .41967774 .69200137 .41967774 .69200137 .42167665 .69699099 .43971253L.7599945 .69506838Z"/>
<path id="font_5_1" d="M.71499636 .5637207C.7519989 .61764529 .7839966 .64260867 .83799746 .64660647 .84999087 .6476135 .86099246 .64860537 .86099246 .6686096 .86099246 .6716156 .85899356 .6826172 .8470001 .6826172 .82299807 .6826172 .7919922 .6786041 .7669983 .6786041 .7350006 .6786041 .69299319 .6826172 .6629944 .6826172 .6539917 .6826172 .6429901 .6796112 .6429901 .660614 .6429901 .6476135 .6569977 .64660647 .6609955 .64660647 .69299319 .64460757 .70199587 .6326294 .70199587 .61764529 .70199587 .6036682 .69499209 .5936737 .6839905 .57769778L.35598756 .09434509 .2649994 .60466006C.2630005 .61364749 .2630005 .61564639 .2630005 .61964419 .2630005 .64660647 .31900025 .64660647 .32598878 .64660647 .34298707 .64660647 .35598756 .64660647 .35598756 .6686096 .35598756 .6696167 .35499574 .6826172 .33898927 .6826172 .30999757 .6826172 .23899842 .6786041 .20999146 .6786041 .18499756 .6786041 .12399292 .6826172 .09899902 .6826172 .08999634 .6826172 .07899475 .6796112 .07899475 .660614 .07899475 .64660647 .09298706 .64660647 .10398865 .64660647 .1599884 .64660647 .16099549 .64060977 .1659851 .61465457L.2749939 .007446289C.2789917-.013534546 .27999879-.01953125 .29899598-.01953125 .31799317-.01953125 .32299806-.012542725 .33299256 .002456665L.71499636 .5637207Z"/>
<path id="font_3_1" d="M.33099366-.2400055C.33099366-.23701477 .33099366-.23500061 .31399537-.21800232 .18899536-.0920105 .15699768 .09700012 .15699768 .25 .15699768 .42399598 .19499207 .59799197 .31799317 .72299197 .33099366 .73498538 .33099366 .7369995 .33099366 .73999026 .33099366 .746994 .32699586 .75 .32099916 .75 .31098939 .75 .22099304 .6819916 .1619873 .5549927 .11099243 .44499208 .09899902 .33399964 .09899902 .25 .09899902 .17199707 .10998535 .050994874 .16499329-.06201172 .22499085-.18501282 .31098939-.25 .32099916-.25 .32699586-.25 .33099366-.24700928 .33099366-.2400055Z"/>
<path id="font_3_2" d="M.2889862 .25C.2889862 .32798768 .27799989 .44898988 .22299195 .56199648 .16299439 .68499758 .07699585 .75 .066986087 .75 .06098938 .75 .056991579 .74598696 .056991579 .73999026 .056991579 .7369995 .056991579 .73498538 .07598877 .71699526 .17399597 .6179962 .23098755 .45899964 .23098755 .25 .23098755 .07899475 .19400025-.09700012 .069992069-.2230072 .056991579-.23500061 .056991579-.23701477 .056991579-.2400055 .056991579-.2460022 .06098938-.25 .066986087-.25 .07699585-.25 .16699219-.18200684 .22599793-.055007936 .2769928 .054992677 .2889862 .16600037 .2889862 .25Z"/>
</defs>
<path transform="matrix(1.00005,0,0,-1.00005,8.961746,168.30175)" stroke-width="1.19553" stroke-linecap="butt" stroke-miterlimit="10" stroke-linejoin="miter" fill="none" stroke="#000000" d="M52.12134 7.43295V17.39702"/>
<path transform="matrix(1.00005,0,0,-1.00005,8.961746,168.30175)" stroke-width="1.19553" stroke-linecap="butt" stroke-miterlimit="10" stroke-linejoin="miter" fill="none" stroke="#000000" d="M-.2431 136.56499H9.71971"/>
<path transform="matrix(1.00005,0,0,-1.00005,8.961746,168.30175)" stroke-width=".3985" stroke-linecap="butt" stroke-miterlimit="10" stroke-linejoin="miter" fill="none" stroke="#000000" d="M0 12.415H192.27796"/>
<path transform="matrix(1.00005,0,0,-1.00005,201.2493,155.88613)" d="M1.99252 0-1.19551 1.59401 0 0-1.19551-1.59401"/>
<path transform="matrix(1.00005,0,0,-1.00005,8.961746,168.30175)" stroke-width=".3985" stroke-linecap="butt" stroke-miterlimit="10" stroke-linejoin="miter" fill="none" stroke="#000000" d="M4.7383 0V159.40247"/>
<path transform="matrix(0,-1.00005,-1.00005,-0,13.700283,8.891312)" d="M1.99252 0-1.19551 1.59401 0 0-1.19551-1.59401"/>
<use data-text="&#x03c9;" xlink:href="#font_1_1" transform="matrix(9.963098,0,0,-9.963098,55.750085,168.67777)"/>
<use data-text="0" xlink:href="#font_2_1" transform="matrix(6.9741489,0,0,-6.9741489,61.951395,170.17284)"/>
<use data-text="1" xlink:href="#font_3_3" transform="matrix(9.963098,0,0,-9.963098,.21730805,34.94008)"/>
<g clip-path="url(#clip_4)">
<path transform="matrix(1.00005,0,0,-1.00005,8.961746,168.30175)" stroke-width=".3985" stroke-linecap="butt" stroke-miterlimit="10" stroke-linejoin="miter" fill="none" stroke="#0000ff" d="M4.7383 12.415 4.92802 12.57217 5.11774 12.7294 5.30746 12.88664 5.49718 13.0439 5.6869 13.20125 5.87662 13.35867 6.06635 13.5162 6.25606 13.67387 6.44579 13.8314 6.6355 13.98946 6.82523 14.14738 7.01494 14.30542 7.20467 14.46371 7.39441 14.62236 7.5841 14.78104 7.77385 14.93996 7.96355 15.09912 8.15329 15.25839 8.343 15.41817 8.53273 15.5782 8.72244 15.73848 8.91217 15.89888 9.10188 16.06015 9.29161 16.22093 9.48132 16.38281 9.67105 16.54472 9.86076 16.70685 10.05049 16.86961 10.24023 17.03287 10.42993 17.19638 10.61967 17.3605 10.80939 17.52487 10.99911 17.68987 11.18883 17.85548 11.37856 18.02135 11.56827 18.18796 11.758 18.35493 11.94771 18.52267 12.13744 18.69077 12.32715 18.8596 12.51688 19.0292 12.7066 19.19928 12.89632 19.37 13.08604 19.54146 13.27576 19.7135 13.46548 19.88634 13.65521 20.06015 13.84494 20.23445 14.03465 20.40924 14.22438 20.58504 14.4141 20.76196 14.60382 20.93925 14.79353 21.11778 14.98326 21.29694 15.17297 21.47731 15.3627 21.65845 15.55243 21.84033 15.74214 22.02333 15.93187 22.20744 16.1216 22.39204 16.31131 22.57816 16.50104 22.76538 16.69075 22.95358 16.88048 23.14267 17.0702 23.3331 17.25992 23.52441 17.44965 23.71698 17.63936 23.91077 17.82909 24.10582 18.0188 24.30223 18.20853 24.49974 18.39825 24.69875 18.58798 24.8995 18.7777 25.09938 18.96742 25.30176 19.15714 25.5066 19.34686 25.71394 19.53659 25.92252 19.7263 26.12984 19.91603 26.34088 20.10574 26.55318 20.29547 26.76549 20.48518 26.98026 20.67491 27.19629 20.86464 27.41602 21.05435 27.63576 21.24408 27.858 21.43379 28.08272 21.62352 28.30867 21.81323 28.53587 22.00298 28.76553 22.19267 28.99893 22.38242 29.2311 22.57211 29.46574 22.76186 29.70535 22.95157 29.94496 23.1413 30.18582 23.33101 30.43039 23.52074 30.67746 23.71046 30.92699 23.90019 31.17653 24.0899 31.43105 24.27963 31.68803 24.46935 31.94624 24.65906 32.20699 24.8488 32.47267 25.0385 32.73833 25.22824 33.0065 25.41794 33.27963 25.60768 33.554 25.7974 33.83333 25.98712 34.11269 26.17683 34.39697 26.36655 34.68376 26.55629 34.97552 26.74602 35.26852 26.93573 35.56647 27.12546 35.86569 27.31517 36.1686 27.50488 36.47525 27.69463 36.78563 27.88432 37.10097 28.07407 37.4188 28.26376 37.74158 28.4535 38.06685 28.64322 38.39586 28.83295 38.72981 29.02267 39.06874 29.21237 39.41016 29.40211 39.75653 29.59184 40.10913 29.78156 40.46295 29.97128 40.82298 30.16098 41.18924 30.35071 41.55795 30.54045 41.93289 30.73015 42.31401 30.91989 42.6989 31.10959 43.08873 31.29932 43.48477 31.48906 43.88701 31.67877 44.29546 31.8685 44.70639 32.0582 45.12479 32.24794 45.54938 32.43767 45.98141 32.62738 46.41968 32.81711 46.86287 33.0068 47.31355 33.19655 47.77167 33.38628 48.23723 33.57597 48.70898 33.76572 49.18698 33.95541 49.67365 34.14516 50.169 34.33488 50.67056 34.52458 51.17958 34.71432 51.69853 34.90402 52.22491 35.09377 52.76001 35.2835 53.30502 35.4732 53.85625 35.66292 54.41866 35.85263 54.98975 36.04236 55.57324 36.2321 56.16173 36.4218 56.76384 36.61154 57.37468 36.80124 57.9979 36.99098 58.62982 37.18073 59.27417 37.3704 59.92967 37.56015 60.5976 37.74985 61.27669 37.93959 61.96822 38.12932 62.6709 38.31903 63.38725 38.50874 64.11601 38.69846 64.85843 38.88818 65.6145 39.07793 66.38422 39.26762 67.16762 39.45737 67.96715 39.64706 68.7828 39.8368 69.6084 40.02654 70.45137 40.21623 71.30927 40.40598 72.18701 40.59567 73.07715 40.78542 73.9847 40.97514 74.91086 41.16486 75.85066 41.35458 76.8091 41.5443 77.78244 41.73401 78.77936 41.92375 79.78622 42.11345 80.81667 42.30319 81.8645 42.49289 82.9297 42.68263 84.01476 42.87236 85.11722 43.06206 86.23953 43.2518 87.3755 43.4415 88.5326 43.63124 89.71075 43.82097 90.9026 44.01067 92.11308 44.20041 93.34093 44.3901 94.58986 44.57983 95.85121 44.76958 97.12625 44.95927 98.4174 45.14902 99.72472 45.33873 101.04318 45.52846 102.37656 45.71819 103.71487 45.90788 105.06688 46.09763 106.42384 46.28732 107.78702 46.47707 109.15762 46.6668 110.52452 46.8565 111.8964 47.04623 113.2608 47.23593 114.62271 47.42566 115.97346 47.6154 117.31429 47.8051 118.63773 47.99484 119.94751 48.18456 121.2337 48.37427 122.49382 48.56403 123.72166 48.75371 124.91599 48.94345 126.07802 49.13315 127.1929 49.32289 128.26804 49.51262 129.2898 49.70233 130.25817 49.89204 131.16944 50.08176 132.02109 50.27148 132.80324 50.46123 133.52332 50.65092 134.1689 50.84067 134.74245 51.03038 135.24031 51.2201 135.65869 51.40985 136.00258 51.59953 136.25957 51.78928 136.44332 51.97897 136.54264 52.16872 136.56499 52.35844 136.5029 52.54816 136.36759 52.73787 136.15157 52.92758 135.86353 53.11731 135.50475 53.30705 135.07518 53.49677 134.58106 53.6865 134.02239 53.8762 133.40537 54.06593 132.73494 54.25566 132.00868 54.44536 131.23274 54.6351 130.41584 54.8248 129.55548 55.01454 128.66034 55.20427 127.72798 55.39398 126.76955 55.5837 125.7838 55.7734 124.77446 55.96313 123.74525 56.15288 122.69742 56.34259 121.63968 56.53232 120.567 56.72203 119.48566 56.91176 118.39935 57.10149 117.30933 57.29118 116.2168 57.48093 115.12427 57.67062 114.03548 57.86037 112.94545 58.0501 111.86285 58.23979 110.78398 58.42952 109.7138 58.61925 108.65358 58.80896 107.59583 58.9987 106.5542 59.18842 105.52127 59.37814 104.49829 59.56786 103.48894 59.75758 102.49077 59.94731 101.50502 60.13701 100.53168 60.32675 99.57324 60.51645 98.62845 60.70619 97.69362 60.89592 96.77863 61.08562 95.87234 61.27536 94.98096 61.46506 94.10196 61.6548 93.24283 61.84453 92.39366 62.03424 91.55687 62.22397 90.73376 62.41368 89.92555 62.6034 89.12976 62.79314 88.34885 62.98283 87.58037 63.17258 86.82677 63.36227 86.08188 63.55202 85.35312 63.74173 84.63304 63.93146 83.92787 64.12119 83.23387 64.31088 82.55478 64.50063 81.88435 64.69035 81.22388 64.88007 80.57706 65.0698 79.94017 65.2595 79.31445 65.44922 78.69867 65.63896 78.0953 65.82866 77.50185 66.0184 76.91713 66.2081 76.3423 66.39784 75.77864 66.58755 75.22247 66.77728 74.6762 66.967 74.1399 67.15671 73.61101 67.34645 73.08957 67.53618 72.58057 67.72589 72.079 67.91562 71.58488 68.10533 71.09695 68.29504 70.61774 68.48479 70.14845 68.67448 69.68413 68.86423 69.22974 69.05392 68.77908 69.24367 68.33711 69.4334 67.90384 69.62311 67.47304 69.81284 67.05339 70.00253 66.6375 70.19228 66.22903 70.382 65.82431 70.57172 65.4295 70.76144 65.03844 70.95114 64.65483 71.14088 64.27493 71.33061 63.90247 71.52031 63.53497 71.71005 63.17122 71.89975 62.8149 72.08948 62.46233 72.27922 62.11597 72.46893 61.7733 72.65866 61.4381 72.84836 61.10413 73.0381 60.77637 73.22783 60.45233 73.41754 60.13452 73.60727 59.82043 73.79697 59.51128 73.98671 59.20465 74.17644 58.90295 74.36613 58.60622 74.55588 58.31198 74.74557 58.02272 74.93532 57.73595 75.12505 57.45412 75.31474 57.17477 75.50449 56.9029 75.69418 56.62976 75.88393 56.36285 76.07365 56.09717 76.26337 55.83768 76.45308 55.58069 76.6428 55.32495 76.83252 55.07416 77.02226 54.82587 77.21196 54.58005 77.4017 54.33919 77.5914 54.10083 77.78114 53.86618 77.97089 53.63155 78.16057 53.40187 78.35031 53.17343 78.54001 52.94873 78.72975 52.72523 78.91948 52.50551 79.10919 52.28824 79.2989 52.07593 79.48863 51.86116 79.67834 51.65135 79.86809 51.44527 80.05779 51.2404 80.24753 51.03806 80.43723 50.83693 80.62697 50.63829 80.8167 50.44214 81.0064 50.24971 81.19614 50.05602 81.38583 49.86731 81.57558 49.67986 81.7653 49.4961 81.95502 49.30989 82.14474 49.12987 82.33446 48.94983 82.52417 48.77232 82.71391 48.59724 82.90361 48.42345 83.09335 48.25089 83.28305 48.0808 83.4728 47.91194 83.66252 47.74557 83.85223 47.58046 84.04196 47.41536 84.23166 47.25395 84.4214 47.09381 84.61113 46.93489 84.80084 46.7797 84.99057 46.62328 85.18027 46.46933 85.37 46.31664 85.55974 46.16516 85.74944 46.01619 85.93918 45.8672 86.12889 45.72195 86.31862 45.57547 86.50835 45.43266 86.69806 45.28867 86.88779 45.14836 87.07748 45.00809 87.26723 44.86905 87.45695 44.73248 87.64667 44.59714 87.8364 44.46182 88.0261 44.32898 88.21582 44.19492 88.40556 44.06454 88.59526 43.93544 88.785 43.80632 88.97472 43.67967 89.16443 43.55304 89.35419 43.42766 89.54387 43.30351 89.73361 43.17935 89.92331 43.05893 90.11305 42.93727 90.30278 42.81558 90.4925 42.6989 90.6822 42.5797 90.87192 42.46301 91.06166 42.34755 91.25139 42.23209 91.44109 42.11911 91.63083 42.0049 91.82054 41.89316 92.01027 41.78143 92.20001 41.67216 92.3897 41.56169 92.57944 41.45367 92.76913 41.34813 92.95888 41.24013 93.1486 41.13585 93.33832 41.02908 93.52803 40.9248 93.71774 40.82298 93.90747 40.72118 94.09721 40.61813 94.28693 40.51758 94.47665 40.41826 94.66637 40.3177 94.8561 40.21838 95.04582 40.12277 95.23552 40.02596 95.42526 39.92911 95.61496 39.83475 95.8047 39.7404 95.99443 39.6448 96.18414 39.5517 96.37386 39.45859 96.56358 39.3667 96.7533 39.27484 96.94304 39.1842 97.13275 39.08984 97.32248 39.00667 97.51219 38.91728 97.70192 38.82788 97.89165 38.74348 98.08134 38.65532 98.27109 38.56842 98.46078 38.484 98.65053 38.39957 98.84026 38.31516 99.02997 38.23198 99.2197 38.14879 99.40941 38.06685 99.59912 37.98367 99.78886 37.90298 99.97858 37.82227 100.1683 37.74283 100.35802 37.66338 100.54774 37.58391 100.73747 37.5057 100.92717 37.42624 101.11691 37.35052 101.30661 37.27478 101.49635 37.19781 101.68608 37.12082 101.87578 37.04633 102.06552 36.97186 102.25522 36.89612 102.44496 36.82411 102.63469 36.74838 102.8244 36.67639 103.01413 36.60437 103.20384 36.53235 103.39355 36.46036 103.5833 36.39082 103.773 36.32007 103.96274 36.25055 104.15244 36.17978 104.34218 36.11026 104.53189 36.04073 104.72162 35.97368 104.91135 35.90541 105.10104 35.83836 105.29079 35.77133 105.48051 35.70428 105.67023 35.63847 105.85995 35.57393 106.04967 35.50937 106.23938 35.44356 106.42914 35.37901 106.61882 35.31447 106.80856 35.2499 106.99826 35.18782 107.188 35.12201 107.37773 35.05995 107.56744 35.00035 107.75716 34.93704 107.94687 34.87619 108.13661 34.81413 108.32634 34.7533 108.51605 34.69246 108.70578 34.63411 108.8955 34.57329 109.0852 34.51491 109.27495 34.45657 109.46465 34.39697 109.65439 34.33864 109.84409 34.28154 110.03383 34.22318 110.22356 34.16608 110.41327 34.10896 110.603 34.05309 110.7927 33.99597 110.98244 33.94136 111.17216 33.88425 111.36188 33.8296 111.5516 33.77374 111.7413 33.71913 111.93105 33.6645 112.12077 33.61111 112.31047 33.55649 112.50021 33.5031 112.68991 33.4497 112.87965 33.39632 113.06938 33.34668 113.2591 33.2933 113.44882 33.24239 113.63852 33.18901 113.82826 33.1381 114.01799 33.08595 114.2077 33.03505 114.39743 32.98415 114.58713 32.9345 114.77687 32.88359 114.9666 32.83394 115.1563 32.78552 115.34604 32.73586 115.53574 32.6862 115.72548 32.63777 115.9152 32.58936 116.1049 32.54094 116.29465 32.49376 116.48434 32.4441 116.67409 32.39816 116.86382 32.35098 117.05353 32.30382 117.24326 32.25662 117.43297 32.20946 117.6227 32.16351 117.81242 32.11758 118.00212 32.07289 118.19186 32.02696 118.38156 31.98227 118.5713 31.93633 118.76105 31.89165 118.95073 31.8457 119.14049 31.80225 119.33017 31.75757 119.51991 31.71288 119.70964 31.6694 119.89935 31.62596 120.08908 31.5825 120.2788 31.5403 120.4685 31.49684 120.65825 31.45338 120.84795 31.41241 121.03769 31.37022 121.22739 31.32675 121.41713 31.28578 121.60686 31.24358 121.79655 31.20137 121.9863 31.16165 122.176 31.11818 122.36574 31.07846 122.55547 31.03874 122.74518 30.9965 122.9349 30.95679 123.12462 30.91707 123.31433 30.87733 123.50407 30.8376 123.69377 30.79788 123.88351 30.75813 124.07321 30.71841 124.26295 30.68117 124.4527 30.64018 124.6424 30.60295 124.83212 30.56322 125.02182 30.52475 125.21156 30.48752 125.40129 30.449 125.591 30.41177 125.78073 30.37328 125.97044 30.33603 126.16016 30.30005 126.3499 30.26155 126.5396 30.2243 126.72934 30.1883 126.91905 30.1523 127.10878 30.11629 127.29852 30.08029 127.48822 30.0418 127.67795 30.00829 127.86765 29.9698 128.05739 29.93628 128.24712 29.90027 128.43683 29.86426 128.62656 29.8295 128.81626 29.7935 129.00598 29.75998 129.19573 29.7252 129.38542 29.68921 129.57517 29.65569 129.76488 29.62218 129.9546 29.58742 130.14435 29.55388 130.33403 29.51912 130.52378 29.48561 130.71347 29.45085 130.90322 29.41858 131.09294 29.38506 131.28266 29.35278 131.47238 29.31801 131.66208 29.28697 131.85182 29.25468 132.04155 29.22241 132.23125 29.19011 132.42099 29.15784 132.6107 29.12558 132.80043 29.09329 132.99018 29.06102 133.17986 29.02875 133.3696 28.99646 133.5593 28.96666 133.74904 28.93439 133.93877 28.90335 134.12848 28.87108 134.31819 28.84128 134.50792 28.81023 134.69763 28.77794 134.88738 28.74817 135.07709 28.71837 135.26682 28.68732 135.45653 28.65752 135.64626 28.6265 135.83599 28.59917 136.02568 28.56815 136.21543 28.53835 136.40512 28.50732 136.59487 28.48 136.78459 28.44894 136.9743 28.4204 137.16402 28.39308 137.35375 28.36205 137.54346 28.3335 137.7332 28.30371 137.92292 28.27515 138.11264 28.24783 138.30236 28.21805 138.49208 28.18948 138.68181 28.16093 138.8715 28.13239 139.06125 28.10631 139.25095 28.07774 139.44069 28.0492 139.63042 28.02313 139.82013 27.99455 140.00986 27.966 140.19957 27.93996 140.38928 27.91263 140.57903 27.88408 140.76874 27.85551 140.95847 27.83192 141.14818 27.80461 141.3379 27.77606 141.52764 27.75 141.71735 27.72269 141.90708 27.69785 142.09677 27.67053 142.28652 27.64572 142.47624 27.61716 142.66596 27.59233 142.85569 27.56624 143.04538 27.54143 143.23513 27.51286 143.42485 27.48804 143.61457 27.46196 143.80429 27.43715 143.994 27.41231 144.18372 27.38623 144.37346 27.3614 144.56317 27.33534 144.7529 27.3105 144.9426 27.28568 145.13234 27.26083 145.32207 27.23601 145.51178 27.21243 145.7015 27.18759 145.8912 27.16277 146.08095 27.13792 146.27068 27.11433 146.46039 27.08952 146.65012 27.06592 146.83983 27.0411 147.02956 27.01627 147.2193 26.99269 147.40898 26.96909 147.59873 26.94427 147.78842 26.9219 147.97817 26.89708 148.1679 26.87474 148.3576 26.85239 148.54732 26.82755 148.73703 26.80273 148.92678 26.78163 149.1165 26.75679 149.30622 26.73444 149.49594 26.7121 149.68566 26.6885 149.87538 26.66617 150.06513 26.64381 150.2548 26.62146 150.44455 26.59787 150.63425 26.57555 150.82399 26.55318 151.01372 26.53207 151.20343 26.50974 151.39316 26.48615 151.58286 26.46379 151.7726 26.44269 151.96233 26.42035 152.15204 26.39925 152.34177 26.37813 152.53148 26.3558 152.7212 26.3322 152.91094 26.31233 153.10063 26.28998 153.29038 26.26888 153.48007 26.2453 153.66982 26.22543 153.85955 26.20432 154.04926 26.18321 154.23899 26.16211 154.4287 26.14226 154.61843 26.12114 154.80815 26.10002 154.99787 26.07892 155.18759 26.05907 155.3773 26.03796 155.56703 26.01686 155.75676 25.99574 155.94646 25.97464 156.1362 25.95354 156.3259 25.93492 156.51564 25.91382 156.70537 25.89395 156.89507 25.8741 157.08483 25.85422 157.2745 25.83311 157.46425 25.81448 157.65398 25.79338 157.84369 25.77351 158.03342 25.7549 158.22313 25.7338 158.41286 25.71518 158.60259 25.69408 158.7923 25.67545 158.98203 25.65683 159.17173 25.63696 159.36147 25.61711 159.55121 25.59848 159.7409 25.5786 159.93065 25.55998 160.12033 25.54137 160.31008 25.52275 160.4998 25.5029 160.68952 25.48424 160.87924 25.46562 161.06896 25.447 161.25867 25.42715 161.44841 25.40854 161.6381 25.38866 161.82785 25.37003 162.01755 25.35141 162.20729 25.33405 162.39702 25.31541 162.58673 25.2968 162.77646 25.2794 162.96616 25.26079 163.1559 25.24216 163.34563 25.22478 163.53534 25.20615 163.72507 25.18877 163.91478 25.17139 164.10449 25.15276 164.29425 25.13416 164.48394 25.11678 164.67368 25.09816 164.86339 25.08076 165.05312 25.06339 165.24286 25.04724 165.43256 25.02864 165.62229 25.01125 165.81198 24.99387 166.00173 24.97525 166.19145 24.95786 166.38117 24.94048 166.57089 24.9231 166.7606 24.90695 166.95034 24.88959 167.14006 24.8722 167.32976 24.85481 167.5195 24.83867 167.70922 24.82141 167.89894 24.80417 168.08869 24.7874 168.27838 24.77063 168.46811 24.75389 168.6578 24.73698 168.84755 24.72073 169.03728 24.70386 169.22699 24.68733 169.41672 24.6707 169.60642 24.65393 169.79616 24.63805 169.98589 24.62166 170.17559 24.60527 170.36533 24.58888 170.55504 24.5725 170.74477 24.55647 170.93451 24.54008 171.12419 24.52446 171.31394 24.50818 171.50363 24.49179 171.69338 24.4759 171.8831 24.46014 172.07282 24.44426 172.26255 24.42836 172.45226 24.41248 172.64199 24.3967 172.83171 24.38118 173.02143 24.36554 173.21115 24.3499 173.40087 24.334 173.59059 24.31874 173.78034 24.3032 173.97002 24.28757 174.15978 24.2723 174.34946 24.25693 174.5392 24.2415 174.72893 24.22649 174.91864 24.21109 175.10836 24.19608 175.29808 24.18092 175.4878 24.16577 175.67754 24.15051 175.86725 24.13548 176.05698 24.12071 176.24669 24.10558 176.43642 24.09055 176.62615 24.07578 176.81584 24.061 177.0056 24.0461 177.19528 24.03145 177.38503 24.0168 177.57476 24.00215 177.76447 23.9875 177.9542 23.97272 178.1439 23.95847 178.33362 23.94379 178.52336 23.92915 178.71308 23.91463 178.9028 23.90047 179.09252 23.88608 179.28224 23.8718 179.47197 23.85739 179.66168 23.84325 179.85141 23.82886 180.0411 23.8148 180.23085 23.80054 180.42058 23.7865 180.61029 23.7726 180.80002 23.75832 180.98973 23.74454 181.17946 23.73027 181.36919 23.71649 181.5589 23.70244 181.74863 23.68867 181.93834 23.67502 182.12807 23.66112 182.3178 23.64746 182.5075 23.63393 182.69724 23.6199 182.88694 23.60637 183.07668 23.5927 183.2664 23.57916 183.45612 23.56552 183.64585 23.55186 183.83554 23.53883 184.02529 23.52528 184.21501 23.51201 184.40473 23.49847 184.59445 23.48494 184.78417 23.47191 184.97388 23.45862 185.16364 23.44534 185.35334 23.43205 185.54306 23.41902 185.73276 23.40598 185.9225 23.39294 186.11223 23.37991 186.30194 23.367 186.49167 23.35385 186.68137 23.3408 186.87113 23.32776 187.06084 23.3151 187.25055 23.3022 187.44028 23.28929 187.62999 23.27637 187.81972 23.26358 188.00946 23.2508 188.19915 23.2385 188.38889 23.22559 188.57859 23.21292 188.76833 23.20038 188.95806 23.18773 189.14777 23.17508 189.3375 23.16266 189.5272 23.15012 189.71694 23.13757 189.90666 23.12529 190.09638 23.11299 190.2861 23.10045 190.47582 23.08817 190.66555 23.07574 190.85529 23.06346 191.04497 23.05116 191.23471 23.03886 191.42441 23.0267 191.61415 23.01466 191.80388 23.00224 191.99359 22.99034 192.18332 22.97842 192.37303 22.96625 192.56276 22.95433 192.75249 22.94229 192.9422 22.93025 193.13193 22.91833 193.32164 22.90665 193.51137 22.89471 193.7011 22.88255 193.8908 22.87102 194.08054 22.85912 194.27024 22.8473"/>
</g>
<use data-text="&#x03c9;" xlink:href="#font_1_1" transform="matrix(9.963098,0,0,-9.963098,206.76161,158.03124)"/>
<use data-text="G" xlink:href="#font_1_2" transform="matrix(9.963098,0,0,-9.963098,17.220162,9.389801)"/>
<use data-text="V" xlink:href="#font_5_1" transform="matrix(6.9741489,0,0,-6.9741489,25.05355,10.884872)"/>
<use data-text="(" xlink:href="#font_3_1" transform="matrix(9.963098,0,0,-9.963098,31.972893,9.389801)"/>
<use data-text="&#x03c9;" xlink:href="#font_1_1" transform="matrix(9.963098,0,0,-9.963098,35.84709,9.389801)"/>
<use data-text=")" xlink:href="#font_3_2" transform="matrix(9.963098,0,0,-9.963098,42.406419,9.389801)"/>
</svg>
