<svg xmlns="http://www.w3.org/2000/svg" xmlns:xlink="http://www.w3.org/1999/xlink" xmlns:inkscape="http://www.inkscape.org/namespaces/inkscape" version="1.1" width="123" height="77" viewBox="0 0 123 77">
<defs>
<path id="font_1_2" d="M.6279907 .5686035C.6769867 .64660647 .71899417 .6496124 .7559967 .6516113 .7679901 .65260317 .7689972 .6696167 .7689972 .6706085 .7689972 .6786041 .7639923 .6826172 .7559967 .6826172 .7299957 .6826172 .70098879 .6796112 .673996 .6796112 .6409912 .6796112 .6069946 .6826172 .57499697 .6826172 .56900027 .6826172 .55599978 .6826172 .55599978 .66360476 .55599978 .65260317 .5649872 .6516113 .57199099 .6516113 .598999 .6496124 .6179962 .63960269 .6179962 .61860659 .6179962 .6036072 .6029968 .581604 .6029968 .5805969L.29599 .092544559 .22799683 .62161257C.22799683 .63861086 .25099183 .6516113 .29699708 .6516113 .31098939 .6516113 .32199098 .6516113 .32199098 .6716156 .32199098 .680603 .31399537 .6826172 .30799867 .6826172 .2679901 .6826172 .22499085 .6796112 .18399048 .6796112 .1659851 .6796112 .14698792 .680603 .1289978 .680603 .11099243 .680603 .09199524 .6826172 .07499695 .6826172 .067993167 .6826172 .055999757 .6826172 .055999757 .66360476 .055999757 .6516113 .06498718 .6516113 .08099365 .6516113 .13699341 .6516113 .13798523 .64260867 .14099121 .6175995L.21998596 .0005340576C.22299195-.019470215 .22698975-.022460938 .23999024-.022460938 .2559967-.022460938 .2599945-.017471314 .2679901-.004470825L.6279907 .5686035Z"/>
<path id="font_2_105" d="M.375 .12606812V.1809845H.34098817V.12705994C.34098817 .059173585 .30899049 .022232056 .269989 .022232056 .20098877 .022232056 .20098877 .10609436 .20098877 .124069217V.39465333H.35699464V.43066407H.20098877V.6142578H.16699219C.1659851 .5244446 .125 .42565919 .0289917 .4226532V.39465333H.12199402V.1250763C.12199402 .01322937 .20599365-.009765625 .2619934-.009765625 .32899476-.010009766 .375 .04699707 .375 .12599182V.12606812Z"/>
<path id="font_2_63" d="M.58999636 0V.035995485C.5249939 .035995485 .5149994 .035995485 .5149994 .0790863V.3035736C.5149994 .39045716 .47200013 .44140626 .36499024 .44140626 .27598573 .44140626 .22698975 .3884735 .20498657 .35058595H.20399475V.69433596L.053985597 .6826172V.64660647C.12098694 .64660647 .1289978 .6396179 .1289978 .59065249V.07896423C.1289978 .035995485 .11898804 .035995485 .053985597 .035995485V0C.053985597 0 .12599182 .0039978029 .16799927 .0039978029 .20498657 .0039978029 .27398683 .0009918213 .2829895 0V.035995485C.21798706 .035995485 .20799256 .035995485 .20799256 .07904053V.25923158C.20799256 .36434938 .29100038 .4133911 .35699464 .4133911 .4269867 .4133911 .43598939 .3583374 .43598939 .3072815V.07904053C.43598939 .035995485 .42599488 .035995485 .36099244 .035995485V0C.36099244 0 .43299867 .0039978029 .47499085 .0039978029 .5119934 .0039978029 .58099368 .0009918213 .58999636 0Z"/>
<path id="font_1_3" d="M.7200012 .6586151C.72099307 .6626129 .72299197 .66760256 .72299197 .6736145 .72299197 .6826172 .71798709 .6826172 .69799807 .6826172H.27598573C.2519989 .6826172 .25099183 .6816101 .24499512 .6626129L.18998719 .4827118C.18798828 .47772218 .18699646 .47071839 .18699646 .46871949 .18699646 .46772767 .18699646 .45773316 .19898987 .45773316 .20799256 .45773316 .20999146 .46472169 .21199036 .46772767 .25 .5856476 .3019867 .6516113 .45799256 .6516113H.62098696L.06199646 .026992798C.06199646 .025985718 .057998659 .011993408 .057998659 .008987427 .057998659 0 .06498718 0 .08299255 0H.5179901C.5419922 0 .54299929 .0009918213 .548996 .019989014L.6199951 .24085999C.62098696 .24485779 .6239929 .25186158 .6239929 .25585938 .6239929 .260849 .6199951 .2668457 .61099246 .2668457 .60198977 .2668457 .6009979 .2628479 .59399417 .24186707 .5499878 .10594177 .5019989 .033996583 .33198548 .033996583H.16099549L.7200012 .6586151Z"/>
<path id="font_1_1" d="M.37399293 .6056366C.3829956 .6416168 .38598634 .6516113 .46499635 .6516113 .4889984 .6516113 .49699403 .6516113 .49699403 .6706085 .49699403 .6826172 .48599244 .6826172 .48199464 .6826172 .45298768 .6826172 .3789978 .6796112 .34999085 .6796112 .31999208 .6796112 .24699402 .6826172 .21699524 .6826172 .20999146 .6826172 .19699097 .6826172 .19699097 .6626129 .19699097 .6516113 .20599365 .6516113 .22499085 .6516113 .2669983 .6516113 .2939911 .6516113 .2939911 .63261416 .2939911 .6276245 .2939911 .6256256 .2919922 .6166229L.15699768 .07795715C.147995 .040985109 .14498902 .0309906 .06599426 .0309906 .042999269 .0309906 .033996583 .0309906 .033996583 .010986328 .033996583 0 .04598999 0 .04899597 0 .07798767 0 .15098572 .0029907227 .17999268 .0029907227 .20999146 .0029907227 .28399659 0 .31399537 0 .32199098 0 .33399964 0 .33399964 .018997193 .33399964 .0309906 .32598878 .0309906 .3039856 .0309906 .28599549 .0309906 .2809906 .0309906 .26098634 .032989503 .23999024 .034988405 .23599243 .038986207 .23599243 .049987794 .23599243 .05796814 .23799134 .065963748 .23999024 .07296753L.37399293 .6056366Z"/>
<path id="font_2_50" d="M.46798707 .12036133C.46798707 .12435913 .46598817 .13438416 .45098878 .13438416 .43798829 .13438416 .43598939 .12837219 .43299867 .11836243 .4019928 .037246705 .32598878 .022232056 .2899933 .022232056 .24299622 .022232056 .19799805 .043258668 .16799927 .08131409 .1309967 .12837219 .12998963 .18945313 .12998963 .22851563H.43998719C.46099855 .22851563 .46798707 .22851563 .46798707 .25050355 .46798707 .33839417 .4189911 .44628907 .269989 .44628907 .13899231 .44628907 .038986207 .34239198 .038986207 .21949768 .038986207 .092315677 .1499939-.009765625 .2829895-.009765625 .41799928-.009765625 .46798707 .09832764 .46798707 .12036133M.397995 .25450135H.1309967C.14199829 .39530946 .23199463 .41827394 .269989 .41827394 .3929901 .41827394 .39698792 .27947999 .397995 .25450135Z"/>
<path id="font_2_116" d="M.57398989 0V.035995485C.5069885 .035995485 .49899293 .04197693 .47599793 .06793213L.33898927 .22369385 .33099366 .23371887C.33099366 .23672486 .39698792 .3078308 .4059906 .31684876 .44099427 .35588075 .47599793 .3936615 .5549927 .39465333V.43066407C.5269928 .4286499 .49798585 .426651 .47099305 .426651 .44099427 .426651 .4019928 .42765809 .37199403 .43066407V.39465333C.3889923 .39169313 .3919983 .3808136 .3919983 .3718872 .3919983 .3718872 .3919983 .35488893 .3769989 .33789063L.30699159 .25875855 .22399903 .35388185C.21398926 .36488343 .21299744 .3698883 .21299744 .3738861 .21299744 .38871766 .22698975 .39465333 .23999024 .39465333V.43066407C.20298767 .42765809 .16499329 .426651 .12799073 .426651 .09799194 .426651 .05999756 .42765809 .0309906 .43066407V.39465333C.07699585 .39465333 .102996829 .39465333 .1289978 .36488343L.2539978 .22070313 .2619934 .21069336C.2619934 .20770264 .18699646 .12580872 .1769867 .11483765 .13999939 .074920658 .10598755 .037994386 .025985718 .035995485V0C.055999757 .0019989014 .07798767 .0039978029 .10899353 .0039978029 .13899231 .0039978029 .1789856 .0029907227 .20899964 0V.035995485C.19699097 .037994386 .18899536 .04496765 .18899536 .058944704 .18899536 .07791138 .19999695 .09088135 .21598816 .10784912L.28599549 .18469239 .37298585 .08589172C.3919983 .064941409 .3919983 .062942508 .3919983 .0569458 .3919983 .036987306 .36898805 .035995485 .36499024 .035995485V0C.37399293 .0009918213 .44599916 .0039978029 .47799684 .0039978029 .5099945 .0039978029 .5419922 .0029907227 .57398989 0Z"/>
</defs>
<path transform="matrix(1,0,0,-1.00005,29.033997,17.348267)" stroke-width=".3985" stroke-linecap="butt" stroke-miterlimit="10" stroke-linejoin="miter" fill="none" stroke="#000000" d="M0 0"/>
<path transform="matrix(1,0,0,-1.00005,29.033997,17.348267)" stroke-width=".3985" stroke-linecap="butt" stroke-miterlimit="10" stroke-linejoin="miter" fill="none" stroke="#000000" d="M0 0V-16.44109M0-40.25252V-56.69362"/>
<path transform="matrix(1,0,0,-1.00005,29.033997,17.348267)" stroke-width=".797" stroke-linecap="butt" stroke-miterlimit="10" stroke-linejoin="miter" fill="none" stroke="#000000" d="M11.90572-28.3468C11.90572-21.77138 6.57541-16.44109 0-16.44109-6.57541-16.44109-11.90572-21.77138-11.90572-28.3468-11.90572-34.92223-6.57541-40.25252 0-40.25252 6.57541-40.25252 11.90572-34.92223 11.90572-28.3468ZM0-28.3468"/>
<path transform="matrix(1,0,0,-1.00005,29.033997,17.348267)" stroke-width=".797" stroke-linecap="butt" stroke-miterlimit="10" stroke-linejoin="miter" fill="none" stroke="#000000" d="M-5.95285-28.3468C-4.98253-26.82289-4.0539-25.37038-2.97643-25.37038-1.89896-25.37038-.97032-26.82288 0-28.3468 .9703-29.87071 1.89894-31.32323 2.97643-31.32323 4.05388-31.32323 4.98251-29.87073 5.95285-28.3468"/>
<use data-text="V" xlink:href="#font_1_2" transform="matrix(9.9626,0,0,-9.963098,.50699618,47.843793)"/>
<use data-text="t" xlink:href="#font_2_105" transform="matrix(6.9738,0,0,-6.9741489,6.317993,49.337865)"/>
<use data-text="h" xlink:href="#font_2_63" transform="matrix(6.9738,0,0,-6.9741489,9.428307,49.337865)"/>
<path transform="matrix(1,0,0,-1.00005,29.033997,17.348267)" stroke-width=".3985" stroke-linecap="butt" stroke-miterlimit="10" stroke-linejoin="miter" fill="none" stroke="#000000" d="M0 0H26.64601M58.3944 0H85.04042"/>
<path transform="matrix(1,0,0,-1.00005,29.033997,17.348267)" stroke-width=".797" stroke-linecap="butt" stroke-miterlimit="10" stroke-linejoin="miter" fill="none" stroke="#000000" d="M26.64601 5.95285H58.39439V-5.95285H26.64601Z"/>
<path transform="matrix(1,0,0,-1.00005,29.033997,17.348267)" d="M86.62756 0C86.62756 .87656 85.91698 1.58714 85.04042 1.58714 84.16386 1.58714 83.45328 .87656 83.45328 0 83.45328-.87656 84.16386-1.58714 85.04042-1.58714 85.91698-1.58714 86.62756-.87656 86.62756 0ZM85.04042 0" fill="#ffffff"/>
<path transform="matrix(1,0,0,-1.00005,29.033997,17.348267)" stroke-width=".3985" stroke-linecap="butt" stroke-miterlimit="10" stroke-linejoin="miter" fill="none" stroke="#000000" d="M86.62756 0C86.62756 .87656 85.91698 1.58714 85.04042 1.58714 84.16386 1.58714 83.45328 .87656 83.45328 0 83.45328-.87656 84.16386-1.58714 85.04042-1.58714 85.91698-1.58714 86.62756-.87656 86.62756 0ZM85.04042 0"/>
<path transform="matrix(1,0,0,-1.00005,29.033997,17.348267)" d="" fill="#ffffff"/>
<path transform="matrix(1,0,0,-1.00005,29.033997,17.348267)" stroke-width=".3985" stroke-linecap="butt" stroke-miterlimit="10" stroke-linejoin="miter" fill="none" stroke="#000000" d=""/>
<use data-text="Z" xlink:href="#font_1_3" transform="matrix(9.9626,0,0,-9.963098,64.149,7.5787789)"/>
<use data-text="t" xlink:href="#font_2_105" transform="matrix(6.9738,0,0,-6.9741489,70.95,9.072853)"/>
<use data-text="h" xlink:href="#font_2_63" transform="matrix(6.9738,0,0,-6.9741489,74.06032,9.072853)"/>
<path transform="matrix(1,0,0,-1.00005,29.033997,17.348267)" d="M69.98117 0V-1.98425L74.19772 0 69.98117 1.98425Z"/>
<path transform="matrix(1,0,0,-1.00005,29.033997,17.348267)" stroke-width=".3985" stroke-linecap="butt" stroke-miterlimit="10" stroke-linejoin="miter" fill="none" stroke="#000000" d="M69.98117 0V-1.98425L74.19772 0 69.98117 1.98425Z"/>
<use data-text="I" xlink:href="#font_1_1" transform="matrix(9.9626,0,0,-9.963098,92.894,12.264013)"/>
<use data-text="e" xlink:href="#font_2_50" transform="matrix(6.9738,0,0,-6.9741489,97.272998,13.758087)"/>
<use data-text="x" xlink:href="#font_2_116" transform="matrix(6.9738,0,0,-6.9741489,100.81569,13.758087)"/>
<use data-text="t" xlink:href="#font_2_105" transform="matrix(6.9738,0,0,-6.9741489,104.99997,13.758087)"/>
<path transform="matrix(1,0,0,-1.00005,29.033997,17.348267)" stroke-width=".3985" stroke-linecap="butt" stroke-miterlimit="10" stroke-linejoin="miter" fill="none" stroke="#000000" d="M0-56.69362H42.5202M42.5202-56.69362H85.04042"/>
<path transform="matrix(1,0,0,-1.00005,29.033997,17.348267)" d="M86.62756-56.69362C86.62756-55.81705 85.91698-55.10646 85.04042-55.10646 84.16386-55.10646 83.45328-55.81705 83.45328-56.69362 83.45328-57.57018 84.16386-58.28076 85.04042-58.28076 85.91698-58.28076 86.62756-57.57018 86.62756-56.69362ZM85.04042-56.69362" fill="#ffffff"/>
<path transform="matrix(1,0,0,-1.00005,29.033997,17.348267)" stroke-width=".3985" stroke-linecap="butt" stroke-miterlimit="10" stroke-linejoin="miter" fill="none" stroke="#000000" d="M86.62756-56.69362C86.62756-55.81705 85.91698-55.10646 85.04042-55.10646 84.16386-55.10646 83.45328-55.81705 83.45328-56.69362 83.45328-57.57018 84.16386-58.28076 85.04042-58.28076 85.91698-58.28076 86.62756-57.57018 86.62756-56.69362ZM85.04042-56.69362"/>
<path transform="matrix(1,0,0,-1.00005,29.033997,17.348267)" d="" fill="#ffffff"/>
<path transform="matrix(1,0,0,-1.00005,29.033997,17.348267)" stroke-width=".3985" stroke-linecap="butt" stroke-miterlimit="10" stroke-linejoin="miter" fill="none" stroke="#000000" d=""/>
<path transform="matrix(1,0,0,-1.00005,29.033997,17.348267)" stroke-width=".3985" stroke-linecap="butt" stroke-miterlimit="10" stroke-linejoin="miter" fill="none" stroke="#000000" d="M85.04042-28.3468"/>
<use data-text="V" xlink:href="#font_1_2" transform="matrix(9.9626,0,0,-9.963098,105.501,48.318815)"/>
<use data-text="e" xlink:href="#font_2_50" transform="matrix(6.9738,0,0,-6.9741489,111.312,49.812887)"/>
<use data-text="x" xlink:href="#font_2_116" transform="matrix(6.9738,0,0,-6.9741489,114.85469,49.812887)"/>
<use data-text="t" xlink:href="#font_2_105" transform="matrix(6.9738,0,0,-6.9741489,119.03897,49.812887)"/>
</svg>
