<svg xmlns="http://www.w3.org/2000/svg" xmlns:xlink="http://www.w3.org/1999/xlink" xmlns:inkscape="http://www.inkscape.org/namespaces/inkscape" version="1.1" width="138" height="122" viewBox="0 0 138 122">
<defs>
<path id="font_1_2" d="M.6279907 .5686035C.6769867 .64660647 .71899417 .6496124 .7559967 .6516113 .7679901 .65260317 .7689972 .6696167 .7689972 .6706085 .7689972 .6786041 .7639923 .6826172 .7559967 .6826172 .7299957 .6826172 .70098879 .6796112 .673996 .6796112 .6409912 .6796112 .6069946 .6826172 .57499697 .6826172 .56900027 .6826172 .55599978 .6826172 .55599978 .66360476 .55599978 .65260317 .5649872 .6516113 .57199099 .6516113 .598999 .6496124 .6179962 .63960269 .6179962 .61860659 .6179962 .6036072 .6029968 .581604 .6029968 .5805969L.29599 .092544559 .22799683 .62161257C.22799683 .63861086 .25099183 .6516113 .29699708 .6516113 .31098939 .6516113 .32199098 .6516113 .32199098 .6716156 .32199098 .680603 .31399537 .6826172 .30799867 .6826172 .2679901 .6826172 .22499085 .6796112 .18399048 .6796112 .1659851 .6796112 .14698792 .680603 .1289978 .680603 .11099243 .680603 .09199524 .6826172 .07499695 .6826172 .067993167 .6826172 .055999757 .6826172 .055999757 .66360476 .055999757 .6516113 .06498718 .6516113 .08099365 .6516113 .13699341 .6516113 .13798523 .64260867 .14099121 .6175995L.21998596 .0005340576C.22299195-.019470215 .22698975-.022460938 .23999024-.022460938 .2559967-.022460938 .2599945-.017471314 .2679901-.004470825L.6279907 .5686035Z"/>
<path id="font_2_1" d="M.2639923 .66430667C.2649994 .66630557 .2679901 .67930606 .2679901 .68029788 .2679901 .68530276 .2639923 .6943054 .2519989 .6943054 .23199463 .6943054 .14898682 .6863098 .12399292 .6843109 .115997318 .68330386 .101989749 .682312 .101989749 .66130068 .101989749 .64730837 .115997318 .64730837 .12799073 .64730837 .17599488 .64730837 .17599488 .64030459 .17599488 .63230898 .17599488 .62532046 .1659851 .58532717 .1599884 .5623474L.13699341 .4703827C.12799073 .43640138 .07299805 .21731568 .070999149 .20431519 .06599426 .18029785 .06599426 .16729737 .06599426 .1552887 .06599426 .054244996 .12998963-.009765625 .21299744-.009765625 .33799745-.009765625 .47099305 .12626648 .47099305 .27433778 .47099305 .39138795 .3899994 .44140626 .32099916 .44140626 .2689972 .44140626 .22499085 .4123993 .19499207 .38638307L.2639923 .66430667M.21398926 .018234253C.16499329 .018234253 .13699341 .06124878 .13699341 .120269779 .13699341 .1572876 .1459961 .19129944 .17399597 .3043518 .17999268 .32336427 .17999268 .32536317 .19898987 .34736634 .23699951 .39138795 .28199769 .4133911 .31799317 .4133911 .35699464 .4133911 .3909912 .38438417 .3909912 .31636048 .3909912 .27534486 .36898805 .17329407 .33898927 .11526489 .31498719 .06625366 .2649994 .018234253 .21398926 .018234253Z"/>
<path id="font_1_1" d="M.375 .6136017C.3809967 .63760378 .38398744 .6476135 .40299989 .65060427 .4119873 .6516113 .44400025 .6516113 .46398927 .6516113 .5349884 .6516113 .6459961 .6516113 .6459961 .5525818 .6459961 .51856997 .6299896 .44955445 .59098818 .41055299 .5649872 .38453675 .5119934 .35253907 .42199708 .35253907H.30999757L.375 .6136017M.5189972 .33953858C.6199951 .3615265 .7389984 .43154908 .7389984 .5325775 .7389984 .61860659 .6489868 .6826172 .5179901 .6826172H.23298645C.21299744 .6826172 .20399475 .6826172 .20399475 .6626129 .20399475 .6516113 .21299744 .6516113 .23199463 .6516113 .23399353 .6516113 .25299073 .6516113 .269989 .6496124 .28799439 .6476135 .29699708 .64660647 .29699708 .63360598 .29699708 .62960818 .29599 .6266022 .29299928 .6145935L.15899658 .07752991C.14898682 .038528444 .14698792 .030532837 .067993167 .030532837 .049987794 .030532837 .040985109 .030532837 .040985109 .010528564 .040985109-.00047302247 .052993776-.00047302247 .054992677-.00047302247 .08299255-.00047302247 .15299988 .002532959 .18099976 .002532959 .20899964 .002532959 .27999879-.00047302247 .30799867-.00047302247 .31599427-.00047302247 .32798768-.00047302247 .32798768 .01953125 .32798768 .030532837 .31900025 .030532837 .2999878 .030532837 .2630005 .030532837 .23498535 .030532837 .23498535 .048538209 .23498535 .054534913 .23699951 .059524537 .23799134 .0655365L.3039856 .3305359H.4229889C.5139923 .3305359 .5319977 .27453614 .5319977 .23953247 .5319977 .22453308 .5239868 .19352722 .5179901 .17053223 .5109863 .14253235 .5019989 .105529788 .5019989 .08552551 .5019989-.022460938 .621994-.022460938 .6349945-.022460938 .7200012-.022460938 .7549896 .07853699 .7549896 .0925293 .7549896 .104537967 .74398806 .104537967 .7429962 .104537967 .73399356 .104537967 .7319946 .09753418 .7299957 .090530399 .7049866 .016525269 .6619873-.00047302247 .6389923-.00047302247 .60598757-.00047302247 .598999 .021530152 .598999 .060531618 .598999 .091537479 .6049957 .14253235 .60899356 .17453003 .61099246 .1885376 .61299136 .20753479 .61299136 .2215271 .61299136 .2985382 .54599 .3295288 .5189972 .33953858Z"/>
<path id="font_3_3" d="M.272995 .33428956C.35099793 .33428956 .40699769 .2803192 .40699769 .1733551 .40699769 .04940796 .33499146 .012466431 .2769928 .012466431 .23699951 .012466431 .14898682 .0234375 .10699463 .082351688 .1539917 .084350589 .16499329 .11735535 .16499329 .13835144 .16499329 .17034912 .14099121 .19335938 .10998535 .19335938 .08198547 .19335938 .053985597 .17634583 .053985597 .13534546 .053985597 .041412355 .1579895-.01953125 .2789917-.01953125 .41799928-.01953125 .5139923 .07336426 .5139923 .1733551 .5139923 .2513275 .44999696 .32929994 .33999635 .35229493 .44499208 .39024354 .48298646 .4650879 .48298646 .5260773 .48298646 .60505679 .3919983 .6640625 .2809906 .6640625 .16999817 .6640625 .084991458 .61006167 .084991458 .5300751 .084991458 .49606324 .10699463 .47706605 .13699341 .47706605 .16799927 .47706605 .18798828 .5000763 .18798828 .5280762 .18798828 .5570679 .16799927 .57806399 .13699341 .5800781 .17199707 .62405398 .24099732 .63505557 .27799989 .63505557 .32299806 .63505557 .38598634 .6130676 .38598634 .5260773 .38598634 .48406983 .37199403 .43814088 .34599305 .4072113 .31298829 .36927796 .2849884 .3672943 .23498535 .36428834 .20999146 .3623047 .20799256 .3623047 .20298767 .3612976 .20098877 .3612976 .19299317 .3592987 .19299317 .34829713 .19299317 .33428956 .20199585 .33428956 .21899414 .33428956H.272995Z"/>
<path id="font_3_2" d="M.5049896 .18203736H.47099305C.46798707 .16001892 .45799256 .100997928 .44499208 .09098816 .43699647 .084991458 .3600006 .084991458 .34599305 .084991458H.1619873C.2669983 .17803955 .3019867 .20603943 .3619995 .25306703 .43598939 .312088 .5049896 .374115 .5049896 .46914674 .5049896 .5900879 .39898683 .6640625 .2709961 .6640625 .14698792 .6640625 .06298828 .57710269 .06298828 .4851532 .06298828 .43414308 .10598755 .42915345 .115997318 .42915345 .13999939 .42915345 .16899109 .44615174 .16899109 .48214723 .16899109 .5001526 .1619873 .53515627 .10998535 .53515627 .14099121 .6060791 .20899964 .62805178 .2559967 .62805178 .35598756 .62805178 .4079895 .5501404 .4079895 .46914674 .4079895 .38212586 .34599305 .3130951 .31399537 .27708436L.07299805 .038986207C.06298828 .02999878 .06298828 .027999878 .06298828 0H.47499085L.5049896 .18203736Z"/>
<path id="font_3_1" d="M.33499146 .63612368C.33499146 .6630554 .33299256 .6640625 .30499269 .6640625 .24099732 .6014404 .1499939 .6004486 .10899353 .6004486V.5644531C.1329956 .5644531 .19898987 .5644531 .2539978 .592453V.08203125C.2539978 .04899597 .2539978 .035995485 .1539917 .035995485H.115997318V0C.13398743 .0009918213 .25698854 .0039978029 .2939911 .0039978029 .32499696 .0039978029 .45098878 .0009918213 .47299195 0V.035995485H.43499757C.33499146 .035995485 .33499146 .04899597 .33499146 .08203125V.63612368Z"/>
</defs>
<path transform="matrix(1.00002,0,0,-1,28.53025,17.347)" stroke-width=".3985" stroke-linecap="butt" stroke-miterlimit="10" stroke-linejoin="miter" fill="none" stroke="#000000" d="M0 0"/>
<path transform="matrix(1.00002,0,0,-1,28.53025,17.347)" stroke-width=".3985" stroke-linecap="butt" stroke-miterlimit="10" stroke-linejoin="miter" fill="none" stroke="#000000" d="M0 0V-36.56735M0-48.47305V-85.04042L26.64601-85.0404M58.3944-85.0404 85.04042-85.04042 85.0404-58.3944M85.0404-26.64601 85.04042 0H58.3944M26.64601 0H0"/>
<path transform="matrix(1.00002,0,0,-1,28.53025,17.347)" stroke-width=".797" stroke-linecap="butt" stroke-miterlimit="10" stroke-linejoin="miter" fill="none" stroke="#000000" d="M11.90572-36.56735H-11.90572M5.95285-40.53592H-5.95285M11.90572-44.50449H-11.90572M5.95285-48.47305H-5.95285"/>
<use data-text="V" xlink:href="#font_1_2" transform="matrix(9.962799,0,0,-9.9626,.506691,62.014)"/>
<use data-text="b" xlink:href="#font_2_1" transform="matrix(6.97394,0,0,-6.9738,6.31781,63.509)"/>
<use data-text="b" xlink:href="#font_2_1" transform="matrix(6.97394,0,0,-6.9738,9.818726,63.509)"/>
<path transform="matrix(1.00002,0,0,-1,28.53025,17.347)" stroke-width=".797" stroke-linecap="butt" stroke-linejoin="bevel" fill="none" stroke="#000000" d="M26.2475-85.0404 29.2917-79.08755 34.58308-90.99326 39.87447-79.08755 45.16585-90.99326 50.45723-79.08755 55.74861-90.99326 58.7928-85.0404"/>
<path transform="matrix(1.00002,0,0,-1,28.53025,17.347)" d="M86.62756-85.04042C86.62756-84.16386 85.91698-83.45328 85.04042-83.45328 84.16386-83.45328 83.45328-84.16386 83.45328-85.04042 83.45328-85.91698 84.16386-86.62756 85.04042-86.62756 85.91698-86.62756 86.62756-85.91698 86.62756-85.04042ZM85.04042-85.04042"/>
<path transform="matrix(1.00002,0,0,-1,28.53025,17.347)" stroke-width=".3985" stroke-linecap="butt" stroke-miterlimit="10" stroke-linejoin="miter" fill="none" stroke="#000000" d="M86.62756-85.04042C86.62756-84.16386 85.91698-83.45328 85.04042-83.45328 84.16386-83.45328 83.45328-84.16386 83.45328-85.04042 83.45328-85.91698 84.16386-86.62756 85.04042-86.62756 85.91698-86.62756 86.62756-85.91698 86.62756-85.04042ZM85.04042-85.04042"/>
<use data-text="R" xlink:href="#font_1_1" transform="matrix(9.962799,0,0,-9.9626,65.03398,118.914)"/>
<use data-text="3" xlink:href="#font_3_3" transform="matrix(6.97394,0,0,-6.9738,72.59814,120.409008)"/>
<path transform="matrix(1.00002,0,0,-1,28.53025,17.347)" stroke-width=".797" stroke-linecap="butt" stroke-linejoin="bevel" fill="none" stroke="#000000" d="M85.0404-58.7929 79.08755-55.7487 90.99326-50.45732 79.08755-45.16594 90.99326-39.87456 79.08755-34.58318 90.99326-29.2918 85.0404-26.24759"/>
<path transform="matrix(1.00002,0,0,-1,28.53025,17.347)" d="M86.62756 0C86.62756 .87656 85.91698 1.58714 85.04042 1.58714 84.16386 1.58714 83.45328 .87656 83.45328 0 83.45328-.87656 84.16386-1.58714 85.04042-1.58714 85.91698-1.58714 86.62756-.87656 86.62756 0ZM85.04042 0"/>
<path transform="matrix(1.00002,0,0,-1,28.53025,17.347)" stroke-width=".3985" stroke-linecap="butt" stroke-miterlimit="10" stroke-linejoin="miter" fill="none" stroke="#000000" d="M86.62756 0C86.62756 .87656 85.91698 1.58714 85.04042 1.58714 84.16386 1.58714 83.45328 .87656 83.45328 0 83.45328-.87656 84.16386-1.58714 85.04042-1.58714 85.91698-1.58714 86.62756-.87656 86.62756 0ZM85.04042 0"/>
<use data-text="R" xlink:href="#font_1_1" transform="matrix(9.962799,0,0,-9.9626,93.37955,62.014)"/>
<use data-text="2" xlink:href="#font_3_2" transform="matrix(6.97394,0,0,-6.9738,100.9437,63.509)"/>
<path transform="matrix(1.00002,0,0,-1,28.53025,17.347)" stroke-width=".797" stroke-linecap="butt" stroke-linejoin="bevel" fill="none" stroke="#000000" d="M58.7929 0 55.7487-5.95285 50.45732 5.95285 45.16594-5.95285 39.87456 5.95285 34.58318-5.95285 29.2918 5.95285 26.24759 0"/>
<use data-text="R" xlink:href="#font_1_1" transform="matrix(9.962799,0,0,-9.9626,65.03398,7.578)"/>
<use data-text="1" xlink:href="#font_3_1" transform="matrix(6.97394,0,0,-6.9738,72.59814,9.073)"/>
<path transform="matrix(1.00002,0,0,-1,28.53025,17.347)" stroke-width=".3985" stroke-linecap="butt" stroke-miterlimit="10" stroke-linejoin="miter" fill="none" stroke="#000000" d="M85.04042 0H95.67047M95.67047 0H106.30052"/>
<path transform="matrix(1.00002,0,0,-1,28.53025,17.347)" d="M107.88768 0C107.88768 .87656 107.1771 1.58714 106.30052 1.58714 105.42397 1.58714 104.71338 .87656 104.71338 0 104.71338-.87656 105.42397-1.58714 106.30052-1.58714 107.1771-1.58714 107.88768-.87656 107.88768 0ZM106.30052 0" fill="#ffffff"/>
<path transform="matrix(1.00002,0,0,-1,28.53025,17.347)" stroke-width=".3985" stroke-linecap="butt" stroke-miterlimit="10" stroke-linejoin="miter" fill="none" stroke="#000000" d="M107.88768 0C107.88768 .87656 107.1771 1.58714 106.30052 1.58714 105.42397 1.58714 104.71338 .87656 104.71338 0 104.71338-.87656 105.42397-1.58714 106.30052-1.58714 107.1771-1.58714 107.88768-.87656 107.88768 0ZM106.30052 0"/>
<path transform="matrix(1.00002,0,0,-1,28.53025,17.347)" d="" fill="#ffffff"/>
<path transform="matrix(1.00002,0,0,-1,28.53025,17.347)" stroke-width=".3985" stroke-linecap="butt" stroke-miterlimit="10" stroke-linejoin="miter" fill="none" stroke="#000000" d=""/>
<path transform="matrix(1.00002,0,0,-1,28.53025,17.347)" stroke-width=".3985" stroke-linecap="butt" stroke-miterlimit="10" stroke-linejoin="miter" fill="none" stroke="#000000" d="M85.04042-85.04042 95.67047-85.0404M95.67047-85.0404 106.30052-85.04042"/>
<path transform="matrix(1.00002,0,0,-1,28.53025,17.347)" d="M107.88768-85.04042C107.88768-84.16386 107.1771-83.45328 106.30052-83.45328 105.42397-83.45328 104.71338-84.16386 104.71338-85.04042 104.71338-85.91698 105.42397-86.62756 106.30052-86.62756 107.1771-86.62756 107.88768-85.91698 107.88768-85.04042ZM106.30052-85.04042" fill="#ffffff"/>
<path transform="matrix(1.00002,0,0,-1,28.53025,17.347)" stroke-width=".3985" stroke-linecap="butt" stroke-miterlimit="10" stroke-linejoin="miter" fill="none" stroke="#000000" d="M107.88768-85.04042C107.88768-84.16386 107.1771-83.45328 106.30052-83.45328 105.42397-83.45328 104.71338-84.16386 104.71338-85.04042 104.71338-85.91698 105.42397-86.62756 106.30052-86.62756 107.1771-86.62756 107.88768-85.91698 107.88768-85.04042ZM106.30052-85.04042"/>
<path transform="matrix(1.00002,0,0,-1,28.53025,17.347)" d="" fill="#ffffff"/>
<path transform="matrix(1.00002,0,0,-1,28.53025,17.347)" stroke-width=".3985" stroke-linecap="butt" stroke-miterlimit="10" stroke-linejoin="miter" fill="none" stroke="#000000" d=""/>
</svg>
