<svg xmlns="http://www.w3.org/2000/svg" xmlns:xlink="http://www.w3.org/1999/xlink" xmlns:inkscape="http://www.inkscape.org/namespaces/inkscape" version="1.1" width="193" height="134" viewBox="0 0 193 134">
<defs>
<path id="font_1_5" d="M.36698915 .31781007V.28579713C.36698915 .05178833 .2630005 .0055389406 .20498657 .0055389406 .18798828 .0055389406 .13398743 .007537842 .10699463 .041778566 .15098572 .041778566 .15899658 .07078552 .15899658 .08778381 .15899658 .118774417 .1349945 .13378906 .11299133 .13378906 .09700012 .13378906 .066986087 .12478638 .066986087 .08578491 .066986087 .018615723 .12098694-.022460938 .20599365-.022460938 .33499146-.022460938 .45700074 .11378479 .45700074 .32881166 .45700074 .5979767 .34199525 .6660156 .25299073 .6660156 .19799805 .6660156 .14898682 .64801028 .10598755 .60298159 .06498718 .5579529 .041992189 .5159302 .041992189 .44088746 .041992189 .31581117 .12998963 .21777344 .24198914 .21777344 .30299378 .21777344 .34399415 .25978089 .36698915 .31781007M.24299622 .24076844C.22698975 .24076844 .18099976 .24076844 .1499939 .3038025 .13198853 .3408203 .13198853 .39085389 .13198853 .43988038 .13198853 .49391175 .13198853 .54093936 .15299988 .5779724 .17999268 .6279907 .21798706 .64100649 .25299073 .64100649 .29899598 .64100649 .33198548 .60697939 .34899903 .5619507 .36099244 .52993777 .36499024 .4669037 .36499024 .42086793 .36499024 .3378296 .33099366 .24076844 .24299622 .24076844Z"/>
<path id="font_2_111" d="M.7299957 .6516113V.6826172C.69898989 .680603 .6589966 .6796112 .6329956 .6796112L.5189972 .6826172V.6516113C.57099917 .6506195 .59199526 .6246033 .59199526 .6016083 .59199526 .5936127 .58898928 .5876007 .58699038 .581604L.4039917 .09954834 .21299744 .60461428C.20698548 .61860659 .20698548 .62260439 .20698548 .62260439 .20698548 .6516113 .2639923 .6516113 .2889862 .6516113V.6826172C.25299073 .6796112 .18399048 .6796112 .1459961 .6796112L.018997193 .6826172V.6516113C.083999637 .6516113 .102996829 .6516113 .116989139 .6136017L.34899903-.00047302247C.35598756-.019470215 .36099244-.022460938 .37399293-.022460938 .3909912-.022460938 .3929901-.017471314 .397995-.0034637452L.62098696 .58461C.6349945 .62161257 .6619873 .6506195 .7299957 .6516113Z"/>
<path id="font_1_3" d="M.2899933 .35191346C.37199403 .37893678 .42999269 .4490509 .42999269 .52809146 .42999269 .6100464 .34199525 .6660156 .24598694 .6660156 .14498902 .6660156 .068984989 .60606387 .068984989 .53009036 .068984989 .49710084 .09098816 .47808839 .11999512 .47808839 .15098572 .47808839 .17098999 .50009158 .17098999 .5290985 .17098999 .57910159 .12399292 .57910159 .10899353 .57910159 .13999939 .62802127 .20599365 .64100649 .24198914 .64100649 .2829895 .64100649 .33799745 .6190338 .33799745 .5290985 .33799745 .51708987 .33599855 .45906068 .30999757 .4149933 .27999879 .36691285 .24598694 .36390687 .22099304 .36291505 .21299744 .36190797 .18899536 .35990907 .18199158 .35990907 .17399597 .35890199 .16699219 .35791017 .16699219 .3479004 .16699219 .33691407 .17399597 .33691407 .19099427 .33691407H.23498535C.31698609 .33691407 .35398866 .2686615 .35398866 .17037964 .35398866 .034469606 .2849884 .0055389406 .24099732 .0055389406 .19799805 .0055389406 .12298584 .022491456 .08799744 .08137512 .12298584 .07637024 .1539917 .09837341 .1539917 .1363678 .1539917 .17237854 .1269989 .19238281 .09799194 .19238281 .07398987 .19238281 .041992189 .17837525 .041992189 .1343689 .041992189 .043441774 .1349945-.022460938 .24398804-.022460938 .3659973-.022460938 .45700074 .06838989 .45700074 .17037964 .45700074 .252594 .3939972 .33088685 .2899933 .35191346Z"/>
<path id="font_1_2" d="M.45999146 .31976319C.45999146 .39982606 .45498658 .47988893 .41999818 .5539398 .37399293 .65000918 .2919922 .6660156 .25 .6660156 .18998719 .6660156 .116989139 .64001467 .07598877 .54693606 .04399109 .47789 .038986207 .39982606 .038986207 .31976319 .038986207 .24472046 .042999269 .15464783 .083999637 .07859802 .1269989-.0024719239 .19999695-.022460938 .24899292-.022460938 .30299378-.022460938 .3789978-.0014648438 .4229889 .09359741 .45498658 .16265869 .45999146 .2407074 .45999146 .31976319M.24899292-.00047302247C.20999146-.00047302247 .15098572 .024551392 .1329956 .12062073 .12199402 .18066406 .12199402 .2727356 .12199402 .3317871 .12199402 .39582826 .12199402 .46188355 .12998963 .5159149 .14898682 .63500979 .22399903 .64401248 .24899292 .64401248 .28199769 .64401248 .34799195 .6259918 .36698915 .52693179 .3769989 .47088624 .3769989 .39482118 .3769989 .3317871 .3769989 .25672914 .3769989 .18867493 .3659973 .12461853 .35099793 .029556275 .2939911-.00047302247 .24899292-.00047302247Z"/>
<path id="font_1_1" d="M.6769867 .16200257H.6519928C.6469879 .13600159 .6429901 .11299133 .6339874 .08898926 .6289978 .07299805 .6259918 .06498718 .56799319 .06498718H.48799134C.5009918 .1210022 .5319977 .16900635 .57699587 .23501587 .6239929 .306015 .6649933 .37503053 .6649933 .45404054 .6649933 .59306338 .5299988 .7050781 .36099244 .7050781 .18899536 .7050781 .055999757 .5910492 .055999757 .45404054 .055999757 .37503053 .09700012 .306015 .14399719 .23501587 .18798828 .16900635 .21998596 .1210022 .23298645 .06498718H.15299988C.09498596 .06498718 .09199524 .07299805 .08699036 .08799744 .07899475 .11099243 .07398987 .13700867 .068984989 .16200257H.04399109L.07699585 0H.23699951C.25898744 0 .2619934 0 .2619934 .020996094 .2619934 .09098816 .23098755 .17900086 .20799256 .24301148 .18699646 .3010254 .15899658 .3800354 .15899658 .45503236 .15899658 .6150665 .2689972 .68307498 .3600006 .68307498 .45599366 .68307498 .56199648 .61105349 .56199648 .45503236 .56199648 .3800354 .5349884 .3040161 .5059967 .22201538 .4909973 .18000794 .45899964 .08999634 .45899964 .020996094 .45899964 0 .46199037 0 .4850006 0H.6439972L.6769867 .16200257Z"/>
<path id="font_1_4" d="M.13198853 .327713V.35173036C.13198853 .6047821 .2559967 .64100649 .30699159 .64100649 .33099366 .64100649 .37298585 .634964 .394989 .6007538 .37998963 .6007538 .33999635 .6007538 .33999635 .5557556 .33999635 .524765 .3639984 .5097656 .38598634 .5097656 .4019928 .5097656 .43199159 .51875308 .43199159 .5577545 .43199159 .6178589 .3880005 .6660156 .30499269 .6660156 .1769867 .6660156 .041992189 .5367584 .041992189 .31570436 .041992189 .048553468 .1579895-.022460938 .25099183-.022460938 .3619995-.022460938 .45700074 .07156372 .45700074 .2036438 .45700074 .33070375 .36799623 .4267578 .25698854 .4267578 .18899536 .4267578 .1519928 .37573243 .13198853 .327713M.25099183 .0055389406C.18798828 .0055389406 .1579895 .06556702 .1519928 .080566409 .13398743 .127594 .13398743 .2076416 .13398743 .22564698 .13398743 .30369569 .1659851 .40374757 .2559967 .40374757 .27198792 .40374757 .31799317 .40374757 .34899903 .34172059 .36698915 .30470277 .36698915 .2536621 .36698915 .20463562 .36698915 .15661621 .36698915 .10658264 .34999085 .0705719 .31999208 .010528564 .27398683 .0055389406 .25099183 .0055389406Z"/>
<path id="font_3_1" d="M.375 .6136017C.3809967 .63760378 .38398744 .6476135 .40299989 .65060427 .4119873 .6516113 .44400025 .6516113 .46398927 .6516113 .5349884 .6516113 .6459961 .6516113 .6459961 .5525818 .6459961 .51856997 .6299896 .44955445 .59098818 .41055299 .5649872 .38453675 .5119934 .35253907 .42199708 .35253907H.30999757L.375 .6136017M.5189972 .33953858C.6199951 .3615265 .7389984 .43154908 .7389984 .5325775 .7389984 .61860659 .6489868 .6826172 .5179901 .6826172H.23298645C.21299744 .6826172 .20399475 .6826172 .20399475 .6626129 .20399475 .6516113 .21299744 .6516113 .23199463 .6516113 .23399353 .6516113 .25299073 .6516113 .269989 .6496124 .28799439 .6476135 .29699708 .64660647 .29699708 .63360598 .29699708 .62960818 .29599 .6266022 .29299928 .6145935L.15899658 .07752991C.14898682 .038528444 .14698792 .030532837 .067993167 .030532837 .049987794 .030532837 .040985109 .030532837 .040985109 .010528564 .040985109-.00047302247 .052993776-.00047302247 .054992677-.00047302247 .08299255-.00047302247 .15299988 .002532959 .18099976 .002532959 .20899964 .002532959 .27999879-.00047302247 .30799867-.00047302247 .31599427-.00047302247 .32798768-.00047302247 .32798768 .01953125 .32798768 .030532837 .31900025 .030532837 .2999878 .030532837 .2630005 .030532837 .23498535 .030532837 .23498535 .048538209 .23498535 .054534913 .23699951 .059524537 .23799134 .0655365L.3039856 .3305359H.4229889C.5139923 .3305359 .5319977 .27453614 .5319977 .23953247 .5319977 .22453308 .5239868 .19352722 .5179901 .17053223 .5109863 .14253235 .5019989 .105529788 .5019989 .08552551 .5019989-.022460938 .621994-.022460938 .6349945-.022460938 .7200012-.022460938 .7549896 .07853699 .7549896 .0925293 .7549896 .104537967 .74398806 .104537967 .7429962 .104537967 .73399356 .104537967 .7319946 .09753418 .7299957 .090530399 .7049866 .016525269 .6619873-.00047302247 .6389923-.00047302247 .60598757-.00047302247 .598999 .021530152 .598999 .060531618 .598999 .091537479 .6049957 .14253235 .60899356 .17453003 .61099246 .1885376 .61299136 .20753479 .61299136 .2215271 .61299136 .2985382 .54599 .3295288 .5189972 .33953858Z"/>
<path id="font_2_71" d="M.58200076 .2578125H.5569916C.54599 .15588379 .5319977 .0309906 .35598756 .0309906H.27398683C.22698975 .03060913 .22499085 .037612916 .22499085 .07060242V.6036072C.22499085 .63760378 .22499085 .6516113 .31999208 .6516113H.35299684V.6826172C.31698609 .6796112 .22599793 .6796112 .18499756 .6796112 .1459961 .6796112 .067993167 .6796112 .032989503 .6826172V.6516113H.056991579C.13398743 .6518097 .13598633 .6408081 .13598633 .6048126V.07795715C.13598633 .04197693 .13398743 .0309906 .056991579 .0309906H.032989503V0H.55400088L.58200076 .2578125Z"/>
<path id="font_2_49" d="M.6519928 .2579193H.6269989C.60198977 .10397339 .57899478 .0309906 .40699769 .0309906H.27398683C.22698975 .0309906 .22499085 .037994386 .22499085 .07098389V.33789063H.31498719C.4119873 .33789063 .4229889 .30589295 .4229889 .220932H.44799806V.48606874H.4229889C.4229889 .39994813 .4119873 .36888124 .31498719 .36888124H.22499085V.6087799C.22499085 .6416931 .22698975 .64868167 .27398683 .64868167H.40299989C.55599978 .64868167 .58299258 .59381106 .598999 .45507813H.6239929L.59599307 .6796875H.032989503V.64868167H.056991579C.13398743 .64868167 .13598633 .6377106 .13598633 .6017914V.07797241C.13598633 .041992189 .13398743 .0309906 .056991579 .0309906H.032989503V0H.6100006L.6519928 .2579193Z"/>
<path id="font_2_46" d="M.70700076 .33580018C.70700076 .52568057 .57199099 .6826172 .40098573 .6826172H.034988405V.6516113H.05899048C.13598633 .6516113 .13798523 .64060977 .13798523 .6046295V.07795715C.13798523 .041992189 .13598633 .0309906 .05899048 .0309906H.034988405V0H.40098573C.56900027 0 .70700076 .1479187 .70700076 .33580018M.6069946 .33580018C.6069946 .22486878 .58799746 .16490174 .5519867 .11593628 .5319977 .08895874 .47499085 .0309906 .37399293 .0309906H.272995C.22599793 .0309906 .22399903 .037994386 .22399903 .07096863V.6116333C.22399903 .64460757 .22599793 .6516113 .272995 .6516113H.37298585C.43499757 .6516113 .5039978 .6296234 .5549927 .55867007 .59799197 .49969483 .6069946 .41375733 .6069946 .33580018Z"/>
</defs>
<path transform="matrix(1.00002,0,0,-1.00002,30.32727,130.73538)" stroke-width=".3985" stroke-linecap="butt" stroke-miterlimit="10" stroke-linejoin="miter" fill="none" stroke="#000000" d="M0 0"/>
<path transform="matrix(1.00002,0,0,-1.00002,30.32727,130.73538)" stroke-width=".3985" stroke-linecap="butt" stroke-miterlimit="10" stroke-linejoin="miter" fill="none" stroke="#000000" d="M0 0V50.74075M0 62.64647V113.38724H26.64601M58.3944 113.38724H85.04042L85.0404 72.56781M85.0404 40.81941 85.04042 0H42.5202M42.5202 0H0"/>
<path transform="matrix(1.00002,0,0,-1.00002,30.32727,130.73538)" stroke-width=".797" stroke-linecap="butt" stroke-miterlimit="10" stroke-linejoin="miter" fill="none" stroke="#000000" d="M-11.90572 62.64647H11.90572M-5.95285 58.6779H5.95285M-11.90572 54.70934H11.90572M-5.95285 50.74075H5.95285"/>
<use data-text="9" xlink:href="#font_1_5" transform="matrix(9.962799,0,0,-9.962799,1.506691,76.18729)"/>
<use data-text="V" xlink:href="#font_2_111" transform="matrix(9.962799,0,0,-9.962799,8.148827,76.18729)"/>
<path transform="matrix(1.00002,0,0,-1.00002,30.32727,130.73538)" stroke-width=".797" stroke-linecap="butt" stroke-linejoin="bevel" fill="none" stroke="#000000" d="M26.2475 113.38724 29.2917 119.34009 34.58308 107.43439 39.87447 119.34009 45.16585 107.43439 50.45723 119.34009 55.74861 107.43439 58.7928 113.38724"/>
<use data-text="3" xlink:href="#font_1_3" transform="matrix(9.962799,0,0,-9.962799,60.947885,7.5769197)"/>
<use data-text="0" xlink:href="#font_1_2" transform="matrix(9.962799,0,0,-9.962799,65.92929,7.5769197)"/>
<use data-text="0" xlink:href="#font_1_2" transform="matrix(9.962799,0,0,-9.962799,70.91069,7.5769197)"/>
<use data-text="&#x2126;" xlink:href="#font_1_1" transform="matrix(9.962799,0,0,-9.962799,77.54592,7.5769197)"/>
<path transform="matrix(1.00002,0,0,-1.00002,30.32727,130.73538)" stroke-width=".797" stroke-linecap="butt" stroke-linejoin="bevel" fill="none" stroke="#000000" d="M85.0404 72.96631 90.99326 69.92212 79.08755 64.63074 90.99326 59.33936 79.08755 54.04797 90.99326 48.75658 79.08755 43.4652 85.0404 40.421"/>
<path transform="matrix(1.00002,0,0,-1.00002,30.32727,130.73538)" d="M86.62756 113.38724C86.62756 114.2638 85.91698 114.97438 85.04042 114.97438 84.16386 114.97438 83.45328 114.2638 83.45328 113.38724 83.45328 112.51067 84.16386 111.80008 85.04042 111.80008 85.91698 111.80008 86.62756 112.51067 86.62756 113.38724ZM85.04042 113.38724"/>
<path transform="matrix(1.00002,0,0,-1.00002,30.32727,130.73538)" stroke-width=".3985" stroke-linecap="butt" stroke-miterlimit="10" stroke-linejoin="miter" fill="none" stroke="#000000" d="M86.62756 113.38724C86.62756 114.2638 85.91698 114.97438 85.04042 114.97438 84.16386 114.97438 83.45328 114.2638 83.45328 113.38724 83.45328 112.51067 84.16386 111.80008 85.04042 111.80008 85.91698 111.80008 86.62756 112.51067 86.62756 113.38724ZM85.04042 113.38724"/>
<path transform="matrix(1.00002,0,0,-1.00002,30.32727,130.73538)" d="M86.62756 0C86.62756 .87656 85.91698 1.58714 85.04042 1.58714 84.16386 1.58714 83.45328 .87656 83.45328 0 83.45328-.87656 84.16386-1.58714 85.04042-1.58714 85.91698-1.58714 86.62756-.87656 86.62756 0ZM85.04042 0"/>
<path transform="matrix(1.00002,0,0,-1.00002,30.32727,130.73538)" stroke-width=".3985" stroke-linecap="butt" stroke-miterlimit="10" stroke-linejoin="miter" fill="none" stroke="#000000" d="M86.62756 0C86.62756 .87656 85.91698 1.58714 85.04042 1.58714 84.16386 1.58714 83.45328 .87656 83.45328 0 83.45328-.87656 84.16386-1.58714 85.04042-1.58714 85.91698-1.58714 86.62756-.87656 86.62756 0ZM85.04042 0"/>
<use data-text="6" xlink:href="#font_1_4" transform="matrix(9.962799,0,0,-9.962799,83.41034,76.18729)"/>
<use data-text="0" xlink:href="#font_1_2" transform="matrix(9.962799,0,0,-9.962799,88.39174,76.18729)"/>
<use data-text="0" xlink:href="#font_1_2" transform="matrix(9.962799,0,0,-9.962799,93.37314,76.18729)"/>
<use data-text="&#x2126;" xlink:href="#font_1_1" transform="matrix(9.962799,0,0,-9.962799,100.00838,76.18729)"/>
<path transform="matrix(1.00002,0,0,-1.00002,30.32727,130.73538)" stroke-width=".3985" stroke-linecap="butt" stroke-miterlimit="10" stroke-linejoin="miter" fill="none" stroke="#000000" d="M85.04042 113.38724H113.38722M113.38722 113.38724H141.73404L141.73403 100.91461M141.73403 69.16623 141.73404 56.69362 141.73403 36.28375M141.73403 20.40985 141.73404 0H113.38722M113.38722 0H85.04042"/>
<path transform="matrix(1.00002,0,0,-1.00002,30.32727,130.73538)" stroke-width=".797" stroke-linecap="butt" stroke-linejoin="bevel" fill="none" stroke="#000000" d="M141.73403 101.31313 147.68688 98.26892 135.78118 92.97754 147.68688 87.68616 135.78118 82.39478 147.68688 77.1034 135.78118 71.81201 141.73403 68.7678"/>
<use data-text="R" xlink:href="#font_3_1" transform="matrix(9.962799,0,0,-9.962799,156.2638,47.84072)"/>
<path transform="matrix(1.00002,0,0,-1.00002,30.32727,130.73538)" stroke-width=".797" stroke-linecap="butt" stroke-miterlimit="10" stroke-linejoin="miter" fill="none" stroke="#000000" d="M141.73403 20.40985 151.65537 36.28375H131.81269Z"/>
<path transform="matrix(1.00002,0,0,-1.00002,30.32727,130.73538)" stroke-width=".797" stroke-linecap="butt" stroke-miterlimit="10" stroke-linejoin="miter" fill="none" stroke="#000000" d="M131.81269 20.40985H151.65537"/>
<path transform="matrix(1.00002,0,0,-1.00002,30.32727,130.73538)" stroke-width=".3985" stroke-linecap="butt" stroke-miterlimit="10" stroke-linejoin="miter" fill="none" stroke="#000000" d="M151.65537 31.52153 159.70977 25.07814"/>
<path transform="matrix(.7808356,.6246625,.6246625,-.7808356,190.04022,105.65674)" d="M2.39102 0C1.39476 .19925-.3985 .59775-1.59401 1.49438-.59775 .3985-.59775-.3985-1.59401-1.49438-.3985-.59775 1.39476-.19925 2.39102 0Z"/>
<path transform="matrix(1.00002,0,0,-1.00002,30.32727,130.73538)" stroke-width=".3985" stroke-linecap="butt" stroke-miterlimit="10" stroke-linejoin="miter" fill="none" stroke="#000000" d="M149.67111 26.75945 157.72551 20.31604"/>
<path transform="matrix(.7808356,.6246625,.6246625,-.7808356,188.05593,110.41894)" d="M2.39102 0C1.39476 .19925-.3985 .59775-1.59401 1.49438-.59775 .3985-.59775-.3985-1.59401-1.49438-.3985-.59775 1.39476-.19925 2.39102 0Z"/>
<use data-text="L" xlink:href="#font_2_71" transform="matrix(9.962799,0,0,-9.962799,138.91645,104.53486)"/>
<use data-text="E" xlink:href="#font_2_49" transform="matrix(9.962799,0,0,-9.962799,145.14319,104.53486)"/>
<use data-text="D" xlink:href="#font_2_46" transform="matrix(9.962799,0,0,-9.962799,151.92786,104.53486)"/>
</svg>
