<?xml version="1.0" encoding="utf-8" standalone="no"?>
<!DOCTYPE svg PUBLIC "-//W3C//DTD SVG 1.1//EN"
  "http://www.w3.org/Graphics/SVG/1.1/DTD/svg11.dtd">
<svg xmlns:xlink="http://www.w3.org/1999/xlink" width="460.8pt" height="345.6pt" viewBox="0 0 460.8 345.6" xmlns="http://www.w3.org/2000/svg" version="1.1">
 <metadata>
  <rdf:RDF xmlns:dc="http://purl.org/dc/elements/1.1/" xmlns:cc="http://creativecommons.org/ns#" xmlns:rdf="http://www.w3.org/1999/02/22-rdf-syntax-ns#">
   <cc:Work>
    <dc:type rdf:resource="http://purl.org/dc/dcmitype/StillImage"/>
    <dc:date>2025-01-10T19:51:58.886951</dc:date>
    <dc:format>image/svg+xml</dc:format>
    <dc:creator>
     <cc:Agent>
      <dc:title>Matplotlib v3.6.3, https://matplotlib.org/</dc:title>
     </cc:Agent>
    </dc:creator>
   </cc:Work>
  </rdf:RDF>
 </metadata>
 <defs>
  <style type="text/css">*{stroke-linejoin: round; stroke-linecap: butt}</style>
 </defs>
 <g id="figure_1">
  <g id="patch_1">
   <path d="M 0 345.6 
L 460.8 345.6 
L 460.8 0 
L 0 0 
z
" style="fill: #ffffff"/>
  </g>
  <g id="axes_1">
   <g id="patch_2">
    <path d="M 57.6 307.584 
L 414.72 307.584 
L 414.72 41.472 
L 57.6 41.472 
z
" style="fill: #ffffff"/>
   </g>
   <g id="matplotlib.axis_1">
    <g id="xtick_1">
     <g id="line2d_1">
      <defs>
       <path id="me9f24e20aa" d="M 0 0 
L 0 3.5 
" style="stroke: #000000; stroke-width: 0.8"/>
      </defs>
      <g>
       <use xlink:href="#me9f24e20aa" x="73.832727" y="307.584" style="stroke: #000000; stroke-width: 0.8"/>
      </g>
     </g>
     <g id="text_1">
      <!-- 0.0 -->
      <g transform="translate(65.881165 322.182437) scale(0.1 -0.1)">
       <defs>
        <path id="DejaVuSans-30" d="M 2034 4250 
Q 1547 4250 1301 3770 
Q 1056 3291 1056 2328 
Q 1056 1369 1301 889 
Q 1547 409 2034 409 
Q 2525 409 2770 889 
Q 3016 1369 3016 2328 
Q 3016 3291 2770 3770 
Q 2525 4250 2034 4250 
z
M 2034 4750 
Q 2819 4750 3233 4129 
Q 3647 3509 3647 2328 
Q 3647 1150 3233 529 
Q 2819 -91 2034 -91 
Q 1250 -91 836 529 
Q 422 1150 422 2328 
Q 422 3509 836 4129 
Q 1250 4750 2034 4750 
z
" transform="scale(0.015625)"/>
        <path id="DejaVuSans-2e" d="M 684 794 
L 1344 794 
L 1344 0 
L 684 0 
L 684 794 
z
" transform="scale(0.015625)"/>
       </defs>
       <use xlink:href="#DejaVuSans-30"/>
       <use xlink:href="#DejaVuSans-2e" x="63.623047"/>
       <use xlink:href="#DejaVuSans-30" x="95.410156"/>
      </g>
     </g>
    </g>
    <g id="xtick_2">
     <g id="line2d_2">
      <g>
       <use xlink:href="#me9f24e20aa" x="138.763636" y="307.584" style="stroke: #000000; stroke-width: 0.8"/>
      </g>
     </g>
     <g id="text_2">
      <!-- 0.2 -->
      <g transform="translate(130.812074 322.182437) scale(0.1 -0.1)">
       <defs>
        <path id="DejaVuSans-32" d="M 1228 531 
L 3431 531 
L 3431 0 
L 469 0 
L 469 531 
Q 828 903 1448 1529 
Q 2069 2156 2228 2338 
Q 2531 2678 2651 2914 
Q 2772 3150 2772 3378 
Q 2772 3750 2511 3984 
Q 2250 4219 1831 4219 
Q 1534 4219 1204 4116 
Q 875 4013 500 3803 
L 500 4441 
Q 881 4594 1212 4672 
Q 1544 4750 1819 4750 
Q 2544 4750 2975 4387 
Q 3406 4025 3406 3419 
Q 3406 3131 3298 2873 
Q 3191 2616 2906 2266 
Q 2828 2175 2409 1742 
Q 1991 1309 1228 531 
z
" transform="scale(0.015625)"/>
       </defs>
       <use xlink:href="#DejaVuSans-30"/>
       <use xlink:href="#DejaVuSans-2e" x="63.623047"/>
       <use xlink:href="#DejaVuSans-32" x="95.410156"/>
      </g>
     </g>
    </g>
    <g id="xtick_3">
     <g id="line2d_3">
      <g>
       <use xlink:href="#me9f24e20aa" x="203.694545" y="307.584" style="stroke: #000000; stroke-width: 0.8"/>
      </g>
     </g>
     <g id="text_3">
      <!-- 0.4 -->
      <g transform="translate(195.742983 322.182437) scale(0.1 -0.1)">
       <defs>
        <path id="DejaVuSans-34" d="M 2419 4116 
L 825 1625 
L 2419 1625 
L 2419 4116 
z
M 2253 4666 
L 3047 4666 
L 3047 1625 
L 3713 1625 
L 3713 1100 
L 3047 1100 
L 3047 0 
L 2419 0 
L 2419 1100 
L 313 1100 
L 313 1709 
L 2253 4666 
z
" transform="scale(0.015625)"/>
       </defs>
       <use xlink:href="#DejaVuSans-30"/>
       <use xlink:href="#DejaVuSans-2e" x="63.623047"/>
       <use xlink:href="#DejaVuSans-34" x="95.410156"/>
      </g>
     </g>
    </g>
    <g id="xtick_4">
     <g id="line2d_4">
      <g>
       <use xlink:href="#me9f24e20aa" x="268.625455" y="307.584" style="stroke: #000000; stroke-width: 0.8"/>
      </g>
     </g>
     <g id="text_4">
      <!-- 0.6 -->
      <g transform="translate(260.673892 322.182437) scale(0.1 -0.1)">
       <defs>
        <path id="DejaVuSans-36" d="M 2113 2584 
Q 1688 2584 1439 2293 
Q 1191 2003 1191 1497 
Q 1191 994 1439 701 
Q 1688 409 2113 409 
Q 2538 409 2786 701 
Q 3034 994 3034 1497 
Q 3034 2003 2786 2293 
Q 2538 2584 2113 2584 
z
M 3366 4563 
L 3366 3988 
Q 3128 4100 2886 4159 
Q 2644 4219 2406 4219 
Q 1781 4219 1451 3797 
Q 1122 3375 1075 2522 
Q 1259 2794 1537 2939 
Q 1816 3084 2150 3084 
Q 2853 3084 3261 2657 
Q 3669 2231 3669 1497 
Q 3669 778 3244 343 
Q 2819 -91 2113 -91 
Q 1303 -91 875 529 
Q 447 1150 447 2328 
Q 447 3434 972 4092 
Q 1497 4750 2381 4750 
Q 2619 4750 2861 4703 
Q 3103 4656 3366 4563 
z
" transform="scale(0.015625)"/>
       </defs>
       <use xlink:href="#DejaVuSans-30"/>
       <use xlink:href="#DejaVuSans-2e" x="63.623047"/>
       <use xlink:href="#DejaVuSans-36" x="95.410156"/>
      </g>
     </g>
    </g>
    <g id="xtick_5">
     <g id="line2d_5">
      <g>
       <use xlink:href="#me9f24e20aa" x="333.556364" y="307.584" style="stroke: #000000; stroke-width: 0.8"/>
      </g>
     </g>
     <g id="text_5">
      <!-- 0.8 -->
      <g transform="translate(325.604801 322.182437) scale(0.1 -0.1)">
       <defs>
        <path id="DejaVuSans-38" d="M 2034 2216 
Q 1584 2216 1326 1975 
Q 1069 1734 1069 1313 
Q 1069 891 1326 650 
Q 1584 409 2034 409 
Q 2484 409 2743 651 
Q 3003 894 3003 1313 
Q 3003 1734 2745 1975 
Q 2488 2216 2034 2216 
z
M 1403 2484 
Q 997 2584 770 2862 
Q 544 3141 544 3541 
Q 544 4100 942 4425 
Q 1341 4750 2034 4750 
Q 2731 4750 3128 4425 
Q 3525 4100 3525 3541 
Q 3525 3141 3298 2862 
Q 3072 2584 2669 2484 
Q 3125 2378 3379 2068 
Q 3634 1759 3634 1313 
Q 3634 634 3220 271 
Q 2806 -91 2034 -91 
Q 1263 -91 848 271 
Q 434 634 434 1313 
Q 434 1759 690 2068 
Q 947 2378 1403 2484 
z
M 1172 3481 
Q 1172 3119 1398 2916 
Q 1625 2713 2034 2713 
Q 2441 2713 2670 2916 
Q 2900 3119 2900 3481 
Q 2900 3844 2670 4047 
Q 2441 4250 2034 4250 
Q 1625 4250 1398 4047 
Q 1172 3844 1172 3481 
z
" transform="scale(0.015625)"/>
       </defs>
       <use xlink:href="#DejaVuSans-30"/>
       <use xlink:href="#DejaVuSans-2e" x="63.623047"/>
       <use xlink:href="#DejaVuSans-38" x="95.410156"/>
      </g>
     </g>
    </g>
    <g id="xtick_6">
     <g id="line2d_6">
      <g>
       <use xlink:href="#me9f24e20aa" x="398.487273" y="307.584" style="stroke: #000000; stroke-width: 0.8"/>
      </g>
     </g>
     <g id="text_6">
      <!-- 1.0 -->
      <g transform="translate(390.53571 322.182437) scale(0.1 -0.1)">
       <defs>
        <path id="DejaVuSans-31" d="M 794 531 
L 1825 531 
L 1825 4091 
L 703 3866 
L 703 4441 
L 1819 4666 
L 2450 4666 
L 2450 531 
L 3481 531 
L 3481 0 
L 794 0 
L 794 531 
z
" transform="scale(0.015625)"/>
       </defs>
       <use xlink:href="#DejaVuSans-31"/>
       <use xlink:href="#DejaVuSans-2e" x="63.623047"/>
       <use xlink:href="#DejaVuSans-30" x="95.410156"/>
      </g>
     </g>
    </g>
    <g id="text_7">
     <!-- Time (s) -->
     <g transform="translate(215.831094 335.860562) scale(0.1 -0.1)">
      <defs>
       <path id="DejaVuSans-54" d="M -19 4666 
L 3928 4666 
L 3928 4134 
L 2272 4134 
L 2272 0 
L 1638 0 
L 1638 4134 
L -19 4134 
L -19 4666 
z
" transform="scale(0.015625)"/>
       <path id="DejaVuSans-69" d="M 603 3500 
L 1178 3500 
L 1178 0 
L 603 0 
L 603 3500 
z
M 603 4863 
L 1178 4863 
L 1178 4134 
L 603 4134 
L 603 4863 
z
" transform="scale(0.015625)"/>
       <path id="DejaVuSans-6d" d="M 3328 2828 
Q 3544 3216 3844 3400 
Q 4144 3584 4550 3584 
Q 5097 3584 5394 3201 
Q 5691 2819 5691 2113 
L 5691 0 
L 5113 0 
L 5113 2094 
Q 5113 2597 4934 2840 
Q 4756 3084 4391 3084 
Q 3944 3084 3684 2787 
Q 3425 2491 3425 1978 
L 3425 0 
L 2847 0 
L 2847 2094 
Q 2847 2600 2669 2842 
Q 2491 3084 2119 3084 
Q 1678 3084 1418 2786 
Q 1159 2488 1159 1978 
L 1159 0 
L 581 0 
L 581 3500 
L 1159 3500 
L 1159 2956 
Q 1356 3278 1631 3431 
Q 1906 3584 2284 3584 
Q 2666 3584 2933 3390 
Q 3200 3197 3328 2828 
z
" transform="scale(0.015625)"/>
       <path id="DejaVuSans-65" d="M 3597 1894 
L 3597 1613 
L 953 1613 
Q 991 1019 1311 708 
Q 1631 397 2203 397 
Q 2534 397 2845 478 
Q 3156 559 3463 722 
L 3463 178 
Q 3153 47 2828 -22 
Q 2503 -91 2169 -91 
Q 1331 -91 842 396 
Q 353 884 353 1716 
Q 353 2575 817 3079 
Q 1281 3584 2069 3584 
Q 2775 3584 3186 3129 
Q 3597 2675 3597 1894 
z
M 3022 2063 
Q 3016 2534 2758 2815 
Q 2500 3097 2075 3097 
Q 1594 3097 1305 2825 
Q 1016 2553 972 2059 
L 3022 2063 
z
" transform="scale(0.015625)"/>
       <path id="DejaVuSans-20" transform="scale(0.015625)"/>
       <path id="DejaVuSans-28" d="M 1984 4856 
Q 1566 4138 1362 3434 
Q 1159 2731 1159 2009 
Q 1159 1288 1364 580 
Q 1569 -128 1984 -844 
L 1484 -844 
Q 1016 -109 783 600 
Q 550 1309 550 2009 
Q 550 2706 781 3412 
Q 1013 4119 1484 4856 
L 1984 4856 
z
" transform="scale(0.015625)"/>
       <path id="DejaVuSans-73" d="M 2834 3397 
L 2834 2853 
Q 2591 2978 2328 3040 
Q 2066 3103 1784 3103 
Q 1356 3103 1142 2972 
Q 928 2841 928 2578 
Q 928 2378 1081 2264 
Q 1234 2150 1697 2047 
L 1894 2003 
Q 2506 1872 2764 1633 
Q 3022 1394 3022 966 
Q 3022 478 2636 193 
Q 2250 -91 1575 -91 
Q 1294 -91 989 -36 
Q 684 19 347 128 
L 347 722 
Q 666 556 975 473 
Q 1284 391 1588 391 
Q 1994 391 2212 530 
Q 2431 669 2431 922 
Q 2431 1156 2273 1281 
Q 2116 1406 1581 1522 
L 1381 1569 
Q 847 1681 609 1914 
Q 372 2147 372 2553 
Q 372 3047 722 3315 
Q 1072 3584 1716 3584 
Q 2034 3584 2315 3537 
Q 2597 3491 2834 3397 
z
" transform="scale(0.015625)"/>
       <path id="DejaVuSans-29" d="M 513 4856 
L 1013 4856 
Q 1481 4119 1714 3412 
Q 1947 2706 1947 2009 
Q 1947 1309 1714 600 
Q 1481 -109 1013 -844 
L 513 -844 
Q 928 -128 1133 580 
Q 1338 1288 1338 2009 
Q 1338 2731 1133 3434 
Q 928 4138 513 4856 
z
" transform="scale(0.015625)"/>
      </defs>
      <use xlink:href="#DejaVuSans-54"/>
      <use xlink:href="#DejaVuSans-69" x="57.958984"/>
      <use xlink:href="#DejaVuSans-6d" x="85.742188"/>
      <use xlink:href="#DejaVuSans-65" x="183.154297"/>
      <use xlink:href="#DejaVuSans-20" x="244.677734"/>
      <use xlink:href="#DejaVuSans-28" x="276.464844"/>
      <use xlink:href="#DejaVuSans-73" x="315.478516"/>
      <use xlink:href="#DejaVuSans-29" x="367.578125"/>
     </g>
    </g>
   </g>
   <g id="matplotlib.axis_2">
    <g id="ytick_1">
     <g id="line2d_7">
      <defs>
       <path id="medf3a06212" d="M 0 0 
L -3.5 0 
" style="stroke: #000000; stroke-width: 0.8"/>
      </defs>
      <g>
       <use xlink:href="#medf3a06212" x="57.6" y="271.296947" style="stroke: #000000; stroke-width: 0.8"/>
      </g>
     </g>
     <g id="text_8">
      <!-- −4 -->
      <g transform="translate(35.857813 275.096166) scale(0.1 -0.1)">
       <defs>
        <path id="DejaVuSans-2212" d="M 678 2272 
L 4684 2272 
L 4684 1741 
L 678 1741 
L 678 2272 
z
" transform="scale(0.015625)"/>
       </defs>
       <use xlink:href="#DejaVuSans-2212"/>
       <use xlink:href="#DejaVuSans-34" x="83.789062"/>
      </g>
     </g>
    </g>
    <g id="ytick_2">
     <g id="line2d_8">
      <g>
       <use xlink:href="#medf3a06212" x="57.6" y="222.912696" style="stroke: #000000; stroke-width: 0.8"/>
      </g>
     </g>
     <g id="text_9">
      <!-- −2 -->
      <g transform="translate(35.857813 226.711915) scale(0.1 -0.1)">
       <use xlink:href="#DejaVuSans-2212"/>
       <use xlink:href="#DejaVuSans-32" x="83.789062"/>
      </g>
     </g>
    </g>
    <g id="ytick_3">
     <g id="line2d_9">
      <g>
       <use xlink:href="#medf3a06212" x="57.6" y="174.528446" style="stroke: #000000; stroke-width: 0.8"/>
      </g>
     </g>
     <g id="text_10">
      <!-- 0 -->
      <g transform="translate(44.2375 178.327664) scale(0.1 -0.1)">
       <use xlink:href="#DejaVuSans-30"/>
      </g>
     </g>
    </g>
    <g id="ytick_4">
     <g id="line2d_10">
      <g>
       <use xlink:href="#medf3a06212" x="57.6" y="126.144195" style="stroke: #000000; stroke-width: 0.8"/>
      </g>
     </g>
     <g id="text_11">
      <!-- 2 -->
      <g transform="translate(44.2375 129.943414) scale(0.1 -0.1)">
       <use xlink:href="#DejaVuSans-32"/>
      </g>
     </g>
    </g>
    <g id="ytick_5">
     <g id="line2d_11">
      <g>
       <use xlink:href="#medf3a06212" x="57.6" y="77.759944" style="stroke: #000000; stroke-width: 0.8"/>
      </g>
     </g>
     <g id="text_12">
      <!-- 4 -->
      <g transform="translate(44.2375 81.559163) scale(0.1 -0.1)">
       <use xlink:href="#DejaVuSans-34"/>
      </g>
     </g>
    </g>
    <g id="text_13">
     <!-- Voltage (V) -->
     <g transform="translate(29.778125 202.195188) rotate(-90) scale(0.1 -0.1)">
      <defs>
       <path id="DejaVuSans-56" d="M 1831 0 
L 50 4666 
L 709 4666 
L 2188 738 
L 3669 4666 
L 4325 4666 
L 2547 0 
L 1831 0 
z
" transform="scale(0.015625)"/>
       <path id="DejaVuSans-6f" d="M 1959 3097 
Q 1497 3097 1228 2736 
Q 959 2375 959 1747 
Q 959 1119 1226 758 
Q 1494 397 1959 397 
Q 2419 397 2687 759 
Q 2956 1122 2956 1747 
Q 2956 2369 2687 2733 
Q 2419 3097 1959 3097 
z
M 1959 3584 
Q 2709 3584 3137 3096 
Q 3566 2609 3566 1747 
Q 3566 888 3137 398 
Q 2709 -91 1959 -91 
Q 1206 -91 779 398 
Q 353 888 353 1747 
Q 353 2609 779 3096 
Q 1206 3584 1959 3584 
z
" transform="scale(0.015625)"/>
       <path id="DejaVuSans-6c" d="M 603 4863 
L 1178 4863 
L 1178 0 
L 603 0 
L 603 4863 
z
" transform="scale(0.015625)"/>
       <path id="DejaVuSans-74" d="M 1172 4494 
L 1172 3500 
L 2356 3500 
L 2356 3053 
L 1172 3053 
L 1172 1153 
Q 1172 725 1289 603 
Q 1406 481 1766 481 
L 2356 481 
L 2356 0 
L 1766 0 
Q 1100 0 847 248 
Q 594 497 594 1153 
L 594 3053 
L 172 3053 
L 172 3500 
L 594 3500 
L 594 4494 
L 1172 4494 
z
" transform="scale(0.015625)"/>
       <path id="DejaVuSans-61" d="M 2194 1759 
Q 1497 1759 1228 1600 
Q 959 1441 959 1056 
Q 959 750 1161 570 
Q 1363 391 1709 391 
Q 2188 391 2477 730 
Q 2766 1069 2766 1631 
L 2766 1759 
L 2194 1759 
z
M 3341 1997 
L 3341 0 
L 2766 0 
L 2766 531 
Q 2569 213 2275 61 
Q 1981 -91 1556 -91 
Q 1019 -91 701 211 
Q 384 513 384 1019 
Q 384 1609 779 1909 
Q 1175 2209 1959 2209 
L 2766 2209 
L 2766 2266 
Q 2766 2663 2505 2880 
Q 2244 3097 1772 3097 
Q 1472 3097 1187 3025 
Q 903 2953 641 2809 
L 641 3341 
Q 956 3463 1253 3523 
Q 1550 3584 1831 3584 
Q 2591 3584 2966 3190 
Q 3341 2797 3341 1997 
z
" transform="scale(0.015625)"/>
       <path id="DejaVuSans-67" d="M 2906 1791 
Q 2906 2416 2648 2759 
Q 2391 3103 1925 3103 
Q 1463 3103 1205 2759 
Q 947 2416 947 1791 
Q 947 1169 1205 825 
Q 1463 481 1925 481 
Q 2391 481 2648 825 
Q 2906 1169 2906 1791 
z
M 3481 434 
Q 3481 -459 3084 -895 
Q 2688 -1331 1869 -1331 
Q 1566 -1331 1297 -1286 
Q 1028 -1241 775 -1147 
L 775 -588 
Q 1028 -725 1275 -790 
Q 1522 -856 1778 -856 
Q 2344 -856 2625 -561 
Q 2906 -266 2906 331 
L 2906 616 
Q 2728 306 2450 153 
Q 2172 0 1784 0 
Q 1141 0 747 490 
Q 353 981 353 1791 
Q 353 2603 747 3093 
Q 1141 3584 1784 3584 
Q 2172 3584 2450 3431 
Q 2728 3278 2906 2969 
L 2906 3500 
L 3481 3500 
L 3481 434 
z
" transform="scale(0.015625)"/>
      </defs>
      <use xlink:href="#DejaVuSans-56"/>
      <use xlink:href="#DejaVuSans-6f" x="60.658203"/>
      <use xlink:href="#DejaVuSans-6c" x="121.839844"/>
      <use xlink:href="#DejaVuSans-74" x="149.623047"/>
      <use xlink:href="#DejaVuSans-61" x="188.832031"/>
      <use xlink:href="#DejaVuSans-67" x="250.111328"/>
      <use xlink:href="#DejaVuSans-65" x="313.587891"/>
      <use xlink:href="#DejaVuSans-20" x="375.111328"/>
      <use xlink:href="#DejaVuSans-28" x="406.898438"/>
      <use xlink:href="#DejaVuSans-56" x="445.912109"/>
      <use xlink:href="#DejaVuSans-29" x="514.320312"/>
     </g>
    </g>
   </g>
   <g id="line2d_12">
    <path d="M 73.832727 174.528446 
L 79.03761 136.404653 
L 82.290661 114.316156 
L 84.893103 98.341146 
L 86.844934 87.621606 
L 88.796764 78.157033 
L 90.748595 70.084097 
L 92.049816 65.533721 
L 93.351037 61.683335 
L 94.652257 58.557666 
L 95.953478 56.17679 
L 96.604088 55.270617 
L 97.254698 54.555996 
L 97.905309 54.034075 
L 98.555919 53.705693 
L 99.206529 53.571377 
L 99.85714 53.631343 
L 100.50775 53.885494 
L 101.15836 54.333422 
L 101.808971 54.974409 
L 102.459581 55.807423 
L 103.760802 58.043878 
L 105.062022 61.028424 
L 106.363243 64.741895 
L 107.664463 69.160441 
L 108.965684 74.255685 
L 110.917515 83.094642 
L 112.869346 93.253936 
L 114.821177 104.586864 
L 117.423618 121.238083 
L 120.67667 143.920583 
L 125.881552 182.363645 
L 130.435824 215.480329 
L 133.038266 233.12439 
L 135.640707 249.265601 
L 137.592538 260.134469 
L 139.544369 269.767155 
L 141.4962 278.02456 
L 142.79742 282.705696 
L 144.098641 286.692092 
L 145.399862 289.958147 
L 146.701082 292.482885 
L 148.002303 294.250091 
L 148.652913 294.845881 
L 149.303523 295.248416 
L 149.954134 295.457051 
L 150.604744 295.47145 
L 151.255354 295.291589 
L 151.905965 294.917758 
L 152.556575 294.350558 
L 153.207185 293.590898 
L 154.508406 291.499391 
L 155.809627 288.656669 
L 157.110847 285.080988 
L 158.412068 280.795312 
L 159.713288 275.827165 
L 161.665119 267.166257 
L 163.61695 257.167625 
L 165.568781 245.975653 
L 168.171222 229.478247 
L 171.424274 206.927803 
L 175.978546 173.391449 
L 181.183429 135.327289 
L 184.43648 113.332698 
L 187.038921 97.461389 
L 188.990752 86.834601 
L 190.942583 77.474144 
L 192.894414 69.515186 
L 194.195635 65.045465 
L 195.496856 61.27887 
L 196.798076 58.239591 
L 198.099297 55.947146 
L 198.749907 55.085777 
L 199.400517 54.416258 
L 200.051128 53.939664 
L 200.701738 53.65676 
L 201.352348 53.568 
L 202.002959 53.673528 
L 202.653569 53.973173 
L 203.304179 54.466454 
L 203.95479 55.15258 
L 204.6054 56.030448 
L 205.906621 58.355464 
L 207.207841 61.42657 
L 208.509062 65.224043 
L 209.810282 69.723495 
L 211.111503 74.896029 
L 213.063334 83.843062 
L 215.015165 94.099625 
L 216.966996 105.51761 
L 219.569437 122.261145 
L 222.822489 145.021929 
L 228.677981 188.324184 
L 232.581643 216.548372 
L 235.184085 234.116486 
L 237.786526 250.156303 
L 239.738357 260.93397 
L 241.690188 270.463909 
L 243.642019 278.608506 
L 244.943239 283.209646 
L 246.24446 287.11281 
L 247.54568 290.29293 
L 248.846901 292.729583 
L 250.148122 294.407121 
L 250.798732 294.957662 
L 251.449342 295.314769 
L 252.099953 295.477869 
L 252.750563 295.446699 
L 253.401173 295.22131 
L 254.051784 294.802063 
L 254.702394 294.189633 
L 255.353004 293.385002 
L 256.654225 291.204616 
L 257.955445 288.274907 
L 259.256666 284.614692 
L 260.557887 280.247477 
L 261.859107 275.201309 
L 263.810938 266.431055 
L 265.762769 256.333693 
L 267.7146 245.055034 
L 270.317041 228.462915 
L 273.570093 205.830921 
L 278.774975 167.410412 
L 283.329248 134.25339 
L 285.931689 116.562135 
L 288.53413 100.357584 
L 290.485961 89.431575 
L 292.437792 79.734396 
L 294.389623 71.406077 
L 295.690844 66.6746 
L 296.992064 62.635786 
L 298.293285 59.315573 
L 299.594505 56.735285 
L 300.895726 54.911492 
L 301.546336 54.287134 
L 302.196947 53.855907 
L 302.847557 53.618506 
L 303.498167 53.575311 
L 304.148778 53.726391 
L 304.799388 54.071503 
L 305.449998 54.610095 
L 306.100608 55.341299 
L 307.401829 57.376543 
L 308.70305 60.164165 
L 310.00427 63.686261 
L 311.305491 67.920211 
L 312.606712 72.838825 
L 314.558543 81.430237 
L 316.510373 91.366021 
L 318.462204 102.5027 
L 321.064646 118.939498 
L 323.667087 136.802025 
L 327.570749 165.25977 
L 334.076852 213.049154 
L 337.329903 235.103316 
L 339.932345 251.040323 
L 341.884176 261.725835 
L 343.836007 271.152186 
L 345.787837 279.183255 
L 347.089058 283.703993 
L 348.390279 287.523579 
L 349.691499 290.617484 
L 350.99272 292.965838 
L 351.64333 293.85553 
L 352.293941 294.553559 
L 352.944551 295.058802 
L 353.595161 295.37045 
L 354.245772 295.488 
L 354.896382 295.411265 
L 355.546992 295.140367 
L 356.197602 294.675741 
L 356.848213 294.018135 
L 357.498823 293.168604 
L 358.800044 290.899531 
L 360.101264 287.883096 
L 361.402485 284.13867 
L 362.703706 279.690301 
L 364.004926 274.566558 
L 365.956757 265.687733 
L 367.908588 255.492534 
L 369.860419 244.128185 
L 372.46286 227.442818 
L 375.715912 204.731272 
L 380.920794 166.2757 
L 385.475066 133.183048 
L 388.077508 115.566758 
L 390.679949 99.462699 
L 392.63178 88.627286 
L 394.583611 79.032317 
L 396.535442 70.816346 
L 397.836662 66.164605 
L 398.487273 64.098016 
L 398.487273 64.098016 
" clip-path="url(#p5154066304)" style="fill: none; stroke: #0000ff; stroke-width: 1.5; stroke-linecap: square"/>
   </g>
   <g id="line2d_13">
    <path d="M 73.832727 174.528446 
L 74.483338 174.526426 
L 75.133948 173.496434 
L 76.435169 165.216458 
L 81.640051 129.527968 
L 84.242492 113.314684 
L 86.194323 102.311359 
L 88.146154 92.490225 
L 90.097985 83.999583 
L 91.399206 79.141824 
L 92.700426 74.964249 
L 94.001647 71.494343 
L 95.302868 68.754886 
L 96.604088 66.763834 
L 97.254698 66.053228 
L 97.905309 65.534223 
L 98.555919 65.207668 
L 99.206529 65.074098 
L 99.85714 65.133731 
L 100.50775 65.386469 
L 101.15836 65.831899 
L 101.808971 66.469293 
L 102.459581 67.297607 
L 103.760802 69.521262 
L 105.062022 72.488301 
L 106.363243 76.179268 
L 107.664463 80.569917 
L 108.965684 85.631338 
L 110.917515 94.40681 
L 112.869346 104.484 
L 114.821177 115.71023 
L 117.423618 132.161055 
L 120.67667 154.389279 
L 123.279111 172.156401 
L 123.929721 174.488947 
L 125.881552 174.528446 
L 176.629156 174.515699 
L 177.279767 172.709648 
L 178.580987 164.160506 
L 183.78587 128.535757 
L 186.388311 112.415677 
L 188.340142 101.498938 
L 190.291973 91.776747 
L 192.243804 83.395743 
L 193.545025 78.616172 
L 194.846245 74.520248 
L 196.147466 71.13491 
L 197.448686 68.482378 
L 198.749907 66.580036 
L 199.400517 65.914272 
L 200.051128 65.440337 
L 200.701738 65.159006 
L 201.352348 65.070739 
L 202.002959 65.175681 
L 202.653569 65.47366 
L 203.304179 65.964188 
L 203.95479 66.646462 
L 204.6054 67.519368 
L 205.906621 69.831043 
L 207.207841 72.884073 
L 208.509062 76.658432 
L 209.810282 81.129323 
L 211.111503 86.267296 
L 213.063334 95.149541 
L 215.015165 105.322334 
L 216.966996 116.631334 
L 219.569437 133.169404 
L 222.822489 155.457341 
L 225.42493 173.014463 
L 226.07554 174.52195 
L 237.786526 174.528446 
L 278.774975 174.454466 
L 279.425586 171.820746 
L 281.377417 158.552863 
L 285.281079 131.791014 
L 287.88352 115.37272 
L 289.835351 104.177221 
L 291.787182 94.135453 
L 293.739013 85.39948 
L 295.040233 80.366351 
L 296.341454 76.005335 
L 297.642674 72.345145 
L 298.943895 69.409822 
L 300.245116 67.218614 
L 300.895726 66.40673 
L 301.546336 65.785869 
L 302.196947 65.357047 
L 302.847557 65.120965 
L 303.498167 65.078009 
L 304.148778 65.22825 
L 304.799388 65.571442 
L 305.449998 66.107024 
L 306.100608 66.834118 
L 307.401829 68.857775 
L 308.70305 71.629163 
L 310.00427 75.130115 
L 311.305491 79.337646 
L 312.606712 84.224071 
L 314.558543 92.75487 
L 316.510373 102.612193 
L 318.462204 113.647124 
L 321.064646 129.894306 
L 324.317697 151.975227 
L 326.920138 169.992787 
L 327.570749 173.745168 
L 328.221359 174.527426 
L 380.270184 174.528253 
L 380.920794 174.210458 
L 381.571405 170.873136 
L 384.173846 152.929725 
L 387.426897 130.788577 
L 390.029339 114.459804 
L 391.98117 103.348528 
L 393.933001 93.403636 
L 395.884831 84.775533 
L 397.186052 79.819582 
L 398.487273 75.53935 
L 398.487273 75.53935 
" clip-path="url(#p5154066304)" style="fill: none; stroke-dasharray: 9.6,2.4,1.5,2.4; stroke-dashoffset: 0; stroke: #ff0000; stroke-width: 1.5"/>
   </g>
   <g id="line2d_14">
    <path d="M 73.832727 174.528446 
L 74.483338 169.683642 
L 75.133948 165.874596 
L 75.784558 164.92266 
L 76.435169 164.530915 
L 77.736389 164.115056 
L 79.68822 163.777994 
L 82.941272 163.465205 
L 88.146154 163.201839 
L 95.953478 163.040357 
L 105.062022 163.068569 
L 112.869346 163.298382 
L 117.423618 163.605473 
L 120.026059 163.935565 
L 121.32728 164.216448 
L 122.628501 164.744368 
L 123.279111 165.366245 
L 123.929721 167.8677 
L 131.086435 220.00804 
L 133.688876 237.3175 
L 136.291317 253.016565 
L 138.243148 263.489974 
L 140.194979 272.678747 
L 141.4962 278.024559 
L 142.79742 282.705695 
L 144.098641 286.692092 
L 145.399862 289.958146 
L 146.701082 292.482884 
L 148.002303 294.25009 
L 148.652913 294.84588 
L 149.303523 295.248416 
L 149.954134 295.45705 
L 150.604744 295.471449 
L 151.255354 295.291588 
L 151.905965 294.917758 
L 152.556575 294.350557 
L 153.207185 293.590898 
L 154.508406 291.49939 
L 155.809627 288.656668 
L 157.110847 285.080987 
L 158.412068 280.795311 
L 159.713288 275.827165 
L 161.665119 267.166256 
L 163.61695 257.167624 
L 165.568781 245.975652 
L 168.171222 229.478247 
L 171.424274 206.927802 
L 176.629156 168.5585 
L 177.279767 165.528464 
L 177.930377 164.807911 
L 179.231598 164.243509 
L 181.183429 163.847222 
L 184.43648 163.502227 
L 189.641363 163.21986 
L 197.448686 163.045048 
L 206.557231 163.061296 
L 214.364555 163.275389 
L 219.569437 163.620187 
L 222.171878 163.962439 
L 223.473099 164.259834 
L 224.123709 164.488675 
L 224.77432 164.84791 
L 225.42493 165.640508 
L 226.07554 168.970244 
L 232.581643 216.548372 
L 235.184085 234.116485 
L 237.786526 250.156302 
L 239.738357 260.933969 
L 241.690188 270.463908 
L 243.642019 278.608505 
L 244.943239 283.209645 
L 246.24446 287.112809 
L 247.54568 290.292929 
L 248.846901 292.729583 
L 250.148122 294.40712 
L 250.798732 294.957661 
L 251.449342 295.314768 
L 252.099953 295.477868 
L 252.750563 295.446698 
L 253.401173 295.221309 
L 254.051784 294.802063 
L 254.702394 294.189632 
L 255.353004 293.385001 
L 256.654225 291.204615 
L 257.955445 288.274907 
L 259.256666 284.614691 
L 260.557887 280.247476 
L 261.859107 275.201309 
L 263.810938 266.431054 
L 265.762769 256.333693 
L 267.7146 245.055034 
L 270.317041 228.462915 
L 273.570093 205.83092 
L 278.774975 167.484392 
L 279.425586 165.285404 
L 280.076196 164.709987 
L 281.377417 164.201219 
L 283.329248 163.825101 
L 286.582299 163.490573 
L 291.787182 163.214213 
L 299.594505 163.043539 
L 308.70305 163.063447 
L 316.510373 163.282273 
L 321.715256 163.635327 
L 324.317697 163.990597 
L 325.618918 164.30649 
L 326.269528 164.556862 
L 326.920138 164.970299 
L 327.570749 166.043047 
L 328.221359 170.100807 
L 334.076852 213.049153 
L 337.329903 235.103315 
L 339.932345 251.040322 
L 341.884176 261.725835 
L 343.836007 271.152186 
L 345.787837 279.183255 
L 347.089058 283.703992 
L 348.390279 287.523579 
L 349.691499 290.617484 
L 350.99272 292.965837 
L 351.64333 293.85553 
L 352.293941 294.553558 
L 352.944551 295.058802 
L 353.595161 295.370449 
L 354.245772 295.487999 
L 354.896382 295.411264 
L 355.546992 295.140366 
L 356.197602 294.675741 
L 356.848213 294.018134 
L 357.498823 293.168603 
L 358.800044 290.89953 
L 360.101264 287.883095 
L 361.402485 284.138669 
L 362.703706 279.6903 
L 364.004926 274.566557 
L 365.956757 265.687732 
L 367.908588 255.492533 
L 369.860419 244.128184 
L 372.46286 227.442817 
L 375.715912 204.731271 
L 380.920794 166.593688 
L 381.571405 165.102108 
L 382.222015 164.624757 
L 383.523236 164.161653 
L 385.475066 163.803808 
L 388.728118 163.479198 
L 393.933001 163.208678 
L 398.487273 163.087111 
L 398.487273 163.087111 
" clip-path="url(#p5154066304)" style="fill: none; stroke-dasharray: 5.55,2.4; stroke-dashoffset: 0; stroke: #000000; stroke-width: 1.5"/>
   </g>
   <g id="patch_3">
    <path d="M 57.6 307.584 
L 57.6 41.472 
" style="fill: none; stroke: #000000; stroke-width: 0.8; stroke-linejoin: miter; stroke-linecap: square"/>
   </g>
   <g id="patch_4">
    <path d="M 414.72 307.584 
L 414.72 41.472 
" style="fill: none; stroke: #000000; stroke-width: 0.8; stroke-linejoin: miter; stroke-linecap: square"/>
   </g>
   <g id="patch_5">
    <path d="M 57.6 307.584 
L 414.72 307.584 
" style="fill: none; stroke: #000000; stroke-width: 0.8; stroke-linejoin: miter; stroke-linecap: square"/>
   </g>
   <g id="patch_6">
    <path d="M 57.6 41.472 
L 414.72 41.472 
" style="fill: none; stroke: #000000; stroke-width: 0.8; stroke-linejoin: miter; stroke-linecap: square"/>
   </g>
   <g id="legend_1">
    <g id="patch_7">
     <path d="M 64.6 302.584 
L 115.2 302.584 
Q 117.2 302.584 117.2 300.584 
L 117.2 257.549625 
Q 117.2 255.549625 115.2 255.549625 
L 64.6 255.549625 
Q 62.6 255.549625 62.6 257.549625 
L 62.6 300.584 
Q 62.6 302.584 64.6 302.584 
z
" style="fill: #ffffff; opacity: 0.8; stroke: #cccccc; stroke-linejoin: miter"/>
    </g>
    <g id="line2d_15">
     <path d="M 66.6 263.648062 
L 76.6 263.648062 
L 86.6 263.648062 
" style="fill: none; stroke: #0000ff; stroke-width: 1.5; stroke-linecap: square"/>
    </g>
    <g id="text_14">
     <!-- $V_{in}$ -->
     <g transform="translate(94.6 267.148062) scale(0.1 -0.1)">
      <defs>
       <path id="DejaVuSans-Oblique-56" d="M 1319 0 
L 500 4666 
L 1119 4666 
L 1797 653 
L 4063 4666 
L 4750 4666 
L 2053 0 
L 1319 0 
z
" transform="scale(0.015625)"/>
       <path id="DejaVuSans-Oblique-69" d="M 1172 4863 
L 1747 4863 
L 1606 4134 
L 1031 4134 
L 1172 4863 
z
M 909 3500 
L 1484 3500 
L 800 0 
L 225 0 
L 909 3500 
z
" transform="scale(0.015625)"/>
       <path id="DejaVuSans-Oblique-6e" d="M 3566 2113 
L 3156 0 
L 2578 0 
L 2988 2091 
Q 3016 2238 3031 2350 
Q 3047 2463 3047 2528 
Q 3047 2791 2881 2937 
Q 2716 3084 2419 3084 
Q 1956 3084 1622 2776 
Q 1288 2469 1184 1941 
L 800 0 
L 225 0 
L 903 3500 
L 1478 3500 
L 1363 2950 
Q 1603 3253 1940 3418 
Q 2278 3584 2650 3584 
Q 3113 3584 3367 3334 
Q 3622 3084 3622 2631 
Q 3622 2519 3608 2391 
Q 3594 2263 3566 2113 
z
" transform="scale(0.015625)"/>
      </defs>
      <use xlink:href="#DejaVuSans-Oblique-56" transform="translate(0 0.09375)"/>
      <use xlink:href="#DejaVuSans-Oblique-69" transform="translate(68.408203 -16.3125) scale(0.7)"/>
      <use xlink:href="#DejaVuSans-Oblique-6e" transform="translate(87.856445 -16.3125) scale(0.7)"/>
     </g>
    </g>
    <g id="line2d_16">
     <path d="M 66.6 278.326188 
L 76.6 278.326188 
L 86.6 278.326188 
" style="fill: none; stroke-dasharray: 9.6,2.4,1.5,2.4; stroke-dashoffset: 0; stroke: #ff0000; stroke-width: 1.5"/>
    </g>
    <g id="text_15">
     <!-- $V_{out}$ -->
     <g transform="translate(94.6 281.826188) scale(0.1 -0.1)">
      <defs>
       <path id="DejaVuSans-Oblique-6f" d="M 1625 -91 
Q 1009 -91 651 289 
Q 294 669 294 1325 
Q 294 1706 417 2101 
Q 541 2497 738 2766 
Q 1047 3184 1428 3384 
Q 1809 3584 2291 3584 
Q 2888 3584 3255 3212 
Q 3622 2841 3622 2241 
Q 3622 1825 3500 1412 
Q 3378 1000 3181 728 
Q 2875 309 2494 109 
Q 2113 -91 1625 -91 
z
M 891 1344 
Q 891 869 1089 633 
Q 1288 397 1691 397 
Q 2269 397 2648 901 
Q 3028 1406 3028 2181 
Q 3028 2634 2825 2865 
Q 2622 3097 2228 3097 
Q 1903 3097 1650 2945 
Q 1397 2794 1197 2484 
Q 1050 2253 970 1956 
Q 891 1659 891 1344 
z
" transform="scale(0.015625)"/>
       <path id="DejaVuSans-Oblique-75" d="M 428 1388 
L 838 3500 
L 1416 3500 
L 1006 1409 
Q 975 1256 961 1147 
Q 947 1038 947 966 
Q 947 700 1109 554 
Q 1272 409 1569 409 
Q 2031 409 2368 721 
Q 2706 1034 2809 1563 
L 3194 3500 
L 3769 3500 
L 3091 0 
L 2516 0 
L 2631 550 
Q 2388 244 2052 76 
Q 1716 -91 1338 -91 
Q 878 -91 622 161 
Q 366 413 366 863 
Q 366 956 381 1097 
Q 397 1238 428 1388 
z
" transform="scale(0.015625)"/>
       <path id="DejaVuSans-Oblique-74" d="M 2706 3500 
L 2619 3053 
L 1472 3053 
L 1100 1153 
Q 1081 1047 1072 975 
Q 1063 903 1063 863 
Q 1063 663 1183 572 
Q 1303 481 1569 481 
L 2150 481 
L 2053 0 
L 1503 0 
Q 991 0 739 200 
Q 488 400 488 806 
Q 488 878 497 964 
Q 506 1050 525 1153 
L 897 3053 
L 409 3053 
L 500 3500 
L 978 3500 
L 1172 4494 
L 1747 4494 
L 1556 3500 
L 2706 3500 
z
" transform="scale(0.015625)"/>
      </defs>
      <use xlink:href="#DejaVuSans-Oblique-56" transform="translate(0 0.09375)"/>
      <use xlink:href="#DejaVuSans-Oblique-6f" transform="translate(68.408203 -16.3125) scale(0.7)"/>
      <use xlink:href="#DejaVuSans-Oblique-75" transform="translate(111.235352 -16.3125) scale(0.7)"/>
      <use xlink:href="#DejaVuSans-Oblique-74" transform="translate(155.600586 -16.3125) scale(0.7)"/>
     </g>
    </g>
    <g id="line2d_17">
     <path d="M 66.6 293.004312 
L 76.6 293.004312 
L 86.6 293.004312 
" style="fill: none; stroke-dasharray: 5.55,2.4; stroke-dashoffset: 0; stroke: #000000; stroke-width: 1.5"/>
    </g>
    <g id="text_16">
     <!-- $V_D$ -->
     <g transform="translate(94.6 296.504312) scale(0.1 -0.1)">
      <defs>
       <path id="DejaVuSans-Oblique-44" d="M 1081 4666 
L 2438 4666 
Q 3519 4666 4070 4208 
Q 4622 3750 4622 2847 
Q 4622 2250 4412 1698 
Q 4203 1147 3834 769 
Q 3463 381 2891 190 
Q 2319 0 1538 0 
L 172 0 
L 1081 4666 
z
M 1613 4147 
L 909 519 
L 1734 519 
Q 2794 519 3375 1128 
Q 3956 1738 3956 2847 
Q 3956 3519 3581 3833 
Q 3206 4147 2406 4147 
L 1613 4147 
z
" transform="scale(0.015625)"/>
      </defs>
      <use xlink:href="#DejaVuSans-Oblique-56" transform="translate(0 0.09375)"/>
      <use xlink:href="#DejaVuSans-Oblique-44" transform="translate(68.408203 -16.3125) scale(0.7)"/>
     </g>
    </g>
   </g>
  </g>
 </g>
 <defs>
  <clipPath id="p5154066304">
   <rect x="57.6" y="41.472" width="357.12" height="266.112"/>
  </clipPath>
 </defs>
</svg>
