<?xml version="1.0" encoding="utf-8" standalone="no"?>
<!DOCTYPE svg PUBLIC "-//W3C//DTD SVG 1.1//EN"
  "http://www.w3.org/Graphics/SVG/1.1/DTD/svg11.dtd">
<svg xmlns:xlink="http://www.w3.org/1999/xlink" width="451.750237pt" height="336.923125pt" viewBox="0 0 451.750237 336.923125" xmlns="http://www.w3.org/2000/svg" version="1.1">
 <metadata>
  <rdf:RDF xmlns:dc="http://purl.org/dc/elements/1.1/" xmlns:cc="http://creativecommons.org/ns#" xmlns:rdf="http://www.w3.org/1999/02/22-rdf-syntax-ns#">
   <cc:Work>
    <dc:type rdf:resource="http://purl.org/dc/dcmitype/StillImage"/>
    <dc:date>2025-01-28T17:43:50.131499</dc:date>
    <dc:format>image/svg+xml</dc:format>
    <dc:creator>
     <cc:Agent>
      <dc:title>Matplotlib v3.6.3, https://matplotlib.org/</dc:title>
     </cc:Agent>
    </dc:creator>
   </cc:Work>
  </rdf:RDF>
 </metadata>
 <defs>
  <style type="text/css">*{stroke-linejoin: round; stroke-linecap: butt}</style>
 </defs>
 <g id="figure_1">
  <g id="patch_1">
   <path d="M 0 336.923125 
L 451.750237 336.923125 
L 451.750237 0 
L 0 0 
z
" style="fill: #ffffff"/>
  </g>
  <g id="axes_1">
   <g id="patch_2">
    <path d="M 48.427188 293.56 
L 444.20988 293.56 
L 444.20988 7.2 
L 48.427188 7.2 
z
" style="fill: #ffffff"/>
   </g>
   <g id="matplotlib.axis_1">
    <g id="xtick_1">
     <g id="line2d_1">
      <defs>
       <path id="m7c6097b9f0" d="M 0 0 
L 0 3.5 
" style="stroke: #000000; stroke-width: 0.8"/>
      </defs>
      <g>
       <use xlink:href="#m7c6097b9f0" x="56.038393" y="293.56" style="stroke: #000000; stroke-width: 0.8"/>
      </g>
     </g>
     <g id="text_1">
      <!-- 0.0 -->
      <g transform="translate(48.086831 308.158437) scale(0.1 -0.1)">
       <defs>
        <path id="DejaVuSans-30" d="M 2034 4250 
Q 1547 4250 1301 3770 
Q 1056 3291 1056 2328 
Q 1056 1369 1301 889 
Q 1547 409 2034 409 
Q 2525 409 2770 889 
Q 3016 1369 3016 2328 
Q 3016 3291 2770 3770 
Q 2525 4250 2034 4250 
z
M 2034 4750 
Q 2819 4750 3233 4129 
Q 3647 3509 3647 2328 
Q 3647 1150 3233 529 
Q 2819 -91 2034 -91 
Q 1250 -91 836 529 
Q 422 1150 422 2328 
Q 422 3509 836 4129 
Q 1250 4750 2034 4750 
z
" transform="scale(0.015625)"/>
        <path id="DejaVuSans-2e" d="M 684 794 
L 1344 794 
L 1344 0 
L 684 0 
L 684 794 
z
" transform="scale(0.015625)"/>
       </defs>
       <use xlink:href="#DejaVuSans-30"/>
       <use xlink:href="#DejaVuSans-2e" x="63.623047"/>
       <use xlink:href="#DejaVuSans-30" x="95.410156"/>
      </g>
     </g>
    </g>
    <g id="xtick_2">
     <g id="line2d_2">
      <g>
       <use xlink:href="#m7c6097b9f0" x="132.150449" y="293.56" style="stroke: #000000; stroke-width: 0.8"/>
      </g>
     </g>
     <g id="text_2">
      <!-- 0.2 -->
      <g transform="translate(124.198887 308.158437) scale(0.1 -0.1)">
       <defs>
        <path id="DejaVuSans-32" d="M 1228 531 
L 3431 531 
L 3431 0 
L 469 0 
L 469 531 
Q 828 903 1448 1529 
Q 2069 2156 2228 2338 
Q 2531 2678 2651 2914 
Q 2772 3150 2772 3378 
Q 2772 3750 2511 3984 
Q 2250 4219 1831 4219 
Q 1534 4219 1204 4116 
Q 875 4013 500 3803 
L 500 4441 
Q 881 4594 1212 4672 
Q 1544 4750 1819 4750 
Q 2544 4750 2975 4387 
Q 3406 4025 3406 3419 
Q 3406 3131 3298 2873 
Q 3191 2616 2906 2266 
Q 2828 2175 2409 1742 
Q 1991 1309 1228 531 
z
" transform="scale(0.015625)"/>
       </defs>
       <use xlink:href="#DejaVuSans-30"/>
       <use xlink:href="#DejaVuSans-2e" x="63.623047"/>
       <use xlink:href="#DejaVuSans-32" x="95.410156"/>
      </g>
     </g>
    </g>
    <g id="xtick_3">
     <g id="line2d_3">
      <g>
       <use xlink:href="#m7c6097b9f0" x="208.262506" y="293.56" style="stroke: #000000; stroke-width: 0.8"/>
      </g>
     </g>
     <g id="text_3">
      <!-- 0.4 -->
      <g transform="translate(200.310943 308.158437) scale(0.1 -0.1)">
       <defs>
        <path id="DejaVuSans-34" d="M 2419 4116 
L 825 1625 
L 2419 1625 
L 2419 4116 
z
M 2253 4666 
L 3047 4666 
L 3047 1625 
L 3713 1625 
L 3713 1100 
L 3047 1100 
L 3047 0 
L 2419 0 
L 2419 1100 
L 313 1100 
L 313 1709 
L 2253 4666 
z
" transform="scale(0.015625)"/>
       </defs>
       <use xlink:href="#DejaVuSans-30"/>
       <use xlink:href="#DejaVuSans-2e" x="63.623047"/>
       <use xlink:href="#DejaVuSans-34" x="95.410156"/>
      </g>
     </g>
    </g>
    <g id="xtick_4">
     <g id="line2d_4">
      <g>
       <use xlink:href="#m7c6097b9f0" x="284.374562" y="293.56" style="stroke: #000000; stroke-width: 0.8"/>
      </g>
     </g>
     <g id="text_4">
      <!-- 0.6 -->
      <g transform="translate(276.422999 308.158437) scale(0.1 -0.1)">
       <defs>
        <path id="DejaVuSans-36" d="M 2113 2584 
Q 1688 2584 1439 2293 
Q 1191 2003 1191 1497 
Q 1191 994 1439 701 
Q 1688 409 2113 409 
Q 2538 409 2786 701 
Q 3034 994 3034 1497 
Q 3034 2003 2786 2293 
Q 2538 2584 2113 2584 
z
M 3366 4563 
L 3366 3988 
Q 3128 4100 2886 4159 
Q 2644 4219 2406 4219 
Q 1781 4219 1451 3797 
Q 1122 3375 1075 2522 
Q 1259 2794 1537 2939 
Q 1816 3084 2150 3084 
Q 2853 3084 3261 2657 
Q 3669 2231 3669 1497 
Q 3669 778 3244 343 
Q 2819 -91 2113 -91 
Q 1303 -91 875 529 
Q 447 1150 447 2328 
Q 447 3434 972 4092 
Q 1497 4750 2381 4750 
Q 2619 4750 2861 4703 
Q 3103 4656 3366 4563 
z
" transform="scale(0.015625)"/>
       </defs>
       <use xlink:href="#DejaVuSans-30"/>
       <use xlink:href="#DejaVuSans-2e" x="63.623047"/>
       <use xlink:href="#DejaVuSans-36" x="95.410156"/>
      </g>
     </g>
    </g>
    <g id="xtick_5">
     <g id="line2d_5">
      <g>
       <use xlink:href="#m7c6097b9f0" x="360.486618" y="293.56" style="stroke: #000000; stroke-width: 0.8"/>
      </g>
     </g>
     <g id="text_5">
      <!-- 0.8 -->
      <g transform="translate(352.535055 308.158437) scale(0.1 -0.1)">
       <defs>
        <path id="DejaVuSans-38" d="M 2034 2216 
Q 1584 2216 1326 1975 
Q 1069 1734 1069 1313 
Q 1069 891 1326 650 
Q 1584 409 2034 409 
Q 2484 409 2743 651 
Q 3003 894 3003 1313 
Q 3003 1734 2745 1975 
Q 2488 2216 2034 2216 
z
M 1403 2484 
Q 997 2584 770 2862 
Q 544 3141 544 3541 
Q 544 4100 942 4425 
Q 1341 4750 2034 4750 
Q 2731 4750 3128 4425 
Q 3525 4100 3525 3541 
Q 3525 3141 3298 2862 
Q 3072 2584 2669 2484 
Q 3125 2378 3379 2068 
Q 3634 1759 3634 1313 
Q 3634 634 3220 271 
Q 2806 -91 2034 -91 
Q 1263 -91 848 271 
Q 434 634 434 1313 
Q 434 1759 690 2068 
Q 947 2378 1403 2484 
z
M 1172 3481 
Q 1172 3119 1398 2916 
Q 1625 2713 2034 2713 
Q 2441 2713 2670 2916 
Q 2900 3119 2900 3481 
Q 2900 3844 2670 4047 
Q 2441 4250 2034 4250 
Q 1625 4250 1398 4047 
Q 1172 3844 1172 3481 
z
" transform="scale(0.015625)"/>
       </defs>
       <use xlink:href="#DejaVuSans-30"/>
       <use xlink:href="#DejaVuSans-2e" x="63.623047"/>
       <use xlink:href="#DejaVuSans-38" x="95.410156"/>
      </g>
     </g>
    </g>
    <g id="xtick_6">
     <g id="line2d_6">
      <g>
       <use xlink:href="#m7c6097b9f0" x="436.598674" y="293.56" style="stroke: #000000; stroke-width: 0.8"/>
      </g>
     </g>
     <g id="text_6">
      <!-- 1.0 -->
      <g transform="translate(428.647112 308.158437) scale(0.1 -0.1)">
       <defs>
        <path id="DejaVuSans-31" d="M 794 531 
L 1825 531 
L 1825 4091 
L 703 3866 
L 703 4441 
L 1819 4666 
L 2450 4666 
L 2450 531 
L 3481 531 
L 3481 0 
L 794 0 
L 794 531 
z
" transform="scale(0.015625)"/>
       </defs>
       <use xlink:href="#DejaVuSans-31"/>
       <use xlink:href="#DejaVuSans-2e" x="63.623047"/>
       <use xlink:href="#DejaVuSans-30" x="95.410156"/>
      </g>
     </g>
    </g>
    <g id="xtick_7">
     <g id="line2d_7">
      <defs>
       <path id="md12b0e83c1" d="M 0 0 
L 0 2 
" style="stroke: #000000; stroke-width: 0.6"/>
      </defs>
      <g>
       <use xlink:href="#md12b0e83c1" x="75.066407" y="293.56" style="stroke: #000000; stroke-width: 0.6"/>
      </g>
     </g>
    </g>
    <g id="xtick_8">
     <g id="line2d_8">
      <g>
       <use xlink:href="#md12b0e83c1" x="94.094421" y="293.56" style="stroke: #000000; stroke-width: 0.6"/>
      </g>
     </g>
    </g>
    <g id="xtick_9">
     <g id="line2d_9">
      <g>
       <use xlink:href="#md12b0e83c1" x="113.122435" y="293.56" style="stroke: #000000; stroke-width: 0.6"/>
      </g>
     </g>
    </g>
    <g id="xtick_10">
     <g id="line2d_10">
      <g>
       <use xlink:href="#md12b0e83c1" x="151.178463" y="293.56" style="stroke: #000000; stroke-width: 0.6"/>
      </g>
     </g>
    </g>
    <g id="xtick_11">
     <g id="line2d_11">
      <g>
       <use xlink:href="#md12b0e83c1" x="170.206477" y="293.56" style="stroke: #000000; stroke-width: 0.6"/>
      </g>
     </g>
    </g>
    <g id="xtick_12">
     <g id="line2d_12">
      <g>
       <use xlink:href="#md12b0e83c1" x="189.234491" y="293.56" style="stroke: #000000; stroke-width: 0.6"/>
      </g>
     </g>
    </g>
    <g id="xtick_13">
     <g id="line2d_13">
      <g>
       <use xlink:href="#md12b0e83c1" x="227.29052" y="293.56" style="stroke: #000000; stroke-width: 0.6"/>
      </g>
     </g>
    </g>
    <g id="xtick_14">
     <g id="line2d_14">
      <g>
       <use xlink:href="#md12b0e83c1" x="246.318534" y="293.56" style="stroke: #000000; stroke-width: 0.6"/>
      </g>
     </g>
    </g>
    <g id="xtick_15">
     <g id="line2d_15">
      <g>
       <use xlink:href="#md12b0e83c1" x="265.346548" y="293.56" style="stroke: #000000; stroke-width: 0.6"/>
      </g>
     </g>
    </g>
    <g id="xtick_16">
     <g id="line2d_16">
      <g>
       <use xlink:href="#md12b0e83c1" x="303.402576" y="293.56" style="stroke: #000000; stroke-width: 0.6"/>
      </g>
     </g>
    </g>
    <g id="xtick_17">
     <g id="line2d_17">
      <g>
       <use xlink:href="#md12b0e83c1" x="322.43059" y="293.56" style="stroke: #000000; stroke-width: 0.6"/>
      </g>
     </g>
    </g>
    <g id="xtick_18">
     <g id="line2d_18">
      <g>
       <use xlink:href="#md12b0e83c1" x="341.458604" y="293.56" style="stroke: #000000; stroke-width: 0.6"/>
      </g>
     </g>
    </g>
    <g id="xtick_19">
     <g id="line2d_19">
      <g>
       <use xlink:href="#md12b0e83c1" x="379.514632" y="293.56" style="stroke: #000000; stroke-width: 0.6"/>
      </g>
     </g>
    </g>
    <g id="xtick_20">
     <g id="line2d_20">
      <g>
       <use xlink:href="#md12b0e83c1" x="398.542646" y="293.56" style="stroke: #000000; stroke-width: 0.6"/>
      </g>
     </g>
    </g>
    <g id="xtick_21">
     <g id="line2d_21">
      <g>
       <use xlink:href="#md12b0e83c1" x="417.57066" y="293.56" style="stroke: #000000; stroke-width: 0.6"/>
      </g>
     </g>
    </g>
    <g id="text_7">
     <!-- Time (s) -->
     <g transform="translate(213.792284 326.395625) scale(0.16 -0.16)">
      <defs>
       <path id="DejaVuSans-54" d="M -19 4666 
L 3928 4666 
L 3928 4134 
L 2272 4134 
L 2272 0 
L 1638 0 
L 1638 4134 
L -19 4134 
L -19 4666 
z
" transform="scale(0.015625)"/>
       <path id="DejaVuSans-69" d="M 603 3500 
L 1178 3500 
L 1178 0 
L 603 0 
L 603 3500 
z
M 603 4863 
L 1178 4863 
L 1178 4134 
L 603 4134 
L 603 4863 
z
" transform="scale(0.015625)"/>
       <path id="DejaVuSans-6d" d="M 3328 2828 
Q 3544 3216 3844 3400 
Q 4144 3584 4550 3584 
Q 5097 3584 5394 3201 
Q 5691 2819 5691 2113 
L 5691 0 
L 5113 0 
L 5113 2094 
Q 5113 2597 4934 2840 
Q 4756 3084 4391 3084 
Q 3944 3084 3684 2787 
Q 3425 2491 3425 1978 
L 3425 0 
L 2847 0 
L 2847 2094 
Q 2847 2600 2669 2842 
Q 2491 3084 2119 3084 
Q 1678 3084 1418 2786 
Q 1159 2488 1159 1978 
L 1159 0 
L 581 0 
L 581 3500 
L 1159 3500 
L 1159 2956 
Q 1356 3278 1631 3431 
Q 1906 3584 2284 3584 
Q 2666 3584 2933 3390 
Q 3200 3197 3328 2828 
z
" transform="scale(0.015625)"/>
       <path id="DejaVuSans-65" d="M 3597 1894 
L 3597 1613 
L 953 1613 
Q 991 1019 1311 708 
Q 1631 397 2203 397 
Q 2534 397 2845 478 
Q 3156 559 3463 722 
L 3463 178 
Q 3153 47 2828 -22 
Q 2503 -91 2169 -91 
Q 1331 -91 842 396 
Q 353 884 353 1716 
Q 353 2575 817 3079 
Q 1281 3584 2069 3584 
Q 2775 3584 3186 3129 
Q 3597 2675 3597 1894 
z
M 3022 2063 
Q 3016 2534 2758 2815 
Q 2500 3097 2075 3097 
Q 1594 3097 1305 2825 
Q 1016 2553 972 2059 
L 3022 2063 
z
" transform="scale(0.015625)"/>
       <path id="DejaVuSans-20" transform="scale(0.015625)"/>
       <path id="DejaVuSans-28" d="M 1984 4856 
Q 1566 4138 1362 3434 
Q 1159 2731 1159 2009 
Q 1159 1288 1364 580 
Q 1569 -128 1984 -844 
L 1484 -844 
Q 1016 -109 783 600 
Q 550 1309 550 2009 
Q 550 2706 781 3412 
Q 1013 4119 1484 4856 
L 1984 4856 
z
" transform="scale(0.015625)"/>
       <path id="DejaVuSans-73" d="M 2834 3397 
L 2834 2853 
Q 2591 2978 2328 3040 
Q 2066 3103 1784 3103 
Q 1356 3103 1142 2972 
Q 928 2841 928 2578 
Q 928 2378 1081 2264 
Q 1234 2150 1697 2047 
L 1894 2003 
Q 2506 1872 2764 1633 
Q 3022 1394 3022 966 
Q 3022 478 2636 193 
Q 2250 -91 1575 -91 
Q 1294 -91 989 -36 
Q 684 19 347 128 
L 347 722 
Q 666 556 975 473 
Q 1284 391 1588 391 
Q 1994 391 2212 530 
Q 2431 669 2431 922 
Q 2431 1156 2273 1281 
Q 2116 1406 1581 1522 
L 1381 1569 
Q 847 1681 609 1914 
Q 372 2147 372 2553 
Q 372 3047 722 3315 
Q 1072 3584 1716 3584 
Q 2034 3584 2315 3537 
Q 2597 3491 2834 3397 
z
" transform="scale(0.015625)"/>
       <path id="DejaVuSans-29" d="M 513 4856 
L 1013 4856 
Q 1481 4119 1714 3412 
Q 1947 2706 1947 2009 
Q 1947 1309 1714 600 
Q 1481 -109 1013 -844 
L 513 -844 
Q 928 -128 1133 580 
Q 1338 1288 1338 2009 
Q 1338 2731 1133 3434 
Q 928 4138 513 4856 
z
" transform="scale(0.015625)"/>
      </defs>
      <use xlink:href="#DejaVuSans-54"/>
      <use xlink:href="#DejaVuSans-69" x="57.958984"/>
      <use xlink:href="#DejaVuSans-6d" x="85.742188"/>
      <use xlink:href="#DejaVuSans-65" x="183.154297"/>
      <use xlink:href="#DejaVuSans-20" x="244.677734"/>
      <use xlink:href="#DejaVuSans-28" x="276.464844"/>
      <use xlink:href="#DejaVuSans-73" x="315.478516"/>
      <use xlink:href="#DejaVuSans-29" x="367.578125"/>
     </g>
    </g>
   </g>
   <g id="matplotlib.axis_2">
    <g id="ytick_1">
     <g id="line2d_22">
      <defs>
       <path id="mee1352e3ab" d="M 0 0 
L -3.5 0 
" style="stroke: #000000; stroke-width: 0.8"/>
      </defs>
      <g>
       <use xlink:href="#mee1352e3ab" x="48.427188" y="260.519539" style="stroke: #000000; stroke-width: 0.8"/>
      </g>
     </g>
     <g id="text_8">
      <!-- −4 -->
      <g transform="translate(26.685 264.318758) scale(0.1 -0.1)">
       <defs>
        <path id="DejaVuSans-2212" d="M 678 2272 
L 4684 2272 
L 4684 1741 
L 678 1741 
L 678 2272 
z
" transform="scale(0.015625)"/>
       </defs>
       <use xlink:href="#DejaVuSans-2212"/>
       <use xlink:href="#DejaVuSans-34" x="83.789062"/>
      </g>
     </g>
    </g>
    <g id="ytick_2">
     <g id="line2d_23">
      <g>
       <use xlink:href="#mee1352e3ab" x="48.427188" y="205.450023" style="stroke: #000000; stroke-width: 0.8"/>
      </g>
     </g>
     <g id="text_9">
      <!-- −2 -->
      <g transform="translate(26.685 209.249242) scale(0.1 -0.1)">
       <use xlink:href="#DejaVuSans-2212"/>
       <use xlink:href="#DejaVuSans-32" x="83.789062"/>
      </g>
     </g>
    </g>
    <g id="ytick_3">
     <g id="line2d_24">
      <g>
       <use xlink:href="#mee1352e3ab" x="48.427188" y="150.380507" style="stroke: #000000; stroke-width: 0.8"/>
      </g>
     </g>
     <g id="text_10">
      <!-- 0 -->
      <g transform="translate(35.064688 154.179726) scale(0.1 -0.1)">
       <use xlink:href="#DejaVuSans-30"/>
      </g>
     </g>
    </g>
    <g id="ytick_4">
     <g id="line2d_25">
      <g>
       <use xlink:href="#mee1352e3ab" x="48.427188" y="95.310991" style="stroke: #000000; stroke-width: 0.8"/>
      </g>
     </g>
     <g id="text_11">
      <!-- 2 -->
      <g transform="translate(35.064688 99.11021) scale(0.1 -0.1)">
       <use xlink:href="#DejaVuSans-32"/>
      </g>
     </g>
    </g>
    <g id="ytick_5">
     <g id="line2d_26">
      <g>
       <use xlink:href="#mee1352e3ab" x="48.427188" y="40.241475" style="stroke: #000000; stroke-width: 0.8"/>
      </g>
     </g>
     <g id="text_12">
      <!-- 4 -->
      <g transform="translate(35.064688 44.040694) scale(0.1 -0.1)">
       <use xlink:href="#DejaVuSans-34"/>
      </g>
     </g>
    </g>
    <g id="ytick_6">
     <g id="line2d_27">
      <defs>
       <path id="me505e4cc52" d="M 0 0 
L -2 0 
" style="stroke: #000000; stroke-width: 0.6"/>
      </defs>
      <g>
       <use xlink:href="#me505e4cc52" x="48.427188" y="288.054297" style="stroke: #000000; stroke-width: 0.6"/>
      </g>
     </g>
    </g>
    <g id="ytick_7">
     <g id="line2d_28">
      <g>
       <use xlink:href="#me505e4cc52" x="48.427188" y="274.286918" style="stroke: #000000; stroke-width: 0.6"/>
      </g>
     </g>
    </g>
    <g id="ytick_8">
     <g id="line2d_29">
      <g>
       <use xlink:href="#me505e4cc52" x="48.427188" y="246.75216" style="stroke: #000000; stroke-width: 0.6"/>
      </g>
     </g>
    </g>
    <g id="ytick_9">
     <g id="line2d_30">
      <g>
       <use xlink:href="#me505e4cc52" x="48.427188" y="232.984781" style="stroke: #000000; stroke-width: 0.6"/>
      </g>
     </g>
    </g>
    <g id="ytick_10">
     <g id="line2d_31">
      <g>
       <use xlink:href="#me505e4cc52" x="48.427188" y="219.217402" style="stroke: #000000; stroke-width: 0.6"/>
      </g>
     </g>
    </g>
    <g id="ytick_11">
     <g id="line2d_32">
      <g>
       <use xlink:href="#me505e4cc52" x="48.427188" y="191.682644" style="stroke: #000000; stroke-width: 0.6"/>
      </g>
     </g>
    </g>
    <g id="ytick_12">
     <g id="line2d_33">
      <g>
       <use xlink:href="#me505e4cc52" x="48.427188" y="177.915265" style="stroke: #000000; stroke-width: 0.6"/>
      </g>
     </g>
    </g>
    <g id="ytick_13">
     <g id="line2d_34">
      <g>
       <use xlink:href="#me505e4cc52" x="48.427188" y="164.147886" style="stroke: #000000; stroke-width: 0.6"/>
      </g>
     </g>
    </g>
    <g id="ytick_14">
     <g id="line2d_35">
      <g>
       <use xlink:href="#me505e4cc52" x="48.427188" y="136.613128" style="stroke: #000000; stroke-width: 0.6"/>
      </g>
     </g>
    </g>
    <g id="ytick_15">
     <g id="line2d_36">
      <g>
       <use xlink:href="#me505e4cc52" x="48.427188" y="122.845749" style="stroke: #000000; stroke-width: 0.6"/>
      </g>
     </g>
    </g>
    <g id="ytick_16">
     <g id="line2d_37">
      <g>
       <use xlink:href="#me505e4cc52" x="48.427188" y="109.07837" style="stroke: #000000; stroke-width: 0.6"/>
      </g>
     </g>
    </g>
    <g id="ytick_17">
     <g id="line2d_38">
      <g>
       <use xlink:href="#me505e4cc52" x="48.427188" y="81.543612" style="stroke: #000000; stroke-width: 0.6"/>
      </g>
     </g>
    </g>
    <g id="ytick_18">
     <g id="line2d_39">
      <g>
       <use xlink:href="#me505e4cc52" x="48.427188" y="67.776233" style="stroke: #000000; stroke-width: 0.6"/>
      </g>
     </g>
    </g>
    <g id="ytick_19">
     <g id="line2d_40">
      <g>
       <use xlink:href="#me505e4cc52" x="48.427188" y="54.008854" style="stroke: #000000; stroke-width: 0.6"/>
      </g>
     </g>
    </g>
    <g id="ytick_20">
     <g id="line2d_41">
      <g>
       <use xlink:href="#me505e4cc52" x="48.427188" y="26.474096" style="stroke: #000000; stroke-width: 0.6"/>
      </g>
     </g>
    </g>
    <g id="ytick_21">
     <g id="line2d_42">
      <g>
       <use xlink:href="#me505e4cc52" x="48.427188" y="12.706717" style="stroke: #000000; stroke-width: 0.6"/>
      </g>
     </g>
    </g>
    <g id="text_13">
     <!-- Voltage (V) -->
     <g transform="translate(19.3575 194.6475) rotate(-90) scale(0.16 -0.16)">
      <defs>
       <path id="DejaVuSans-56" d="M 1831 0 
L 50 4666 
L 709 4666 
L 2188 738 
L 3669 4666 
L 4325 4666 
L 2547 0 
L 1831 0 
z
" transform="scale(0.015625)"/>
       <path id="DejaVuSans-6f" d="M 1959 3097 
Q 1497 3097 1228 2736 
Q 959 2375 959 1747 
Q 959 1119 1226 758 
Q 1494 397 1959 397 
Q 2419 397 2687 759 
Q 2956 1122 2956 1747 
Q 2956 2369 2687 2733 
Q 2419 3097 1959 3097 
z
M 1959 3584 
Q 2709 3584 3137 3096 
Q 3566 2609 3566 1747 
Q 3566 888 3137 398 
Q 2709 -91 1959 -91 
Q 1206 -91 779 398 
Q 353 888 353 1747 
Q 353 2609 779 3096 
Q 1206 3584 1959 3584 
z
" transform="scale(0.015625)"/>
       <path id="DejaVuSans-6c" d="M 603 4863 
L 1178 4863 
L 1178 0 
L 603 0 
L 603 4863 
z
" transform="scale(0.015625)"/>
       <path id="DejaVuSans-74" d="M 1172 4494 
L 1172 3500 
L 2356 3500 
L 2356 3053 
L 1172 3053 
L 1172 1153 
Q 1172 725 1289 603 
Q 1406 481 1766 481 
L 2356 481 
L 2356 0 
L 1766 0 
Q 1100 0 847 248 
Q 594 497 594 1153 
L 594 3053 
L 172 3053 
L 172 3500 
L 594 3500 
L 594 4494 
L 1172 4494 
z
" transform="scale(0.015625)"/>
       <path id="DejaVuSans-61" d="M 2194 1759 
Q 1497 1759 1228 1600 
Q 959 1441 959 1056 
Q 959 750 1161 570 
Q 1363 391 1709 391 
Q 2188 391 2477 730 
Q 2766 1069 2766 1631 
L 2766 1759 
L 2194 1759 
z
M 3341 1997 
L 3341 0 
L 2766 0 
L 2766 531 
Q 2569 213 2275 61 
Q 1981 -91 1556 -91 
Q 1019 -91 701 211 
Q 384 513 384 1019 
Q 384 1609 779 1909 
Q 1175 2209 1959 2209 
L 2766 2209 
L 2766 2266 
Q 2766 2663 2505 2880 
Q 2244 3097 1772 3097 
Q 1472 3097 1187 3025 
Q 903 2953 641 2809 
L 641 3341 
Q 956 3463 1253 3523 
Q 1550 3584 1831 3584 
Q 2591 3584 2966 3190 
Q 3341 2797 3341 1997 
z
" transform="scale(0.015625)"/>
       <path id="DejaVuSans-67" d="M 2906 1791 
Q 2906 2416 2648 2759 
Q 2391 3103 1925 3103 
Q 1463 3103 1205 2759 
Q 947 2416 947 1791 
Q 947 1169 1205 825 
Q 1463 481 1925 481 
Q 2391 481 2648 825 
Q 2906 1169 2906 1791 
z
M 3481 434 
Q 3481 -459 3084 -895 
Q 2688 -1331 1869 -1331 
Q 1566 -1331 1297 -1286 
Q 1028 -1241 775 -1147 
L 775 -588 
Q 1028 -725 1275 -790 
Q 1522 -856 1778 -856 
Q 2344 -856 2625 -561 
Q 2906 -266 2906 331 
L 2906 616 
Q 2728 306 2450 153 
Q 2172 0 1784 0 
Q 1141 0 747 490 
Q 353 981 353 1791 
Q 353 2603 747 3093 
Q 1141 3584 1784 3584 
Q 2172 3584 2450 3431 
Q 2728 3278 2906 2969 
L 2906 3500 
L 3481 3500 
L 3481 434 
z
" transform="scale(0.015625)"/>
      </defs>
      <use xlink:href="#DejaVuSans-56"/>
      <use xlink:href="#DejaVuSans-6f" x="60.658203"/>
      <use xlink:href="#DejaVuSans-6c" x="121.839844"/>
      <use xlink:href="#DejaVuSans-74" x="149.623047"/>
      <use xlink:href="#DejaVuSans-61" x="188.832031"/>
      <use xlink:href="#DejaVuSans-67" x="250.111328"/>
      <use xlink:href="#DejaVuSans-65" x="313.587891"/>
      <use xlink:href="#DejaVuSans-20" x="375.111328"/>
      <use xlink:href="#DejaVuSans-28" x="406.898438"/>
      <use xlink:href="#DejaVuSans-56" x="445.912109"/>
      <use xlink:href="#DejaVuSans-29" x="514.320312"/>
     </g>
    </g>
   </g>
   <g id="line2d_43">
    <path d="M 56.038393 150.380507 
L 62.13956 106.98914 
L 65.190143 86.688181 
L 68.240727 68.020784 
L 70.528664 55.382205 
L 72.816602 44.115435 
L 74.341894 37.447604 
L 75.867185 31.505054 
L 77.392477 26.325951 
L 78.917769 21.943556 
L 80.44306 18.386013 
L 81.968352 15.67617 
L 82.730998 14.644791 
L 83.493644 13.83143 
L 84.25629 13.237396 
L 85.018936 12.863641 
L 85.781581 12.710767 
L 86.544227 12.779018 
L 87.306873 13.068285 
L 88.069519 13.578104 
L 88.832165 14.307655 
L 89.594811 15.255768 
L 90.357457 16.420918 
L 91.882748 19.3945 
L 93.40804 23.209306 
L 94.933332 27.840835 
L 96.458623 33.259343 
L 97.983915 39.430031 
L 99.509207 46.313269 
L 101.797144 57.876276 
L 104.085082 70.775078 
L 106.373019 84.823411 
L 109.423603 104.990025 
L 113.236832 131.771742 
L 122.388582 196.990723 
L 125.439166 217.07267 
L 127.727103 231.03825 
L 130.015041 243.839103 
L 132.302979 255.290379 
L 133.82827 262.092264 
L 135.353562 268.176709 
L 136.878854 273.504639 
L 138.404145 278.041836 
L 139.929437 281.759162 
L 141.454729 284.632744 
L 142.217375 285.747148 
L 142.98002 286.644126 
L 143.742666 287.322236 
L 144.505312 287.78039 
L 145.267958 288.017852 
L 146.030604 288.03424 
L 146.79325 287.829528 
L 147.555896 287.404045 
L 148.318541 286.758474 
L 149.081187 285.893852 
L 149.843833 284.811568 
L 151.369125 282.001315 
L 152.894417 278.345761 
L 154.419708 273.868384 
L 155.945 268.597938 
L 157.470292 262.568273 
L 158.995583 255.818111 
L 161.283521 244.437965 
L 163.571459 231.699595 
L 165.859396 217.786948 
L 168.909979 197.759423 
L 172.723209 171.079556 
L 182.637605 100.57997 
L 185.688188 80.729326 
L 187.976126 66.987426 
L 190.264063 54.449753 
L 192.552001 43.297355 
L 194.077293 36.712444 
L 195.602584 30.857536 
L 197.127876 25.770233 
L 198.653168 21.483206 
L 200.178459 18.023989 
L 201.703751 15.414796 
L 202.466397 14.434412 
L 203.229043 13.672385 
L 203.991689 13.12994 
L 204.754335 12.807947 
L 205.51698 12.706923 
L 206.279626 12.827031 
L 207.042272 13.168079 
L 207.804918 13.729517 
L 208.567564 14.510445 
L 209.33021 15.509608 
L 210.092856 16.725401 
L 211.618147 19.798722 
L 213.143439 23.71067 
L 214.668731 28.436122 
L 216.194022 33.944729 
L 217.719314 40.201115 
L 219.244606 47.165099 
L 221.532543 58.838814 
L 223.820481 71.834425 
L 226.108419 85.964269 
L 229.159002 106.21377 
L 233.734877 138.541351 
L 241.361336 192.994974 
L 244.411919 213.346674 
L 247.462502 232.083436 
L 249.75044 244.785209 
L 252.038378 256.123744 
L 253.563669 262.843674 
L 255.088961 268.841338 
L 256.614253 274.078219 
L 258.139544 278.520684 
L 259.664836 282.140203 
L 261.190128 284.913529 
L 261.952774 285.977089 
L 262.71542 286.822852 
L 263.478065 287.449462 
L 264.240711 287.855911 
L 265.003357 288.041546 
L 265.766003 288.00607 
L 266.528649 287.749538 
L 267.291295 287.272364 
L 268.05394 286.575314 
L 268.816586 285.659507 
L 269.579232 284.526414 
L 271.104524 281.615998 
L 272.629816 277.862756 
L 274.155107 273.290793 
L 275.680399 267.929471 
L 277.205691 261.813222 
L 278.730982 254.981326 
L 281.01892 243.488809 
L 283.306858 230.651774 
L 285.594795 216.655594 
L 288.645379 196.542279 
L 292.458608 169.799256 
L 302.373004 99.375706 
L 305.423587 79.616137 
L 307.711525 65.961437 
L 309.999462 53.525778 
L 312.2874 42.488737 
L 313.812692 35.987327 
L 315.337983 30.220578 
L 316.863275 25.225524 
L 318.388567 21.034246 
L 319.913859 17.673659 
L 321.43915 15.165347 
L 322.201796 14.236046 
L 322.964442 13.52542 
L 323.727088 13.034611 
L 324.489734 12.764407 
L 325.25238 12.715244 
L 326.015025 12.887199 
L 326.777671 13.279996 
L 327.540317 13.893004 
L 328.302963 14.72524 
L 329.065609 15.775365 
L 330.590901 18.522192 
L 332.116192 22.115844 
L 333.641484 26.533243 
L 335.166776 31.746018 
L 336.692067 37.720691 
L 338.217359 44.418893 
L 340.505297 55.727507 
L 342.793234 68.402944 
L 345.081172 82.262167 
L 348.131755 102.234564 
L 351.944984 128.873303 
L 361.859381 199.417729 
L 364.909964 219.325024 
L 367.197901 233.121404 
L 369.485839 245.722975 
L 371.773777 256.947766 
L 373.299068 263.585147 
L 374.82436 269.495501 
L 376.349652 274.64087 
L 377.874943 278.98821 
L 379.400235 282.509601 
L 380.925527 285.182427 
L 381.688173 286.195048 
L 382.450819 286.989524 
L 383.213464 287.564577 
L 383.97611 287.919285 
L 384.738756 288.053077 
L 385.501402 287.965739 
L 386.264048 287.657411 
L 387.026694 287.128588 
L 387.78934 286.38012 
L 388.551985 285.413209 
L 389.314631 284.229408 
L 390.839923 281.219086 
L 392.365215 277.368488 
L 393.890506 272.702343 
L 395.415798 267.250618 
L 396.94109 261.048326 
L 398.466381 254.135298 
L 400.754319 242.531426 
L 403.042257 229.596862 
L 405.330194 215.518384 
L 408.380778 195.321056 
L 412.194007 168.51724 
L 421.345757 103.322405 
L 424.396341 83.272067 
L 426.684278 69.337255 
L 428.972216 56.572737 
L 431.260153 45.162837 
L 432.785445 38.391046 
L 434.310737 32.338478 
L 435.836028 27.044004 
L 436.598674 24.691874 
L 436.598674 24.691874 
" clip-path="url(#p08b671fb54)" style="fill: none; stroke: #0000ff; stroke-linecap: square"/>
   </g>
   <g id="line2d_44">
    <path d="M 56.038393 150.380507 
L 58.326331 150.380507 
L 62.902206 118.309489 
L 65.952789 98.369523 
L 68.240727 84.541639 
L 70.528664 71.903059 
L 72.816602 60.63629 
L 74.341894 53.968458 
L 75.867185 48.025909 
L 77.392477 42.846806 
L 78.917769 38.464411 
L 80.44306 34.906868 
L 81.968352 32.197025 
L 82.730998 31.165645 
L 83.493644 30.352285 
L 84.25629 29.758251 
L 85.018936 29.384496 
L 85.781581 29.231622 
L 86.544227 29.299873 
L 87.306873 29.58914 
L 88.069519 30.098959 
L 88.832165 30.82851 
L 89.594811 31.776622 
L 90.357457 32.941773 
L 91.882748 35.915355 
L 93.40804 39.730161 
L 94.933332 44.36169 
L 96.458623 49.780198 
L 97.983915 55.950886 
L 99.509207 62.834124 
L 101.797144 74.397131 
L 104.085082 87.295933 
L 106.373019 101.344265 
L 109.423603 121.51088 
L 113.236832 148.292597 
L 113.999478 150.380507 
L 177.299084 150.380507 
L 178.06173 149.103237 
L 182.637605 117.100825 
L 185.688188 97.250181 
L 187.976126 83.508281 
L 190.264063 70.970608 
L 192.552001 59.81821 
L 194.077293 53.233299 
L 195.602584 47.378391 
L 197.127876 42.291087 
L 198.653168 38.004061 
L 200.178459 34.544844 
L 201.703751 31.935651 
L 202.466397 30.955267 
L 203.229043 30.19324 
L 203.991689 29.650795 
L 204.754335 29.328801 
L 205.51698 29.227778 
L 206.279626 29.347886 
L 207.042272 29.688934 
L 207.804918 30.250372 
L 208.567564 31.0313 
L 209.33021 32.030463 
L 210.092856 33.246256 
L 211.618147 36.319577 
L 213.143439 40.231525 
L 214.668731 44.956977 
L 216.194022 50.465584 
L 217.719314 56.72197 
L 219.244606 63.685954 
L 221.532543 75.359669 
L 223.820481 88.355279 
L 226.108419 102.485124 
L 229.159002 122.734624 
L 232.972231 149.575639 
L 233.734877 150.380507 
L 297.034483 150.380507 
L 297.797129 147.820787 
L 302.373004 115.896561 
L 305.423587 96.136992 
L 307.711525 82.482291 
L 309.999462 70.046633 
L 312.2874 59.009592 
L 313.812692 52.508182 
L 315.337983 46.741433 
L 316.863275 41.746379 
L 318.388567 37.5551 
L 319.913859 34.194514 
L 321.43915 31.686202 
L 322.201796 30.7569 
L 322.964442 30.046274 
L 323.727088 29.555466 
L 324.489734 29.285262 
L 325.25238 29.236099 
L 326.015025 29.408053 
L 326.777671 29.800851 
L 327.540317 30.413859 
L 328.302963 31.246095 
L 329.065609 32.29622 
L 330.590901 35.043047 
L 332.116192 38.636699 
L 333.641484 43.054098 
L 335.166776 48.266872 
L 336.692067 54.241546 
L 338.217359 60.939748 
L 340.505297 72.248362 
L 342.793234 84.923799 
L 345.081172 98.783022 
L 348.131755 118.755419 
L 352.70763 150.380507 
L 416.769882 150.380507 
L 417.532528 146.540023 
L 422.108403 114.696804 
L 425.158986 95.030056 
L 427.446924 81.463761 
L 429.734862 69.131215 
L 432.022799 58.210506 
L 433.548091 51.793173 
L 435.073382 46.115092 
L 436.598674 41.212729 
L 436.598674 41.212729 
" clip-path="url(#p08b671fb54)" style="fill: none; stroke-dasharray: 6.4,1.6,1,1.6; stroke-dashoffset: 0; stroke: #ff0000"/>
   </g>
   <g id="line2d_45">
    <path d="M 56.038393 150.380507 
L 58.326331 133.866405 
L 71.29131 133.859652 
L 113.236832 133.859652 
L 113.999478 137.252572 
L 122.388582 196.990723 
L 125.439166 217.07267 
L 127.727103 231.03825 
L 130.015041 243.839103 
L 132.302979 255.290379 
L 133.82827 262.092264 
L 135.353562 268.176709 
L 136.878854 273.504639 
L 138.404145 278.041836 
L 139.929437 281.759162 
L 141.454729 284.632744 
L 142.217375 285.747148 
L 142.98002 286.644126 
L 143.742666 287.322236 
L 144.505312 287.78039 
L 145.267958 288.017852 
L 146.030604 288.03424 
L 146.79325 287.829528 
L 147.555896 287.404045 
L 148.318541 286.758474 
L 149.081187 285.893852 
L 149.843833 284.811568 
L 151.369125 282.001315 
L 152.894417 278.345761 
L 154.419708 273.868384 
L 155.945 268.597938 
L 157.470292 262.568273 
L 158.995583 255.818111 
L 161.283521 244.437965 
L 163.571459 231.699595 
L 165.859396 217.786948 
L 168.909979 197.759423 
L 172.723209 171.079556 
L 177.299084 138.066894 
L 178.06173 133.859652 
L 232.972231 133.859652 
L 233.734877 138.541351 
L 241.361336 192.994974 
L 244.411919 213.346674 
L 247.462502 232.083436 
L 249.75044 244.785209 
L 252.038378 256.123744 
L 253.563669 262.843674 
L 255.088961 268.841338 
L 256.614253 274.078219 
L 258.139544 278.520684 
L 259.664836 282.140203 
L 261.190128 284.913529 
L 261.952774 285.977089 
L 262.71542 286.822852 
L 263.478065 287.449462 
L 264.240711 287.855911 
L 265.003357 288.041546 
L 265.766003 288.00607 
L 266.528649 287.749538 
L 267.291295 287.272364 
L 268.05394 286.575314 
L 268.816586 285.659507 
L 269.579232 284.526414 
L 271.104524 281.615998 
L 272.629816 277.862756 
L 274.155107 273.290793 
L 275.680399 267.929471 
L 277.205691 261.813222 
L 278.730982 254.981326 
L 281.01892 243.488809 
L 283.306858 230.651774 
L 285.594795 216.655594 
L 288.645379 196.542279 
L 292.458608 169.799256 
L 297.034483 136.778529 
L 297.797129 133.859652 
L 351.944984 133.859652 
L 352.70763 134.339357 
L 361.096735 194.223632 
L 364.147318 214.494709 
L 367.197901 233.121404 
L 369.485839 245.722975 
L 371.773777 256.947766 
L 373.299068 263.585147 
L 374.82436 269.495501 
L 376.349652 274.64087 
L 377.874943 278.98821 
L 379.400235 282.509601 
L 380.925527 285.182427 
L 381.688173 286.195048 
L 382.450819 286.989524 
L 383.213464 287.564577 
L 383.97611 287.919285 
L 384.738756 288.053077 
L 385.501402 287.965739 
L 386.264048 287.657411 
L 387.026694 287.128588 
L 387.78934 286.38012 
L 388.551985 285.413209 
L 389.314631 284.229408 
L 390.839923 281.219086 
L 392.365215 277.368488 
L 393.890506 272.702343 
L 395.415798 267.250618 
L 396.94109 261.048326 
L 398.466381 254.135298 
L 400.754319 242.531426 
L 403.042257 229.596862 
L 405.330194 215.518384 
L 408.380778 195.321056 
L 412.194007 168.51724 
L 416.769882 135.491365 
L 417.532528 133.859652 
L 436.598674 133.859652 
L 436.598674 133.859652 
" clip-path="url(#p08b671fb54)" style="fill: none; stroke-dasharray: 3.7,1.6; stroke-dashoffset: 0; stroke: #000000"/>
   </g>
   <g id="patch_3">
    <path d="M 48.427188 293.56 
L 48.427188 7.2 
" style="fill: none; stroke: #000000; stroke-width: 0.8; stroke-linejoin: miter; stroke-linecap: square"/>
   </g>
   <g id="patch_4">
    <path d="M 444.20988 293.56 
L 444.20988 7.2 
" style="fill: none; stroke: #000000; stroke-width: 0.8; stroke-linejoin: miter; stroke-linecap: square"/>
   </g>
   <g id="patch_5">
    <path d="M 48.427188 293.56 
L 444.20988 293.56 
" style="fill: none; stroke: #000000; stroke-width: 0.8; stroke-linejoin: miter; stroke-linecap: square"/>
   </g>
   <g id="patch_6">
    <path d="M 48.427188 7.2 
L 444.20988 7.2 
" style="fill: none; stroke: #000000; stroke-width: 0.8; stroke-linejoin: miter; stroke-linecap: square"/>
   </g>
   <g id="legend_1">
    <g id="patch_7">
     <path d="M 55.427188 290.56 
L 89.327188 290.56 
L 89.327188 249.125625 
L 55.427188 249.125625 
z
" style="fill: #4c4c4c; opacity: 0.5; stroke: #4c4c4c; stroke-linejoin: miter"/>
    </g>
    <g id="patch_8">
     <path d="M 53.427188 288.56 
L 87.327188 288.56 
L 87.327188 247.125625 
L 53.427188 247.125625 
z
" style="fill: #ffffff; stroke: #cccccc; stroke-linejoin: miter"/>
    </g>
    <g id="line2d_46">
     <path d="M 62.427188 257.224062 
L 56.927188 257.224062 
" style="fill: none; stroke: #0000ff; stroke-linecap: square"/>
    </g>
    <g id="text_14">
     <!-- $V_{in}$ -->
     <g transform="translate(64.927188 260.724062) scale(0.1 -0.1)">
      <defs>
       <path id="Cmmi10-56" d="M 1409 -72 
L 897 4006 
Q 850 4147 416 4147 
Q 353 4147 353 4231 
Q 366 4300 384 4336 
Q 403 4372 459 4372 
L 2022 4372 
Q 2056 4372 2072 4347 
Q 2088 4322 2088 4288 
Q 2063 4147 2003 4147 
Q 1503 4147 1472 3975 
L 1894 628 
L 3866 3775 
Q 3922 3881 3922 3944 
Q 3922 4056 3820 4101 
Q 3719 4147 3584 4147 
Q 3519 4147 3519 4231 
Q 3531 4281 3540 4309 
Q 3550 4338 3569 4355 
Q 3588 4372 3628 4372 
L 4863 4372 
Q 4922 4372 4922 4288 
Q 4897 4147 4838 4147 
Q 4356 4147 4084 3725 
Q 4072 3713 4063 3713 
L 1703 -72 
Q 1656 -141 1581 -141 
L 1491 -141 
Q 1419 -141 1409 -72 
z
" transform="scale(0.015625)"/>
       <path id="Cmmi10-69" d="M 500 459 
Q 500 578 550 709 
L 1069 2088 
Q 1153 2322 1153 2472 
Q 1153 2663 1013 2663 
Q 759 2663 595 2402 
Q 431 2141 353 1819 
Q 341 1778 300 1778 
L 225 1778 
Q 172 1778 172 1838 
L 172 1856 
Q 275 2238 487 2533 
Q 700 2828 1025 2828 
Q 1253 2828 1411 2678 
Q 1569 2528 1569 2297 
Q 1569 2178 1516 2047 
L 997 672 
Q 909 459 909 288 
Q 909 97 1056 97 
Q 1306 97 1473 364 
Q 1641 631 1709 941 
Q 1722 978 1759 978 
L 1838 978 
Q 1863 978 1878 961 
Q 1894 944 1894 922 
Q 1894 916 1888 903 
Q 1800 541 1583 234 
Q 1366 -72 1044 -72 
Q 819 -72 659 83 
Q 500 238 500 459 
z
M 1222 3878 
Q 1222 4013 1334 4122 
Q 1447 4231 1581 4231 
Q 1691 4231 1761 4164 
Q 1831 4097 1831 3994 
Q 1831 3850 1717 3742 
Q 1603 3634 1466 3634 
Q 1363 3634 1292 3704 
Q 1222 3775 1222 3878 
z
" transform="scale(0.015625)"/>
       <path id="Cmmi10-6e" d="M 494 109 
Q 494 147 500 166 
L 978 2075 
Q 1025 2253 1025 2388 
Q 1025 2663 838 2663 
Q 638 2663 541 2423 
Q 444 2184 353 1819 
Q 353 1800 334 1789 
Q 316 1778 300 1778 
L 225 1778 
Q 203 1778 187 1801 
Q 172 1825 172 1844 
Q 241 2122 305 2315 
Q 369 2509 505 2668 
Q 641 2828 844 2828 
Q 1084 2828 1268 2676 
Q 1453 2525 1453 2291 
Q 1644 2541 1900 2684 
Q 2156 2828 2444 2828 
Q 2672 2828 2837 2750 
Q 3003 2672 3095 2514 
Q 3188 2356 3188 2138 
Q 3188 1875 3070 1503 
Q 2953 1131 2778 672 
Q 2688 463 2688 288 
Q 2688 97 2834 97 
Q 3084 97 3251 365 
Q 3419 634 3488 941 
Q 3500 978 3541 978 
L 3616 978 
Q 3641 978 3658 962 
Q 3675 947 3675 922 
Q 3675 916 3669 903 
Q 3581 541 3364 234 
Q 3147 -72 2822 -72 
Q 2597 -72 2437 83 
Q 2278 238 2278 459 
Q 2278 578 2328 709 
Q 2409 919 2514 1209 
Q 2619 1500 2686 1765 
Q 2753 2031 2753 2234 
Q 2753 2413 2679 2538 
Q 2606 2663 2431 2663 
Q 2197 2663 2000 2559 
Q 1803 2456 1656 2286 
Q 1509 2116 1388 1881 
L 953 141 
Q 931 53 854 -9 
Q 778 -72 684 -72 
Q 606 -72 550 -22 
Q 494 28 494 109 
z
" transform="scale(0.015625)"/>
      </defs>
      <use xlink:href="#Cmmi10-56" transform="translate(0 0.6875)"/>
      <use xlink:href="#Cmmi10-69" transform="translate(58.300781 -16.31875) scale(0.7)"/>
      <use xlink:href="#Cmmi10-6e" transform="translate(82.397461 -16.31875) scale(0.7)"/>
     </g>
    </g>
    <g id="line2d_47">
     <path d="M 62.427188 267.102187 
L 56.927188 267.102187 
" style="fill: none; stroke-dasharray: 6.4,1.6,1,1.6; stroke-dashoffset: 0; stroke: #ff0000"/>
    </g>
    <g id="text_15">
     <!-- $V_{out}$ -->
     <g transform="translate(64.927188 270.602187) scale(0.1 -0.1)">
      <defs>
       <path id="Cmmi10-6f" d="M 1288 -72 
Q 984 -72 748 72 
Q 513 216 384 459 
Q 256 703 256 1013 
Q 256 1447 498 1872 
Q 741 2297 1142 2562 
Q 1544 2828 1984 2828 
Q 2222 2828 2408 2747 
Q 2594 2666 2731 2519 
Q 2869 2372 2942 2175 
Q 3016 1978 3016 1747 
Q 3016 1413 2875 1089 
Q 2734 766 2489 502 
Q 2244 238 1928 83 
Q 1613 -72 1288 -72 
z
M 1300 97 
Q 1584 97 1820 290 
Q 2056 484 2207 779 
Q 2359 1075 2440 1403 
Q 2522 1731 2522 1997 
Q 2522 2275 2383 2469 
Q 2244 2663 1972 2663 
Q 1597 2663 1315 2342 
Q 1034 2022 892 1576 
Q 750 1131 750 763 
Q 750 484 892 290 
Q 1034 97 1300 97 
z
" transform="scale(0.015625)"/>
       <path id="Cmmi10-75" d="M 678 697 
Q 678 906 734 1126 
Q 791 1347 892 1617 
Q 994 1888 1069 2088 
Q 1153 2322 1153 2472 
Q 1153 2663 1013 2663 
Q 759 2663 595 2402 
Q 431 2141 353 1819 
Q 341 1778 300 1778 
L 225 1778 
Q 172 1778 172 1838 
L 172 1856 
Q 275 2238 487 2533 
Q 700 2828 1025 2828 
Q 1253 2828 1411 2678 
Q 1569 2528 1569 2297 
Q 1569 2178 1516 2047 
Q 1488 1969 1388 1706 
Q 1288 1444 1234 1272 
Q 1181 1100 1147 934 
Q 1113 769 1113 603 
Q 1113 391 1203 244 
Q 1294 97 1497 97 
Q 1906 97 2216 603 
Q 2222 628 2226 651 
Q 2231 675 2234 697 
L 2694 2553 
Q 2716 2638 2794 2698 
Q 2872 2759 2963 2759 
Q 3041 2759 3098 2709 
Q 3156 2659 3156 2578 
Q 3156 2541 3150 2528 
L 2688 684 
Q 2644 494 2644 372 
Q 2644 97 2828 97 
Q 3034 97 3136 351 
Q 3238 606 3309 941 
Q 3322 978 3359 978 
L 3438 978 
Q 3463 978 3478 956 
Q 3494 934 3494 916 
Q 3425 641 3361 444 
Q 3297 247 3159 87 
Q 3022 -72 2816 -72 
Q 2613 -72 2452 39 
Q 2291 150 2234 341 
Q 2088 153 1894 40 
Q 1700 -72 1484 -72 
Q 1116 -72 897 129 
Q 678 331 678 697 
z
" transform="scale(0.015625)"/>
       <path id="Cmmi10-74" d="M 397 519 
Q 397 613 416 697 
L 878 2534 
L 206 2534 
Q 141 2534 141 2619 
Q 166 2759 225 2759 
L 934 2759 
L 1191 3803 
Q 1216 3888 1291 3947 
Q 1366 4006 1459 4006 
Q 1541 4006 1595 3957 
Q 1650 3909 1650 3828 
Q 1650 3809 1648 3798 
Q 1647 3788 1644 3775 
L 1388 2759 
L 2047 2759 
Q 2113 2759 2113 2675 
Q 2109 2659 2100 2621 
Q 2091 2584 2075 2559 
Q 2059 2534 2028 2534 
L 1331 2534 
L 872 684 
Q 825 503 825 372 
Q 825 97 1013 97 
Q 1294 97 1511 361 
Q 1728 625 1844 941 
Q 1869 978 1894 978 
L 1972 978 
Q 1997 978 2012 961 
Q 2028 944 2028 922 
Q 2028 909 2022 903 
Q 1881 516 1612 222 
Q 1344 -72 997 -72 
Q 744 -72 570 93 
Q 397 259 397 519 
z
" transform="scale(0.015625)"/>
      </defs>
      <use xlink:href="#Cmmi10-56" transform="translate(0 0.6875)"/>
      <use xlink:href="#Cmmi10-6f" transform="translate(58.300781 -16.31875) scale(0.7)"/>
      <use xlink:href="#Cmmi10-75" transform="translate(92.172852 -16.31875) scale(0.7)"/>
      <use xlink:href="#Cmmi10-74" transform="translate(132.197266 -16.31875) scale(0.7)"/>
     </g>
    </g>
    <g id="line2d_48">
     <path d="M 62.427188 276.980312 
L 56.927188 276.980312 
" style="fill: none; stroke-dasharray: 3.7,1.6; stroke-dashoffset: 0; stroke: #000000"/>
    </g>
    <g id="text_16">
     <!-- $V_D$ -->
     <g transform="translate(64.927188 280.480312) scale(0.1 -0.1)">
      <defs>
       <path id="Cmmi10-44" d="M 313 0 
Q 250 0 250 84 
Q 253 100 262 139 
Q 272 178 289 201 
Q 306 225 331 225 
Q 722 225 878 269 
Q 959 297 997 441 
L 1875 3956 
Q 1888 4019 1888 4044 
Q 1888 4113 1813 4122 
Q 1691 4147 1350 4147 
Q 1288 4147 1288 4231 
Q 1291 4247 1300 4286 
Q 1309 4325 1326 4348 
Q 1344 4372 1369 4372 
L 3669 4372 
Q 4116 4372 4450 4155 
Q 4784 3938 4962 3570 
Q 5141 3203 5141 2759 
Q 5141 2269 4937 1778 
Q 4734 1288 4368 881 
Q 4003 475 3534 237 
Q 3066 0 2572 0 
L 313 0 
z
M 1509 275 
Q 1509 225 1728 225 
L 2472 225 
Q 2828 225 3159 372 
Q 3491 519 3750 775 
Q 3991 1016 4175 1406 
Q 4359 1797 4461 2222 
Q 4563 2647 4563 3003 
Q 4563 3263 4486 3472 
Q 4409 3681 4270 3831 
Q 4131 3981 3922 4064 
Q 3713 4147 3450 4147 
L 2747 4147 
Q 2572 4147 2515 4117 
Q 2459 4088 2413 3928 
L 1538 416 
Q 1509 338 1509 275 
z
" transform="scale(0.015625)"/>
      </defs>
      <use xlink:href="#Cmmi10-56" transform="translate(0 0.6875)"/>
      <use xlink:href="#Cmmi10-44" transform="translate(58.300781 -16.31875) scale(0.7)"/>
     </g>
    </g>
   </g>
  </g>
 </g>
 <defs>
  <clipPath id="p08b671fb54">
   <rect x="48.427188" y="7.2" width="395.782692" height="286.36"/>
  </clipPath>
 </defs>
</svg>
