<svg xmlns="http://www.w3.org/2000/svg" xmlns:xlink="http://www.w3.org/1999/xlink" xmlns:inkscape="http://www.inkscape.org/namespaces/inkscape" version="1.1" width="208" height="126" viewBox="0 0 208 126">
<defs>
<path id="font_1_5" d="M.6279907 .5686035C.6769867 .64660647 .71899417 .6496124 .7559967 .6516113 .7679901 .65260317 .7689972 .6696167 .7689972 .6706085 .7689972 .6786041 .7639923 .6826172 .7559967 .6826172 .7299957 .6826172 .70098879 .6796112 .673996 .6796112 .6409912 .6796112 .6069946 .6826172 .57499697 .6826172 .56900027 .6826172 .55599978 .6826172 .55599978 .66360476 .55599978 .65260317 .5649872 .6516113 .57199099 .6516113 .598999 .6496124 .6179962 .63960269 .6179962 .61860659 .6179962 .6036072 .6029968 .581604 .6029968 .5805969L.29599 .092544559 .22799683 .62161257C.22799683 .63861086 .25099183 .6516113 .29699708 .6516113 .31098939 .6516113 .32199098 .6516113 .32199098 .6716156 .32199098 .680603 .31399537 .6826172 .30799867 .6826172 .2679901 .6826172 .22499085 .6796112 .18399048 .6796112 .1659851 .6796112 .14698792 .680603 .1289978 .680603 .11099243 .680603 .09199524 .6826172 .07499695 .6826172 .067993167 .6826172 .055999757 .6826172 .055999757 .66360476 .055999757 .6516113 .06498718 .6516113 .08099365 .6516113 .13699341 .6516113 .13798523 .64260867 .14099121 .6175995L.21998596 .0005340576C.22299195-.019470215 .22698975-.022460938 .23999024-.022460938 .2559967-.022460938 .2599945-.017471314 .2679901-.004470825L.6279907 .5686035Z"/>
<path id="font_2_66" d="M.27398683 0V.035995485C.21598816 .035995485 .20599365 .035995485 .20599365 .07803345V.44140626L.05899048 .43052674V.39453126C.12199402 .39453126 .1309967 .3885193 .1309967 .33952333V.07952881C.1309967 .035995485 .12098694 .035995485 .055999757 .035995485V0C.055999757 0 .12799073 .0039978029 .16799927 .0039978029 .20298767 .0039978029 .23899842 .0029907227 .27398683 0M.21899414 .60214236C.21899414 .6341553 .19400025 .66015627 .1619873 .66015627 .12799073 .66015627 .10499573 .6321411 .10499573 .6031494 .10499573 .57115176 .12998963 .54515078 .1619873 .54515078 .19599915 .54515078 .21899414 .57315066 .21899414 .60214236Z"/>
<path id="font_2_77" d="M.58999636 0V.035995485C.5249939 .035995485 .5149994 .035995485 .5149994 .07904053V.3032837C.5149994 .3903656 .47200013 .44140626 .36499024 .44140626 .2829895 .44140626 .22999573 .39637757 .20199585 .34432984H.20098877V.44140626L.053985597 .43052674V.39453126C.12098694 .39453126 .1289978 .3875122 .1289978 .33843995V.079055789C.1289978 .035995485 .11898804 .035995485 .053985597 .035995485V0C.053985597 0 .12599182 .0039978029 .16799927 .0039978029 .20498657 .0039978029 .27398683 .0009918213 .2829895 0V.035995485C.21798706 .035995485 .20799256 .035995485 .20799256 .079055789V.25932313C.20799256 .36434938 .29100038 .4133911 .35699464 .4133911 .4269867 .4133911 .43598939 .3583374 .43598939 .3072815V.07904053C.43598939 .035995485 .42599488 .035995485 .36099244 .035995485V0C.36099244 0 .43299867 .0039978029 .47499085 .0039978029 .5119934 .0039978029 .58099368 .0009918213 .58999636 0Z"/>
<path id="font_1_2" d="M.37399293 .6056366C.3829956 .6416168 .38598634 .6516113 .46499635 .6516113 .4889984 .6516113 .49699403 .6516113 .49699403 .6706085 .49699403 .6826172 .48599244 .6826172 .48199464 .6826172 .45298768 .6826172 .3789978 .6796112 .34999085 .6796112 .31999208 .6796112 .24699402 .6826172 .21699524 .6826172 .20999146 .6826172 .19699097 .6826172 .19699097 .6626129 .19699097 .6516113 .20599365 .6516113 .22499085 .6516113 .2669983 .6516113 .2939911 .6516113 .2939911 .63261416 .2939911 .6276245 .2939911 .6256256 .2919922 .6166229L.15699768 .07795715C.147995 .040985109 .14498902 .0309906 .06599426 .0309906 .042999269 .0309906 .033996583 .0309906 .033996583 .010986328 .033996583 0 .04598999 0 .04899597 0 .07798767 0 .15098572 .0029907227 .17999268 .0029907227 .20999146 .0029907227 .28399659 0 .31399537 0 .32199098 0 .33399964 0 .33399964 .018997193 .33399964 .0309906 .32598878 .0309906 .3039856 .0309906 .28599549 .0309906 .2809906 .0309906 .26098634 .032989503 .23999024 .034988405 .23599243 .038986207 .23599243 .049987794 .23599243 .05796814 .23799134 .065963748 .23999024 .07296753L.37399293 .6056366Z"/>
<path id="font_3_1" d="M.33499146 .63612368C.33499146 .6630554 .33299256 .6640625 .30499269 .6640625 .24099732 .6014404 .1499939 .6004486 .10899353 .6004486V.5644531C.1329956 .5644531 .19898987 .5644531 .2539978 .592453V.08203125C.2539978 .04899597 .2539978 .035995485 .1539917 .035995485H.115997318V0C.13398743 .0009918213 .25698854 .0039978029 .2939911 .0039978029 .32499696 .0039978029 .45098878 .0009918213 .47299195 0V.035995485H.43499757C.33499146 .035995485 .33499146 .04899597 .33499146 .08203125V.63612368Z"/>
<path id="font_1_1" d="M.7599945 .69506838C.7599945 .69807437 .7579956 .7050781 .7489929 .7050781 .74598696 .7050781 .7449951 .70407107 .73399356 .69306948L.6639862 .61602786C.6549988 .6300354 .60899356 .7050781 .49798585 .7050781 .2749939 .7050781 .049987794 .48391725 .049987794 .25172425 .049987794 .08659363 .16799927-.022460938 .32099916-.022460938 .4079895-.022460938 .48399354 .017532349 .5369873 .063583377 .6299896 .14564514 .6469879 .2367096 .6469879 .23971558 .6469879 .24972534 .6369934 .24972534 .6349945 .24972534 .6289978 .24972534 .6239929 .24772644 .621994 .23971558 .61299136 .21069336 .58999636 .13963318 .5209961 .081588748 .45199586 .025543213 .3889923 .008529663 .33699037 .008529663 .24699402 .008529663 .14099121 .060577394 .14099121 .21670532 .14099121 .27374269 .1619873 .43588258 .2619934 .55296328 .32299806 .62402346 .4169922 .67407229 .5059967 .67407229 .60798647 .67407229 .6669922 .5970001 .6669922 .48091126 .6669922 .44088746 .6639862 .43988038 .6639862 .4298706 .6639862 .41986085 .6749878 .41986085 .67900088 .41986085 .69200137 .41986085 .69200137 .42185975 .69699099 .43988038L.7599945 .69506838Z"/>
<path id="font_3_2" d="M.5049896 .18203736H.47099305C.46798707 .16001892 .45799256 .100997928 .44499208 .09098816 .43699647 .084991458 .3600006 .084991458 .34599305 .084991458H.1619873C.2669983 .17803955 .3019867 .20603943 .3619995 .25306703 .43598939 .312088 .5049896 .374115 .5049896 .46914674 .5049896 .5900879 .39898683 .6640625 .2709961 .6640625 .14698792 .6640625 .06298828 .57710269 .06298828 .4851532 .06298828 .43414308 .10598755 .42915345 .115997318 .42915345 .13999939 .42915345 .16899109 .44615174 .16899109 .48214723 .16899109 .5001526 .1619873 .53515627 .10998535 .53515627 .14099121 .6060791 .20899964 .62805178 .2559967 .62805178 .35598756 .62805178 .4079895 .5501404 .4079895 .46914674 .4079895 .38212586 .34599305 .3130951 .31399537 .27708436L.07299805 .038986207C.06298828 .02999878 .06298828 .027999878 .06298828 0H.47499085L.5049896 .18203736Z"/>
<path id="font_1_4" d="M.375 .6136017C.3809967 .63760378 .38398744 .6476135 .40299989 .65060427 .4119873 .6516113 .44400025 .6516113 .46398927 .6516113 .5349884 .6516113 .6459961 .6516113 .6459961 .5525818 .6459961 .51856997 .6299896 .44955445 .59098818 .41055299 .5649872 .38453675 .5119934 .35253907 .42199708 .35253907H.30999757L.375 .6136017M.5189972 .33953858C.6199951 .3615265 .7389984 .43154908 .7389984 .5325775 .7389984 .61860659 .6489868 .6826172 .5179901 .6826172H.23298645C.21299744 .6826172 .20399475 .6826172 .20399475 .6626129 .20399475 .6516113 .21299744 .6516113 .23199463 .6516113 .23399353 .6516113 .25299073 .6516113 .269989 .6496124 .28799439 .6476135 .29699708 .64660647 .29699708 .63360598 .29699708 .62960818 .29599 .6266022 .29299928 .6145935L.15899658 .07752991C.14898682 .038528444 .14698792 .030532837 .067993167 .030532837 .049987794 .030532837 .040985109 .030532837 .040985109 .010528564 .040985109-.00047302247 .052993776-.00047302247 .054992677-.00047302247 .08299255-.00047302247 .15299988 .002532959 .18099976 .002532959 .20899964 .002532959 .27999879-.00047302247 .30799867-.00047302247 .31599427-.00047302247 .32798768-.00047302247 .32798768 .01953125 .32798768 .030532837 .31900025 .030532837 .2999878 .030532837 .2630005 .030532837 .23498535 .030532837 .23498535 .048538209 .23498535 .054534913 .23699951 .059524537 .23799134 .0655365L.3039856 .3305359H.4229889C.5139923 .3305359 .5319977 .27453614 .5319977 .23953247 .5319977 .22453308 .5239868 .19352722 .5179901 .17053223 .5109863 .14253235 .5019989 .105529788 .5019989 .08552551 .5019989-.022460938 .621994-.022460938 .6349945-.022460938 .7200012-.022460938 .7549896 .07853699 .7549896 .0925293 .7549896 .104537967 .74398806 .104537967 .7429962 .104537967 .73399356 .104537967 .7319946 .09753418 .7299957 .090530399 .7049866 .016525269 .6619873-.00047302247 .6389923-.00047302247 .60598757-.00047302247 .598999 .021530152 .598999 .060531618 .598999 .091537479 .6049957 .14253235 .60899356 .17453003 .61099246 .1885376 .61299136 .20753479 .61299136 .2215271 .61299136 .2985382 .54599 .3295288 .5189972 .33953858Z"/>
<path id="font_1_3" d="M.37399293 .6046295C.3829956 .64060977 .38598634 .6516113 .47999574 .6516113 .5099945 .6516113 .5179901 .6516113 .5179901 .6706085 .5179901 .6826172 .5069885 .6826172 .5019989 .6826172 .46899415 .6826172 .3869934 .6796112 .35398866 .6796112 .32398988 .6796112 .25099183 .6826172 .22099304 .6826172 .21398926 .6826172 .20199585 .6826172 .20199585 .6626129 .20199585 .6516113 .21099854 .6516113 .22999573 .6516113 .23199463 .6516113 .25099183 .6516113 .2679901 .6496124 .28599549 .6476135 .29499818 .64660647 .29499818 .6336212 .29499818 .6296234 .2939911 .62661746 .29100038 .614624L.15699768 .07795715C.14698792 .038986207 .14498902 .0309906 .06599426 .0309906 .04899597 .0309906 .038986207 .0309906 .038986207 .010986328 .038986207 0 .04798889 0 .06599426 0H.5289917C.5529938 0 .55400088 0 .55999758 .016998291L.6389923 .23286438C.6429901 .24386597 .6429901 .24586487 .6429901 .24685669 .6429901 .2508545 .6399994 .25785829 .6309967 .25785829 .621994 .25785829 .62098696 .2528534 .6139984 .23686219 .5799866 .14492798 .5359955 .0309906 .36299134 .0309906H.2689972C.25498963 .0309906 .25299073 .0309906 .24699402 .03199768 .23699951 .032989503 .23399353 .033996583 .23399353 .041992189 .23399353 .04498291 .23399353 .04698181 .23899842 .064971927L.37399293 .6046295Z"/>
<path id="font_3_3" d="M.272995 .33428956C.35099793 .33428956 .40699769 .2803192 .40699769 .1733551 .40699769 .04940796 .33499146 .012466431 .2769928 .012466431 .23699951 .012466431 .14898682 .0234375 .10699463 .082351688 .1539917 .084350589 .16499329 .11735535 .16499329 .13835144 .16499329 .17034912 .14099121 .19335938 .10998535 .19335938 .08198547 .19335938 .053985597 .17634583 .053985597 .13534546 .053985597 .041412355 .1579895-.01953125 .2789917-.01953125 .41799928-.01953125 .5139923 .07336426 .5139923 .1733551 .5139923 .2513275 .44999696 .32929994 .33999635 .35229493 .44499208 .39024354 .48298646 .4650879 .48298646 .5260773 .48298646 .60505679 .3919983 .6640625 .2809906 .6640625 .16999817 .6640625 .084991458 .61006167 .084991458 .5300751 .084991458 .49606324 .10699463 .47706605 .13699341 .47706605 .16799927 .47706605 .18798828 .5000763 .18798828 .5280762 .18798828 .5570679 .16799927 .57806399 .13699341 .5800781 .17199707 .62405398 .24099732 .63505557 .27799989 .63505557 .32299806 .63505557 .38598634 .6130676 .38598634 .5260773 .38598634 .48406983 .37199403 .43814088 .34599305 .4072113 .31298829 .36927796 .2849884 .3672943 .23498535 .36428834 .20999146 .3623047 .20799256 .3623047 .20298767 .3612976 .20098877 .3612976 .19299317 .3592987 .19299317 .34829713 .19299317 .33428956 .20199585 .33428956 .21899414 .33428956H.272995Z"/>
<path id="font_2_81" d="M.5289917 .21325684C.5289917 .3382721 .42199708 .44628907 .28399659 .44628907 .1459961 .44628907 .038986207 .3382721 .038986207 .21325684 .038986207 .0892334 .14898682-.009765625 .28399659-.009765625 .4189911-.009765625 .5289917 .0892334 .5289917 .21325684M.43798829 .22225952C.43798829 .17424011 .43499757 .12124634 .4059906 .08023071 .3789978 .042236329 .33299256 .022232056 .28399659 .022232056 .24699402 .022232056 .19299317 .034225465 .1599884 .083236698 .1329956 .12423706 .12998963 .17625427 .12998963 .22225952 .12998963 .2652588 .1309967 .32426454 .1659851 .36727906 .19099427 .39627076 .23298645 .41827394 .28399659 .41827394 .34298707 .41827394 .3849945 .39027406 .40699769 .3592682 .43499757 .32026673 .43798829 .27026368 .43798829 .22225952Z"/>
<path id="font_2_109" d="M.58999636 0V.035995485C.522995 .035995485 .5149994 .042999269 .5149994 .092056278V.44140626L.36099244 .43052674V.39453126C.42799378 .39439393 .43598939 .3874359 .43598939 .33872987V.16749573C.43598939 .079330448 .3789978 .018234253 .30299378 .018234253 .21199036 .018234253 .20799256 .061309816 .20799256 .11239624V.44140626L.053985597 .43052674V.39453126C.1289978 .39453126 .1289978 .39154054 .1289978 .30273438V.15246582C.1289978 .083343509 .1289978-.009765625 .29599-.009765625 .31799317-.009765625 .3909912-.009765625 .43899537 .07432556H.43998719V-.009765625L.58999636 0Z"/>
<path id="font_2_105" d="M.375 .12606812V.1809845H.34098817V.12705994C.34098817 .059173585 .30899049 .022232056 .269989 .022232056 .20098877 .022232056 .20098877 .10609436 .20098877 .124069217V.39465333H.35699464V.43066407H.20098877V.6142578H.16699219C.1659851 .5244446 .125 .42565919 .0289917 .4226532V.39465333H.12199402V.1250763C.12199402 .01322937 .20599365-.009765625 .2619934-.009765625 .32899476-.010009766 .375 .04699707 .375 .12599182V.12606812Z"/>
</defs>
<path transform="matrix(1.00003,0,0,-1.00005,28.177376,123.11355)" stroke-width=".3985" stroke-linecap="butt" stroke-miterlimit="10" stroke-linejoin="miter" fill="none" stroke="#000000" d="M0 0V30.61449M0 54.42592V85.04042L7.08669 85.0404M7.08669 85.0404 14.17339 85.04042 14.17337 92.1271M14.17337 92.1271 14.17339 99.21382H52.72511M60.66208 99.21382H99.21382V92.1271M99.21382 92.1271V85.04042L106.3005 85.0404M106.3005 85.0404 113.38722 85.04042 113.3872 58.3944M113.3872 26.64601 113.38722 0H56.6936M56.6936 0H0"/>
<path transform="matrix(1.00003,0,0,-1.00005,28.177376,123.11355)" stroke-width=".797" stroke-linecap="butt" stroke-miterlimit="10" stroke-linejoin="miter" fill="none" stroke="#000000" d="M-11.90572 42.5202C-11.90572 35.94478-6.57541 30.61449 0 30.61449 6.57541 30.61449 11.90572 35.94478 11.90572 42.5202 11.90572 49.09561 6.57541 54.42592 0 54.42592-6.57541 54.42592-11.90572 49.09561-11.90572 42.5202ZM0 42.5202"/>
<path transform="matrix(1.00003,0,0,-1.00005,28.177376,123.11355)" stroke-width=".797" stroke-linecap="butt" stroke-miterlimit="10" stroke-linejoin="miter" fill="none" stroke="#000000" d="M5.95285 42.5202C4.98253 40.99629 4.0539 39.54378 2.97643 39.54378 1.89896 39.54378 .97032 40.99628 0 42.5202-.9703 44.04411-1.89894 45.49663-2.97643 45.49663-4.05388 45.49663-4.98251 44.04413-5.95285 42.5202"/>
<use data-text="V" xlink:href="#font_1_5" transform="matrix(9.962899,0,0,-9.963098,.5075455,82.738529)"/>
<use data-text="i" xlink:href="#font_2_66" transform="matrix(6.9740097,0,0,-6.9741489,6.318718,84.232608)"/>
<use data-text="n" xlink:href="#font_2_77" transform="matrix(6.9740097,0,0,-6.9741489,8.57132,84.232608)"/>
<path transform="matrix(1.00003,0,0,-1.00005,28.177376,123.11355)" d="M0 67.99693H1.98425L0 72.21349-1.98425 67.99693Z"/>
<path transform="matrix(1.00003,0,0,-1.00005,28.177376,123.11355)" stroke-width=".3985" stroke-linecap="butt" stroke-miterlimit="10" stroke-linejoin="miter" fill="none" stroke="#000000" d="M0 67.99693H1.98425L0 72.21349-1.98425 67.99693Z"/>
<use data-text="I" xlink:href="#font_1_2" transform="matrix(9.962899,0,0,-9.963098,15.808006,56.034204)"/>
<use data-text="1" xlink:href="#font_3_1" transform="matrix(6.9740097,0,0,-6.9741489,20.187134,57.528284)"/>
<path transform="matrix(1.00003,0,0,-1.00005,28.177376,123.11355)" d="M15.76054 85.04042C15.76054 85.91698 15.04996 86.62756 14.17339 86.62756 13.29683 86.62756 12.58624 85.91698 12.58624 85.04042 12.58624 84.16386 13.29683 83.45328 14.17339 83.45328 15.04996 83.45328 15.76054 84.16386 15.76054 85.04042ZM14.17339 85.04042"/>
<path transform="matrix(1.00003,0,0,-1.00005,28.177376,123.11355)" stroke-width=".3985" stroke-linecap="butt" stroke-miterlimit="10" stroke-linejoin="miter" fill="none" stroke="#000000" d="M15.76054 85.04042C15.76054 85.91698 15.04996 86.62756 14.17339 86.62756 13.29683 86.62756 12.58624 85.91698 12.58624 85.04042 12.58624 84.16386 13.29683 83.45328 14.17339 83.45328 15.04996 83.45328 15.76054 84.16386 15.76054 85.04042ZM14.17339 85.04042"/>
<path transform="matrix(1.00003,0,0,-1.00005,28.177376,123.11355)" stroke-width=".797" stroke-linecap="butt" stroke-miterlimit="10" stroke-linejoin="miter" fill="none" stroke="#000000" d="M52.72511 111.11954V87.3081M60.66208 111.11954V87.3081"/>
<use data-text="C" xlink:href="#font_1_1" transform="matrix(9.962899,0,0,-9.963098,80.95596,7.576782)"/>
<path transform="matrix(1.00003,0,0,-1.00005,28.177376,123.11355)" d="M31.71303 99.21382V97.22957L35.92957 99.21382 31.71303 101.19807Z"/>
<path transform="matrix(1.00003,0,0,-1.00005,28.177376,123.11355)" stroke-width=".3985" stroke-linecap="butt" stroke-miterlimit="10" stroke-linejoin="miter" fill="none" stroke="#000000" d="M31.71303 99.21382V97.22957L35.92957 99.21382 31.71303 101.19807Z"/>
<use data-text="I" xlink:href="#font_1_2" transform="matrix(9.962899,0,0,-9.963098,57.203248,34.223108)"/>
<use data-text="2" xlink:href="#font_3_2" transform="matrix(6.9740097,0,0,-6.9741489,61.582376,35.717187)"/>
<path transform="matrix(1.00003,0,0,-1.00005,28.177376,123.11355)" d="M100.80096 85.04042C100.80096 85.91698 100.09038 86.62756 99.21382 86.62756 98.33727 86.62756 97.62668 85.91698 97.62668 85.04042 97.62668 84.16386 98.33727 83.45328 99.21382 83.45328 100.09038 83.45328 100.80096 84.16386 100.80096 85.04042ZM99.21382 85.04042"/>
<path transform="matrix(1.00003,0,0,-1.00005,28.177376,123.11355)" stroke-width=".3985" stroke-linecap="butt" stroke-miterlimit="10" stroke-linejoin="miter" fill="none" stroke="#000000" d="M100.80096 85.04042C100.80096 85.91698 100.09038 86.62756 99.21382 86.62756 98.33727 86.62756 97.62668 85.91698 97.62668 85.04042 97.62668 84.16386 98.33727 83.45328 99.21382 83.45328 100.09038 83.45328 100.80096 84.16386 100.80096 85.04042ZM99.21382 85.04042"/>
<path transform="matrix(1.00003,0,0,-1.00005,28.177376,123.11355)" stroke-width=".797" stroke-linecap="butt" stroke-linejoin="bevel" fill="none" stroke="#000000" d="M113.3872 58.7929 119.34006 55.7487 107.43436 50.45732 119.34006 45.16594 107.43436 39.87456 119.34006 34.58318 107.43436 29.2918 113.3872 26.24759"/>
<use data-text="R" xlink:href="#font_1_4" transform="matrix(9.962899,0,0,-9.963098,149.72702,82.738529)"/>
<path transform="matrix(1.00003,0,0,-1.00005,28.177376,123.11355)" stroke-width=".3985" stroke-linecap="butt" stroke-miterlimit="10" stroke-linejoin="miter" fill="none" stroke="#000000" d="M14.17339 85.04042 14.17337 77.95372M14.17337 77.95372 14.17339 70.86702H44.78787M68.59932 70.86702H99.21382V77.95372M99.21382 77.95372V85.04042"/>
<path transform="matrix(1.00003,0,0,-1.00005,28.177376,123.11355)" stroke-width=".797" stroke-linecap="butt" stroke-linejoin="bevel" fill="none" stroke="#000000" d="M44.38937 70.70763C44.38937 73.99533 46.02412 76.66048 48.04073 76.66048 50.05733 76.66048 51.69206 73.99533 51.69206 70.70763 51.69206 69.06387 51.02582 67.73135 50.20393 67.73135 49.38205 67.73135 48.71579 69.06387 48.71579 70.70763 48.71579 73.99533 50.35054 76.66048 52.36714 76.66048 54.38374 76.66048 56.0185 73.99533 56.0185 70.70763 56.0185 69.06387 55.35223 67.73135 54.53035 67.73135 53.70848 67.73135 53.04222 69.06387 53.04222 70.70763 53.04222 73.99533 54.67696 76.66048 56.69357 76.66048 58.71017 76.66048 60.34491 73.99533 60.34491 70.70763 60.34491 69.06387 59.67865 67.73135 58.85678 67.73135 58.0349 67.73135 57.36864 69.06387 57.36864 70.70763 57.36864 73.99533 59.00339 76.66048 61.01999 76.66048 63.03659 76.66048 64.67134 73.99533 64.67134 70.70763 64.67134 69.06387 64.00508 67.73135 63.1832 67.73135 62.36131 67.73135 61.69507 69.06387 61.69507 70.70763 61.69507 73.99533 63.3298 76.66048 65.3464 76.66048 67.363 76.66048 68.99776 73.99533 68.99776 70.70763"/>
<use data-text="L" xlink:href="#font_1_3" transform="matrix(9.962899,0,0,-9.963098,81.48198,65.49667)"/>
<path transform="matrix(1.00003,0,0,-1.00005,28.177376,123.11355)" d="M27.74442 70.86702V68.88277L31.96095 70.86702 27.74442 72.85127Z"/>
<path transform="matrix(1.00003,0,0,-1.00005,28.177376,123.11355)" stroke-width=".3985" stroke-linecap="butt" stroke-miterlimit="10" stroke-linejoin="miter" fill="none" stroke="#000000" d="M27.74442 70.86702V68.88277L31.96095 70.86702 27.74442 72.85127Z"/>
<use data-text="I" xlink:href="#font_1_2" transform="matrix(9.962899,0,0,-9.963098,53.23413,62.57152)"/>
<use data-text="3" xlink:href="#font_3_3" transform="matrix(6.9740097,0,0,-6.9741489,57.61326,64.0656)"/>
<path transform="matrix(1.00003,0,0,-1.00005,28.177376,123.11355)" stroke-width=".3985" stroke-linecap="butt" stroke-miterlimit="10" stroke-linejoin="miter" fill="none" stroke="#000000" d="M113.38722 85.04042 141.73401 85.0404M141.73401 85.0404 170.08084 85.04042"/>
<path transform="matrix(1.00003,0,0,-1.00005,28.177376,123.11355)" d="M171.66799 85.04042C171.66799 85.91698 170.9574 86.62756 170.08084 86.62756 169.20427 86.62756 168.49369 85.91698 168.49369 85.04042 168.49369 84.16386 169.20427 83.45328 170.08084 83.45328 170.9574 83.45328 171.66799 84.16386 171.66799 85.04042ZM170.08084 85.04042" fill="#ffffff"/>
<path transform="matrix(1.00003,0,0,-1.00005,28.177376,123.11355)" stroke-width=".3985" stroke-linecap="butt" stroke-miterlimit="10" stroke-linejoin="miter" fill="none" stroke="#000000" d="M171.66799 85.04042C171.66799 85.91698 170.9574 86.62756 170.08084 86.62756 169.20427 86.62756 168.49369 85.91698 168.49369 85.04042 168.49369 84.16386 169.20427 83.45328 170.08084 83.45328 170.9574 83.45328 171.66799 84.16386 171.66799 85.04042ZM170.08084 85.04042"/>
<path transform="matrix(1.00003,0,0,-1.00005,28.177376,123.11355)" d="" fill="#ffffff"/>
<path transform="matrix(1.00003,0,0,-1.00005,28.177376,123.11355)" stroke-width=".3985" stroke-linecap="butt" stroke-miterlimit="10" stroke-linejoin="miter" fill="none" stroke="#000000" d=""/>
<path transform="matrix(1.00003,0,0,-1.00005,28.177376,123.11355)" stroke-width=".3985" stroke-linecap="butt" stroke-miterlimit="10" stroke-linejoin="miter" fill="none" stroke="#000000" d="M113.38722 0H141.73401M141.73401 0H170.08084"/>
<path transform="matrix(1.00003,0,0,-1.00005,28.177376,123.11355)" d="M171.66799 0C171.66799 .87656 170.9574 1.58714 170.08084 1.58714 169.20427 1.58714 168.49369 .87656 168.49369 0 168.49369-.87656 169.20427-1.58714 170.08084-1.58714 170.9574-1.58714 171.66799-.87656 171.66799 0ZM170.08084 0" fill="#ffffff"/>
<path transform="matrix(1.00003,0,0,-1.00005,28.177376,123.11355)" stroke-width=".3985" stroke-linecap="butt" stroke-miterlimit="10" stroke-linejoin="miter" fill="none" stroke="#000000" d="M171.66799 0C171.66799 .87656 170.9574 1.58714 170.08084 1.58714 169.20427 1.58714 168.49369 .87656 168.49369 0 168.49369-.87656 169.20427-1.58714 170.08084-1.58714 170.9574-1.58714 171.66799-.87656 171.66799 0ZM170.08084 0"/>
<path transform="matrix(1.00003,0,0,-1.00005,28.177376,123.11355)" d="" fill="#ffffff"/>
<path transform="matrix(1.00003,0,0,-1.00005,28.177376,123.11355)" stroke-width=".3985" stroke-linecap="butt" stroke-miterlimit="10" stroke-linejoin="miter" fill="none" stroke="#000000" d=""/>
<path transform="matrix(1.00003,0,0,-1.00005,28.177376,123.11355)" stroke-width=".3985" stroke-linecap="butt" stroke-miterlimit="10" stroke-linejoin="miter" fill="none" stroke="#000000" d="M170.08086 42.52022"/>
<use data-text="V" xlink:href="#font_1_5" transform="matrix(9.962899,0,0,-9.963098,189.36823,83.21356)"/>
<use data-text="o" xlink:href="#font_2_81" transform="matrix(6.9740097,0,0,-6.9741489,195.17938,84.70764)"/>
<use data-text="u" xlink:href="#font_2_109" transform="matrix(6.9740097,0,0,-6.9741489,199.1476,84.70764)"/>
<use data-text="t" xlink:href="#font_2_105" transform="matrix(6.9740097,0,0,-6.9741489,203.5482,84.70764)"/>
</svg>
