<svg xmlns="http://www.w3.org/2000/svg" xmlns:xlink="http://www.w3.org/1999/xlink" xmlns:inkscape="http://www.inkscape.org/namespaces/inkscape" version="1.1" width="198" height="120" viewBox="0 0 198 120">
<defs>
<path id="font_1_1" d="M.41600038 .6529541 .3999939 .66796877C.3999939 .66696169 .3619995 .6199646 .31799317 .6199646 .29499818 .6199646 .269989 .634964 .25299073 .6449585 .22599793 .66096499 .20799256 .66796877 .19099427 .66796877 .15299988 .66796877 .13398743 .6459656 .08299255 .5899658L.09899902 .57496646C.09899902 .57595828 .13699341 .6229553 .18099976 .6229553 .20399475 .6229553 .22898865 .60795596 .24598694 .5979614 .272995 .58195498 .29100038 .57496646 .30799867 .57496646 .34599305 .57496646 .36499024 .59695437 .41600038 .6529541Z"/>
<path id="font_2_5" d="M.6279907 .5686035C.6769867 .64660647 .71899417 .6496124 .7559967 .6516113 .7679901 .65260317 .7689972 .6696167 .7689972 .6706085 .7689972 .6786041 .7639923 .6826172 .7559967 .6826172 .7299957 .6826172 .70098879 .6796112 .673996 .6796112 .6409912 .6796112 .6069946 .6826172 .57499697 .6826172 .56900027 .6826172 .55599978 .6826172 .55599978 .66360476 .55599978 .65260317 .5649872 .6516113 .57199099 .6516113 .598999 .6496124 .6179962 .63960269 .6179962 .61860659 .6179962 .6036072 .6029968 .581604 .6029968 .5805969L.29599 .092544559 .22799683 .62161257C.22799683 .63861086 .25099183 .6516113 .29699708 .6516113 .31098939 .6516113 .32199098 .6516113 .32199098 .6716156 .32199098 .680603 .31399537 .6826172 .30799867 .6826172 .2679901 .6826172 .22499085 .6796112 .18399048 .6796112 .1659851 .6796112 .14698792 .680603 .1289978 .680603 .11099243 .680603 .09199524 .6826172 .07499695 .6826172 .067993167 .6826172 .055999757 .6826172 .055999757 .66360476 .055999757 .6516113 .06498718 .6516113 .08099365 .6516113 .13699341 .6516113 .13798523 .64260867 .14099121 .6175995L.21998596 .0005340576C.22299195-.019470215 .22698975-.022460938 .23999024-.022460938 .2559967-.022460938 .2599945-.017471314 .2679901-.004470825L.6279907 .5686035Z"/>
<path id="font_3_4" d="M.32398988 .6253052C.32398988 .64131167 .31199647 .66329959 .28399659 .66329959 .25698854 .66329959 .22799683 .6372986 .22799683 .6083069 .22799683 .5913086 .24099732 .5703125 .2679901 .5703125 .29699708 .5703125 .32398988 .5983124 .32398988 .6253052M.11999512 .117263797C.115997318 .104263309 .11099243 .09225464 .11099243 .07525635 .11099243 .02822876 .15098572-.009765625 .20599365-.009765625 .30599977-.009765625 .34999085 .12828064 .34999085 .14328003 .34999085 .15628052 .33699037 .15628052 .33399964 .15628052 .31999208 .15628052 .31900025 .15028382 .31498719 .13928223 .2919922 .059249879 .24798584 .018234253 .20899964 .018234253 .18899536 .018234253 .18399048 .031234742 .18399048 .053237916 .18399048 .07624817 .19099427 .09526062 .19999695 .117263797 .20999146 .14428711 .22099304 .17129517 .23199463 .1973114 .24099732 .22131348 .2769928 .3123474 .2809906 .32435609 .28399659 .33436585 .2869873 .3463745 .2869873 .35636903 .2869873 .4033966 .24699402 .44140626 .19198609 .44140626 .09298706 .44140626 .04699707 .3053589 .04699707 .28834535 .04699707 .27534486 .06098938 .27534486 .06399536 .27534486 .07798767 .27534486 .07899475 .28033448 .08198547 .29135133 .10798645 .37738038 .1519928 .4133911 .18899536 .4133911 .20498657 .4133911 .21398926 .4053955 .21398926 .37838746 .21398926 .3553772 .20799256 .34036256 .18299866 .27833558L.11999512 .117263797Z"/>
<path id="font_3_5" d="M.12199402 .06324768C.117996219 .050247194 .11199951 .025222779 .11199951 .022232056 .11199951 .00022888184 .12998963-.009765625 .1459961-.009765625 .1639862-.009765625 .17999268 .0032196046 .18499756 .01222229 .18998719 .021224976 .19799805 .053237916 .20298767 .07424927 .20799256 .09326172 .21899414 .13928223 .22499085 .16429138 .23098755 .18629456 .23699951 .20831299 .24198914 .23132324 .25299073 .27233888 .25498963 .28033448 .28399659 .32136537 .31199647 .3613739 .35899354 .4133911 .43399049 .4133911 .49198915 .4133911 .49299623 .36238099 .49299623 .34336854 .49299623 .28334046 .44999696 .17228699 .43399049 .13027954 .4229889 .102264408 .4189911 .09326172 .4189911 .07624817 .4189911 .023223877 .46299745-.009765625 .5139923-.009765625 .6139984-.009765625 .6579895 .12828064 .6579895 .14328003 .6579895 .15628052 .644989 .15628052 .6419983 .15628052 .6279907 .15628052 .6269989 .15028382 .6230011 .13928223 .59999087 .059249879 .5569916 .018234253 .5169983 .018234253 .49598695 .018234253 .49198915 .032226564 .49198915 .053237916 .49198915 .07624817 .49699403 .089263919 .5149994 .13427735 .5269928 .1652832 .56799319 .2713318 .56799319 .32736207 .56799319 .4243927 .4909973 .44140626 .43798829 .44140626 .35499574 .44140626 .29899598 .39038087 .2689972 .3503723 .2619934 .41940309 .20298767 .44140626 .1619873 .44140626 .11898804 .44140626 .09599304 .4104004 .08299255 .38739015 .06098938 .3503723 .04699707 .29335023 .04699707 .28834535 .04699707 .27534486 .06098938 .27534486 .06399536 .27534486 .07798767 .27534486 .07899475 .27833558 .085998538 .3053589 .100997928 .36437989 .11999512 .4133911 .15899658 .4133911 .18499756 .4133911 .19198609 .39138795 .19198609 .36437989 .19198609 .34536744 .18299866 .3083496 .17599488 .28134156 .16899109 .2543335 .15899658 .21331787 .1539917 .19129944L.12199402 .06324768Z"/>
<path id="font_2_2" d="M.37399293 .6056366C.3829956 .6416168 .38598634 .6516113 .46499635 .6516113 .4889984 .6516113 .49699403 .6516113 .49699403 .6706085 .49699403 .6826172 .48599244 .6826172 .48199464 .6826172 .45298768 .6826172 .3789978 .6796112 .34999085 .6796112 .31999208 .6796112 .24699402 .6826172 .21699524 .6826172 .20999146 .6826172 .19699097 .6826172 .19699097 .6626129 .19699097 .6516113 .20599365 .6516113 .22499085 .6516113 .2669983 .6516113 .2939911 .6516113 .2939911 .63261416 .2939911 .6276245 .2939911 .6256256 .2919922 .6166229L.15699768 .07795715C.147995 .040985109 .14498902 .0309906 .06599426 .0309906 .042999269 .0309906 .033996583 .0309906 .033996583 .010986328 .033996583 0 .04598999 0 .04899597 0 .07798767 0 .15098572 .0029907227 .17999268 .0029907227 .20999146 .0029907227 .28399659 0 .31399537 0 .32199098 0 .33399964 0 .33399964 .018997193 .33399964 .0309906 .32598878 .0309906 .3039856 .0309906 .28599549 .0309906 .2809906 .0309906 .26098634 .032989503 .23999024 .034988405 .23599243 .038986207 .23599243 .049987794 .23599243 .05796814 .23799134 .065963748 .23999024 .07296753L.37399293 .6056366Z"/>
<path id="font_4_66" d="M.27398683 0V.035995485C.21598816 .035995485 .20599365 .035995485 .20599365 .07803345V.44140626L.05899048 .43052674V.39453126C.12199402 .39453126 .1309967 .3885193 .1309967 .33952333V.07952881C.1309967 .035995485 .12098694 .035995485 .055999757 .035995485V0C.055999757 0 .12799073 .0039978029 .16799927 .0039978029 .20298767 .0039978029 .23899842 .0029907227 .27398683 0M.21899414 .60214236C.21899414 .6341553 .19400025 .66015627 .1619873 .66015627 .12799073 .66015627 .10499573 .6321411 .10499573 .6031494 .10499573 .57115176 .12998963 .54515078 .1619873 .54515078 .19599915 .54515078 .21899414 .57315066 .21899414 .60214236Z"/>
<path id="font_4_77" d="M.58999636 0V.035995485C.5249939 .035995485 .5149994 .035995485 .5149994 .07904053V.3032837C.5149994 .3903656 .47200013 .44140626 .36499024 .44140626 .2829895 .44140626 .22999573 .39637757 .20199585 .34432984H.20098877V.44140626L.053985597 .43052674V.39453126C.12098694 .39453126 .1289978 .3875122 .1289978 .33843995V.079055789C.1289978 .035995485 .11898804 .035995485 .053985597 .035995485V0C.053985597 0 .12599182 .0039978029 .16799927 .0039978029 .20498657 .0039978029 .27398683 .0009918213 .2829895 0V.035995485C.21798706 .035995485 .20799256 .035995485 .20799256 .079055789V.25932313C.20799256 .36434938 .29100038 .4133911 .35699464 .4133911 .4269867 .4133911 .43598939 .3583374 .43598939 .3072815V.07904053C.43598939 .035995485 .42599488 .035995485 .36099244 .035995485V0C.36099244 0 .43299867 .0039978029 .47499085 .0039978029 .5119934 .0039978029 .58099368 .0009918213 .58999636 0Z"/>
<path id="font_2_3" d="M.37399293 .6046295C.3829956 .64060977 .38598634 .6516113 .47999574 .6516113 .5099945 .6516113 .5179901 .6516113 .5179901 .6706085 .5179901 .6826172 .5069885 .6826172 .5019989 .6826172 .46899415 .6826172 .3869934 .6796112 .35398866 .6796112 .32398988 .6796112 .25099183 .6826172 .22099304 .6826172 .21398926 .6826172 .20199585 .6826172 .20199585 .6626129 .20199585 .6516113 .21099854 .6516113 .22999573 .6516113 .23199463 .6516113 .25099183 .6516113 .2679901 .6496124 .28599549 .6476135 .29499818 .64660647 .29499818 .6336212 .29499818 .6296234 .2939911 .62661746 .29100038 .614624L.15699768 .07795715C.14698792 .038986207 .14498902 .0309906 .06599426 .0309906 .04899597 .0309906 .038986207 .0309906 .038986207 .010986328 .038986207 0 .04798889 0 .06599426 0H.5289917C.5529938 0 .55400088 0 .55999758 .016998291L.6389923 .23286438C.6429901 .24386597 .6429901 .24586487 .6429901 .24685669 .6429901 .2508545 .6399994 .25785829 .6309967 .25785829 .621994 .25785829 .62098696 .2528534 .6139984 .23686219 .5799866 .14492798 .5359955 .0309906 .36299134 .0309906H.2689972C.25498963 .0309906 .25299073 .0309906 .24699402 .03199768 .23699951 .032989503 .23399353 .033996583 .23399353 .041992189 .23399353 .04498291 .23399353 .04698181 .23899842 .064971927L.37399293 .6046295Z"/>
<path id="font_3_2" d="M.4119873 .600708C.42099 .63668826 .42399598 .64668276 .5159912 .64668276 .5469971 .64668276 .5569916 .64668276 .5569916 .6686859 .5569916 .66967776 .55599978 .6826782 .5399933 .6826782 .5169983 .6826782 .48999024 .6806793 .46598817 .6796875 .44099427 .6786804 .41099549 .6786804 .38598634 .6786804 .36499024 .6786804 .33799745 .6796875 .31698609 .6796875 .29599 .6796875 .27198792 .6826782 .2519989 .6826782 .24598694 .6826782 .23098755 .6826782 .23098755 .66067507 .23098755 .64668276 .24299622 .64668276 .2630005 .64668276 .2639923 .64668276 .2829895 .64668276 .30099488 .64468386 .32199098 .64268496 .32398988 .64068606 .32398988 .6306915 .32398988 .6286926 .32398988 .623703 .31999208 .6087036L.18699646 .07797241C.17799378 .04399109 .17599488 .035995485 .09899902 .035995485 .08198547 .035995485 .068984989 .035995485 .068984989 .01499939 .068984989 0 .08099365 0 .09899902 0H.60198977C.6269989 0 .6279907 .0009918213 .6359863 .019989014 .6459961 .04698181 .72099307 .2408905 .72099307 .24888611 .72099307 .25187684 .71899417 .26287843 .70399478 .26287843 .69200137 .26287843 .6899872 .25787355 .6839905 .24188233 .6459961 .14694214 .60198977 .035995485 .4189911 .035995485H.30599977C.2749939 .035995485 .27398683 .036987306 .27398683 .04598999 .27398683 .04698181 .27398683 .051986696 .27799989 .066970828L.4119873 .600708Z"/>
<path id="font_2_4" d="M.375 .6136017C.3809967 .63760378 .38398744 .6476135 .40299989 .65060427 .4119873 .6516113 .44400025 .6516113 .46398927 .6516113 .5349884 .6516113 .6459961 .6516113 .6459961 .5525818 .6459961 .51856997 .6299896 .44955445 .59098818 .41055299 .5649872 .38453675 .5119934 .35253907 .42199708 .35253907H.30999757L.375 .6136017M.5189972 .33953858C.6199951 .3615265 .7389984 .43154908 .7389984 .5325775 .7389984 .61860659 .6489868 .6826172 .5179901 .6826172H.23298645C.21299744 .6826172 .20399475 .6826172 .20399475 .6626129 .20399475 .6516113 .21299744 .6516113 .23199463 .6516113 .23399353 .6516113 .25299073 .6516113 .269989 .6496124 .28799439 .6476135 .29699708 .64660647 .29699708 .63360598 .29699708 .62960818 .29599 .6266022 .29299928 .6145935L.15899658 .07752991C.14898682 .038528444 .14698792 .030532837 .067993167 .030532837 .049987794 .030532837 .040985109 .030532837 .040985109 .010528564 .040985109-.00047302247 .052993776-.00047302247 .054992677-.00047302247 .08299255-.00047302247 .15299988 .002532959 .18099976 .002532959 .20899964 .002532959 .27999879-.00047302247 .30799867-.00047302247 .31599427-.00047302247 .32798768-.00047302247 .32798768 .01953125 .32798768 .030532837 .31900025 .030532837 .2999878 .030532837 .2630005 .030532837 .23498535 .030532837 .23498535 .048538209 .23498535 .054534913 .23699951 .059524537 .23799134 .0655365L.3039856 .3305359H.4229889C.5139923 .3305359 .5319977 .27453614 .5319977 .23953247 .5319977 .22453308 .5239868 .19352722 .5179901 .17053223 .5109863 .14253235 .5019989 .105529788 .5019989 .08552551 .5019989-.022460938 .621994-.022460938 .6349945-.022460938 .7200012-.022460938 .7549896 .07853699 .7549896 .0925293 .7549896 .104537967 .74398806 .104537967 .7429962 .104537967 .73399356 .104537967 .7319946 .09753418 .7299957 .090530399 .7049866 .016525269 .6619873-.00047302247 .6389923-.00047302247 .60598757-.00047302247 .598999 .021530152 .598999 .060531618 .598999 .091537479 .6049957 .14253235 .60899356 .17453003 .61099246 .1885376 .61299136 .20753479 .61299136 .2215271 .61299136 .2985382 .54599 .3295288 .5189972 .33953858Z"/>
<path id="font_3_3" d="M.41299439 .6126709C.41999818 .640625 .42199708 .6436157 .44400025 .64660647H.5079956C.6009979 .64660647 .71598818 .64660647 .71598818 .5437927 .71598818 .50286868 .69699099 .43997193 .6499939 .40403749 .60899356 .37208558 .5469971 .35612489 .47799684 .35612489H.34899903L.41299439 .6126709M.59399417 .3401184C.71299746 .36810304 .81900027 .43997193 .81900027 .5288086 .81900027 .6146698 .71699526 .6826172 .57199099 .6826172H.2649994C.24598694 .6826172 .23298645 .6826172 .23298645 .660614 .23298645 .64660647 .24499512 .64660647 .2649994 .64660647 .2659912 .64660647 .2849884 .64660647 .30299378 .64460757 .32398988 .6426239 .32598878 .640625 .32598878 .63064578 .32598878 .62864688 .32598878 .6236572 .32199098 .6086731L.18899536 .07801819C.18099976 .04399109 .1789856 .035995485 .100997928 .035995485 .083999637 .035995485 .070999149 .035995485 .070999149 .01499939 .070999149 .004989624 .07798767 0 .08699036 0 .10598755 0 .1289978 .0029907227 .14898682 .0029907227 .16799927 .0029907227 .19699097 .0039978029 .21499634 .0039978029 .23498535 .0039978029 .2579956 .0029907227 .2789917 .0029907227 .2999878 .0029907227 .32499696 0 .34599305 0 .35099793 0 .36698915 0 .36698915 .020996094 .36698915 .035995485 .35699464 .035995485 .33399964 .035995485 .31799317 .035995485 .31399537 .035995485 .29599 .037994386 .27398683 .041000368 .27398683 .042999269 .27398683 .052993776 .27398683 .054000856 .27398683 .05999756 .27799989 .07501221L.34098817 .328125H.47698976C.5629883 .328125 .59999087 .2851715 .59999087 .23822022 .59999087 .22523499 .59098818 .19126892 .58599856 .16828919 .57398989 .12234497 .56999209 .10736084 .56999209 .09037781 .56999209 .011459351 .6429901-.01953125 .71699526-.01953125 .8089905-.01953125 .848999 .0783844 .848999 .09637451 .848999 .099365238 .8470001 .11035156 .83200076 .11035156 .81900027 .11035156 .81700137 .10336304 .81399539 .09336853 .7999878 .049423219 .7630005 .008468628 .72099307 .008468628 .69499209 .008468628 .6759949 .019454956 .6759949 .073394779 .6759949 .098358158 .6819916 .15031433 .6859894 .17727661 .6899872 .20425415 .6899872 .2142334 .6899872 .2242279 .6899872 .23622132 .6899872 .26818849 .6619873 .29815675 .6429901 .3191223 .6159973 .3321228 .59399417 .3401184Z"/>
<path id="font_2_1" d="M.7599945 .69506838C.7599945 .69807437 .7579956 .7050781 .7489929 .7050781 .74598696 .7050781 .7449951 .70407107 .73399356 .69306948L.6639862 .61602786C.6549988 .6300354 .60899356 .7050781 .49798585 .7050781 .2749939 .7050781 .049987794 .48391725 .049987794 .25172425 .049987794 .08659363 .16799927-.022460938 .32099916-.022460938 .4079895-.022460938 .48399354 .017532349 .5369873 .063583377 .6299896 .14564514 .6469879 .2367096 .6469879 .23971558 .6469879 .24972534 .6369934 .24972534 .6349945 .24972534 .6289978 .24972534 .6239929 .24772644 .621994 .23971558 .61299136 .21069336 .58999636 .13963318 .5209961 .081588748 .45199586 .025543213 .3889923 .008529663 .33699037 .008529663 .24699402 .008529663 .14099121 .060577394 .14099121 .21670532 .14099121 .27374269 .1619873 .43588258 .2619934 .55296328 .32299806 .62402346 .4169922 .67407229 .5059967 .67407229 .60798647 .67407229 .6669922 .5970001 .6669922 .48091126 .6669922 .44088746 .6639862 .43988038 .6639862 .4298706 .6639862 .41986085 .6749878 .41986085 .67900088 .41986085 .69200137 .41986085 .69200137 .42185975 .69699099 .43988038L.7599945 .69506838Z"/>
<path id="font_3_1" d="M.84298709 .6901245C.84298709 .69511416 .83999636 .703125 .8299866 .703125 .82299807 .703125 .82099917 .70111086 .81199648 .69111636L.7389984 .61413577C.7299957 .62612918 .673996 .703125 .5509949 .703125 .30799867 .703125 .069992069 .48820497 .069992069 .2623291 .069992069 .09941101 .19799805-.01953125 .3769989-.01953125 .43099977-.01953125 .5269928-.008544922 .6299896 .078430179 .70899966 .14538574 .73098757 .23234558 .73098757 .24034119 .73098757 .25334168 .71899417 .25334168 .71398928 .25334168 .70098879 .25334168 .69898989 .24833679 .69599917 .23735047 .6549988 .10041809 .5149994 .016464234 .3939972 .016464234 .28799439 .016464234 .16999817 .07342529 .16999817 .23135376 .16999817 .2603302 .1769867 .4182434 .2919922 .5441742 .36099244 .6211395 .46598817 .66711428 .5609894 .66711428 .6769867 .66711428 .7449951 .5831604 .7449951 .47122193 .7449951 .4432373 .74198916 .43623353 .74198916 .43023683 .74198916 .4172516 .7549896 .4172516 .7599945 .4172516 .776001 .4172516 .776001 .4202423 .7809906 .4392395L.84298709 .6901245Z"/>
</defs>
<path transform="matrix(1.00006,0,0,-1.00005,14.201706,117.17506)" stroke-width=".3985" stroke-linecap="butt" stroke-miterlimit="10" stroke-linejoin="miter" fill="none" stroke="#000000" d="M0 0"/>
<path transform="matrix(1.00006,0,0,-1.00005,14.201706,117.17506)" stroke-width=".3985" stroke-linecap="butt" stroke-miterlimit="10" stroke-linejoin="miter" fill="none" stroke="#000000" d="M0 0V44.78789M0 68.59933V113.38724H28.3468M28.3468 113.38724H56.69362V68.59933M56.69362 44.78789V0H28.3468M28.3468 0H0"/>
<path transform="matrix(1.00006,0,0,-1.00005,14.201706,117.17506)" stroke-width=".797" stroke-linecap="butt" stroke-miterlimit="10" stroke-linejoin="miter" fill="none" stroke="#000000" d="M-11.90572 56.69362C-11.90572 50.1182-6.57541 44.78789 0 44.78789 6.57541 44.78789 11.90572 50.1182 11.90572 56.69362 11.90572 63.26903 6.57541 68.59933 0 68.59933-6.57541 68.59933-11.90572 63.26903-11.90572 56.69362ZM0 56.69362"/>
<path transform="matrix(1.00006,0,0,-1.00005,14.201706,117.17506)" stroke-width=".797" stroke-linecap="butt" stroke-miterlimit="10" stroke-linejoin="miter" fill="none" stroke="#000000" d="M5.95285 56.69362C4.98253 55.16971 4.0539 53.7172 2.97643 53.7172 1.89896 53.7172 .97032 55.1697 0 56.69362-.9703 58.21751-1.89894 59.67004-2.97643 59.67004-4.05388 59.67004-4.98251 58.21753-5.95285 56.69362"/>
<use data-text="&#x02dc;" xlink:href="#font_1_1" transform="matrix(9.963197,0,0,-9.963098,30.431679,60.106206)"/>
<use data-text="V" xlink:href="#font_2_5" transform="matrix(9.963197,0,0,-9.963098,28.909584,62.625326)"/>
<use data-text="i" xlink:href="#font_3_4" transform="matrix(6.9742186,0,0,-6.9741489,34.720933,64.1194)"/>
<use data-text="n" xlink:href="#font_3_5" transform="matrix(6.9742186,0,0,-6.9741489,37.538515,64.1194)"/>
<path transform="matrix(1.00006,0,0,-1.00005,14.201706,117.17506)" d="M58.28076 113.38724C58.28076 114.2638 57.57018 114.97438 56.69362 114.97438 55.81705 114.97438 55.10646 114.2638 55.10646 113.38724 55.10646 112.51067 55.81705 111.80008 56.69362 111.80008 57.57018 111.80008 58.28076 112.51067 58.28076 113.38724ZM56.69362 113.38724"/>
<path transform="matrix(1.00006,0,0,-1.00005,14.201706,117.17506)" stroke-width=".3985" stroke-linecap="butt" stroke-miterlimit="10" stroke-linejoin="miter" fill="none" stroke="#000000" d="M58.28076 113.38724C58.28076 114.2638 57.57018 114.97438 56.69362 114.97438 55.81705 114.97438 55.10646 114.2638 55.10646 113.38724 55.10646 112.51067 55.81705 111.80008 56.69362 111.80008 57.57018 111.80008 58.28076 112.51067 58.28076 113.38724ZM56.69362 113.38724"/>
<path transform="matrix(1.00006,0,0,-1.00005,14.201706,117.17506)" d="M26.61058 113.38724V111.40298L30.82713 113.38724 26.61058 115.37149Z"/>
<path transform="matrix(1.00006,0,0,-1.00005,14.201706,117.17506)" stroke-width=".3985" stroke-linecap="butt" stroke-miterlimit="10" stroke-linejoin="miter" fill="none" stroke="#000000" d="M26.61058 113.38724V111.40298L30.82713 113.38724 26.61058 115.37149Z"/>
<use data-text="&#x02dc;" xlink:href="#font_1_1" transform="matrix(9.963197,0,0,-9.963098,37.98114,13.955902)"/>
<use data-text="I" xlink:href="#font_2_2" transform="matrix(9.963197,0,0,-9.963098,36.784067,16.475022)"/>
<use data-text="i" xlink:href="#font_4_66" transform="matrix(6.9742186,0,0,-6.9741489,41.16333,17.9691)"/>
<use data-text="n" xlink:href="#font_4_77" transform="matrix(6.9742186,0,0,-6.9741489,43.416,17.9691)"/>
<path transform="matrix(1.00006,0,0,-1.00005,14.201706,117.17506)" stroke-width=".797" stroke-linecap="butt" stroke-linejoin="bevel" fill="none" stroke="#000000" d="M56.53423 68.99783C59.82191 68.99783 62.48708 67.36308 62.48708 65.34648 62.48708 63.32988 59.82191 61.69514 56.53423 61.69514 54.89046 61.69514 53.55795 62.36139 53.55795 63.18327 53.55795 64.00516 54.89046 64.67142 56.53423 64.67142 59.82191 64.67142 62.48708 63.03667 62.48708 61.02007 62.48708 59.00346 59.82191 57.36871 56.53423 57.36871 54.89046 57.36871 53.55795 58.03497 53.55795 58.85686 53.55795 59.67873 54.89046 60.34499 56.53423 60.34499 59.82191 60.34499 62.48708 58.71025 62.48708 56.69365 62.48708 54.67703 59.82191 53.0423 56.53423 53.0423 54.89046 53.0423 53.55795 53.70856 53.55795 54.53043 53.55795 55.35231 54.89046 56.01857 56.53423 56.01857 59.82191 56.01857 62.48708 54.38382 62.48708 52.36722 62.48708 50.35062 59.82191 48.71587 56.53423 48.71587 54.89046 48.71587 53.55795 49.38213 53.55795 50.20401 53.55795 51.0259 54.89046 51.69214 56.53423 51.69214 59.82191 51.69214 62.48708 50.0574 62.48708 48.0408 62.48708 46.0242 59.82191 44.38945 56.53423 44.38945"/>
<use data-text="L" xlink:href="#font_2_3" transform="matrix(9.963197,0,0,-9.963098,59.233407,62.62533)"/>
<path transform="matrix(1.00006,0,0,-1.00005,14.201706,117.17506)" d="M56.69362 92.72949H54.70937L56.69362 88.51295 58.67787 92.72949Z"/>
<path transform="matrix(1.00006,0,0,-1.00005,14.201706,117.17506)" stroke-width=".3985" stroke-linecap="butt" stroke-miterlimit="10" stroke-linejoin="miter" fill="none" stroke="#000000" d="M56.69362 92.72949H54.70937L56.69362 88.51295 58.67787 92.72949Z"/>
<use data-text="&#x02dc;" xlink:href="#font_1_1" transform="matrix(9.963197,0,0,-9.963098,58.231359,27.497574)"/>
<use data-text="I" xlink:href="#font_2_2" transform="matrix(9.963197,0,0,-9.963098,57.034284,30.016694)"/>
<use data-text="L" xlink:href="#font_3_2" transform="matrix(6.9742186,0,0,-6.9741489,61.413549,31.510773)"/>
<path transform="matrix(1.00006,0,0,-1.00005,14.201706,117.17506)" d="M58.28076 0C58.28076 .87656 57.57018 1.58714 56.69362 1.58714 55.81705 1.58714 55.10646 .87656 55.10646 0 55.10646-.87656 55.81705-1.58714 56.69362-1.58714 57.57018-1.58714 58.28076-.87656 58.28076 0ZM56.69362 0"/>
<path transform="matrix(1.00006,0,0,-1.00005,14.201706,117.17506)" stroke-width=".3985" stroke-linecap="butt" stroke-miterlimit="10" stroke-linejoin="miter" fill="none" stroke="#000000" d="M58.28076 0C58.28076 .87656 57.57018 1.58714 56.69362 1.58714 55.81705 1.58714 55.10646 .87656 55.10646 0 55.10646-.87656 55.81705-1.58714 56.69362-1.58714 57.57018-1.58714 58.28076-.87656 58.28076 0ZM56.69362 0"/>
<path transform="matrix(1.00006,0,0,-1.00005,14.201706,117.17506)" stroke-width=".3985" stroke-linecap="butt" stroke-miterlimit="10" stroke-linejoin="miter" fill="none" stroke="#000000" d="M56.69362 113.38724H85.04042M85.04042 113.38724H113.38724V72.56781M113.38724 40.81941V0H85.04042M85.04042 0H56.69362"/>
<path transform="matrix(1.00006,0,0,-1.00005,14.201706,117.17506)" d="M114.97438 113.38724C114.97438 114.2638 114.2638 114.97438 113.38724 114.97438 112.51067 114.97438 111.80008 114.2638 111.80008 113.38724 111.80008 112.51067 112.51067 111.80008 113.38724 111.80008 114.2638 111.80008 114.97438 112.51067 114.97438 113.38724ZM113.38724 113.38724"/>
<path transform="matrix(1.00006,0,0,-1.00005,14.201706,117.17506)" stroke-width=".3985" stroke-linecap="butt" stroke-miterlimit="10" stroke-linejoin="miter" fill="none" stroke="#000000" d="M114.97438 113.38724C114.97438 114.2638 114.2638 114.97438 113.38724 114.97438 112.51067 114.97438 111.80008 114.2638 111.80008 113.38724 111.80008 112.51067 112.51067 111.80008 113.38724 111.80008 114.2638 111.80008 114.97438 112.51067 114.97438 113.38724ZM113.38724 113.38724"/>
<path transform="matrix(1.00006,0,0,-1.00005,14.201706,117.17506)" stroke-width=".797" stroke-linecap="butt" stroke-linejoin="bevel" fill="none" stroke="#000000" d="M113.38724 72.96631 119.34009 69.8889 107.43439 64.53108 119.34009 59.17326 107.43439 53.81544 119.34009 48.45764 107.43439 43.09982 113.38724 40.42091"/>
<use data-text="R" xlink:href="#font_2_4" transform="matrix(9.963197,0,0,-9.963098,111.794559,62.62533)"/>
<path transform="matrix(1.00006,0,0,-1.00005,14.201706,117.17506)" d="M113.38724 94.71373H111.40298L113.38724 90.4972 115.37149 94.71373Z"/>
<path transform="matrix(1.00006,0,0,-1.00005,14.201706,117.17506)" stroke-width=".3985" stroke-linecap="butt" stroke-miterlimit="10" stroke-linejoin="miter" fill="none" stroke="#000000" d="M113.38724 94.71373H111.40298L113.38724 90.4972 115.37149 94.71373Z"/>
<use data-text="&#x02dc;" xlink:href="#font_1_1" transform="matrix(9.963197,0,0,-9.963098,114.35673,25.512475)"/>
<use data-text="I" xlink:href="#font_2_2" transform="matrix(9.963197,0,0,-9.963098,113.15965,28.031594)"/>
<use data-text="R" xlink:href="#font_3_3" transform="matrix(6.9742186,0,0,-6.9741489,117.53892,29.525673)"/>
<path transform="matrix(1.00006,0,0,-1.00005,14.201706,117.17506)" d="M114.97438 0C114.97438 .87656 114.2638 1.58714 113.38724 1.58714 112.51067 1.58714 111.80008 .87656 111.80008 0 111.80008-.87656 112.51067-1.58714 113.38724-1.58714 114.2638-1.58714 114.97438-.87656 114.97438 0ZM113.38724 0"/>
<path transform="matrix(1.00006,0,0,-1.00005,14.201706,117.17506)" stroke-width=".3985" stroke-linecap="butt" stroke-miterlimit="10" stroke-linejoin="miter" fill="none" stroke="#000000" d="M114.97438 0C114.97438 .87656 114.2638 1.58714 113.38724 1.58714 112.51067 1.58714 111.80008 .87656 111.80008 0 111.80008-.87656 112.51067-1.58714 113.38724-1.58714 114.2638-1.58714 114.97438-.87656 114.97438 0ZM113.38724 0"/>
<path transform="matrix(1.00006,0,0,-1.00005,14.201706,117.17506)" stroke-width=".3985" stroke-linecap="butt" stroke-miterlimit="10" stroke-linejoin="miter" fill="none" stroke="#000000" d="M113.38724 113.38724H141.73404M141.73404 113.38724H170.08086V60.6621M170.08086 52.72513V0H141.73404M141.73404 0H113.38724"/>
<path transform="matrix(1.00006,0,0,-1.00005,14.201706,117.17506)" stroke-width=".797" stroke-linecap="butt" stroke-miterlimit="10" stroke-linejoin="miter" fill="none" stroke="#000000" d="M181.98657 60.6621H158.17514M181.98657 52.72513H158.17514"/>
<use data-text="C" xlink:href="#font_2_1" transform="matrix(9.963197,0,0,-9.963098,161.75156,62.62533)"/>
<path transform="matrix(1.00006,0,0,-1.00005,14.201706,117.17506)" d="M170.08086 88.76088H168.0966L170.08086 84.54434 172.06511 88.76088Z"/>
<path transform="matrix(1.00006,0,0,-1.00005,14.201706,117.17506)" stroke-width=".3985" stroke-linecap="butt" stroke-miterlimit="10" stroke-linejoin="miter" fill="none" stroke="#000000" d="M170.08086 88.76088H168.0966L170.08086 84.54434 172.06511 88.76088Z"/>
<use data-text="&#x02dc;" xlink:href="#font_1_1" transform="matrix(9.963197,0,0,-9.963098,170.88912,31.465775)"/>
<use data-text="I" xlink:href="#font_2_2" transform="matrix(9.963197,0,0,-9.963098,169.69205,33.984895)"/>
<use data-text="C" xlink:href="#font_3_1" transform="matrix(6.9742186,0,0,-6.9741489,174.0713,35.478975)"/>
</svg>
