<svg xmlns="http://www.w3.org/2000/svg" xmlns:xlink="http://www.w3.org/1999/xlink" xmlns:inkscape="http://www.inkscape.org/namespaces/inkscape" version="1.1" width="212" height="167" viewBox="0 0 212 167">
<defs>
<clipPath id="clip_1">
<path transform="matrix(1,0,0,-1.00003,31.773003,165.71662)" d="M-30.67741 0H163.58832V161.3918H-30.67741Z"/>
</clipPath>
<path id="font_2_3" d="M.41600038 .6529541 .3999939 .66796877C.3999939 .66696169 .3619995 .6199646 .31799317 .6199646 .29499818 .6199646 .269989 .634964 .25299073 .6449585 .22599793 .66096499 .20799256 .66796877 .19099427 .66796877 .15299988 .66796877 .13398743 .6459656 .08299255 .5899658L.09899902 .57496646C.09899902 .57595828 .13699341 .6229553 .18099976 .6229553 .20399475 .6229553 .22898865 .60795596 .24598694 .5979614 .272995 .58195498 .29100038 .57496646 .30799867 .57496646 .34599305 .57496646 .36499024 .59695437 .41600038 .6529541Z"/>
<path id="font_3_4" d="M.37399293 .6056366C.3829956 .6416168 .38598634 .6516113 .46499635 .6516113 .4889984 .6516113 .49699403 .6516113 .49699403 .6706085 .49699403 .6826172 .48599244 .6826172 .48199464 .6826172 .45298768 .6826172 .3789978 .6796112 .34999085 .6796112 .31999208 .6796112 .24699402 .6826172 .21699524 .6826172 .20999146 .6826172 .19699097 .6826172 .19699097 .6626129 .19699097 .6516113 .20599365 .6516113 .22499085 .6516113 .2669983 .6516113 .2939911 .6516113 .2939911 .63261416 .2939911 .6276245 .2939911 .6256256 .2919922 .6166229L.15699768 .07795715C.147995 .040985109 .14498902 .0309906 .06599426 .0309906 .042999269 .0309906 .033996583 .0309906 .033996583 .010986328 .033996583 0 .04598999 0 .04899597 0 .07798767 0 .15098572 .0029907227 .17999268 .0029907227 .20999146 .0029907227 .28399659 0 .31399537 0 .32199098 0 .33399964 0 .33399964 .018997193 .33399964 .0309906 .32598878 .0309906 .3039856 .0309906 .28599549 .0309906 .2809906 .0309906 .26098634 .032989503 .23999024 .034988405 .23599243 .038986207 .23599243 .049987794 .23599243 .05796814 .23799134 .065963748 .23999024 .07296753L.37399293 .6056366Z"/>
<path id="font_4_4" d="M.41299439 .6126709C.41999818 .640625 .42199708 .6436157 .44400025 .64660647H.5079956C.6009979 .64660647 .71598818 .64660647 .71598818 .5437927 .71598818 .50286868 .69699099 .43997193 .6499939 .40403749 .60899356 .37208558 .5469971 .35612489 .47799684 .35612489H.34899903L.41299439 .6126709M.59399417 .3401184C.71299746 .36810304 .81900027 .43997193 .81900027 .5288086 .81900027 .6146698 .71699526 .6826172 .57199099 .6826172H.2649994C.24598694 .6826172 .23298645 .6826172 .23298645 .660614 .23298645 .64660647 .24499512 .64660647 .2649994 .64660647 .2659912 .64660647 .2849884 .64660647 .30299378 .64460757 .32398988 .6426239 .32598878 .640625 .32598878 .63064578 .32598878 .62864688 .32598878 .6236572 .32199098 .6086731L.18899536 .07801819C.18099976 .04399109 .1789856 .035995485 .100997928 .035995485 .083999637 .035995485 .070999149 .035995485 .070999149 .01499939 .070999149 .004989624 .07798767 0 .08699036 0 .10598755 0 .1289978 .0029907227 .14898682 .0029907227 .16799927 .0029907227 .19699097 .0039978029 .21499634 .0039978029 .23498535 .0039978029 .2579956 .0029907227 .2789917 .0029907227 .2999878 .0029907227 .32499696 0 .34599305 0 .35099793 0 .36698915 0 .36698915 .020996094 .36698915 .035995485 .35699464 .035995485 .33399964 .035995485 .31799317 .035995485 .31399537 .035995485 .29599 .037994386 .27398683 .041000368 .27398683 .042999269 .27398683 .052993776 .27398683 .054000856 .27398683 .05999756 .27799989 .07501221L.34098817 .328125H.47698976C.5629883 .328125 .59999087 .2851715 .59999087 .23822022 .59999087 .22523499 .59098818 .19126892 .58599856 .16828919 .57398989 .12234497 .56999209 .10736084 .56999209 .09037781 .56999209 .011459351 .6429901-.01953125 .71699526-.01953125 .8089905-.01953125 .848999 .0783844 .848999 .09637451 .848999 .099365238 .8470001 .11035156 .83200076 .11035156 .81900027 .11035156 .81700137 .10336304 .81399539 .09336853 .7999878 .049423219 .7630005 .008468628 .72099307 .008468628 .69499209 .008468628 .6759949 .019454956 .6759949 .073394779 .6759949 .098358158 .6819916 .15031433 .6859894 .17727661 .6899872 .20425415 .6899872 .2142334 .6899872 .2242279 .6899872 .23622132 .6899872 .26818849 .6619873 .29815675 .6429901 .3191223 .6159973 .3321228 .59399417 .3401184Z"/>
<path id="font_3_5" d="M.6279907 .5686035C.6769867 .64660647 .71899417 .6496124 .7559967 .6516113 .7679901 .65260317 .7689972 .6696167 .7689972 .6706085 .7689972 .6786041 .7639923 .6826172 .7559967 .6826172 .7299957 .6826172 .70098879 .6796112 .673996 .6796112 .6409912 .6796112 .6069946 .6826172 .57499697 .6826172 .56900027 .6826172 .55599978 .6826172 .55599978 .66360476 .55599978 .65260317 .5649872 .6516113 .57199099 .6516113 .598999 .6496124 .6179962 .63960269 .6179962 .61860659 .6179962 .6036072 .6029968 .581604 .6029968 .5805969L.29599 .092544559 .22799683 .62161257C.22799683 .63861086 .25099183 .6516113 .29699708 .6516113 .31098939 .6516113 .32199098 .6516113 .32199098 .6716156 .32199098 .680603 .31399537 .6826172 .30799867 .6826172 .2679901 .6826172 .22499085 .6796112 .18399048 .6796112 .1659851 .6796112 .14698792 .680603 .1289978 .680603 .11099243 .680603 .09199524 .6826172 .07499695 .6826172 .067993167 .6826172 .055999757 .6826172 .055999757 .66360476 .055999757 .6516113 .06498718 .6516113 .08099365 .6516113 .13699341 .6516113 .13798523 .64260867 .14099121 .6175995L.21998596 .0005340576C.22299195-.019470215 .22698975-.022460938 .23999024-.022460938 .2559967-.022460938 .2599945-.017471314 .2679901-.004470825L.6279907 .5686035Z"/>
<path id="font_5_66" d="M.27398683 0V.035995485C.21598816 .035995485 .20599365 .035995485 .20599365 .07803345V.44140626L.05899048 .43052674V.39453126C.12199402 .39453126 .1309967 .3885193 .1309967 .33952333V.07952881C.1309967 .035995485 .12098694 .035995485 .055999757 .035995485V0C.055999757 0 .12799073 .0039978029 .16799927 .0039978029 .20298767 .0039978029 .23899842 .0029907227 .27398683 0M.21899414 .60214236C.21899414 .6341553 .19400025 .66015627 .1619873 .66015627 .12799073 .66015627 .10499573 .6321411 .10499573 .6031494 .10499573 .57115176 .12998963 .54515078 .1619873 .54515078 .19599915 .54515078 .21899414 .57315066 .21899414 .60214236Z"/>
<path id="font_5_77" d="M.58999636 0V.035995485C.5249939 .035995485 .5149994 .035995485 .5149994 .07904053V.3032837C.5149994 .3903656 .47200013 .44140626 .36499024 .44140626 .2829895 .44140626 .22999573 .39637757 .20199585 .34432984H.20098877V.44140626L.053985597 .43052674V.39453126C.12098694 .39453126 .1289978 .3875122 .1289978 .33843995V.079055789C.1289978 .035995485 .11898804 .035995485 .053985597 .035995485V0C.053985597 0 .12599182 .0039978029 .16799927 .0039978029 .20498657 .0039978029 .27398683 .0009918213 .2829895 0V.035995485C.21798706 .035995485 .20799256 .035995485 .20799256 .079055789V.25932313C.20799256 .36434938 .29100038 .4133911 .35699464 .4133911 .4269867 .4133911 .43598939 .3583374 .43598939 .3072815V.07904053C.43598939 .035995485 .42599488 .035995485 .36099244 .035995485V0C.36099244 0 .43299867 .0039978029 .47499085 .0039978029 .5119934 .0039978029 .58099368 .0009918213 .58999636 0Z"/>
<path id="font_4_3" d="M.4119873 .600708C.42099 .63668826 .42399598 .64668276 .5159912 .64668276 .5469971 .64668276 .5569916 .64668276 .5569916 .6686859 .5569916 .66967776 .55599978 .6826782 .5399933 .6826782 .5169983 .6826782 .48999024 .6806793 .46598817 .6796875 .44099427 .6786804 .41099549 .6786804 .38598634 .6786804 .36499024 .6786804 .33799745 .6796875 .31698609 .6796875 .29599 .6796875 .27198792 .6826782 .2519989 .6826782 .24598694 .6826782 .23098755 .6826782 .23098755 .66067507 .23098755 .64668276 .24299622 .64668276 .2630005 .64668276 .2639923 .64668276 .2829895 .64668276 .30099488 .64468386 .32199098 .64268496 .32398988 .64068606 .32398988 .6306915 .32398988 .6286926 .32398988 .623703 .31999208 .6087036L.18699646 .07797241C.17799378 .04399109 .17599488 .035995485 .09899902 .035995485 .08198547 .035995485 .068984989 .035995485 .068984989 .01499939 .068984989 0 .08099365 0 .09899902 0H.60198977C.6269989 0 .6279907 .0009918213 .6359863 .019989014 .6459961 .04698181 .72099307 .2408905 .72099307 .24888611 .72099307 .25187684 .71899417 .26287843 .70399478 .26287843 .69200137 .26287843 .6899872 .25787355 .6839905 .24188233 .6459961 .14694214 .60198977 .035995485 .4189911 .035995485H.30599977C.2749939 .035995485 .27398683 .036987306 .27398683 .04598999 .27398683 .04698181 .27398683 .051986696 .27799989 .066970828L.4119873 .600708Z"/>
<path id="font_2_2" d="M.68699648 .32714845C.70199587 .32714845 .72099307 .32714845 .72099307 .34713746 .72099307 .36714173 .70199587 .36714173 .6879883 .36714173H.08898926C.07499695 .36714173 .055999757 .36714173 .055999757 .34713746 .055999757 .32714845 .07499695 .32714845 .08999634 .32714845H.68699648M.6879883 .13284302C.70199587 .13284302 .72099307 .13284302 .72099307 .15284729 .72099307 .17285156 .70199587 .17285156 .68699648 .17285156H.08999634C.07499695 .17285156 .055999757 .17285156 .055999757 .15284729 .055999757 .13284302 .07499695 .13284302 .08898926 .13284302H.6879883Z"/>
<path id="font_6_1" d="M.6589966 .23046875C.6759949 .23046875 .69400027 .23046875 .69400027 .25045777 .69400027 .27046205 .6759949 .27046205 .6589966 .27046205H.117996219C.100997928 .27046205 .08299255 .27046205 .08299255 .25045777 .08299255 .23046875 .100997928 .23046875 .117996219 .23046875H.6589966Z"/>
<path id="font_4_5" d="M.32398988 .6253052C.32398988 .64131167 .31199647 .66329959 .28399659 .66329959 .25698854 .66329959 .22799683 .6372986 .22799683 .6083069 .22799683 .5913086 .24099732 .5703125 .2679901 .5703125 .29699708 .5703125 .32398988 .5983124 .32398988 .6253052M.11999512 .117263797C.115997318 .104263309 .11099243 .09225464 .11099243 .07525635 .11099243 .02822876 .15098572-.009765625 .20599365-.009765625 .30599977-.009765625 .34999085 .12828064 .34999085 .14328003 .34999085 .15628052 .33699037 .15628052 .33399964 .15628052 .31999208 .15628052 .31900025 .15028382 .31498719 .13928223 .2919922 .059249879 .24798584 .018234253 .20899964 .018234253 .18899536 .018234253 .18399048 .031234742 .18399048 .053237916 .18399048 .07624817 .19099427 .09526062 .19999695 .117263797 .20999146 .14428711 .22099304 .17129517 .23199463 .1973114 .24099732 .22131348 .2769928 .3123474 .2809906 .32435609 .28399659 .33436585 .2869873 .3463745 .2869873 .35636903 .2869873 .4033966 .24699402 .44140626 .19198609 .44140626 .09298706 .44140626 .04699707 .3053589 .04699707 .28834535 .04699707 .27534486 .06098938 .27534486 .06399536 .27534486 .07798767 .27534486 .07899475 .28033448 .08198547 .29135133 .10798645 .37738038 .1519928 .4133911 .18899536 .4133911 .20498657 .4133911 .21398926 .4053955 .21398926 .37838746 .21398926 .3553772 .20799256 .34036256 .18299866 .27833558L.11999512 .117263797Z"/>
<path id="font_4_1" d="M.68299868 .37034608C.68299868 .4003601 .66999819 .44137574 .6289978 .44137574 .6049957 .44137574 .5779877 .41137696 .5779877 .38635255 .5779877 .35334779 .6319885 .346344 .6319885 .2783203 .6319885 .21429444 .56799319 .07022095 .45599366 .07022095 .4079895 .07022095 .36799623 .10324097 .35398866 .14726258 .36698915 .16926575 .3909912 .23829651 .3909912 .26431275 .3909912 .27931214 .38198854 .29432679 .36499024 .29432679 .31399537 .29432679 .30999757 .1862793 .30999757 .15126038 .28199769 .115249637 .23199463 .07022095 .16699219 .07022095 .11299133 .07022095 .07299805 .11924744 .07299805 .1862793 .07299805 .3023224 .17599488 .3993683 .17599488 .41436769 .17599488 .42637635 .1659851 .43737794 .15499878 .43737794 .14498902 .43737794 .13899231 .43237306 .13198853 .42337037 .11898804 .40837098 .10598755 .38635255 .09399414 .36634828 .05899048 .3063202 .033996583 .22129822 .033996583 .14926148 .033996583 .069229129 .06599426-.009765625 .1579895-.009765625 .22499085-.009765625 .2829895 .034225465 .31900025 .08824158 .33799745 .02822876 .38198854-.008773804 .44599916-.008773804 .621994-.008773804 .68299868 .287323 .68299868 .37034608Z"/>
<path id="font_4_2" d="M.84298709 .6901245C.84298709 .69511416 .83999636 .703125 .8299866 .703125 .82299807 .703125 .82099917 .70111086 .81199648 .69111636L.7389984 .61413577C.7299957 .62612918 .673996 .703125 .5509949 .703125 .30799867 .703125 .069992069 .48820497 .069992069 .2623291 .069992069 .09941101 .19799805-.01953125 .3769989-.01953125 .43099977-.01953125 .5269928-.008544922 .6299896 .078430179 .70899966 .14538574 .73098757 .23234558 .73098757 .24034119 .73098757 .25334168 .71899417 .25334168 .71398928 .25334168 .70098879 .25334168 .69898989 .24833679 .69599917 .23735047 .6549988 .10041809 .5149994 .016464234 .3939972 .016464234 .28799439 .016464234 .16999817 .07342529 .16999817 .23135376 .16999817 .2603302 .1769867 .4182434 .2919922 .5441742 .36099244 .6211395 .46598817 .66711428 .5609894 .66711428 .6769867 .66711428 .7449951 .5831604 .7449951 .47122193 .7449951 .4432373 .74198916 .43623353 .74198916 .43023683 .74198916 .4172516 .7549896 .4172516 .7599945 .4172516 .776001 .4172516 .776001 .4202423 .7809906 .4392395L.84298709 .6901245Z"/>
<path id="font_3_6" d="M.28399659 .6252594C.28399659 .6452637 .269989 .6612549 .24699402 .6612549 .21998596 .6612549 .19299317 .6352539 .19299317 .6082611 .19299317 .5892639 .20698548 .5722656 .23098755 .5722656 .2539978 .5722656 .28399659 .5952606 .28399659 .6252594M.20799256 .24932862C.21998596 .27833558 .21998596 .28033448 .22999573 .30734254 .23799134 .3273468 .24299622 .34135438 .24299622 .36035157 .24299622 .405365 .21099854 .4423828 .16099549 .4423828 .066986087 .4423828 .0289917 .29733277 .0289917 .28833009 .0289917 .27833558 .038986207 .27833558 .040985109 .27833558 .050994874 .27833558 .051986696 .28033448 .056991579 .29634095 .083999637 .3903656 .12399292 .42037965 .1579895 .42037965 .1659851 .42037965 .18299866 .42037965 .18299866 .3883667 .18299866 .36735536 .17599488 .346344 .17199707 .3363495 .1639862 .31033326 .11898804 .19430542 .102996829 .1512909 .09298706 .12528992 .07998657 .0922699 .07998657 .0712738 .07998657 .024261475 .11399841-.0107421879 .1619873-.0107421879 .2559967-.0107421879 .29299928 .1342926 .29299928 .14329529 .29299928 .1532898 .28399659 .1532898 .2809906 .1532898 .2709961 .1532898 .2709961 .15029907 .2659912 .13528443 .24798584 .072265628 .21499634 .011245728 .1639862 .011245728 .14698792 .011245728 .13999939 .021255494 .13999939 .044265748 .13999939 .0692749 .1459961 .08326721 .16899109 .14428711L.20799256 .24932862Z"/>
<path id="font_3_2" d="M.6049957 .37234498C.6049957 .4173584 .58699038 .4423523 .5649872 .4423523 .5389862 .4423523 .5119934 .41835023 .5119934 .39533998 .5119934 .38534547 .5169983 .37434388 .5269928 .3653412 .5439911 .35032655 .56199648 .32331849 .56199648 .28131105 .56199648 .24130249 .54299929 .1842804 .5119934 .13827515 .48199464 .09526062 .44499208 .06124878 .397995 .06124878 .34098817 .06124878 .30999757 .09725952 .30099488 .15127564 .31199647 .17727661 .33499146 .24130249 .33499146 .26930238 .33499146 .28131105 .32998658 .2913208 .31698609 .2913208 .30899049 .2913208 .2979889 .2893219 .2899933 .27430726 .2789917 .25430299 .2669983 .18928528 .2669983 .15327454 .23399353 .10626221 .19400025 .06124878 .1309967 .06124878 .06498718 .06124878 .04399109 .120269779 .04399109 .17628479 .04399109 .3013153 .1459961 .40634156 .1459961 .4193573 .1459961 .4303589 .13798523 .4383545 .1269989 .4383545 .11399841 .4383545 .10699463 .425354 .100997928 .41635133 .049987794 .34233094 .011993408 .22329712 .011993408 .13226319 .011993408 .06324768 .034988405-.0107421879 .116989139-.0107421879 .18798828-.0107421879 .23498535 .039245607 .2709961 .09425354 .27999879 .036254884 .31900025-.0107421879 .3809967-.0107421879 .45899964-.0107421879 .5069885 .050247194 .54299929 .12527466 .5669861 .17428589 .6049957 .310318 .6049957 .37234498Z"/>
<path id="font_3_3" d="M.7599945 .69506838C.7599945 .69807437 .7579956 .7050781 .7489929 .7050781 .74598696 .7050781 .7449951 .70407107 .73399356 .69306948L.6639862 .61602786C.6549988 .6300354 .60899356 .7050781 .49798585 .7050781 .2749939 .7050781 .049987794 .48391725 .049987794 .25172425 .049987794 .08659363 .16799927-.022460938 .32099916-.022460938 .4079895-.022460938 .48399354 .017532349 .5369873 .063583377 .6299896 .14564514 .6469879 .2367096 .6469879 .23971558 .6469879 .24972534 .6369934 .24972534 .6349945 .24972534 .6289978 .24972534 .6239929 .24772644 .621994 .23971558 .61299136 .21069336 .58999636 .13963318 .5209961 .081588748 .45199586 .025543213 .3889923 .008529663 .33699037 .008529663 .24699402 .008529663 .14099121 .060577394 .14099121 .21670532 .14099121 .27374269 .1619873 .43588258 .2619934 .55296328 .32299806 .62402346 .4169922 .67407229 .5059967 .67407229 .60798647 .67407229 .6669922 .5970001 .6669922 .48091126 .6669922 .44088746 .6639862 .43988038 .6639862 .4298706 .6639862 .41986085 .6749878 .41986085 .67900088 .41986085 .69200137 .41986085 .69200137 .42185975 .69699099 .43988038L.7599945 .69506838Z"/>
<path id="font_2_1" d="M.40899659 .23046875H.6879883C.70199587 .23046875 .72099307 .23046875 .72099307 .25045777 .72099307 .27046205 .70199587 .27046205 .6879883 .27046205H.40899659V.5500183C.40899659 .56399539 .40899659 .5830078 .3889923 .5830078 .36898805 .5830078 .36898805 .56399539 .36898805 .5500183V.27046205H.08898926C.07499695 .27046205 .055999757 .27046205 .055999757 .25045777 .055999757 .23046875 .07499695 .23046875 .08898926 .23046875H.36898805V-.05000305C.36898805-.06401062 .36898805-.08300781 .3889923-.08300781 .40899659-.08300781 .40899659-.06401062 .40899659-.05000305V.23046875Z"/>
<path id="font_3_1" d="M.43699647 .67033389C.43699647 .67233279 .43998719 .68333438 .43998719 .6843262 .43998719 .68533328 .43998719 .69433596 .42799378 .69433596 .41799928 .69433596 .4169922 .69132998 .41299439 .67433169L.35499574 .44337464C.19599915 .43836976 .04899597 .30532838 .04899597 .169281 .04899597 .07424927 .11898804-.004776001 .24099732-.011779785 .23298645-.04283142 .22599793-.07489014 .21798706-.10594177 .20599365-.1530304 .19599915-.19108582 .19599915-.1940918 .19599915-.2040863 .20298767-.20507813 .20799256-.20507813 .21299744-.20507813 .21499634-.2040863 .21798706-.20108032 .21998596-.19908142 .22599793-.17506409 .22898865-.16104126L.2669983-.011779785C.42799378-.0067749025 .57299807 .12826538 .57299807 .26231385 .57299807 .3413391 .519989 .43338014 .3809967 .44337464L.43699647 .67033389M.24598694 .010223389C.18598938 .01322937 .11399841 .048233034 .11399841 .14826966 .11399841 .2683258 .19999695 .40837098 .34899903 .42137147L.24598694 .010223389M.375 .42137147C.45098878 .41737367 .5079956 .37135316 .5079956 .2833252 .5079956 .1652832 .42199708 .022232056 .27198792 .010223389L.375 .42137147Z"/>
<path id="font_7_95" d="M.7319946 .08753967C.7319946 .09353638 .7319946 .104537967 .71899417 .104537967 .70799258 .104537967 .70799258 .09555054 .70700076 .08854675 .70098879 .017532349 .66600039-.00047302247 .6409912-.00047302247 .59199526-.00047302247 .58399966 .05053711 .56999209 .14355469L.5569916 .22355652C.5389862 .28756715 .48999024 .3205719 .43499757 .3395691 .5319977 .36357118 .6100006 .4245758 .6100006 .502594 .6100006 .5986023 .49598695 .6826172 .34899903 .6826172H.034988405V.6516113H.05899048C.13598633 .6516113 .13798523 .64060977 .13798523 .604599V.077545169C.13798523 .04197693 .13598633 .0309906 .05899048 .0309906H.034988405V0C.070999149 .0029907227 .14199829 .0029907227 .18099976 .0029907227 .21998596 .0029907227 .29100038 .0029907227 .32699586 0V.0309906H.30299378C.22599793 .0309906 .22399903 .04197693 .22399903 .077926639V.3305359H.33898927C.35499574 .3305359 .39698792 .3305359 .43199159 .29658509 .46998597 .26063539 .46998597 .22969055 .46998597 .16279602 .46998597 .09788513 .46998597 .05795288 .5109863 .019989014 .5519867-.016464234 .6069946-.022460938 .6369934-.022460938 .71499636-.022460938 .7319946 .059524537 .7319946 .087524417V.08753967M.5069885 .5025635C.5069885 .43354798 .48298646 .35253907 .33499146 .35253907H.22399903V.6116028C.22399903 .6345978 .22399903 .64660647 .24598694 .6496124 .2559967 .6516113 .2849884 .6516113 .30499269 .6516113 .394989 .6516113 .5069885 .6476135 .5069885 .5025635Z"/>
<path id="font_7_50" d="M.4149933 .11933899C.4149933 .12934876 .40699769 .13134766 .4019928 .13134766 .3929901 .13134766 .3909912 .12535095 .3889923 .11734009 .35398866 .014251709 .2639923 .014251709 .2539978 .014251709 .20399475 .014251709 .1639862 .044281007 .14099121 .08131409 .11099243 .12934876 .11099243 .19540406 .11099243 .23144531H.3899994C.4119873 .23144531 .4149933 .23144531 .4149933 .2524414 .4149933 .35131837 .36099244 .4482422 .23599243 .4482422 .11999512 .4482422 .027999878 .34532167 .027999878 .22042847 .027999878 .08631897 .1329956-.0107421879 .24798584-.0107421879 .36999513-.0107421879 .4149933 .10032654 .4149933 .11933899M.34899903 .2524414H.11199951C.117996219 .40126039 .20199585 .426239 .23599243 .426239 .33898927 .426239 .34899903 .2913971 .34899903 .2524414Z"/>
<path id="font_7_65" d="M.33299256 0V.0309906H.30699159C.22799683 .0309906 .22499085 .041992189 .22499085 .07795715V.6046295C.22499085 .64060977 .22799683 .6516113 .30699159 .6516113H.33299256V.6826172C.2979889 .6796112 .21899414 .6796112 .18099976 .6796112 .14199829 .6796112 .06298828 .6796112 .027999878 .6826172V.6516113H.053985597C.1329956 .6516113 .13598633 .64060977 .13598633 .6046295V.07795715C.13598633 .041992189 .1329956 .0309906 .053985597 .0309906H.027999878V0C.06298828 .0029907227 .14199829 .0029907227 .17999268 .0029907227 .21899414 .0029907227 .2979889 .0029907227 .33299256 0Z"/>
<path id="font_7_75" d="M.8129883 0V.0309906C.7609863 .0309906 .73599246 .0309906 .7350006 .061019899V.25221253C.7350006 .3383026 .7350006 .36932374 .70399478 .405365 .6899872 .42237855 .6569977 .4423828 .598999 .4423828 .5149994 .4423828 .47099305 .38233949 .45399476 .34429933 .43998719 .43138124 .3659973 .4423828 .32099916 .4423828 .24798584 .4423828 .20098877 .39935304 .17298889 .33729554V.4423828L.03199768 .43066407V.3996582C.101989749 .3996582 .10998535 .39266969 .10998535 .34370423V.07595825C.10998535 .0309906 .09899902 .0309906 .03199768 .0309906V0L.14498902 .0029907227 .25698854 0V.0309906C.18998719 .0309906 .1789856 .0309906 .1789856 .07595825V.25978089C.1789856 .36431886 .25 .42037965 .31399537 .42037965 .3769989 .42037965 .3880005 .36631776 .3880005 .30926515V.076034549C.3880005 .0309906 .3769989 .0309906 .30999757 .0309906V0L.4229889 .0029907227 .5349884 0V.0309906C.46798707 .0309906 .45700074 .0309906 .45700074 .076034549V.2602234C.45700074 .36431886 .5279999 .42037965 .59199526 .42037965 .6549988 .42037965 .66600039 .36631776 .66600039 .30926515V.076034549C.66600039 .0309906 .6549988 .0309906 .58799746 .0309906V0L.70098879 .0029907227 .8129883 0Z"/>
</defs>
<path transform="matrix(1,0,0,-1.00003,31.773003,165.71662)" stroke-width=".3985" stroke-linecap="butt" stroke-miterlimit="10" stroke-linejoin="miter" fill="none" stroke="#000000" d="M-30.67741 104.42998H161.5958"/>
<path transform="matrix(1,0,0,-1.00003,193.3688,61.2835)" d="M1.99252 0-1.19551 1.59401 0 0-1.19551-1.59401"/>
<path transform="matrix(1,0,0,-1.00003,31.773003,165.71662)" stroke-width=".3985" stroke-linecap="butt" stroke-miterlimit="10" stroke-linejoin="miter" fill="none" stroke="#000000" d="M37.97453 0V159.39928"/>
<path transform="matrix(0,-1.00003,-1,-0,69.74753,6.312546)" d="M1.99252 0-1.19551 1.59401 0 0-1.19551-1.59401"/>
<g clip-path="url(#clip_1)">
<path transform="matrix(1,0,0,-1.00003,31.773003,165.71662)" stroke-width="1.59404" stroke-linecap="butt" stroke-miterlimit="10" stroke-linejoin="miter" fill="none" stroke="#0000ff" d="M37.97453 104.42998H121.82321"/>
<path transform="matrix(1,0,0,-1.00003,154.39322,61.2835)" stroke-width="1.59404" stroke-linecap="round" stroke-linejoin="round" fill="none" stroke="#0000ff" d="M-3.5069 4.55072C-2.8662 1.82025-1.43846 .5309 0 0-1.43846-.5309-2.8662-1.82025-3.5069-4.55072"/>
<use data-text="&#x02dc;" xlink:href="#font_2_3" transform="matrix(9.9626,0,0,-9.962899,133.84,53.15323)" fill="#0000ff"/>
<use data-text="I" xlink:href="#font_3_4" transform="matrix(9.9626,0,0,-9.962899,132.643,55.67131)" fill="#0000ff"/>
<use data-text="R" xlink:href="#font_4_4" transform="matrix(6.9738,0,0,-6.9740097,137.02301,57.16635)" fill="#0000ff"/>
<path transform="matrix(1,0,0,-1.00003,31.773003,165.71662)" stroke-width="1.19553" stroke-linecap="butt" stroke-miterlimit="10" stroke-linejoin="miter" fill="none" stroke="#ff0000" d="M37.97453 104.42998H74.75356"/>
<path transform="matrix(1,0,0,-1.00003,107.12432,61.2835)" stroke-width="1.19553" stroke-linecap="round" stroke-linejoin="round" fill="none" stroke="#ff0000" d="M-3.02867 3.83081C-2.47534 1.53229-1.24231 .44691 0 0-1.24231-.44691-2.47534-1.53229-3.02867-3.83081"/>
<use data-text="&#x02dc;" xlink:href="#font_2_3" transform="matrix(9.9626,0,0,-9.962899,92.36301,53.352228)" fill="#ff0000"/>
<use data-text="V" xlink:href="#font_3_5" transform="matrix(9.9626,0,0,-9.962899,90.841,55.870309)" fill="#ff0000"/>
<use data-text="i" xlink:href="#font_5_66" transform="matrix(6.9738,0,0,-6.9740097,96.653,57.36535)" fill="#ff0000"/>
<use data-text="n" xlink:href="#font_5_77" transform="matrix(6.9738,0,0,-6.9740097,98.90554,57.36535)" fill="#ff0000"/>
<path transform="matrix(1,0,0,-1.00003,31.773003,165.71662)" stroke-width="1.19553" stroke-linecap="butt" stroke-miterlimit="10" stroke-linejoin="miter" fill="none" stroke="#0000ff" d="M37.97453 104.42998V10.68915"/>
<path transform="matrix(0,1.00003,1,0,69.74753,155.62493)" stroke-width="1.19553" stroke-linecap="round" stroke-linejoin="round" fill="none" stroke="#0000ff" d="M-3.02867 3.83081C-2.47534 1.53229-1.24231 .44691 0 0-1.24231-.44691-2.47534-1.53229-3.02867-3.83081"/>
<use data-text="&#x02dc;" xlink:href="#font_2_3" transform="matrix(9.9626,0,0,-9.962899,9.562004,137.58377)" fill="#0000ff"/>
<use data-text="I" xlink:href="#font_3_4" transform="matrix(9.9626,0,0,-9.962899,8.3650059,140.10184)" fill="#0000ff"/>
<use data-text="L" xlink:href="#font_4_3" transform="matrix(6.9738,0,0,-6.9740097,12.745003,141.5969)" fill="#0000ff"/>
<use data-text="=" xlink:href="#font_2_2" transform="matrix(9.9626,0,0,-9.962899,21.476006,140.10184)" fill="#0000ff"/>
<use data-text="&#x2212;" xlink:href="#font_6_1" transform="matrix(9.9626,0,0,-9.962899,31.992005,140.10184)" fill="#0000ff"/>
<use data-text="i" xlink:href="#font_4_5" transform="matrix(6.9738,0,0,-6.9740097,44.894014,136.17975)" fill="#0000ff"/>
<path transform="matrix(1,0,0,-1.00003,-105.606998,-13.420769)" stroke-width=".3985" stroke-linecap="butt" stroke-miterlimit="10" stroke-linejoin="miter" fill="none" stroke="#0000ff" d="M146.543-151.028H157.278"/>
<use data-text="&#x03c9;" xlink:href="#font_4_1" transform="matrix(6.9738,0,0,-6.9740097,40.936006,143.53794)" fill="#0000ff"/>
<use data-text="L" xlink:href="#font_4_3" transform="matrix(6.9738,0,0,-6.9740097,46.194246,143.53794)" fill="#0000ff"/>
<use data-text="&#x02dc;" xlink:href="#font_2_3" transform="matrix(9.9626,0,0,-9.962899,54.388,137.58377)" fill="#0000ff"/>
<use data-text="V" xlink:href="#font_3_5" transform="matrix(9.9626,0,0,-9.962899,52.865999,140.10184)" fill="#0000ff"/>
<use data-text="i" xlink:href="#font_5_66" transform="matrix(6.9738,0,0,-6.9740097,58.677995,141.5969)" fill="#0000ff"/>
<use data-text="n" xlink:href="#font_5_77" transform="matrix(6.9738,0,0,-6.9740097,60.930528,141.5969)" fill="#0000ff"/>
<path transform="matrix(1,0,0,-1.00003,31.773003,165.71662)" stroke-width="1.19553" stroke-linecap="butt" stroke-miterlimit="10" stroke-linejoin="miter" fill="none" stroke="#0000ff" d="M37.97453 104.42998V141.20902"/>
<path transform="matrix(0,-1.00003,-1,-0,69.74753,23.905594)" stroke-width="1.19553" stroke-linecap="round" stroke-linejoin="round" fill="none" stroke="#0000ff" d="M-3.02867 3.83081C-2.47534 1.53229-1.24231 .44691 0 0-1.24231-.44691-2.47534-1.53229-3.02867-3.83081"/>
<use data-text="&#x02dc;" xlink:href="#font_2_3" transform="matrix(9.9626,0,0,-9.962899,11.875,19.174195)" fill="#0000ff"/>
<use data-text="I" xlink:href="#font_3_4" transform="matrix(9.9626,0,0,-9.962899,10.678001,21.692276)" fill="#0000ff"/>
<use data-text="C" xlink:href="#font_4_2" transform="matrix(6.9738,0,0,-6.9740097,15.057999,23.187317)" fill="#0000ff"/>
<use data-text="=" xlink:href="#font_2_2" transform="matrix(9.9626,0,0,-9.962899,24.526001,21.692276)" fill="#0000ff"/>
<use data-text="i" xlink:href="#font_3_6" transform="matrix(9.9626,0,0,-9.962899,35.042,21.692276)" fill="#0000ff"/>
<use data-text="&#x03c9;" xlink:href="#font_3_2" transform="matrix(9.9626,0,0,-9.962899,38.46914,21.692276)" fill="#0000ff"/>
<use data-text="C" xlink:href="#font_3_3" transform="matrix(9.9626,0,0,-9.962899,45.014566,21.692276)" fill="#0000ff"/>
<use data-text="&#x02dc;" xlink:href="#font_2_3" transform="matrix(9.9626,0,0,-9.962899,54.38801,19.174195)" fill="#0000ff"/>
<use data-text="V" xlink:href="#font_3_5" transform="matrix(9.9626,0,0,-9.962899,52.866006,21.692276)" fill="#0000ff"/>
<use data-text="i" xlink:href="#font_5_66" transform="matrix(6.9738,0,0,-6.9740097,58.678,23.187317)" fill="#0000ff"/>
<use data-text="n" xlink:href="#font_5_77" transform="matrix(6.9738,0,0,-6.9740097,60.930536,23.187317)" fill="#0000ff"/>
<path transform="matrix(1,0,0,-1.00003,31.773003,165.71662)" stroke-width=".3985" stroke-linecap="butt" stroke-dasharray="2.98883,2.98883" stroke-miterlimit="10" stroke-linejoin="miter" fill="none" stroke="#000000" d="M37.97453 47.46817H123.41725V104.42998"/>
<path transform="matrix(1,0,0,-1.00003,31.773003,165.71662)" stroke-width="1.19553" stroke-linecap="butt" stroke-miterlimit="10" stroke-linejoin="miter" fill="none" stroke="#0000ff" d="M37.97453 104.42998 122.42258 48.13129"/>
<path transform="matrix(.83202,.55468669,.55467,-.83204498,154.6929,117.91545)" stroke-width="1.19553" stroke-linecap="round" stroke-linejoin="round" fill="none" stroke="#0000ff" d="M-3.02867 3.83081C-2.47534 1.53229-1.24231 .44691 0 0-1.24231-.44691-2.47534-1.53229-3.02867-3.83081"/>
<path transform="matrix(1,0,0,-1.00003,31.773003,165.71662)" stroke-width=".3985" stroke-linecap="butt" stroke-miterlimit="10" stroke-linejoin="miter" fill="none" stroke="#0000ff" d="M142.40453 47.46817"/>
<use data-text="&#x02dc;" xlink:href="#font_2_3" transform="matrix(9.9626,0,0,-9.962899,90.348,128.42148)" fill="#0000ff"/>
<use data-text="I" xlink:href="#font_3_4" transform="matrix(9.9626,0,0,-9.962899,89.151,130.93958)" fill="#0000ff"/>
<use data-text="i" xlink:href="#font_5_66" transform="matrix(6.9738,0,0,-6.9740097,93.531,132.4346)" fill="#0000ff"/>
<use data-text="n" xlink:href="#font_5_77" transform="matrix(6.9738,0,0,-6.9740097,95.78354,132.4346)" fill="#0000ff"/>
<use data-text="=" xlink:href="#font_2_2" transform="matrix(9.9626,0,0,-9.962899,103.449008,130.93958)" fill="#0000ff"/>
<use data-text="&#x02dc;" xlink:href="#font_2_3" transform="matrix(9.9626,0,0,-9.962899,115.162,128.42148)" fill="#0000ff"/>
<use data-text="I" xlink:href="#font_3_4" transform="matrix(9.9626,0,0,-9.962899,113.965,130.93958)" fill="#0000ff"/>
<use data-text="L" xlink:href="#font_4_3" transform="matrix(6.9738,0,0,-6.9740097,118.345,132.4346)" fill="#0000ff"/>
<use data-text="+" xlink:href="#font_2_1" transform="matrix(9.9626,0,0,-9.962899,126.522,130.93958)" fill="#0000ff"/>
<use data-text="&#x02dc;" xlink:href="#font_2_3" transform="matrix(9.9626,0,0,-9.962899,137.682,128.42148)" fill="#0000ff"/>
<use data-text="I" xlink:href="#font_3_4" transform="matrix(9.9626,0,0,-9.962899,136.485,130.93958)" fill="#0000ff"/>
<use data-text="R" xlink:href="#font_4_4" transform="matrix(6.9738,0,0,-6.9740097,140.864,132.4346)" fill="#0000ff"/>
<use data-text="+" xlink:href="#font_2_1" transform="matrix(9.9626,0,0,-9.962899,149.614,130.93958)" fill="#0000ff"/>
<use data-text="&#x02dc;" xlink:href="#font_2_3" transform="matrix(9.9626,0,0,-9.962899,160.773,128.42148)" fill="#0000ff"/>
<use data-text="I" xlink:href="#font_3_4" transform="matrix(9.9626,0,0,-9.962899,159.57599,130.93958)" fill="#0000ff"/>
<use data-text="C" xlink:href="#font_4_2" transform="matrix(6.9738,0,0,-6.9740097,163.956,132.4346)" fill="#0000ff"/>
<path transform="matrix(1,0,0,-1.00003,31.773003,165.71662)" stroke-width=".3985" stroke-linecap="butt" stroke-miterlimit="10" stroke-linejoin="miter" fill="none" stroke="#000000" d="M85.3622 72.82698C91.52737 82.07133 94.85689 92.92494 94.93466 104.03157"/>
<path transform="matrix(0,-1.00003,-1,-0,126.709117,61.482805)" stroke-width=".3985" stroke-linecap="round" stroke-linejoin="round" fill="none" stroke="#000000" d="M-2.07224 2.39104C-1.69365 .95639-.84999 .27895 0 0-.84999-.27895-1.69365-.95639-2.07224-2.39104"/>
<use data-text="&#x03d5;" xlink:href="#font_3_1" transform="matrix(9.9626,0,0,-9.962899,127.853008,78.43599)"/>
</g>
<use data-text="R" xlink:href="#font_7_95" transform="matrix(9.9626,0,0,-9.962899,198.88101,64.57658)"/>
<use data-text="e" xlink:href="#font_7_50" transform="matrix(9.9626,0,0,-9.962899,206.21347,64.57658)"/>
<use data-text="I" xlink:href="#font_7_65" transform="matrix(9.9626,0,0,-9.962899,73.267,7.721863)"/>
<use data-text="m" xlink:href="#font_7_75" transform="matrix(9.9626,0,0,-9.962899,76.863498,7.721863)"/>
</svg>
