<svg xmlns="http://www.w3.org/2000/svg" xmlns:xlink="http://www.w3.org/1999/xlink" xmlns:inkscape="http://www.inkscape.org/namespaces/inkscape" version="1.1" width="251" height="155" viewBox="0 0 251 155">
<defs>
<path id="font_1_9" d="M.41600038 .6529541 .3999939 .66796877C.3999939 .66696169 .3619995 .6199646 .31799317 .6199646 .29499818 .6199646 .269989 .634964 .25299073 .6449585 .22599793 .66096499 .20799256 .66796877 .19099427 .66796877 .15299988 .66796877 .13398743 .6459656 .08299255 .5899658L.09899902 .57496646C.09899902 .57595828 .13699341 .6229553 .18099976 .6229553 .20399475 .6229553 .22898865 .60795596 .24598694 .5979614 .272995 .58195498 .29100038 .57496646 .30799867 .57496646 .34599305 .57496646 .36499024 .59695437 .41600038 .6529541Z"/>
<path id="font_2_4" d="M.6279907 .5686035C.6769867 .64660647 .71899417 .6496124 .7559967 .6516113 .7679901 .65260317 .7689972 .6696167 .7689972 .6706085 .7689972 .6786041 .7639923 .6826172 .7559967 .6826172 .7299957 .6826172 .70098879 .6796112 .673996 .6796112 .6409912 .6796112 .6069946 .6826172 .57499697 .6826172 .56900027 .6826172 .55599978 .6826172 .55599978 .66360476 .55599978 .65260317 .5649872 .6516113 .57199099 .6516113 .598999 .6496124 .6179962 .63960269 .6179962 .61860659 .6179962 .6036072 .6029968 .581604 .6029968 .5805969L.29599 .092544559 .22799683 .62161257C.22799683 .63861086 .25099183 .6516113 .29699708 .6516113 .31098939 .6516113 .32199098 .6516113 .32199098 .6716156 .32199098 .680603 .31399537 .6826172 .30799867 .6826172 .2679901 .6826172 .22499085 .6796112 .18399048 .6796112 .1659851 .6796112 .14698792 .680603 .1289978 .680603 .11099243 .680603 .09199524 .6826172 .07499695 .6826172 .067993167 .6826172 .055999757 .6826172 .055999757 .66360476 .055999757 .6516113 .06498718 .6516113 .08099365 .6516113 .13699341 .6516113 .13798523 .64260867 .14099121 .6175995L.21998596 .0005340576C.22299195-.019470215 .22698975-.022460938 .23999024-.022460938 .2559967-.022460938 .2599945-.017471314 .2679901-.004470825L.6279907 .5686035Z"/>
<path id="font_3_66" d="M.27398683 0V.035995485C.21598816 .035995485 .20599365 .035995485 .20599365 .07803345V.44140626L.05899048 .43052674V.39453126C.12199402 .39453126 .1309967 .3885193 .1309967 .33952333V.07952881C.1309967 .035995485 .12098694 .035995485 .055999757 .035995485V0C.055999757 0 .12799073 .0039978029 .16799927 .0039978029 .20298767 .0039978029 .23899842 .0029907227 .27398683 0M.21899414 .60214236C.21899414 .6341553 .19400025 .66015627 .1619873 .66015627 .12799073 .66015627 .10499573 .6321411 .10499573 .6031494 .10499573 .57115176 .12998963 .54515078 .1619873 .54515078 .19599915 .54515078 .21899414 .57315066 .21899414 .60214236Z"/>
<path id="font_3_77" d="M.58999636 0V.035995485C.5249939 .035995485 .5149994 .035995485 .5149994 .07904053V.3032837C.5149994 .3903656 .47200013 .44140626 .36499024 .44140626 .2829895 .44140626 .22999573 .39637757 .20199585 .34432984H.20098877V.44140626L.053985597 .43052674V.39453126C.12098694 .39453126 .1289978 .3875122 .1289978 .33843995V.079055789C.1289978 .035995485 .11898804 .035995485 .053985597 .035995485V0C.053985597 0 .12599182 .0039978029 .16799927 .0039978029 .20498657 .0039978029 .27398683 .0009918213 .2829895 0V.035995485C.21798706 .035995485 .20799256 .035995485 .20799256 .079055789V.25932313C.20799256 .36434938 .29100038 .4133911 .35699464 .4133911 .4269867 .4133911 .43598939 .3583374 .43598939 .3072815V.07904053C.43598939 .035995485 .42599488 .035995485 .36099244 .035995485V0C.36099244 0 .43299867 .0039978029 .47499085 .0039978029 .5119934 .0039978029 .58099368 .0009918213 .58999636 0Z"/>
<path id="font_3_105" d="M.375 .12606812V.1809845H.34098817V.12705994C.34098817 .059173585 .30899049 .022232056 .269989 .022232056 .20098877 .022232056 .20098877 .10609436 .20098877 .124069217V.39465333H.35699464V.43066407H.20098877V.6142578H.16699219C.1659851 .5244446 .125 .42565919 .0289917 .4226532V.39465333H.12199402V.1250763C.12199402 .01322937 .20599365-.009765625 .2619934-.009765625 .32899476-.010009766 .375 .04699707 .375 .12599182V.12606812Z"/>
<path id="font_2_5" d="M.7200012 .6586151C.72099307 .6626129 .72299197 .66760256 .72299197 .6736145 .72299197 .6826172 .71798709 .6826172 .69799807 .6826172H.27598573C.2519989 .6826172 .25099183 .6816101 .24499512 .6626129L.18998719 .4827118C.18798828 .47772218 .18699646 .47071839 .18699646 .46871949 .18699646 .46772767 .18699646 .45773316 .19898987 .45773316 .20799256 .45773316 .20999146 .46472169 .21199036 .46772767 .25 .5856476 .3019867 .6516113 .45799256 .6516113H.62098696L.06199646 .026992798C.06199646 .025985718 .057998659 .011993408 .057998659 .008987427 .057998659 0 .06498718 0 .08299255 0H.5179901C.5419922 0 .54299929 .0009918213 .548996 .019989014L.6199951 .24085999C.62098696 .24485779 .6239929 .25186158 .6239929 .25585938 .6239929 .260849 .6199951 .2668457 .61099246 .2668457 .60198977 .2668457 .6009979 .2628479 .59399417 .24186707 .5499878 .10594177 .5019989 .033996583 .33198548 .033996583H.16099549L.7200012 .6586151Z"/>
<path id="font_3_59" d="M.54499819 .40040589C.54499819 .42340089 .526001 .45140077 .48599244 .45140077 .47099305 .45140077 .4169922 .44839479 .36999513 .4053955 .33999635 .42739869 .2979889 .44140626 .2539978 .44140626 .15098572 .44140626 .07598877 .372406 .07598877 .29440309 .07598877 .2554016 .09599304 .21939087 .12399292 .19340515 .115997318 .18440247 .09399414 .1513977 .09399414 .11239624 .09399414 .09939575 .09700012 .05239868 .13598633 .023391724 .09098816 .0082092289 .038986207-.024841309 .038986207-.076934818 .038986207-.15003968 .14898682-.20507813 .28399659-.20507813 .41099549-.20507813 .5289917-.15505982 .5289917-.074920658 .5289917-.0448761 .5169983 .00920105 .46199037 .039260866 .40299989 .0703125 .34399415 .0703125 .24699402 .0703125 .22499085 .0703125 .18899536 .0703125 .18099976 .07130432 .14898682 .078308109 .1309967 .108306888 .1309967 .13729859 .1309967 .16246033 .13798523 .17045594 .14399719 .17845154 .15899658 .16944885 .19499207 .14746094 .25299073 .14746094 .35598756 .14746094 .43099977 .21644593 .43099977 .29444886 .43099977 .33345033 .41299439 .36445619 .3889923 .39045716 .43399049 .42245484 .47299195 .42344667 .48999024 .42344667 .48599244 .41944886 .48098756 .41545106 .48098756 .39945985 .48098756 .37945558 .49598695 .3674469 .5130005 .3674469 .5269928 .3674469 .54499819 .37745667 .54499819 .40045167V.40040589M.35099793 .29444886C.35099793 .27845765 .35099793 .2384491 .33099366 .21244812 .31698609 .19544983 .2899933 .17745972 .2539978 .17745972 .1559906 .17720032 .1559906 .2732849 .1559906 .29429627 .1559906 .310318 .1559906 .3503418 .17599488 .3763733 .18998719 .39338685 .21699524 .4113922 .25299073 .4113922 .35099793 .4113922 .35099793 .31532289 .35099793 .29429627V.29444886M.46798707-.07600403C.46798707-.12904358 .3889923-.17507935 .28399659-.17507935 .1789856-.17507935 .099990848-.12808228 .099990848-.07608032 .099990848-.04107666 .13198853 .0019226074 .19599915 .0029296876H.2539978C.34298707 .0029296876 .46798707 .0029296876 .46798707-.07608032V-.07600403Z"/>
<path id="font_3_50" d="M.46798707 .12036133C.46798707 .12435913 .46598817 .13438416 .45098878 .13438416 .43798829 .13438416 .43598939 .12837219 .43299867 .11836243 .4019928 .037246705 .32598878 .022232056 .2899933 .022232056 .24299622 .022232056 .19799805 .043258668 .16799927 .08131409 .1309967 .12837219 .12998963 .18945313 .12998963 .22851563H.43998719C.46099855 .22851563 .46798707 .22851563 .46798707 .25050355 .46798707 .33839417 .4189911 .44628907 .269989 .44628907 .13899231 .44628907 .038986207 .34239198 .038986207 .21949768 .038986207 .092315677 .1499939-.009765625 .2829895-.009765625 .41799928-.009765625 .46798707 .09832764 .46798707 .12036133M.397995 .25450135H.1309967C.14199829 .39530946 .23199463 .41827394 .269989 .41827394 .3929901 .41827394 .39698792 .27947999 .397995 .25450135Z"/>
<path id="font_4_54" d="M.6100006 .45477296 .58200076 .6796875H.032989503V.64868167H.056991579C.13398743 .64868167 .13598633 .63768008 .13598633 .6016998V.07797241C.13598633 .041992189 .13398743 .0309906 .056991579 .0309906H.032989503V0C.067993167 .0029907227 .1459961 .0029907227 .18499756 .0029907227 .22599793 .0029907227 .31698609 .0029907227 .35299684 0V.0309906H.31999208C.22499085 .031188965 .22499085 .044189454 .22499085 .079193118V.3251953H.31098939C.40699769 .3251953 .4169922 .29318238 .4169922 .20819092H.44198609V.4731903H.4169922C.4169922 .38919068 .40699769 .3561859 .31098939 .3561859H.22499085V.6091919C.22499085 .64167788 .22698975 .64868167 .27398683 .64868167H.3939972C.5439911 .64868167 .56900027 .5926819 .58499148 .4546814L.6100006 .45477296Z"/>
<path id="font_4_109" d="M.5349884 0V.0309906C.46499635 .0309906 .45700074 .037994386 .45700074 .08705139V.4423828L.30999757 .43066407V.3996582C.37998963 .3996582 .3880005 .39266969 .3880005 .34373475V.16601563C.3880005 .07910156 .33999635 .011245728 .2669983 .011245728 .18299866 .011245728 .1789856 .058135988 .1789856 .11009216V.4423828L.03199768 .43066407V.3996582C.10998535 .3996582 .10998535 .39666749 .10998535 .3078003V.15802002C.10998535 .080093387 .10998535-.0107421879 .2619934-.0107421879 .31799317-.0107421879 .3619995 .017242432 .3909912 .07910156V-.0107421879L.5349884 0Z"/>
<path id="font_4_77" d="M.5349884 0V.0309906C.48298646 .0309906 .45799256 .0309906 .45700074 .061019899V.25221253C.45700074 .3383026 .45700074 .36932374 .42599488 .405365 .4119873 .42237855 .3789978 .4423828 .32099916 .4423828 .24798584 .4423828 .20098877 .39935304 .17298889 .33729554V.4423828L.03199768 .43066407V.3996582C.101989749 .3996582 .10998535 .39266969 .10998535 .34370423V.07595825C.10998535 .0309906 .09899902 .0309906 .03199768 .0309906V0L.14498902 .0029907227 .25698854 0V.0309906C.18998719 .0309906 .1789856 .0309906 .1789856 .07595825V.25978089C.1789856 .36431886 .25 .42037965 .31399537 .42037965 .3769989 .42037965 .3880005 .36631776 .3880005 .30926515V.076034549C.3880005 .0309906 .3769989 .0309906 .30999757 .0309906V0L.4229889 .0029907227 .5349884 0Z"/>
<path id="font_4_43" d="M.4149933 .119140628C.4149933 .12911988 .40499879 .12911988 .4019928 .12911988 .3929901 .12911988 .3909912 .12512207 .3889923 .119140628 .3600006 .026229859 .29499818 .014251709 .2579956 .014251709 .20498657 .014251709 .116989139 .0572052 .116989139 .21801758 .116989139 .38093568 .19898987 .42323304 .2519989 .42323304 .26098634 .42323304 .32398988 .42222596 .35899354 .38594056 .31799317 .38293458 .31199647 .3529358 .31199647 .3399353 .31199647 .31393434 .32998658 .2939453 .35798646 .2939453 .38398744 .2939453 .4039917 .3109436 .4039917 .34094239 .4039917 .40911866 .32798768 .4482422 .25099183 .4482422 .12599182 .4482422 .033996583 .3399353 .033996583 .21601868 .033996583 .08816528 .1329956-.0107421879 .24899292-.0107421879 .3829956-.0107421879 .4149933 .10914612 .4149933 .119140628Z"/>
<path id="font_4_105" d="M.33198548 .12385559V.18066406H.30699159V.12585449C.30699159 .052108766 .2769928 .014251709 .23999024 .014251709 .17298889 .014251709 .17298889 .10491943 .17298889 .12187195V.3996582H.31599427V.43066407H.17298889V.6142578H.147995C.14698792 .5324249 .116989139 .42565919 .018997193 .42166139V.3996582H.10398865V.12408447C.10398865 .0012512207 .19699097-.0107421879 .23298645-.0107421879 .3039856-.0107421879 .33198548 .060180665 .33198548 .12408447V.12385559Z"/>
<path id="font_4_66" d="M.24699402 0V.0309906C.18099976 .0309906 .1769867 .035995485 .1769867 .075042728V.4423828L.036987306 .43066407V.3996582C.101989749 .3996582 .11099243 .3936615 .11099243 .3447113V.07595825C.11099243 .0309906 .099990848 .0309906 .032989503 .0309906V0L.14299011 .0029907227C.17799378 .0029907227 .21299744 .0009918213 .24699402 0M.19198609 .603775C.19198609 .6307678 .16899109 .6567688 .13899231 .6567688 .10499573 .6567688 .084991458 .6287689 .084991458 .603775 .084991458 .57676699 .10798645 .55078127 .13798523 .55078127 .17199707 .55078127 .19198609 .5787811 .19198609 .603775Z"/>
<path id="font_4_81" d="M.47099305 .21424866C.47099305 .34223939 .37098695 .4482422 .25 .4482422 .125 .4482422 .027999878 .3392334 .027999878 .21424866 .027999878 .085250858 .13198853-.0107421879 .24899292-.0107421879 .36999513-.0107421879 .47099305 .087249759 .47099305 .21424866M.3880005 .22224427C.3880005 .18624878 .3880005 .13224793 .3659973 .08824158 .34399415 .04324341 .2999878 .014251709 .25 .014251709 .20698548 .014251709 .16299439 .035247804 .13598633 .08125305 .11099243 .12524414 .11099243 .18624878 .11099243 .22224427 .11099243 .26124574 .11099243 .31523133 .1349945 .35923768 .1619873 .40522767 .20899964 .426239 .24899292 .426239 .29299928 .426239 .33599855 .40423585 .3619995 .36123658 .3880005 .3182373 .3880005 .26023866 .3880005 .22224427Z"/>
<path id="font_4_58" d="M.7350006 .24145508V.27246095L.61299136 .26945497C.57299807 .26945497 .48799134 .26945497 .45199586 .27246095V.24145508H.48399354C.57398989 .24145508 .57699587 .23045349 .57699587 .19346619V.12948609C.57699587 .017532349 .44999696 .008529663 .42199708 .008529663 .35699464 .008529663 .15899658 .043518068 .15899658 .34155274 .15899658 .6410217 .35598756 .67407229 .41600038 .67407229 .522995 .67407229 .6139984 .5839386 .6339874 .43670655 .6359863 .42268373 .6359863 .41967774 .6499939 .41967774 .66600039 .41967774 .66600039 .42268373 .66600039 .44371034V.68107607C.66600039 .69807437 .66600039 .7050781 .6549988 .7050781 .651001 .7050781 .6469879 .7050781 .6389923 .69306948L.58898928 .61898806C.5569916 .6510315 .5029907 .7050781 .4039917 .7050781 .21798706 .7050781 .055999757 .546875 .055999757 .34155274 .055999757 .13648987 .21598816-.022460938 .4059906-.022460938 .47898866-.022460938 .5589905 .0035247803 .59298709 .06251526 .60598757 .040527345 .6459961 .0005340576 .6569977 .0005340576 .66600039 .0005340576 .66600039 .008529663 .66600039 .023529053V.19746399C.66600039 .2364502 .66999819 .24145508 .7350006 .24145508Z"/>
<path id="font_4_50" d="M.4149933 .11933899C.4149933 .12934876 .40699769 .13134766 .4019928 .13134766 .3929901 .13134766 .3909912 .12535095 .3889923 .11734009 .35398866 .014251709 .2639923 .014251709 .2539978 .014251709 .20399475 .014251709 .1639862 .044281007 .14099121 .08131409 .11099243 .12934876 .11099243 .19540406 .11099243 .23144531H.3899994C.4119873 .23144531 .4149933 .23144531 .4149933 .2524414 .4149933 .35131837 .36099244 .4482422 .23599243 .4482422 .11999512 .4482422 .027999878 .34532167 .027999878 .22042847 .027999878 .08631897 .1329956-.0107421879 .24798584-.0107421879 .36999513-.0107421879 .4149933 .10032654 .4149933 .11933899M.34899903 .2524414H.11199951C.117996219 .40126039 .20199585 .426239 .23599243 .426239 .33898927 .426239 .34899903 .2913971 .34899903 .2524414Z"/>
<path id="font_4_96" d="M.3639984 .38137818C.3639984 .41337586 .33299256 .4423828 .2899933 .4423828 .21699524 .4423828 .18099976 .37538148 .16699219 .3323822V.4423828L.027999878 .43066407V.3996582C.09799194 .3996582 .10598755 .39266969 .10598755 .34370423V.07595825C.10598755 .0309906 .09498596 .0309906 .027999878 .0309906V0L.14199829 .0029907227C.18199158 .0029907227 .22898865 .0029907227 .2689972 0V.0309906H.24798584C.17399597 .0309906 .17199707 .04197693 .17199707 .07795715V.23181153C.17199707 .33137513 .21398926 .42037965 .2899933 .42037965 .29699708 .42037965 .29899598 .42037965 .30099488 .41937257 .2979889 .41838075 .27799989 .40637208 .27799989 .3803711 .27799989 .35237123 .29899598 .33737184 .32099916 .33737184 .33898927 .33737184 .3639984 .3493805 .3639984 .38137818Z"/>
<path id="font_4_28" d="M.48298646 .08912659V.14511109H.45799256V.08912659C.45799256 .03112793 .43299867 .025131226 .42199708 .025131226 .3889923 .025131226 .3849945 .070129398 .3849945 .07511902V.27508546C.3849945 .31707765 .3849945 .3560791 .34899903 .39312745 .30999757 .43223573 .2599945 .4482422 .21199036 .4482422 .12998963 .4482422 .06098938 .40115357 .06098938 .335083 .06098938 .30508424 .08099365 .28808595 .10699463 .28808595 .1349945 .28808595 .15299988 .30807496 .15299988 .33407594 .15299988 .3460846 .147995 .37908937 .101989749 .38008119 .1289978 .41519166 .17799378 .426239 .20999146 .426239 .25898744 .426239 .31599427 .38710023 .31599427 .29808045V.26107789C.2649994 .25808717 .19499207 .25508119 .13198853 .22509766 .056991579 .19110108 .03199768 .13911438 .03199768 .09512329 .03199768 .014251709 .1289978-.0107421879 .19198609-.0107421879 .2579956-.0107421879 .3039856 .029251099 .32299806 .07624817 .32699586 .036132814 .35398866-.005859375 .40098573-.005859375 .42199708-.005859375 .48298646 .008132935 .48298646 .08912659M.31599427 .14013672C.31599427 .04525757 .24398804 .011245728 .19898987 .011245728 .1499939 .011245728 .10899353 .04624939 .10899353 .09625244 .10899353 .15124512 .15098572 .23425293 .31599427 .24024964V.14013672Z"/>
<path id="font_2_2" d="M.37399293 .6046295C.3829956 .64060977 .38598634 .6516113 .47999574 .6516113 .5099945 .6516113 .5179901 .6516113 .5179901 .6706085 .5179901 .6826172 .5069885 .6826172 .5019989 .6826172 .46899415 .6826172 .3869934 .6796112 .35398866 .6796112 .32398988 .6796112 .25099183 .6826172 .22099304 .6826172 .21398926 .6826172 .20199585 .6826172 .20199585 .6626129 .20199585 .6516113 .21099854 .6516113 .22999573 .6516113 .23199463 .6516113 .25099183 .6516113 .2679901 .6496124 .28599549 .6476135 .29499818 .64660647 .29499818 .6336212 .29499818 .6296234 .2939911 .62661746 .29100038 .614624L.15699768 .07795715C.14698792 .038986207 .14498902 .0309906 .06599426 .0309906 .04899597 .0309906 .038986207 .0309906 .038986207 .010986328 .038986207 0 .04798889 0 .06599426 0H.5289917C.5529938 0 .55400088 0 .55999758 .016998291L.6389923 .23286438C.6429901 .24386597 .6429901 .24586487 .6429901 .24685669 .6429901 .2508545 .6399994 .25785829 .6309967 .25785829 .621994 .25785829 .62098696 .2528534 .6139984 .23686219 .5799866 .14492798 .5359955 .0309906 .36299134 .0309906H.2689972C.25498963 .0309906 .25299073 .0309906 .24699402 .03199768 .23699951 .032989503 .23399353 .033996583 .23399353 .041992189 .23399353 .04498291 .23399353 .04698181 .23899842 .064971927L.37399293 .6046295Z"/>
<path id="font_1_4" d="M.2939911 .16503906V.07800293C.2939911 .041992189 .2919922 .0309906 .21798706 .0309906H.19699097V0C.23799134 .0029907227 .2899933 .0029907227 .33198548 .0029907227 .37399293 .0029907227 .4269867 .0029907227 .46798707 0V.0309906H.44699098C.37298585 .0309906 .37098695 .041992189 .37098695 .07800293V.16503906H.47099305V.19602967H.37098695V.65075686C.37098695 .67074587 .37098695 .6767578 .35499574 .6767578 .34599305 .6767578 .34298707 .6767578 .33499146 .66474917L.027999878 .19602967V.16503906H.2939911M.2999878 .19602967H.055999757L.2999878 .5688019V.19602967Z"/>
<path id="font_1_8" d="M.10998535 .34429933V.076034549C.10998535 .0309906 .09899902 .0309906 .03199768 .0309906V0C.066986087 .0009918213 .117996219 .0029907227 .14498902 .0029907227 .17098999 .0029907227 .22299195 .0009918213 .25698854 0V.0309906C.18998719 .0309906 .1789856 .0309906 .1789856 .076034549V.2602234C.1789856 .36431886 .25 .42037965 .31399537 .42037965 .3769989 .42037965 .3880005 .36631776 .3880005 .30926515V.076034549C.3880005 .0309906 .3769989 .0309906 .30999757 .0309906V0C.34498597 .0009918213 .3959961 .0029907227 .4229889 .0029907227 .44898988 .0029907227 .5009918 .0009918213 .5349884 0V.0309906C.46798707 .0309906 .45700074 .0309906 .45700074 .076034549V.2602234C.45700074 .36431886 .5279999 .42037965 .59199526 .42037965 .6549988 .42037965 .66600039 .36631776 .66600039 .30926515V.076034549C.66600039 .0309906 .6549988 .0309906 .58799746 .0309906V0C.6230011 .0009918213 .673996 .0029907227 .70098879 .0029907227 .72698977 .0029907227 .7789917 .0009918213 .8129883 0V.0309906C.7609863 .0309906 .73599246 .0309906 .7350006 .061019899V.25221253C.7350006 .3383026 .7350006 .36932374 .70399478 .405365 .6899872 .42237855 .6569977 .4423828 .598999 .4423828 .5149994 .4423828 .47099305 .38233949 .45399476 .34429933 .43998719 .43138124 .3659973 .4423828 .32099916 .4423828 .24798584 .4423828 .20098877 .39935304 .17298889 .33729554V.4423828L.03199768 .43138124V.40037538C.101989749 .4003601 .10998535 .39335633 .10998535 .34429933Z"/>
<path id="font_1_7" d="M.61299136 .6046448C.61299136 .640625 .61499026 .6516113 .69200137 .6516113H.71598818V.6826172C.68099978 .6796112 .6069946 .6796112 .56900027 .6796112 .5309906 .6796112 .45599366 .6796112 .42099 .6826172V.6516113H.44499208C.5219879 .6516113 .5239868 .640625 .5239868 .6046448V.37083436H.22499085V.6046448C.22499085 .640625 .22698975 .6516113 .3039856 .6516113H.32798768V.6826172C.29299928 .6796112 .21899414 .6796112 .18099976 .6796112 .14299011 .6796112 .067993167 .6796112 .032989503 .6826172V.6516113H.056991579C.13398743 .6516113 .13598633 .640625 .13598633 .6046448V.07797241C.13598633 .041992189 .13398743 .0309906 .056991579 .0309906H.032989503V0C.067993167 .0029907227 .14199829 .0029907227 .17999268 .0029907227 .21798706 .0029907227 .29299928 .0029907227 .32798768 0V.0309906H.3039856C.22698975 .0309906 .22499085 .041992189 .22499085 .07797241V.33984376H.5239868V.07797241C.5239868 .041992189 .5219879 .0309906 .44499208 .0309906H.42099V0C.45599366 .0029907227 .5299988 .0029907227 .56799319 .0029907227 .60598757 .0029907227 .68099978 .0029907227 .71598818 0V.0309906H.69200137C.61499026 .0309906 .61299136 .041992189 .61299136 .07797241V.6046448Z"/>
<path id="font_2_1" d="M.7599945 .69506838C.7599945 .69807437 .7579956 .7050781 .7489929 .7050781 .74598696 .7050781 .7449951 .70407107 .73399356 .69306948L.6639862 .61602786C.6549988 .6300354 .60899356 .7050781 .49798585 .7050781 .2749939 .7050781 .049987794 .48391725 .049987794 .25172425 .049987794 .08659363 .16799927-.022460938 .32099916-.022460938 .4079895-.022460938 .48399354 .017532349 .5369873 .063583377 .6299896 .14564514 .6469879 .2367096 .6469879 .23971558 .6469879 .24972534 .6369934 .24972534 .6349945 .24972534 .6289978 .24972534 .6239929 .24772644 .621994 .23971558 .61299136 .21069336 .58999636 .13963318 .5209961 .081588748 .45199586 .025543213 .3889923 .008529663 .33699037 .008529663 .24699402 .008529663 .14099121 .060577394 .14099121 .21670532 .14099121 .27374269 .1619873 .43588258 .2619934 .55296328 .32299806 .62402346 .4169922 .67407229 .5059967 .67407229 .60798647 .67407229 .6669922 .5970001 .6669922 .48091126 .6669922 .44088746 .6639862 .43988038 .6639862 .4298706 .6639862 .41986085 .6749878 .41986085 .67900088 .41986085 .69200137 .41986085 .69200137 .42185975 .69699099 .43988038L.7599945 .69506838Z"/>
<path id="font_1_3" d="M.2939911 .64004519C.2939911 .66400149 .2939911 .6660156 .2709961 .6660156 .20899964 .60227969 .12098694 .60227969 .08898926 .60227969V.57128909C.10899353 .57128909 .16799927 .57128909 .21998596 .5972748V.07902527C.21998596 .042999269 .21699524 .0309906 .1269989 .0309906H.09498596V0C.12998963 .0029907227 .21699524 .0029907227 .25698854 .0029907227 .29699708 .0029907227 .38398744 .0029907227 .4189911 0V.0309906H.3869934C.29699708 .0309906 .2939911 .041992189 .2939911 .07902527V.64004519Z"/>
<path id="font_1_2" d="M.45999146 .31976319C.45999146 .39982606 .45498658 .47988893 .41999818 .5539398 .37399293 .65000918 .2919922 .6660156 .25 .6660156 .18998719 .6660156 .116989139 .64001467 .07598877 .54693606 .04399109 .47789 .038986207 .39982606 .038986207 .31976319 .038986207 .24472046 .042999269 .15464783 .083999637 .07859802 .1269989-.0024719239 .19999695-.022460938 .24899292-.022460938 .30299378-.022460938 .3789978-.0014648438 .4229889 .09359741 .45498658 .16265869 .45999146 .2407074 .45999146 .31976319M.24899292-.00047302247C.20999146-.00047302247 .15098572 .024551392 .1329956 .12062073 .12199402 .18066406 .12199402 .2727356 .12199402 .3317871 .12199402 .39582826 .12199402 .46188355 .12998963 .5159149 .14898682 .63500979 .22399903 .64401248 .24899292 .64401248 .28199769 .64401248 .34799195 .6259918 .36698915 .52693179 .3769989 .47088624 .3769989 .39482118 .3769989 .3317871 .3769989 .25672914 .3769989 .18867493 .3659973 .12461853 .35099793 .029556275 .2939911-.00047302247 .24899292-.00047302247Z"/>
<path id="font_4_402" d="M.5339966 .00024414063V.03126526C.46299745 .03126526 .45599366 .038253786 .45599366 .089279178V.44140626L.30799867 .43040467V.3993988C.3789978 .3993988 .38598634 .39239503 .38598634 .3413849V.16731262C.38598634 .07926941 .33999635 .011245728 .2659912 .011245728 .18299866 .011245728 .17999268 .059265138 .17999268 .11128235V.44140626L.03199768 .43040467V.3993988C.102996829 .3993988 .10998535 .39239503 .10998535 .3413849V-.115982059C.10998535-.16308594 .100997928-.16308594 .03199768-.16308594V-.1940918L.14498902-.19110108 .2579956-.1940918V-.16308594C.18899536-.16308594 .17999268-.16308594 .17999268-.115982059V.002243042C.19499207-.003753662 .22299195-.0107421879 .26098634-.0107421879 .31599427-.0107421879 .3600006 .01625061 .3880005 .07527161H.3889923V-.0107421879L.5339966 .00024414063Z"/>
<path id="font_1_6" d="M.58200076 .6796112H.032989503V.64860537H.056991579C.13398743 .64860537 .13598633 .63760378 .13598633 .601593V.07791138C.13598633 .04197693 .13398743 .0309906 .056991579 .0309906H.032989503V0C.067993167 .0029907227 .1459961 .0029907227 .18499756 .0029907227 .22599793 .0029907227 .31698609 .0029907227 .35299684 0V.0309906H.31999208C.22499085 .0309906 .22499085 .04397583 .22499085 .0789032V.3244629H.31098939C.40699769 .3244629 .4169922 .29252626 .4169922 .20767212H.44198609V.47251893H.4169922C.4169922 .3884735 .40699769 .35546876 .31098939 .35546876H.22499085V.6085968C.22499085 .64160159 .22698975 .64860537 .27398683 .64860537H.3939972C.5439911 .64860537 .56900027 .5925751 .58499148 .45451356H.6100006L.58200076 .6796112Z"/>
<path id="font_2_3" d="M.375 .6136017C.3809967 .63760378 .38398744 .6476135 .40299989 .65060427 .4119873 .6516113 .44400025 .6516113 .46398927 .6516113 .5349884 .6516113 .6459961 .6516113 .6459961 .5525818 .6459961 .51856997 .6299896 .44955445 .59098818 .41055299 .5649872 .38453675 .5119934 .35253907 .42199708 .35253907H.30999757L.375 .6136017M.5189972 .33953858C.6199951 .3615265 .7389984 .43154908 .7389984 .5325775 .7389984 .61860659 .6489868 .6826172 .5179901 .6826172H.23298645C.21299744 .6826172 .20399475 .6826172 .20399475 .6626129 .20399475 .6516113 .21299744 .6516113 .23199463 .6516113 .23399353 .6516113 .25299073 .6516113 .269989 .6496124 .28799439 .6476135 .29699708 .64660647 .29699708 .63360598 .29699708 .62960818 .29599 .6266022 .29299928 .6145935L.15899658 .07752991C.14898682 .038528444 .14698792 .030532837 .067993167 .030532837 .049987794 .030532837 .040985109 .030532837 .040985109 .010528564 .040985109-.00047302247 .052993776-.00047302247 .054992677-.00047302247 .08299255-.00047302247 .15299988 .002532959 .18099976 .002532959 .20899964 .002532959 .27999879-.00047302247 .30799867-.00047302247 .31599427-.00047302247 .32798768-.00047302247 .32798768 .01953125 .32798768 .030532837 .31900025 .030532837 .2999878 .030532837 .2630005 .030532837 .23498535 .030532837 .23498535 .048538209 .23498535 .054534913 .23699951 .059524537 .23799134 .0655365L.3039856 .3305359H.4229889C.5139923 .3305359 .5319977 .27453614 .5319977 .23953247 .5319977 .22453308 .5239868 .19352722 .5179901 .17053223 .5109863 .14253235 .5019989 .105529788 .5019989 .08552551 .5019989-.022460938 .621994-.022460938 .6349945-.022460938 .7200012-.022460938 .7549896 .07853699 .7549896 .0925293 .7549896 .104537967 .74398806 .104537967 .7429962 .104537967 .73399356 .104537967 .7319946 .09753418 .7299957 .090530399 .7049866 .016525269 .6619873-.00047302247 .6389923-.00047302247 .60598757-.00047302247 .598999 .021530152 .598999 .060531618 .598999 .091537479 .6049957 .14253235 .60899356 .17453003 .61099246 .1885376 .61299136 .20753479 .61299136 .2215271 .61299136 .2985382 .54599 .3295288 .5189972 .33953858Z"/>
<path id="font_1_5" d="M.44898988 .20022583C.44898988 .3193512 .36698915 .41944886 .25898744 .41944886 .21099854 .41944886 .16799927 .40345765 .13198853 .36842347V.5637665C.1519928 .5577698 .18499756 .55078127 .21699524 .55078127 .33999635 .55078127 .4099884 .6417694 .4099884 .6547699 .4099884 .6607666 .40699769 .6657715 .3999939 .6657715 .39898683 .6657715 .39698792 .6657715 .3919983 .66278079 .37199403 .6537781 .32299806 .6337738 .2559967 .6337738 .21598816 .6337738 .16999817 .6407776 .12298584 .6617737 .114990238 .66477969 .11299133 .66477969 .11099243 .66477969 .100997928 .66477969 .100997928 .6567688 .100997928 .6407776V.34439088C.100997928 .32637025 .100997928 .31835938 .114990238 .31835938 .12199402 .31835938 .12399292 .32136537 .12799073 .32736207 .13899231 .3433838 .17599488 .39746095 .25698854 .39746095 .30899049 .39746095 .33399964 .35139466 .34199525 .33337403 .35798646 .29632569 .3600006 .25727845 .3600006 .20722962 .3600006 .17222595 .3600006 .11222839 .33599855 .07035828 .31199647 .031463624 .2749939 .0055389406 .22898865 .0055389406 .1559906 .0055389406 .09899902 .058380128 .08198547 .11723328 .084991458 .1162262 .08799744 .115234378 .09899902 .115234378 .13198853 .115234378 .14898682 .14022827 .14898682 .16423035 .14898682 .18823242 .13198853 .21322632 .09899902 .21322632 .084991458 .21322632 .049987794 .20622254 .049987794 .16023255 .049987794 .07434082 .11898804-.022460938 .23098755-.022460938 .34700013-.022460938 .44898988 .073349 .44898988 .20022583Z"/>
<path id="font_1_1" d="M.6769867 .16200257H.6519928C.6469879 .13600159 .6429901 .11299133 .6339874 .08898926 .6289978 .07299805 .6259918 .06498718 .56799319 .06498718H.48799134C.5009918 .1210022 .5319977 .16900635 .57699587 .23501587 .6239929 .306015 .6649933 .37503053 .6649933 .45404054 .6649933 .59306338 .5299988 .7050781 .36099244 .7050781 .18899536 .7050781 .055999757 .5910492 .055999757 .45404054 .055999757 .37503053 .09700012 .306015 .14399719 .23501587 .18798828 .16900635 .21998596 .1210022 .23298645 .06498718H.15299988C.09498596 .06498718 .09199524 .07299805 .08699036 .08799744 .07899475 .11099243 .07398987 .13700867 .068984989 .16200257H.04399109L.07699585 0H.23699951C.25898744 0 .2619934 0 .2619934 .020996094 .2619934 .09098816 .23098755 .17900086 .20799256 .24301148 .18699646 .3010254 .15899658 .3800354 .15899658 .45503236 .15899658 .6150665 .2689972 .68307498 .3600006 .68307498 .45599366 .68307498 .56199648 .61105349 .56199648 .45503236 .56199648 .3800354 .5349884 .3040161 .5059967 .22201538 .4909973 .18000794 .45899964 .08999634 .45899964 .020996094 .45899964 0 .46199037 0 .4850006 0H.6439972L.6769867 .16200257Z"/>
<path id="font_3_81" d="M.5289917 .21325684C.5289917 .3382721 .42199708 .44628907 .28399659 .44628907 .1459961 .44628907 .038986207 .3382721 .038986207 .21325684 .038986207 .0892334 .14898682-.009765625 .28399659-.009765625 .4189911-.009765625 .5289917 .0892334 .5289917 .21325684M.43798829 .22225952C.43798829 .17424011 .43499757 .12124634 .4059906 .08023071 .3789978 .042236329 .33299256 .022232056 .28399659 .022232056 .24699402 .022232056 .19299317 .034225465 .1599884 .083236698 .1329956 .12423706 .12998963 .17625427 .12998963 .22225952 .12998963 .2652588 .1309967 .32426454 .1659851 .36727906 .19099427 .39627076 .23298645 .41827394 .28399659 .41827394 .34298707 .41827394 .3849945 .39027406 .40699769 .3592682 .43499757 .32026673 .43798829 .27026368 .43798829 .22225952Z"/>
<path id="font_3_109" d="M.58999636 0V.035995485C.522995 .035995485 .5149994 .042999269 .5149994 .092056278V.44140626L.36099244 .43052674V.39453126C.42799378 .39439393 .43598939 .3874359 .43598939 .33872987V.16749573C.43598939 .079330448 .3789978 .018234253 .30299378 .018234253 .21199036 .018234253 .20799256 .061309816 .20799256 .11239624V.44140626L.053985597 .43052674V.39453126C.1289978 .39453126 .1289978 .39154054 .1289978 .30273438V.15246582C.1289978 .083343509 .1289978-.009765625 .29599-.009765625 .31799317-.009765625 .3909912-.009765625 .43899537 .07432556H.43998719V-.009765625L.58999636 0Z"/>
<path id="font_4_71" d="M.58200076 .2578125H.5569916C.54599 .15588379 .5319977 .0309906 .35598756 .0309906H.27398683C.22698975 .03060913 .22499085 .037612916 .22499085 .07060242V.6036072C.22499085 .63760378 .22499085 .6516113 .31999208 .6516113H.35299684V.6826172C.31698609 .6796112 .22599793 .6796112 .18499756 .6796112 .1459961 .6796112 .067993167 .6796112 .032989503 .6826172V.6516113H.056991579C.13398743 .6518097 .13598633 .6408081 .13598633 .6048126V.07795715C.13598633 .04197693 .13398743 .0309906 .056991579 .0309906H.032989503V0H.55400088L.58200076 .2578125Z"/>
<path id="font_4_47" d="M.5269928 0V.0309906C.45700074 .0309906 .44898988 .038009645 .44898988 .0871582V.69433596L.30499269 .6826172V.6516113C.375 .6516113 .3829956 .64463809 .3829956 .59580996V.38035584C.35398866 .41636659 .31098939 .4423828 .25698854 .4423828 .13899231 .4423828 .033996583 .3443451 .033996583 .21531677 .033996583 .088272098 .13198853-.0107421879 .24598694-.0107421879 .30999757-.0107421879 .35499574 .023254395 .37998963 .055267335V-.0107421879L.5269928 0M.37998963 .117996219C.37998963 .099990848 .37998963 .09799194 .36898805 .08099365 .33898927 .033218385 .2939911 .011245728 .25099183 .011245728 .20599365 .011245728 .16999817 .037216188 .1459961 .075164798 .11999512 .1161499 .116989139 .17320252 .116989139 .21421814 .116989139 .25125123 .11898804 .31129457 .147995 .35632325 .16899109 .38734437 .20698548 .42037965 .26098634 .42037965 .29599 .42037965 .33799745 .405365 .36898805 .3603363 .37998963 .34332276 .37998963 .34132386 .37998963 .32330323V.117996219Z"/>
<path id="font_4_42" d="M.6649933 .23271179C.6649933 .24272156 .6649933 .24972534 .6519928 .24972534 .6409912 .24972534 .6409912 .24372864 .6399994 .23371887 .6319885 .09059143 .5249939 .008529663 .41600038 .008529663 .35499574 .008529663 .15899658 .042556764 .15899658 .34080506 .15899658 .64004519 .35398866 .67407229 .4149933 .67407229 .5239868 .67407229 .61299136 .58299258 .6329956 .4368744 .6349945 .42286683 .6349945 .41986085 .6489868 .41986085 .6649933 .41986085 .6649933 .42286683 .6649933 .44387818V.68107607C.6649933 .69807437 .6649933 .7050781 .6539917 .7050781 .6499939 .7050781 .6459961 .7050781 .6380005 .69306948L.58799746 .61901858C.5509949 .6550598 .5 .7050781 .4039917 .7050781 .21699524 .7050781 .055999757 .5459595 .055999757 .34179688 .055999757 .1346283 .21798706-.022460938 .4039917-.022460938 .5669861-.022460938 .6649933 .116622928 .6649933 .23271179Z"/>
</defs>
<path transform="matrix(1.00003,0,0,-1.00008,18.041977,148.05788)" stroke-width=".3985" stroke-linecap="butt" stroke-miterlimit="10" stroke-linejoin="miter" fill="none" stroke="#000000" d="M0 0"/>
<path transform="matrix(1.00003,0,0,-1.00008,18.041977,148.05788)" stroke-width=".3985" stroke-linecap="butt" stroke-miterlimit="10" stroke-linejoin="miter" fill="none" stroke="#000000" d="M0 127.56067V75.69066M0 51.87776V.00003H53.15347M53.15347 .00003H106.30052"/>
<path transform="matrix(1.00003,0,0,-1.00008,18.041977,148.05788)" stroke-width=".797" stroke-linecap="butt" stroke-miterlimit="10" stroke-linejoin="miter" fill="none" stroke="#000000" d="M11.90572 63.78035C11.90572 70.35577 6.57541 75.68607 0 75.68607-6.57541 75.68607-11.90572 70.35577-11.90572 63.78035-11.90572 57.20493-6.57541 51.87463 0 51.87463 6.57541 51.87463 11.90572 57.20493 11.90572 63.78035ZM0 63.78035"/>
<path transform="matrix(1.00003,0,0,-1.00008,18.041977,148.05788)" stroke-width=".797" stroke-linecap="butt" stroke-miterlimit="10" stroke-linejoin="miter" fill="none" stroke="#000000" d="M-5.95285 63.78035C-4.98253 65.30426-4.0539 66.75677-2.97643 66.75677-1.89896 66.75677-.97032 65.30428 0 63.78035 .9703 62.25644 1.89894 60.80392 2.97643 60.80392 4.05388 60.80392 4.98251 62.25642 5.95285 63.78035"/>
<use data-text="&#x02dc;" xlink:href="#font_1_9" transform="matrix(9.962899,0,0,-9.963397,34.808488,83.89675)"/>
<use data-text="V" xlink:href="#font_2_4" transform="matrix(9.962899,0,0,-9.963397,33.286439,86.41595)"/>
<use data-text="i" xlink:href="#font_3_66" transform="matrix(6.9740097,0,0,-6.974358,39.09761,87.91007)"/>
<use data-text="n" xlink:href="#font_3_77" transform="matrix(6.9740097,0,0,-6.974358,41.35022,87.91007)"/>
<use data-text="t" xlink:href="#font_3_105" transform="matrix(6.9740097,0,0,-6.974358,45.541597,87.91007)"/>
<path transform="matrix(1.00003,0,0,-1.00008,18.041977,148.05788)" d="M107.88768 .00003C107.88768 .8766 107.1771 1.58719 106.30052 1.58719 105.42397 1.58719 104.71338 .8766 104.71338 .00003 104.71338-.87651 105.42397-1.5871 106.30052-1.5871 107.1771-1.5871 107.88768-.87651 107.88768 .00003ZM106.30052 .00003" fill="#ffffff"/>
<path transform="matrix(1.00003,0,0,-1.00008,18.041977,148.05788)" stroke-width=".3985" stroke-linecap="butt" stroke-miterlimit="10" stroke-linejoin="miter" fill="none" stroke="#000000" d="M107.88768 .00003C107.88768 .8766 107.1771 1.58719 106.30052 1.58719 105.42397 1.58719 104.71338 .8766 104.71338 .00003 104.71338-.87651 105.42397-1.5871 106.30052-1.5871 107.1771-1.5871 107.88768-.87651 107.88768 .00003ZM106.30052 .00003"/>
<path transform="matrix(1.00003,0,0,-1.00008,18.041977,148.05788)" d="" fill="#ffffff"/>
<path transform="matrix(1.00003,0,0,-1.00008,18.041977,148.05788)" stroke-width=".3985" stroke-linecap="butt" stroke-miterlimit="10" stroke-linejoin="miter" fill="none" stroke="#000000" d=""/>
<path transform="matrix(1.00003,0,0,-1.00008,18.041977,148.05788)" stroke-width=".3985" stroke-linecap="butt" stroke-miterlimit="10" stroke-linejoin="miter" fill="none" stroke="#000000" d="M0 127.56454 37.2783 127.57231M69.02864 127.57231 106.30052 127.56454"/>
<path transform="matrix(1.00003,0,0,-1.00008,18.041977,148.05788)" stroke-width=".797" stroke-linecap="butt" stroke-miterlimit="10" stroke-linejoin="miter" fill="none" stroke="#000000" d="M37.27605 133.51741H69.02443V121.61171H37.27605Z"/>
<path transform="matrix(1.00003,0,0,-1.00008,18.041977,148.05788)" d="M107.88768 127.56454C107.88768 128.44112 107.1771 129.1517 106.30052 129.1517 105.42397 129.1517 104.71338 128.44112 104.71338 127.56454 104.71338 126.68799 105.42397 125.9774 106.30052 125.9774 107.1771 125.9774 107.88768 126.68799 107.88768 127.56454ZM106.30052 127.56454" fill="#ffffff"/>
<path transform="matrix(1.00003,0,0,-1.00008,18.041977,148.05788)" stroke-width=".3985" stroke-linecap="butt" stroke-miterlimit="10" stroke-linejoin="miter" fill="none" stroke="#000000" d="M107.88768 127.56454C107.88768 128.44112 107.1771 129.1517 106.30052 129.1517 105.42397 129.1517 104.71338 128.44112 104.71338 127.56454 104.71338 126.68799 105.42397 125.9774 106.30052 125.9774 107.1771 125.9774 107.88768 126.68799 107.88768 127.56454ZM106.30052 127.56454"/>
<path transform="matrix(1.00003,0,0,-1.00008,18.041977,148.05788)" d="" fill="#ffffff"/>
<path transform="matrix(1.00003,0,0,-1.00008,18.041977,148.05788)" stroke-width=".3985" stroke-linecap="butt" stroke-miterlimit="10" stroke-linejoin="miter" fill="none" stroke="#000000" d=""/>
<use data-text="Z" xlink:href="#font_2_5" transform="matrix(9.962899,0,0,-9.963397,62.77332,37.54103)"/>
<use data-text="i" xlink:href="#font_3_66" transform="matrix(6.9740097,0,0,-6.974358,69.574527,39.035158)"/>
<use data-text="n" xlink:href="#font_3_77" transform="matrix(6.9740097,0,0,-6.974358,71.82713,39.035158)"/>
<use data-text="t" xlink:href="#font_3_105" transform="matrix(6.9740097,0,0,-6.974358,76.011539,39.035158)"/>
<path transform="matrix(1.00003,0,0,-1.00008,18.041977,148.05788)" stroke-width=".3985" stroke-linecap="butt" stroke-miterlimit="10" stroke-linejoin="miter" fill="none" stroke="#000000" d="M100.98553 63.78033"/>
<use data-text="&#x02dc;" xlink:href="#font_1_9" transform="matrix(9.962899,0,0,-9.963397,111.44179,84.87783)"/>
<use data-text="V" xlink:href="#font_2_4" transform="matrix(9.962899,0,0,-9.963397,109.91974,87.397029)"/>
<use data-text="g" xlink:href="#font_3_59" transform="matrix(6.9740097,0,0,-6.974358,115.73091,88.89115)"/>
<use data-text="e" xlink:href="#font_3_50" transform="matrix(6.9740097,0,0,-6.974358,119.69912,88.89115)"/>
<use data-text="n" xlink:href="#font_3_77" transform="matrix(6.9740097,0,0,-6.974358,123.24192,88.89115)"/>
<path transform="matrix(1.00003,0,0,-1.00008,18.041977,148.05788)" stroke-width=".3985" stroke-linecap="butt" stroke-dasharray="2.98883,2.98883" stroke-miterlimit="10" stroke-linejoin="miter" fill="none" stroke="#000000" d="M-15.94505-5.315V138.19069H79.72539V-5.315H-15.94505Z"/>
<path transform="matrix(1.00003,0,0,-1.00008,18.041977,148.05788)" stroke-width=".3985" stroke-linecap="butt" stroke-miterlimit="10" stroke-linejoin="miter" fill="none" stroke="#000000" d="M31.89015 143.50577"/>
<use data-text="F" xlink:href="#font_4_54" transform="matrix(9.962899,0,0,-9.963397,7.1716539,7.94368)"/>
<use data-text="u" xlink:href="#font_4_109" transform="matrix(9.962899,0,0,-9.963397,12.850502,7.94368)"/>
<use data-text="n" xlink:href="#font_4_77" transform="matrix(9.962899,0,0,-9.963397,18.389878,7.94368)"/>
<use data-text="c" xlink:href="#font_4_43" transform="matrix(9.962899,0,0,-9.963397,23.929253,7.94368)"/>
<use data-text="t" xlink:href="#font_4_105" transform="matrix(9.962899,0,0,-9.963397,28.352776,7.94368)"/>
<use data-text="i" xlink:href="#font_4_66" transform="matrix(9.962899,0,0,-9.963397,32.228349,7.94368)"/>
<use data-text="o" xlink:href="#font_4_81" transform="matrix(9.962899,0,0,-9.963397,34.99803,7.94368)"/>
<use data-text="n" xlink:href="#font_4_77" transform="matrix(9.962899,0,0,-9.963397,39.979486,7.94368)"/>
<use data-text="G" xlink:href="#font_4_58" transform="matrix(9.962899,0,0,-9.963397,48.82653,7.94368)"/>
<use data-text="e" xlink:href="#font_4_50" transform="matrix(9.962899,0,0,-9.963397,56.647409,7.94368)"/>
<use data-text="n" xlink:href="#font_4_77" transform="matrix(9.962899,0,0,-9.963397,61.070947,7.94368)"/>
<use data-text="e" xlink:href="#font_4_50" transform="matrix(9.962899,0,0,-9.963397,66.61031,7.94368)"/>
<use data-text="r" xlink:href="#font_4_96" transform="matrix(9.962899,0,0,-9.963397,71.03385,7.94368)"/>
<use data-text="a" xlink:href="#font_4_28" transform="matrix(9.962899,0,0,-9.963397,74.93929,7.94368)"/>
<use data-text="t" xlink:href="#font_4_105" transform="matrix(9.962899,0,0,-9.963397,79.92074,7.94368)"/>
<use data-text="o" xlink:href="#font_4_81" transform="matrix(9.962899,0,0,-9.963397,83.79632,7.94368)"/>
<use data-text="r" xlink:href="#font_4_96" transform="matrix(9.962899,0,0,-9.963397,88.77776,7.94368)"/>
<path transform="matrix(1.00003,0,0,-1.00008,18.041977,148.05788)" stroke-width=".3985" stroke-linecap="butt" stroke-miterlimit="10" stroke-linejoin="miter" fill="none" stroke="#000000" d="M116.93062 127.56067 138.19911 127.56842M138.19911 127.56842 159.45084 127.56067 159.46056 118.2135M159.46056 94.40059 159.45084 85.04047 159.46056 67.75294M159.46056 59.8155 159.45084 42.52025 159.46056 37.13658M159.46056 5.38625 159.45084 .00003H138.19911M138.19911 .00003H116.93062"/>
<path transform="matrix(1.00003,0,0,-1.00008,18.041977,148.05788)" d="M118.51776 127.56067C118.51776 128.43724 117.80717 129.14783 116.93062 129.14783 116.05405 129.14783 115.34348 128.43724 115.34348 127.56067 115.34348 126.68411 116.05405 125.97353 116.93062 125.97353 117.80717 125.97353 118.51776 126.68411 118.51776 127.56067ZM116.93062 127.56067" fill="#ffffff"/>
<path transform="matrix(1.00003,0,0,-1.00008,18.041977,148.05788)" stroke-width=".3985" stroke-linecap="butt" stroke-miterlimit="10" stroke-linejoin="miter" fill="none" stroke="#000000" d="M118.51776 127.56067C118.51776 128.43724 117.80717 129.14783 116.93062 129.14783 116.05405 129.14783 115.34348 128.43724 115.34348 127.56067 115.34348 126.68411 116.05405 125.97353 116.93062 125.97353 117.80717 125.97353 118.51776 126.68411 118.51776 127.56067ZM116.93062 127.56067"/>
<path transform="matrix(1.00003,0,0,-1.00008,18.041977,148.05788)" d="" fill="#ffffff"/>
<path transform="matrix(1.00003,0,0,-1.00008,18.041977,148.05788)" stroke-width=".3985" stroke-linecap="butt" stroke-miterlimit="10" stroke-linejoin="miter" fill="none" stroke="#000000" d=""/>
<path transform="matrix(1.00003,0,0,-1.00008,18.041977,148.05788)" stroke-width=".797" stroke-linecap="butt" stroke-linejoin="bevel" fill="none" stroke="#000000" d="M159.29145 118.6048C162.57915 118.6048 165.2443 116.97005 165.2443 114.95345 165.2443 112.93684 162.57915 111.3021 159.29145 111.3021 157.64769 111.3021 156.31517 111.96835 156.31517 112.79024 156.31517 113.61212 157.64769 114.27837 159.29145 114.27837 162.57915 114.27837 165.2443 112.64363 165.2443 110.62703 165.2443 108.61043 162.57915 106.97568 159.29145 106.97568 157.64769 106.97568 156.31517 107.64194 156.31517 108.4638 156.31517 109.28569 157.64769 109.95195 159.29145 109.95195 162.57915 109.95195 165.2443 108.3172 165.2443 106.3006 165.2443 104.284 162.57915 102.64925 159.29145 102.64925 157.64769 102.64925 156.31517 103.3155 156.31517 104.13739 156.31517 104.95927 157.64769 105.62553 159.29145 105.62553 162.57915 105.62553 165.2443 103.99078 165.2443 101.97418 165.2443 99.95758 162.57915 98.32283 159.29145 98.32283 157.64769 98.32283 156.31517 98.98909 156.31517 99.81097 156.31517 100.63284 157.64769 101.2991 159.29145 101.2991 162.57915 101.2991 165.2443 99.66437 165.2443 97.64775 165.2443 95.63115 162.57915 93.99641 159.29145 93.99641"/>
<use data-text="L" xlink:href="#font_2_2" transform="matrix(9.962899,0,0,-9.963397,196.01334,37.81105)"/>
<use data-text="4" xlink:href="#font_1_4" transform="matrix(9.962899,0,0,-9.963397,188.1951,49.768007)"/>
<use data-text="m" xlink:href="#font_1_8" transform="matrix(9.962899,0,0,-9.963397,194.83039,49.768007)"/>
<use data-text="H" xlink:href="#font_1_7" transform="matrix(9.962899,0,0,-9.963397,203.12949,49.768007)"/>
<path transform="matrix(1.00003,0,0,-1.00008,18.041977,148.05788)" stroke-width=".797" stroke-linecap="butt" stroke-miterlimit="10" stroke-linejoin="miter" fill="none" stroke="#000000" d="M171.35655 67.74883H147.54512M171.35655 59.81187H147.54512"/>
<use data-text="C" xlink:href="#font_2_1" transform="matrix(9.962899,0,0,-9.963397,205.15161,80.337459)"/>
<use data-text="1" xlink:href="#font_1_3" transform="matrix(9.962899,0,0,-9.963397,194.7443,92.29441)"/>
<use data-text="0" xlink:href="#font_1_2" transform="matrix(9.962899,0,0,-9.963397,199.72574,92.29441)"/>
<use data-text="0" xlink:href="#font_1_2" transform="matrix(9.962899,0,0,-9.963397,204.70719,92.29441)"/>
<use data-text="&#x00b5;" xlink:href="#font_4_402" transform="matrix(9.962899,0,0,-9.963397,211.3498,92.29441)"/>
<use data-text="F" xlink:href="#font_1_6" transform="matrix(9.962899,0,0,-9.963397,216.88895,92.29441)"/>
<path transform="matrix(1.00003,0,0,-1.00008,18.041977,148.05788)" stroke-width=".797" stroke-linecap="butt" stroke-linejoin="bevel" fill="none" stroke="#000000" d="M159.45084 37.53284 165.40369 34.45543 153.49799 29.09761 165.40369 23.73979 153.49799 18.38199 165.40369 13.02417 153.49799 7.66635 159.45084 4.98744"/>
<use data-text="R" xlink:href="#font_2_3" transform="matrix(9.962899,0,0,-9.963397,193.78427,122.86385)"/>
<use data-text="5" xlink:href="#font_1_5" transform="matrix(9.962899,0,0,-9.963397,188.1951,134.82082)"/>
<use data-text="0" xlink:href="#font_1_2" transform="matrix(9.962899,0,0,-9.963397,193.17655,134.82082)"/>
<use data-text="&#x2126;" xlink:href="#font_1_1" transform="matrix(9.962899,0,0,-9.963397,199.81185,134.82082)"/>
<path transform="matrix(1.00003,0,0,-1.00008,18.041977,148.05788)" d="M118.51776 .00003C118.51776 .8766 117.80717 1.58719 116.93062 1.58719 116.05405 1.58719 115.34348 .8766 115.34348 .00003 115.34348-.87651 116.05405-1.5871 116.93062-1.5871 117.80717-1.5871 118.51776-.87651 118.51776 .00003ZM116.93062 .00003" fill="#ffffff"/>
<path transform="matrix(1.00003,0,0,-1.00008,18.041977,148.05788)" stroke-width=".3985" stroke-linecap="butt" stroke-miterlimit="10" stroke-linejoin="miter" fill="none" stroke="#000000" d="M118.51776 .00003C118.51776 .8766 117.80717 1.58719 116.93062 1.58719 116.05405 1.58719 115.34348 .8766 115.34348 .00003 115.34348-.87651 116.05405-1.5871 116.93062-1.5871 117.80717-1.5871 118.51776-.87651 118.51776 .00003ZM116.93062 .00003"/>
<path transform="matrix(1.00003,0,0,-1.00008,18.041977,148.05788)" d="" fill="#ffffff"/>
<path transform="matrix(1.00003,0,0,-1.00008,18.041977,148.05788)" stroke-width=".3985" stroke-linecap="butt" stroke-miterlimit="10" stroke-linejoin="miter" fill="none" stroke="#000000" d=""/>
<path transform="matrix(1.00003,0,0,-1.00008,18.041977,148.05788)" stroke-width=".3985" stroke-linecap="butt" stroke-miterlimit="10" stroke-linejoin="miter" fill="none" stroke="#000000" d="M159.45569 42.52153 191.35753 42.52411M191.35753 42.52411 223.23601 42.52153"/>
<path transform="matrix(1.00003,0,0,-1.00008,18.041977,148.05788)" d="M224.82317 42.52153C224.82317 43.3981 224.11258 44.10869 223.23601 44.10869 222.35945 44.10869 221.64887 43.3981 221.64887 42.52153 221.64887 41.64497 222.35945 40.93439 223.23601 40.93439 224.11258 40.93439 224.82317 41.64497 224.82317 42.52153ZM223.23601 42.52153" fill="#ffffff"/>
<path transform="matrix(1.00003,0,0,-1.00008,18.041977,148.05788)" stroke-width=".3985" stroke-linecap="butt" stroke-miterlimit="10" stroke-linejoin="miter" fill="none" stroke="#000000" d="M224.82317 42.52153C224.82317 43.3981 224.11258 44.10869 223.23601 44.10869 222.35945 44.10869 221.64887 43.3981 221.64887 42.52153 221.64887 41.64497 222.35945 40.93439 223.23601 40.93439 224.11258 40.93439 224.82317 41.64497 224.82317 42.52153ZM223.23601 42.52153"/>
<path transform="matrix(1.00003,0,0,-1.00008,18.041977,148.05788)" d="" fill="#ffffff"/>
<path transform="matrix(1.00003,0,0,-1.00008,18.041977,148.05788)" stroke-width=".3985" stroke-linecap="butt" stroke-miterlimit="10" stroke-linejoin="miter" fill="none" stroke="#000000" d=""/>
<path transform="matrix(1.00003,0,0,-1.00008,18.041977,148.05788)" stroke-width=".3985" stroke-linecap="butt" stroke-miterlimit="10" stroke-linejoin="miter" fill="none" stroke="#000000" d="M159.45569 .00003H191.35753M191.35753 .00003H223.23601"/>
<path transform="matrix(1.00003,0,0,-1.00008,18.041977,148.05788)" d="M224.82317 .00003C224.82317 .8766 224.11258 1.58719 223.23601 1.58719 222.35945 1.58719 221.64887 .8766 221.64887 .00003 221.64887-.87651 222.35945-1.5871 223.23601-1.5871 224.11258-1.5871 224.82317-.87651 224.82317 .00003ZM223.23601 .00003" fill="#ffffff"/>
<path transform="matrix(1.00003,0,0,-1.00008,18.041977,148.05788)" stroke-width=".3985" stroke-linecap="butt" stroke-miterlimit="10" stroke-linejoin="miter" fill="none" stroke="#000000" d="M224.82317 .00003C224.82317 .8766 224.11258 1.58719 223.23601 1.58719 222.35945 1.58719 221.64887 .8766 221.64887 .00003 221.64887-.87651 222.35945-1.5871 223.23601-1.5871 224.11258-1.5871 224.82317-.87651 224.82317 .00003ZM223.23601 .00003"/>
<path transform="matrix(1.00003,0,0,-1.00008,18.041977,148.05788)" d="" fill="#ffffff"/>
<path transform="matrix(1.00003,0,0,-1.00008,18.041977,148.05788)" stroke-width=".3985" stroke-linecap="butt" stroke-miterlimit="10" stroke-linejoin="miter" fill="none" stroke="#000000" d=""/>
<path transform="matrix(1.00003,0,0,-1.00008,18.041977,148.05788)" stroke-width=".3985" stroke-linecap="butt" stroke-miterlimit="10" stroke-linejoin="miter" fill="none" stroke="#000000" d="M223.23603 21.26015"/>
<use data-text="&#x02dc;" xlink:href="#font_1_9" transform="matrix(9.962899,0,0,-9.963397,233.91246,128.08129)"/>
<use data-text="V" xlink:href="#font_2_4" transform="matrix(9.962899,0,0,-9.963397,232.39041,130.60048)"/>
<use data-text="o" xlink:href="#font_3_81" transform="matrix(6.9740097,0,0,-6.974358,238.20159,132.0946)"/>
<use data-text="u" xlink:href="#font_3_109" transform="matrix(6.9740097,0,0,-6.974358,242.1698,132.0946)"/>
<use data-text="t" xlink:href="#font_3_105" transform="matrix(6.9740097,0,0,-6.974358,246.5704,132.0946)"/>
<path transform="matrix(1.00003,0,0,-1.00008,18.041977,148.05788)" stroke-width=".3985" stroke-linecap="butt" stroke-dasharray="2.98883,2.98883" stroke-miterlimit="10" stroke-linejoin="miter" fill="none" stroke="#000000" d="M127.56062-5.315V138.19069H212.60106V-5.315H127.56062Z"/>
<path transform="matrix(1.00003,0,0,-1.00008,18.041977,148.05788)" stroke-width=".3985" stroke-linecap="butt" stroke-miterlimit="10" stroke-linejoin="miter" fill="none" stroke="#000000" d="M170.08092 143.50577"/>
<use data-text="L" xlink:href="#font_4_71" transform="matrix(9.962899,0,0,-9.963397,160.36626,7.94368)"/>
<use data-text="o" xlink:href="#font_4_81" transform="matrix(9.962899,0,0,-9.963397,166.59307,7.94368)"/>
<use data-text="a" xlink:href="#font_4_28" transform="matrix(9.962899,0,0,-9.963397,171.57453,7.94368)"/>
<use data-text="d" xlink:href="#font_4_47" transform="matrix(9.962899,0,0,-9.963397,176.55597,7.94368)"/>
<use data-text="C" xlink:href="#font_4_42" transform="matrix(9.962899,0,0,-9.963397,185.40303,7.94368)"/>
<use data-text="i" xlink:href="#font_4_66" transform="matrix(9.962899,0,0,-9.963397,192.59624,7.94368)"/>
<use data-text="r" xlink:href="#font_4_96" transform="matrix(9.962899,0,0,-9.963397,195.36594,7.94368)"/>
<use data-text="c" xlink:href="#font_4_43" transform="matrix(9.962899,0,0,-9.963397,199.2714,7.94368)"/>
<use data-text="u" xlink:href="#font_4_109" transform="matrix(9.962899,0,0,-9.963397,203.69492,7.94368)"/>
<use data-text="i" xlink:href="#font_4_66" transform="matrix(9.962899,0,0,-9.963397,209.23429,7.94368)"/>
<use data-text="t" xlink:href="#font_4_105" transform="matrix(9.962899,0,0,-9.963397,212.00399,7.94368)"/>
</svg>
