<svg xmlns="http://www.w3.org/2000/svg" xmlns:xlink="http://www.w3.org/1999/xlink" xmlns:inkscape="http://www.inkscape.org/namespaces/inkscape" version="1.1" width="338" height="178" viewBox="0 0 338 178">
<defs>
<path id="font_1_2" d="M.16099549 .07595825C.1519928 .039993287 .1499939 .0309906 .07499695 .0309906 .055999757 .0309906 .04499817 .0309906 .04499817 .0129852299 .04499817 0 .054992677 0 .07299805 0H.4099884C.6239929 0 .82299807 .21188355 .82299807 .42774964 .82299807 .56466677 .7369995 .6826172 .58099368 .6826172H.23799134C.21998596 .6826172 .20799256 .6826172 .20799256 .6646118 .20799256 .6516113 .21699524 .6516113 .23799134 .6516113 .24198914 .6516113 .2599945 .6516113 .27598573 .6496124 .29299928 .6476135 .2999878 .6456146 .2999878 .63461306 .2999878 .6296234 .29899598 .6256256 .29599 .614624L.16099549 .07595825M.3809967 .6126251C.3899994 .64860537 .3919983 .6516113 .43399049 .6516113H.5469971C.651001 .6516113 .73399356 .5936432 .73399356 .46472169 .73399356 .40675355 .70899966 .24685669 .6309967 .1479187 .58499148 .09095764 .5019989 .0309906 .3919983 .0309906H.27198792C.2579956 .0309906 .2559967 .0309906 .2519989 .03199768 .24198914 .032989503 .23899842 .033996583 .23899842 .040985109 .23899842 .04399109 .23899842 .04598999 .24398804 .063964847L.3809967 .6126251Z"/>
<path id="font_1_3" d="M.4119873-.04144287C.4099884-.05241394 .4099884-.06639099 .4099884-.07836914 .4099884-.12634278 .41799928-.19433594 .49699403-.19433594 .6159973-.19433594 .6669922-.015472412 .6669922-.00047302247 .6669922 .0055389406 .6619873 .011520386 .6539917 .011520386 .6459961 .011520386 .6439972 .0045318605 .6409912-.0024719239 .6179962-.070388797 .55999758-.095336917 .522995-.095336917 .47698976-.095336917 .46199037-.06639099 .45199586 .0045318605 .66999819 .09844971 .7579956 .29560853 .7579956 .43276979 .7579956 .59095767 .6519928 .7050781 .49499513 .7050781 .2709961 .7050781 .049987794 .474823 .049987794 .24655152 .049987794 .082458499 .16299439-.022460938 .31399537-.022460938 .35499574-.022460938 .3959961-.013473511 .41299439-.008468628L.4119873-.04144287M.2539978 .01751709C.20799256 .035507204 .14099121 .08746338 .14099121 .21650696 .14099121 .26957704 .1579895 .43077088 .2659912 .55992129 .31799317 .6210022 .4019928 .677063 .48799134 .677063 .58699038 .677063 .6669922 .6039734 .6669922 .46380616 .6669922 .36369325 .6179962 .13743592 .44599916 .041503908 .43699647 .095458988 .41799928 .1484375 .35398866 .1484375 .2979889 .1484375 .24899292 .097457889 .24899292 .04649353 .24899292 .038497926 .25099183 .024520874 .2539978 .01751709M.4149933 .025512696C.40098573 .019515992 .3619995 .0055389406 .32099916 .0055389406 .30799867 .0055389406 .27398683 .0055389406 .27398683 .04649353 .27398683 .083465579 .31098939 .123428348 .35499574 .123428348 .4139862 .123428348 .4149933 .06947327 .4149933 .025512696Z"/>
<path id="font_1_1" d="M.7739868 .67807009C.7769928 .6900635 .7769928 .69207766 .7769928 .69407656 .7769928 .69506838 .776001 .7050781 .7649994 .7050781 .7589874 .7050781 .7559967 .70207217 .7489929 .69407656L.6879883 .6270294C.6839905 .62202456 .6799927 .61802676 .67900088 .61802676 .6779938 .61802676 .6769867 .61901858 .67099 .62602236 .6559906 .64604189 .61099246 .7050781 .5069885 .7050781 .27799989 .7050781 .050994874 .48291017 .050994874 .25473023 .050994874 .09159851 .16999817-.022460938 .33099366-.022460938 .43499757-.022460938 .5169983 .031555177 .55599978 .0665741 .6469879 .14764405 .6639862 .23571778 .6639862 .23971558 .6639862 .24372864 .6619873 .25073243 .6499939 .25073243 .6389923 .25073243 .6369934 .24472046 .6359863 .24072266 .58699038 .079589847 .44400025 .008529663 .34399415 .008529663 .24699402 .008529663 .14399719 .06758118 .14399719 .21870423 .14399719 .2637329 .15899658 .42185975 .2599945 .54496768 .31999208 .61701968 .41799928 .67407229 .5139923 .67407229 .625 .67407229 .6839905 .5890045 .6839905 .47891236 .6839905 .44488526 .68099978 .43788148 .68099978 .4298706 .68099978 .41886903 .69299319 .41886903 .69599917 .41886903 .70899966 .41886903 .70899966 .42086793 .71398928 .43988038L.7739868 .67807009Z"/>
<path id="font_2_42" d="M.4889984 .16918946C.4889984 .20417786 .46099855 .20417786 .45098878 .20417786 .43699647 .20417786 .4149933 .20018006 .41299439 .17720032 .4059906 .06323242 .30499269 .056228639 .2889862 .056228639 .19699097 .056228639 .116989139 .16419983 .116989139 .30516053 .116989139 .45111085 .19999695 .5550842 .28799439 .5550842 .34599305 .5550842 .39898683 .50909426 .4119873 .4341278 .4149933 .41412355 .41799928 .39813233 .45098878 .39813233 .4889984 .39813233 .4889984 .42211915 .4889984 .44111634V.5780792C.4889984 .5930786 .4889984 .62109377 .45599366 .62109377 .43499757 .62109377 .43099977 .6130829 .41099549 .5770874 .36799623 .6090851 .32499696 .62109377 .28399659 .62109377 .1519928 .62109377 .040985109 .48410035 .040985109 .30615235 .040985109 .12721253 .15098572-.009765625 .2849884-.009765625 .39898683-.009765625 .4889984 .07522583 .4889984 .16918946Z"/>
<path id="font_2_71" d="M.49398805 .04283142V.13183594C.49398805 .15284729 .49398805 .17488098 .45599366 .17488098 .41799928 .17488098 .41799928 .15284729 .41799928 .13183594V.065826419H.18299866V.5453186H.23498535C.25 .5453186 .2789917 .5453186 .2789917 .57832339 .2789917 .6113281 .25 .6113281 .23498535 .6113281H.07398987C.05899048 .6113281 .02999878 .6113281 .02999878 .57832339 .02999878 .5453186 .05999756 .5453186 .07398987 .5453186H.10699463V.065826419H.07398987C.05899048 .065826419 .02999878 .065826419 .02999878 .032821657 .02999878 0 .05999756 0 .07398987 0H.45098878C.48399354 0 .49398805 .0079956059 .49398805 .042999269V.04283142Z"/>
<path id="font_2_95" d="M.5279999 .09719849C.5279999 .13119507 .49798585 .13119507 .48999024 .13119507 .48199464 .13119507 .45298768 .13119507 .45199586 .09919739 .45199586 .09222412 .44999696 .056228639 .43598939 .056228639 .41099549 .056228639 .41099549 .10223389 .41099549 .15022278 .41099549 .21322632 .41099549 .2202301 .40299989 .24223328 .3929901 .2662201 .3769989 .28822328 .35598756 .30422975 .40098573 .33117677 .43798829 .38220216 .43798829 .44224549 .43798829 .52830508 .3600006 .6113281 .24198914 .6113281H.06399536C.04899597 .6113281 .019989014 .6113281 .019989014 .57832339 .019989014 .5453186 .04899597 .5453186 .06399536 .5453186H.084991458V.06599426H.06399536C.04899597 .06619263 .019989014 .06619263 .019989014 .033203126 .019989014 0 .04899597 0 .06399536 0H.18199158C.19699097 .00019836426 .22599793 .00019836426 .22599793 .033203126 .22599793 .06599426 .19699097 .06599426 .18199158 .06599426H.16099549V.2734375H.23599243C.25698854 .2734375 .28199769 .2734375 .31199647 .24732971 .33499146 .22825623 .33499146 .20518494 .33499146 .16503906 .33499146 .09725952 .33499146 .06222534 .3619995 .02722168 .3849945-.003768921 .41799928-.009765625 .43699647-.009765625 .5009918-.009765625 .5279999 .052230836 .5279999 .09725952V.09719849M.3619995 .44236756C.3619995 .39639283 .31999208 .33943177 .22999573 .33943177H.16099549V.5453186H.22999573C.31999208 .5453186 .3619995 .48835755 .3619995 .44236756Z"/>
<path id="font_3_121" d="M.45999146 .31976319C.45999146 .39982606 .45498658 .47988893 .41999818 .5539398 .37399293 .65000918 .2919922 .6660156 .25 .6660156 .18998719 .6660156 .116989139 .64001467 .07598877 .54693606 .04399109 .47789 .038986207 .39982606 .038986207 .31976319 .038986207 .24472046 .042999269 .15464783 .083999637 .07859802 .1269989-.0024719239 .19999695-.022460938 .24899292-.022460938 .30299378-.022460938 .3789978-.0014648438 .4229889 .09359741 .45498658 .16265869 .45999146 .2407074 .45999146 .31976319M.3769989 .3317871C.3769989 .25672914 .3769989 .18867493 .3659973 .12461853 .35099793 .029556275 .2939911-.00047302247 .24899292-.00047302247 .20999146-.00047302247 .15098572 .024551392 .1329956 .12062073 .12199402 .18066406 .12199402 .2727356 .12199402 .3317871 .12199402 .39582826 .12199402 .46188355 .12998963 .5159149 .14898682 .63500979 .22399903 .64401248 .24899292 .64401248 .28199769 .64401248 .34799195 .6259918 .36698915 .52693179 .3769989 .47088624 .3769989 .39482118 .3769989 .3317871Z"/>
<path id="font_3_82" d="M.4189911 0V.0309906H.3869934C.29699708 .0309906 .2939911 .041992189 .2939911 .07902527V.64012148C.2939911 .6640167 .2939911 .6660156 .2709961 .6660156 .20899964 .60227969 .12098694 .60227969 .08898926 .60227969V.57128909C.10899353 .57128909 .16799927 .57128909 .21998596 .5972748V.07902527C.21998596 .042999269 .21699524 .0309906 .1269989 .0309906H.09498596V0C.12998963 .0029907227 .21699524 .0029907227 .25698854 .0029907227 .29699708 .0029907227 .38398744 .0029907227 .4189911 0Z"/>
<path id="font_3_107" d="M.44898988 .17396546H.42399598C.4189911 .14398194 .4119873 .099990848 .4019928 .084991458 .394989 .07699585 .32899476 .07699585 .30699159 .07699585H.1269989L.23298645 .17996216C.3889923 .31803895 .44898988 .37210084 .44898988 .47216798 .44898988 .5860901 .35899354 .6660156 .23699951 .6660156 .12399292 .6660156 .049987794 .57411196 .049987794 .48516847 .049987794 .4291687 .099990848 .4291687 .102996829 .4291687 .11999512 .4291687 .15499878 .44117738 .15499878 .48217774 .15499878 .5081787 .13699341 .5341797 .101989749 .5341797 .09399414 .5341797 .09199524 .5341797 .08898926 .5331726 .11199951 .59806826 .1659851 .63500979 .22399903 .63500979 .31498719 .63500979 .35798646 .5541382 .35798646 .47216798 .35798646 .39196778 .30799867 .31297303 .25299073 .25097657L.06098938 .036987306C.049987794 .025985718 .049987794 .023986817 .049987794 0H.42099L.44898988 .17396546Z"/>
<path id="font_3_106" d="M.45700074 .17037964C.45700074 .252594 .3939972 .33088685 .2899933 .35191346 .37199403 .37893678 .42999269 .4490509 .42999269 .52809146 .42999269 .6100464 .34199525 .6660156 .24598694 .6660156 .14498902 .6660156 .068984989 .60606387 .068984989 .53009036 .068984989 .49710084 .09098816 .47808839 .11999512 .47808839 .15098572 .47808839 .17098999 .50009158 .17098999 .5290985 .17098999 .57910159 .12399292 .57910159 .10899353 .57910159 .13999939 .62802127 .20599365 .64100649 .24198914 .64100649 .2829895 .64100649 .33799745 .6190338 .33799745 .5290985 .33799745 .51708987 .33599855 .45906068 .30999757 .4149933 .27999879 .36691285 .24598694 .36390687 .22099304 .36291505 .21299744 .36190797 .18899536 .35990907 .18199158 .35990907 .17399597 .35890199 .16699219 .35791017 .16699219 .3479004 .16699219 .33691407 .17399597 .33691407 .19099427 .33691407H.23498535C.31698609 .33691407 .35398866 .2686615 .35398866 .17037964 .35398866 .034469606 .2849884 .0055389406 .24099732 .0055389406 .19799805 .0055389406 .12298584 .022491456 .08799744 .08137512 .12298584 .07637024 .1539917 .09837341 .1539917 .1363678 .1539917 .17237854 .1269989 .19238281 .09799194 .19238281 .07398987 .19238281 .041992189 .17837525 .041992189 .1343689 .041992189 .043441774 .1349945-.022460938 .24398804-.022460938 .3659973-.022460938 .45700074 .06838989 .45700074 .17037964Z"/>
<path id="font_3_42" d="M.6649933 .23271179C.6649933 .24272156 .6649933 .24972534 .6519928 .24972534 .6409912 .24972534 .6409912 .24372864 .6399994 .23371887 .6319885 .09059143 .5249939 .008529663 .41600038 .008529663 .35499574 .008529663 .15899658 .042556764 .15899658 .34080506 .15899658 .64004519 .35398866 .67407229 .4149933 .67407229 .5239868 .67407229 .61299136 .58299258 .6329956 .4368744 .6349945 .42286683 .6349945 .41986085 .6489868 .41986085 .6649933 .41986085 .6649933 .42286683 .6649933 .44387818V.68107607C.6649933 .69807437 .6649933 .7050781 .6539917 .7050781 .6499939 .7050781 .6459961 .7050781 .6380005 .69306948L.58799746 .61901858C.5509949 .6550598 .5 .7050781 .4039917 .7050781 .21699524 .7050781 .055999757 .5459595 .055999757 .34179688 .055999757 .1346283 .21798706-.022460938 .4039917-.022460938 .5669861-.022460938 .6649933 .116622928 .6649933 .23271179Z"/>
<path id="font_3_71" d="M.58200076 .2578125H.5569916C.54599 .15588379 .5319977 .0309906 .35598756 .0309906H.27398683C.22698975 .03060913 .22499085 .037612916 .22499085 .07060242V.6036072C.22499085 .63760378 .22499085 .6516113 .31999208 .6516113H.35299684V.6826172C.31698609 .6796112 .22599793 .6796112 .18499756 .6796112 .1459961 .6796112 .067993167 .6796112 .032989503 .6826172V.6516113H.056991579C.13398743 .6518097 .13598633 .6408081 .13598633 .6048126V.07795715C.13598633 .04197693 .13398743 .0309906 .056991579 .0309906H.032989503V0H.55400088L.58200076 .2578125Z"/>
<path id="font_3_69" d="M.73599246 0V.0309906C.6819916 .0309906 .6609955 .034988405 .6309967 .07896423L.3999939 .41874696 .5799866 .5916443C.58799746 .5996399 .6409912 .65060427 .7220001 .6516113V.6826172C.69599917 .6796112 .6639862 .6796112 .6369934 .6796112 .6009979 .6796112 .5439911 .6796112 .5099945 .6826172V.6516113C.5499878 .65060427 .55599978 .6276245 .55599978 .6186218 .55599978 .6026306 .54599 .5926361 .5379944 .5856476L.22499085 .28683473V.6046295C.22499085 .64060977 .22698975 .6516113 .3039856 .6516113H.32798768V.6826172C.29299928 .6796112 .21899414 .6796112 .18099976 .6796112 .14299011 .6796112 .067993167 .6796112 .032989503 .6826172V.6516113H.056991579C.13398743 .6516113 .13598633 .64060977 .13598633 .6046295V.07795715C.13598633 .041992189 .13398743 .0309906 .056991579 .0309906H.032989503V0C.067993167 .0029907227 .14199829 .0029907227 .17999268 .0029907227 .21798706 .0029907227 .29299928 .0029907227 .32798768 0V.0309906H.3039856C.22698975 .0309906 .22499085 .041992189 .22499085 .07795715V.2528534L.34098817 .3627777 .5219879 .094955448C.5279999 .08595276 .5369873 .07296753 .5369873 .06097412 .5369873 .0309906 .49798585 .0309906 .47799684 .0309906V0C.5130005 .0029907227 .58299258 .0029907227 .62098696 .0029907227L.73599246 0Z"/>
<path id="font_4_1" d="M.43798829 .0055236818C.59298709 .0644989 .73999026 .24256897 .73999026 .43579103 .73999026 .5969696 .6339874 .7050781 .4850006 .7050781 .2689972 .7050781 .04899597 .47784425 .04899597 .24456787 .04899597 .07847595 .16099549-.022460938 .30499269-.022460938 .32998658-.022460938 .3639984-.018463135 .40299989-.007461548 .39898683-.06939697 .39898683-.071380618 .39898683-.084365848 .39898683-.11634827 .39898683-.19433594 .48199464-.19433594 .6009979-.19433594 .6489868-.011474609 .6489868-.00047302247 .6489868 .0065307619 .6419983 .009521484 .6380005 .009521484 .6299896 .009521484 .6279907 .0045318605 .6259918-.0014648438 .60198977-.072387699 .5439911-.097335819 .5089874-.097335819 .46299745-.097335819 .44799806-.070388797 .43798829 .0055236818M.24899292 .013519287C.17098999 .044509889 .13699341 .12245178 .13699341 .21252442 .13699341 .2816162 .16299439 .4237671 .23899842 .5319061 .31199647 .63401797 .4059906 .68006899 .47898866 .68006899 .57899478 .68006899 .6519928 .6019745 .6519928 .4678192 .6519928 .3677063 .6009979 .13345337 .43299867 .039505006 .42799378 .07447815 .41799928 .14746094 .34498597 .14746094 .2919922 .14746094 .24299622 .097473148 .24299622 .04550171 .24299622 .025512696 .24899292 .014526367 .24899292 .013519287M.31098939 .002532959C.29699708 .002532959 .2649994 .002532959 .2649994 .04550171 .2649994 .08547974 .30299378 .12545777 .34498597 .12545777 .3869934 .12545777 .4059906 .10147095 .4059906 .040512086 .4059906 .025512696 .40499879 .024520874 .394989 .020523072 .36898805 .009521484 .33898927 .002532959 .31098939 .002532959Z"/>
<path id="font_5_1" d="M.5159912 .31925965C.5159912 .42918397 .5029907 .50813296 .45700074 .5780945 .42599488 .62405398 .3639984 .6640625 .28399659 .6640625 .051986696 .6640625 .051986696 .39120484 .051986696 .31925965 .051986696 .2472992 .051986696-.01953125 .28399659-.01953125 .5159912-.01953125 .5159912 .2472992 .5159912 .31925965M.28399659 .008468628C.23799134 .008468628 .1769867 .035446168 .15699768 .117385867 .14299011 .17634583 .14299011 .25830079 .14299011 .33224488 .14299011 .40519715 .14299011 .4811554 .1579895 .53611758 .1789856 .6150665 .24299622 .63604739 .28399659 .63604739 .33799745 .63604739 .3899994 .6030731 .4079895 .545105 .42399598 .4911499 .4249878 .41918946 .4249878 .33224488 .4249878 .25830079 .4249878 .18434143 .4119873 .12138367 .3919983 .030441285 .32398988 .008468628 .28399659 .008468628Z"/>
<path id="font_5_2" d="M.33499146 .63612368C.33499146 .6630554 .33299256 .6640625 .30499269 .6640625 .24099732 .6014404 .1499939 .6004486 .10899353 .6004486V.5644531C.1329956 .5644531 .19898987 .5644531 .2539978 .592453V.08203125C.2539978 .04899597 .2539978 .035995485 .1539917 .035995485H.115997318V0C.13398743 .0009918213 .25698854 .0039978029 .2939911 .0039978029 .32499696 .0039978029 .45098878 .0009918213 .47299195 0V.035995485H.43499757C.33499146 .035995485 .33499146 .04899597 .33499146 .08203125V.63612368Z"/>
<path id="font_5_3" d="M.5049896 .18203736H.47099305C.46798707 .16001892 .45799256 .100997928 .44499208 .09098816 .43699647 .084991458 .3600006 .084991458 .34599305 .084991458H.1619873C.2669983 .17803955 .3019867 .20603943 .3619995 .25306703 .43598939 .312088 .5049896 .374115 .5049896 .46914674 .5049896 .5900879 .39898683 .6640625 .2709961 .6640625 .14698792 .6640625 .06298828 .57710269 .06298828 .4851532 .06298828 .43414308 .10598755 .42915345 .115997318 .42915345 .13999939 .42915345 .16899109 .44615174 .16899109 .48214723 .16899109 .5001526 .1619873 .53515627 .10998535 .53515627 .14099121 .6060791 .20899964 .62805178 .2559967 .62805178 .35598756 .62805178 .4079895 .5501404 .4079895 .46914674 .4079895 .38212586 .34599305 .3130951 .31399537 .27708436L.07299805 .038986207C.06298828 .02999878 .06298828 .027999878 .06298828 0H.47499085L.5049896 .18203736Z"/>
<path id="font_5_4" d="M.272995 .33428956C.35099793 .33428956 .40699769 .2803192 .40699769 .1733551 .40699769 .04940796 .33499146 .012466431 .2769928 .012466431 .23699951 .012466431 .14898682 .0234375 .10699463 .082351688 .1539917 .084350589 .16499329 .11735535 .16499329 .13835144 .16499329 .17034912 .14099121 .19335938 .10998535 .19335938 .08198547 .19335938 .053985597 .17634583 .053985597 .13534546 .053985597 .041412355 .1579895-.01953125 .2789917-.01953125 .41799928-.01953125 .5139923 .07336426 .5139923 .1733551 .5139923 .2513275 .44999696 .32929994 .33999635 .35229493 .44499208 .39024354 .48298646 .4650879 .48298646 .5260773 .48298646 .60505679 .3919983 .6640625 .2809906 .6640625 .16999817 .6640625 .084991458 .61006167 .084991458 .5300751 .084991458 .49606324 .10699463 .47706605 .13699341 .47706605 .16799927 .47706605 .18798828 .5000763 .18798828 .5280762 .18798828 .5570679 .16799927 .57806399 .13699341 .5800781 .17199707 .62405398 .24099732 .63505557 .27799989 .63505557 .32299806 .63505557 .38598634 .6130676 .38598634 .5260773 .38598634 .48406983 .37199403 .43814088 .34599305 .4072113 .31298829 .36927796 .2849884 .3672943 .23498535 .36428834 .20999146 .3623047 .20799256 .3623047 .20298767 .3612976 .20098877 .3612976 .19299317 .3592987 .19299317 .34829713 .19299317 .33428956 .20199585 .33428956 .21899414 .33428956H.272995Z"/>
</defs>
<path transform="matrix(1.00005,0,0,-1.00003,71.83183,131.26146)" stroke-width=".3985" stroke-linecap="butt" stroke-miterlimit="10" stroke-linejoin="miter" fill="none" stroke="#000000" d="M31.74811 23.81143H38.8348M38.8348 23.81143H45.92151M109.41774 23.8114H116.50443M116.50443 23.8114H123.59114M187.08737 23.81137H194.17406M194.17406 23.81137H201.26076M-31.74811-23.81143V-34.44147M-31.74811-34.44147V-45.07153L0-45.07152M0-45.07152 31.74811-45.07153V-34.44148M31.74811-34.44148V-23.81146M45.92151-23.81146 45.9215-34.44148M45.9215-34.44148 45.92151-45.07153 77.6696-45.07152M77.6696-45.07152 109.41774-45.07153 109.41772-34.4415M109.41772-34.4415 109.41774-23.8115M123.59114-23.8115V-34.4415M123.59114-34.4415V-45.07153L155.33925-45.07152M155.33925-45.07152 187.08737-45.07153V-34.44151M187.08737-34.44151V-23.81152M201.26076-23.81152 201.26074-34.44151M201.26074-34.44151 201.26076-45.07153 233.00887-45.07152M233.00887-45.07152 264.757-45.07153 264.75697-34.44153M264.75697-34.44153 264.757-23.81155M-31.74811 23.81146H-38.8348M-38.8348 23.81146H-45.92151M38.8348 23.81143 38.83478 34.44147M38.83478 34.44147 38.8348 45.07153M116.50443 23.8114V34.44145M116.50443 34.44145V45.07153M194.17406 23.81137 194.17404 34.44144M194.17404 34.44144 194.17406 45.07153M264.757 23.81134 264.75697 34.44142M264.75697 34.44142 264.757 45.07153M0 43.65413V57.82753M0 57.82753V72.00095H116.50443M116.50443 72.00095H233.00888L233.00887 57.82748M233.00887 57.82748 233.00888 43.65404M77.66962 43.6541 77.6696 57.82751M77.6696 57.82751 77.66962 72.00095M155.33925 43.65407V57.8275M155.33925 57.8275V72.00095M116.50443 45.07153V75.2609M116.50443 75.2609V105.45029L112.41121 105.45027M112.41121 105.45027 108.31798 105.45029M264.757 45.07153 264.75697 83.19785M264.75697 83.19785 264.757 121.3242 186.53748 121.32419M186.53748 121.32419 108.31798 121.3242M47.02126 113.38725V92.69409M47.02126 92.69409V72.00095"/>
<path transform="matrix(1.00005,0,0,-1.00003,71.83183,131.26146)" stroke-width=".797" stroke-linecap="butt" stroke-miterlimit="10" stroke-linejoin="miter" fill="none" stroke="#000000" d="M-23.81116-35.71718H23.811152V35.71718H-23.81116Z"/>
<path transform="matrix(1.00005,0,0,-1.00003,71.83183,131.26146)" stroke-width=".797" stroke-linecap="butt" stroke-miterlimit="10" stroke-linejoin="miter" fill="none" stroke="#000000" d=""/>
<use data-text="D" xlink:href="#font_1_2" transform="matrix(8.966848,0,0,-8.966669,51.095796,157.76325)"/>
<path transform="matrix(1.00005,0,0,-1.00003,-74.61148,42.496789)" stroke-width=".3786" stroke-linecap="butt" stroke-miterlimit="10" stroke-linejoin="miter" fill="none" stroke="#000000" d="M159.904-107.811H167.172"/>
<use data-text="Q" xlink:href="#font_1_3" transform="matrix(8.966848,0,0,-8.966669,85.30051,157.76325)"/>
<path transform="matrix(1.00005,0,0,-1.00003,71.83183,131.26146)" stroke-width=".3985" stroke-linecap="butt" stroke-miterlimit="10" stroke-linejoin="miter" fill="none" stroke="#000000" d="M-23.81116 28.57367-19.04893 23.81146-23.81116 19.04924"/>
<use data-text="C" xlink:href="#font_1_1" transform="matrix(8.966848,0,0,-8.966669,55.85804,110.139827)"/>
<use data-text="Q" xlink:href="#font_1_3" transform="matrix(8.966848,0,0,-8.966669,85.30051,110.139827)"/>
<path transform="matrix(1.00005,0,0,-1.00003,-91.32331,-14.741928)" stroke-width=".2419" stroke-linecap="butt" stroke-miterlimit="10" stroke-linejoin="miter" fill="none" stroke="#000000" d="M159.18-111.323H167.115"/>
<use data-text="C" xlink:href="#font_2_42" transform="matrix(4.981549,0,0,-4.9814498,67.86463,100.524539)"/>
<use data-text="L" xlink:href="#font_2_71" transform="matrix(4.981549,0,0,-4.9814498,70.509838,100.524539)"/>
<use data-text="R" xlink:href="#font_2_95" transform="matrix(4.981549,0,0,-4.9814498,73.15502,100.524539)"/>
<path transform="matrix(1.00005,0,0,-1.00003,71.83183,131.26146)" stroke-width=".3985" stroke-linecap="butt" stroke-miterlimit="10" stroke-linejoin="miter" fill="none" stroke="#000000" d="M-23.81116-23.81143H-31.74811"/>
<path transform="matrix(1.00005,0,0,-1.00003,71.83183,131.26146)" stroke-width=".3985" stroke-linecap="butt" stroke-miterlimit="10" stroke-linejoin="miter" fill="none" stroke="#000000" d="M23.81116-23.81143H31.74811"/>
<path transform="matrix(1.00005,0,0,-1.00003,71.83183,131.26146)" stroke-width=".3985" stroke-linecap="butt" stroke-miterlimit="10" stroke-linejoin="miter" fill="none" stroke="#000000" d="M-23.81116 23.81146H-31.74811"/>
<path transform="matrix(1.00005,0,0,-1.00003,71.83183,131.26146)" stroke-width=".3985" stroke-linecap="butt" stroke-miterlimit="10" stroke-linejoin="miter" fill="none" stroke="#000000" d="M23.81116 23.81146H31.74811"/>
<path transform="matrix(1.00005,0,0,-1.00003,71.83183,131.26146)" stroke-width=".3985" stroke-linecap="butt" stroke-miterlimit="10" stroke-linejoin="miter" fill="none" stroke="#000000" d="M0 35.71718V43.65413"/>
<path transform="matrix(1.00005,0,0,-1.00003,71.83183,131.26146)" d="M-23.81116 23.81146C-23.81116 25.16164-24.90567 26.25615-26.25584 26.25615-27.60602 26.25615-28.70053 25.16164-28.70053 23.81146-28.70053 22.46127-27.60602 21.36678-26.25584 21.36678-24.90567 21.36678-23.81116 22.46127-23.81116 23.81146ZM-26.25584 23.81146" fill="#ffffff"/>
<path transform="matrix(1.00005,0,0,-1.00003,71.83183,131.26146)" stroke-width=".797" stroke-linecap="butt" stroke-miterlimit="10" stroke-linejoin="miter" fill="none" stroke="#000000" d="M-23.81116 23.81146C-23.81116 25.16164-24.90567 26.25615-26.25584 26.25615-27.60602 26.25615-28.70053 25.16164-28.70053 23.81146-28.70053 22.46127-27.60602 21.36678-26.25584 21.36678-24.90567 21.36678-23.81116 22.46127-23.81116 23.81146ZM-26.25584 23.81146"/>
<path transform="matrix(1.00005,0,0,-1.00003,71.83183,131.26146)" d="" fill="#ffffff"/>
<path transform="matrix(1.00005,0,0,-1.00003,71.83183,131.26146)" stroke-width=".797" stroke-linecap="butt" stroke-miterlimit="10" stroke-linejoin="miter" fill="none" stroke="#000000" d=""/>
<use data-text="0" xlink:href="#font_3_121" transform="matrix(9.963098,0,0,-9.962899,69.340709,134.46956)"/>
<path transform="matrix(1.00005,0,0,-1.00003,71.83183,131.26146)" stroke-width=".797" stroke-linecap="butt" stroke-miterlimit="10" stroke-linejoin="miter" fill="none" stroke="#000000" d="M53.85846-35.71721H101.480777V35.717149H53.85846Z"/>
<path transform="matrix(1.00005,0,0,-1.00003,71.83183,131.26146)" stroke-width=".797" stroke-linecap="butt" stroke-miterlimit="10" stroke-linejoin="miter" fill="none" stroke="#000000" d=""/>
<use data-text="D" xlink:href="#font_1_2" transform="matrix(8.966848,0,0,-8.966669,128.76868,157.76325)"/>
<path transform="matrix(1.00005,0,0,-1.00003,3.0614014,42.496789)" stroke-width=".3786" stroke-linecap="butt" stroke-miterlimit="10" stroke-linejoin="miter" fill="none" stroke="#000000" d="M159.904-107.811H167.172"/>
<use data-text="Q" xlink:href="#font_1_3" transform="matrix(8.966848,0,0,-8.966669,162.97339,157.76325)"/>
<path transform="matrix(1.00005,0,0,-1.00003,71.83183,131.26146)" stroke-width=".3985" stroke-linecap="butt" stroke-miterlimit="10" stroke-linejoin="miter" fill="none" stroke="#000000" d="M53.85846 28.57364 58.62068 23.81143 53.85846 19.04921"/>
<use data-text="C" xlink:href="#font_1_1" transform="matrix(8.966848,0,0,-8.966669,133.53192,110.139827)"/>
<use data-text="Q" xlink:href="#font_1_3" transform="matrix(8.966848,0,0,-8.966669,162.97339,110.139827)"/>
<path transform="matrix(1.00005,0,0,-1.00003,-13.649437,-14.741928)" stroke-width=".2419" stroke-linecap="butt" stroke-miterlimit="10" stroke-linejoin="miter" fill="none" stroke="#000000" d="M159.18-111.323H167.115"/>
<use data-text="C" xlink:href="#font_2_42" transform="matrix(4.981549,0,0,-4.9814498,145.53852,100.524539)"/>
<use data-text="L" xlink:href="#font_2_71" transform="matrix(4.981549,0,0,-4.9814498,148.18372,100.524539)"/>
<use data-text="R" xlink:href="#font_2_95" transform="matrix(4.981549,0,0,-4.9814498,150.82889,100.524539)"/>
<path transform="matrix(1.00005,0,0,-1.00003,71.83183,131.26146)" stroke-width=".3985" stroke-linecap="butt" stroke-miterlimit="10" stroke-linejoin="miter" fill="none" stroke="#000000" d="M53.85846-23.81146H45.92151"/>
<path transform="matrix(1.00005,0,0,-1.00003,71.83183,131.26146)" stroke-width=".3985" stroke-linecap="butt" stroke-miterlimit="10" stroke-linejoin="miter" fill="none" stroke="#000000" d="M101.48079-23.81146H109.41774"/>
<path transform="matrix(1.00005,0,0,-1.00003,71.83183,131.26146)" stroke-width=".3985" stroke-linecap="butt" stroke-miterlimit="10" stroke-linejoin="miter" fill="none" stroke="#000000" d="M53.85846 23.81143H45.92151"/>
<path transform="matrix(1.00005,0,0,-1.00003,71.83183,131.26146)" stroke-width=".3985" stroke-linecap="butt" stroke-miterlimit="10" stroke-linejoin="miter" fill="none" stroke="#000000" d="M101.48079 23.81143H109.41774"/>
<path transform="matrix(1.00005,0,0,-1.00003,71.83183,131.26146)" stroke-width=".3985" stroke-linecap="butt" stroke-miterlimit="10" stroke-linejoin="miter" fill="none" stroke="#000000" d="M77.66962 35.71715V43.6541"/>
<path transform="matrix(1.00005,0,0,-1.00003,71.83183,131.26146)" d="M53.85846 23.81143C53.85846 25.1616 52.76395 26.25612 51.41377 26.25612 50.06358 26.25612 48.96907 25.1616 48.96907 23.81143 48.96907 22.46124 50.06358 21.36674 51.41377 21.36674 52.76395 21.36674 53.85846 22.46124 53.85846 23.81143ZM51.41377 23.81143" fill="#ffffff"/>
<path transform="matrix(1.00005,0,0,-1.00003,71.83183,131.26146)" stroke-width=".797" stroke-linecap="butt" stroke-miterlimit="10" stroke-linejoin="miter" fill="none" stroke="#000000" d="M53.85846 23.81143C53.85846 25.1616 52.76395 26.25612 51.41377 26.25612 50.06358 26.25612 48.96907 25.1616 48.96907 23.81143 48.96907 22.46124 50.06358 21.36674 51.41377 21.36674 52.76395 21.36674 53.85846 22.46124 53.85846 23.81143ZM51.41377 23.81143"/>
<path transform="matrix(1.00005,0,0,-1.00003,71.83183,131.26146)" d="" fill="#ffffff"/>
<path transform="matrix(1.00005,0,0,-1.00003,71.83183,131.26146)" stroke-width=".797" stroke-linecap="butt" stroke-miterlimit="10" stroke-linejoin="miter" fill="none" stroke="#000000" d=""/>
<use data-text="1" xlink:href="#font_3_82" transform="matrix(9.963098,0,0,-9.962899,147.01459,134.57956)"/>
<path transform="matrix(1.00005,0,0,-1.00003,71.83183,131.26146)" stroke-width=".797" stroke-linecap="butt" stroke-miterlimit="10" stroke-linejoin="miter" fill="none" stroke="#000000" d="M131.52809-35.71724H179.1504V35.717119H131.52809Z"/>
<path transform="matrix(1.00005,0,0,-1.00003,71.83183,131.26146)" stroke-width=".797" stroke-linecap="butt" stroke-miterlimit="10" stroke-linejoin="miter" fill="none" stroke="#000000" d=""/>
<use data-text="D" xlink:href="#font_1_2" transform="matrix(8.966848,0,0,-8.966669,206.44257,157.76325)"/>
<path transform="matrix(1.00005,0,0,-1.00003,80.73529,42.496789)" stroke-width=".3786" stroke-linecap="butt" stroke-miterlimit="10" stroke-linejoin="miter" fill="none" stroke="#000000" d="M159.904-107.811H167.172"/>
<use data-text="Q" xlink:href="#font_1_3" transform="matrix(8.966848,0,0,-8.966669,240.64728,157.76325)"/>
<path transform="matrix(1.00005,0,0,-1.00003,71.83183,131.26146)" stroke-width=".3985" stroke-linecap="butt" stroke-miterlimit="10" stroke-linejoin="miter" fill="none" stroke="#000000" d="M131.52809 28.57361 136.2903 23.8114 131.52809 19.04918"/>
<use data-text="C" xlink:href="#font_1_1" transform="matrix(8.966848,0,0,-8.966669,211.20479,110.139827)"/>
<use data-text="Q" xlink:href="#font_1_3" transform="matrix(8.966848,0,0,-8.966669,240.64728,110.139827)"/>
<path transform="matrix(1.00005,0,0,-1.00003,64.02345,-14.741928)" stroke-width=".2419" stroke-linecap="butt" stroke-miterlimit="10" stroke-linejoin="miter" fill="none" stroke="#000000" d="M159.18-111.323H167.115"/>
<use data-text="C" xlink:href="#font_2_42" transform="matrix(4.981549,0,0,-4.9814498,223.2114,100.524539)"/>
<use data-text="L" xlink:href="#font_2_71" transform="matrix(4.981549,0,0,-4.9814498,225.8566,100.524539)"/>
<use data-text="R" xlink:href="#font_2_95" transform="matrix(4.981549,0,0,-4.9814498,228.50179,100.524539)"/>
<path transform="matrix(1.00005,0,0,-1.00003,71.83183,131.26146)" stroke-width=".3985" stroke-linecap="butt" stroke-miterlimit="10" stroke-linejoin="miter" fill="none" stroke="#000000" d="M131.52809-23.8115H123.59114"/>
<path transform="matrix(1.00005,0,0,-1.00003,71.83183,131.26146)" stroke-width=".3985" stroke-linecap="butt" stroke-miterlimit="10" stroke-linejoin="miter" fill="none" stroke="#000000" d="M179.1504-23.8115H187.08737"/>
<path transform="matrix(1.00005,0,0,-1.00003,71.83183,131.26146)" stroke-width=".3985" stroke-linecap="butt" stroke-miterlimit="10" stroke-linejoin="miter" fill="none" stroke="#000000" d="M131.52809 23.8114H123.59114"/>
<path transform="matrix(1.00005,0,0,-1.00003,71.83183,131.26146)" stroke-width=".3985" stroke-linecap="butt" stroke-miterlimit="10" stroke-linejoin="miter" fill="none" stroke="#000000" d="M179.1504 23.8114H187.08737"/>
<path transform="matrix(1.00005,0,0,-1.00003,71.83183,131.26146)" stroke-width=".3985" stroke-linecap="butt" stroke-miterlimit="10" stroke-linejoin="miter" fill="none" stroke="#000000" d="M155.33925 35.71712V43.65407"/>
<path transform="matrix(1.00005,0,0,-1.00003,71.83183,131.26146)" d="M131.52809 23.8114C131.52809 25.16158 130.43358 26.25609 129.08339 26.25609 127.73322 26.25609 126.6387 25.16158 126.6387 23.8114 126.6387 22.46121 127.73322 21.36671 129.08339 21.36671 130.43358 21.36671 131.52809 22.46121 131.52809 23.8114ZM129.08339 23.8114" fill="#ffffff"/>
<path transform="matrix(1.00005,0,0,-1.00003,71.83183,131.26146)" stroke-width=".797" stroke-linecap="butt" stroke-miterlimit="10" stroke-linejoin="miter" fill="none" stroke="#000000" d="M131.52809 23.8114C131.52809 25.16158 130.43358 26.25609 129.08339 26.25609 127.73322 26.25609 126.6387 25.16158 126.6387 23.8114 126.6387 22.46121 127.73322 21.36671 129.08339 21.36671 130.43358 21.36671 131.52809 22.46121 131.52809 23.8114ZM129.08339 23.8114"/>
<path transform="matrix(1.00005,0,0,-1.00003,71.83183,131.26146)" d="" fill="#ffffff"/>
<path transform="matrix(1.00005,0,0,-1.00003,71.83183,131.26146)" stroke-width=".797" stroke-linecap="butt" stroke-miterlimit="10" stroke-linejoin="miter" fill="none" stroke="#000000" d=""/>
<use data-text="2" xlink:href="#font_3_107" transform="matrix(9.963098,0,0,-9.962899,224.68846,134.57956)"/>
<path transform="matrix(1.00005,0,0,-1.00003,71.83183,131.26146)" stroke-width=".797" stroke-linecap="butt" stroke-miterlimit="10" stroke-linejoin="miter" fill="none" stroke="#000000" d="M209.19773-35.71727H256.82005V35.717088H209.19773Z"/>
<path transform="matrix(1.00005,0,0,-1.00003,71.83183,131.26146)" stroke-width=".797" stroke-linecap="butt" stroke-miterlimit="10" stroke-linejoin="miter" fill="none" stroke="#000000" d=""/>
<use data-text="D" xlink:href="#font_1_2" transform="matrix(8.966848,0,0,-8.966669,284.11647,157.76425)"/>
<path transform="matrix(1.00005,0,0,-1.00003,158.40917,42.49779)" stroke-width=".3786" stroke-linecap="butt" stroke-miterlimit="10" stroke-linejoin="miter" fill="none" stroke="#000000" d="M159.904-107.811H167.172"/>
<use data-text="Q" xlink:href="#font_1_3" transform="matrix(8.966848,0,0,-8.966669,318.32118,157.76425)"/>
<path transform="matrix(1.00005,0,0,-1.00003,71.83183,131.26146)" stroke-width=".3985" stroke-linecap="butt" stroke-miterlimit="10" stroke-linejoin="miter" fill="none" stroke="#000000" d="M209.19773 28.57358 213.95993 23.81137 209.19773 19.04915"/>
<use data-text="C" xlink:href="#font_1_1" transform="matrix(8.966848,0,0,-8.966669,288.87867,110.139827)"/>
<use data-text="Q" xlink:href="#font_1_3" transform="matrix(8.966848,0,0,-8.966669,318.32118,110.139827)"/>
<path transform="matrix(1.00005,0,0,-1.00003,141.69733,-14.741928)" stroke-width=".2419" stroke-linecap="butt" stroke-miterlimit="10" stroke-linejoin="miter" fill="none" stroke="#000000" d="M159.18-111.323H167.115"/>
<use data-text="C" xlink:href="#font_2_42" transform="matrix(4.981549,0,0,-4.9814498,300.88526,100.524539)"/>
<use data-text="L" xlink:href="#font_2_71" transform="matrix(4.981549,0,0,-4.9814498,303.53047,100.524539)"/>
<use data-text="R" xlink:href="#font_2_95" transform="matrix(4.981549,0,0,-4.9814498,306.17567,100.524539)"/>
<path transform="matrix(1.00005,0,0,-1.00003,71.83183,131.26146)" stroke-width=".3985" stroke-linecap="butt" stroke-miterlimit="10" stroke-linejoin="miter" fill="none" stroke="#000000" d="M209.19773-23.81152H201.26076"/>
<path transform="matrix(1.00005,0,0,-1.00003,71.83183,131.26146)" stroke-width=".3985" stroke-linecap="butt" stroke-miterlimit="10" stroke-linejoin="miter" fill="none" stroke="#000000" d="M256.82005-23.81152H264.757"/>
<path transform="matrix(1.00005,0,0,-1.00003,71.83183,131.26146)" stroke-width=".3985" stroke-linecap="butt" stroke-miterlimit="10" stroke-linejoin="miter" fill="none" stroke="#000000" d="M209.19773 23.81137H201.26076"/>
<path transform="matrix(1.00005,0,0,-1.00003,71.83183,131.26146)" stroke-width=".3985" stroke-linecap="butt" stroke-miterlimit="10" stroke-linejoin="miter" fill="none" stroke="#000000" d="M256.82005 23.81137H264.757"/>
<path transform="matrix(1.00005,0,0,-1.00003,71.83183,131.26146)" stroke-width=".3985" stroke-linecap="butt" stroke-miterlimit="10" stroke-linejoin="miter" fill="none" stroke="#000000" d="M233.00888 35.71709V43.65404"/>
<path transform="matrix(1.00005,0,0,-1.00003,71.83183,131.26146)" d="M209.19773 23.81137C209.19773 25.16154 208.10321 26.25606 206.75302 26.25606 205.40285 26.25606 204.30834 25.16154 204.30834 23.81137 204.30834 22.46118 205.40285 21.36668 206.75302 21.36668 208.10321 21.36668 209.19773 22.46118 209.19773 23.81137ZM206.75302 23.81137" fill="#ffffff"/>
<path transform="matrix(1.00005,0,0,-1.00003,71.83183,131.26146)" stroke-width=".797" stroke-linecap="butt" stroke-miterlimit="10" stroke-linejoin="miter" fill="none" stroke="#000000" d="M209.19773 23.81137C209.19773 25.16154 208.10321 26.25606 206.75302 26.25606 205.40285 26.25606 204.30834 25.16154 204.30834 23.81137 204.30834 22.46118 205.40285 21.36668 206.75302 21.36668 208.10321 21.36668 209.19773 22.46118 209.19773 23.81137ZM206.75302 23.81137"/>
<path transform="matrix(1.00005,0,0,-1.00003,71.83183,131.26146)" d="" fill="#ffffff"/>
<path transform="matrix(1.00005,0,0,-1.00003,71.83183,131.26146)" stroke-width=".797" stroke-linecap="butt" stroke-miterlimit="10" stroke-linejoin="miter" fill="none" stroke="#000000" d=""/>
<use data-text="3" xlink:href="#font_3_106" transform="matrix(9.963098,0,0,-9.962899,302.36137,134.46956)"/>
<path transform="matrix(1.00005,0,0,-1.00003,71.83183,131.26146)" stroke-width=".3985" stroke-linecap="butt" stroke-miterlimit="10" stroke-linejoin="miter" fill="none" stroke="#000000" d="M97.20673 105.45029H108.31798M97.20673 121.3242H108.31798"/>
<path transform="matrix(1.00005,0,0,-1.00003,71.83183,131.26146)" stroke-width=".797" stroke-linecap="butt" stroke-miterlimit="10" stroke-linejoin="miter" fill="none" stroke="#000000" d="M97.20673 97.51334H74.0064C65.23938 97.51334 58.13249 104.62022 58.13249 113.38725 58.13249 122.15427 65.23938 129.26116 74.0064 129.26116H97.20673Z"/>
<path transform="matrix(1.00005,0,0,-1.00003,71.83183,131.26146)" stroke-width=".3985" stroke-linecap="butt" stroke-miterlimit="10" stroke-linejoin="miter" fill="none" stroke="#000000" d="M53.24313 113.38725H47.02126"/>
<path transform="matrix(1.00005,0,0,-1.00003,71.83183,131.26146)" d="M53.24313 113.38725C53.24313 112.03706 54.33765 110.94255 55.68782 110.94255 57.038 110.94255 58.1325 112.03706 58.1325 113.38725 58.1325 114.73743 57.038 115.83194 55.68782 115.83194 54.33765 115.83194 53.24313 114.73743 53.24313 113.38725ZM55.68782 113.38725" fill="#ffffff"/>
<path transform="matrix(1.00005,0,0,-1.00003,71.83183,131.26146)" stroke-width=".797" stroke-linecap="butt" stroke-miterlimit="10" stroke-linejoin="miter" fill="none" stroke="#000000" d="M53.24313 113.38725C53.24313 112.03706 54.33765 110.94255 55.68782 110.94255 57.038 110.94255 58.1325 112.03706 58.1325 113.38725 58.1325 114.73743 57.038 115.83194 55.68782 115.83194 54.33765 115.83194 53.24313 114.73743 53.24313 113.38725ZM55.68782 113.38725"/>
<path transform="matrix(1.00005,0,0,-1.00003,71.83183,131.26146)" d="" fill="#ffffff"/>
<path transform="matrix(1.00005,0,0,-1.00003,71.83183,131.26146)" stroke-width=".797" stroke-linecap="butt" stroke-miterlimit="10" stroke-linejoin="miter" fill="none" stroke="#000000" d=""/>
<use data-text="C" xlink:href="#font_3_42" transform="matrix(9.963098,0,0,-9.962899,1.2163086,110.851848)"/>
<use data-text="L" xlink:href="#font_3_71" transform="matrix(9.963098,0,0,-9.962899,8.409668,110.851848)"/>
<use data-text="K" xlink:href="#font_3_69" transform="matrix(9.963098,0,0,-9.962899,14.636597,110.851848)"/>
<path transform="matrix(1.00005,0,0,-1.00003,71.83183,131.26146)" d="M40.42195 23.81143C40.42195 24.68799 39.71136 25.39857 38.8348 25.39857 37.95824 25.39857 37.24765 24.68799 37.24765 23.81143 37.24765 22.93486 37.95824 22.22429 38.8348 22.22429 39.71136 22.22429 40.42195 22.93486 40.42195 23.81143ZM38.8348 23.81143"/>
<path transform="matrix(1.00005,0,0,-1.00003,71.83183,131.26146)" stroke-width=".3985" stroke-linecap="butt" stroke-miterlimit="10" stroke-linejoin="miter" fill="none" stroke="#000000" d="M40.42195 23.81143C40.42195 24.68799 39.71136 25.39857 38.8348 25.39857 37.95824 25.39857 37.24765 24.68799 37.24765 23.81143 37.24765 22.93486 37.95824 22.22429 38.8348 22.22429 39.71136 22.22429 40.42195 22.93486 40.42195 23.81143ZM38.8348 23.81143"/>
<use data-text="Q" xlink:href="#font_4_1" transform="matrix(9.963098,0,0,-9.962899,94.80198,88.624179)"/>
<use data-text="0" xlink:href="#font_5_1" transform="matrix(6.9741489,0,0,-6.9740097,102.67838,90.119228)"/>
<path transform="matrix(1.00005,0,0,-1.00003,71.83183,131.26146)" d="M118.09157 23.8114C118.09157 24.68796 117.381 25.39854 116.50443 25.39854 115.62787 25.39854 114.91728 24.68796 114.91728 23.8114 114.91728 22.93483 115.62787 22.22426 116.50443 22.22426 117.381 22.22426 118.09157 22.93483 118.09157 23.8114ZM116.50443 23.8114"/>
<path transform="matrix(1.00005,0,0,-1.00003,71.83183,131.26146)" stroke-width=".3985" stroke-linecap="butt" stroke-miterlimit="10" stroke-linejoin="miter" fill="none" stroke="#000000" d="M118.09157 23.8114C118.09157 24.68796 117.381 25.39854 116.50443 25.39854 115.62787 25.39854 114.91728 24.68796 114.91728 23.8114 114.91728 22.93483 115.62787 22.22426 116.50443 22.22426 117.381 22.22426 118.09157 22.93483 118.09157 23.8114ZM116.50443 23.8114"/>
<use data-text="Q" xlink:href="#font_4_1" transform="matrix(9.963098,0,0,-9.962899,172.47586,88.624179)"/>
<use data-text="1" xlink:href="#font_5_2" transform="matrix(6.9741489,0,0,-6.9740097,180.35227,90.119228)"/>
<path transform="matrix(1.00005,0,0,-1.00003,71.83183,131.26146)" d="M195.7612 23.81137C195.7612 24.68793 195.05062 25.39851 194.17406 25.39851 193.2975 25.39851 192.58692 24.68793 192.58692 23.81137 192.58692 22.9348 193.2975 22.22423 194.17406 22.22423 195.05062 22.22423 195.7612 22.9348 195.7612 23.81137ZM194.17406 23.81137"/>
<path transform="matrix(1.00005,0,0,-1.00003,71.83183,131.26146)" stroke-width=".3985" stroke-linecap="butt" stroke-miterlimit="10" stroke-linejoin="miter" fill="none" stroke="#000000" d="M195.7612 23.81137C195.7612 24.68793 195.05062 25.39851 194.17406 25.39851 193.2975 25.39851 192.58692 24.68793 192.58692 23.81137 192.58692 22.9348 193.2975 22.22423 194.17406 22.22423 195.05062 22.22423 195.7612 22.9348 195.7612 23.81137ZM194.17406 23.81137"/>
<use data-text="Q" xlink:href="#font_4_1" transform="matrix(9.963098,0,0,-9.962899,250.14975,88.624179)"/>
<use data-text="2" xlink:href="#font_5_3" transform="matrix(6.9741489,0,0,-6.9740097,258.02616,90.119228)"/>
<use data-text="Q" xlink:href="#font_4_1" transform="matrix(9.963098,0,0,-9.962899,320.73628,88.624179)"/>
<use data-text="3" xlink:href="#font_5_4" transform="matrix(6.9741489,0,0,-6.9740097,328.61268,90.119228)"/>
<path transform="matrix(1.00005,0,0,-1.00003,71.83183,131.26146)" d="M79.25677 72.00095C79.25677 72.8775 78.54619 73.58809 77.66962 73.58809 76.79306 73.58809 76.08247 72.8775 76.08247 72.00095 76.08247 71.12437 76.79306 70.41379 77.66962 70.41379 78.54619 70.41379 79.25677 71.12437 79.25677 72.00095ZM77.66962 72.00095"/>
<path transform="matrix(1.00005,0,0,-1.00003,71.83183,131.26146)" stroke-width=".3985" stroke-linecap="butt" stroke-miterlimit="10" stroke-linejoin="miter" fill="none" stroke="#000000" d="M79.25677 72.00095C79.25677 72.8775 78.54619 73.58809 77.66962 73.58809 76.79306 73.58809 76.08247 72.8775 76.08247 72.00095 76.08247 71.12437 76.79306 70.41379 77.66962 70.41379 78.54619 70.41379 79.25677 71.12437 79.25677 72.00095ZM77.66962 72.00095"/>
<path transform="matrix(1.00005,0,0,-1.00003,71.83183,131.26146)" d="M156.92639 72.00095C156.92639 72.8775 156.2158 73.58809 155.33925 73.58809 154.46269 73.58809 153.7521 72.8775 153.7521 72.00095 153.7521 71.12437 154.46269 70.41379 155.33925 70.41379 156.2158 70.41379 156.92639 71.12437 156.92639 72.00095ZM155.33925 72.00095"/>
<path transform="matrix(1.00005,0,0,-1.00003,71.83183,131.26146)" stroke-width=".3985" stroke-linecap="butt" stroke-miterlimit="10" stroke-linejoin="miter" fill="none" stroke="#000000" d="M156.92639 72.00095C156.92639 72.8775 156.2158 73.58809 155.33925 73.58809 154.46269 73.58809 153.7521 72.8775 153.7521 72.00095 153.7521 71.12437 154.46269 70.41379 155.33925 70.41379 156.2158 70.41379 156.92639 71.12437 156.92639 72.00095ZM155.33925 72.00095"/>
<path transform="matrix(1.00005,0,0,-1.00003,71.83183,131.26146)" d="M48.60841 72.00095C48.60841 72.8775 47.89783 73.58809 47.02126 73.58809 46.1447 73.58809 45.43411 72.8775 45.43411 72.00095 45.43411 71.12437 46.1447 70.41379 47.02126 70.41379 47.89783 70.41379 48.60841 71.12437 48.60841 72.00095ZM47.02126 72.00095"/>
<path transform="matrix(1.00005,0,0,-1.00003,71.83183,131.26146)" stroke-width=".3985" stroke-linecap="butt" stroke-miterlimit="10" stroke-linejoin="miter" fill="none" stroke="#000000" d="M48.60841 72.00095C48.60841 72.8775 47.89783 73.58809 47.02126 73.58809 46.1447 73.58809 45.43411 72.8775 45.43411 72.00095 45.43411 71.12437 46.1447 70.41379 47.02126 70.41379 47.89783 70.41379 48.60841 71.12437 48.60841 72.00095ZM47.02126 72.00095"/>
</svg>
