<svg xmlns="http://www.w3.org/2000/svg" xmlns:xlink="http://www.w3.org/1999/xlink" xmlns:inkscape="http://www.inkscape.org/namespaces/inkscape" version="1.1" width="308" height="140" viewBox="0 0 308 140">
<defs>
<path id="font_1_1" d="M.1789856 .114868167C.13899231 .047973634 .099990848 .033981325 .055999757 .0309906 .04399109 .02999878 .034988405 .02999878 .034988405 .010986328 .034988405 .004989624 .039993287 0 .04798889 0 .07499695 0 .10598755 .0029907227 .13398743 .0029907227 .16699219 .0029907227 .20199585 0 .23399353 0 .23999024 0 .25299073 0 .25299073 .018997193 .25299073 .02999878 .24398804 .0309906 .23699951 .0309906 .21398926 .032989503 .18998719 .04096985 .18998719 .06593323 .18998719 .077926639 .19599915 .088897708 .20399475 .102890018L.27999879 .23068238H.5309906C.5329895 .2097168 .5469971 .07392883 .5469971 .063949588 .5469971 .033981325 .49499513 .0309906 .47499085 .0309906 .46099855 .0309906 .45098878 .0309906 .45098878 .010986328 .45098878 0 .46299745 0 .46499635 0 .5059967 0 .548996 .0029907227 .58999636 .0029907227 .61499026 .0029907227 .6779938 0 .7029877 0 .70899966 0 .72099307 0 .72099307 .019989014 .72099307 .0309906 .71099856 .0309906 .69799807 .0309906 .6359863 .0309906 .6359863 .037979127 .6329956 .06694031L.57199099 .691803C.56999209 .71180728 .56999209 .7158203 .5529938 .7158203 .5369873 .7158203 .5329895 .7088165 .5269928 .69880679L.1789856 .114868167M.29899598 .26168824 .49598695 .5917816 .5279999 .26168824H.29899598Z"/>
<path id="font_2_1" d="M.12199402 .06324768C.117996219 .050247194 .11199951 .025222779 .11199951 .022232056 .11199951 .00022888184 .12998963-.009765625 .1459961-.009765625 .1639862-.009765625 .17999268 .0032196046 .18499756 .01222229 .18998719 .021224976 .19799805 .053237916 .20298767 .07424927 .20799256 .09326172 .21899414 .13928223 .22499085 .16429138 .23098755 .18629456 .23699951 .20831299 .24198914 .23132324 .25299073 .27233888 .25498963 .28033448 .28399659 .32136537 .31199647 .3613739 .35899354 .4133911 .43399049 .4133911 .49198915 .4133911 .49299623 .36238099 .49299623 .34336854 .49299623 .28334046 .44999696 .17228699 .43399049 .13027954 .4229889 .102264408 .4189911 .09326172 .4189911 .07624817 .4189911 .023223877 .46299745-.009765625 .5139923-.009765625 .6139984-.009765625 .6579895 .12828064 .6579895 .14328003 .6579895 .15628052 .644989 .15628052 .6419983 .15628052 .6279907 .15628052 .6269989 .15028382 .6230011 .13928223 .59999087 .059249879 .5569916 .018234253 .5169983 .018234253 .49598695 .018234253 .49198915 .032226564 .49198915 .053237916 .49198915 .07624817 .49699403 .089263919 .5149994 .13427735 .5269928 .1652832 .56799319 .2713318 .56799319 .32736207 .56799319 .4243927 .4909973 .44140626 .43798829 .44140626 .35499574 .44140626 .29899598 .39038087 .2689972 .3503723 .2619934 .41940309 .20298767 .44140626 .1619873 .44140626 .11898804 .44140626 .09599304 .4104004 .08299255 .38739015 .06098938 .3503723 .04699707 .29335023 .04699707 .28834535 .04699707 .27534486 .06098938 .27534486 .06399536 .27534486 .07798767 .27534486 .07899475 .27833558 .085998538 .3053589 .100997928 .36437989 .11999512 .4133911 .15899658 .4133911 .18499756 .4133911 .19198609 .39138795 .19198609 .36437989 .19198609 .34536744 .18299866 .3083496 .17599488 .28134156 .16899109 .2543335 .15899658 .21331787 .1539917 .19129944L.12199402 .06324768Z"/>
<path id="font_1_2" d="M.1599884 .07795715C.1499939 .038986207 .147995 .0309906 .068984989 .0309906 .051986696 .0309906 .041992189 .0309906 .041992189 .010986328 .041992189 0 .050994874 0 .068984989 0H.42599488C.58399966 0 .70199587 .11791992 .70199587 .21585083 .70199587 .28778077 .6439972 .3457489 .5469971 .35673524 .651001 .37573243 .7559967 .44970704 .7559967 .5446625 .7559967 .6186218 .6899872 .6826172 .56999209 .6826172H.23399353C.21499634 .6826172 .20498657 .6826172 .20498657 .6626129 .20498657 .6516113 .21398926 .6516113 .23298645 .6516113 .23498535 .6516113 .2539978 .6516113 .2709961 .6496124 .2889862 .6476135 .2979889 .64660647 .2979889 .6336212 .2979889 .6296234 .29699708 .62661746 .2939911 .614624L.1599884 .07795715M.31098939 .36573792 .37298585 .6136322C.38198854 .64860537 .38398744 .6516113 .4269867 .6516113H.55599978C.6439972 .6516113 .6649933 .5926361 .6649933 .5486603 .6649933 .46069337 .57899478 .36573792 .45700074 .36573792H.31098939M.2659912 .0309906C.2519989 .0309906 .25 .0309906 .24398804 .03199768 .23399353 .032989503 .23098755 .033996583 .23098755 .04197693 .23098755 .04498291 .23098755 .04698181 .23599243 .064971927L.30499269 .34375H.49398805C.58999636 .34375 .60899356 .2698059 .60899356 .22683716 .60899356 .12791443 .519989 .0309906 .4019928 .0309906H.2659912Z"/>
<path id="font_1_3" d="M.7599945 .69506838C.7599945 .69807437 .7579956 .7050781 .7489929 .7050781 .74598696 .7050781 .7449951 .70407107 .73399356 .69306948L.6639862 .61602786C.6549988 .6300354 .60899356 .7050781 .49798585 .7050781 .2749939 .7050781 .049987794 .48391725 .049987794 .25172425 .049987794 .08659363 .16799927-.022460938 .32099916-.022460938 .4079895-.022460938 .48399354 .017532349 .5369873 .063583377 .6299896 .14564514 .6469879 .2367096 .6469879 .23971558 .6469879 .24972534 .6369934 .24972534 .6349945 .24972534 .6289978 .24972534 .6239929 .24772644 .621994 .23971558 .61299136 .21069336 .58999636 .13963318 .5209961 .081588748 .45199586 .025543213 .3889923 .008529663 .33699037 .008529663 .24699402 .008529663 .14099121 .060577394 .14099121 .21670532 .14099121 .27374269 .1619873 .43588258 .2619934 .55296328 .32299806 .62402346 .4169922 .67407229 .5059967 .67407229 .60798647 .67407229 .6669922 .5970001 .6669922 .48091126 .6669922 .44088746 .6639862 .43988038 .6639862 .4298706 .6639862 .41986085 .6749878 .41986085 .67900088 .41986085 .69200137 .41986085 .69200137 .42185975 .69699099 .43988038L.7599945 .69506838Z"/>
<path id="font_3_1" d="M.74398806 .2263794C.7599945 .2263794 .7839966 .2263794 .7839966 .25038148 .7839966 .27539063 .7609863 .27539063 .74398806 .27539063H.147995C.13198853 .27539063 .10798645 .27539063 .10798645 .25138856 .10798645 .2263794 .1309967 .2263794 .147995 .2263794H.74398806Z"/>
<path id="font_4_1" d="M.33499146 .63612368C.33499146 .6630554 .33299256 .6640625 .30499269 .6640625 .24099732 .6014404 .1499939 .6004486 .10899353 .6004486V.5644531C.1329956 .5644531 .19898987 .5644531 .2539978 .592453V.08203125C.2539978 .04899597 .2539978 .035995485 .1539917 .035995485H.115997318V0C.13398743 .0009918213 .25698854 .0039978029 .2939911 .0039978029 .32499696 .0039978029 .45098878 .0009918213 .47299195 0V.035995485H.43499757C.33499146 .035995485 .33499146 .04899597 .33499146 .08203125V.63612368Z"/>
<path id="font_1_4" d="M.644989 .69506838C.644989 .69807437 .6429901 .7050781 .6339874 .7050781 .6289978 .7050781 .6279907 .70407107 .6159973 .6900635L.56799319 .6330414C.5419922 .68006899 .48999024 .7050781 .4249878 .7050781 .2979889 .7050781 .17799378 .58999636 .17799378 .4689026 .17799378 .38783265 .23098755 .34179688 .28199769 .32678224L.3889923 .2987671C.42599488 .2897644 .48098756 .27474977 .48098756 .19267273 .48098756 .1026001 .39898683 .008529663 .30099488 .008529663 .23699951 .008529663 .12599182 .030548096 .12599182 .15464783 .12599182 .17866516 .1309967 .2026825 .13198853 .20869446 .1329956 .21269226 .13398743 .21369934 .13398743 .21569824 .13398743 .22570801 .1269989 .22669983 .12199402 .22669983 .116989139 .22669983 .114990238 .22570801 .11199951 .22270203 .10798645 .21870423 .051986696-.009475708 .051986696-.012466431 .051986696-.018463135 .056991579-.022460938 .06298828-.022460938 .067993167-.022460938 .068984989-.021469117 .08099365-.007461548L.12998963 .049560548C.17298889-.008468628 .24099732-.022460938 .29899598-.022460938 .43499757-.022460938 .5529938 .11061096 .5529938 .2347107 .5529938 .30377198 .5189972 .33779908 .5039978 .35180665 .48098756 .37483216 .46598817 .37882997 .3769989 .40185548 .35499574 .40785218 .31900025 .41786195 .30999757 .41986085 .2829895 .42886354 .24899292 .457901 .24899292 .51094058 .24899292 .59199526 .32899476 .677063 .42399598 .677063 .5069885 .677063 .56799319 .6340332 .56799319 .52194216 .56799319 .48991395 .56399539 .47190858 .56399539 .4658966 .56399539 .4649048 .56399539 .45588685 .57598879 .45588685 .58599856 .45588685 .58699038 .45889283 .59098818 .47590638L.644989 .69506838Z"/>
</defs>
<path transform="matrix(1.00003,0,0,-1,100.64957,24.109002)" stroke-width=".3985" stroke-linecap="butt" stroke-miterlimit="10" stroke-linejoin="miter" fill="none" stroke="#000000" d="M-30.64835 7.93695H-51.90845M-51.90845 7.93695H-73.16856M-30.64835-7.93695H-51.90845M-51.90845-7.93695H-73.16856M44.82175-42.52022-14.17339-42.5202M-14.17339-42.5202-73.16856-42.52022M-30.64835 7.93695-30.64833-38.55174M-30.64833-38.55174-30.64835-85.04044H7.0867M7.0867-85.04044H44.82175M-44.68008-7.93694-44.68007-54.42563M-44.68007-54.42563-44.68008-100.91434H.07083M.07083-100.91434H44.82175M30.64835 0H37.73505M37.73505 0H44.82175M30.64835 0 30.64833-29.19705M30.64833-29.19705 30.64835-58.39412 37.73505-58.3941M37.73505-58.3941 44.82175-58.39412M44.82175-15.8739V-29.19705M44.82175-29.19705V-42.52022M106.11847-50.45717V-57.11873M106.11847-57.11873V-63.78032H110.90363M110.90363-63.78032H115.6888M106.11847-92.97739V-86.31581M106.11847-86.31581V-79.65422H110.90363M110.90363-79.65422H115.6888M176.98552-71.71727H184.0722M184.0722-71.71727H191.1589M106.11847-7.93695H148.63869M148.63869-7.93695H191.1589"/>
<path transform="matrix(1.00003,0,0,-1,100.64957,24.109002)" stroke-width=".3985" stroke-linecap="butt" stroke-miterlimit="10" stroke-linejoin="miter" fill="none" stroke="#000000" d="M-20.48512 7.93695H-30.64835"/>
<path transform="matrix(1.00003,0,0,-1,100.64957,24.109002)" stroke-width=".3985" stroke-linecap="butt" stroke-miterlimit="10" stroke-linejoin="miter" fill="none" stroke="#000000" d="M-20.48512-7.93695H-30.64835"/>
<path transform="matrix(1.00003,0,0,-1,100.64957,24.109002)" stroke-width=".797" stroke-linecap="butt" stroke-miterlimit="10" stroke-linejoin="miter" fill="none" stroke="#000000" d="M-19.53711 15.8739H-8.85695C2.80333 16.20137 13.70792 10.10574 19.53564 .00096 13.7084-10.10332 2.80284-16.19942-8.85646-15.87244L-22.89082-15.8739C-18.26643-5.9054-18.26643 5.90521-22.89082 15.87372Z"/>
<path transform="matrix(1.00003,0,0,-1,100.64957,24.109002)" stroke-width=".797" stroke-linecap="butt" stroke-miterlimit="10" stroke-linejoin="miter" fill="none" stroke="#000000" d="M-25.93855-15.8739C-21.31415-5.9054-21.31415 5.90521-25.93855 15.87372"/>
<path transform="matrix(1.00003,0,0,-1,100.64957,24.109002)" stroke-width=".3985" stroke-linecap="butt" stroke-miterlimit="10" stroke-linejoin="miter" fill="none" stroke="#000000" d="M19.53711 0H30.64835"/>
<path transform="matrix(1.00003,0,0,-1,100.64957,24.109002)" stroke-width=".3985" stroke-linecap="butt" stroke-miterlimit="10" stroke-linejoin="miter" fill="none" stroke="#000000" d="M54.98497 0H44.82175"/>
<path transform="matrix(1.00003,0,0,-1,100.64957,24.109002)" stroke-width=".3985" stroke-linecap="butt" stroke-miterlimit="10" stroke-linejoin="miter" fill="none" stroke="#000000" d="M54.98497-15.8739H44.82175"/>
<path transform="matrix(1.00003,0,0,-1,100.64957,24.109002)" stroke-width=".797" stroke-linecap="butt" stroke-miterlimit="10" stroke-linejoin="miter" fill="none" stroke="#000000" d="M55.933 7.93695H66.61314C78.27344 8.2644 89.17804 2.1688 95.00575-7.93597 89.17853-18.04027 78.27296-24.13637 66.61363-23.80939L52.57927-23.81085C57.20367-13.84235 57.20367-2.03172 52.57927 7.93677Z"/>
<path transform="matrix(1.00003,0,0,-1,100.64957,24.109002)" stroke-width=".797" stroke-linecap="butt" stroke-miterlimit="10" stroke-linejoin="miter" fill="none" stroke="#000000" d="M49.53156-23.81085C54.15594-13.84235 54.15594-2.03172 49.53156 7.93677"/>
<path transform="matrix(1.00003,0,0,-1,100.64957,24.109002)" stroke-width=".3985" stroke-linecap="butt" stroke-miterlimit="10" stroke-linejoin="miter" fill="none" stroke="#000000" d="M95.00722-7.93695H106.11847"/>
<path transform="matrix(1.00003,0,0,-1,100.64957,24.109002)" stroke-width=".3985" stroke-linecap="butt" stroke-miterlimit="10" stroke-linejoin="miter" fill="none" stroke="#000000" d="M55.933-42.52022H44.82175M55.933-58.39412H44.82175"/>
<path transform="matrix(1.00003,0,0,-1,100.64957,24.109002)" stroke-width=".797" stroke-linecap="butt" stroke-miterlimit="10" stroke-linejoin="miter" fill="none" stroke="#000000" d="M55.933-34.58327H79.13333C87.90036-34.58327 95.00723-41.69014 95.00723-50.45717 95.00723-59.2242 87.90036-66.33107 79.13333-66.33107H55.933Z"/>
<path transform="matrix(1.00003,0,0,-1,100.64957,24.109002)" stroke-width=".3985" stroke-linecap="butt" stroke-miterlimit="10" stroke-linejoin="miter" fill="none" stroke="#000000" d="M95.00722-50.45717H106.11847"/>
<path transform="matrix(1.00003,0,0,-1,100.64957,24.109002)" stroke-width=".3985" stroke-linecap="butt" stroke-miterlimit="10" stroke-linejoin="miter" fill="none" stroke="#000000" d="M55.933-85.04044H44.82175M55.933-100.91434H44.82175"/>
<path transform="matrix(1.00003,0,0,-1,100.64957,24.109002)" stroke-width=".797" stroke-linecap="butt" stroke-miterlimit="10" stroke-linejoin="miter" fill="none" stroke="#000000" d="M55.933-77.10349H79.13333C87.90036-77.10349 95.00723-84.21036 95.00723-92.97739 95.00723-101.74442 87.90036-108.8513 79.13333-108.8513H55.933Z"/>
<path transform="matrix(1.00003,0,0,-1,100.64957,24.109002)" stroke-width=".3985" stroke-linecap="butt" stroke-miterlimit="10" stroke-linejoin="miter" fill="none" stroke="#000000" d="M95.00722-92.97739H106.11847"/>
<path transform="matrix(1.00003,0,0,-1,100.64957,24.109002)" stroke-width=".3985" stroke-linecap="butt" stroke-miterlimit="10" stroke-linejoin="miter" fill="none" stroke="#000000" d="M125.85202-63.78032H115.6888"/>
<path transform="matrix(1.00003,0,0,-1,100.64957,24.109002)" stroke-width=".3985" stroke-linecap="butt" stroke-miterlimit="10" stroke-linejoin="miter" fill="none" stroke="#000000" d="M125.85202-79.65422H115.6888"/>
<path transform="matrix(1.00003,0,0,-1,100.64957,24.109002)" stroke-width=".797" stroke-linecap="butt" stroke-miterlimit="10" stroke-linejoin="miter" fill="none" stroke="#000000" d="M126.80005-55.84337H137.4802C149.14049-55.5159 160.04509-61.61151 165.8728-71.7163 160.04557-81.8206 149.14-87.9167 137.48069-87.58972L123.44632-87.59117C128.07071-77.62268 128.07071-65.81204 123.44632-55.84355Z"/>
<path transform="matrix(1.00003,0,0,-1,100.64957,24.109002)" stroke-width=".3985" stroke-linecap="butt" stroke-miterlimit="10" stroke-linejoin="miter" fill="none" stroke="#000000" d="M165.87427-71.71727H176.98552"/>
<use data-text="A" xlink:href="#font_1_1" transform="matrix(9.962899,0,0,-9.9626,11.062881,18.828999)"/>
<use data-text="n" xlink:href="#font_2_1" transform="matrix(6.9740097,0,0,-6.9738,18.53511,20.323)"/>
<use data-text="B" xlink:href="#font_1_2" transform="matrix(9.962899,0,0,-9.9626,10.978867,34.703)"/>
<use data-text="n" xlink:href="#font_2_1" transform="matrix(6.9740097,0,0,-6.9738,18.536103,36.197)"/>
<use data-text="C" xlink:href="#font_1_3" transform="matrix(9.962899,0,0,-9.9626,1.216568,68.871)"/>
<use data-text="n" xlink:href="#font_2_1" transform="matrix(6.9740097,0,0,-6.9738,8.336792,70.365009)"/>
<use data-text="&#x2212;" xlink:href="#font_3_1" transform="matrix(6.9740097,0,0,-6.9738,13.261932,70.365009)"/>
<use data-text="1" xlink:href="#font_4_1" transform="matrix(6.9740097,0,0,-6.9738,19.48912,70.365009)"/>
<path transform="matrix(1.00003,0,0,-1,100.64957,24.109002)" d="M-29.0612 7.93695C-29.0612 8.8135-29.77179 9.5241-30.64835 9.5241-31.52492 9.5241-32.2355 8.8135-32.2355 7.93695-32.2355 7.06038-31.52492 6.3498-30.64835 6.3498-29.77179 6.3498-29.0612 7.06038-29.0612 7.93695ZM-30.64835 7.93695"/>
<path transform="matrix(1.00003,0,0,-1,100.64957,24.109002)" stroke-width=".3985" stroke-linecap="butt" stroke-miterlimit="10" stroke-linejoin="miter" fill="none" stroke="#000000" d="M-29.0612 7.93695C-29.0612 8.8135-29.77179 9.5241-30.64835 9.5241-31.52492 9.5241-32.2355 8.8135-32.2355 7.93695-32.2355 7.06038-31.52492 6.3498-30.64835 6.3498-29.77179 6.3498-29.0612 7.06038-29.0612 7.93695ZM-30.64835 7.93695"/>
<path transform="matrix(1.00003,0,0,-1,100.64957,24.109002)" d="M-43.09294-7.93694C-43.09294-7.06036-43.80351-6.34978-44.68008-6.34978-45.55664-6.34978-46.26723-7.06036-46.26723-7.93694-46.26723-8.81349-45.55664-9.52408-44.68008-9.52408-43.80351-9.52408-43.09294-8.81349-43.09294-7.93694ZM-44.68008-7.93694"/>
<path transform="matrix(1.00003,0,0,-1,100.64957,24.109002)" stroke-width=".3985" stroke-linecap="butt" stroke-miterlimit="10" stroke-linejoin="miter" fill="none" stroke="#000000" d="M-43.09294-7.93694C-43.09294-7.06036-43.80351-6.34978-44.68008-6.34978-45.55664-6.34978-46.26723-7.06036-46.26723-7.93694-46.26723-8.81349-45.55664-9.52408-44.68008-9.52408-43.80351-9.52408-43.09294-8.81349-43.09294-7.93694ZM-44.68008-7.93694"/>
<path transform="matrix(1.00003,0,0,-1,100.64957,24.109002)" d="M32.2355 0C32.2355 .87656 31.52492 1.58714 30.64835 1.58714 29.77179 1.58714 29.0612 .87656 29.0612 0 29.0612-.87656 29.77179-1.58714 30.64835-1.58714 31.52492-1.58714 32.2355-.87656 32.2355 0ZM30.64835 0"/>
<path transform="matrix(1.00003,0,0,-1,100.64957,24.109002)" stroke-width=".3985" stroke-linecap="butt" stroke-miterlimit="10" stroke-linejoin="miter" fill="none" stroke="#000000" d="M32.2355 0C32.2355 .87656 31.52492 1.58714 30.64835 1.58714 29.77179 1.58714 29.0612 .87656 29.0612 0 29.0612-.87656 29.77179-1.58714 30.64835-1.58714 31.52492-1.58714 32.2355-.87656 32.2355 0ZM30.64835 0"/>
<path transform="matrix(1.00003,0,0,-1,100.64957,24.109002)" d="M46.40889-42.52022C46.40889-41.64365 45.6983-40.93307 44.82175-40.93307 43.94519-40.93307 43.2346-41.64365 43.2346-42.52022 43.2346-43.39677 43.94519-44.10736 44.82175-44.10736 45.6983-44.10736 46.40889-43.39677 46.40889-42.52022ZM44.82175-42.52022"/>
<path transform="matrix(1.00003,0,0,-1,100.64957,24.109002)" stroke-width=".3985" stroke-linecap="butt" stroke-miterlimit="10" stroke-linejoin="miter" fill="none" stroke="#000000" d="M46.40889-42.52022C46.40889-41.64365 45.6983-40.93307 44.82175-40.93307 43.94519-40.93307 43.2346-41.64365 43.2346-42.52022 43.2346-43.39677 43.94519-44.10736 44.82175-44.10736 45.6983-44.10736 46.40889-43.39677 46.40889-42.52022ZM44.82175-42.52022"/>
<use data-text="C" xlink:href="#font_1_3" transform="matrix(9.962899,0,0,-9.9626,295.3344,98.483)"/>
<use data-text="n" xlink:href="#font_2_1" transform="matrix(6.9740097,0,0,-6.9738,302.45466,99.977008)"/>
<use data-text="S" xlink:href="#font_1_4" transform="matrix(9.962899,0,0,-9.9626,295.3344,34.703)"/>
<use data-text="n" xlink:href="#font_2_1" transform="matrix(6.9740097,0,0,-6.9738,301.4436,36.197)"/>
<path transform="matrix(1.00003,0,0,-1,100.64957,24.109002)" stroke-width=".79701" stroke-linecap="butt" stroke-miterlimit="10" stroke-linejoin="miter" fill="none" stroke="#000000" d="M-58.99516 22.11034V-114.23749H176.98552V22.11034ZM176.98552-114.23749"/>
</svg>
