<svg xmlns="http://www.w3.org/2000/svg" xmlns:xlink="http://www.w3.org/1999/xlink" xmlns:inkscape="http://www.inkscape.org/namespaces/inkscape" version="1.1" width="100" height="36" viewBox="0 0 100 36">
<defs>
<path id="font_1_117" d="M.73799136 .6516113V.6826172C.70700076 .680603 .6669922 .6796112 .6399994 .6796112L.5249939 .6826172V.6516113C.56599429 .6516113 .58200076 .63261416 .58200076 .6126251 .58200076 .6016388 .57598879 .5886383 .57199099 .5826416L.40699769 .31481935 .22599793 .6096344C.21899414 .6196289 .21899414 .6216278 .21899414 .62661746 .21899414 .6476135 .24398804 .6516113 .2889862 .6516113V.6826172C.25299073 .6796112 .17999268 .6796112 .14099121 .6796112L.010986328 .6826172V.6516113H.0289917C.09700012 .6516113 .10499573 .64060977 .12098694 .614624L.33099366 .2728424V.07795715C.33099366 .041992189 .32899476 .0309906 .2519989 .0309906H.22799683V0C.2639923 .0029907227 .33499146 .0029907227 .37399293 .0029907227 .41299439 .0029907227 .48399354 .0029907227 .519989 0V.0309906H.49699403C.41999818 .0309906 .4169922 .040985109 .4169922 .079956058V.2728424L.6100006 .5866394C.6469879 .6476135 .70599368 .6516113 .73799136 .6516113Z"/>
<path id="font_1_27" d="M.71699526 0V.0309906H.69898989C.6389923 .0309906 .625 .037979127 .6139984 .07095337L.397995 .6958008C.3929901 .7088165 .3909912 .7158203 .375 .7158203 .35899354 .7158203 .35598756 .70980837 .35099793 .6958008L.14399719 .09791565C.12599182 .04698181 .085998538 .03199768 .03199768 .0309906V0L.13398743 .0029907227 .24899292 0V.0309906C.19898987 .0309906 .17399597 .05596924 .17399597 .0819397 .17399597 .08493042 .1749878 .09492493 .17599488 .09692383L.22200012 .2277832H.46899415L.5219879 .07495117C.522995 .07095337 .5249939 .064956668 .5249939 .060958864 .5249939 .0309906 .46899415 .0309906 .44198609 .0309906V0C.47799684 .0029907227 .5479889 .0029907227 .58599856 .0029907227L.71699526 0M.45799256 .25878907H.23298645L.34498597 .58380129 .45799256 .25878907Z"/>
</defs>
<path transform="matrix(1,0,0,-1.00006,57.03,17.873112)" stroke-width=".3985" stroke-linecap="butt" stroke-miterlimit="10" stroke-linejoin="miter" fill="none" stroke="#000000" d="M-30.64835 7.93695-30.64833 0M-30.64833 0-30.64835-7.93695M30.64835 0"/>
<path transform="matrix(1,0,0,-1.00006,57.03,17.873112)" stroke-width=".3985" stroke-linecap="butt" stroke-miterlimit="10" stroke-linejoin="miter" fill="none" stroke="#000000" d="M-19.53711 7.93695H-30.64835M-19.53711-7.93695H-30.64835"/>
<path transform="matrix(1,0,0,-1.00006,57.03,17.873112)" stroke-width=".797" stroke-linecap="butt" stroke-miterlimit="10" stroke-linejoin="miter" fill="none" stroke="#000000" d="M-19.53711 15.8739H3.66321C12.43024 15.8739 19.53712 8.76701 19.53712 0 19.53712-8.76701 12.43024-15.8739 3.66321-15.8739H-19.53711Z"/>
<path transform="matrix(1,0,0,-1.00006,57.03,17.873112)" stroke-width=".3985" stroke-linecap="butt" stroke-miterlimit="10" stroke-linejoin="miter" fill="none" stroke="#000000" d="M24.42648 0H30.64835"/>
<path transform="matrix(1,0,0,-1.00006,57.03,17.873112)" d="M24.42648 0C24.42648 1.35017 23.33197 2.44469 21.9818 2.44469 20.63162 2.44469 19.53711 1.35017 19.53711 0 19.53711-1.35017 20.63162-2.44469 21.9818-2.44469 23.33197-2.44469 24.42648-1.35017 24.42648 0ZM21.9818 0" fill="#ffffff"/>
<path transform="matrix(1,0,0,-1.00006,57.03,17.873112)" stroke-width=".797" stroke-linecap="butt" stroke-miterlimit="10" stroke-linejoin="miter" fill="none" stroke="#000000" d="M24.42648 0C24.42648 1.35017 23.33197 2.44469 21.9818 2.44469 20.63162 2.44469 19.53711 1.35017 19.53711 0 19.53711-1.35017 20.63162-2.44469 21.9818-2.44469 23.33197-2.44469 24.42648-1.35017 24.42648 0ZM21.9818 0"/>
<path transform="matrix(1,0,0,-1.00006,57.03,17.873112)" d="" fill="#ffffff"/>
<path transform="matrix(1,0,0,-1.00006,57.03,17.873112)" stroke-width=".797" stroke-linecap="butt" stroke-miterlimit="10" stroke-linejoin="miter" fill="none" stroke="#000000" d=""/>
<use data-text="Y" xlink:href="#font_1_117" transform="matrix(9.9626,0,0,-9.963197,91.198,21.275317)"/>
<path transform="matrix(1,0,0,-1.00006,57.03,17.873112)" stroke-width=".3985" stroke-linecap="butt" stroke-miterlimit="10" stroke-linejoin="miter" fill="none" stroke="#000000" d="M-30.64833 0H-37.73503M-37.73503 0H-44.82173"/>
<path transform="matrix(1,0,0,-1.00006,57.03,17.873112)" d="M-29.06119 0C-29.06119 .87656-29.77177 1.58714-30.64833 1.58714-31.5249 1.58714-32.23549 .87656-32.23549 0-32.23549-.87656-31.5249-1.58714-30.64833-1.58714-29.77177-1.58714-29.06119-.87656-29.06119 0ZM-30.64833 0"/>
<path transform="matrix(1,0,0,-1.00006,57.03,17.873112)" stroke-width=".3985" stroke-linecap="butt" stroke-miterlimit="10" stroke-linejoin="miter" fill="none" stroke="#000000" d="M-29.06119 0C-29.06119 .87656-29.77177 1.58714-30.64833 1.58714-31.5249 1.58714-32.23549 .87656-32.23549 0-32.23549-.87656-31.5249-1.58714-30.64833-1.58714-29.77177-1.58714-29.06119-.87656-29.06119 0ZM-30.64833 0"/>
<use data-text="A" xlink:href="#font_1_27" transform="matrix(9.9626,0,0,-9.963197,1.2160034,21.440327)"/>
</svg>
