<svg xmlns="http://www.w3.org/2000/svg" xmlns:xlink="http://www.w3.org/1999/xlink" xmlns:inkscape="http://www.inkscape.org/namespaces/inkscape" version="1.1" width="282" height="121" viewBox="0 0 282 121">
<defs>
<path id="font_1_59" d="M.4850006 .40411378C.4850006 .42111207 .47299195 .453125 .43399049 .453125 .4139862 .453125 .36999513 .44711305 .32798768 .40611268 .28599549 .43937684 .24398804 .4423828 .22200012 .4423828 .1289978 .4423828 .05999756 .37338258 .05999756 .29638673 .05999756 .25239564 .08198547 .21440125 .10699463 .19340515 .09399414 .17840576 .07598877 .14538574 .07598877 .11035156 .07598877 .07899475 .08898926 .04083252 .11999512 .020828248 .05999756 .003829956 .027999878-.039138795 .027999878-.07911682 .027999878-.15107727 .1269989-.20605469 .24899292-.20605469 .36698915-.20605469 .47099305-.15507508 .47099305-.07711792 .47099305-.042144777 .45700074 .008834839 .4059906 .036834718 .35299684 .064834598 .29499818 .064834598 .23399353 .064834598 .20899964 .064834598 .1659851 .064834598 .15899658 .065841678 .1269989 .069885257 .10598755 .101242069 .10598755 .13334656 .10598755 .13735962 .10598755 .16040039 .12298584 .18040467 .1619873 .15240479 .20298767 .14941406 .22200012 .14941406 .31498719 .14941406 .38398744 .21839905 .38398744 .2953949 .38398744 .3323822 .36799623 .36938478 .34298707 .39237977 .3789978 .42637635 .4149933 .43138124 .43299867 .43138124 .43299867 .43112184 .43998719 .43112184 .44299317 .43011476 .43199159 .42611695 .4269867 .41513063 .4269867 .40315248 .4269867 .38616944 .43998719 .37417604 .45599366 .37417604 .46598817 .37417604 .4850006 .3811798 .4850006 .4041443V.40411378M.30899049 .29626466C.30899049 .26930238 .30799867 .2373352 .29299928 .21235657 .2849884 .20037842 .2619934 .17240906 .22200012 .17240906 .1349945 .17240906 .1349945 .2722931 .1349945 .29527284 .1349945 .3222351 .13598633 .35420228 .15098572 .3791809 .15899658 .3913269 .18199158 .41937257 .22200012 .41937257 .30899049 .41937257 .30899049 .31922914 .30899049 .29618836V.29626466M.4189911-.07911682C.4189911-.13308716 .34799195-.18305969 .25-.18305969 .14898682-.18305969 .07998657-.13209534 .07998657-.07911682 .07998657-.03314209 .117996219 .003829956 .1619873 .0068359377H.22099304C.30699159 .0068359377 .4189911 .0068359377 .4189911-.07911682Z"/>
<path id="font_1_28" d="M.48298646 .08912659V.14511109H.45799256V.08912659C.45799256 .03112793 .43299867 .025131226 .42199708 .025131226 .3889923 .025131226 .3849945 .070129398 .3849945 .07511902V.27508546C.3849945 .31707765 .3849945 .3560791 .34899903 .39312745 .30999757 .43223573 .2599945 .4482422 .21199036 .4482422 .12998963 .4482422 .06098938 .40115357 .06098938 .335083 .06098938 .30508424 .08099365 .28808595 .10699463 .28808595 .1349945 .28808595 .15299988 .30807496 .15299988 .33407594 .15299988 .3460846 .147995 .37908937 .101989749 .38008119 .1289978 .41519166 .17799378 .426239 .20999146 .426239 .25898744 .426239 .31599427 .38710023 .31599427 .29808045V.26107789C.2649994 .25808717 .19499207 .25508119 .13198853 .22509766 .056991579 .19110108 .03199768 .13911438 .03199768 .09512329 .03199768 .014251709 .1289978-.0107421879 .19198609-.0107421879 .2579956-.0107421879 .3039856 .029251099 .32299806 .07624817 .32699586 .036132814 .35398866-.005859375 .40098573-.005859375 .42199708-.005859375 .48298646 .008132935 .48298646 .08912659M.31599427 .14013672C.31599427 .04525757 .24398804 .011245728 .19898987 .011245728 .1499939 .011245728 .10899353 .04624939 .10899353 .09625244 .10899353 .15124512 .15098572 .23425293 .31599427 .24024964V.14013672Z"/>
<path id="font_1_105" d="M.33198548 .12385559V.18066406H.30699159V.12585449C.30699159 .052108766 .2769928 .014251709 .23999024 .014251709 .17298889 .014251709 .17298889 .10491943 .17298889 .12187195V.3996582H.31599427V.43066407H.17298889V.6142578H.147995C.14698792 .5324249 .116989139 .42565919 .018997193 .42166139V.3996582H.10398865V.12408447C.10398865 .0012512207 .19699097-.0107421879 .23298645-.0107421879 .3039856-.0107421879 .33198548 .060180665 .33198548 .12408447V.12385559Z"/>
<path id="font_1_50" d="M.4149933 .11933899C.4149933 .12934876 .40699769 .13134766 .4019928 .13134766 .3929901 .13134766 .3909912 .12535095 .3889923 .11734009 .35398866 .014251709 .2639923 .014251709 .2539978 .014251709 .20399475 .014251709 .1639862 .044281007 .14099121 .08131409 .11099243 .12934876 .11099243 .19540406 .11099243 .23144531H.3899994C.4119873 .23144531 .4149933 .23144531 .4149933 .2524414 .4149933 .35131837 .36099244 .4482422 .23599243 .4482422 .11999512 .4482422 .027999878 .34532167 .027999878 .22042847 .027999878 .08631897 .1329956-.0107421879 .24798584-.0107421879 .36999513-.0107421879 .4149933 .10032654 .4149933 .11933899M.34899903 .2524414H.11199951C.117996219 .40126039 .20199585 .426239 .23599243 .426239 .33898927 .426239 .34899903 .2913971 .34899903 .2524414Z"/>
<path id="font_2_1" d="M.15899658 .07795715C.14898682 .038986207 .14698792 .0309906 .067993167 .0309906 .050994874 .0309906 .039993287 .0309906 .039993287 .011993408 .039993287 0 .04899597 0 .067993167 0H.39898683C.6069946 0 .80400088 .21087647 .80400088 .42974855 .80400088 .5706482 .71899417 .6826172 .56900027 .6826172H.23298645C.21398926 .6826172 .20298767 .6826172 .20298767 .66360476 .20298767 .6516113 .21199036 .6516113 .23199463 .6516113 .24499512 .6516113 .2630005 .65060427 .2749939 .6496124 .29100038 .6476135 .29699708 .64460757 .29699708 .6336212 .29699708 .6296234 .29599 .62661746 .29299928 .614624L.15899658 .07795715M.375 .6136322C.38398744 .64860537 .38598634 .6516113 .42900086 .6516113H.5359955C.6339874 .6516113 .71699526 .5986328 .71699526 .46672059 .71699526 .41775514 .69699099 .25386048 .6119995 .1439209 .58299258 .10694885 .5039978 .0309906 .3809967 .0309906H.2679901C.2539978 .0309906 .2519989 .0309906 .24598694 .03199768 .23599243 .032989503 .23298645 .033996583 .23298645 .041992189 .23298645 .04498291 .23298645 .04698181 .23799134 .064971927L.375 .6136322Z"/>
<path id="font_2_2" d="M.43798829 .0055236818C.59298709 .0644989 .73999026 .24256897 .73999026 .43579103 .73999026 .5969696 .6339874 .7050781 .4850006 .7050781 .2689972 .7050781 .04899597 .47784425 .04899597 .24456787 .04899597 .07847595 .16099549-.022460938 .30499269-.022460938 .32998658-.022460938 .3639984-.018463135 .40299989-.007461548 .39898683-.06939697 .39898683-.071380618 .39898683-.084365848 .39898683-.11634827 .39898683-.19433594 .48199464-.19433594 .6009979-.19433594 .6489868-.011474609 .6489868-.00047302247 .6489868 .0065307619 .6419983 .009521484 .6380005 .009521484 .6299896 .009521484 .6279907 .0045318605 .6259918-.0014648438 .60198977-.072387699 .5439911-.097335819 .5089874-.097335819 .46299745-.097335819 .44799806-.070388797 .43798829 .0055236818M.24899292 .013519287C.17098999 .044509889 .13699341 .12245178 .13699341 .21252442 .13699341 .2816162 .16299439 .4237671 .23899842 .5319061 .31199647 .63401797 .4059906 .68006899 .47898866 .68006899 .57899478 .68006899 .6519928 .6019745 .6519928 .4678192 .6519928 .3677063 .6009979 .13345337 .43299867 .039505006 .42799378 .07447815 .41799928 .14746094 .34498597 .14746094 .2919922 .14746094 .24299622 .097473148 .24299622 .04550171 .24299622 .025512696 .24899292 .014526367 .24899292 .013519287M.31098939 .002532959C.29699708 .002532959 .2649994 .002532959 .2649994 .04550171 .2649994 .08547974 .30299378 .12545777 .34498597 .12545777 .3869934 .12545777 .4059906 .10147095 .4059906 .040512086 .4059906 .025512696 .40499879 .024520874 .394989 .020523072 .36898805 .009521484 .33898927 .002532959 .31098939 .002532959Z"/>
</defs>
<path transform="matrix(1.00006,0,0,-1,117.543148,17.872)" stroke-width=".3985" stroke-linecap="butt" stroke-miterlimit="10" stroke-linejoin="miter" fill="none" stroke="#000000" d="M-80.36533-48.75667-80.36531-28.3468M-80.36531-28.3468-80.36533-7.93695H-55.50682M-55.50682-7.93695H-30.64835M30.64835 0H35.4335M35.4335 0H40.21867V-10.20491M40.21867-10.20491V-20.40985M30.64835-56.69363 35.4335-56.69362M35.4335-56.69362 40.21867-56.69363V-46.48868M40.21867-46.48868V-36.28375M-30.64835-64.63058-30.64833-74.8355M-30.64833-74.8355-30.64835-85.04044H35.43352M35.43352-85.04044H101.5154V-56.69362M101.5154-56.69362V-28.3468M-80.36531-28.3468-87.452-28.34679M-87.452-28.34679-94.53871-28.3468M-30.64835 7.93695H-62.59352M-62.59352 7.93695H-94.53871M101.5154-28.3468 126.37389-28.34679M126.37389-28.34679 151.23238-28.3468M151.23238-85.04044"/>
<path transform="matrix(1.00006,0,0,-1,117.543148,17.872)" stroke-width=".3985" stroke-linecap="butt" stroke-miterlimit="10" stroke-linejoin="miter" fill="none" stroke="#000000" d="M-19.53711 7.93695H-30.64835M-19.53711-7.93695H-30.64835"/>
<path transform="matrix(1.00006,0,0,-1,117.543148,17.872)" stroke-width=".797" stroke-linecap="butt" stroke-miterlimit="10" stroke-linejoin="miter" fill="none" stroke="#000000" d="M-19.53711 15.8739H3.66321C12.43024 15.8739 19.53712 8.76701 19.53712 0 19.53712-8.76701 12.43024-15.8739 3.66321-15.8739H-19.53711Z"/>
<path transform="matrix(1.00006,0,0,-1,117.543148,17.872)" stroke-width=".3985" stroke-linecap="butt" stroke-miterlimit="10" stroke-linejoin="miter" fill="none" stroke="#000000" d="M19.53711 0H30.64835"/>
<path transform="matrix(1.00006,0,0,-1,117.543148,17.872)" stroke-width=".3985" stroke-linecap="butt" stroke-miterlimit="10" stroke-linejoin="miter" fill="none" stroke="#000000" d="M-19.53711-48.75667H-30.64835M-19.53711-64.63058H-30.64835"/>
<path transform="matrix(1.00006,0,0,-1,117.543148,17.872)" stroke-width=".797" stroke-linecap="butt" stroke-miterlimit="10" stroke-linejoin="miter" fill="none" stroke="#000000" d="M-19.53711-40.81972H3.66321C12.43024-40.81972 19.53712-47.9266 19.53712-56.69363 19.53712-65.46065 12.43024-72.56754 3.66321-72.56754H-19.53711Z"/>
<path transform="matrix(1.00006,0,0,-1,117.543148,17.872)" stroke-width=".3985" stroke-linecap="butt" stroke-miterlimit="10" stroke-linejoin="miter" fill="none" stroke="#000000" d="M19.53711-56.69363H30.64835"/>
<path transform="matrix(1.00006,0,0,-1,117.543148,17.872)" stroke-width=".3985" stroke-linecap="butt" stroke-miterlimit="10" stroke-linejoin="miter" fill="none" stroke="#000000" d="M50.3819-20.40985H40.21867"/>
<path transform="matrix(1.00006,0,0,-1,117.543148,17.872)" stroke-width=".3985" stroke-linecap="butt" stroke-miterlimit="10" stroke-linejoin="miter" fill="none" stroke="#000000" d="M50.3819-36.28375H40.21867"/>
<path transform="matrix(1.00006,0,0,-1,117.543148,17.872)" stroke-width=".797" stroke-linecap="butt" stroke-miterlimit="10" stroke-linejoin="miter" fill="none" stroke="#000000" d="M51.32993-12.4729H62.01007C73.67038-12.14543 84.57497-18.24104 90.4027-28.34583 84.57545-38.45013 73.66989-44.54623 62.01056-44.21925L47.97621-44.2207C52.6006-34.25221 52.6006-22.44157 47.97621-12.47308Z"/>
<path transform="matrix(1.00006,0,0,-1,117.543148,17.872)" stroke-width=".3985" stroke-linecap="butt" stroke-miterlimit="10" stroke-linejoin="miter" fill="none" stroke="#000000" d="M90.40414-28.3468H101.5154"/>
<path transform="matrix(1.00006,0,0,-1,117.543148,17.872)" stroke-width=".3985" stroke-linecap="butt" stroke-miterlimit="10" stroke-linejoin="miter" fill="none" stroke="#000000" d="M-69.25407-48.75667H-80.36533"/>
<path transform="matrix(1.00006,0,0,-1,117.543148,17.872)" stroke-width=".797" stroke-linecap="butt" stroke-miterlimit="10" stroke-linejoin="miter" fill="none" stroke="#000000" d="M-69.25407-32.88277-41.7596-48.75667-69.25407-64.63058Z"/>
<path transform="matrix(1.00006,0,0,-1,117.543148,17.872)" stroke-width=".3985" stroke-linecap="butt" stroke-miterlimit="10" stroke-linejoin="miter" fill="none" stroke="#000000" d="M-36.87022-48.75667H-30.64835"/>
<path transform="matrix(1.00006,0,0,-1,117.543148,17.872)" d="M-36.87022-48.75667C-36.87022-47.4065-37.96472-46.31198-39.31491-46.31198-40.66508-46.31198-41.7596-47.4065-41.7596-48.75667-41.7596-50.10686-40.66508-51.20137-39.31491-51.20137-37.96472-51.20137-36.87022-50.10686-36.87022-48.75667ZM-39.31491-48.75667" fill="#ffffff"/>
<path transform="matrix(1.00006,0,0,-1,117.543148,17.872)" stroke-width=".797" stroke-linecap="butt" stroke-miterlimit="10" stroke-linejoin="miter" fill="none" stroke="#000000" d="M-36.87022-48.75667C-36.87022-47.4065-37.96472-46.31198-39.31491-46.31198-40.66508-46.31198-41.7596-47.4065-41.7596-48.75667-41.7596-50.10686-40.66508-51.20137-39.31491-51.20137-37.96472-51.20137-36.87022-50.10686-36.87022-48.75667ZM-39.31491-48.75667"/>
<path transform="matrix(1.00006,0,0,-1,117.543148,17.872)" d="" fill="#ffffff"/>
<path transform="matrix(1.00006,0,0,-1,117.543148,17.872)" stroke-width=".797" stroke-linecap="butt" stroke-miterlimit="10" stroke-linejoin="miter" fill="none" stroke="#000000" d=""/>
<path transform="matrix(1.00006,0,0,-1,117.543148,17.872)" stroke-width=".3985" stroke-linecap="butt" stroke-miterlimit="10" stroke-linejoin="miter" fill="none" stroke="#000000" d="M112.62665-85.04044H101.5154"/>
<path transform="matrix(1.00006,0,0,-1,117.543148,17.872)" stroke-width=".797" stroke-linecap="butt" stroke-miterlimit="10" stroke-linejoin="miter" fill="none" stroke="#000000" d="M112.62665-69.16653 140.12113-85.04044 112.62665-100.91434Z"/>
<path transform="matrix(1.00006,0,0,-1,117.543148,17.872)" stroke-width=".3985" stroke-linecap="butt" stroke-miterlimit="10" stroke-linejoin="miter" fill="none" stroke="#000000" d="M145.01052-85.04044H151.23238"/>
<path transform="matrix(1.00006,0,0,-1,117.543148,17.872)" d="M145.01052-85.04044C145.01052-83.69026 143.916-82.59575 142.56581-82.59575 141.21564-82.59575 140.12113-83.69026 140.12113-85.04044 140.12113-86.39061 141.21564-87.48512 142.56581-87.48512 143.916-87.48512 145.01052-86.39061 145.01052-85.04044ZM142.56581-85.04044" fill="#ffffff"/>
<path transform="matrix(1.00006,0,0,-1,117.543148,17.872)" stroke-width=".797" stroke-linecap="butt" stroke-miterlimit="10" stroke-linejoin="miter" fill="none" stroke="#000000" d="M145.01052-85.04044C145.01052-83.69026 143.916-82.59575 142.56581-82.59575 141.21564-82.59575 140.12113-83.69026 140.12113-85.04044 140.12113-86.39061 141.21564-87.48512 142.56581-87.48512 143.916-87.48512 145.01052-86.39061 145.01052-85.04044ZM142.56581-85.04044"/>
<path transform="matrix(1.00006,0,0,-1,117.543148,17.872)" d="" fill="#ffffff"/>
<path transform="matrix(1.00006,0,0,-1,117.543148,17.872)" stroke-width=".797" stroke-linecap="butt" stroke-miterlimit="10" stroke-linejoin="miter" fill="none" stroke="#000000" d=""/>
<path transform="matrix(1.00006,0,0,-1,117.543148,17.872)" d="M103.10254-85.04044C103.10254-84.16388 102.39195-83.4533 101.5154-83.4533 100.63884-83.4533 99.92825-84.16388 99.92825-85.04044 99.92825-85.91699 100.63884-86.62758 101.5154-86.62758 102.39195-86.62758 103.10254-85.91699 103.10254-85.04044ZM101.5154-85.04044"/>
<path transform="matrix(1.00006,0,0,-1,117.543148,17.872)" stroke-width=".3985" stroke-linecap="butt" stroke-miterlimit="10" stroke-linejoin="miter" fill="none" stroke="#000000" d="M103.10254-85.04044C103.10254-84.16388 102.39195-83.4533 101.5154-83.4533 100.63884-83.4533 99.92825-84.16388 99.92825-85.04044 99.92825-85.91699 100.63884-86.62758 101.5154-86.62758 102.39195-86.62758 103.10254-85.91699 103.10254-85.04044ZM101.5154-85.04044"/>
<path transform="matrix(1.00006,0,0,-1,117.543148,17.872)" d="M-78.77817-28.3468C-78.77817-27.47025-79.48875-26.75966-80.36531-26.75966-81.24187-26.75966-81.95245-27.47025-81.95245-28.3468-81.95245-29.22336-81.24187-29.93394-80.36531-29.93394-79.48875-29.93394-78.77817-29.22336-78.77817-28.3468ZM-80.36531-28.3468"/>
<path transform="matrix(1.00006,0,0,-1,117.543148,17.872)" stroke-width=".3985" stroke-linecap="butt" stroke-miterlimit="10" stroke-linejoin="miter" fill="none" stroke="#000000" d="M-78.77817-28.3468C-78.77817-27.47025-79.48875-26.75966-80.36531-26.75966-81.24187-26.75966-81.95245-27.47025-81.95245-28.3468-81.95245-29.22336-81.24187-29.93394-80.36531-29.93394-79.48875-29.93394-78.77817-29.22336-78.77817-28.3468ZM-80.36531-28.3468"/>
<use data-text="g" xlink:href="#font_1_59" transform="matrix(9.963197,0,0,-9.9626,1.2161713,48.256006)"/>
<use data-text="a" xlink:href="#font_1_28" transform="matrix(9.963197,0,0,-9.9626,6.197754,48.256006)"/>
<use data-text="t" xlink:href="#font_1_105" transform="matrix(9.963197,0,0,-9.9626,11.179352,48.256006)"/>
<use data-text="e" xlink:href="#font_1_50" transform="matrix(9.963197,0,0,-9.9626,15.055038,48.256006)"/>
<use data-text="D" xlink:href="#font_2_1" transform="matrix(9.963197,0,0,-9.9626,10.952744,13.339)"/>
<path transform="matrix(1.00006,0,0,-1,117.543148,17.872)" d="M103.10254-28.3468C103.10254-27.47025 102.39195-26.75966 101.5154-26.75966 100.63884-26.75966 99.92825-27.47025 99.92825-28.3468 99.92825-29.22336 100.63884-29.93394 101.5154-29.93394 102.39195-29.93394 103.10254-29.22336 103.10254-28.3468ZM101.5154-28.3468"/>
<path transform="matrix(1.00006,0,0,-1,117.543148,17.872)" stroke-width=".3985" stroke-linecap="butt" stroke-miterlimit="10" stroke-linejoin="miter" fill="none" stroke="#000000" d="M103.10254-28.3468C103.10254-27.47025 102.39195-26.75966 101.5154-26.75966 100.63884-26.75966 99.92825-27.47025 99.92825-28.3468 99.92825-29.22336 100.63884-29.93394 101.5154-29.93394 102.39195-29.93394 103.10254-29.22336 103.10254-28.3468ZM101.5154-28.3468"/>
<use data-text="Q" xlink:href="#font_2_2" transform="matrix(9.963197,0,0,-9.9626,272.3044,48.654)"/>
<path transform="matrix(1.00006,0,0,-1,69.75628,104.472)" stroke-width=".3985" stroke-linecap="butt" stroke-miterlimit="10" stroke-linejoin="miter" fill="none" stroke="#000000" d="M202.536 6.33H210.412"/>
<use data-text="Q" xlink:href="#font_2_2" transform="matrix(9.963197,0,0,-9.9626,272.3044,106.344)"/>
</svg>
