<svg xmlns="http://www.w3.org/2000/svg" xmlns:xlink="http://www.w3.org/1999/xlink" xmlns:inkscape="http://www.inkscape.org/namespaces/inkscape" version="1.1" width="186" height="108" viewBox="0 0 186 108">
<defs>
<path id="font_1_5" d="M.644989 .69506838C.644989 .69807437 .6429901 .7050781 .6339874 .7050781 .6289978 .7050781 .6279907 .70407107 .6159973 .6900635L.56799319 .6330414C.5419922 .68006899 .48999024 .7050781 .4249878 .7050781 .2979889 .7050781 .17799378 .58999636 .17799378 .4689026 .17799378 .38783265 .23098755 .34179688 .28199769 .32678224L.3889923 .2987671C.42599488 .2897644 .48098756 .27474977 .48098756 .19267273 .48098756 .1026001 .39898683 .008529663 .30099488 .008529663 .23699951 .008529663 .12599182 .030548096 .12599182 .15464783 .12599182 .17866516 .1309967 .2026825 .13198853 .20869446 .1329956 .21269226 .13398743 .21369934 .13398743 .21569824 .13398743 .22570801 .1269989 .22669983 .12199402 .22669983 .116989139 .22669983 .114990238 .22570801 .11199951 .22270203 .10798645 .21870423 .051986696-.009475708 .051986696-.012466431 .051986696-.018463135 .056991579-.022460938 .06298828-.022460938 .067993167-.022460938 .068984989-.021469117 .08099365-.007461548L.12998963 .049560548C.17298889-.008468628 .24099732-.022460938 .29899598-.022460938 .43499757-.022460938 .5529938 .11061096 .5529938 .2347107 .5529938 .30377198 .5189972 .33779908 .5039978 .35180665 .48098756 .37483216 .46598817 .37882997 .3769989 .40185548 .35499574 .40785218 .31900025 .41786195 .30999757 .41986085 .2829895 .42886354 .24899292 .457901 .24899292 .51094058 .24899292 .59199526 .32899476 .677063 .42399598 .677063 .5069885 .677063 .56799319 .6340332 .56799319 .52194216 .56799319 .48991395 .56399539 .47190858 .56399539 .4658966 .56399539 .4649048 .56399539 .45588685 .57598879 .45588685 .58599856 .45588685 .58699038 .45889283 .59098818 .47590638L.644989 .69506838Z"/>
<path id="font_1_4" d="M.375 .6136017C.3809967 .63760378 .38398744 .6476135 .40299989 .65060427 .4119873 .6516113 .44400025 .6516113 .46398927 .6516113 .5349884 .6516113 .6459961 .6516113 .6459961 .5525818 .6459961 .51856997 .6299896 .44955445 .59098818 .41055299 .5649872 .38453675 .5119934 .35253907 .42199708 .35253907H.30999757L.375 .6136017M.5189972 .33953858C.6199951 .3615265 .7389984 .43154908 .7389984 .5325775 .7389984 .61860659 .6489868 .6826172 .5179901 .6826172H.23298645C.21299744 .6826172 .20399475 .6826172 .20399475 .6626129 .20399475 .6516113 .21299744 .6516113 .23199463 .6516113 .23399353 .6516113 .25299073 .6516113 .269989 .6496124 .28799439 .6476135 .29699708 .64660647 .29699708 .63360598 .29699708 .62960818 .29599 .6266022 .29299928 .6145935L.15899658 .07752991C.14898682 .038528444 .14698792 .030532837 .067993167 .030532837 .049987794 .030532837 .040985109 .030532837 .040985109 .010528564 .040985109-.00047302247 .052993776-.00047302247 .054992677-.00047302247 .08299255-.00047302247 .15299988 .002532959 .18099976 .002532959 .20899964 .002532959 .27999879-.00047302247 .30799867-.00047302247 .31599427-.00047302247 .32798768-.00047302247 .32798768 .01953125 .32798768 .030532837 .31900025 .030532837 .2999878 .030532837 .2630005 .030532837 .23498535 .030532837 .23498535 .048538209 .23498535 .054534913 .23699951 .059524537 .23799134 .0655365L.3039856 .3305359H.4229889C.5139923 .3305359 .5319977 .27453614 .5319977 .23953247 .5319977 .22453308 .5239868 .19352722 .5179901 .17053223 .5109863 .14253235 .5019989 .105529788 .5019989 .08552551 .5019989-.022460938 .621994-.022460938 .6349945-.022460938 .7200012-.022460938 .7549896 .07853699 .7549896 .0925293 .7549896 .104537967 .74398806 .104537967 .7429962 .104537967 .73399356 .104537967 .7319946 .09753418 .7299957 .090530399 .7049866 .016525269 .6619873-.00047302247 .6389923-.00047302247 .60598757-.00047302247 .598999 .021530152 .598999 .060531618 .598999 .091537479 .6049957 .14253235 .60899356 .17453003 .61099246 .1885376 .61299136 .20753479 .61299136 .2215271 .61299136 .2985382 .54599 .3295288 .5189972 .33953858Z"/>
<path id="font_1_1" d="M.70799258 .23292542C.70999148 .23791504 .71299746 .24491883 .71299746 .24691773 .71299746 .24790955 .71299746 .2579193 .70098879 .2579193 .69200137 .2579193 .6899872 .25190736 .6879883 .24591065 .6230011 .097961429 .58599856 .0309906 .4149933 .0309906H.2689972C.25498963 .0309906 .25299073 .0309906 .24699402 .03199768 .23699951 .032989503 .23399353 .033996583 .23399353 .041992189 .23399353 .04498291 .23399353 .04698181 .23899842 .06498718L.30699159 .33789063H.4059906C.4909973 .33789063 .4909973 .31689454 .4909973 .29190064 .4909973 .28489686 .4909973 .27290345 .48399354 .24291992 .48199464 .23791504 .48098756 .23492432 .48098756 .23191834 .48098756 .22692871 .4850006 .220932 .49398805 .220932 .5019989 .220932 .5049896 .22592163 .5089874 .24092102L.56599429 .47477723C.56599429 .48077394 .5609894 .48576356 .55400088 .48576356 .54499819 .48576356 .54299929 .47976686 .5399933 .4677887 .5189972 .39186097 .5009918 .36888124 .40899659 .36888124H.31498719L.375 .60964968C.38398744 .64460757 .3849945 .64860537 .42900086 .64860537H.56999209C.69200137 .64860537 .7220001 .61964419 .7220001 .5377197 .7220001 .51374819 .7220001 .51174929 .71798709 .48477174 .71798709 .47877503 .71699526 .4717865 .71699526 .46678163 .71699526 .461792 .7200012 .45480348 .72898867 .45480348 .73999026 .45480348 .7409973 .46080018 .7429962 .47976686L.7630005 .65260317C.7659912 .6796112 .7609863 .6796112 .73599246 .6796112H.23098755C.21099854 .6796112 .20098877 .6796112 .20098877 .65960696 .20098877 .64860537 .20999146 .64860537 .22898865 .64860537 .2659912 .64860537 .2939911 .64860537 .2939911 .6306305 .2939911 .6266327 .2939911 .6246338 .2889862 .6066437L.15699768 .07797241C.14698792 .038986207 .14498902 .0309906 .06599426 .0309906 .04899597 .0309906 .037994386 .0309906 .037994386 .011993408 .037994386 0 .04699707 0 .06599426 0H.58499148C.60798647 0 .60899356 .0009918213 .6159973 .016998291L.70799258 .23292542Z"/>
<path id="font_1_2" d="M.7559967 .577652C.7659912 .61763 .7839966 .64860537 .8639984 .6516113 .86898806 .6516113 .8809967 .65260317 .8809967 .6716156 .8809967 .6726074 .8809967 .6826172 .8679962 .6826172 .83499148 .6826172 .7999878 .6796112 .7669983 .6796112 .73298647 .6796112 .69799807 .6826172 .6649933 .6826172 .6589966 .6826172 .6469879 .6826172 .6469879 .6626129 .6469879 .6516113 .6569977 .6516113 .6649933 .6516113 .7220001 .65060427 .73298647 .6296234 .73298647 .6076355 .73298647 .6046295 .73098757 .5896454 .7299957 .5866394L.6179962 .141922 .39698792 .66360476C.3889923 .6816101 .3880005 .6826172 .36499024 .6826172H.23098755C.21099854 .6826172 .20199585 .6826172 .20199585 .6626129 .20199585 .6516113 .21099854 .6516113 .22999573 .6516113 .23498535 .6516113 .2979889 .6516113 .2979889 .64260867L.1639862 .10594177C.1539917 .065963748 .13699341 .033996583 .055999757 .0309906 .049987794 .0309906 .038986207 .02999878 .038986207 .010986328 .038986207 .0039978029 .04399109 0 .051986696 0 .083999637 0 .11898804 .0029907227 .1519928 .0029907227 .18598938 .0029907227 .22200012 0 .25498963 0 .2599945 0 .272995 0 .272995 .019989014 .272995 .02999878 .2639923 .0309906 .25299073 .0309906 .19499207 .032989503 .18699646 .054977418 .18699646 .07496643 .18699646 .081954959 .18798828 .08695984 .19099427 .09794617L.32299806 .6256256C.32699586 .6196289 .32699586 .61763 .33198548 .6076355L.58099368 .018997193C.58799746 .0019989014 .59098818 0 .59999087 0 .61099246 0 .61099246 .0029907227 .6159973 .020996094L.7559967 .577652Z"/>
<path id="font_1_3" d="M.43798829 .0055236818C.59298709 .0644989 .73999026 .24256897 .73999026 .43579103 .73999026 .5969696 .6339874 .7050781 .4850006 .7050781 .2689972 .7050781 .04899597 .47784425 .04899597 .24456787 .04899597 .07847595 .16099549-.022460938 .30499269-.022460938 .32998658-.022460938 .3639984-.018463135 .40299989-.007461548 .39898683-.06939697 .39898683-.071380618 .39898683-.084365848 .39898683-.11634827 .39898683-.19433594 .48199464-.19433594 .6009979-.19433594 .6489868-.011474609 .6489868-.00047302247 .6489868 .0065307619 .6419983 .009521484 .6380005 .009521484 .6299896 .009521484 .6279907 .0045318605 .6259918-.0014648438 .60198977-.072387699 .5439911-.097335819 .5089874-.097335819 .46299745-.097335819 .44799806-.070388797 .43798829 .0055236818M.24899292 .013519287C.17098999 .044509889 .13699341 .12245178 .13699341 .21252442 .13699341 .2816162 .16299439 .4237671 .23899842 .5319061 .31199647 .63401797 .4059906 .68006899 .47898866 .68006899 .57899478 .68006899 .6519928 .6019745 .6519928 .4678192 .6519928 .3677063 .6009979 .13345337 .43299867 .039505006 .42799378 .07447815 .41799928 .14746094 .34498597 .14746094 .2919922 .14746094 .24299622 .097473148 .24299622 .04550171 .24299622 .025512696 .24899292 .014526367 .24899292 .013519287M.31098939 .002532959C.29699708 .002532959 .2649994 .002532959 .2649994 .04550171 .2649994 .08547974 .30299378 .12545777 .34498597 .12545777 .3869934 .12545777 .4059906 .10147095 .4059906 .040512086 .4059906 .025512696 .40499879 .024520874 .394989 .020523072 .36898805 .009521484 .33898927 .002532959 .31098939 .002532959Z"/>
</defs>
<path transform="matrix(1.00003,0,0,-1.00005,127.87839,25.80949)" stroke-width=".3985" stroke-linecap="butt" stroke-miterlimit="10" stroke-linejoin="miter" fill="none" stroke="#000000" d="M-30.64835-7.93695-30.64833-13.60622M-30.64833-13.60622-30.64835-19.2755 0-28.3468M0-28.3468 30.64835-37.41812 30.64833-47.05586M30.64833-47.05586 30.64835-56.69363M-30.64835-48.75667-30.64833-43.08739M-30.64833-43.08739-30.64835-37.41812 0-28.3468M0-28.3468 30.64835-19.2755 30.64833-9.63774M30.64833-9.63774 30.64835 0M-91.94507 0-91.94505-28.3468M-91.94505-28.3468-91.94507-56.69363M-91.94507 15.8739H-99.03175M-99.03175 15.8739H-106.11847M-91.94507-72.56754-99.03175-72.56752M-99.03175-72.56752-106.11847-72.56754M-91.94505-28.3468-99.03175-28.34679M-99.03175-28.34679-106.11847-28.3468M30.64835 0H37.73505M37.73505 0H44.82175M30.64835-56.69363 37.73505-56.69362M37.73505-56.69362 44.82175-56.69363"/>
<path transform="matrix(1.00003,0,0,-1.00005,127.87839,25.80949)" stroke-width=".3985" stroke-linecap="butt" stroke-miterlimit="10" stroke-linejoin="miter" fill="none" stroke="#000000" d="M-19.53711 7.93695H-30.64835M-19.53711-7.93695H-30.64835"/>
<path transform="matrix(1.00003,0,0,-1.00005,127.87839,25.80949)" stroke-width=".797" stroke-linecap="butt" stroke-miterlimit="10" stroke-linejoin="miter" fill="none" stroke="#000000" d="M-19.53711 15.8739H3.66321C12.43024 15.8739 19.53712 8.76701 19.53712 0 19.53712-8.76701 12.43024-15.8739 3.66321-15.8739H-19.53711Z"/>
<path transform="matrix(1.00003,0,0,-1.00005,127.87839,25.80949)" stroke-width=".3985" stroke-linecap="butt" stroke-miterlimit="10" stroke-linejoin="miter" fill="none" stroke="#000000" d="M24.42648 0H30.64835"/>
<path transform="matrix(1.00003,0,0,-1.00005,127.87839,25.80949)" d="M24.42648 0C24.42648 1.35017 23.33197 2.44469 21.9818 2.44469 20.63162 2.44469 19.53711 1.35017 19.53711 0 19.53711-1.35017 20.63162-2.44469 21.9818-2.44469 23.33197-2.44469 24.42648-1.35017 24.42648 0ZM21.9818 0" fill="#ffffff"/>
<path transform="matrix(1.00003,0,0,-1.00005,127.87839,25.80949)" stroke-width=".797" stroke-linecap="butt" stroke-miterlimit="10" stroke-linejoin="miter" fill="none" stroke="#000000" d="M24.42648 0C24.42648 1.35017 23.33197 2.44469 21.9818 2.44469 20.63162 2.44469 19.53711 1.35017 19.53711 0 19.53711-1.35017 20.63162-2.44469 21.9818-2.44469 23.33197-2.44469 24.42648-1.35017 24.42648 0ZM21.9818 0"/>
<path transform="matrix(1.00003,0,0,-1.00005,127.87839,25.80949)" d="" fill="#ffffff"/>
<path transform="matrix(1.00003,0,0,-1.00005,127.87839,25.80949)" stroke-width=".797" stroke-linecap="butt" stroke-miterlimit="10" stroke-linejoin="miter" fill="none" stroke="#000000" d=""/>
<path transform="matrix(1.00003,0,0,-1.00005,127.87839,25.80949)" stroke-width=".3985" stroke-linecap="butt" stroke-miterlimit="10" stroke-linejoin="miter" fill="none" stroke="#000000" d="M-19.53711-48.75667H-30.64835M-19.53711-64.63058H-30.64835"/>
<path transform="matrix(1.00003,0,0,-1.00005,127.87839,25.80949)" stroke-width=".797" stroke-linecap="butt" stroke-miterlimit="10" stroke-linejoin="miter" fill="none" stroke="#000000" d="M-19.53711-40.81972H3.66321C12.43024-40.81972 19.53712-47.9266 19.53712-56.69363 19.53712-65.46065 12.43024-72.56754 3.66321-72.56754H-19.53711Z"/>
<path transform="matrix(1.00003,0,0,-1.00005,127.87839,25.80949)" stroke-width=".3985" stroke-linecap="butt" stroke-miterlimit="10" stroke-linejoin="miter" fill="none" stroke="#000000" d="M24.42648-56.69363H30.64835"/>
<path transform="matrix(1.00003,0,0,-1.00005,127.87839,25.80949)" d="M24.42648-56.69363C24.42648-55.34344 23.33197-54.24893 21.9818-54.24893 20.63162-54.24893 19.53711-55.34344 19.53711-56.69363 19.53711-58.04381 20.63162-59.13832 21.9818-59.13832 23.33197-59.13832 24.42648-58.04381 24.42648-56.69363ZM21.9818-56.69363" fill="#ffffff"/>
<path transform="matrix(1.00003,0,0,-1.00005,127.87839,25.80949)" stroke-width=".797" stroke-linecap="butt" stroke-miterlimit="10" stroke-linejoin="miter" fill="none" stroke="#000000" d="M24.42648-56.69363C24.42648-55.34344 23.33197-54.24893 21.9818-54.24893 20.63162-54.24893 19.53711-55.34344 19.53711-56.69363 19.53711-58.04381 20.63162-59.13832 21.9818-59.13832 23.33197-59.13832 24.42648-58.04381 24.42648-56.69363ZM21.9818-56.69363"/>
<path transform="matrix(1.00003,0,0,-1.00005,127.87839,25.80949)" d="" fill="#ffffff"/>
<path transform="matrix(1.00003,0,0,-1.00005,127.87839,25.80949)" stroke-width=".797" stroke-linecap="butt" stroke-miterlimit="10" stroke-linejoin="miter" fill="none" stroke="#000000" d=""/>
<path transform="matrix(1.00003,0,0,-1.00005,127.87839,25.80949)" stroke-width=".3985" stroke-linecap="butt" stroke-miterlimit="10" stroke-linejoin="miter" fill="none" stroke="#000000" d="M-80.83382 15.8739H-91.94507M-80.83382 0H-91.94507"/>
<path transform="matrix(1.00003,0,0,-1.00005,127.87839,25.80949)" stroke-width=".797" stroke-linecap="butt" stroke-miterlimit="10" stroke-linejoin="miter" fill="none" stroke="#000000" d="M-80.83382 23.81085H-57.63348C-48.86647 23.81085-41.75958 16.70396-41.75958 7.93695-41.75958-.83006-48.86647-7.93695-57.63348-7.93695H-80.83382Z"/>
<path transform="matrix(1.00003,0,0,-1.00005,127.87839,25.80949)" stroke-width=".3985" stroke-linecap="butt" stroke-miterlimit="10" stroke-linejoin="miter" fill="none" stroke="#000000" d="M-36.87022 7.93695H-30.64835"/>
<path transform="matrix(1.00003,0,0,-1.00005,127.87839,25.80949)" d="M-36.87022 7.93695C-36.87022 9.28712-37.96472 10.38164-39.31491 10.38164-40.66508 10.38164-41.7596 9.28712-41.7596 7.93695-41.7596 6.58676-40.66508 5.49225-39.31491 5.49225-37.96472 5.49225-36.87022 6.58676-36.87022 7.93695ZM-39.31491 7.93695" fill="#ffffff"/>
<path transform="matrix(1.00003,0,0,-1.00005,127.87839,25.80949)" stroke-width=".797" stroke-linecap="butt" stroke-miterlimit="10" stroke-linejoin="miter" fill="none" stroke="#000000" d="M-36.87022 7.93695C-36.87022 9.28712-37.96472 10.38164-39.31491 10.38164-40.66508 10.38164-41.7596 9.28712-41.7596 7.93695-41.7596 6.58676-40.66508 5.49225-39.31491 5.49225-37.96472 5.49225-36.87022 6.58676-36.87022 7.93695ZM-39.31491 7.93695"/>
<path transform="matrix(1.00003,0,0,-1.00005,127.87839,25.80949)" d="" fill="#ffffff"/>
<path transform="matrix(1.00003,0,0,-1.00005,127.87839,25.80949)" stroke-width=".797" stroke-linecap="butt" stroke-miterlimit="10" stroke-linejoin="miter" fill="none" stroke="#000000" d=""/>
<path transform="matrix(1.00003,0,0,-1.00005,127.87839,25.80949)" stroke-width=".3985" stroke-linecap="butt" stroke-miterlimit="10" stroke-linejoin="miter" fill="none" stroke="#000000" d="M-80.83382-56.69363H-91.94507M-80.83382-72.56754H-91.94507"/>
<path transform="matrix(1.00003,0,0,-1.00005,127.87839,25.80949)" stroke-width=".797" stroke-linecap="butt" stroke-miterlimit="10" stroke-linejoin="miter" fill="none" stroke="#000000" d="M-80.83382-48.75667H-57.63348C-48.86647-48.75667-41.75958-55.86356-41.75958-64.63058-41.75958-73.39761-48.86647-80.50449-57.63348-80.50449H-80.83382Z"/>
<path transform="matrix(1.00003,0,0,-1.00005,127.87839,25.80949)" stroke-width=".3985" stroke-linecap="butt" stroke-miterlimit="10" stroke-linejoin="miter" fill="none" stroke="#000000" d="M-36.87022-64.63058H-30.64835"/>
<path transform="matrix(1.00003,0,0,-1.00005,127.87839,25.80949)" d="M-36.87022-64.63058C-36.87022-63.2804-37.96472-62.18588-39.31491-62.18588-40.66508-62.18588-41.7596-63.2804-41.7596-64.63058-41.7596-65.98076-40.66508-67.07527-39.31491-67.07527-37.96472-67.07527-36.87022-65.98076-36.87022-64.63058ZM-39.31491-64.63058" fill="#ffffff"/>
<path transform="matrix(1.00003,0,0,-1.00005,127.87839,25.80949)" stroke-width=".797" stroke-linecap="butt" stroke-miterlimit="10" stroke-linejoin="miter" fill="none" stroke="#000000" d="M-36.87022-64.63058C-36.87022-63.2804-37.96472-62.18588-39.31491-62.18588-40.66508-62.18588-41.7596-63.2804-41.7596-64.63058-41.7596-65.98076-40.66508-67.07527-39.31491-67.07527-37.96472-67.07527-36.87022-65.98076-36.87022-64.63058ZM-39.31491-64.63058"/>
<path transform="matrix(1.00003,0,0,-1.00005,127.87839,25.80949)" d="" fill="#ffffff"/>
<path transform="matrix(1.00003,0,0,-1.00005,127.87839,25.80949)" stroke-width=".797" stroke-linecap="butt" stroke-miterlimit="10" stroke-linejoin="miter" fill="none" stroke="#000000" d=""/>
<use data-text="S" xlink:href="#font_1_5" transform="matrix(9.962899,0,0,-9.963098,11.552902,13.338867)"/>
<use data-text="R" xlink:href="#font_1_4" transform="matrix(9.962899,0,0,-9.963098,10.594864,101.78429)"/>
<path transform="matrix(1.00003,0,0,-1.00005,127.87839,25.80949)" d="M-90.35791-28.3468C-90.35791-27.47025-91.0685-26.75966-91.94505-26.75966-92.82161-26.75966-93.5322-27.47025-93.5322-28.3468-93.5322-29.22336-92.82161-29.93394-91.94505-29.93394-91.0685-29.93394-90.35791-29.22336-90.35791-28.3468ZM-91.94505-28.3468"/>
<path transform="matrix(1.00003,0,0,-1.00005,127.87839,25.80949)" stroke-width=".3985" stroke-linecap="butt" stroke-miterlimit="10" stroke-linejoin="miter" fill="none" stroke="#000000" d="M-90.35791-28.3468C-90.35791-27.47025-91.0685-26.75966-91.94505-26.75966-92.82161-26.75966-93.5322-27.47025-93.5322-28.3468-93.5322-29.22336-92.82161-29.93394-91.94505-29.93394-91.0685-29.93394-90.35791-29.22336-90.35791-28.3468ZM-91.94505-28.3468"/>
<use data-text="E" xlink:href="#font_1_1" transform="matrix(9.962899,0,0,-9.963098,1.2165833,57.562078)"/>
<use data-text="N" xlink:href="#font_1_2" transform="matrix(9.962899,0,0,-9.963098,9.1371,57.562078)"/>
<path transform="matrix(1.00003,0,0,-1.00005,127.87839,25.80949)" d="M32.2355 0C32.2355 .87656 31.52492 1.58714 30.64835 1.58714 29.77179 1.58714 29.0612 .87656 29.0612 0 29.0612-.87656 29.77179-1.58714 30.64835-1.58714 31.52492-1.58714 32.2355-.87656 32.2355 0ZM30.64835 0"/>
<path transform="matrix(1.00003,0,0,-1.00005,127.87839,25.80949)" stroke-width=".3985" stroke-linecap="butt" stroke-miterlimit="10" stroke-linejoin="miter" fill="none" stroke="#000000" d="M32.2355 0C32.2355 .87656 31.52492 1.58714 30.64835 1.58714 29.77179 1.58714 29.0612 .87656 29.0612 0 29.0612-.87656 29.77179-1.58714 30.64835-1.58714 31.52492-1.58714 32.2355-.87656 32.2355 0ZM30.64835 0"/>
<use data-text="Q" xlink:href="#font_1_3" transform="matrix(9.962899,0,0,-9.963098,176.22183,28.244614)"/>
<path transform="matrix(1.00003,0,0,-1.00005,127.87839,25.80949)" d="M32.2355-56.69363C32.2355-55.81706 31.52492-55.10648 30.64835-55.10648 29.77179-55.10648 29.0612-55.81706 29.0612-56.69363 29.0612-57.57019 29.77179-58.28078 30.64835-58.28078 31.52492-58.28078 32.2355-57.57019 32.2355-56.69363ZM30.64835-56.69363"/>
<path transform="matrix(1.00003,0,0,-1.00005,127.87839,25.80949)" stroke-width=".3985" stroke-linecap="butt" stroke-miterlimit="10" stroke-linejoin="miter" fill="none" stroke="#000000" d="M32.2355-56.69363C32.2355-55.81706 31.52492-55.10648 30.64835-55.10648 29.77179-55.10648 29.0612-55.81706 29.0612-56.69363 29.0612-57.57019 29.77179-58.28078 30.64835-58.28078 31.52492-58.28078 32.2355-57.57019 32.2355-56.69363ZM30.64835-56.69363"/>
<path transform="matrix(1.00003,0,0,-1.00005,-36.658548,76.123)" stroke-width=".3985" stroke-linecap="butt" stroke-miterlimit="10" stroke-linejoin="miter" fill="none" stroke="#000000" d="M212.874-1.611H220.75"/>
<use data-text="Q" xlink:href="#font_1_3" transform="matrix(9.962899,0,0,-9.963098,176.22183,85.93749)"/>
</svg>
