<svg xmlns="http://www.w3.org/2000/svg" xmlns:xlink="http://www.w3.org/1999/xlink" xmlns:inkscape="http://www.inkscape.org/namespaces/inkscape" version="1.1" width="205" height="92" viewBox="0 0 205 92">
<defs>
<path id="font_1_1" d="M.1789856 .114868167C.13899231 .047973634 .099990848 .033981325 .055999757 .0309906 .04399109 .02999878 .034988405 .02999878 .034988405 .010986328 .034988405 .004989624 .039993287 0 .04798889 0 .07499695 0 .10598755 .0029907227 .13398743 .0029907227 .16699219 .0029907227 .20199585 0 .23399353 0 .23999024 0 .25299073 0 .25299073 .018997193 .25299073 .02999878 .24398804 .0309906 .23699951 .0309906 .21398926 .032989503 .18998719 .04096985 .18998719 .06593323 .18998719 .077926639 .19599915 .088897708 .20399475 .102890018L.27999879 .23068238H.5309906C.5329895 .2097168 .5469971 .07392883 .5469971 .063949588 .5469971 .033981325 .49499513 .0309906 .47499085 .0309906 .46099855 .0309906 .45098878 .0309906 .45098878 .010986328 .45098878 0 .46299745 0 .46499635 0 .5059967 0 .548996 .0029907227 .58999636 .0029907227 .61499026 .0029907227 .6779938 0 .7029877 0 .70899966 0 .72099307 0 .72099307 .019989014 .72099307 .0309906 .71099856 .0309906 .69799807 .0309906 .6359863 .0309906 .6359863 .037979127 .6329956 .06694031L.57199099 .691803C.56999209 .71180728 .56999209 .7158203 .5529938 .7158203 .5369873 .7158203 .5329895 .7088165 .5269928 .69880679L.1789856 .114868167M.29899598 .26168824 .49598695 .5917816 .5279999 .26168824H.29899598Z"/>
<path id="font_1_2" d="M.1599884 .07795715C.1499939 .038986207 .147995 .0309906 .068984989 .0309906 .051986696 .0309906 .041992189 .0309906 .041992189 .010986328 .041992189 0 .050994874 0 .068984989 0H.42599488C.58399966 0 .70199587 .11791992 .70199587 .21585083 .70199587 .28778077 .6439972 .3457489 .5469971 .35673524 .651001 .37573243 .7559967 .44970704 .7559967 .5446625 .7559967 .6186218 .6899872 .6826172 .56999209 .6826172H.23399353C.21499634 .6826172 .20498657 .6826172 .20498657 .6626129 .20498657 .6516113 .21398926 .6516113 .23298645 .6516113 .23498535 .6516113 .2539978 .6516113 .2709961 .6496124 .2889862 .6476135 .2979889 .64660647 .2979889 .6336212 .2979889 .6296234 .29699708 .62661746 .2939911 .614624L.1599884 .07795715M.31098939 .36573792 .37298585 .6136322C.38198854 .64860537 .38398744 .6516113 .4269867 .6516113H.55599978C.6439972 .6516113 .6649933 .5926361 .6649933 .5486603 .6649933 .46069337 .57899478 .36573792 .45700074 .36573792H.31098939M.2659912 .0309906C.2519989 .0309906 .25 .0309906 .24398804 .03199768 .23399353 .032989503 .23098755 .033996583 .23098755 .04197693 .23098755 .04498291 .23098755 .04698181 .23599243 .064971927L.30499269 .34375H.49398805C.58999636 .34375 .60899356 .2698059 .60899356 .22683716 .60899356 .12791443 .519989 .0309906 .4019928 .0309906H.2659912Z"/>
<path id="font_2_1" d="M.40899659 .23046875H.6879883C.70199587 .23046875 .72099307 .23046875 .72099307 .25045777 .72099307 .27046205 .70199587 .27046205 .6879883 .27046205H.40899659V.5500183C.40899659 .56399539 .40899659 .5830078 .3889923 .5830078 .36898805 .5830078 .36898805 .56399539 .36898805 .5500183V.27046205H.08898926C.07499695 .27046205 .055999757 .27046205 .055999757 .25045777 .055999757 .23046875 .07499695 .23046875 .08898926 .23046875H.36898805V-.05000305C.36898805-.06401062 .36898805-.08300781 .3889923-.08300781 .40899659-.08300781 .40899659-.06401062 .40899659-.05000305V.23046875Z"/>
</defs>
<path transform="matrix(1.00003,0,0,-1.00002,57.32428,17.873038)" stroke-width=".3985" stroke-linecap="butt" stroke-miterlimit="10" stroke-linejoin="miter" fill="none" stroke="#000000" d="M0 0"/>
<path transform="matrix(1.00003,0,0,-1.00002,57.32428,17.873038)" stroke-width=".3985" stroke-linecap="butt" stroke-miterlimit="10" stroke-linejoin="miter" fill="none" stroke="#000000" d="M-19.53711 7.93695H-30.64835M-19.53711-7.93695H-30.64835"/>
<path transform="matrix(1.00003,0,0,-1.00002,57.32428,17.873038)" stroke-width=".797" stroke-linecap="butt" stroke-miterlimit="10" stroke-linejoin="miter" fill="none" stroke="#000000" d="M-19.53711 15.8739H3.66321C12.43024 15.8739 19.53712 8.76701 19.53712 0 19.53712-8.76701 12.43024-15.8739 3.66321-15.8739H-19.53711Z"/>
<path transform="matrix(1.00003,0,0,-1.00002,57.32428,17.873038)" stroke-width=".3985" stroke-linecap="butt" stroke-miterlimit="10" stroke-linejoin="miter" fill="none" stroke="#000000" d="M24.42648 0H30.64835"/>
<path transform="matrix(1.00003,0,0,-1.00002,57.32428,17.873038)" d="M24.42648 0C24.42648 1.35017 23.33197 2.44469 21.9818 2.44469 20.63162 2.44469 19.53711 1.35017 19.53711 0 19.53711-1.35017 20.63162-2.44469 21.9818-2.44469 23.33197-2.44469 24.42648-1.35017 24.42648 0ZM21.9818 0" fill="#ffffff"/>
<path transform="matrix(1.00003,0,0,-1.00002,57.32428,17.873038)" stroke-width=".797" stroke-linecap="butt" stroke-miterlimit="10" stroke-linejoin="miter" fill="none" stroke="#000000" d="M24.42648 0C24.42648 1.35017 23.33197 2.44469 21.9818 2.44469 20.63162 2.44469 19.53711 1.35017 19.53711 0 19.53711-1.35017 20.63162-2.44469 21.9818-2.44469 23.33197-2.44469 24.42648-1.35017 24.42648 0ZM21.9818 0"/>
<path transform="matrix(1.00003,0,0,-1.00002,57.32428,17.873038)" d="" fill="#ffffff"/>
<path transform="matrix(1.00003,0,0,-1.00002,57.32428,17.873038)" stroke-width=".797" stroke-linecap="butt" stroke-miterlimit="10" stroke-linejoin="miter" fill="none" stroke="#000000" d=""/>
<path transform="matrix(1.00003,0,0,-1.00002,57.32428,17.873038)" stroke-width=".3985" stroke-linecap="butt" stroke-miterlimit="10" stroke-linejoin="miter" fill="none" stroke="#000000" d="M-19.53711-48.75667H-30.64835M-19.53711-64.63058H-30.64835"/>
<path transform="matrix(1.00003,0,0,-1.00002,57.32428,17.873038)" stroke-width=".797" stroke-linecap="butt" stroke-miterlimit="10" stroke-linejoin="miter" fill="none" stroke="#000000" d="M-19.53711-40.81972H3.66321C12.43024-40.81972 19.53712-47.9266 19.53712-56.69363 19.53712-65.46065 12.43024-72.56754 3.66321-72.56754H-19.53711Z"/>
<path transform="matrix(1.00003,0,0,-1.00002,57.32428,17.873038)" stroke-width=".3985" stroke-linecap="butt" stroke-miterlimit="10" stroke-linejoin="miter" fill="none" stroke="#000000" d="M24.42648-56.69363H30.64835"/>
<path transform="matrix(1.00003,0,0,-1.00002,57.32428,17.873038)" d="M24.42648-56.69363C24.42648-55.34344 23.33197-54.24893 21.9818-54.24893 20.63162-54.24893 19.53711-55.34344 19.53711-56.69363 19.53711-58.04381 20.63162-59.13832 21.9818-59.13832 23.33197-59.13832 24.42648-58.04381 24.42648-56.69363ZM21.9818-56.69363" fill="#ffffff"/>
<path transform="matrix(1.00003,0,0,-1.00002,57.32428,17.873038)" stroke-width=".797" stroke-linecap="butt" stroke-miterlimit="10" stroke-linejoin="miter" fill="none" stroke="#000000" d="M24.42648-56.69363C24.42648-55.34344 23.33197-54.24893 21.9818-54.24893 20.63162-54.24893 19.53711-55.34344 19.53711-56.69363 19.53711-58.04381 20.63162-59.13832 21.9818-59.13832 23.33197-59.13832 24.42648-58.04381 24.42648-56.69363ZM21.9818-56.69363"/>
<path transform="matrix(1.00003,0,0,-1.00002,57.32428,17.873038)" d="" fill="#ffffff"/>
<path transform="matrix(1.00003,0,0,-1.00002,57.32428,17.873038)" stroke-width=".797" stroke-linecap="butt" stroke-miterlimit="10" stroke-linejoin="miter" fill="none" stroke="#000000" d=""/>
<path transform="matrix(1.00003,0,0,-1.00002,57.32428,17.873038)" stroke-width=".3985" stroke-linecap="butt" stroke-miterlimit="10" stroke-linejoin="miter" fill="none" stroke="#000000" d="M65.50334-20.40985H54.39209M65.50334-36.28375H54.39209"/>
<path transform="matrix(1.00003,0,0,-1.00002,57.32428,17.873038)" stroke-width=".797" stroke-linecap="butt" stroke-miterlimit="10" stroke-linejoin="miter" fill="none" stroke="#000000" d="M65.50334-12.4729H88.70367C97.4707-12.4729 104.57758-19.57977 104.57758-28.3468 104.57758-37.11383 97.4707-44.2207 88.70367-44.2207H65.50334Z"/>
<path transform="matrix(1.00003,0,0,-1.00002,57.32428,17.873038)" stroke-width=".3985" stroke-linecap="butt" stroke-miterlimit="10" stroke-linejoin="miter" fill="none" stroke="#000000" d="M109.46695-28.3468H115.68881"/>
<path transform="matrix(1.00003,0,0,-1.00002,57.32428,17.873038)" d="M109.46695-28.3468C109.46695-26.99663 108.37244-25.90211 107.02225-25.90211 105.67207-25.90211 104.57756-26.99663 104.57756-28.3468 104.57756-29.69698 105.67207-30.79149 107.02225-30.79149 108.37244-30.79149 109.46695-29.69698 109.46695-28.3468ZM107.02225-28.3468" fill="#ffffff"/>
<path transform="matrix(1.00003,0,0,-1.00002,57.32428,17.873038)" stroke-width=".797" stroke-linecap="butt" stroke-miterlimit="10" stroke-linejoin="miter" fill="none" stroke="#000000" d="M109.46695-28.3468C109.46695-26.99663 108.37244-25.90211 107.02225-25.90211 105.67207-25.90211 104.57756-26.99663 104.57756-28.3468 104.57756-29.69698 105.67207-30.79149 107.02225-30.79149 108.37244-30.79149 109.46695-29.69698 109.46695-28.3468ZM107.02225-28.3468"/>
<path transform="matrix(1.00003,0,0,-1.00002,57.32428,17.873038)" d="" fill="#ffffff"/>
<path transform="matrix(1.00003,0,0,-1.00002,57.32428,17.873038)" stroke-width=".797" stroke-linecap="butt" stroke-miterlimit="10" stroke-linejoin="miter" fill="none" stroke="#000000" d=""/>
<path transform="matrix(1.00003,0,0,-1.00002,57.32428,17.873038)" stroke-width=".3985" stroke-linecap="butt" stroke-miterlimit="10" stroke-linejoin="miter" fill="none" stroke="#000000" d="M-30.64835 7.93695-30.64833 0M-30.64833 0-30.64835-7.93695"/>
<path transform="matrix(1.00003,0,0,-1.00002,57.32428,17.873038)" stroke-width=".3985" stroke-linecap="butt" stroke-miterlimit="10" stroke-linejoin="miter" fill="none" stroke="#000000" d="M-30.64833 0H-37.73503M-37.73503 0H-44.82173"/>
<path transform="matrix(1.00003,0,0,-1.00002,57.32428,17.873038)" d="M-29.06119 0C-29.06119 .87656-29.77177 1.58714-30.64833 1.58714-31.5249 1.58714-32.23549 .87656-32.23549 0-32.23549-.87656-31.5249-1.58714-30.64833-1.58714-29.77177-1.58714-29.06119-.87656-29.06119 0ZM-30.64833 0"/>
<path transform="matrix(1.00003,0,0,-1.00002,57.32428,17.873038)" stroke-width=".3985" stroke-linecap="butt" stroke-miterlimit="10" stroke-linejoin="miter" fill="none" stroke="#000000" d="M-29.06119 0C-29.06119 .87656-29.77177 1.58714-30.64833 1.58714-31.5249 1.58714-32.23549 .87656-32.23549 0-32.23549-.87656-31.5249-1.58714-30.64833-1.58714-29.77177-1.58714-29.06119-.87656-29.06119 0ZM-30.64833 0"/>
<use data-text="A" xlink:href="#font_1_1" transform="matrix(9.962899,0,0,-9.962799,1.508606,21.277106)"/>
<path transform="matrix(1.00003,0,0,-1.00002,57.32428,17.873038)" stroke-width=".3985" stroke-linecap="butt" stroke-miterlimit="10" stroke-linejoin="miter" fill="none" stroke="#000000" d="M-30.64835-48.75667-30.64833-56.69362M-30.64833-56.69362-30.64835-64.63058"/>
<path transform="matrix(1.00003,0,0,-1.00002,57.32428,17.873038)" stroke-width=".3985" stroke-linecap="butt" stroke-miterlimit="10" stroke-linejoin="miter" fill="none" stroke="#000000" d="M-30.64833-56.69362H-41.36296M-41.36296-56.69362H-44.52943M30.64835 0 30.64833-10.20491M30.64833-10.20491 30.64835-20.40985 42.52022-20.40984M42.52022-20.40984 54.39209-20.40985M30.64835-56.69363 30.64833-46.48868M30.64833-46.48868 30.64835-36.28375 42.52022-36.28374M42.52022-36.28374 54.39209-36.28375M115.68881-28.3468"/>
<use data-text="B" xlink:href="#font_1_2" transform="matrix(9.962899,0,0,-9.962799,1.2165985,77.972248)"/>
<path transform="matrix(1.00003,0,0,-1.00002,57.32428,17.873038)" d="M-29.06119-56.69362C-29.06119-55.81705-29.77177-55.10646-30.64833-55.10646-31.5249-55.10646-32.23549-55.81705-32.23549-56.69362-32.23549-57.57018-31.5249-58.28076-30.64833-58.28076-29.77177-58.28076-29.06119-57.57018-29.06119-56.69362ZM-30.64833-56.69362"/>
<path transform="matrix(1.00003,0,0,-1.00002,57.32428,17.873038)" stroke-width=".3985" stroke-linecap="butt" stroke-miterlimit="10" stroke-linejoin="miter" fill="none" stroke="#000000" d="M-29.06119-56.69362C-29.06119-55.81705-29.77177-55.10646-30.64833-55.10646-31.5249-55.10646-32.23549-55.81705-32.23549-56.69362-32.23549-57.57018-31.5249-58.28076-30.64833-58.28076-29.77177-58.28076-29.06119-57.57018-29.06119-56.69362ZM-30.64833-56.69362"/>
<use data-text="A" xlink:href="#font_1_1" transform="matrix(9.962899,0,0,-9.962799,176.53687,49.209669)"/>
<use data-text="+" xlink:href="#font_2_1" transform="matrix(9.962899,0,0,-9.962799,186.22315,49.209669)"/>
<use data-text="B" xlink:href="#font_1_2" transform="matrix(9.962899,0,0,-9.962799,196.18647,49.209669)"/>
</svg>
