<svg xmlns="http://www.w3.org/2000/svg" xmlns:xlink="http://www.w3.org/1999/xlink" xmlns:inkscape="http://www.inkscape.org/namespaces/inkscape" version="1.1" width="128" height="90" viewBox="0 0 128 90">
<defs>
<path id="font_1_1" d="M.1789856 .114868167C.13899231 .047973634 .099990848 .033981325 .055999757 .0309906 .04399109 .02999878 .034988405 .02999878 .034988405 .010986328 .034988405 .004989624 .039993287 0 .04798889 0 .07499695 0 .10598755 .0029907227 .13398743 .0029907227 .16699219 .0029907227 .20199585 0 .23399353 0 .23999024 0 .25299073 0 .25299073 .018997193 .25299073 .02999878 .24398804 .0309906 .23699951 .0309906 .21398926 .032989503 .18998719 .04096985 .18998719 .06593323 .18998719 .077926639 .19599915 .088897708 .20399475 .102890018L.27999879 .23068238H.5309906C.5329895 .2097168 .5469971 .07392883 .5469971 .063949588 .5469971 .033981325 .49499513 .0309906 .47499085 .0309906 .46099855 .0309906 .45098878 .0309906 .45098878 .010986328 .45098878 0 .46299745 0 .46499635 0 .5059967 0 .548996 .0029907227 .58999636 .0029907227 .61499026 .0029907227 .6779938 0 .7029877 0 .70899966 0 .72099307 0 .72099307 .019989014 .72099307 .0309906 .71099856 .0309906 .69799807 .0309906 .6359863 .0309906 .6359863 .037979127 .6329956 .06694031L.57199099 .691803C.56999209 .71180728 .56999209 .7158203 .5529938 .7158203 .5369873 .7158203 .5329895 .7088165 .5269928 .69880679L.1789856 .114868167M.29899598 .26168824 .49598695 .5917816 .5279999 .26168824H.29899598Z"/>
<path id="font_1_2" d="M.1599884 .07795715C.1499939 .038986207 .147995 .0309906 .068984989 .0309906 .051986696 .0309906 .041992189 .0309906 .041992189 .010986328 .041992189 0 .050994874 0 .068984989 0H.42599488C.58399966 0 .70199587 .11791992 .70199587 .21585083 .70199587 .28778077 .6439972 .3457489 .5469971 .35673524 .651001 .37573243 .7559967 .44970704 .7559967 .5446625 .7559967 .6186218 .6899872 .6826172 .56999209 .6826172H.23399353C.21499634 .6826172 .20498657 .6826172 .20498657 .6626129 .20498657 .6516113 .21398926 .6516113 .23298645 .6516113 .23498535 .6516113 .2539978 .6516113 .2709961 .6496124 .2889862 .6476135 .2979889 .64660647 .2979889 .6336212 .2979889 .6296234 .29699708 .62661746 .2939911 .614624L.1599884 .07795715M.31098939 .36573792 .37298585 .6136322C.38198854 .64860537 .38398744 .6516113 .4269867 .6516113H.55599978C.6439972 .6516113 .6649933 .5926361 .6649933 .5486603 .6649933 .46069337 .57899478 .36573792 .45700074 .36573792H.31098939M.2659912 .0309906C.2519989 .0309906 .25 .0309906 .24398804 .03199768 .23399353 .032989503 .23098755 .033996583 .23098755 .04197693 .23098755 .04498291 .23098755 .04698181 .23599243 .064971927L.30499269 .34375H.49398805C.58999636 .34375 .60899356 .2698059 .60899356 .22683716 .60899356 .12791443 .519989 .0309906 .4019928 .0309906H.2659912Z"/>
<path id="font_1_4" d="M.644989 .69506838C.644989 .69807437 .6429901 .7050781 .6339874 .7050781 .6289978 .7050781 .6279907 .70407107 .6159973 .6900635L.56799319 .6330414C.5419922 .68006899 .48999024 .7050781 .4249878 .7050781 .2979889 .7050781 .17799378 .58999636 .17799378 .4689026 .17799378 .38783265 .23098755 .34179688 .28199769 .32678224L.3889923 .2987671C.42599488 .2897644 .48098756 .27474977 .48098756 .19267273 .48098756 .1026001 .39898683 .008529663 .30099488 .008529663 .23699951 .008529663 .12599182 .030548096 .12599182 .15464783 .12599182 .17866516 .1309967 .2026825 .13198853 .20869446 .1329956 .21269226 .13398743 .21369934 .13398743 .21569824 .13398743 .22570801 .1269989 .22669983 .12199402 .22669983 .116989139 .22669983 .114990238 .22570801 .11199951 .22270203 .10798645 .21870423 .051986696-.009475708 .051986696-.012466431 .051986696-.018463135 .056991579-.022460938 .06298828-.022460938 .067993167-.022460938 .068984989-.021469117 .08099365-.007461548L.12998963 .049560548C.17298889-.008468628 .24099732-.022460938 .29899598-.022460938 .43499757-.022460938 .5529938 .11061096 .5529938 .2347107 .5529938 .30377198 .5189972 .33779908 .5039978 .35180665 .48098756 .37483216 .46598817 .37882997 .3769989 .40185548 .35499574 .40785218 .31900025 .41786195 .30999757 .41986085 .2829895 .42886354 .24899292 .457901 .24899292 .51094058 .24899292 .59199526 .32899476 .677063 .42399598 .677063 .5069885 .677063 .56799319 .6340332 .56799319 .52194216 .56799319 .48991395 .56399539 .47190858 .56399539 .4658966 .56399539 .4649048 .56399539 .45588685 .57598879 .45588685 .58599856 .45588685 .58699038 .45889283 .59098818 .47590638L.644989 .69506838Z"/>
<path id="font_1_3" d="M.7599945 .69506838C.7599945 .69807437 .7579956 .7050781 .7489929 .7050781 .74598696 .7050781 .7449951 .70407107 .73399356 .69306948L.6639862 .61602786C.6549988 .6300354 .60899356 .7050781 .49798585 .7050781 .2749939 .7050781 .049987794 .48391725 .049987794 .25172425 .049987794 .08659363 .16799927-.022460938 .32099916-.022460938 .4079895-.022460938 .48399354 .017532349 .5369873 .063583377 .6299896 .14564514 .6469879 .2367096 .6469879 .23971558 .6469879 .24972534 .6369934 .24972534 .6349945 .24972534 .6289978 .24972534 .6239929 .24772644 .621994 .23971558 .61299136 .21069336 .58999636 .13963318 .5209961 .081588748 .45199586 .025543213 .3889923 .008529663 .33699037 .008529663 .24699402 .008529663 .14099121 .060577394 .14099121 .21670532 .14099121 .27374269 .1619873 .43588258 .2619934 .55296328 .32299806 .62402346 .4169922 .67407229 .5059967 .67407229 .60798647 .67407229 .6669922 .5970001 .6669922 .48091126 .6669922 .44088746 .6639862 .43988038 .6639862 .4298706 .6639862 .41986085 .6749878 .41986085 .67900088 .41986085 .69200137 .41986085 .69200137 .42185975 .69699099 .43988038L.7599945 .69506838Z"/>
</defs>
<path transform="matrix(1.00008,0,0,-1.00003,78.420078,24.109244)" stroke-width=".3985" stroke-linecap="butt" stroke-miterlimit="10" stroke-linejoin="miter" fill="none" stroke="#000000" d="M-30.64835 7.93695H-37.73505M-37.73505 7.93695H-44.82175V-13.32315M-44.82175-13.32315V-34.58327L-37.73505-34.58325M-37.73505-34.58325-30.64835-34.58327M-30.64835-7.93695-30.64833-29.19705M-30.64833-29.19705-30.64835-50.45717M-44.82175 7.93695H-58.99515M-58.99515 7.93695H-73.16856M-30.64835-50.45717-51.90845-50.45715M-51.90845-50.45715-73.16856-50.45717M30.64835 0H37.73505M37.73505 0H44.82175M30.64835-42.52022 37.73505-42.5202M37.73505-42.5202 44.82175-42.52022"/>
<path transform="matrix(1.00008,0,0,-1.00003,78.420078,24.109244)" stroke-width=".3985" stroke-linecap="butt" stroke-miterlimit="10" stroke-linejoin="miter" fill="none" stroke="#000000" d="M-20.48512 7.93695H-30.64835"/>
<path transform="matrix(1.00008,0,0,-1.00003,78.420078,24.109244)" stroke-width=".3985" stroke-linecap="butt" stroke-miterlimit="10" stroke-linejoin="miter" fill="none" stroke="#000000" d="M-20.48512-7.93695H-30.64835"/>
<path transform="matrix(1.00008,0,0,-1.00003,78.420078,24.109244)" stroke-width=".797" stroke-linecap="butt" stroke-miterlimit="10" stroke-linejoin="miter" fill="none" stroke="#000000" d="M-19.53711 15.8739H-8.85695C2.80333 16.20137 13.70792 10.10574 19.53564 .00096 13.7084-10.10332 2.80284-16.19942-8.85646-15.87244L-22.89082-15.8739C-18.26643-5.9054-18.26643 5.90521-22.89082 15.87372Z"/>
<path transform="matrix(1.00008,0,0,-1.00003,78.420078,24.109244)" stroke-width=".797" stroke-linecap="butt" stroke-miterlimit="10" stroke-linejoin="miter" fill="none" stroke="#000000" d="M-25.93855-15.8739C-21.31415-5.9054-21.31415 5.90521-25.93855 15.87372"/>
<path transform="matrix(1.00008,0,0,-1.00003,78.420078,24.109244)" stroke-width=".3985" stroke-linecap="butt" stroke-miterlimit="10" stroke-linejoin="miter" fill="none" stroke="#000000" d="M19.53711 0H30.64835"/>
<path transform="matrix(1.00008,0,0,-1.00003,78.420078,24.109244)" stroke-width=".3985" stroke-linecap="butt" stroke-miterlimit="10" stroke-linejoin="miter" fill="none" stroke="#000000" d="M-19.53711-34.58327H-30.64835M-19.53711-50.45717H-30.64835"/>
<path transform="matrix(1.00008,0,0,-1.00003,78.420078,24.109244)" stroke-width=".797" stroke-linecap="butt" stroke-miterlimit="10" stroke-linejoin="miter" fill="none" stroke="#000000" d="M-19.53711-26.64632H3.66321C12.43024-26.64632 19.53712-33.75319 19.53712-42.52022 19.53712-51.28725 12.43024-58.39412 3.66321-58.39412H-19.53711Z"/>
<path transform="matrix(1.00008,0,0,-1.00003,78.420078,24.109244)" stroke-width=".3985" stroke-linecap="butt" stroke-miterlimit="10" stroke-linejoin="miter" fill="none" stroke="#000000" d="M19.53711-42.52022H30.64835"/>
<path transform="matrix(1.00008,0,0,-1.00003,78.420078,24.109244)" d="M-43.2346 7.93695C-43.2346 8.8135-43.94519 9.5241-44.82175 9.5241-45.6983 9.5241-46.40889 8.8135-46.40889 7.93695-46.40889 7.06038-45.6983 6.3498-44.82175 6.3498-43.94519 6.3498-43.2346 7.06038-43.2346 7.93695ZM-44.82175 7.93695"/>
<path transform="matrix(1.00008,0,0,-1.00003,78.420078,24.109244)" stroke-width=".3985" stroke-linecap="butt" stroke-miterlimit="10" stroke-linejoin="miter" fill="none" stroke="#000000" d="M-43.2346 7.93695C-43.2346 8.8135-43.94519 9.5241-44.82175 9.5241-45.6983 9.5241-46.40889 8.8135-46.40889 7.93695-46.40889 7.06038-45.6983 6.3498-44.82175 6.3498-43.94519 6.3498-43.2346 7.06038-43.2346 7.93695ZM-44.82175 7.93695"/>
<path transform="matrix(1.00008,0,0,-1.00003,78.420078,24.109244)" d="M-29.0612-50.45717C-29.0612-49.58061-29.77179-48.87003-30.64835-48.87003-31.52492-48.87003-32.2355-49.58061-32.2355-50.45717-32.2355-51.33372-31.52492-52.04431-30.64835-52.04431-29.77179-52.04431-29.0612-51.33372-29.0612-50.45717ZM-30.64835-50.45717"/>
<path transform="matrix(1.00008,0,0,-1.00003,78.420078,24.109244)" stroke-width=".3985" stroke-linecap="butt" stroke-miterlimit="10" stroke-linejoin="miter" fill="none" stroke="#000000" d="M-29.0612-50.45717C-29.0612-49.58061-29.77179-48.87003-30.64835-48.87003-31.52492-48.87003-32.2355-49.58061-32.2355-50.45717-32.2355-51.33372-31.52492-52.04431-30.64835-52.04431-29.77179-52.04431-29.0612-51.33372-29.0612-50.45717ZM-30.64835-50.45717"/>
<use data-text="A" xlink:href="#font_1_1" transform="matrix(9.963397,0,0,-9.962899,1.5089264,12.651899)"/>
<use data-text="B" xlink:href="#font_1_2" transform="matrix(9.963397,0,0,-9.962899,1.2169037,84.89607)"/>
<use data-text="S" xlink:href="#font_1_4" transform="matrix(9.963397,0,0,-9.962899,119.9034,20.589138)"/>
<use data-text="C" xlink:href="#font_1_3" transform="matrix(9.963397,0,0,-9.962899,119.32835,76.95883)"/>
<path transform="matrix(1.00008,0,0,-1.00003,78.420078,24.109244)" stroke-width=".79701" stroke-linecap="butt" stroke-miterlimit="10" stroke-linejoin="miter" fill="none" stroke="#000000" d="M-58.99516 22.11034V-63.78032H30.64835V22.11034ZM30.64835-63.78032"/>
</svg>
