<svg xmlns="http://www.w3.org/2000/svg" xmlns:xlink="http://www.w3.org/1999/xlink" xmlns:inkscape="http://www.inkscape.org/namespaces/inkscape" version="1.1" width="218" height="120" viewBox="0 0 218 120">
<defs>
<path id="font_1_1" d="M.7519989 .22024536C.7669983 .22024536 .7969971 .22024536 .7969971 .25024415 .7969971 .28125 .7679901 .28125 .7519989 .28125H.14099121C.12599182 .28125 .09599304 .28125 .09599304 .25123597 .09599304 .22024536 .125 .22024536 .14099121 .22024536H.7519989Z"/>
<path id="font_2_1" d="M.47698976 .22024536H.7859955C.798996 .22024536 .82899478 .22024536 .82899478 .25024415 .82899478 .28125 .7999878 .28125 .7859955 .28125H.47698976V.5908356C.47698976 .6028137 .47698976 .6328125 .44699098 .6328125 .41600038 .6328125 .41600038 .6038208 .41600038 .5908356V.28125H.10699463C.09298706 .28125 .06399536 .28125 .06399536 .25024415 .06399536 .22024536 .09399414 .22024536 .10699463 .22024536H.41600038V-.08984375C.41600038-.10183716 .41600038-.13183594 .44599916-.13183594 .47698976-.13183594 .47698976-.10284424 .47698976-.08984375V.22024536Z"/>
<path id="font_3_2" d="M.375 .6136017C.3809967 .63760378 .38398744 .6476135 .40299989 .65060427 .4119873 .6516113 .44400025 .6516113 .46398927 .6516113 .5349884 .6516113 .6459961 .6516113 .6459961 .5525818 .6459961 .51856997 .6299896 .44955445 .59098818 .41055299 .5649872 .38453675 .5119934 .35253907 .42199708 .35253907H.30999757L.375 .6136017M.5189972 .33953858C.6199951 .3615265 .7389984 .43154908 .7389984 .5325775 .7389984 .61860659 .6489868 .6826172 .5179901 .6826172H.23298645C.21299744 .6826172 .20399475 .6826172 .20399475 .6626129 .20399475 .6516113 .21299744 .6516113 .23199463 .6516113 .23399353 .6516113 .25299073 .6516113 .269989 .6496124 .28799439 .6476135 .29699708 .64660647 .29699708 .63360598 .29699708 .62960818 .29599 .6266022 .29299928 .6145935L.15899658 .07752991C.14898682 .038528444 .14698792 .030532837 .067993167 .030532837 .049987794 .030532837 .040985109 .030532837 .040985109 .010528564 .040985109-.00047302247 .052993776-.00047302247 .054992677-.00047302247 .08299255-.00047302247 .15299988 .002532959 .18099976 .002532959 .20899964 .002532959 .27999879-.00047302247 .30799867-.00047302247 .31599427-.00047302247 .32798768-.00047302247 .32798768 .01953125 .32798768 .030532837 .31900025 .030532837 .2999878 .030532837 .2630005 .030532837 .23498535 .030532837 .23498535 .048538209 .23498535 .054534913 .23699951 .059524537 .23799134 .0655365L.3039856 .3305359H.4229889C.5139923 .3305359 .5319977 .27453614 .5319977 .23953247 .5319977 .22453308 .5239868 .19352722 .5179901 .17053223 .5109863 .14253235 .5019989 .105529788 .5019989 .08552551 .5019989-.022460938 .621994-.022460938 .6349945-.022460938 .7200012-.022460938 .7549896 .07853699 .7549896 .0925293 .7549896 .104537967 .74398806 .104537967 .7429962 .104537967 .73399356 .104537967 .7319946 .09753418 .7299957 .090530399 .7049866 .016525269 .6619873-.00047302247 .6389923-.00047302247 .60598757-.00047302247 .598999 .021530152 .598999 .060531618 .598999 .091537479 .6049957 .14253235 .60899356 .17453003 .61099246 .1885376 .61299136 .20753479 .61299136 .2215271 .61299136 .2985382 .54599 .3295288 .5189972 .33953858Z"/>
<path id="font_4_1" d="M.40699769 .39465333H.5049896C.5249939 .39465333 .5379944 .39465333 .5379944 .4166565 .5379944 .43066407 .5249939 .43066407 .5069885 .43066407H.4139862C.43699647 .5580139 .44499208 .6040497 .45298768 .63305667 .45799256 .6550598 .47999574 .6760864 .5039978 .6760864 .5049896 .6760864 .5319977 .6760864 .5509949 .6640625 .5099945 .651062 .5069885 .61505129 .5069885 .60905459 .5069885 .5870514 .5239868 .572052 .5469971 .572052 .57398989 .572052 .60398867 .59506228 .60398867 .63305667 .60398867 .6790924 .5549927 .70410159 .5039978 .70410159 .45999146 .70410159 .41099549 .6790924 .38398744 .62905886 .3639984 .5920563 .35598756 .5469818 .33499146 .43066407H.2559967C.23599243 .43066407 .22299195 .43066407 .22299195 .4086609 .22299195 .39465333 .23599243 .39465333 .2539978 .39465333H.32798768C.32699586 .38865663 .2639923 .028869629 .23999024-.078063968 .23498535-.10006714 .21798706-.17610169 .16999817-.17610169 .16899109-.17610169 .14498902-.17610169 .12599182-.1640625 .16699219-.15107727 .16999817-.11506653 .16999817-.109069827 .16999817-.08706665 .15299988-.07206726 .12998963-.07206726 .102996829-.07206726 .07299805-.095077518 .07299805-.1330719 .07299805-.17811585 .11999512-.20410156 .16999817-.20410156 .23399353-.20410156 .27799989-.13807678 .2899933-.11607361 .32598878-.049087526 .34899903 .07385254 .35099793 .08584595L.40699769 .39465333Z"/>
<path id="font_3_1" d="M.37399293 .6056366C.3829956 .6416168 .38598634 .6516113 .46499635 .6516113 .4889984 .6516113 .49699403 .6516113 .49699403 .6706085 .49699403 .6826172 .48599244 .6826172 .48199464 .6826172 .45298768 .6826172 .3789978 .6796112 .34999085 .6796112 .31999208 .6796112 .24699402 .6826172 .21699524 .6826172 .20999146 .6826172 .19699097 .6826172 .19699097 .6626129 .19699097 .6516113 .20599365 .6516113 .22499085 .6516113 .2669983 .6516113 .2939911 .6516113 .2939911 .63261416 .2939911 .6276245 .2939911 .6256256 .2919922 .6166229L.15699768 .07795715C.147995 .040985109 .14498902 .0309906 .06599426 .0309906 .042999269 .0309906 .033996583 .0309906 .033996583 .010986328 .033996583 0 .04598999 0 .04899597 0 .07798767 0 .15098572 .0029907227 .17999268 .0029907227 .20999146 .0029907227 .28399659 0 .31399537 0 .32199098 0 .33399964 0 .33399964 .018997193 .33399964 .0309906 .32598878 .0309906 .3039856 .0309906 .28599549 .0309906 .2809906 .0309906 .26098634 .032989503 .23999024 .034988405 .23599243 .038986207 .23599243 .049987794 .23599243 .05796814 .23799134 .065963748 .23999024 .07296753L.37399293 .6056366Z"/>
<path id="font_5_105" d="M.375 .12606812V.1809845H.34098817V.12705994C.34098817 .059173585 .30899049 .022232056 .269989 .022232056 .20098877 .022232056 .20098877 .10609436 .20098877 .124069217V.39465333H.35699464V.43066407H.20098877V.6142578H.16699219C.1659851 .5244446 .125 .42565919 .0289917 .4226532V.39465333H.12199402V.1250763C.12199402 .01322937 .20599365-.009765625 .2619934-.009765625 .32899476-.010009766 .375 .04699707 .375 .12599182V.12606812Z"/>
<path id="font_5_81" d="M.5289917 .21325684C.5289917 .3382721 .42199708 .44628907 .28399659 .44628907 .1459961 .44628907 .038986207 .3382721 .038986207 .21325684 .038986207 .0892334 .14898682-.009765625 .28399659-.009765625 .4189911-.009765625 .5289917 .0892334 .5289917 .21325684M.43798829 .22225952C.43798829 .17424011 .43499757 .12124634 .4059906 .08023071 .3789978 .042236329 .33299256 .022232056 .28399659 .022232056 .24699402 .022232056 .19299317 .034225465 .1599884 .083236698 .1329956 .12423706 .12998963 .17625427 .12998963 .22225952 .12998963 .2652588 .1309967 .32426454 .1659851 .36727906 .19099427 .39627076 .23298645 .41827394 .28399659 .41827394 .34298707 .41827394 .3849945 .39027406 .40699769 .3592682 .43499757 .32026673 .43798829 .27026368 .43798829 .22225952Z"/>
<path id="font_6_3" d="M.272995 .33428956C.35099793 .33428956 .40699769 .2803192 .40699769 .1733551 .40699769 .04940796 .33499146 .012466431 .2769928 .012466431 .23699951 .012466431 .14898682 .0234375 .10699463 .082351688 .1539917 .084350589 .16499329 .11735535 .16499329 .13835144 .16499329 .17034912 .14099121 .19335938 .10998535 .19335938 .08198547 .19335938 .053985597 .17634583 .053985597 .13534546 .053985597 .041412355 .1579895-.01953125 .2789917-.01953125 .41799928-.01953125 .5139923 .07336426 .5139923 .1733551 .5139923 .2513275 .44999696 .32929994 .33999635 .35229493 .44499208 .39024354 .48298646 .4650879 .48298646 .5260773 .48298646 .60505679 .3919983 .6640625 .2809906 .6640625 .16999817 .6640625 .084991458 .61006167 .084991458 .5300751 .084991458 .49606324 .10699463 .47706605 .13699341 .47706605 .16799927 .47706605 .18798828 .5000763 .18798828 .5280762 .18798828 .5570679 .16799927 .57806399 .13699341 .5800781 .17199707 .62405398 .24099732 .63505557 .27799989 .63505557 .32299806 .63505557 .38598634 .6130676 .38598634 .5260773 .38598634 .48406983 .37199403 .43814088 .34599305 .4072113 .31298829 .36927796 .2849884 .3672943 .23498535 .36428834 .20999146 .3623047 .20799256 .3623047 .20298767 .3612976 .20098877 .3612976 .19299317 .3592987 .19299317 .34829713 .19299317 .33428956 .20199585 .33428956 .21899414 .33428956H.272995Z"/>
<path id="font_3_3" d="M.6279907 .5686035C.6769867 .64660647 .71899417 .6496124 .7559967 .6516113 .7679901 .65260317 .7689972 .6696167 .7689972 .6706085 .7689972 .6786041 .7639923 .6826172 .7559967 .6826172 .7299957 .6826172 .70098879 .6796112 .673996 .6796112 .6409912 .6796112 .6069946 .6826172 .57499697 .6826172 .56900027 .6826172 .55599978 .6826172 .55599978 .66360476 .55599978 .65260317 .5649872 .6516113 .57199099 .6516113 .598999 .6496124 .6179962 .63960269 .6179962 .61860659 .6179962 .6036072 .6029968 .581604 .6029968 .5805969L.29599 .092544559 .22799683 .62161257C.22799683 .63861086 .25099183 .6516113 .29699708 .6516113 .31098939 .6516113 .32199098 .6516113 .32199098 .6716156 .32199098 .680603 .31399537 .6826172 .30799867 .6826172 .2679901 .6826172 .22499085 .6796112 .18399048 .6796112 .1659851 .6796112 .14698792 .680603 .1289978 .680603 .11099243 .680603 .09199524 .6826172 .07499695 .6826172 .067993167 .6826172 .055999757 .6826172 .055999757 .66360476 .055999757 .6516113 .06498718 .6516113 .08099365 .6516113 .13699341 .6516113 .13798523 .64260867 .14099121 .6175995L.21998596 .0005340576C.22299195-.019470215 .22698975-.022460938 .23999024-.022460938 .2559967-.022460938 .2599945-.017471314 .2679901-.004470825L.6279907 .5686035Z"/>
<path id="font_6_2" d="M.5049896 .18203736H.47099305C.46798707 .16001892 .45799256 .100997928 .44499208 .09098816 .43699647 .084991458 .3600006 .084991458 .34599305 .084991458H.1619873C.2669983 .17803955 .3019867 .20603943 .3619995 .25306703 .43598939 .312088 .5049896 .374115 .5049896 .46914674 .5049896 .5900879 .39898683 .6640625 .2709961 .6640625 .14698792 .6640625 .06298828 .57710269 .06298828 .4851532 .06298828 .43414308 .10598755 .42915345 .115997318 .42915345 .13999939 .42915345 .16899109 .44615174 .16899109 .48214723 .16899109 .5001526 .1619873 .53515627 .10998535 .53515627 .14099121 .6060791 .20899964 .62805178 .2559967 .62805178 .35598756 .62805178 .4079895 .5501404 .4079895 .46914674 .4079895 .38212586 .34599305 .3130951 .31399537 .27708436L.07299805 .038986207C.06298828 .02999878 .06298828 .027999878 .06298828 0H.47499085L.5049896 .18203736Z"/>
<path id="font_6_1" d="M.33499146 .63612368C.33499146 .6630554 .33299256 .6640625 .30499269 .6640625 .24099732 .6014404 .1499939 .6004486 .10899353 .6004486V.5644531C.1329956 .5644531 .19898987 .5644531 .2539978 .592453V.08203125C.2539978 .04899597 .2539978 .035995485 .1539917 .035995485H.115997318V0C.13398743 .0009918213 .25698854 .0039978029 .2939911 .0039978029 .32499696 .0039978029 .45098878 .0009918213 .47299195 0V.035995485H.43499757C.33499146 .035995485 .33499146 .04899597 .33499146 .08203125V.63612368Z"/>
<path id="font_5_109" d="M.58999636 0V.035995485C.522995 .035995485 .5149994 .042999269 .5149994 .092056278V.44140626L.36099244 .43052674V.39453126C.42799378 .39439393 .43598939 .3874359 .43598939 .33872987V.16749573C.43598939 .079330448 .3789978 .018234253 .30299378 .018234253 .21199036 .018234253 .20799256 .061309816 .20799256 .11239624V.44140626L.053985597 .43052674V.39453126C.1289978 .39453126 .1289978 .39154054 .1289978 .30273438V.15246582C.1289978 .083343509 .1289978-.009765625 .29599-.009765625 .31799317-.009765625 .3909912-.009765625 .43899537 .07432556H.43998719V-.009765625L.58999636 0Z"/>
</defs>
<path transform="matrix(1.00006,0,0,-1.00005,133.79712,87.93379)" stroke-width=".3985" stroke-linecap="butt" stroke-miterlimit="10" stroke-linejoin="miter" fill="none" stroke="#000000" d="M-33.7325-13.88982H-62.07932M-33.7325 13.88982-33.73248 28.0632M-33.73248 28.0632-33.7325 42.23662H-15.87419M15.87419 42.23662H33.7325L33.73248 21.1183M33.73248 21.1183 33.7325 0M-33.7325 13.88982-40.81918 13.8898M-40.81918 13.8898-47.9059 13.88982-67.4652 13.8898M-99.2136 13.8898-118.77292 13.88982M-47.9059 13.88982V28.0632M-47.9059 28.0632V42.23662H-67.4652M-99.2136 42.23662H-118.77292M-47.9059 42.23662V56.41002M-47.9059 56.41002V70.58344L-67.4652 70.58342M-99.2136 70.58342-118.77292 70.58344M33.7325 0H47.9059M47.9059 0H62.07932"/>
<path transform="matrix(1.00006,0,0,-1.00005,133.79712,87.93379)" stroke-width=".797" stroke-linecap="butt" stroke-miterlimit="10" stroke-linejoin="miter" fill="none" stroke="#000000" d="M23.61264 0-23.61263 27.77963V-27.77963Z"/>
<path transform="matrix(1.00006,0,0,-1.00005,133.79712,87.93379)" stroke-width=".3985" stroke-linecap="square" stroke-miterlimit="10" stroke-linejoin="miter" fill="none" stroke="#000000" d="M-33.7325 13.88982H-23.61263M-33.7325-13.88982H-23.61263M33.7325 0H23.61263"/>
<use data-text="&#x2212;" xlink:href="#font_1_1" transform="matrix(9.963197,0,0,-9.963098,113.50089,76.534229)"/>
<use data-text="+" xlink:href="#font_2_1" transform="matrix(9.963197,0,0,-9.963098,113.50089,104.31561)"/>
<path transform="matrix(1.00006,0,0,-1.00005,133.79712,87.93379)" stroke-width=".3985" stroke-linecap="butt" stroke-miterlimit="10" stroke-linejoin="miter" fill="none" stroke="#000000" d="M-62.07932-13.88982V-25.7954"/>
<path transform="matrix(1.00006,0,0,-1.00005,133.79712,87.93379)" stroke-width=".797" stroke-linecap="butt" stroke-miterlimit="10" stroke-linejoin="miter" fill="none" stroke="#000000" d="M-68.03217-25.7954H-56.12645M-66.04779-27.77963H-58.11082M-64.55963-29.764H-59.59898"/>
<path transform="matrix(1.00006,0,0,-1.00005,133.79712,87.93379)" d="M-32.14536 13.88982C-32.14536 14.76637-32.85594 15.47696-33.7325 15.47696-34.60905 15.47696-35.31964 14.76637-35.31964 13.88982-35.31964 13.01324-34.60905 12.30266-33.7325 12.30266-32.85594 12.30266-32.14536 13.01324-32.14536 13.88982ZM-33.7325 13.88982"/>
<path transform="matrix(1.00006,0,0,-1.00005,133.79712,87.93379)" stroke-width=".3985" stroke-linecap="butt" stroke-miterlimit="10" stroke-linejoin="miter" fill="none" stroke="#000000" d="M-32.14536 13.88982C-32.14536 14.76637-32.85594 15.47696-33.7325 15.47696-34.60905 15.47696-35.31964 14.76637-35.31964 13.88982-35.31964 13.01324-34.60905 12.30266-33.7325 12.30266-32.85594 12.30266-32.14536 13.01324-32.14536 13.88982ZM-33.7325 13.88982"/>
<path transform="matrix(1.00006,0,0,-1.00005,133.79712,87.93379)" stroke-width=".797" stroke-linecap="butt" stroke-linejoin="bevel" fill="none" stroke="#000000" d="M-16.27269 42.23662-13.2285 48.18947-7.93712 36.28377-2.64574 48.18947 2.64565 36.28377 7.93703 48.18947 13.22841 36.28377 16.2726 42.23662"/>
<use data-text="R" xlink:href="#font_3_2" transform="matrix(9.963197,0,0,-9.963098,127.43174,35.926195)"/>
<use data-text="f" xlink:href="#font_4_1" transform="matrix(6.9742186,0,0,-6.9741489,134.9972,37.421274)"/>
<path transform="matrix(1.00006,0,0,-1.00005,133.79712,87.93379)" d="M-26.53955 42.23662V40.25237L-22.323 42.23662-26.53955 44.22087Z"/>
<path transform="matrix(1.00006,0,0,-1.00005,133.79712,87.93379)" stroke-width=".3985" stroke-linecap="butt" stroke-miterlimit="10" stroke-linejoin="miter" fill="none" stroke="#000000" d="M-26.53955 42.23662V40.25237L-22.323 42.23662-26.53955 44.22087Z"/>
<use data-text="I" xlink:href="#font_3_1" transform="matrix(9.963197,0,0,-9.963098,101.458179,40.610429)"/>
<use data-text="t" xlink:href="#font_5_105" transform="matrix(6.9742186,0,0,-6.9741489,105.83844,42.105508)"/>
<use data-text="o" xlink:href="#font_5_81" transform="matrix(6.9742186,0,0,-6.9741489,108.948947,42.105508)"/>
<use data-text="t" xlink:href="#font_5_105" transform="matrix(6.9742186,0,0,-6.9741489,112.91728,42.105508)"/>
<path transform="matrix(1.00006,0,0,-1.00005,133.79712,87.93379)" d="M35.31964 0C35.31964 .87656 34.60905 1.58714 33.7325 1.58714 32.85594 1.58714 32.14536 .87656 32.14536 0 32.14536-.87656 32.85594-1.58714 33.7325-1.58714 34.60905-1.58714 35.31964-.87656 35.31964 0ZM33.7325 0"/>
<path transform="matrix(1.00006,0,0,-1.00005,133.79712,87.93379)" stroke-width=".3985" stroke-linecap="butt" stroke-miterlimit="10" stroke-linejoin="miter" fill="none" stroke="#000000" d="M35.31964 0C35.31964 .87656 34.60905 1.58714 33.7325 1.58714 32.85594 1.58714 32.14536 .87656 32.14536 0 32.14536-.87656 32.85594-1.58714 33.7325-1.58714 34.60905-1.58714 35.31964-.87656 35.31964 0ZM33.7325 0"/>
<path transform="matrix(1.00006,0,0,-1.00005,133.79712,87.93379)" d="M-46.31874 13.88982C-46.31874 14.76637-47.02933 15.47696-47.9059 15.47696-48.78246 15.47696-49.49304 14.76637-49.49304 13.88982-49.49304 13.01324-48.78246 12.30266-47.9059 12.30266-47.02933 12.30266-46.31874 13.01324-46.31874 13.88982ZM-47.9059 13.88982"/>
<path transform="matrix(1.00006,0,0,-1.00005,133.79712,87.93379)" stroke-width=".3985" stroke-linecap="butt" stroke-miterlimit="10" stroke-linejoin="miter" fill="none" stroke="#000000" d="M-46.31874 13.88982C-46.31874 14.76637-47.02933 15.47696-47.9059 15.47696-48.78246 15.47696-49.49304 14.76637-49.49304 13.88982-49.49304 13.01324-48.78246 12.30266-47.9059 12.30266-47.02933 12.30266-46.31874 13.01324-46.31874 13.88982ZM-47.9059 13.88982"/>
<path transform="matrix(1.00006,0,0,-1.00005,133.79712,87.93379)" stroke-width=".797" stroke-linecap="butt" stroke-linejoin="bevel" fill="none" stroke="#000000" d="M-67.0667 13.8898-70.1109 7.93695-75.40228 19.84265-80.69366 7.93695-85.98505 19.84265-91.27643 7.93695-96.56781 19.84265-99.612 13.8898"/>
<path transform="matrix(1.00006,0,0,-1.00005,133.79712,87.93379)" d="M-117.18576 13.88982C-117.18576 14.76637-117.89635 15.47696-118.77292 15.47696-119.64948 15.47696-120.36006 14.76637-120.36006 13.88982-120.36006 13.01324-119.64948 12.30266-118.77292 12.30266-117.89635 12.30266-117.18576 13.01324-117.18576 13.88982ZM-118.77292 13.88982" fill="#ffffff"/>
<path transform="matrix(1.00006,0,0,-1.00005,133.79712,87.93379)" stroke-width=".3985" stroke-linecap="butt" stroke-miterlimit="10" stroke-linejoin="miter" fill="none" stroke="#000000" d="M-117.18576 13.88982C-117.18576 14.76637-117.89635 15.47696-118.77292 15.47696-119.64948 15.47696-120.36006 14.76637-120.36006 13.88982-120.36006 13.01324-119.64948 12.30266-118.77292 12.30266-117.89635 12.30266-117.18576 13.01324-117.18576 13.88982ZM-118.77292 13.88982"/>
<path transform="matrix(1.00006,0,0,-1.00005,133.79712,87.93379)" d="" fill="#ffffff"/>
<path transform="matrix(1.00006,0,0,-1.00005,133.79712,87.93379)" stroke-width=".3985" stroke-linecap="butt" stroke-miterlimit="10" stroke-linejoin="miter" fill="none" stroke="#000000" d=""/>
<use data-text="R" xlink:href="#font_3_2" transform="matrix(9.963197,0,0,-9.963098,44.43576,64.27461)"/>
<use data-text="3" xlink:href="#font_6_3" transform="matrix(6.9742186,0,0,-6.9741489,52.00122,65.769687)"/>
<path transform="matrix(1.00006,0,0,-1.00005,133.79712,87.93379)" d="M-59.42175 13.8898V11.90555L-55.20522 13.8898-59.42175 15.87405Z"/>
<path transform="matrix(1.00006,0,0,-1.00005,133.79712,87.93379)" stroke-width=".3985" stroke-linecap="butt" stroke-miterlimit="10" stroke-linejoin="miter" fill="none" stroke="#000000" d="M-59.42175 13.8898V11.90555L-55.20522 13.8898-59.42175 15.87405Z"/>
<use data-text="I" xlink:href="#font_3_1" transform="matrix(9.963197,0,0,-9.963098,71.683399,84.37161)"/>
<use data-text="3" xlink:href="#font_6_3" transform="matrix(6.9742186,0,0,-6.9741489,76.06366,85.86669)"/>
<use data-text="V" xlink:href="#font_3_3" transform="matrix(9.963197,0,0,-9.963098,1.2151642,76.70023)"/>
<use data-text="3" xlink:href="#font_6_3" transform="matrix(6.9742186,0,0,-6.9741489,7.0275118,78.19531)"/>
<path transform="matrix(1.00006,0,0,-1.00005,133.79712,87.93379)" d="M-46.31874 42.23662C-46.31874 43.11319-47.02933 43.82378-47.9059 43.82378-48.78246 43.82378-49.49304 43.11319-49.49304 42.23662-49.49304 41.36006-48.78246 40.64948-47.9059 40.64948-47.02933 40.64948-46.31874 41.36006-46.31874 42.23662ZM-47.9059 42.23662"/>
<path transform="matrix(1.00006,0,0,-1.00005,133.79712,87.93379)" stroke-width=".3985" stroke-linecap="butt" stroke-miterlimit="10" stroke-linejoin="miter" fill="none" stroke="#000000" d="M-46.31874 42.23662C-46.31874 43.11319-47.02933 43.82378-47.9059 43.82378-48.78246 43.82378-49.49304 43.11319-49.49304 42.23662-49.49304 41.36006-48.78246 40.64948-47.9059 40.64948-47.02933 40.64948-46.31874 41.36006-46.31874 42.23662ZM-47.9059 42.23662"/>
<path transform="matrix(1.00006,0,0,-1.00005,133.79712,87.93379)" stroke-width=".797" stroke-linecap="butt" stroke-linejoin="bevel" fill="none" stroke="#000000" d="M-67.0667 42.23662-70.1109 36.28377-75.40228 48.18947-80.69366 36.28377-85.98505 48.18947-91.27643 36.28377-96.56781 48.18947-99.612 42.23662"/>
<path transform="matrix(1.00006,0,0,-1.00005,133.79712,87.93379)" d="M-117.18576 42.23662C-117.18576 43.11319-117.89635 43.82378-118.77292 43.82378-119.64948 43.82378-120.36006 43.11319-120.36006 42.23662-120.36006 41.36006-119.64948 40.64948-118.77292 40.64948-117.89635 40.64948-117.18576 41.36006-117.18576 42.23662ZM-118.77292 42.23662" fill="#ffffff"/>
<path transform="matrix(1.00006,0,0,-1.00005,133.79712,87.93379)" stroke-width=".3985" stroke-linecap="butt" stroke-miterlimit="10" stroke-linejoin="miter" fill="none" stroke="#000000" d="M-117.18576 42.23662C-117.18576 43.11319-117.89635 43.82378-118.77292 43.82378-119.64948 43.82378-120.36006 43.11319-120.36006 42.23662-120.36006 41.36006-119.64948 40.64948-118.77292 40.64948-117.89635 40.64948-117.18576 41.36006-117.18576 42.23662ZM-118.77292 42.23662"/>
<path transform="matrix(1.00006,0,0,-1.00005,133.79712,87.93379)" d="" fill="#ffffff"/>
<path transform="matrix(1.00006,0,0,-1.00005,133.79712,87.93379)" stroke-width=".3985" stroke-linecap="butt" stroke-miterlimit="10" stroke-linejoin="miter" fill="none" stroke="#000000" d=""/>
<use data-text="R" xlink:href="#font_3_2" transform="matrix(9.963197,0,0,-9.963098,44.43576,35.926195)"/>
<use data-text="2" xlink:href="#font_6_2" transform="matrix(6.9742186,0,0,-6.9741489,52.00122,37.421274)"/>
<path transform="matrix(1.00006,0,0,-1.00005,133.79712,87.93379)" d="M-59.42175 42.23662V40.25237L-55.20522 42.23662-59.42175 44.22087Z"/>
<path transform="matrix(1.00006,0,0,-1.00005,133.79712,87.93379)" stroke-width=".3985" stroke-linecap="butt" stroke-miterlimit="10" stroke-linejoin="miter" fill="none" stroke="#000000" d="M-59.42175 42.23662V40.25237L-55.20522 42.23662-59.42175 44.22087Z"/>
<use data-text="I" xlink:href="#font_3_1" transform="matrix(9.963197,0,0,-9.963098,71.683399,40.68043)"/>
<use data-text="2" xlink:href="#font_6_2" transform="matrix(6.9742186,0,0,-6.9741489,76.06366,42.17551)"/>
<use data-text="V" xlink:href="#font_3_3" transform="matrix(9.963197,0,0,-9.963098,1.2151642,48.351816)"/>
<use data-text="2" xlink:href="#font_6_2" transform="matrix(6.9742186,0,0,-6.9741489,7.0275118,49.846895)"/>
<path transform="matrix(1.00006,0,0,-1.00005,133.79712,87.93379)" stroke-width=".797" stroke-linecap="butt" stroke-linejoin="bevel" fill="none" stroke="#000000" d="M-67.0667 70.58342-70.1109 64.63057-75.40228 76.53627-80.69366 64.63057-85.98505 76.53627-91.27643 64.63057-96.56781 76.53627-99.612 70.58342"/>
<path transform="matrix(1.00006,0,0,-1.00005,133.79712,87.93379)" d="M-117.18576 70.58344C-117.18576 71.45999-117.89635 72.17058-118.77292 72.17058-119.64948 72.17058-120.36006 71.45999-120.36006 70.58344-120.36006 69.70686-119.64948 68.99628-118.77292 68.99628-117.89635 68.99628-117.18576 69.70686-117.18576 70.58344ZM-118.77292 70.58344" fill="#ffffff"/>
<path transform="matrix(1.00006,0,0,-1.00005,133.79712,87.93379)" stroke-width=".3985" stroke-linecap="butt" stroke-miterlimit="10" stroke-linejoin="miter" fill="none" stroke="#000000" d="M-117.18576 70.58344C-117.18576 71.45999-117.89635 72.17058-118.77292 72.17058-119.64948 72.17058-120.36006 71.45999-120.36006 70.58344-120.36006 69.70686-119.64948 68.99628-118.77292 68.99628-117.89635 68.99628-117.18576 69.70686-117.18576 70.58344ZM-118.77292 70.58344"/>
<path transform="matrix(1.00006,0,0,-1.00005,133.79712,87.93379)" d="" fill="#ffffff"/>
<path transform="matrix(1.00006,0,0,-1.00005,133.79712,87.93379)" stroke-width=".3985" stroke-linecap="butt" stroke-miterlimit="10" stroke-linejoin="miter" fill="none" stroke="#000000" d=""/>
<use data-text="R" xlink:href="#font_3_2" transform="matrix(9.963197,0,0,-9.963098,44.43576,7.5777819)"/>
<use data-text="1" xlink:href="#font_6_1" transform="matrix(6.9742186,0,0,-6.9741489,52.00122,9.072861)"/>
<path transform="matrix(1.00006,0,0,-1.00005,133.79712,87.93379)" d="M-59.42175 70.58342V68.59917L-55.20522 70.58342-59.42175 72.56767Z"/>
<path transform="matrix(1.00006,0,0,-1.00005,133.79712,87.93379)" stroke-width=".3985" stroke-linecap="butt" stroke-miterlimit="10" stroke-linejoin="miter" fill="none" stroke="#000000" d="M-59.42175 70.58342V68.59917L-55.20522 70.58342-59.42175 72.56767Z"/>
<use data-text="I" xlink:href="#font_3_1" transform="matrix(9.963197,0,0,-9.963098,71.683399,12.332016)"/>
<use data-text="1" xlink:href="#font_6_1" transform="matrix(6.9742186,0,0,-6.9741489,76.06366,13.827095)"/>
<use data-text="V" xlink:href="#font_3_3" transform="matrix(9.963197,0,0,-9.963098,1.2151642,20.003396)"/>
<use data-text="1" xlink:href="#font_6_1" transform="matrix(6.9742186,0,0,-6.9741489,7.0275118,21.498475)"/>
<path transform="matrix(1.00006,0,0,-1.00005,133.79712,87.93379)" d="M63.66646 0C63.66646 .87656 62.95587 1.58714 62.07932 1.58714 61.20274 1.58714 60.49216 .87656 60.49216 0 60.49216-.87656 61.20274-1.58714 62.07932-1.58714 62.95587-1.58714 63.66646-.87656 63.66646 0ZM62.07932 0" fill="#ffffff"/>
<path transform="matrix(1.00006,0,0,-1.00005,133.79712,87.93379)" stroke-width=".3985" stroke-linecap="butt" stroke-miterlimit="10" stroke-linejoin="miter" fill="none" stroke="#000000" d="M63.66646 0C63.66646 .87656 62.95587 1.58714 62.07932 1.58714 61.20274 1.58714 60.49216 .87656 60.49216 0 60.49216-.87656 61.20274-1.58714 62.07932-1.58714 62.95587-1.58714 63.66646-.87656 63.66646 0ZM62.07932 0"/>
<path transform="matrix(1.00006,0,0,-1.00005,133.79712,87.93379)" d="" fill="#ffffff"/>
<path transform="matrix(1.00006,0,0,-1.00005,133.79712,87.93379)" stroke-width=".3985" stroke-linecap="butt" stroke-miterlimit="10" stroke-linejoin="miter" fill="none" stroke="#000000" d=""/>
<use data-text="V" xlink:href="#font_3_3" transform="matrix(9.963197,0,0,-9.963098,199.40006,90.55592)"/>
<use data-text="o" xlink:href="#font_5_81" transform="matrix(6.9742186,0,0,-6.9741489,205.2124,92.051)"/>
<use data-text="u" xlink:href="#font_5_109" transform="matrix(6.9742186,0,0,-6.9741489,209.18073,92.051)"/>
<use data-text="t" xlink:href="#font_5_105" transform="matrix(6.9742186,0,0,-6.9741489,213.58145,92.051)"/>
</svg>
