<svg xmlns="http://www.w3.org/2000/svg" xmlns:xlink="http://www.w3.org/1999/xlink" xmlns:inkscape="http://www.inkscape.org/namespaces/inkscape" version="1.1" width="267" height="145" viewBox="0 0 267 145">
<defs>
<path id="font_1_1" d="M.15899658 .07795715C.14898682 .038986207 .14698792 .0309906 .067993167 .0309906 .050994874 .0309906 .039993287 .0309906 .039993287 .011993408 .039993287 0 .04899597 0 .067993167 0H.39898683C.6069946 0 .80400088 .21087647 .80400088 .42974855 .80400088 .5706482 .71899417 .6826172 .56900027 .6826172H.23298645C.21398926 .6826172 .20298767 .6826172 .20298767 .66360476 .20298767 .6516113 .21199036 .6516113 .23199463 .6516113 .24499512 .6516113 .2630005 .65060427 .2749939 .6496124 .29100038 .6476135 .29699708 .64460757 .29699708 .6336212 .29699708 .6296234 .29599 .62661746 .29299928 .614624L.15899658 .07795715M.375 .6136322C.38398744 .64860537 .38598634 .6516113 .42900086 .6516113H.5359955C.6339874 .6516113 .71699526 .5986328 .71699526 .46672059 .71699526 .41775514 .69699099 .25386048 .6119995 .1439209 .58299258 .10694885 .5039978 .0309906 .3809967 .0309906H.2679901C.2539978 .0309906 .2519989 .0309906 .24598694 .03199768 .23599243 .032989503 .23298645 .033996583 .23298645 .041992189 .23298645 .04498291 .23298645 .04698181 .23799134 .064971927L.375 .6136322Z"/>
<path id="font_1_2" d="M.70799258 .23292542C.70999148 .23791504 .71299746 .24491883 .71299746 .24691773 .71299746 .24790955 .71299746 .2579193 .70098879 .2579193 .69200137 .2579193 .6899872 .25190736 .6879883 .24591065 .6230011 .097961429 .58599856 .0309906 .4149933 .0309906H.2689972C.25498963 .0309906 .25299073 .0309906 .24699402 .03199768 .23699951 .032989503 .23399353 .033996583 .23399353 .041992189 .23399353 .04498291 .23399353 .04698181 .23899842 .06498718L.30699159 .33789063H.4059906C.4909973 .33789063 .4909973 .31689454 .4909973 .29190064 .4909973 .28489686 .4909973 .27290345 .48399354 .24291992 .48199464 .23791504 .48098756 .23492432 .48098756 .23191834 .48098756 .22692871 .4850006 .220932 .49398805 .220932 .5019989 .220932 .5049896 .22592163 .5089874 .24092102L.56599429 .47477723C.56599429 .48077394 .5609894 .48576356 .55400088 .48576356 .54499819 .48576356 .54299929 .47976686 .5399933 .4677887 .5189972 .39186097 .5009918 .36888124 .40899659 .36888124H.31498719L.375 .60964968C.38398744 .64460757 .3849945 .64860537 .42900086 .64860537H.56999209C.69200137 .64860537 .7220001 .61964419 .7220001 .5377197 .7220001 .51374819 .7220001 .51174929 .71798709 .48477174 .71798709 .47877503 .71699526 .4717865 .71699526 .46678163 .71699526 .461792 .7200012 .45480348 .72898867 .45480348 .73999026 .45480348 .7409973 .46080018 .7429962 .47976686L.7630005 .65260317C.7659912 .6796112 .7609863 .6796112 .73599246 .6796112H.23098755C.21099854 .6796112 .20098877 .6796112 .20098877 .65960696 .20098877 .64860537 .20999146 .64860537 .22898865 .64860537 .2659912 .64860537 .2939911 .64860537 .2939911 .6306305 .2939911 .6266327 .2939911 .6246338 .2889862 .6066437L.15699768 .07797241C.14698792 .038986207 .14498902 .0309906 .06599426 .0309906 .04899597 .0309906 .037994386 .0309906 .037994386 .011993408 .037994386 0 .04699707 0 .06599426 0H.58499148C.60798647 0 .60899356 .0009918213 .6159973 .016998291L.70799258 .23292542Z"/>
<path id="font_2_83" d="M.6239929 .4967041C.6239929 .59465029 .5249939 .6826172 .3880005 .6826172H.034988405V.6516113H.05899048C.13598633 .6516113 .13798523 .64060977 .13798523 .6046295V.07795715C.13798523 .041992189 .13598633 .0309906 .05899048 .0309906H.034988405V0C.069992069 .0029907227 .14399719 .0029907227 .18199158 .0029907227 .21998596 .0029907227 .29499818 .0029907227 .32998658 0V.0309906H.30599977C.22898865 .0309906 .22698975 .041992189 .22698975 .07795715V.3157959H.3959961C.5159912 .3157959 .6239929 .39675904 .6239929 .4967041M.5209961 .4967041C.5209961 .4497223 .5209961 .34179688 .3619995 .34179688H.22399903V.6116333C.22399903 .64460757 .22599793 .6516113 .272995 .6516113H.3619995C.5209961 .6516113 .5209961 .54566958 .5209961 .4967041Z"/>
<path id="font_2_95" d="M.7319946 .08753967C.7319946 .09353638 .7319946 .104537967 .71899417 .104537967 .70799258 .104537967 .70799258 .09555054 .70700076 .08854675 .70098879 .017532349 .66600039-.00047302247 .6409912-.00047302247 .59199526-.00047302247 .58399966 .05053711 .56999209 .14355469L.5569916 .22355652C.5389862 .28756715 .48999024 .3205719 .43499757 .3395691 .5319977 .36357118 .6100006 .4245758 .6100006 .502594 .6100006 .5986023 .49598695 .6826172 .34899903 .6826172H.034988405V.6516113H.05899048C.13598633 .6516113 .13798523 .64060977 .13798523 .604599V.077545169C.13798523 .04197693 .13598633 .0309906 .05899048 .0309906H.034988405V0C.070999149 .0029907227 .14199829 .0029907227 .18099976 .0029907227 .21998596 .0029907227 .29100038 .0029907227 .32699586 0V.0309906H.30299378C.22599793 .0309906 .22399903 .04197693 .22399903 .077926639V.3305359H.33898927C.35499574 .3305359 .39698792 .3305359 .43199159 .29658509 .46998597 .26063539 .46998597 .22969055 .46998597 .16279602 .46998597 .09788513 .46998597 .05795288 .5109863 .019989014 .5519867-.016464234 .6069946-.022460938 .6369934-.022460938 .71499636-.022460938 .7319946 .059524537 .7319946 .087524417V.08753967M.5069885 .5025635C.5069885 .43354798 .48298646 .35253907 .33499146 .35253907H.22399903V.6116028C.22399903 .6345978 .22399903 .64660647 .24598694 .6496124 .2559967 .6516113 .2849884 .6516113 .30499269 .6516113 .394989 .6516113 .5069885 .6476135 .5069885 .5025635Z"/>
<path id="font_2_49" d="M.6519928 .2579193H.6269989C.60198977 .10397339 .57899478 .0309906 .40699769 .0309906H.27398683C.22698975 .0309906 .22499085 .037994386 .22499085 .07098389V.33789063H.31498719C.4119873 .33789063 .4229889 .30589295 .4229889 .220932H.44799806V.48606874H.4229889C.4229889 .39994813 .4119873 .36888124 .31498719 .36888124H.22499085V.6087799C.22499085 .6416931 .22698975 .64868167 .27398683 .64868167H.40299989C.55599978 .64868167 .58299258 .59381106 .598999 .45507813H.6239929L.59599307 .6796875H.032989503V.64868167H.056991579C.13398743 .64868167 .13598633 .6377106 .13598633 .6017914V.07797241C.13598633 .041992189 .13398743 .0309906 .056991579 .0309906H.032989503V0H.6100006L.6519928 .2579193Z"/>
<path id="font_2_42" d="M.6649933 .23271179C.6649933 .24272156 .6649933 .24972534 .6519928 .24972534 .6409912 .24972534 .6409912 .24372864 .6399994 .23371887 .6319885 .09059143 .5249939 .008529663 .41600038 .008529663 .35499574 .008529663 .15899658 .042556764 .15899658 .34080506 .15899658 .64004519 .35398866 .67407229 .4149933 .67407229 .5239868 .67407229 .61299136 .58299258 .6329956 .4368744 .6349945 .42286683 .6349945 .41986085 .6489868 .41986085 .6649933 .41986085 .6649933 .42286683 .6649933 .44387818V.68107607C.6649933 .69807437 .6649933 .7050781 .6539917 .7050781 .6499939 .7050781 .6459961 .7050781 .6380005 .69306948L.58799746 .61901858C.5509949 .6550598 .5 .7050781 .4039917 .7050781 .21699524 .7050781 .055999757 .5459595 .055999757 .34179688 .055999757 .1346283 .21798706-.022460938 .4039917-.022460938 .5669861-.022460938 .6649933 .116622928 .6649933 .23271179Z"/>
<path id="font_2_71" d="M.58200076 .2578125H.5569916C.54599 .15588379 .5319977 .0309906 .35598756 .0309906H.27398683C.22698975 .03060913 .22499085 .037612916 .22499085 .07060242V.6036072C.22499085 .63760378 .22499085 .6516113 .31999208 .6516113H.35299684V.6826172C.31698609 .6796112 .22599793 .6796112 .18499756 .6796112 .1459961 .6796112 .067993167 .6796112 .032989503 .6826172V.6516113H.056991579C.13398743 .6518097 .13598633 .6408081 .13598633 .6048126V.07795715C.13598633 .04197693 .13398743 .0309906 .056991579 .0309906H.032989503V0H.55400088L.58200076 .2578125Z"/>
<path id="font_1_3" d="M.43798829 .0055236818C.59298709 .0644989 .73999026 .24256897 .73999026 .43579103 .73999026 .5969696 .6339874 .7050781 .4850006 .7050781 .2689972 .7050781 .04899597 .47784425 .04899597 .24456787 .04899597 .07847595 .16099549-.022460938 .30499269-.022460938 .32998658-.022460938 .3639984-.018463135 .40299989-.007461548 .39898683-.06939697 .39898683-.071380618 .39898683-.084365848 .39898683-.11634827 .39898683-.19433594 .48199464-.19433594 .6009979-.19433594 .6489868-.011474609 .6489868-.00047302247 .6489868 .0065307619 .6419983 .009521484 .6380005 .009521484 .6299896 .009521484 .6279907 .0045318605 .6259918-.0014648438 .60198977-.072387699 .5439911-.097335819 .5089874-.097335819 .46299745-.097335819 .44799806-.070388797 .43798829 .0055236818M.24899292 .013519287C.17098999 .044509889 .13699341 .12245178 .13699341 .21252442 .13699341 .2816162 .16299439 .4237671 .23899842 .5319061 .31199647 .63401797 .4059906 .68006899 .47898866 .68006899 .57899478 .68006899 .6519928 .6019745 .6519928 .4678192 .6519928 .3677063 .6009979 .13345337 .43299867 .039505006 .42799378 .07447815 .41799928 .14746094 .34498597 .14746094 .2919922 .14746094 .24299622 .097473148 .24299622 .04550171 .24299622 .025512696 .24899292 .014526367 .24899292 .013519287M.31098939 .002532959C.29699708 .002532959 .2649994 .002532959 .2649994 .04550171 .2649994 .08547974 .30299378 .12545777 .34498597 .12545777 .3869934 .12545777 .4059906 .10147095 .4059906 .040512086 .4059906 .025512696 .40499879 .024520874 .394989 .020523072 .36898805 .009521484 .33898927 .002532959 .31098939 .002532959Z"/>
</defs>
<path transform="matrix(1.00002,0,0,-1.00006,209.02489,43.50589)" stroke-width=".3985" stroke-linecap="butt" stroke-miterlimit="10" stroke-linejoin="miter" fill="none" stroke="#000000" d="M-30.64835-7.93695-30.64833-13.60622M-30.64833-13.60622-30.64835-19.2755 0-28.3468M0-28.3468 30.64835-37.41812 30.64833-47.05586M30.64833-47.05586 30.64835-56.69363M-30.64835-48.75667-30.64833-43.08739M-30.64833-43.08739-30.64835-37.41812 0-28.3468M0-28.3468 30.64835-19.2755 30.64833-9.63774M30.64833-9.63774 30.64835 0M-153.24179-7.93695-153.24178-28.3468M-153.24178-28.3468-153.24179-48.75667M-153.24179 7.93695H-167.41518M-167.41518 7.93695H-181.58858L-181.58856 2.22432M-181.58856 2.22432-181.58858-3.48831M-181.58858-53.20529-181.58856-58.91792M-181.58856-58.91792-181.58858-64.63058-167.41518-64.63057M-167.41518-64.63057-153.24179-64.63058M-181.58858 7.93695H-188.67528M-188.67528 7.93695H-195.76198M-153.24178-28.3468-146.15506-28.34679M-146.15506-28.34679-139.06838-28.3468M-91.94507 15.8739-91.94505 22.96059M-91.94505 22.96059-91.94507 30.0473M-91.94507-72.56754-91.94505-79.65422M-91.94505-79.65422-91.94507-86.74094M30.64835 0H37.73505M37.73505 0H44.82175M30.64835-56.69363 37.73505-56.69362M37.73505-56.69362 44.82175-56.69363"/>
<path transform="matrix(1.00002,0,0,-1.00006,209.02489,43.50589)" stroke-width=".3985" stroke-linecap="butt" stroke-miterlimit="10" stroke-linejoin="miter" fill="none" stroke="#000000" d="M-19.53711 7.93695H-30.64835M-19.53711-7.93695H-30.64835"/>
<path transform="matrix(1.00002,0,0,-1.00006,209.02489,43.50589)" stroke-width=".797" stroke-linecap="butt" stroke-miterlimit="10" stroke-linejoin="miter" fill="none" stroke="#000000" d="M-19.53711 15.8739H3.66321C12.43024 15.8739 19.53712 8.76701 19.53712 0 19.53712-8.76701 12.43024-15.8739 3.66321-15.8739H-19.53711Z"/>
<path transform="matrix(1.00002,0,0,-1.00006,209.02489,43.50589)" stroke-width=".3985" stroke-linecap="butt" stroke-miterlimit="10" stroke-linejoin="miter" fill="none" stroke="#000000" d="M24.42648 0H30.64835"/>
<path transform="matrix(1.00002,0,0,-1.00006,209.02489,43.50589)" d="M24.42648 0C24.42648 1.35017 23.33197 2.44469 21.9818 2.44469 20.63162 2.44469 19.53711 1.35017 19.53711 0 19.53711-1.35017 20.63162-2.44469 21.9818-2.44469 23.33197-2.44469 24.42648-1.35017 24.42648 0ZM21.9818 0" fill="#ffffff"/>
<path transform="matrix(1.00002,0,0,-1.00006,209.02489,43.50589)" stroke-width=".797" stroke-linecap="butt" stroke-miterlimit="10" stroke-linejoin="miter" fill="none" stroke="#000000" d="M24.42648 0C24.42648 1.35017 23.33197 2.44469 21.9818 2.44469 20.63162 2.44469 19.53711 1.35017 19.53711 0 19.53711-1.35017 20.63162-2.44469 21.9818-2.44469 23.33197-2.44469 24.42648-1.35017 24.42648 0ZM21.9818 0"/>
<path transform="matrix(1.00002,0,0,-1.00006,209.02489,43.50589)" d="" fill="#ffffff"/>
<path transform="matrix(1.00002,0,0,-1.00006,209.02489,43.50589)" stroke-width=".797" stroke-linecap="butt" stroke-miterlimit="10" stroke-linejoin="miter" fill="none" stroke="#000000" d=""/>
<path transform="matrix(1.00002,0,0,-1.00006,209.02489,43.50589)" stroke-width=".3985" stroke-linecap="butt" stroke-miterlimit="10" stroke-linejoin="miter" fill="none" stroke="#000000" d="M-19.53711-48.75667H-30.64835M-19.53711-64.63058H-30.64835"/>
<path transform="matrix(1.00002,0,0,-1.00006,209.02489,43.50589)" stroke-width=".797" stroke-linecap="butt" stroke-miterlimit="10" stroke-linejoin="miter" fill="none" stroke="#000000" d="M-19.53711-40.81972H3.66321C12.43024-40.81972 19.53712-47.9266 19.53712-56.69363 19.53712-65.46065 12.43024-72.56754 3.66321-72.56754H-19.53711Z"/>
<path transform="matrix(1.00002,0,0,-1.00006,209.02489,43.50589)" stroke-width=".3985" stroke-linecap="butt" stroke-miterlimit="10" stroke-linejoin="miter" fill="none" stroke="#000000" d="M24.42648-56.69363H30.64835"/>
<path transform="matrix(1.00002,0,0,-1.00006,209.02489,43.50589)" d="M24.42648-56.69363C24.42648-55.34344 23.33197-54.24893 21.9818-54.24893 20.63162-54.24893 19.53711-55.34344 19.53711-56.69363 19.53711-58.04381 20.63162-59.13832 21.9818-59.13832 23.33197-59.13832 24.42648-58.04381 24.42648-56.69363ZM21.9818-56.69363" fill="#ffffff"/>
<path transform="matrix(1.00002,0,0,-1.00006,209.02489,43.50589)" stroke-width=".797" stroke-linecap="butt" stroke-miterlimit="10" stroke-linejoin="miter" fill="none" stroke="#000000" d="M24.42648-56.69363C24.42648-55.34344 23.33197-54.24893 21.9818-54.24893 20.63162-54.24893 19.53711-55.34344 19.53711-56.69363 19.53711-58.04381 20.63162-59.13832 21.9818-59.13832 23.33197-59.13832 24.42648-58.04381 24.42648-56.69363ZM21.9818-56.69363"/>
<path transform="matrix(1.00002,0,0,-1.00006,209.02489,43.50589)" d="" fill="#ffffff"/>
<path transform="matrix(1.00002,0,0,-1.00006,209.02489,43.50589)" stroke-width=".797" stroke-linecap="butt" stroke-miterlimit="10" stroke-linejoin="miter" fill="none" stroke="#000000" d=""/>
<path transform="matrix(1.00002,0,0,-1.00006,209.02489,43.50589)" stroke-width=".3985" stroke-linecap="butt" stroke-miterlimit="10" stroke-linejoin="miter" fill="none" stroke="#000000" d="M-80.83382 15.8739H-91.94507M-80.83382 0H-91.94507"/>
<path transform="matrix(1.00002,0,0,-1.00006,209.02489,43.50589)" stroke-width=".797" stroke-linecap="butt" stroke-miterlimit="10" stroke-linejoin="miter" fill="none" stroke="#000000" d="M-80.83382 23.81085H-57.63348C-48.86647 23.81085-41.75958 16.70396-41.75958 7.93695-41.75958-.83006-48.86647-7.93695-57.63348-7.93695H-80.83382Z"/>
<path transform="matrix(1.00002,0,0,-1.00006,209.02489,43.50589)" stroke-width=".3985" stroke-linecap="butt" stroke-miterlimit="10" stroke-linejoin="miter" fill="none" stroke="#000000" d="M-41.7596 7.93695H-30.64835"/>
<path transform="matrix(1.00002,0,0,-1.00006,209.02489,43.50589)" stroke-width=".3985" stroke-linecap="butt" stroke-miterlimit="10" stroke-linejoin="miter" fill="none" stroke="#000000" d="M-80.83382-56.69363H-91.94507M-80.83382-72.56754H-91.94507"/>
<path transform="matrix(1.00002,0,0,-1.00006,209.02489,43.50589)" stroke-width=".797" stroke-linecap="butt" stroke-miterlimit="10" stroke-linejoin="miter" fill="none" stroke="#000000" d="M-80.83382-48.75667H-57.63348C-48.86647-48.75667-41.75958-55.86356-41.75958-64.63058-41.75958-73.39761-48.86647-80.50449-57.63348-80.50449H-80.83382Z"/>
<path transform="matrix(1.00002,0,0,-1.00006,209.02489,43.50589)" stroke-width=".3985" stroke-linecap="butt" stroke-miterlimit="10" stroke-linejoin="miter" fill="none" stroke="#000000" d="M-41.7596-64.63058H-30.64835"/>
<path transform="matrix(1.00002,0,0,-1.00006,209.02489,43.50589)" stroke-width=".3985" stroke-linecap="butt" stroke-miterlimit="10" stroke-linejoin="miter" fill="none" stroke="#000000" d="M-142.13054 7.93695H-153.24179M-142.13054-7.93695H-153.24179"/>
<path transform="matrix(1.00002,0,0,-1.00006,209.02489,43.50589)" stroke-width=".797" stroke-linecap="butt" stroke-miterlimit="10" stroke-linejoin="miter" fill="none" stroke="#000000" d="M-142.13054 15.8739H-118.9302C-110.16318 15.8739-103.0563 8.76701-103.0563 0-103.0563-8.76701-110.16318-15.8739-118.9302-15.8739H-142.13054Z"/>
<path transform="matrix(1.00002,0,0,-1.00006,209.02489,43.50589)" stroke-width=".3985" stroke-linecap="butt" stroke-miterlimit="10" stroke-linejoin="miter" fill="none" stroke="#000000" d="M-98.16693 0H-91.94507"/>
<path transform="matrix(1.00002,0,0,-1.00006,209.02489,43.50589)" d="M-98.16693 0C-98.16693 1.35017-99.26144 2.44469-100.61163 2.44469-101.9618 2.44469-103.05632 1.35017-103.05632 0-103.05632-1.35017-101.9618-2.44469-100.61163-2.44469-99.26144-2.44469-98.16693-1.35017-98.16693 0ZM-100.61163 0" fill="#ffffff"/>
<path transform="matrix(1.00002,0,0,-1.00006,209.02489,43.50589)" stroke-width=".797" stroke-linecap="butt" stroke-miterlimit="10" stroke-linejoin="miter" fill="none" stroke="#000000" d="M-98.16693 0C-98.16693 1.35017-99.26144 2.44469-100.61163 2.44469-101.9618 2.44469-103.05632 1.35017-103.05632 0-103.05632-1.35017-101.9618-2.44469-100.61163-2.44469-99.26144-2.44469-98.16693-1.35017-98.16693 0ZM-100.61163 0"/>
<path transform="matrix(1.00002,0,0,-1.00006,209.02489,43.50589)" d="" fill="#ffffff"/>
<path transform="matrix(1.00002,0,0,-1.00006,209.02489,43.50589)" stroke-width=".797" stroke-linecap="butt" stroke-miterlimit="10" stroke-linejoin="miter" fill="none" stroke="#000000" d=""/>
<path transform="matrix(1.00002,0,0,-1.00006,209.02489,43.50589)" stroke-width=".3985" stroke-linecap="butt" stroke-miterlimit="10" stroke-linejoin="miter" fill="none" stroke="#000000" d="M-142.13054-48.75667H-153.24179M-142.13054-64.63058H-153.24179"/>
<path transform="matrix(1.00002,0,0,-1.00006,209.02489,43.50589)" stroke-width=".797" stroke-linecap="butt" stroke-miterlimit="10" stroke-linejoin="miter" fill="none" stroke="#000000" d="M-142.13054-40.81972H-118.9302C-110.16318-40.81972-103.0563-47.9266-103.0563-56.69363-103.0563-65.46065-110.16318-72.56754-118.9302-72.56754H-142.13054Z"/>
<path transform="matrix(1.00002,0,0,-1.00006,209.02489,43.50589)" stroke-width=".3985" stroke-linecap="butt" stroke-miterlimit="10" stroke-linejoin="miter" fill="none" stroke="#000000" d="M-98.16693-56.69363H-91.94507"/>
<path transform="matrix(1.00002,0,0,-1.00006,209.02489,43.50589)" d="M-98.16693-56.69363C-98.16693-55.34344-99.26144-54.24893-100.61163-54.24893-101.9618-54.24893-103.05632-55.34344-103.05632-56.69363-103.05632-58.04381-101.9618-59.13832-100.61163-59.13832-99.26144-59.13832-98.16693-58.04381-98.16693-56.69363ZM-100.61163-56.69363" fill="#ffffff"/>
<path transform="matrix(1.00002,0,0,-1.00006,209.02489,43.50589)" stroke-width=".797" stroke-linecap="butt" stroke-miterlimit="10" stroke-linejoin="miter" fill="none" stroke="#000000" d="M-98.16693-56.69363C-98.16693-55.34344-99.26144-54.24893-100.61163-54.24893-101.9618-54.24893-103.05632-55.34344-103.05632-56.69363-103.05632-58.04381-101.9618-59.13832-100.61163-59.13832-99.26144-59.13832-98.16693-58.04381-98.16693-56.69363ZM-100.61163-56.69363"/>
<path transform="matrix(1.00002,0,0,-1.00006,209.02489,43.50589)" d="" fill="#ffffff"/>
<path transform="matrix(1.00002,0,0,-1.00006,209.02489,43.50589)" stroke-width=".797" stroke-linecap="butt" stroke-miterlimit="10" stroke-linejoin="miter" fill="none" stroke="#000000" d=""/>
<path transform="matrix(1.00002,0,0,-1.00006,209.02489,43.50589)" stroke-width=".3985" stroke-linecap="butt" stroke-miterlimit="10" stroke-linejoin="miter" fill="none" stroke="#000000" d="M-181.58858-14.59956V-3.48831"/>
<path transform="matrix(1.00002,0,0,-1.00006,209.02489,43.50589)" stroke-width=".797" stroke-linecap="butt" stroke-miterlimit="10" stroke-linejoin="miter" fill="none" stroke="#000000" d="M-165.71468-14.59956-181.58858-42.09404-197.4625-14.59956Z"/>
<path transform="matrix(1.00002,0,0,-1.00006,209.02489,43.50589)" stroke-width=".3985" stroke-linecap="butt" stroke-miterlimit="10" stroke-linejoin="miter" fill="none" stroke="#000000" d="M-181.58858-46.98343V-53.20529"/>
<path transform="matrix(1.00002,0,0,-1.00006,209.02489,43.50589)" d="M-181.58858-46.98343C-180.2384-46.98343-179.14389-45.88892-179.14389-44.53873-179.14389-43.18855-180.2384-42.09404-181.58858-42.09404-182.93877-42.09404-184.03328-43.18855-184.03328-44.53873-184.03328-45.88892-182.93877-46.98343-181.58858-46.98343ZM-181.58858-44.53873" fill="#ffffff"/>
<path transform="matrix(1.00002,0,0,-1.00006,209.02489,43.50589)" stroke-width=".797" stroke-linecap="butt" stroke-miterlimit="10" stroke-linejoin="miter" fill="none" stroke="#000000" d="M-181.58858-46.98343C-180.2384-46.98343-179.14389-45.88892-179.14389-44.53873-179.14389-43.18855-180.2384-42.09404-181.58858-42.09404-182.93877-42.09404-184.03328-43.18855-184.03328-44.53873-184.03328-45.88892-182.93877-46.98343-181.58858-46.98343ZM-181.58858-44.53873"/>
<path transform="matrix(1.00002,0,0,-1.00006,209.02489,43.50589)" d="" fill="#ffffff"/>
<path transform="matrix(1.00002,0,0,-1.00006,209.02489,43.50589)" stroke-width=".797" stroke-linecap="butt" stroke-miterlimit="10" stroke-linejoin="miter" fill="none" stroke="#000000" d=""/>
<path transform="matrix(1.00002,0,0,-1.00006,209.02489,43.50589)" d="M-180.00144 7.93695C-180.00144 8.8135-180.71202 9.5241-181.58858 9.5241-182.46515 9.5241-183.17574 8.8135-183.17574 7.93695-183.17574 7.06038-182.46515 6.3498-181.58858 6.3498-180.71202 6.3498-180.00144 7.06038-180.00144 7.93695ZM-181.58858 7.93695"/>
<path transform="matrix(1.00002,0,0,-1.00006,209.02489,43.50589)" stroke-width=".3985" stroke-linecap="butt" stroke-miterlimit="10" stroke-linejoin="miter" fill="none" stroke="#000000" d="M-180.00144 7.93695C-180.00144 8.8135-180.71202 9.5241-181.58858 9.5241-182.46515 9.5241-183.17574 8.8135-183.17574 7.93695-183.17574 7.06038-182.46515 6.3498-181.58858 6.3498-180.71202 6.3498-180.00144 7.06038-180.00144 7.93695ZM-181.58858 7.93695"/>
<use data-text="D" xlink:href="#font_1_1" transform="matrix(9.962799,0,0,-9.963197,1.2137146,38.97262)"/>
<path transform="matrix(1.00002,0,0,-1.00006,209.02489,43.50589)" d="M-151.65462-28.3468C-151.65462-27.47025-152.3652-26.75966-153.24178-26.75966-154.11833-26.75966-154.82892-27.47025-154.82892-28.3468-154.82892-29.22336-154.11833-29.93394-153.24178-29.93394-152.3652-29.93394-151.65462-29.22336-151.65462-28.3468ZM-153.24178-28.3468"/>
<path transform="matrix(1.00002,0,0,-1.00006,209.02489,43.50589)" stroke-width=".3985" stroke-linecap="butt" stroke-miterlimit="10" stroke-linejoin="miter" fill="none" stroke="#000000" d="M-151.65462-28.3468C-151.65462-27.47025-152.3652-26.75966-153.24178-26.75966-154.11833-26.75966-154.82892-27.47025-154.82892-28.3468-154.82892-29.22336-154.11833-29.93394-153.24178-29.93394-152.3652-29.93394-151.65462-29.22336-151.65462-28.3468ZM-153.24178-28.3468"/>
<use data-text="E" xlink:href="#font_1_2" transform="matrix(9.962799,0,0,-9.963197,73.473178,75.25879)"/>
<path transform="matrix(1.00002,0,0,-1.00006,-187.40006,-21.796025)" stroke-width=".3985" stroke-linecap="butt" stroke-miterlimit="10" stroke-linejoin="miter" fill="none" stroke="#000000" d="M294.021-23.313H314.923"/>
<use data-text="P" xlink:href="#font_2_83" transform="matrix(9.962799,0,0,-9.963197,106.62683,9.717865)"/>
<use data-text="R" xlink:href="#font_2_95" transform="matrix(9.962799,0,0,-9.963197,113.4115,9.717865)"/>
<use data-text="E" xlink:href="#font_2_49" transform="matrix(9.962799,0,0,-9.963197,120.74414,9.717865)"/>
<path transform="matrix(1.00002,0,0,-1.00006,-187.32505,111.27495)" stroke-width=".3985" stroke-linecap="butt" stroke-miterlimit="10" stroke-linejoin="miter" fill="none" stroke="#000000" d="M294.021-23.094H314.774"/>
<use data-text="C" xlink:href="#font_2_42" transform="matrix(9.962799,0,0,-9.963197,106.70184,142.78884)"/>
<use data-text="L" xlink:href="#font_2_71" transform="matrix(9.962799,0,0,-9.963197,113.89499,142.78884)"/>
<use data-text="R" xlink:href="#font_2_95" transform="matrix(9.962799,0,0,-9.963197,120.121738,142.78884)"/>
<path transform="matrix(1.00002,0,0,-1.00006,209.02489,43.50589)" d="M32.2355 0C32.2355 .87656 31.52492 1.58714 30.64835 1.58714 29.77179 1.58714 29.0612 .87656 29.0612 0 29.0612-.87656 29.77179-1.58714 30.64835-1.58714 31.52492-1.58714 32.2355-.87656 32.2355 0ZM30.64835 0"/>
<path transform="matrix(1.00002,0,0,-1.00006,209.02489,43.50589)" stroke-width=".3985" stroke-linecap="butt" stroke-miterlimit="10" stroke-linejoin="miter" fill="none" stroke="#000000" d="M32.2355 0C32.2355 .87656 31.52492 1.58714 30.64835 1.58714 29.77179 1.58714 29.0612 .87656 29.0612 0 29.0612-.87656 29.77179-1.58714 30.64835-1.58714 31.52492-1.58714 32.2355-.87656 32.2355 0ZM30.64835 0"/>
<use data-text="Q" xlink:href="#font_1_3" transform="matrix(9.962799,0,0,-9.963197,257.36787,45.941038)"/>
<path transform="matrix(1.00002,0,0,-1.00006,209.02489,43.50589)" d="M32.2355-56.69363C32.2355-55.81706 31.52492-55.10648 30.64835-55.10648 29.77179-55.10648 29.0612-55.81706 29.0612-56.69363 29.0612-57.57019 29.77179-58.28078 30.64835-58.28078 31.52492-58.28078 32.2355-57.57019 32.2355-56.69363ZM30.64835-56.69363"/>
<path transform="matrix(1.00002,0,0,-1.00006,209.02489,43.50589)" stroke-width=".3985" stroke-linecap="butt" stroke-miterlimit="10" stroke-linejoin="miter" fill="none" stroke="#000000" d="M32.2355-56.69363C32.2355-55.81706 31.52492-55.10648 30.64835-55.10648 29.77179-55.10648 29.0612-55.81706 29.0612-56.69363 29.0612-57.57019 29.77179-58.28078 30.64835-58.28078 31.52492-58.28078 32.2355-57.57019 32.2355-56.69363ZM30.64835-56.69363"/>
<path transform="matrix(1.00002,0,0,-1.00006,-36.65903,72.120609)" stroke-width=".3985" stroke-linecap="butt" stroke-miterlimit="10" stroke-linejoin="miter" fill="none" stroke="#000000" d="M294.021-23.31H301.897"/>
<use data-text="Q" xlink:href="#font_1_3" transform="matrix(9.962799,0,0,-9.963197,257.36787,103.63449)"/>
</svg>
