<svg xmlns="http://www.w3.org/2000/svg" xmlns:xlink="http://www.w3.org/1999/xlink" xmlns:inkscape="http://www.inkscape.org/namespaces/inkscape" version="1.1" width="206" height="91" viewBox="0 0 206 91">
<defs>
<path id="font_1_1" d="M.7519989 .22024536C.7669983 .22024536 .7969971 .22024536 .7969971 .25024415 .7969971 .28125 .7679901 .28125 .7519989 .28125H.14099121C.12599182 .28125 .09599304 .28125 .09599304 .25123597 .09599304 .22024536 .125 .22024536 .14099121 .22024536H.7519989Z"/>
<path id="font_2_1" d="M.47698976 .22024536H.7859955C.798996 .22024536 .82899478 .22024536 .82899478 .25024415 .82899478 .28125 .7999878 .28125 .7859955 .28125H.47698976V.5908356C.47698976 .6028137 .47698976 .6328125 .44699098 .6328125 .41600038 .6328125 .41600038 .6038208 .41600038 .5908356V.28125H.10699463C.09298706 .28125 .06399536 .28125 .06399536 .25024415 .06399536 .22024536 .09399414 .22024536 .10699463 .22024536H.41600038V-.08984375C.41600038-.10183716 .41600038-.13183594 .44599916-.13183594 .47698976-.13183594 .47698976-.10284424 .47698976-.08984375V.22024536Z"/>
<path id="font_3_2" d="M.375 .6136017C.3809967 .63760378 .38398744 .6476135 .40299989 .65060427 .4119873 .6516113 .44400025 .6516113 .46398927 .6516113 .5349884 .6516113 .6459961 .6516113 .6459961 .5525818 .6459961 .51856997 .6299896 .44955445 .59098818 .41055299 .5649872 .38453675 .5119934 .35253907 .42199708 .35253907H.30999757L.375 .6136017M.5189972 .33953858C.6199951 .3615265 .7389984 .43154908 .7389984 .5325775 .7389984 .61860659 .6489868 .6826172 .5179901 .6826172H.23298645C.21299744 .6826172 .20399475 .6826172 .20399475 .6626129 .20399475 .6516113 .21299744 .6516113 .23199463 .6516113 .23399353 .6516113 .25299073 .6516113 .269989 .6496124 .28799439 .6476135 .29699708 .64660647 .29699708 .63360598 .29699708 .62960818 .29599 .6266022 .29299928 .6145935L.15899658 .07752991C.14898682 .038528444 .14698792 .030532837 .067993167 .030532837 .049987794 .030532837 .040985109 .030532837 .040985109 .010528564 .040985109-.00047302247 .052993776-.00047302247 .054992677-.00047302247 .08299255-.00047302247 .15299988 .002532959 .18099976 .002532959 .20899964 .002532959 .27999879-.00047302247 .30799867-.00047302247 .31599427-.00047302247 .32798768-.00047302247 .32798768 .01953125 .32798768 .030532837 .31900025 .030532837 .2999878 .030532837 .2630005 .030532837 .23498535 .030532837 .23498535 .048538209 .23498535 .054534913 .23699951 .059524537 .23799134 .0655365L.3039856 .3305359H.4229889C.5139923 .3305359 .5319977 .27453614 .5319977 .23953247 .5319977 .22453308 .5239868 .19352722 .5179901 .17053223 .5109863 .14253235 .5019989 .105529788 .5019989 .08552551 .5019989-.022460938 .621994-.022460938 .6349945-.022460938 .7200012-.022460938 .7549896 .07853699 .7549896 .0925293 .7549896 .104537967 .74398806 .104537967 .7429962 .104537967 .73399356 .104537967 .7319946 .09753418 .7299957 .090530399 .7049866 .016525269 .6619873-.00047302247 .6389923-.00047302247 .60598757-.00047302247 .598999 .021530152 .598999 .060531618 .598999 .091537479 .6049957 .14253235 .60899356 .17453003 .61099246 .1885376 .61299136 .20753479 .61299136 .2215271 .61299136 .2985382 .54599 .3295288 .5189972 .33953858Z"/>
<path id="font_4_2" d="M.5049896 .18203736H.47099305C.46798707 .16001892 .45799256 .100997928 .44499208 .09098816 .43699647 .084991458 .3600006 .084991458 .34599305 .084991458H.1619873C.2669983 .17803955 .3019867 .20603943 .3619995 .25306703 .43598939 .312088 .5049896 .374115 .5049896 .46914674 .5049896 .5900879 .39898683 .6640625 .2709961 .6640625 .14698792 .6640625 .06298828 .57710269 .06298828 .4851532 .06298828 .43414308 .10598755 .42915345 .115997318 .42915345 .13999939 .42915345 .16899109 .44615174 .16899109 .48214723 .16899109 .5001526 .1619873 .53515627 .10998535 .53515627 .14099121 .6060791 .20899964 .62805178 .2559967 .62805178 .35598756 .62805178 .4079895 .5501404 .4079895 .46914674 .4079895 .38212586 .34599305 .3130951 .31399537 .27708436L.07299805 .038986207C.06298828 .02999878 .06298828 .027999878 .06298828 0H.47499085L.5049896 .18203736Z"/>
<path id="font_3_1" d="M.37399293 .6056366C.3829956 .6416168 .38598634 .6516113 .46499635 .6516113 .4889984 .6516113 .49699403 .6516113 .49699403 .6706085 .49699403 .6826172 .48599244 .6826172 .48199464 .6826172 .45298768 .6826172 .3789978 .6796112 .34999085 .6796112 .31999208 .6796112 .24699402 .6826172 .21699524 .6826172 .20999146 .6826172 .19699097 .6826172 .19699097 .6626129 .19699097 .6516113 .20599365 .6516113 .22499085 .6516113 .2669983 .6516113 .2939911 .6516113 .2939911 .63261416 .2939911 .6276245 .2939911 .6256256 .2919922 .6166229L.15699768 .07795715C.147995 .040985109 .14498902 .0309906 .06599426 .0309906 .042999269 .0309906 .033996583 .0309906 .033996583 .010986328 .033996583 0 .04598999 0 .04899597 0 .07798767 0 .15098572 .0029907227 .17999268 .0029907227 .20999146 .0029907227 .28399659 0 .31399537 0 .32199098 0 .33399964 0 .33399964 .018997193 .33399964 .0309906 .32598878 .0309906 .3039856 .0309906 .28599549 .0309906 .2809906 .0309906 .26098634 .032989503 .23999024 .034988405 .23599243 .038986207 .23599243 .049987794 .23599243 .05796814 .23799134 .065963748 .23999024 .07296753L.37399293 .6056366Z"/>
<path id="font_4_1" d="M.33499146 .63612368C.33499146 .6630554 .33299256 .6640625 .30499269 .6640625 .24099732 .6014404 .1499939 .6004486 .10899353 .6004486V.5644531C.1329956 .5644531 .19898987 .5644531 .2539978 .592453V.08203125C.2539978 .04899597 .2539978 .035995485 .1539917 .035995485H.115997318V0C.13398743 .0009918213 .25698854 .0039978029 .2939911 .0039978029 .32499696 .0039978029 .45098878 .0009918213 .47299195 0V.035995485H.43499757C.33499146 .035995485 .33499146 .04899597 .33499146 .08203125V.63612368Z"/>
<path id="font_3_3" d="M.6279907 .5686035C.6769867 .64660647 .71899417 .6496124 .7559967 .6516113 .7679901 .65260317 .7689972 .6696167 .7689972 .6706085 .7689972 .6786041 .7639923 .6826172 .7559967 .6826172 .7299957 .6826172 .70098879 .6796112 .673996 .6796112 .6409912 .6796112 .6069946 .6826172 .57499697 .6826172 .56900027 .6826172 .55599978 .6826172 .55599978 .66360476 .55599978 .65260317 .5649872 .6516113 .57199099 .6516113 .598999 .6496124 .6179962 .63960269 .6179962 .61860659 .6179962 .6036072 .6029968 .581604 .6029968 .5805969L.29599 .092544559 .22799683 .62161257C.22799683 .63861086 .25099183 .6516113 .29699708 .6516113 .31098939 .6516113 .32199098 .6516113 .32199098 .6716156 .32199098 .680603 .31399537 .6826172 .30799867 .6826172 .2679901 .6826172 .22499085 .6796112 .18399048 .6796112 .1659851 .6796112 .14698792 .680603 .1289978 .680603 .11099243 .680603 .09199524 .6826172 .07499695 .6826172 .067993167 .6826172 .055999757 .6826172 .055999757 .66360476 .055999757 .6516113 .06498718 .6516113 .08099365 .6516113 .13699341 .6516113 .13798523 .64260867 .14099121 .6175995L.21998596 .0005340576C.22299195-.019470215 .22698975-.022460938 .23999024-.022460938 .2559967-.022460938 .2599945-.017471314 .2679901-.004470825L.6279907 .5686035Z"/>
<path id="font_5_66" d="M.27398683 0V.035995485C.21598816 .035995485 .20599365 .035995485 .20599365 .07803345V.44140626L.05899048 .43052674V.39453126C.12199402 .39453126 .1309967 .3885193 .1309967 .33952333V.07952881C.1309967 .035995485 .12098694 .035995485 .055999757 .035995485V0C.055999757 0 .12799073 .0039978029 .16799927 .0039978029 .20298767 .0039978029 .23899842 .0029907227 .27398683 0M.21899414 .60214236C.21899414 .6341553 .19400025 .66015627 .1619873 .66015627 .12799073 .66015627 .10499573 .6321411 .10499573 .6031494 .10499573 .57115176 .12998963 .54515078 .1619873 .54515078 .19599915 .54515078 .21899414 .57315066 .21899414 .60214236Z"/>
<path id="font_5_77" d="M.58999636 0V.035995485C.5249939 .035995485 .5149994 .035995485 .5149994 .07904053V.3032837C.5149994 .3903656 .47200013 .44140626 .36499024 .44140626 .2829895 .44140626 .22999573 .39637757 .20199585 .34432984H.20098877V.44140626L.053985597 .43052674V.39453126C.12098694 .39453126 .1289978 .3875122 .1289978 .33843995V.079055789C.1289978 .035995485 .11898804 .035995485 .053985597 .035995485V0C.053985597 0 .12599182 .0039978029 .16799927 .0039978029 .20498657 .0039978029 .27398683 .0009918213 .2829895 0V.035995485C.21798706 .035995485 .20799256 .035995485 .20799256 .079055789V.25932313C.20799256 .36434938 .29100038 .4133911 .35699464 .4133911 .4269867 .4133911 .43598939 .3583374 .43598939 .3072815V.07904053C.43598939 .035995485 .42599488 .035995485 .36099244 .035995485V0C.36099244 0 .43299867 .0039978029 .47499085 .0039978029 .5119934 .0039978029 .58099368 .0009918213 .58999636 0Z"/>
<path id="font_5_81" d="M.5289917 .21325684C.5289917 .3382721 .42199708 .44628907 .28399659 .44628907 .1459961 .44628907 .038986207 .3382721 .038986207 .21325684 .038986207 .0892334 .14898682-.009765625 .28399659-.009765625 .4189911-.009765625 .5289917 .0892334 .5289917 .21325684M.43798829 .22225952C.43798829 .17424011 .43499757 .12124634 .4059906 .08023071 .3789978 .042236329 .33299256 .022232056 .28399659 .022232056 .24699402 .022232056 .19299317 .034225465 .1599884 .083236698 .1329956 .12423706 .12998963 .17625427 .12998963 .22225952 .12998963 .2652588 .1309967 .32426454 .1659851 .36727906 .19099427 .39627076 .23298645 .41827394 .28399659 .41827394 .34298707 .41827394 .3849945 .39027406 .40699769 .3592682 .43499757 .32026673 .43798829 .27026368 .43798829 .22225952Z"/>
<path id="font_5_109" d="M.58999636 0V.035995485C.522995 .035995485 .5149994 .042999269 .5149994 .092056278V.44140626L.36099244 .43052674V.39453126C.42799378 .39439393 .43598939 .3874359 .43598939 .33872987V.16749573C.43598939 .079330448 .3789978 .018234253 .30299378 .018234253 .21199036 .018234253 .20799256 .061309816 .20799256 .11239624V.44140626L.053985597 .43052674V.39453126C.1289978 .39453126 .1289978 .39154054 .1289978 .30273438V.15246582C.1289978 .083343509 .1289978-.009765625 .29599-.009765625 .31799317-.009765625 .3909912-.009765625 .43899537 .07432556H.43998719V-.009765625L.58999636 0Z"/>
<path id="font_5_105" d="M.375 .12606812V.1809845H.34098817V.12705994C.34098817 .059173585 .30899049 .022232056 .269989 .022232056 .20098877 .022232056 .20098877 .10609436 .20098877 .124069217V.39465333H.35699464V.43066407H.20098877V.6142578H.16699219C.1659851 .5244446 .125 .42565919 .0289917 .4226532V.39465333H.12199402V.1250763C.12199402 .01322937 .20599365-.009765625 .2619934-.009765625 .32899476-.010009766 .375 .04699707 .375 .12599182V.12606812Z"/>
</defs>
<path transform="matrix(1.00005,0,0,-1.00006,122.30437,59.586854)" stroke-width=".3985" stroke-linecap="butt" stroke-miterlimit="10" stroke-linejoin="miter" fill="none" stroke="#000000" d="M-33.7325-13.88982H-62.07932M-33.7325 13.88982-33.73248 28.0632M-33.73248 28.0632-33.7325 42.23662H-15.87419M15.87419 42.23662H33.7325L33.73248 21.1183M33.73248 21.1183 33.7325 0M-33.7325 13.88982-53.29181 13.8898M-85.04019 13.8898-104.59952 13.88982M33.7325 0H47.9059M47.9059 0H62.07932"/>
<path transform="matrix(1.00005,0,0,-1.00006,122.30437,59.586854)" stroke-width=".797" stroke-linecap="butt" stroke-miterlimit="10" stroke-linejoin="miter" fill="none" stroke="#000000" d="M23.61264 0-23.61263-27.77963V27.77963Z"/>
<path transform="matrix(1.00005,0,0,-1.00006,122.30437,59.586854)" stroke-width=".3985" stroke-linecap="square" stroke-miterlimit="10" stroke-linejoin="miter" fill="none" stroke="#000000" d="M-33.7325-13.88982H-23.61263M-33.7325 13.88982H-23.61263M33.7325 0H23.61263"/>
<use data-text="&#x2212;" xlink:href="#font_1_1" transform="matrix(9.963098,0,0,9.963197,102.00734,70.98654)"/>
<use data-text="+" xlink:href="#font_2_1" transform="matrix(9.963098,0,0,9.963197,102.00734,43.20487)"/>
<path transform="matrix(1.00005,0,0,-1.00006,122.30437,59.586854)" stroke-width=".3985" stroke-linecap="butt" stroke-miterlimit="10" stroke-linejoin="miter" fill="none" stroke="#000000" d="M-62.07932-13.88982V-25.7954"/>
<path transform="matrix(1.00005,0,0,-1.00006,122.30437,59.586854)" stroke-width=".797" stroke-linecap="butt" stroke-miterlimit="10" stroke-linejoin="miter" fill="none" stroke="#000000" d="M-68.03217-25.7954H-56.12645M-66.04779-27.77963H-58.11082M-64.55963-29.764H-59.59898"/>
<path transform="matrix(1.00005,0,0,-1.00006,122.30437,59.586854)" d="M-32.14536 13.88982C-32.14536 14.76637-32.85594 15.47696-33.7325 15.47696-34.60905 15.47696-35.31964 14.76637-35.31964 13.88982-35.31964 13.01324-34.60905 12.30266-33.7325 12.30266-32.85594 12.30266-32.14536 13.01324-32.14536 13.88982ZM-33.7325 13.88982"/>
<path transform="matrix(1.00005,0,0,-1.00006,122.30437,59.586854)" stroke-width=".3985" stroke-linecap="butt" stroke-miterlimit="10" stroke-linejoin="miter" fill="none" stroke="#000000" d="M-32.14536 13.88982C-32.14536 14.76637-32.85594 15.47696-33.7325 15.47696-34.60905 15.47696-35.31964 14.76637-35.31964 13.88982-35.31964 13.01324-34.60905 12.30266-33.7325 12.30266-32.85594 12.30266-32.14536 13.01324-32.14536 13.88982ZM-33.7325 13.88982"/>
<path transform="matrix(1.00005,0,0,-1.00006,122.30437,59.586854)" stroke-width=".797" stroke-linecap="butt" stroke-linejoin="bevel" fill="none" stroke="#000000" d="M-16.27269 42.23662-13.2285 48.18947-7.93712 36.28377-2.64574 48.18947 2.64565 36.28377 7.93703 48.18947 13.22841 36.28377 16.2726 42.23662"/>
<use data-text="R" xlink:href="#font_3_2" transform="matrix(9.963098,0,0,-9.963197,116.28706,7.5787355)"/>
<use data-text="2" xlink:href="#font_4_2" transform="matrix(6.9741489,0,0,-6.9742186,123.851428,9.072826)"/>
<path transform="matrix(1.00005,0,0,-1.00006,122.30437,59.586854)" d="M-26.53955 42.23662V40.25237L-22.323 42.23662-26.53955 44.22087Z"/>
<path transform="matrix(1.00005,0,0,-1.00006,122.30437,59.586854)" stroke-width=".3985" stroke-linecap="butt" stroke-miterlimit="10" stroke-linejoin="miter" fill="none" stroke="#000000" d="M-26.53955 42.23662V40.25237L-22.323 42.23662-26.53955 44.22087Z"/>
<use data-text="I" xlink:href="#font_3_1" transform="matrix(9.963098,0,0,-9.963197,94.919,13.82811)"/>
<path transform="matrix(1.00005,0,0,-1.00006,122.30437,59.586854)" d="M35.31964 0C35.31964 .87656 34.60905 1.58714 33.7325 1.58714 32.85594 1.58714 32.14536 .87656 32.14536 0 32.14536-.87656 32.85594-1.58714 33.7325-1.58714 34.60905-1.58714 35.31964-.87656 35.31964 0ZM33.7325 0"/>
<path transform="matrix(1.00005,0,0,-1.00006,122.30437,59.586854)" stroke-width=".3985" stroke-linecap="butt" stroke-miterlimit="10" stroke-linejoin="miter" fill="none" stroke="#000000" d="M35.31964 0C35.31964 .87656 34.60905 1.58714 33.7325 1.58714 32.85594 1.58714 32.14536 .87656 32.14536 0 32.14536-.87656 32.85594-1.58714 33.7325-1.58714 34.60905-1.58714 35.31964-.87656 35.31964 0ZM33.7325 0"/>
<path transform="matrix(1.00005,0,0,-1.00006,122.30437,59.586854)" stroke-width=".797" stroke-linecap="butt" stroke-linejoin="bevel" fill="none" stroke="#000000" d="M-52.8933 13.8898-55.9375 7.93695-61.22888 19.84265-66.52026 7.93695-71.81165 19.84265-77.10303 7.93695-82.39441 19.84265-85.43861 13.8898"/>
<path transform="matrix(1.00005,0,0,-1.00006,122.30437,59.586854)" d="M-103.01237 13.88982C-103.01237 14.76637-103.72296 15.47696-104.59952 15.47696-105.47607 15.47696-106.18666 14.76637-106.18666 13.88982-106.18666 13.01324-105.47607 12.30266-104.59952 12.30266-103.72296 12.30266-103.01237 13.01324-103.01237 13.88982ZM-104.59952 13.88982" fill="#ffffff"/>
<path transform="matrix(1.00005,0,0,-1.00006,122.30437,59.586854)" stroke-width=".3985" stroke-linecap="butt" stroke-miterlimit="10" stroke-linejoin="miter" fill="none" stroke="#000000" d="M-103.01237 13.88982C-103.01237 14.76637-103.72296 15.47696-104.59952 15.47696-105.47607 15.47696-106.18666 14.76637-106.18666 13.88982-106.18666 13.01324-105.47607 12.30266-104.59952 12.30266-103.72296 12.30266-103.01237 13.01324-103.01237 13.88982ZM-104.59952 13.88982"/>
<path transform="matrix(1.00005,0,0,-1.00006,122.30437,59.586854)" d="" fill="#ffffff"/>
<path transform="matrix(1.00005,0,0,-1.00006,122.30437,59.586854)" stroke-width=".3985" stroke-linecap="butt" stroke-miterlimit="10" stroke-linejoin="miter" fill="none" stroke="#000000" d=""/>
<use data-text="R" xlink:href="#font_3_2" transform="matrix(9.963098,0,0,-9.963197,47.117616,35.927434)"/>
<use data-text="1" xlink:href="#font_4_1" transform="matrix(6.9741489,0,0,-6.9742186,54.681978,37.421525)"/>
<path transform="matrix(1.00005,0,0,-1.00006,122.30437,59.586854)" d="M-45.24837 13.8898V11.90555L-41.03181 13.8898-45.24837 15.87405Z"/>
<path transform="matrix(1.00005,0,0,-1.00006,122.30437,59.586854)" stroke-width=".3985" stroke-linecap="butt" stroke-miterlimit="10" stroke-linejoin="miter" fill="none" stroke="#000000" d="M-45.24837 13.8898V11.90555L-41.03181 13.8898-45.24837 15.87405Z"/>
<use data-text="I" xlink:href="#font_3_1" transform="matrix(9.963098,0,0,-9.963197,76.20906,56.02464)"/>
<use data-text="V" xlink:href="#font_3_3" transform="matrix(9.963098,0,0,-9.963197,1.2163239,48.35318)"/>
<use data-text="i" xlink:href="#font_5_66" transform="matrix(6.9741489,0,0,-6.9742186,7.0276186,49.84727)"/>
<use data-text="n" xlink:href="#font_5_77" transform="matrix(6.9741489,0,0,-6.9742186,9.280258,49.84727)"/>
<path transform="matrix(1.00005,0,0,-1.00006,122.30437,59.586854)" d="M63.66646 0C63.66646 .87656 62.95587 1.58714 62.07932 1.58714 61.20274 1.58714 60.49216 .87656 60.49216 0 60.49216-.87656 61.20274-1.58714 62.07932-1.58714 62.95587-1.58714 63.66646-.87656 63.66646 0ZM62.07932 0" fill="#ffffff"/>
<path transform="matrix(1.00005,0,0,-1.00006,122.30437,59.586854)" stroke-width=".3985" stroke-linecap="butt" stroke-miterlimit="10" stroke-linejoin="miter" fill="none" stroke="#000000" d="M63.66646 0C63.66646 .87656 62.95587 1.58714 62.07932 1.58714 61.20274 1.58714 60.49216 .87656 60.49216 0 60.49216-.87656 61.20274-1.58714 62.07932-1.58714 62.95587-1.58714 63.66646-.87656 63.66646 0ZM62.07932 0"/>
<path transform="matrix(1.00005,0,0,-1.00006,122.30437,59.586854)" d="" fill="#ffffff"/>
<path transform="matrix(1.00005,0,0,-1.00006,122.30437,59.586854)" stroke-width=".3985" stroke-linecap="butt" stroke-miterlimit="10" stroke-linejoin="miter" fill="none" stroke="#000000" d=""/>
<use data-text="V" xlink:href="#font_3_3" transform="matrix(9.963098,0,0,-9.963197,187.90665,62.20901)"/>
<use data-text="o" xlink:href="#font_5_81" transform="matrix(6.9741489,0,0,-6.9742186,193.71793,63.703104)"/>
<use data-text="u" xlink:href="#font_5_109" transform="matrix(6.9741489,0,0,-6.9742186,197.68622,63.703104)"/>
<use data-text="t" xlink:href="#font_5_105" transform="matrix(6.9741489,0,0,-6.9742186,202.08692,63.703104)"/>
</svg>
