<svg xmlns="http://www.w3.org/2000/svg" xmlns:xlink="http://www.w3.org/1999/xlink" xmlns:inkscape="http://www.inkscape.org/namespaces/inkscape" version="1.1" width="253" height="132" viewBox="0 0 253 132">
<defs>
<path id="font_1_2" d="M.31399537 .33789063H.41600038C.4869995 .33789063 .5019989 .32588197 .5019989 .29289247 .5019989 .28489686 .49899293 .26391603 .49499513 .24790955 .49299623 .24191284 .49198915 .23692322 .49198915 .23391724 .49198915 .23292542 .49198915 .220932 .5049896 .220932 .5169983 .220932 .5179901 .22792053 .5219879 .24291992L.57499697 .45280458C.57899478 .46678163 .57899478 .46878053 .57899478 .47277833 .57899478 .48077394 .57299807 .48576356 .5649872 .48576356 .55400088 .48576356 .5529938 .47976686 .5479889 .46080018 .5279999 .38186646 .49699403 .36888124 .4169922 .36888124H.32199098C.33699037 .43081666 .38398744 .620636 .3889923 .6326294 .394989 .64660647 .4019928 .64860537 .43499757 .64860537H.58200076C.70700076 .64860537 .7350006 .6186371 .7350006 .5377197 .7350006 .5067444 .7299957 .47677613 .7299957 .4697876 .7299957 .461792 .7350006 .45480348 .74398806 .45480348 .7559967 .45480348 .7569885 .461792 .7589874 .47976686L.7799988 .66560366C.7799988 .6796112 .769989 .6796112 .7509918 .6796112H.23599243C.21699524 .6796112 .20599365 .6796112 .20599365 .66160586 .20599365 .64860537 .21598816 .64860537 .23699951 .64860537 .24099732 .64860537 .25898744 .64860537 .2749939 .64660647 .29699708 .6436157 .2979889 .6396179 .2979889 .6306305 .2979889 .6276245 .2979889 .6256256 .29299928 .60765078L.1599884 .07597351C.15098572 .039993287 .14898682 .0309906 .07398987 .0309906 .054992677 .0309906 .04399109 .0309906 .04399109 .0129852299 .04399109 0 .053985597 0 .07199097 0H.59999087C.6179962 0 .6199951 0 .6230011 .0029907227 .6259918 .004989624 .6269989 .005996704 .6329956 .018997193 .644989 .04598999 .7299957 .23591614 .7299957 .24491883 .7299957 .25291444 .723999 .2579193 .71598818 .2579193 .70799258 .2579193 .70700076 .25691224 .69599917 .23391724 .6339874 .09396362 .59298709 .0309906 .4269867 .0309906H.27398683C.2599945 .0309906 .2579956 .0309906 .2539978 .03199768 .24398804 .032989503 .24099732 .033996583 .24099732 .040985109 .24099732 .04399109 .24099732 .04598999 .24598694 .0639801L.31399537 .33789063Z"/>
<path id="font_1_3" d="M.4119873-.04144287C.4099884-.05241394 .4099884-.06639099 .4099884-.07836914 .4099884-.12634278 .41799928-.19433594 .49699403-.19433594 .6159973-.19433594 .6669922-.015472412 .6669922-.00047302247 .6669922 .0055389406 .6619873 .011520386 .6539917 .011520386 .6459961 .011520386 .6439972 .0045318605 .6409912-.0024719239 .6179962-.070388797 .55999758-.095336917 .522995-.095336917 .47698976-.095336917 .46199037-.06639099 .45199586 .0045318605 .66999819 .09844971 .7579956 .29560853 .7579956 .43276979 .7579956 .59095767 .6519928 .7050781 .49499513 .7050781 .2709961 .7050781 .049987794 .474823 .049987794 .24655152 .049987794 .082458499 .16299439-.022460938 .31399537-.022460938 .35499574-.022460938 .3959961-.013473511 .41299439-.008468628L.4119873-.04144287M.2539978 .01751709C.20799256 .035507204 .14099121 .08746338 .14099121 .21650696 .14099121 .26957704 .1579895 .43077088 .2659912 .55992129 .31799317 .6210022 .4019928 .677063 .48799134 .677063 .58699038 .677063 .6669922 .6039734 .6669922 .46380616 .6669922 .36369325 .6179962 .13743592 .44599916 .041503908 .43699647 .095458988 .41799928 .1484375 .35398866 .1484375 .2979889 .1484375 .24899292 .097457889 .24899292 .04649353 .24899292 .038497926 .25099183 .024520874 .2539978 .01751709M.4149933 .025512696C.40098573 .019515992 .3619995 .0055389406 .32099916 .0055389406 .30799867 .0055389406 .27398683 .0055389406 .27398683 .04649353 .27398683 .083465579 .31098939 .123428348 .35499574 .123428348 .4139862 .123428348 .4149933 .06947327 .4149933 .025512696Z"/>
<path id="font_1_1" d="M.16099549 .07595825C.1519928 .039993287 .1499939 .0309906 .07499695 .0309906 .055999757 .0309906 .04499817 .0309906 .04499817 .0129852299 .04499817 0 .054992677 0 .07299805 0H.4099884C.6239929 0 .82299807 .21188355 .82299807 .42774964 .82299807 .56466677 .7369995 .6826172 .58099368 .6826172H.23799134C.21998596 .6826172 .20799256 .6826172 .20799256 .6646118 .20799256 .6516113 .21699524 .6516113 .23799134 .6516113 .24198914 .6516113 .2599945 .6516113 .27598573 .6496124 .29299928 .6476135 .2999878 .6456146 .2999878 .63461306 .2999878 .6296234 .29899598 .6256256 .29599 .614624L.16099549 .07595825M.3809967 .6126251C.3899994 .64860537 .3919983 .6516113 .43399049 .6516113H.5469971C.651001 .6516113 .73399356 .5936432 .73399356 .46472169 .73399356 .40675355 .70899966 .24685669 .6309967 .1479187 .58499148 .09095764 .5019989 .0309906 .3919983 .0309906H.27198792C.2579956 .0309906 .2559967 .0309906 .2519989 .03199768 .24198914 .032989503 .23899842 .033996583 .23899842 .040985109 .23899842 .04399109 .23899842 .04598999 .24398804 .063964847L.3809967 .6126251Z"/>
<path id="font_2_71" d="M.58200076 .2578125H.5569916C.54599 .15588379 .5319977 .0309906 .35598756 .0309906H.27398683C.22698975 .03060913 .22499085 .037612916 .22499085 .07060242V.6036072C.22499085 .63760378 .22499085 .6516113 .31999208 .6516113H.35299684V.6826172C.31698609 .6796112 .22599793 .6796112 .18499756 .6796112 .1459961 .6796112 .067993167 .6796112 .032989503 .6826172V.6516113H.056991579C.13398743 .6518097 .13598633 .6408081 .13598633 .6048126V.07795715C.13598633 .04197693 .13398743 .0309906 .056991579 .0309906H.032989503V0H.55400088L.58200076 .2578125Z"/>
<path id="font_2_28" d="M.48298646 .08912659V.14511109H.45799256V.08912659C.45799256 .03112793 .43299867 .025131226 .42199708 .025131226 .3889923 .025131226 .3849945 .070129398 .3849945 .07511902V.27508546C.3849945 .31707765 .3849945 .3560791 .34899903 .39312745 .30999757 .43223573 .2599945 .4482422 .21199036 .4482422 .12998963 .4482422 .06098938 .40115357 .06098938 .335083 .06098938 .30508424 .08099365 .28808595 .10699463 .28808595 .1349945 .28808595 .15299988 .30807496 .15299988 .33407594 .15299988 .3460846 .147995 .37908937 .101989749 .38008119 .1289978 .41519166 .17799378 .426239 .20999146 .426239 .25898744 .426239 .31599427 .38710023 .31599427 .29808045V.26107789C.2649994 .25808717 .19499207 .25508119 .13198853 .22509766 .056991579 .19110108 .03199768 .13911438 .03199768 .09512329 .03199768 .014251709 .1289978-.0107421879 .19198609-.0107421879 .2579956-.0107421879 .3039856 .029251099 .32299806 .07624817 .32699586 .036132814 .35398866-.005859375 .40098573-.005859375 .42199708-.005859375 .48298646 .008132935 .48298646 .08912659M.31599427 .14013672C.31599427 .04525757 .24398804 .011245728 .19898987 .011245728 .1499939 .011245728 .10899353 .04624939 .10899353 .09625244 .10899353 .15124512 .15098572 .23425293 .31599427 .24024964V.14013672Z"/>
<path id="font_2_105" d="M.33198548 .12385559V.18066406H.30699159V.12585449C.30699159 .052108766 .2769928 .014251709 .23999024 .014251709 .17298889 .014251709 .17298889 .10491943 .17298889 .12187195V.3996582H.31599427V.43066407H.17298889V.6142578H.147995C.14698792 .5324249 .116989139 .42565919 .018997193 .42166139V.3996582H.10398865V.12408447C.10398865 .0012512207 .19699097-.0107421879 .23298645-.0107421879 .3039856-.0107421879 .33198548 .060180665 .33198548 .12408447V.12385559Z"/>
<path id="font_2_43" d="M.4149933 .119140628C.4149933 .12911988 .40499879 .12911988 .4019928 .12911988 .3929901 .12911988 .3909912 .12512207 .3889923 .119140628 .3600006 .026229859 .29499818 .014251709 .2579956 .014251709 .20498657 .014251709 .116989139 .0572052 .116989139 .21801758 .116989139 .38093568 .19898987 .42323304 .2519989 .42323304 .26098634 .42323304 .32398988 .42222596 .35899354 .38594056 .31799317 .38293458 .31199647 .3529358 .31199647 .3399353 .31199647 .31393434 .32998658 .2939453 .35798646 .2939453 .38398744 .2939453 .4039917 .3109436 .4039917 .34094239 .4039917 .40911866 .32798768 .4482422 .25099183 .4482422 .12599182 .4482422 .033996583 .3399353 .033996583 .21601868 .033996583 .08816528 .1329956-.0107421879 .24899292-.0107421879 .3829956-.0107421879 .4149933 .10914612 .4149933 .119140628Z"/>
<path id="font_2_63" d="M.5349884 0V.0309906C.48298646 .0309906 .45799256 .0309906 .45700074 .061019899V.25221253C.45700074 .3383026 .45700074 .36932374 .42599488 .405365 .4119873 .42237855 .3789978 .4423828 .32099916 .4423828 .23699951 .4423828 .19299317 .38233949 .1769867 .34629823H.17599488V.69433596L.03199768 .6826172V.6516113C.101989749 .6516113 .10998535 .64463809 .10998535 .59580996V.076034549C.10998535 .0309906 .09899902 .0309906 .03199768 .0309906V0L.14498902 .0029907227 .25698854 0V.0309906C.18998719 .0309906 .1789856 .0309906 .1789856 .076034549V.2602234C.1789856 .36431886 .25 .42037965 .31399537 .42037965 .3769989 .42037965 .3880005 .36631776 .3880005 .30926515V.076034549C.3880005 .0309906 .3769989 .0309906 .30999757 .0309906V0L.4229889 .0029907227 .5349884 0Z"/>
<path id="font_2_82" d="M.4189911 0V.0309906H.3869934C.29699708 .0309906 .2939911 .041992189 .2939911 .07902527V.64012148C.2939911 .6640167 .2939911 .6660156 .2709961 .6660156 .20899964 .60227969 .12098694 .60227969 .08898926 .60227969V.57128909C.10899353 .57128909 .16799927 .57128909 .21998596 .5972748V.07902527C.21998596 .042999269 .21699524 .0309906 .1269989 .0309906H.09498596V0C.12998963 .0029907227 .21699524 .0029907227 .25698854 .0029907227 .29699708 .0029907227 .38398744 .0029907227 .4189911 0Z"/>
<path id="font_3_83" d="M.48599244 .4252777C.48599244 .52030947 .41099549 .6113281 .2939911 .6113281H.067993167C.051986696 .6113281 .024993897 .6113281 .024993897 .57832339 .024993897 .5453186 .051986696 .5453186 .067993167 .5453186H.09498596V.06599426H.067993167C.051986696 .06599426 .024993897 .06599426 .024993897 .032989503 .024993897 0 .051986696 0 .067993167 0H.19799805C.21398926 0 .24099732 0 .24099732 .032989503 .24099732 .06599426 .21398926 .06599426 .19799805 .06599426H.17098999V.24023438H.2939911C.41299439 .24023438 .48599244 .3332367 .48599244 .4252777M.4099884 .42626954C.4099884 .3732605 .36799623 .30622865 .272995 .30622865H.17098999V.5453186H.272995C.36999513 .5453186 .4099884 .47529603 .4099884 .42626954Z"/>
<path id="font_3_95" d="M.5279999 .09719849C.5279999 .13119507 .49798585 .13119507 .48999024 .13119507 .48199464 .13119507 .45298768 .13119507 .45199586 .09919739 .45199586 .09222412 .44999696 .056228639 .43598939 .056228639 .41099549 .056228639 .41099549 .10223389 .41099549 .15022278 .41099549 .21322632 .41099549 .2202301 .40299989 .24223328 .3929901 .2662201 .3769989 .28822328 .35598756 .30422975 .40098573 .33117677 .43798829 .38220216 .43798829 .44224549 .43798829 .52830508 .3600006 .6113281 .24198914 .6113281H.06399536C.04899597 .6113281 .019989014 .6113281 .019989014 .57832339 .019989014 .5453186 .04899597 .5453186 .06399536 .5453186H.084991458V.06599426H.06399536C.04899597 .06619263 .019989014 .06619263 .019989014 .033203126 .019989014 0 .04899597 0 .06399536 0H.18199158C.19699097 .00019836426 .22599793 .00019836426 .22599793 .033203126 .22599793 .06599426 .19699097 .06599426 .18199158 .06599426H.16099549V.2734375H.23599243C.25698854 .2734375 .28199769 .2734375 .31199647 .24732971 .33499146 .22825623 .33499146 .20518494 .33499146 .16503906 .33499146 .09725952 .33499146 .06222534 .3619995 .02722168 .3849945-.003768921 .41799928-.009765625 .43699647-.009765625 .5009918-.009765625 .5279999 .052230836 .5279999 .09725952V.09719849M.3619995 .44236756C.3619995 .39639283 .31999208 .33943177 .22999573 .33943177H.16099549V.5453186H.22999573C.31999208 .5453186 .3619995 .48835755 .3619995 .44236756Z"/>
<path id="font_3_49" d="M.5079956 .04283142V.13183594C.5079956 .1508789 .5079956 .17492676 .46998597 .17492676 .43199159 .17492676 .43199159 .1508789 .43199159 .13183594V.065826419H.17098999V.28320313H.29699708C.29699708 .24710083 .29699708 .22706604 .33499146 .22706604 .37298585 .22706604 .37298585 .2511139 .37298585 .27015687V.36219789C.37298585 .38121034 .37298585 .40522767 .33499146 .40522767 .29699708 .40522767 .29699708 .3852234 .29699708 .3491974H.17098999V.5453186H.4099884V.4942627C.4099884 .475235 .4099884 .4512024 .44799806 .4512024 .48599244 .4512024 .48599244 .475235 .48599244 .4942627V.5683136C.48599244 .60232546 .47599793 .6113281 .44299317 .6113281H.067993167C.051986696 .6113281 .024993897 .6113281 .024993897 .57832339 .024993897 .5453186 .051986696 .5453186 .067993167 .5453186H.09498596V.065826419H.067993167C.051986696 .065826419 .024993897 .065826419 .024993897 .032821657 .024993897 0 .051986696 0 .067993167 0H.46499635C.49798585 0 .5079956 .0079956059 .5079956 .042999269V.04283142Z"/>
<path id="font_3_42" d="M.4889984 .16918946C.4889984 .20417786 .46099855 .20417786 .45098878 .20417786 .43699647 .20417786 .4149933 .20018006 .41299439 .17720032 .4059906 .06323242 .30499269 .056228639 .2889862 .056228639 .19699097 .056228639 .116989139 .16419983 .116989139 .30516053 .116989139 .45111085 .19999695 .5550842 .28799439 .5550842 .34599305 .5550842 .39898683 .50909426 .4119873 .4341278 .4149933 .41412355 .41799928 .39813233 .45098878 .39813233 .4889984 .39813233 .4889984 .42211915 .4889984 .44111634V.5780792C.4889984 .5930786 .4889984 .62109377 .45599366 .62109377 .43499757 .62109377 .43099977 .6130829 .41099549 .5770874 .36799623 .6090851 .32499696 .62109377 .28399659 .62109377 .1519928 .62109377 .040985109 .48410035 .040985109 .30615235 .040985109 .12721253 .15098572-.009765625 .2849884-.009765625 .39898683-.009765625 .4889984 .07522583 .4889984 .16918946Z"/>
<path id="font_3_71" d="M.49398805 .04283142V.13183594C.49398805 .15284729 .49398805 .17488098 .45599366 .17488098 .41799928 .17488098 .41799928 .15284729 .41799928 .13183594V.065826419H.18299866V.5453186H.23498535C.25 .5453186 .2789917 .5453186 .2789917 .57832339 .2789917 .6113281 .25 .6113281 .23498535 .6113281H.07398987C.05899048 .6113281 .02999878 .6113281 .02999878 .57832339 .02999878 .5453186 .05999756 .5453186 .07398987 .5453186H.10699463V.065826419H.07398987C.05899048 .065826419 .02999878 .065826419 .02999878 .032821657 .02999878 0 .05999756 0 .07398987 0H.45098878C.48399354 0 .49398805 .0079956059 .49398805 .042999269V.04283142Z"/>
<path id="font_2_107" d="M.44898988 .17396546H.42399598C.4189911 .14398194 .4119873 .099990848 .4019928 .084991458 .394989 .07699585 .32899476 .07699585 .30699159 .07699585H.1269989L.23298645 .17996216C.3889923 .31803895 .44898988 .37210084 .44898988 .47216798 .44898988 .5860901 .35899354 .6660156 .23699951 .6660156 .12399292 .6660156 .049987794 .57411196 .049987794 .48516847 .049987794 .4291687 .099990848 .4291687 .102996829 .4291687 .11999512 .4291687 .15499878 .44117738 .15499878 .48217774 .15499878 .5081787 .13699341 .5341797 .101989749 .5341797 .09399414 .5341797 .09199524 .5341797 .08898926 .5331726 .11199951 .59806826 .1659851 .63500979 .22399903 .63500979 .31498719 .63500979 .35798646 .5541382 .35798646 .47216798 .35798646 .39196778 .30799867 .31297303 .25299073 .25097657L.06098938 .036987306C.049987794 .025985718 .049987794 .023986817 .049987794 0H.42099L.44898988 .17396546Z"/>
<path id="font_4_2" d="M.15899658 .07795715C.14898682 .038986207 .14698792 .0309906 .067993167 .0309906 .050994874 .0309906 .039993287 .0309906 .039993287 .011993408 .039993287 0 .04899597 0 .067993167 0H.39898683C.6069946 0 .80400088 .21087647 .80400088 .42974855 .80400088 .5706482 .71899417 .6826172 .56900027 .6826172H.23298645C.21398926 .6826172 .20298767 .6826172 .20298767 .66360476 .20298767 .6516113 .21199036 .6516113 .23199463 .6516113 .24499512 .6516113 .2630005 .65060427 .2749939 .6496124 .29100038 .6476135 .29699708 .64460757 .29699708 .6336212 .29699708 .6296234 .29599 .62661746 .29299928 .614624L.15899658 .07795715M.375 .6136322C.38398744 .64860537 .38598634 .6516113 .42900086 .6516113H.5359955C.6339874 .6516113 .71699526 .5986328 .71699526 .46672059 .71699526 .41775514 .69699099 .25386048 .6119995 .1439209 .58299258 .10694885 .5039978 .0309906 .3809967 .0309906H.2679901C.2539978 .0309906 .2519989 .0309906 .24598694 .03199768 .23599243 .032989503 .23298645 .033996583 .23298645 .041992189 .23298645 .04498291 .23298645 .04698181 .23799134 .064971927L.375 .6136322Z"/>
<path id="font_4_1" d="M.7599945 .69506838C.7599945 .69807437 .7579956 .7050781 .7489929 .7050781 .74598696 .7050781 .7449951 .70407107 .73399356 .69306948L.6639862 .61602786C.6549988 .6300354 .60899356 .7050781 .49798585 .7050781 .2749939 .7050781 .049987794 .48391725 .049987794 .25172425 .049987794 .08659363 .16799927-.022460938 .32099916-.022460938 .4079895-.022460938 .48399354 .017532349 .5369873 .063583377 .6299896 .14564514 .6469879 .2367096 .6469879 .23971558 .6469879 .24972534 .6369934 .24972534 .6349945 .24972534 .6289978 .24972534 .6239929 .24772644 .621994 .23971558 .61299136 .21069336 .58999636 .13963318 .5209961 .081588748 .45199586 .025543213 .3889923 .008529663 .33699037 .008529663 .24699402 .008529663 .14099121 .060577394 .14099121 .21670532 .14099121 .27374269 .1619873 .43588258 .2619934 .55296328 .32299806 .62402346 .4169922 .67407229 .5059967 .67407229 .60798647 .67407229 .6669922 .5970001 .6669922 .48091126 .6669922 .44088746 .6639862 .43988038 .6639862 .4298706 .6639862 .41986085 .6749878 .41986085 .67900088 .41986085 .69200137 .41986085 .69200137 .42185975 .69699099 .43988038L.7599945 .69506838Z"/>
<path id="font_2_83" d="M.6239929 .4967041C.6239929 .59465029 .5249939 .6826172 .3880005 .6826172H.034988405V.6516113H.05899048C.13598633 .6516113 .13798523 .64060977 .13798523 .6046295V.07795715C.13798523 .041992189 .13598633 .0309906 .05899048 .0309906H.034988405V0C.069992069 .0029907227 .14399719 .0029907227 .18199158 .0029907227 .21998596 .0029907227 .29499818 .0029907227 .32998658 0V.0309906H.30599977C.22898865 .0309906 .22698975 .041992189 .22698975 .07795715V.3157959H.3959961C.5159912 .3157959 .6239929 .39675904 .6239929 .4967041M.5209961 .4967041C.5209961 .4497223 .5209961 .34179688 .3619995 .34179688H.22399903V.6116333C.22399903 .64460757 .22599793 .6516113 .272995 .6516113H.3619995C.5209961 .6516113 .5209961 .54566958 .5209961 .4967041Z"/>
<path id="font_2_95" d="M.7319946 .08753967C.7319946 .09353638 .7319946 .104537967 .71899417 .104537967 .70799258 .104537967 .70799258 .09555054 .70700076 .08854675 .70098879 .017532349 .66600039-.00047302247 .6409912-.00047302247 .59199526-.00047302247 .58399966 .05053711 .56999209 .14355469L.5569916 .22355652C.5389862 .28756715 .48999024 .3205719 .43499757 .3395691 .5319977 .36357118 .6100006 .4245758 .6100006 .502594 .6100006 .5986023 .49598695 .6826172 .34899903 .6826172H.034988405V.6516113H.05899048C.13598633 .6516113 .13798523 .64060977 .13798523 .604599V.077545169C.13798523 .04197693 .13598633 .0309906 .05899048 .0309906H.034988405V0C.070999149 .0029907227 .14199829 .0029907227 .18099976 .0029907227 .21998596 .0029907227 .29100038 .0029907227 .32699586 0V.0309906H.30299378C.22599793 .0309906 .22399903 .04197693 .22399903 .077926639V.3305359H.33898927C.35499574 .3305359 .39698792 .3305359 .43199159 .29658509 .46998597 .26063539 .46998597 .22969055 .46998597 .16279602 .46998597 .09788513 .46998597 .05795288 .5109863 .019989014 .5519867-.016464234 .6069946-.022460938 .6369934-.022460938 .71499636-.022460938 .7319946 .059524537 .7319946 .087524417V.08753967M.5069885 .5025635C.5069885 .43354798 .48298646 .35253907 .33499146 .35253907H.22399903V.6116028C.22399903 .6345978 .22399903 .64660647 .24598694 .6496124 .2559967 .6516113 .2849884 .6516113 .30499269 .6516113 .394989 .6516113 .5069885 .6476135 .5069885 .5025635Z"/>
<path id="font_2_49" d="M.6519928 .2579193H.6269989C.60198977 .10397339 .57899478 .0309906 .40699769 .0309906H.27398683C.22698975 .0309906 .22499085 .037994386 .22499085 .07098389V.33789063H.31498719C.4119873 .33789063 .4229889 .30589295 .4229889 .220932H.44799806V.48606874H.4229889C.4229889 .39994813 .4119873 .36888124 .31498719 .36888124H.22499085V.6087799C.22499085 .6416931 .22698975 .64868167 .27398683 .64868167H.40299989C.55599978 .64868167 .58299258 .59381106 .598999 .45507813H.6239929L.59599307 .6796875H.032989503V.64868167H.056991579C.13398743 .64868167 .13598633 .6377106 .13598633 .6017914V.07797241C.13598633 .041992189 .13398743 .0309906 .056991579 .0309906H.032989503V0H.6100006L.6519928 .2579193Z"/>
<path id="font_2_42" d="M.6649933 .23271179C.6649933 .24272156 .6649933 .24972534 .6519928 .24972534 .6409912 .24972534 .6409912 .24372864 .6399994 .23371887 .6319885 .09059143 .5249939 .008529663 .41600038 .008529663 .35499574 .008529663 .15899658 .042556764 .15899658 .34080506 .15899658 .64004519 .35398866 .67407229 .4149933 .67407229 .5239868 .67407229 .61299136 .58299258 .6329956 .4368744 .6349945 .42286683 .6349945 .41986085 .6489868 .41986085 .6649933 .41986085 .6649933 .42286683 .6649933 .44387818V.68107607C.6649933 .69807437 .6649933 .7050781 .6539917 .7050781 .6499939 .7050781 .6459961 .7050781 .6380005 .69306948L.58799746 .61901858C.5509949 .6550598 .5 .7050781 .4039917 .7050781 .21699524 .7050781 .055999757 .5459595 .055999757 .34179688 .055999757 .1346283 .21798706-.022460938 .4039917-.022460938 .5669861-.022460938 .6649933 .116622928 .6649933 .23271179Z"/>
<path id="font_4_3" d="M.43798829 .0055236818C.59298709 .0644989 .73999026 .24256897 .73999026 .43579103 .73999026 .5969696 .6339874 .7050781 .4850006 .7050781 .2689972 .7050781 .04899597 .47784425 .04899597 .24456787 .04899597 .07847595 .16099549-.022460938 .30499269-.022460938 .32998658-.022460938 .3639984-.018463135 .40299989-.007461548 .39898683-.06939697 .39898683-.071380618 .39898683-.084365848 .39898683-.11634827 .39898683-.19433594 .48199464-.19433594 .6009979-.19433594 .6489868-.011474609 .6489868-.00047302247 .6489868 .0065307619 .6419983 .009521484 .6380005 .009521484 .6299896 .009521484 .6279907 .0045318605 .6259918-.0014648438 .60198977-.072387699 .5439911-.097335819 .5089874-.097335819 .46299745-.097335819 .44799806-.070388797 .43798829 .0055236818M.24899292 .013519287C.17098999 .044509889 .13699341 .12245178 .13699341 .21252442 .13699341 .2816162 .16299439 .4237671 .23899842 .5319061 .31199647 .63401797 .4059906 .68006899 .47898866 .68006899 .57899478 .68006899 .6519928 .6019745 .6519928 .4678192 .6519928 .3677063 .6009979 .13345337 .43299867 .039505006 .42799378 .07447815 .41799928 .14746094 .34498597 .14746094 .2919922 .14746094 .24299622 .097473148 .24299622 .04550171 .24299622 .025512696 .24899292 .014526367 .24899292 .013519287M.31098939 .002532959C.29699708 .002532959 .2649994 .002532959 .2649994 .04550171 .2649994 .08547974 .30299378 .12545777 .34498597 .12545777 .3869934 .12545777 .4059906 .10147095 .4059906 .040512086 .4059906 .025512696 .40499879 .024520874 .394989 .020523072 .36898805 .009521484 .33898927 .002532959 .31098939 .002532959Z"/>
</defs>
<path transform="matrix(1.00009,0,0,-1.00002,108.996448,57.110906)" stroke-width=".3985" stroke-linecap="butt" stroke-miterlimit="10" stroke-linejoin="miter" fill="none" stroke="#000000" d="M31.74811 23.81143 42.52022 23.81145M42.52022 23.81145 53.29234 23.81146M-46.00854-56.69363-35.4335-56.69362M-35.4335-56.69362-24.85847-56.69363M-31.74811-23.81143V-40.25252M-31.74811-40.25252V-56.69363M24.85847-56.69363 39.0754-56.69362M39.0754-56.69362 53.29234-56.69363 53.29233-40.25252M53.29233-40.25252 53.29234-23.81143M-31.74811 23.81146H-63.73682M-63.73682 23.81146H-95.72552M116.78857 23.81143H123.87526M123.87526 23.81143H130.96196M116.78857-23.81146H123.87526M123.87526-23.81146H130.96196"/>
<path transform="matrix(1.00009,0,0,-1.00002,108.996448,57.110906)" stroke-width=".797" stroke-linecap="butt" stroke-miterlimit="10" stroke-linejoin="miter" fill="none" stroke="#000000" d="M-23.81116-35.71718H23.811152V35.71718H-23.81116Z"/>
<path transform="matrix(1.00009,0,0,-1.00002,108.996448,57.110906)" stroke-width=".797" stroke-linecap="butt" stroke-miterlimit="10" stroke-linejoin="miter" fill="none" stroke="#000000" d=""/>
<use data-text="E" xlink:href="#font_1_2" transform="matrix(8.967207,0,0,-8.966579,88.25958,83.612438)"/>
<path transform="matrix(1.00009,0,0,-1.00002,-74.61407,38.49953)" stroke-width=".3786" stroke-linecap="butt" stroke-miterlimit="10" stroke-linejoin="miter" fill="none" stroke="#000000" d="M197.062-37.66H204.33"/>
<use data-text="Q" xlink:href="#font_1_3" transform="matrix(8.967207,0,0,-8.966579,122.46566,83.612438)"/>
<use data-text="D" xlink:href="#font_1_1" transform="matrix(8.967207,0,0,-8.966579,88.25958,35.98948)"/>
<use data-text="Q" xlink:href="#font_1_3" transform="matrix(8.967207,0,0,-8.966579,122.46566,35.98948)"/>
<path transform="matrix(1.00009,0,0,-1.00002,108.996448,57.110906)" stroke-width=".3985" stroke-linecap="butt" stroke-miterlimit="10" stroke-linejoin="miter" fill="none" stroke="#000000" d="M-23.81116-23.81143H-31.74811"/>
<path transform="matrix(1.00009,0,0,-1.00002,108.996448,57.110906)" stroke-width=".3985" stroke-linecap="butt" stroke-miterlimit="10" stroke-linejoin="miter" fill="none" stroke="#000000" d="M23.81116-23.81143H31.74811"/>
<path transform="matrix(1.00009,0,0,-1.00002,108.996448,57.110906)" stroke-width=".3985" stroke-linecap="butt" stroke-miterlimit="10" stroke-linejoin="miter" fill="none" stroke="#000000" d="M-23.81116 23.81146H-31.74811"/>
<path transform="matrix(1.00009,0,0,-1.00002,108.996448,57.110906)" stroke-width=".3985" stroke-linecap="butt" stroke-miterlimit="10" stroke-linejoin="miter" fill="none" stroke="#000000" d="M23.81116 23.81146H31.74811"/>
<use data-text="L" xlink:href="#font_2_71" transform="matrix(9.963496,0,0,-9.962799,96.61133,54.590856)"/>
<use data-text="a" xlink:href="#font_2_28" transform="matrix(9.963496,0,0,-9.962799,102.83852,54.590856)"/>
<use data-text="t" xlink:href="#font_2_105" transform="matrix(9.963496,0,0,-9.962799,107.82025,54.590856)"/>
<use data-text="c" xlink:href="#font_2_43" transform="matrix(9.963496,0,0,-9.962799,111.69606,54.590856)"/>
<use data-text="h" xlink:href="#font_2_63" transform="matrix(9.963496,0,0,-9.962799,115.850849,54.590856)"/>
<use data-text="1" xlink:href="#font_2_82" transform="matrix(9.963496,0,0,-9.962799,106.50523,66.5461)"/>
<path transform="matrix(1.00009,0,0,-1.00002,108.996448,57.110906)" stroke-width=".797" stroke-linecap="butt" stroke-miterlimit="10" stroke-linejoin="miter" fill="none" stroke="#000000" d="M61.2293-35.71718H108.85161V35.71718H61.2293Z"/>
<path transform="matrix(1.00009,0,0,-1.00002,108.996448,57.110906)" stroke-width=".797" stroke-linecap="butt" stroke-miterlimit="10" stroke-linejoin="miter" fill="none" stroke="#000000" d=""/>
<use data-text="E" xlink:href="#font_1_2" transform="matrix(8.967207,0,0,-8.966579,173.30724,83.612438)"/>
<path transform="matrix(1.00009,0,0,-1.00002,10.433586,38.49953)" stroke-width=".3786" stroke-linecap="butt" stroke-miterlimit="10" stroke-linejoin="miter" fill="none" stroke="#000000" d="M197.062-37.66H204.33"/>
<use data-text="Q" xlink:href="#font_1_3" transform="matrix(8.967207,0,0,-8.966579,207.5133,83.612438)"/>
<use data-text="D" xlink:href="#font_1_1" transform="matrix(8.967207,0,0,-8.966579,173.30724,35.98948)"/>
<use data-text="Q" xlink:href="#font_1_3" transform="matrix(8.967207,0,0,-8.966579,207.5133,35.98948)"/>
<path transform="matrix(1.00009,0,0,-1.00002,-6.277916,-18.738615)" stroke-width=".2419" stroke-linecap="butt" stroke-miterlimit="10" stroke-linejoin="miter" fill="none" stroke="#000000" d="M196.337-41.222H204.273"/>
<use data-text="P" xlink:href="#font_3_83" transform="matrix(4.981748,0,0,-4.9813997,190.07675,26.374289)"/>
<use data-text="R" xlink:href="#font_3_95" transform="matrix(4.981748,0,0,-4.9813997,192.72208,26.374289)"/>
<use data-text="E" xlink:href="#font_3_49" transform="matrix(4.981748,0,0,-4.9813997,195.36737,26.374289)"/>
<path transform="matrix(1.00009,0,0,-1.00002,-6.277916,45.723676)" stroke-width=".2419" stroke-linecap="butt" stroke-miterlimit="10" stroke-linejoin="miter" fill="none" stroke="#000000" d="M196.337-41.172H204.273"/>
<use data-text="C" xlink:href="#font_3_42" transform="matrix(4.981748,0,0,-4.9813997,190.07675,90.83658)"/>
<use data-text="L" xlink:href="#font_3_71" transform="matrix(4.981748,0,0,-4.9813997,192.72208,90.83658)"/>
<use data-text="R" xlink:href="#font_3_95" transform="matrix(4.981748,0,0,-4.9813997,195.36737,90.83658)"/>
<path transform="matrix(1.00009,0,0,-1.00002,108.996448,57.110906)" stroke-width=".3985" stroke-linecap="butt" stroke-miterlimit="10" stroke-linejoin="miter" fill="none" stroke="#000000" d="M61.2293-23.81143H53.29234"/>
<path transform="matrix(1.00009,0,0,-1.00002,108.996448,57.110906)" stroke-width=".3985" stroke-linecap="butt" stroke-miterlimit="10" stroke-linejoin="miter" fill="none" stroke="#000000" d="M108.85161-23.81143H116.78857"/>
<path transform="matrix(1.00009,0,0,-1.00002,108.996448,57.110906)" stroke-width=".3985" stroke-linecap="butt" stroke-miterlimit="10" stroke-linejoin="miter" fill="none" stroke="#000000" d="M61.2293 23.81146H53.29234"/>
<path transform="matrix(1.00009,0,0,-1.00002,108.996448,57.110906)" stroke-width=".3985" stroke-linecap="butt" stroke-miterlimit="10" stroke-linejoin="miter" fill="none" stroke="#000000" d="M108.85161 23.81146H116.78857"/>
<path transform="matrix(1.00009,0,0,-1.00002,108.996448,57.110906)" stroke-width=".3985" stroke-linecap="butt" stroke-miterlimit="10" stroke-linejoin="miter" fill="none" stroke="#000000" d="M85.04045 35.71718V43.65413"/>
<path transform="matrix(1.00009,0,0,-1.00002,108.996448,57.110906)" stroke-width=".3985" stroke-linecap="butt" stroke-miterlimit="10" stroke-linejoin="miter" fill="none" stroke="#000000" d="M85.04045-35.71718V-43.65413"/>
<use data-text="L" xlink:href="#font_2_71" transform="matrix(9.963496,0,0,-9.962799,181.65998,54.590856)"/>
<use data-text="a" xlink:href="#font_2_28" transform="matrix(9.963496,0,0,-9.962799,187.88718,54.590856)"/>
<use data-text="t" xlink:href="#font_2_105" transform="matrix(9.963496,0,0,-9.962799,192.8689,54.590856)"/>
<use data-text="c" xlink:href="#font_2_43" transform="matrix(9.963496,0,0,-9.962799,196.74472,54.590856)"/>
<use data-text="h" xlink:href="#font_2_63" transform="matrix(9.963496,0,0,-9.962799,200.8995,54.590856)"/>
<use data-text="2" xlink:href="#font_2_107" transform="matrix(9.963496,0,0,-9.962799,191.5539,66.5461)"/>
<path transform="matrix(1.00009,0,0,-1.00002,108.996448,57.110906)" stroke-width=".3985" stroke-linecap="butt" stroke-miterlimit="10" stroke-linejoin="miter" fill="none" stroke="#000000" d="M-84.61427-56.69363H-95.72552"/>
<path transform="matrix(1.00009,0,0,-1.00002,108.996448,57.110906)" stroke-width=".797" stroke-linecap="butt" stroke-miterlimit="10" stroke-linejoin="miter" fill="none" stroke="#000000" d="M-84.61427-40.81972-57.1198-56.69363-84.61427-72.56754Z"/>
<path transform="matrix(1.00009,0,0,-1.00002,108.996448,57.110906)" stroke-width=".3985" stroke-linecap="butt" stroke-miterlimit="10" stroke-linejoin="miter" fill="none" stroke="#000000" d="M-52.23042-56.69363H-46.00854"/>
<path transform="matrix(1.00009,0,0,-1.00002,108.996448,57.110906)" d="M-52.23042-56.69363C-52.23042-55.34344-53.32494-54.24893-54.67511-54.24893-56.02528-54.24893-57.1198-55.34344-57.1198-56.69363-57.1198-58.04381-56.02528-59.13832-54.67511-59.13832-53.32494-59.13832-52.23042-58.04381-52.23042-56.69363ZM-54.67511-56.69363" fill="#ffffff"/>
<path transform="matrix(1.00009,0,0,-1.00002,108.996448,57.110906)" stroke-width=".797" stroke-linecap="butt" stroke-miterlimit="10" stroke-linejoin="miter" fill="none" stroke="#000000" d="M-52.23042-56.69363C-52.23042-55.34344-53.32494-54.24893-54.67511-54.24893-56.02528-54.24893-57.1198-55.34344-57.1198-56.69363-57.1198-58.04381-56.02528-59.13832-54.67511-59.13832-53.32494-59.13832-52.23042-58.04381-52.23042-56.69363ZM-54.67511-56.69363"/>
<path transform="matrix(1.00009,0,0,-1.00002,108.996448,57.110906)" d="" fill="#ffffff"/>
<path transform="matrix(1.00009,0,0,-1.00002,108.996448,57.110906)" stroke-width=".797" stroke-linecap="butt" stroke-miterlimit="10" stroke-linejoin="miter" fill="none" stroke="#000000" d=""/>
<path transform="matrix(1.00009,0,0,-1.00002,108.996448,57.110906)" stroke-width=".3985" stroke-linecap="butt" stroke-miterlimit="10" stroke-linejoin="miter" fill="none" stroke="#000000" d="M-13.74724-56.69363H-24.85847"/>
<path transform="matrix(1.00009,0,0,-1.00002,108.996448,57.110906)" stroke-width=".797" stroke-linecap="butt" stroke-miterlimit="10" stroke-linejoin="miter" fill="none" stroke="#000000" d="M-13.74724-40.81972 13.74724-56.69363-13.74724-72.56754Z"/>
<path transform="matrix(1.00009,0,0,-1.00002,108.996448,57.110906)" stroke-width=".3985" stroke-linecap="butt" stroke-miterlimit="10" stroke-linejoin="miter" fill="none" stroke="#000000" d="M18.63661-56.69363H24.85847"/>
<path transform="matrix(1.00009,0,0,-1.00002,108.996448,57.110906)" d="M18.63661-56.69363C18.63661-55.34344 17.5421-54.24893 16.19193-54.24893 14.84175-54.24893 13.74724-55.34344 13.74724-56.69363 13.74724-58.04381 14.84175-59.13832 16.19193-59.13832 17.5421-59.13832 18.63661-58.04381 18.63661-56.69363ZM16.19193-56.69363" fill="#ffffff"/>
<path transform="matrix(1.00009,0,0,-1.00002,108.996448,57.110906)" stroke-width=".797" stroke-linecap="butt" stroke-miterlimit="10" stroke-linejoin="miter" fill="none" stroke="#000000" d="M18.63661-56.69363C18.63661-55.34344 17.5421-54.24893 16.19193-54.24893 14.84175-54.24893 13.74724-55.34344 13.74724-56.69363 13.74724-58.04381 14.84175-59.13832 16.19193-59.13832 17.5421-59.13832 18.63661-58.04381 18.63661-56.69363ZM16.19193-56.69363"/>
<path transform="matrix(1.00009,0,0,-1.00002,108.996448,57.110906)" d="" fill="#ffffff"/>
<path transform="matrix(1.00009,0,0,-1.00002,108.996448,57.110906)" stroke-width=".797" stroke-linecap="butt" stroke-miterlimit="10" stroke-linejoin="miter" fill="none" stroke="#000000" d=""/>
<path transform="matrix(1.00009,0,0,-1.00002,108.996448,57.110906)" d="M-30.16096-56.69363C-30.16096-55.81706-30.87155-55.10648-31.74811-55.10648-32.62466-55.10648-33.33525-55.81706-33.33525-56.69363-33.33525-57.57019-32.62466-58.28078-31.74811-58.28078-30.87155-58.28078-30.16096-57.57019-30.16096-56.69363ZM-31.74811-56.69363"/>
<path transform="matrix(1.00009,0,0,-1.00002,108.996448,57.110906)" stroke-width=".3985" stroke-linecap="butt" stroke-miterlimit="10" stroke-linejoin="miter" fill="none" stroke="#000000" d="M-30.16096-56.69363C-30.16096-55.81706-30.87155-55.10648-31.74811-55.10648-32.62466-55.10648-33.33525-55.81706-33.33525-56.69363-33.33525-57.57019-32.62466-58.28078-31.74811-58.28078-30.87155-58.28078-30.16096-57.57019-30.16096-56.69363ZM-31.74811-56.69363"/>
<use data-text="D" xlink:href="#font_4_2" transform="matrix(9.963496,0,0,-9.962799,1.2167511,36.702497)"/>
<use data-text="C" xlink:href="#font_4_1" transform="matrix(9.963496,0,0,-9.962799,1.9078064,117.21011)"/>
<path transform="matrix(1.00009,0,0,-1.00002,-10.410294,-35.39595)" stroke-width=".3985" stroke-linecap="butt" stroke-miterlimit="10" stroke-linejoin="miter" fill="none" stroke="#000000" d="M193.986-36.913H214.888"/>
<use data-text="P" xlink:href="#font_2_83" transform="matrix(9.963496,0,0,-9.962799,183.59316,9.716953)"/>
<use data-text="R" xlink:href="#font_2_95" transform="matrix(9.963496,0,0,-9.962799,190.3783,9.716953)"/>
<use data-text="E" xlink:href="#font_2_49" transform="matrix(9.963496,0,0,-9.962799,197.71143,9.716953)"/>
<path transform="matrix(1.00009,0,0,-1.00002,-10.336281,68.189128)" stroke-width=".3985" stroke-linecap="butt" stroke-miterlimit="10" stroke-linejoin="miter" fill="none" stroke="#000000" d="M193.986-36.694H214.738"/>
<use data-text="C" xlink:href="#font_2_42" transform="matrix(9.963496,0,0,-9.962799,183.66718,113.30203)"/>
<use data-text="L" xlink:href="#font_2_71" transform="matrix(9.963496,0,0,-9.962799,190.86081,113.30203)"/>
<use data-text="R" xlink:href="#font_2_95" transform="matrix(9.963496,0,0,-9.962799,197.08798,113.30203)"/>
<use data-text="Q" xlink:href="#font_4_3" transform="matrix(9.963496,0,0,-9.962799,243.49054,35.734479)"/>
<path transform="matrix(1.00009,0,0,-1.00002,49.48709,39.241548)" stroke-width=".3985" stroke-linecap="butt" stroke-miterlimit="10" stroke-linejoin="miter" fill="none" stroke="#000000" d="M193.986-36.909H201.862"/>
<use data-text="Q" xlink:href="#font_4_3" transform="matrix(9.963496,0,0,-9.962799,243.49054,84.35445)"/>
</svg>
