<svg xmlns="http://www.w3.org/2000/svg" xmlns:xlink="http://www.w3.org/1999/xlink" xmlns:inkscape="http://www.inkscape.org/namespaces/inkscape" version="1.1" width="256" height="135" viewBox="0 0 256 135">
<defs>
<path id="font_1_1" d="M.1789856 .114868167C.13899231 .047973634 .099990848 .033981325 .055999757 .0309906 .04399109 .02999878 .034988405 .02999878 .034988405 .010986328 .034988405 .004989624 .039993287 0 .04798889 0 .07499695 0 .10598755 .0029907227 .13398743 .0029907227 .16699219 .0029907227 .20199585 0 .23399353 0 .23999024 0 .25299073 0 .25299073 .018997193 .25299073 .02999878 .24398804 .0309906 .23699951 .0309906 .21398926 .032989503 .18998719 .04096985 .18998719 .06593323 .18998719 .077926639 .19599915 .088897708 .20399475 .102890018L.27999879 .23068238H.5309906C.5329895 .2097168 .5469971 .07392883 .5469971 .063949588 .5469971 .033981325 .49499513 .0309906 .47499085 .0309906 .46099855 .0309906 .45098878 .0309906 .45098878 .010986328 .45098878 0 .46299745 0 .46499635 0 .5059967 0 .548996 .0029907227 .58999636 .0029907227 .61499026 .0029907227 .6779938 0 .7029877 0 .70899966 0 .72099307 0 .72099307 .019989014 .72099307 .0309906 .71099856 .0309906 .69799807 .0309906 .6359863 .0309906 .6359863 .037979127 .6329956 .06694031L.57199099 .691803C.56999209 .71180728 .56999209 .7158203 .5529938 .7158203 .5369873 .7158203 .5329895 .7088165 .5269928 .69880679L.1789856 .114868167M.29899598 .26168824 .49598695 .5917816 .5279999 .26168824H.29899598Z"/>
<path id="font_2_1" d="M.12199402 .06324768C.117996219 .050247194 .11199951 .025222779 .11199951 .022232056 .11199951 .00022888184 .12998963-.009765625 .1459961-.009765625 .1639862-.009765625 .17999268 .0032196046 .18499756 .01222229 .18998719 .021224976 .19799805 .053237916 .20298767 .07424927 .20799256 .09326172 .21899414 .13928223 .22499085 .16429138 .23098755 .18629456 .23699951 .20831299 .24198914 .23132324 .25299073 .27233888 .25498963 .28033448 .28399659 .32136537 .31199647 .3613739 .35899354 .4133911 .43399049 .4133911 .49198915 .4133911 .49299623 .36238099 .49299623 .34336854 .49299623 .28334046 .44999696 .17228699 .43399049 .13027954 .4229889 .102264408 .4189911 .09326172 .4189911 .07624817 .4189911 .023223877 .46299745-.009765625 .5139923-.009765625 .6139984-.009765625 .6579895 .12828064 .6579895 .14328003 .6579895 .15628052 .644989 .15628052 .6419983 .15628052 .6279907 .15628052 .6269989 .15028382 .6230011 .13928223 .59999087 .059249879 .5569916 .018234253 .5169983 .018234253 .49598695 .018234253 .49198915 .032226564 .49198915 .053237916 .49198915 .07624817 .49699403 .089263919 .5149994 .13427735 .5269928 .1652832 .56799319 .2713318 .56799319 .32736207 .56799319 .4243927 .4909973 .44140626 .43798829 .44140626 .35499574 .44140626 .29899598 .39038087 .2689972 .3503723 .2619934 .41940309 .20298767 .44140626 .1619873 .44140626 .11898804 .44140626 .09599304 .4104004 .08299255 .38739015 .06098938 .3503723 .04699707 .29335023 .04699707 .28834535 .04699707 .27534486 .06098938 .27534486 .06399536 .27534486 .07798767 .27534486 .07899475 .27833558 .085998538 .3053589 .100997928 .36437989 .11999512 .4133911 .15899658 .4133911 .18499756 .4133911 .19198609 .39138795 .19198609 .36437989 .19198609 .34536744 .18299866 .3083496 .17599488 .28134156 .16899109 .2543335 .15899658 .21331787 .1539917 .19129944L.12199402 .06324768Z"/>
<path id="font_1_2" d="M.1599884 .07795715C.1499939 .038986207 .147995 .0309906 .068984989 .0309906 .051986696 .0309906 .041992189 .0309906 .041992189 .010986328 .041992189 0 .050994874 0 .068984989 0H.42599488C.58399966 0 .70199587 .11791992 .70199587 .21585083 .70199587 .28778077 .6439972 .3457489 .5469971 .35673524 .651001 .37573243 .7559967 .44970704 .7559967 .5446625 .7559967 .6186218 .6899872 .6826172 .56999209 .6826172H.23399353C.21499634 .6826172 .20498657 .6826172 .20498657 .6626129 .20498657 .6516113 .21398926 .6516113 .23298645 .6516113 .23498535 .6516113 .2539978 .6516113 .2709961 .6496124 .2889862 .6476135 .2979889 .64660647 .2979889 .6336212 .2979889 .6296234 .29699708 .62661746 .2939911 .614624L.1599884 .07795715M.31098939 .36573792 .37298585 .6136322C.38198854 .64860537 .38398744 .6516113 .4269867 .6516113H.55599978C.6439972 .6516113 .6649933 .5926361 .6649933 .5486603 .6649933 .46069337 .57899478 .36573792 .45700074 .36573792H.31098939M.2659912 .0309906C.2519989 .0309906 .25 .0309906 .24398804 .03199768 .23399353 .032989503 .23098755 .033996583 .23098755 .04197693 .23098755 .04498291 .23098755 .04698181 .23599243 .064971927L.30499269 .34375H.49398805C.58999636 .34375 .60899356 .2698059 .60899356 .22683716 .60899356 .12791443 .519989 .0309906 .4019928 .0309906H.2659912Z"/>
<path id="font_1_3" d="M.7599945 .69506838C.7599945 .69807437 .7579956 .7050781 .7489929 .7050781 .74598696 .7050781 .7449951 .70407107 .73399356 .69306948L.6639862 .61602786C.6549988 .6300354 .60899356 .7050781 .49798585 .7050781 .2749939 .7050781 .049987794 .48391725 .049987794 .25172425 .049987794 .08659363 .16799927-.022460938 .32099916-.022460938 .4079895-.022460938 .48399354 .017532349 .5369873 .063583377 .6299896 .14564514 .6469879 .2367096 .6469879 .23971558 .6469879 .24972534 .6369934 .24972534 .6349945 .24972534 .6289978 .24972534 .6239929 .24772644 .621994 .23971558 .61299136 .21069336 .58999636 .13963318 .5209961 .081588748 .45199586 .025543213 .3889923 .008529663 .33699037 .008529663 .24699402 .008529663 .14099121 .060577394 .14099121 .21670532 .14099121 .27374269 .1619873 .43588258 .2619934 .55296328 .32299806 .62402346 .4169922 .67407229 .5059967 .67407229 .60798647 .67407229 .6669922 .5970001 .6669922 .48091126 .6669922 .44088746 .6639862 .43988038 .6639862 .4298706 .6639862 .41986085 .6749878 .41986085 .67900088 .41986085 .69200137 .41986085 .69200137 .42185975 .69699099 .43988038L.7599945 .69506838Z"/>
<path id="font_3_1" d="M.74398806 .2263794C.7599945 .2263794 .7839966 .2263794 .7839966 .25038148 .7839966 .27539063 .7609863 .27539063 .74398806 .27539063H.147995C.13198853 .27539063 .10798645 .27539063 .10798645 .25138856 .10798645 .2263794 .1309967 .2263794 .147995 .2263794H.74398806Z"/>
<path id="font_4_1" d="M.33499146 .63612368C.33499146 .6630554 .33299256 .6640625 .30499269 .6640625 .24099732 .6014404 .1499939 .6004486 .10899353 .6004486V.5644531C.1329956 .5644531 .19898987 .5644531 .2539978 .592453V.08203125C.2539978 .04899597 .2539978 .035995485 .1539917 .035995485H.115997318V0C.13398743 .0009918213 .25698854 .0039978029 .2939911 .0039978029 .32499696 .0039978029 .45098878 .0009918213 .47299195 0V.035995485H.43499757C.33499146 .035995485 .33499146 .04899597 .33499146 .08203125V.63612368Z"/>
<path id="font_1_4" d="M.644989 .69506838C.644989 .69807437 .6429901 .7050781 .6339874 .7050781 .6289978 .7050781 .6279907 .70407107 .6159973 .6900635L.56799319 .6330414C.5419922 .68006899 .48999024 .7050781 .4249878 .7050781 .2979889 .7050781 .17799378 .58999636 .17799378 .4689026 .17799378 .38783265 .23098755 .34179688 .28199769 .32678224L.3889923 .2987671C.42599488 .2897644 .48098756 .27474977 .48098756 .19267273 .48098756 .1026001 .39898683 .008529663 .30099488 .008529663 .23699951 .008529663 .12599182 .030548096 .12599182 .15464783 .12599182 .17866516 .1309967 .2026825 .13198853 .20869446 .1329956 .21269226 .13398743 .21369934 .13398743 .21569824 .13398743 .22570801 .1269989 .22669983 .12199402 .22669983 .116989139 .22669983 .114990238 .22570801 .11199951 .22270203 .10798645 .21870423 .051986696-.009475708 .051986696-.012466431 .051986696-.018463135 .056991579-.022460938 .06298828-.022460938 .067993167-.022460938 .068984989-.021469117 .08099365-.007461548L.12998963 .049560548C.17298889-.008468628 .24099732-.022460938 .29899598-.022460938 .43499757-.022460938 .5529938 .11061096 .5529938 .2347107 .5529938 .30377198 .5189972 .33779908 .5039978 .35180665 .48098756 .37483216 .46598817 .37882997 .3769989 .40185548 .35499574 .40785218 .31900025 .41786195 .30999757 .41986085 .2829895 .42886354 .24899292 .457901 .24899292 .51094058 .24899292 .59199526 .32899476 .677063 .42399598 .677063 .5069885 .677063 .56799319 .6340332 .56799319 .52194216 .56799319 .48991395 .56399539 .47190858 .56399539 .4658966 .56399539 .4649048 .56399539 .45588685 .57598879 .45588685 .58599856 .45588685 .58699038 .45889283 .59098818 .47590638L.644989 .69506838Z"/>
</defs>
<path transform="matrix(1.00003,0,0,-1,86.476169,18.2)" stroke-width=".3985" stroke-linecap="butt" stroke-miterlimit="10" stroke-linejoin="miter" fill="none" stroke="#000000" d="M-30.64835 7.93695H-37.73505M-37.73505 7.93695H-44.82175-51.90845M-51.90845 7.93695H-58.99515M-30.64835-7.93695H-44.82173M-44.82173-7.93695H-58.99515M30.64835-30.0473-14.17339-30.04729M-14.17339-30.04729-58.99515-30.0473M30.64835 0 30.64833-7.08669M30.64833-7.08669 30.64835-14.17339M-44.82175 7.93695V-49.60692M-44.82175-49.60692V-107.15082L-37.73505-107.1508M-37.73505-107.1508-30.64835-107.15082M-30.64835-7.93695-30.64833-49.60692M-30.64833-49.60692-30.64835-91.27692M30.64835-14.17339 30.64833-37.70149M30.64833-37.70149 30.64835-61.22961M2.30154-30.0473V-53.5754M2.30154-53.5754V-77.10352H16.47495M16.47495-77.10352H30.64835M30.64835-99.21387 61.29669-99.21385M61.29669-99.21385 91.94507-99.21387M91.94507-69.16656 91.94505-76.25325M91.94505-76.25325 91.94507-83.33997M91.94507-22.11034 122.59341-22.11032M122.59341-22.11032 153.24179-22.11034"/>
<path transform="matrix(1.00003,0,0,-1,86.476169,18.2)" stroke-width=".3985" stroke-linecap="butt" stroke-miterlimit="10" stroke-linejoin="miter" fill="none" stroke="#000000" d="M-20.48512 7.93695H-30.64835"/>
<path transform="matrix(1.00003,0,0,-1,86.476169,18.2)" stroke-width=".3985" stroke-linecap="butt" stroke-miterlimit="10" stroke-linejoin="miter" fill="none" stroke="#000000" d="M-20.48512-7.93695H-30.64835"/>
<path transform="matrix(1.00003,0,0,-1,86.476169,18.2)" stroke-width=".797" stroke-linecap="butt" stroke-miterlimit="10" stroke-linejoin="miter" fill="none" stroke="#000000" d="M-19.53711 15.8739H-8.85695C2.80333 16.20137 13.70792 10.10574 19.53564 .00096 13.7084-10.10332 2.80284-16.19942-8.85646-15.87244L-22.89082-15.8739C-18.26643-5.9054-18.26643 5.90521-22.89082 15.87372Z"/>
<path transform="matrix(1.00003,0,0,-1,86.476169,18.2)" stroke-width=".797" stroke-linecap="butt" stroke-miterlimit="10" stroke-linejoin="miter" fill="none" stroke="#000000" d="M-25.93855-15.8739C-21.31415-5.9054-21.31415 5.90521-25.93855 15.87372"/>
<path transform="matrix(1.00003,0,0,-1,86.476169,18.2)" stroke-width=".3985" stroke-linecap="butt" stroke-miterlimit="10" stroke-linejoin="miter" fill="none" stroke="#000000" d="M19.53711 0H30.64835"/>
<path transform="matrix(1.00003,0,0,-1,86.476169,18.2)" stroke-width=".3985" stroke-linecap="butt" stroke-miterlimit="10" stroke-linejoin="miter" fill="none" stroke="#000000" d="M40.81157-14.17339H30.64835"/>
<path transform="matrix(1.00003,0,0,-1,86.476169,18.2)" stroke-width=".3985" stroke-linecap="butt" stroke-miterlimit="10" stroke-linejoin="miter" fill="none" stroke="#000000" d="M40.81157-30.0473H30.64835"/>
<path transform="matrix(1.00003,0,0,-1,86.476169,18.2)" stroke-width=".797" stroke-linecap="butt" stroke-miterlimit="10" stroke-linejoin="miter" fill="none" stroke="#000000" d="M41.7596-6.23643H52.43974C64.10005-5.90897 75.00464-12.00458 80.83237-22.10938 75.00513-32.21367 64.09956-38.30977 52.44023-37.98279L38.40587-37.98425C43.03027-28.01575 43.03027-16.20512 38.40587-6.23662Z"/>
<path transform="matrix(1.00003,0,0,-1,86.476169,18.2)" stroke-width=".797" stroke-linecap="butt" stroke-miterlimit="10" stroke-linejoin="miter" fill="none" stroke="#000000" d="M35.35815-37.98425C39.98254-28.01575 39.98254-16.20512 35.35815-6.23662"/>
<path transform="matrix(1.00003,0,0,-1,86.476169,18.2)" stroke-width=".3985" stroke-linecap="butt" stroke-miterlimit="10" stroke-linejoin="miter" fill="none" stroke="#000000" d="M80.83382-22.11034H91.94507"/>
<path transform="matrix(1.00003,0,0,-1,86.476169,18.2)" stroke-width=".3985" stroke-linecap="butt" stroke-miterlimit="10" stroke-linejoin="miter" fill="none" stroke="#000000" d="M-19.53711-91.27692H-30.64835M-19.53711-107.15082H-30.64835"/>
<path transform="matrix(1.00003,0,0,-1,86.476169,18.2)" stroke-width=".797" stroke-linecap="butt" stroke-miterlimit="10" stroke-linejoin="miter" fill="none" stroke="#000000" d="M-19.53711-83.33997H3.66321C12.43024-83.33997 19.53712-90.44684 19.53712-99.21387 19.53712-107.9809 12.43024-115.08777 3.66321-115.08777H-19.53711Z"/>
<path transform="matrix(1.00003,0,0,-1,86.476169,18.2)" stroke-width=".3985" stroke-linecap="butt" stroke-miterlimit="10" stroke-linejoin="miter" fill="none" stroke="#000000" d="M24.42648-99.21387H30.64835"/>
<path transform="matrix(1.00003,0,0,-1,86.476169,18.2)" d="M24.42648-99.21387C24.42648-97.8637 23.33197-96.76918 21.9818-96.76918 20.63162-96.76918 19.53711-97.8637 19.53711-99.21387 19.53711-100.56404 20.63162-101.65855 21.9818-101.65855 23.33197-101.65855 24.42648-100.56404 24.42648-99.21387ZM21.9818-99.21387" fill="#ffffff"/>
<path transform="matrix(1.00003,0,0,-1,86.476169,18.2)" stroke-width=".797" stroke-linecap="butt" stroke-miterlimit="10" stroke-linejoin="miter" fill="none" stroke="#000000" d="M24.42648-99.21387C24.42648-97.8637 23.33197-96.76918 21.9818-96.76918 20.63162-96.76918 19.53711-97.8637 19.53711-99.21387 19.53711-100.56404 20.63162-101.65855 21.9818-101.65855 23.33197-101.65855 24.42648-100.56404 24.42648-99.21387ZM21.9818-99.21387"/>
<path transform="matrix(1.00003,0,0,-1,86.476169,18.2)" d="" fill="#ffffff"/>
<path transform="matrix(1.00003,0,0,-1,86.476169,18.2)" stroke-width=".797" stroke-linecap="butt" stroke-miterlimit="10" stroke-linejoin="miter" fill="none" stroke="#000000" d=""/>
<path transform="matrix(1.00003,0,0,-1,86.476169,18.2)" stroke-width=".3985" stroke-linecap="butt" stroke-miterlimit="10" stroke-linejoin="miter" fill="none" stroke="#000000" d="M41.7596-61.22961H30.64835M41.7596-77.10352H30.64835"/>
<path transform="matrix(1.00003,0,0,-1,86.476169,18.2)" stroke-width=".797" stroke-linecap="butt" stroke-miterlimit="10" stroke-linejoin="miter" fill="none" stroke="#000000" d="M41.7596-53.29265H64.95993C73.72696-53.29265 80.83383-60.39954 80.83383-69.16656 80.83383-77.9336 73.72696-85.04047 64.95993-85.04047H41.7596Z"/>
<path transform="matrix(1.00003,0,0,-1,86.476169,18.2)" stroke-width=".3985" stroke-linecap="butt" stroke-miterlimit="10" stroke-linejoin="miter" fill="none" stroke="#000000" d="M85.7232-69.16656H91.94507"/>
<path transform="matrix(1.00003,0,0,-1,86.476169,18.2)" d="M85.7232-69.16656C85.7232-67.81638 84.6287-66.72188 83.27852-66.72188 81.92833-66.72188 80.83382-67.81638 80.83382-69.16656 80.83382-70.51674 81.92833-71.61125 83.27852-71.61125 84.6287-71.61125 85.7232-70.51674 85.7232-69.16656ZM83.27852-69.16656" fill="#ffffff"/>
<path transform="matrix(1.00003,0,0,-1,86.476169,18.2)" stroke-width=".797" stroke-linecap="butt" stroke-miterlimit="10" stroke-linejoin="miter" fill="none" stroke="#000000" d="M85.7232-69.16656C85.7232-67.81638 84.6287-66.72188 83.27852-66.72188 81.92833-66.72188 80.83382-67.81638 80.83382-69.16656 80.83382-70.51674 81.92833-71.61125 83.27852-71.61125 84.6287-71.61125 85.7232-70.51674 85.7232-69.16656ZM83.27852-69.16656"/>
<path transform="matrix(1.00003,0,0,-1,86.476169,18.2)" d="" fill="#ffffff"/>
<path transform="matrix(1.00003,0,0,-1,86.476169,18.2)" stroke-width=".797" stroke-linecap="butt" stroke-miterlimit="10" stroke-linejoin="miter" fill="none" stroke="#000000" d=""/>
<path transform="matrix(1.00003,0,0,-1,86.476169,18.2)" stroke-width=".3985" stroke-linecap="butt" stroke-miterlimit="10" stroke-linejoin="miter" fill="none" stroke="#000000" d="M103.05632-83.33997H91.94507M103.05632-99.21387H91.94507"/>
<path transform="matrix(1.00003,0,0,-1,86.476169,18.2)" stroke-width=".797" stroke-linecap="butt" stroke-miterlimit="10" stroke-linejoin="miter" fill="none" stroke="#000000" d="M103.05632-75.403H126.25665C135.02368-75.403 142.13056-82.50989 142.13056-91.27692 142.13056-100.04395 135.02368-107.15082 126.25665-107.15082H103.05632Z"/>
<path transform="matrix(1.00003,0,0,-1,86.476169,18.2)" stroke-width=".3985" stroke-linecap="butt" stroke-miterlimit="10" stroke-linejoin="miter" fill="none" stroke="#000000" d="M147.01993-91.27692H153.24179"/>
<path transform="matrix(1.00003,0,0,-1,86.476169,18.2)" d="M147.01993-91.27692C147.01993-89.92673 145.92542-88.83221 144.57523-88.83221 143.22505-88.83221 142.13054-89.92673 142.13054-91.27692 142.13054-92.62709 143.22505-93.7216 144.57523-93.7216 145.92542-93.7216 147.01993-92.62709 147.01993-91.27692ZM144.57523-91.27692" fill="#ffffff"/>
<path transform="matrix(1.00003,0,0,-1,86.476169,18.2)" stroke-width=".797" stroke-linecap="butt" stroke-miterlimit="10" stroke-linejoin="miter" fill="none" stroke="#000000" d="M147.01993-91.27692C147.01993-89.92673 145.92542-88.83221 144.57523-88.83221 143.22505-88.83221 142.13054-89.92673 142.13054-91.27692 142.13054-92.62709 143.22505-93.7216 144.57523-93.7216 145.92542-93.7216 147.01993-92.62709 147.01993-91.27692ZM144.57523-91.27692"/>
<path transform="matrix(1.00003,0,0,-1,86.476169,18.2)" d="" fill="#ffffff"/>
<path transform="matrix(1.00003,0,0,-1,86.476169,18.2)" stroke-width=".797" stroke-linecap="butt" stroke-miterlimit="10" stroke-linejoin="miter" fill="none" stroke="#000000" d=""/>
<use data-text="A" xlink:href="#font_1_1" transform="matrix(9.962899,0,0,-9.9626,11.063889,12.919999)"/>
<use data-text="n" xlink:href="#font_2_1" transform="matrix(6.9740097,0,0,-6.9738,18.536103,14.414)"/>
<use data-text="B" xlink:href="#font_1_2" transform="matrix(9.962899,0,0,-9.9626,10.978897,28.794)"/>
<use data-text="n" xlink:href="#font_2_1" transform="matrix(6.9740097,0,0,-6.9738,18.536118,30.288)"/>
<use data-text="C" xlink:href="#font_1_3" transform="matrix(9.962899,0,0,-9.9626,1.2165985,50.489004)"/>
<use data-text="n" xlink:href="#font_2_1" transform="matrix(6.9740097,0,0,-6.9738,8.336807,51.983)"/>
<use data-text="&#x2212;" xlink:href="#font_3_1" transform="matrix(6.9740097,0,0,-6.9738,13.261948,51.983)"/>
<use data-text="1" xlink:href="#font_4_1" transform="matrix(6.9740097,0,0,-6.9738,19.489151,51.983)"/>
<path transform="matrix(1.00003,0,0,-1,86.476169,18.2)" d="M32.2355-14.17339C32.2355-13.29683 31.52492-12.58624 30.64835-12.58624 29.77179-12.58624 29.0612-13.29683 29.0612-14.17339 29.0612-15.04996 29.77179-15.76054 30.64835-15.76054 31.52492-15.76054 32.2355-15.04996 32.2355-14.17339ZM30.64835-14.17339"/>
<path transform="matrix(1.00003,0,0,-1,86.476169,18.2)" stroke-width=".3985" stroke-linecap="butt" stroke-miterlimit="10" stroke-linejoin="miter" fill="none" stroke="#000000" d="M32.2355-14.17339C32.2355-13.29683 31.52492-12.58624 30.64835-12.58624 29.77179-12.58624 29.0612-13.29683 29.0612-14.17339 29.0612-15.04996 29.77179-15.76054 30.64835-15.76054 31.52492-15.76054 32.2355-15.04996 32.2355-14.17339ZM30.64835-14.17339"/>
<path transform="matrix(1.00003,0,0,-1,86.476169,18.2)" d="M-43.2346 7.93695C-43.2346 8.8135-43.94519 9.5241-44.82175 9.5241-45.6983 9.5241-46.40889 8.8135-46.40889 7.93695-46.40889 7.06038-45.6983 6.3498-44.82175 6.3498-43.94519 6.3498-43.2346 7.06038-43.2346 7.93695ZM-44.82175 7.93695"/>
<path transform="matrix(1.00003,0,0,-1,86.476169,18.2)" stroke-width=".3985" stroke-linecap="butt" stroke-miterlimit="10" stroke-linejoin="miter" fill="none" stroke="#000000" d="M-43.2346 7.93695C-43.2346 8.8135-43.94519 9.5241-44.82175 9.5241-45.6983 9.5241-46.40889 8.8135-46.40889 7.93695-46.40889 7.06038-45.6983 6.3498-44.82175 6.3498-43.94519 6.3498-43.2346 7.06038-43.2346 7.93695ZM-44.82175 7.93695"/>
<path transform="matrix(1.00003,0,0,-1,86.476169,18.2)" d="M-29.0612-7.93695C-29.0612-7.06038-29.77179-6.3498-30.64835-6.3498-31.52492-6.3498-32.2355-7.06038-32.2355-7.93695-32.2355-8.8135-31.52492-9.5241-30.64835-9.5241-29.77179-9.5241-29.0612-8.8135-29.0612-7.93695ZM-30.64835-7.93695"/>
<path transform="matrix(1.00003,0,0,-1,86.476169,18.2)" stroke-width=".3985" stroke-linecap="butt" stroke-miterlimit="10" stroke-linejoin="miter" fill="none" stroke="#000000" d="M-29.0612-7.93695C-29.0612-7.06038-29.77179-6.3498-30.64835-6.3498-31.52492-6.3498-32.2355-7.06038-32.2355-7.93695-32.2355-8.8135-31.52492-9.5241-30.64835-9.5241-29.77179-9.5241-29.0612-8.8135-29.0612-7.93695ZM-30.64835-7.93695"/>
<path transform="matrix(1.00003,0,0,-1,86.476169,18.2)" d="M3.88869-30.0473C3.88869-29.17073 3.1781-28.46014 2.30154-28.46014 1.42499-28.46014 .7144-29.17073 .7144-30.0473 .7144-30.92386 1.42499-31.63445 2.30154-31.63445 3.1781-31.63445 3.88869-30.92386 3.88869-30.0473ZM2.30154-30.0473"/>
<path transform="matrix(1.00003,0,0,-1,86.476169,18.2)" stroke-width=".3985" stroke-linecap="butt" stroke-miterlimit="10" stroke-linejoin="miter" fill="none" stroke="#000000" d="M3.88869-30.0473C3.88869-29.17073 3.1781-28.46014 2.30154-28.46014 1.42499-28.46014 .7144-29.17073 .7144-30.0473 .7144-30.92386 1.42499-31.63445 2.30154-31.63445 3.1781-31.63445 3.88869-30.92386 3.88869-30.0473ZM2.30154-30.0473"/>
<use data-text="C" xlink:href="#font_1_3" transform="matrix(9.962899,0,0,-9.9626,243.24288,112.133998)"/>
<use data-text="n" xlink:href="#font_2_1" transform="matrix(6.9740097,0,0,-6.9738,250.36309,113.628)"/>
<use data-text="S" xlink:href="#font_1_4" transform="matrix(9.962899,0,0,-9.9626,243.24288,42.967)"/>
<use data-text="n" xlink:href="#font_2_1" transform="matrix(6.9740097,0,0,-6.9738,249.35205,44.461)"/>
</svg>
