<svg xmlns="http://www.w3.org/2000/svg" xmlns:xlink="http://www.w3.org/1999/xlink" xmlns:inkscape="http://www.inkscape.org/namespaces/inkscape" version="1.1" width="331" height="109" viewBox="0 0 331 109">
<defs>
<path id="font_1_1" d="M.7739868 .67807009C.7769928 .6900635 .7769928 .69207766 .7769928 .69407656 .7769928 .69506838 .776001 .7050781 .7649994 .7050781 .7589874 .7050781 .7559967 .70207217 .7489929 .69407656L.6879883 .6270294C.6839905 .62202456 .6799927 .61802676 .67900088 .61802676 .6779938 .61802676 .6769867 .61901858 .67099 .62602236 .6559906 .64604189 .61099246 .7050781 .5069885 .7050781 .27799989 .7050781 .050994874 .48291017 .050994874 .25473023 .050994874 .09159851 .16999817-.022460938 .33099366-.022460938 .43499757-.022460938 .5169983 .031555177 .55599978 .0665741 .6469879 .14764405 .6639862 .23571778 .6639862 .23971558 .6639862 .24372864 .6619873 .25073243 .6499939 .25073243 .6389923 .25073243 .6369934 .24472046 .6359863 .24072266 .58699038 .079589847 .44400025 .008529663 .34399415 .008529663 .24699402 .008529663 .14399719 .06758118 .14399719 .21870423 .14399719 .2637329 .15899658 .42185975 .2599945 .54496768 .31999208 .61701968 .41799928 .67407229 .5139923 .67407229 .625 .67407229 .6839905 .5890045 .6839905 .47891236 .6839905 .44488526 .68099978 .43788148 .68099978 .4298706 .68099978 .41886903 .69299319 .41886903 .69599917 .41886903 .70899966 .41886903 .70899966 .42086793 .71398928 .43988038L.7739868 .67807009Z"/>
<path id="font_1_3" d="M.4119873-.04144287C.4099884-.05241394 .4099884-.06639099 .4099884-.07836914 .4099884-.12634278 .41799928-.19433594 .49699403-.19433594 .6159973-.19433594 .6669922-.015472412 .6669922-.00047302247 .6669922 .0055389406 .6619873 .011520386 .6539917 .011520386 .6459961 .011520386 .6439972 .0045318605 .6409912-.0024719239 .6179962-.070388797 .55999758-.095336917 .522995-.095336917 .47698976-.095336917 .46199037-.06639099 .45199586 .0045318605 .66999819 .09844971 .7579956 .29560853 .7579956 .43276979 .7579956 .59095767 .6519928 .7050781 .49499513 .7050781 .2709961 .7050781 .049987794 .474823 .049987794 .24655152 .049987794 .082458499 .16299439-.022460938 .31399537-.022460938 .35499574-.022460938 .3959961-.013473511 .41299439-.008468628L.4119873-.04144287M.2539978 .01751709C.20799256 .035507204 .14099121 .08746338 .14099121 .21650696 .14099121 .26957704 .1579895 .43077088 .2659912 .55992129 .31799317 .6210022 .4019928 .677063 .48799134 .677063 .58699038 .677063 .6669922 .6039734 .6669922 .46380616 .6669922 .36369325 .6179962 .13743592 .44599916 .041503908 .43699647 .095458988 .41799928 .1484375 .35398866 .1484375 .2979889 .1484375 .24899292 .097457889 .24899292 .04649353 .24899292 .038497926 .25099183 .024520874 .2539978 .01751709M.4149933 .025512696C.40098573 .019515992 .3619995 .0055389406 .32099916 .0055389406 .30799867 .0055389406 .27398683 .0055389406 .27398683 .04649353 .27398683 .083465579 .31098939 .123428348 .35499574 .123428348 .4139862 .123428348 .4149933 .06947327 .4149933 .025512696Z"/>
<path id="font_1_2" d="M.16099549 .07595825C.1519928 .039993287 .1499939 .0309906 .07499695 .0309906 .055999757 .0309906 .04499817 .0309906 .04499817 .0129852299 .04499817 0 .054992677 0 .07299805 0H.4099884C.6239929 0 .82299807 .21188355 .82299807 .42774964 .82299807 .56466677 .7369995 .6826172 .58099368 .6826172H.23799134C.21998596 .6826172 .20799256 .6826172 .20799256 .6646118 .20799256 .6516113 .21699524 .6516113 .23799134 .6516113 .24198914 .6516113 .2599945 .6516113 .27598573 .6496124 .29299928 .6476135 .2999878 .6456146 .2999878 .63461306 .2999878 .6296234 .29899598 .6256256 .29599 .614624L.16099549 .07595825M.3809967 .6126251C.3899994 .64860537 .3919983 .6516113 .43399049 .6516113H.5469971C.651001 .6516113 .73399356 .5936432 .73399356 .46472169 .73399356 .40675355 .70899966 .24685669 .6309967 .1479187 .58499148 .09095764 .5019989 .0309906 .3919983 .0309906H.27198792C.2579956 .0309906 .2559967 .0309906 .2519989 .03199768 .24198914 .032989503 .23899842 .033996583 .23899842 .040985109 .23899842 .04399109 .23899842 .04598999 .24398804 .063964847L.3809967 .6126251Z"/>
<path id="font_2_82" d="M.4189911 0V.0309906H.3869934C.29699708 .0309906 .2939911 .041992189 .2939911 .07902527V.64012148C.2939911 .6640167 .2939911 .6660156 .2709961 .6660156 .20899964 .60227969 .12098694 .60227969 .08898926 .60227969V.57128909C.10899353 .57128909 .16799927 .57128909 .21998596 .5972748V.07902527C.21998596 .042999269 .21699524 .0309906 .1269989 .0309906H.09498596V0C.12998963 .0029907227 .21699524 .0029907227 .25698854 .0029907227 .29699708 .0029907227 .38398744 .0029907227 .4189911 0Z"/>
<path id="font_2_107" d="M.44898988 .17396546H.42399598C.4189911 .14398194 .4119873 .099990848 .4019928 .084991458 .394989 .07699585 .32899476 .07699585 .30699159 .07699585H.1269989L.23298645 .17996216C.3889923 .31803895 .44898988 .37210084 .44898988 .47216798 .44898988 .5860901 .35899354 .6660156 .23699951 .6660156 .12399292 .6660156 .049987794 .57411196 .049987794 .48516847 .049987794 .4291687 .099990848 .4291687 .102996829 .4291687 .11999512 .4291687 .15499878 .44117738 .15499878 .48217774 .15499878 .5081787 .13699341 .5341797 .101989749 .5341797 .09399414 .5341797 .09199524 .5341797 .08898926 .5331726 .11199951 .59806826 .1659851 .63500979 .22399903 .63500979 .31498719 .63500979 .35798646 .5541382 .35798646 .47216798 .35798646 .39196778 .30799867 .31297303 .25299073 .25097657L.06098938 .036987306C.049987794 .025985718 .049987794 .023986817 .049987794 0H.42099L.44898988 .17396546Z"/>
<path id="font_2_106" d="M.45700074 .17037964C.45700074 .252594 .3939972 .33088685 .2899933 .35191346 .37199403 .37893678 .42999269 .4490509 .42999269 .52809146 .42999269 .6100464 .34199525 .6660156 .24598694 .6660156 .14498902 .6660156 .068984989 .60606387 .068984989 .53009036 .068984989 .49710084 .09098816 .47808839 .11999512 .47808839 .15098572 .47808839 .17098999 .50009158 .17098999 .5290985 .17098999 .57910159 .12399292 .57910159 .10899353 .57910159 .13999939 .62802127 .20599365 .64100649 .24198914 .64100649 .2829895 .64100649 .33799745 .6190338 .33799745 .5290985 .33799745 .51708987 .33599855 .45906068 .30999757 .4149933 .27999879 .36691285 .24598694 .36390687 .22099304 .36291505 .21299744 .36190797 .18899536 .35990907 .18199158 .35990907 .17399597 .35890199 .16699219 .35791017 .16699219 .3479004 .16699219 .33691407 .17399597 .33691407 .19099427 .33691407H.23498535C.31698609 .33691407 .35398866 .2686615 .35398866 .17037964 .35398866 .034469606 .2849884 .0055389406 .24099732 .0055389406 .19799805 .0055389406 .12298584 .022491456 .08799744 .08137512 .12298584 .07637024 .1539917 .09837341 .1539917 .1363678 .1539917 .17237854 .1269989 .19238281 .09799194 .19238281 .07398987 .19238281 .041992189 .17837525 .041992189 .1343689 .041992189 .043441774 .1349945-.022460938 .24398804-.022460938 .3659973-.022460938 .45700074 .06838989 .45700074 .17037964Z"/>
<path id="font_2_57" d="M.47099305 .16503906V.19602967H.37098695V.6507721C.37098695 .6707611 .37098695 .6767578 .35499574 .6767578 .34599305 .6767578 .34298707 .6767578 .33499146 .6647644L.027999878 .19602967V.16503906H.2939911V.07800293C.2939911 .041992189 .2919922 .0309906 .21798706 .0309906H.19699097V0C.23799134 .0029907227 .2899933 .0029907227 .33198548 .0029907227 .37399293 .0029907227 .4269867 .0029907227 .46798707 0V.0309906H.44699098C.37298585 .0309906 .37098695 .041992189 .37098695 .07800293V.16503906H.47099305M.2999878 .19602967H.055999757L.2999878 .56881716V.19602967Z"/>
<path id="font_3_1" d="M.7599945 .69506838C.7599945 .69807437 .7579956 .7050781 .7489929 .7050781 .74598696 .7050781 .7449951 .70407107 .73399356 .69306948L.6639862 .61602786C.6549988 .6300354 .60899356 .7050781 .49798585 .7050781 .2749939 .7050781 .049987794 .48391725 .049987794 .25172425 .049987794 .08659363 .16799927-.022460938 .32099916-.022460938 .4079895-.022460938 .48399354 .017532349 .5369873 .063583377 .6299896 .14564514 .6469879 .2367096 .6469879 .23971558 .6469879 .24972534 .6369934 .24972534 .6349945 .24972534 .6289978 .24972534 .6239929 .24772644 .621994 .23971558 .61299136 .21069336 .58999636 .13963318 .5209961 .081588748 .45199586 .025543213 .3889923 .008529663 .33699037 .008529663 .24699402 .008529663 .14099121 .060577394 .14099121 .21670532 .14099121 .27374269 .1619873 .43588258 .2619934 .55296328 .32299806 .62402346 .4169922 .67407229 .5059967 .67407229 .60798647 .67407229 .6669922 .5970001 .6669922 .48091126 .6669922 .44088746 .6639862 .43988038 .6639862 .4298706 .6639862 .41986085 .6749878 .41986085 .67900088 .41986085 .69200137 .41986085 .69200137 .42185975 .69699099 .43988038L.7599945 .69506838Z"/>
<path id="font_2_65" d="M.33299256 0V.0309906H.30699159C.22799683 .0309906 .22499085 .041992189 .22499085 .07795715V.6046295C.22499085 .64060977 .22799683 .6516113 .30699159 .6516113H.33299256V.6826172C.2979889 .6796112 .21899414 .6796112 .18099976 .6796112 .14199829 .6796112 .06298828 .6796112 .027999878 .6826172V.6516113H.053985597C.1329956 .6516113 .13598633 .64060977 .13598633 .6046295V.07795715C.13598633 .041992189 .1329956 .0309906 .053985597 .0309906H.027999878V0C.06298828 .0029907227 .14199829 .0029907227 .17999268 .0029907227 .21899414 .0029907227 .2979889 .0029907227 .33299256 0Z"/>
<path id="font_2_77" d="M.5349884 0V.0309906C.48298646 .0309906 .45799256 .0309906 .45700074 .061019899V.25221253C.45700074 .3383026 .45700074 .36932374 .42599488 .405365 .4119873 .42237855 .3789978 .4423828 .32099916 .4423828 .24798584 .4423828 .20098877 .39935304 .17298889 .33729554V.4423828L.03199768 .43066407V.3996582C.101989749 .3996582 .10998535 .39266969 .10998535 .34370423V.07595825C.10998535 .0309906 .09899902 .0309906 .03199768 .0309906V0L.14498902 .0029907227 .25698854 0V.0309906C.18998719 .0309906 .1789856 .0309906 .1789856 .07595825V.25978089C.1789856 .36431886 .25 .42037965 .31399537 .42037965 .3769989 .42037965 .3880005 .36631776 .3880005 .30926515V.076034549C.3880005 .0309906 .3769989 .0309906 .30999757 .0309906V0L.4229889 .0029907227 .5349884 0Z"/>
<path id="font_3_2" d="M.43798829 .0055236818C.59298709 .0644989 .73999026 .24256897 .73999026 .43579103 .73999026 .5969696 .6339874 .7050781 .4850006 .7050781 .2689972 .7050781 .04899597 .47784425 .04899597 .24456787 .04899597 .07847595 .16099549-.022460938 .30499269-.022460938 .32998658-.022460938 .3639984-.018463135 .40299989-.007461548 .39898683-.06939697 .39898683-.071380618 .39898683-.084365848 .39898683-.11634827 .39898683-.19433594 .48199464-.19433594 .6009979-.19433594 .6489868-.011474609 .6489868-.00047302247 .6489868 .0065307619 .6419983 .009521484 .6380005 .009521484 .6299896 .009521484 .6279907 .0045318605 .6259918-.0014648438 .60198977-.072387699 .5439911-.097335819 .5089874-.097335819 .46299745-.097335819 .44799806-.070388797 .43798829 .0055236818M.24899292 .013519287C.17098999 .044509889 .13699341 .12245178 .13699341 .21252442 .13699341 .2816162 .16299439 .4237671 .23899842 .5319061 .31199647 .63401797 .4059906 .68006899 .47898866 .68006899 .57899478 .68006899 .6519928 .6019745 .6519928 .4678192 .6519928 .3677063 .6009979 .13345337 .43299867 .039505006 .42799378 .07447815 .41799928 .14746094 .34498597 .14746094 .2919922 .14746094 .24299622 .097473148 .24299622 .04550171 .24299622 .025512696 .24899292 .014526367 .24899292 .013519287M.31098939 .002532959C.29699708 .002532959 .2649994 .002532959 .2649994 .04550171 .2649994 .08547974 .30299378 .12545777 .34498597 .12545777 .3869934 .12545777 .4059906 .10147095 .4059906 .040512086 .4059906 .025512696 .40499879 .024520874 .394989 .020523072 .36898805 .009521484 .33898927 .002532959 .31098939 .002532959Z"/>
<path id="font_4_1" d="M.33499146 .63612368C.33499146 .6630554 .33299256 .6640625 .30499269 .6640625 .24099732 .6014404 .1499939 .6004486 .10899353 .6004486V.5644531C.1329956 .5644531 .19898987 .5644531 .2539978 .592453V.08203125C.2539978 .04899597 .2539978 .035995485 .1539917 .035995485H.115997318V0C.13398743 .0009918213 .25698854 .0039978029 .2939911 .0039978029 .32499696 .0039978029 .45098878 .0009918213 .47299195 0V.035995485H.43499757C.33499146 .035995485 .33499146 .04899597 .33499146 .08203125V.63612368Z"/>
<path id="font_4_2" d="M.5049896 .18203736H.47099305C.46798707 .16001892 .45799256 .100997928 .44499208 .09098816 .43699647 .084991458 .3600006 .084991458 .34599305 .084991458H.1619873C.2669983 .17803955 .3019867 .20603943 .3619995 .25306703 .43598939 .312088 .5049896 .374115 .5049896 .46914674 .5049896 .5900879 .39898683 .6640625 .2709961 .6640625 .14698792 .6640625 .06298828 .57710269 .06298828 .4851532 .06298828 .43414308 .10598755 .42915345 .115997318 .42915345 .13999939 .42915345 .16899109 .44615174 .16899109 .48214723 .16899109 .5001526 .1619873 .53515627 .10998535 .53515627 .14099121 .6060791 .20899964 .62805178 .2559967 .62805178 .35598756 .62805178 .4079895 .5501404 .4079895 .46914674 .4079895 .38212586 .34599305 .3130951 .31399537 .27708436L.07299805 .038986207C.06298828 .02999878 .06298828 .027999878 .06298828 0H.47499085L.5049896 .18203736Z"/>
<path id="font_4_3" d="M.272995 .33428956C.35099793 .33428956 .40699769 .2803192 .40699769 .1733551 .40699769 .04940796 .33499146 .012466431 .2769928 .012466431 .23699951 .012466431 .14898682 .0234375 .10699463 .082351688 .1539917 .084350589 .16499329 .11735535 .16499329 .13835144 .16499329 .17034912 .14099121 .19335938 .10998535 .19335938 .08198547 .19335938 .053985597 .17634583 .053985597 .13534546 .053985597 .041412355 .1579895-.01953125 .2789917-.01953125 .41799928-.01953125 .5139923 .07336426 .5139923 .1733551 .5139923 .2513275 .44999696 .32929994 .33999635 .35229493 .44499208 .39024354 .48298646 .4650879 .48298646 .5260773 .48298646 .60505679 .3919983 .6640625 .2809906 .6640625 .16999817 .6640625 .084991458 .61006167 .084991458 .5300751 .084991458 .49606324 .10699463 .47706605 .13699341 .47706605 .16799927 .47706605 .18798828 .5000763 .18798828 .5280762 .18798828 .5570679 .16799927 .57806399 .13699341 .5800781 .17199707 .62405398 .24099732 .63505557 .27799989 .63505557 .32299806 .63505557 .38598634 .6130676 .38598634 .5260773 .38598634 .48406983 .37199403 .43814088 .34599305 .4072113 .31298829 .36927796 .2849884 .3672943 .23498535 .36428834 .20999146 .3623047 .20799256 .3623047 .20298767 .3612976 .20098877 .3612976 .19299317 .3592987 .19299317 .34829713 .19299317 .33428956 .20199585 .33428956 .21899414 .33428956H.272995Z"/>
<path id="font_4_4" d="M.5289917 .1640625V.20005799H.41799928V.64582827C.41799928 .66682437 .41799928 .6738281 .3959961 .6738281 .38398744 .6738281 .37998963 .6738281 .36999513 .65982058L.038986207 .20005799V.1640625H.33299256V.08201599C.33299256 .04800415 .33299256 .035995485 .2519989 .035995485H.22499085V0C.2749939 .0019989014 .33898927 .0039978029 .375 .0039978029 .4119873 .0039978029 .47599793 .0019989014 .526001 0V.035995485H.49899293C.41799928 .035995485 .41799928 .04800415 .41799928 .08201599V.1640625H.5289917M.33999635 .5658722V.20005799H.07598877L.33999635 .5658722Z"/>
</defs>
<path transform="matrix(1.00003,0,0,-1.00005,59.796358,51.171957)" stroke-width=".3985" stroke-linecap="butt" stroke-miterlimit="10" stroke-linejoin="miter" fill="none" stroke="#000000" d="M31.74811 23.81143H38.8348M38.8348 23.81143H45.92151M109.41774 23.8114H116.50443M116.50443 23.8114H123.59114M187.08737 23.81137H194.17406M194.17406 23.81137H201.26076M-31.74811-23.81143V-37.98483M-31.74811-37.98483V-52.15823L84.75632-52.15822M84.75632-52.15822 201.26076-52.15823 201.26074-37.98488M201.26074-37.98488 201.26076-23.81152M45.92151-23.81146 45.9215-37.98485M45.9215-37.98485 45.92151-52.15823M123.59114-23.8115V-37.98486M123.59114-37.98486V-52.15823M-31.74811-52.15823-38.8348-52.15822M-38.8348-52.15822-45.92151-52.15823M-31.74811 23.81146H-38.8348M-38.8348 23.81146H-45.92151M38.8348 23.81143 38.83478 30.89812M38.83478 30.89812 38.8348 37.98483M116.50443 23.8114V30.8981M116.50443 30.8981V37.98483M194.17406 23.81137 194.17404 30.89809M194.17404 30.89809 194.17406 37.98483M264.757 23.81134 264.75697 30.89807M264.75697 30.89807 264.757 37.98483"/>
<path transform="matrix(1.00003,0,0,-1.00005,59.796358,51.171957)" stroke-width=".797" stroke-linecap="butt" stroke-miterlimit="10" stroke-linejoin="miter" fill="none" stroke="#000000" d="M-23.81116-35.71718H23.811152V35.71718H-23.81116Z"/>
<path transform="matrix(1.00003,0,0,-1.00005,59.796358,51.171957)" stroke-width=".797" stroke-linecap="butt" stroke-miterlimit="10" stroke-linejoin="miter" fill="none" stroke="#000000" d=""/>
<path transform="matrix(1.00003,0,0,-1.00005,59.796358,51.171957)" stroke-width=".3985" stroke-linecap="butt" stroke-miterlimit="10" stroke-linejoin="miter" fill="none" stroke="#000000" d="M-23.81116-19.04921-19.04893-23.81143-23.81116-28.57364"/>
<use data-text="C" xlink:href="#font_1_1" transform="matrix(8.966669,0,0,-8.966848,43.82187,77.67428)"/>
<path transform="matrix(1.00003,0,0,-1.00005,-74.60969,38.497323)" stroke-width=".3786" stroke-linecap="butt" stroke-miterlimit="10" stroke-linejoin="miter" fill="none" stroke="#000000" d="M147.869-31.723H155.137"/>
<use data-text="Q" xlink:href="#font_1_3" transform="matrix(8.966669,0,0,-8.966848,73.263759,77.67428)"/>
<use data-text="D" xlink:href="#font_1_2" transform="matrix(8.966669,0,0,-8.966848,39.05973,30.0499)"/>
<use data-text="Q" xlink:href="#font_1_3" transform="matrix(8.966669,0,0,-8.966848,73.263759,30.0499)"/>
<path transform="matrix(1.00003,0,0,-1.00005,59.796358,51.171957)" stroke-width=".3985" stroke-linecap="butt" stroke-miterlimit="10" stroke-linejoin="miter" fill="none" stroke="#000000" d="M-23.81116-23.81143H-31.74811"/>
<path transform="matrix(1.00003,0,0,-1.00005,59.796358,51.171957)" stroke-width=".3985" stroke-linecap="butt" stroke-miterlimit="10" stroke-linejoin="miter" fill="none" stroke="#000000" d="M23.81116-23.81143H31.74811"/>
<path transform="matrix(1.00003,0,0,-1.00005,59.796358,51.171957)" stroke-width=".3985" stroke-linecap="butt" stroke-miterlimit="10" stroke-linejoin="miter" fill="none" stroke="#000000" d="M-23.81116 23.81146H-31.74811"/>
<path transform="matrix(1.00003,0,0,-1.00005,59.796358,51.171957)" stroke-width=".3985" stroke-linecap="butt" stroke-miterlimit="10" stroke-linejoin="miter" fill="none" stroke="#000000" d="M23.81116 23.81146H31.74811"/>
<path transform="matrix(1.00003,0,0,-1.00005,59.796358,51.171957)" d="M-23.81116-23.81143C-23.81116-22.46124-24.90567-21.36674-26.25584-21.36674-27.60602-21.36674-28.70053-22.46124-28.70053-23.81143-28.70053-25.1616-27.60602-26.25612-26.25584-26.25612-24.90567-26.25612-23.81116-25.1616-23.81116-23.81143ZM-26.25584-23.81143" fill="#ffffff"/>
<path transform="matrix(1.00003,0,0,-1.00005,59.796358,51.171957)" stroke-width=".797" stroke-linecap="butt" stroke-miterlimit="10" stroke-linejoin="miter" fill="none" stroke="#000000" d="M-23.81116-23.81143C-23.81116-22.46124-24.90567-21.36674-26.25584-21.36674-27.60602-21.36674-28.70053-22.46124-28.70053-23.81143-28.70053-25.1616-27.60602-26.25612-26.25584-26.25612-24.90567-26.25612-23.81116-25.1616-23.81116-23.81143ZM-26.25584-23.81143"/>
<path transform="matrix(1.00003,0,0,-1.00005,59.796358,51.171957)" d="" fill="#ffffff"/>
<path transform="matrix(1.00003,0,0,-1.00005,59.796358,51.171957)" stroke-width=".797" stroke-linecap="butt" stroke-miterlimit="10" stroke-linejoin="miter" fill="none" stroke="#000000" d=""/>
<use data-text="1" xlink:href="#font_2_82" transform="matrix(9.962899,0,0,-9.963098,57.305284,54.49012)"/>
<path transform="matrix(1.00003,0,0,-1.00005,59.796358,51.171957)" stroke-width=".797" stroke-linecap="butt" stroke-miterlimit="10" stroke-linejoin="miter" fill="none" stroke="#000000" d="M53.85846-35.71721H101.480777V35.717149H53.85846Z"/>
<path transform="matrix(1.00003,0,0,-1.00005,59.796358,51.171957)" stroke-width=".797" stroke-linecap="butt" stroke-miterlimit="10" stroke-linejoin="miter" fill="none" stroke="#000000" d=""/>
<path transform="matrix(1.00003,0,0,-1.00005,59.796358,51.171957)" stroke-width=".3985" stroke-linecap="butt" stroke-miterlimit="10" stroke-linejoin="miter" fill="none" stroke="#000000" d="M53.85846-19.04924 58.62068-23.81146 53.85846-28.57367"/>
<use data-text="C" xlink:href="#font_1_1" transform="matrix(8.966669,0,0,-8.966848,121.4942,77.67428)"/>
<path transform="matrix(1.00003,0,0,-1.00005,3.0616456,38.497323)" stroke-width=".3786" stroke-linecap="butt" stroke-miterlimit="10" stroke-linejoin="miter" fill="none" stroke="#000000" d="M147.869-31.723H155.137"/>
<use data-text="Q" xlink:href="#font_1_3" transform="matrix(8.966669,0,0,-8.966848,150.93509,77.67428)"/>
<use data-text="D" xlink:href="#font_1_2" transform="matrix(8.966669,0,0,-8.966848,116.731067,30.0499)"/>
<use data-text="Q" xlink:href="#font_1_3" transform="matrix(8.966669,0,0,-8.966848,150.93509,30.0499)"/>
<path transform="matrix(1.00003,0,0,-1.00005,59.796358,51.171957)" stroke-width=".3985" stroke-linecap="butt" stroke-miterlimit="10" stroke-linejoin="miter" fill="none" stroke="#000000" d="M53.85846-23.81146H45.92151"/>
<path transform="matrix(1.00003,0,0,-1.00005,59.796358,51.171957)" stroke-width=".3985" stroke-linecap="butt" stroke-miterlimit="10" stroke-linejoin="miter" fill="none" stroke="#000000" d="M101.48079-23.81146H109.41774"/>
<path transform="matrix(1.00003,0,0,-1.00005,59.796358,51.171957)" stroke-width=".3985" stroke-linecap="butt" stroke-miterlimit="10" stroke-linejoin="miter" fill="none" stroke="#000000" d="M53.85846 23.81143H45.92151"/>
<path transform="matrix(1.00003,0,0,-1.00005,59.796358,51.171957)" stroke-width=".3985" stroke-linecap="butt" stroke-miterlimit="10" stroke-linejoin="miter" fill="none" stroke="#000000" d="M101.48079 23.81143H109.41774"/>
<path transform="matrix(1.00003,0,0,-1.00005,59.796358,51.171957)" d="M53.85846-23.81146C53.85846-22.46127 52.76395-21.36678 51.41377-21.36678 50.06358-21.36678 48.96907-22.46127 48.96907-23.81146 48.96907-25.16164 50.06358-26.25615 51.41377-26.25615 52.76395-26.25615 53.85846-25.16164 53.85846-23.81146ZM51.41377-23.81146" fill="#ffffff"/>
<path transform="matrix(1.00003,0,0,-1.00005,59.796358,51.171957)" stroke-width=".797" stroke-linecap="butt" stroke-miterlimit="10" stroke-linejoin="miter" fill="none" stroke="#000000" d="M53.85846-23.81146C53.85846-22.46127 52.76395-21.36678 51.41377-21.36678 50.06358-21.36678 48.96907-22.46127 48.96907-23.81146 48.96907-25.16164 50.06358-26.25615 51.41377-26.25615 52.76395-26.25615 53.85846-25.16164 53.85846-23.81146ZM51.41377-23.81146"/>
<path transform="matrix(1.00003,0,0,-1.00005,59.796358,51.171957)" d="" fill="#ffffff"/>
<path transform="matrix(1.00003,0,0,-1.00005,59.796358,51.171957)" stroke-width=".797" stroke-linecap="butt" stroke-miterlimit="10" stroke-linejoin="miter" fill="none" stroke="#000000" d=""/>
<use data-text="2" xlink:href="#font_2_107" transform="matrix(9.962899,0,0,-9.963098,134.97762,54.49012)"/>
<path transform="matrix(1.00003,0,0,-1.00005,59.796358,51.171957)" stroke-width=".797" stroke-linecap="butt" stroke-miterlimit="10" stroke-linejoin="miter" fill="none" stroke="#000000" d="M131.52809-35.71724H179.1504V35.717119H131.52809Z"/>
<path transform="matrix(1.00003,0,0,-1.00005,59.796358,51.171957)" stroke-width=".797" stroke-linecap="butt" stroke-miterlimit="10" stroke-linejoin="miter" fill="none" stroke="#000000" d=""/>
<path transform="matrix(1.00003,0,0,-1.00005,59.796358,51.171957)" stroke-width=".3985" stroke-linecap="butt" stroke-miterlimit="10" stroke-linejoin="miter" fill="none" stroke="#000000" d="M131.52809-19.04927 136.2903-23.8115 131.52809-28.5737"/>
<use data-text="C" xlink:href="#font_1_1" transform="matrix(8.966669,0,0,-8.966848,199.16553,77.67428)"/>
<path transform="matrix(1.00003,0,0,-1.00005,80.73398,38.497323)" stroke-width=".3786" stroke-linecap="butt" stroke-miterlimit="10" stroke-linejoin="miter" fill="none" stroke="#000000" d="M147.869-31.723H155.137"/>
<use data-text="Q" xlink:href="#font_1_3" transform="matrix(8.966669,0,0,-8.966848,228.60742,77.67428)"/>
<use data-text="D" xlink:href="#font_1_2" transform="matrix(8.966669,0,0,-8.966848,194.4034,30.0499)"/>
<use data-text="Q" xlink:href="#font_1_3" transform="matrix(8.966669,0,0,-8.966848,228.60742,30.0499)"/>
<path transform="matrix(1.00003,0,0,-1.00005,59.796358,51.171957)" stroke-width=".3985" stroke-linecap="butt" stroke-miterlimit="10" stroke-linejoin="miter" fill="none" stroke="#000000" d="M131.52809-23.8115H123.59114"/>
<path transform="matrix(1.00003,0,0,-1.00005,59.796358,51.171957)" stroke-width=".3985" stroke-linecap="butt" stroke-miterlimit="10" stroke-linejoin="miter" fill="none" stroke="#000000" d="M179.1504-23.8115H187.08737"/>
<path transform="matrix(1.00003,0,0,-1.00005,59.796358,51.171957)" stroke-width=".3985" stroke-linecap="butt" stroke-miterlimit="10" stroke-linejoin="miter" fill="none" stroke="#000000" d="M131.52809 23.8114H123.59114"/>
<path transform="matrix(1.00003,0,0,-1.00005,59.796358,51.171957)" stroke-width=".3985" stroke-linecap="butt" stroke-miterlimit="10" stroke-linejoin="miter" fill="none" stroke="#000000" d="M179.1504 23.8114H187.08737"/>
<path transform="matrix(1.00003,0,0,-1.00005,59.796358,51.171957)" d="M131.52809-23.8115C131.52809-22.4613 130.43358-21.3668 129.08339-21.3668 127.73322-21.3668 126.6387-22.4613 126.6387-23.8115 126.6387-25.16167 127.73322-26.25618 129.08339-26.25618 130.43358-26.25618 131.52809-25.16167 131.52809-23.8115ZM129.08339-23.8115" fill="#ffffff"/>
<path transform="matrix(1.00003,0,0,-1.00005,59.796358,51.171957)" stroke-width=".797" stroke-linecap="butt" stroke-miterlimit="10" stroke-linejoin="miter" fill="none" stroke="#000000" d="M131.52809-23.8115C131.52809-22.4613 130.43358-21.3668 129.08339-21.3668 127.73322-21.3668 126.6387-22.4613 126.6387-23.8115 126.6387-25.16167 127.73322-26.25618 129.08339-26.25618 130.43358-26.25618 131.52809-25.16167 131.52809-23.8115ZM129.08339-23.8115"/>
<path transform="matrix(1.00003,0,0,-1.00005,59.796358,51.171957)" d="" fill="#ffffff"/>
<path transform="matrix(1.00003,0,0,-1.00005,59.796358,51.171957)" stroke-width=".797" stroke-linecap="butt" stroke-miterlimit="10" stroke-linejoin="miter" fill="none" stroke="#000000" d=""/>
<use data-text="3" xlink:href="#font_2_106" transform="matrix(9.962899,0,0,-9.963098,212.64995,54.380117)"/>
<path transform="matrix(1.00003,0,0,-1.00005,59.796358,51.171957)" stroke-width=".797" stroke-linecap="butt" stroke-miterlimit="10" stroke-linejoin="miter" fill="none" stroke="#000000" d="M209.19773-35.71727H256.82005V35.717088H209.19773Z"/>
<path transform="matrix(1.00003,0,0,-1.00005,59.796358,51.171957)" stroke-width=".797" stroke-linecap="butt" stroke-miterlimit="10" stroke-linejoin="miter" fill="none" stroke="#000000" d=""/>
<path transform="matrix(1.00003,0,0,-1.00005,59.796358,51.171957)" stroke-width=".3985" stroke-linecap="butt" stroke-miterlimit="10" stroke-linejoin="miter" fill="none" stroke="#000000" d="M209.19773-19.0493 213.95993-23.81152 209.19773-28.57373"/>
<use data-text="C" xlink:href="#font_1_1" transform="matrix(8.966669,0,0,-8.966848,276.8379,77.67528)"/>
<path transform="matrix(1.00003,0,0,-1.00005,158.40631,38.49832)" stroke-width=".3786" stroke-linecap="butt" stroke-miterlimit="10" stroke-linejoin="miter" fill="none" stroke="#000000" d="M147.869-31.723H155.137"/>
<use data-text="Q" xlink:href="#font_1_3" transform="matrix(8.966669,0,0,-8.966848,306.27976,77.67528)"/>
<use data-text="D" xlink:href="#font_1_2" transform="matrix(8.966669,0,0,-8.966848,272.07575,30.0499)"/>
<use data-text="Q" xlink:href="#font_1_3" transform="matrix(8.966669,0,0,-8.966848,306.27976,30.0499)"/>
<path transform="matrix(1.00003,0,0,-1.00005,59.796358,51.171957)" stroke-width=".3985" stroke-linecap="butt" stroke-miterlimit="10" stroke-linejoin="miter" fill="none" stroke="#000000" d="M209.19773-23.81152H201.26076"/>
<path transform="matrix(1.00003,0,0,-1.00005,59.796358,51.171957)" stroke-width=".3985" stroke-linecap="butt" stroke-miterlimit="10" stroke-linejoin="miter" fill="none" stroke="#000000" d="M256.82005-23.81152H264.757"/>
<path transform="matrix(1.00003,0,0,-1.00005,59.796358,51.171957)" stroke-width=".3985" stroke-linecap="butt" stroke-miterlimit="10" stroke-linejoin="miter" fill="none" stroke="#000000" d="M209.19773 23.81137H201.26076"/>
<path transform="matrix(1.00003,0,0,-1.00005,59.796358,51.171957)" stroke-width=".3985" stroke-linecap="butt" stroke-miterlimit="10" stroke-linejoin="miter" fill="none" stroke="#000000" d="M256.82005 23.81137H264.757"/>
<path transform="matrix(1.00003,0,0,-1.00005,59.796358,51.171957)" d="M209.19773-23.81152C209.19773-22.46133 208.10321-21.36684 206.75302-21.36684 205.40285-21.36684 204.30834-22.46133 204.30834-23.81152 204.30834-25.1617 205.40285-26.25621 206.75302-26.25621 208.10321-26.25621 209.19773-25.1617 209.19773-23.81152ZM206.75302-23.81152" fill="#ffffff"/>
<path transform="matrix(1.00003,0,0,-1.00005,59.796358,51.171957)" stroke-width=".797" stroke-linecap="butt" stroke-miterlimit="10" stroke-linejoin="miter" fill="none" stroke="#000000" d="M209.19773-23.81152C209.19773-22.46133 208.10321-21.36684 206.75302-21.36684 205.40285-21.36684 204.30834-22.46133 204.30834-23.81152 204.30834-25.1617 205.40285-26.25621 206.75302-26.25621 208.10321-26.25621 209.19773-25.1617 209.19773-23.81152ZM206.75302-23.81152"/>
<path transform="matrix(1.00003,0,0,-1.00005,59.796358,51.171957)" d="" fill="#ffffff"/>
<path transform="matrix(1.00003,0,0,-1.00005,59.796358,51.171957)" stroke-width=".797" stroke-linecap="butt" stroke-miterlimit="10" stroke-linejoin="miter" fill="none" stroke="#000000" d=""/>
<use data-text="4" xlink:href="#font_2_57" transform="matrix(9.962899,0,0,-9.963098,290.3213,54.544126)"/>
<path transform="matrix(1.00003,0,0,-1.00005,59.796358,51.171957)" d="M47.50865-52.15823C47.50865-51.28168 46.79807-50.57109 45.92151-50.57109 45.04494-50.57109 44.33435-51.28168 44.33435-52.15823 44.33435-53.0348 45.04494-53.74539 45.92151-53.74539 46.79807-53.74539 47.50865-53.0348 47.50865-52.15823ZM45.92151-52.15823"/>
<path transform="matrix(1.00003,0,0,-1.00005,59.796358,51.171957)" stroke-width=".3985" stroke-linecap="butt" stroke-miterlimit="10" stroke-linejoin="miter" fill="none" stroke="#000000" d="M47.50865-52.15823C47.50865-51.28168 46.79807-50.57109 45.92151-50.57109 45.04494-50.57109 44.33435-51.28168 44.33435-52.15823 44.33435-53.0348 45.04494-53.74539 45.92151-53.74539 46.79807-53.74539 47.50865-53.0348 47.50865-52.15823ZM45.92151-52.15823"/>
<path transform="matrix(1.00003,0,0,-1.00005,59.796358,51.171957)" d="M125.17828-52.15823C125.17828-51.28168 124.4677-50.57109 123.59114-50.57109 122.71457-50.57109 122.00398-51.28168 122.00398-52.15823 122.00398-53.0348 122.71457-53.74539 123.59114-53.74539 124.4677-53.74539 125.17828-53.0348 125.17828-52.15823ZM123.59114-52.15823"/>
<path transform="matrix(1.00003,0,0,-1.00005,59.796358,51.171957)" stroke-width=".3985" stroke-linecap="butt" stroke-miterlimit="10" stroke-linejoin="miter" fill="none" stroke="#000000" d="M125.17828-52.15823C125.17828-51.28168 124.4677-50.57109 123.59114-50.57109 122.71457-50.57109 122.00398-51.28168 122.00398-52.15823 122.00398-53.0348 122.71457-53.74539 123.59114-53.74539 124.4677-53.74539 125.17828-53.0348 125.17828-52.15823ZM123.59114-52.15823"/>
<path transform="matrix(1.00003,0,0,-1.00005,59.796358,51.171957)" d="M-30.16096-52.15823C-30.16096-51.28168-30.87155-50.57109-31.74811-50.57109-32.62466-50.57109-33.33525-51.28168-33.33525-52.15823-33.33525-53.0348-32.62466-53.74539-31.74811-53.74539-30.87155-53.74539-30.16096-53.0348-30.16096-52.15823ZM-31.74811-52.15823"/>
<path transform="matrix(1.00003,0,0,-1.00005,59.796358,51.171957)" stroke-width=".3985" stroke-linecap="butt" stroke-miterlimit="10" stroke-linejoin="miter" fill="none" stroke="#000000" d="M-30.16096-52.15823C-30.16096-51.28168-30.87155-50.57109-31.74811-50.57109-32.62466-50.57109-33.33525-51.28168-33.33525-52.15823-33.33525-53.0348-32.62466-53.74539-31.74811-53.74539-30.87155-53.74539-30.16096-53.0348-30.16096-52.15823ZM-31.74811-52.15823"/>
<use data-text="C" xlink:href="#font_3_1" transform="matrix(9.962899,0,0,-9.963098,2.519638,106.73673)"/>
<use data-text="I" xlink:href="#font_2_65" transform="matrix(9.962899,0,0,-9.963098,1.2176056,30.761937)"/>
<use data-text="n" xlink:href="#font_2_77" transform="matrix(9.962899,0,0,-9.963098,4.814209,30.761937)"/>
<path transform="matrix(1.00003,0,0,-1.00005,59.796358,51.171957)" d="M40.42195 23.81143C40.42195 24.68799 39.71136 25.39857 38.8348 25.39857 37.95824 25.39857 37.24765 24.68799 37.24765 23.81143 37.24765 22.93486 37.95824 22.22429 38.8348 22.22429 39.71136 22.22429 40.42195 22.93486 40.42195 23.81143ZM38.8348 23.81143"/>
<path transform="matrix(1.00003,0,0,-1.00005,59.796358,51.171957)" stroke-width=".3985" stroke-linecap="butt" stroke-miterlimit="10" stroke-linejoin="miter" fill="none" stroke="#000000" d="M40.42195 23.81143C40.42195 24.68799 39.71136 25.39857 38.8348 25.39857 37.95824 25.39857 37.24765 24.68799 37.24765 23.81143 37.24765 22.93486 37.95824 22.22429 38.8348 22.22429 39.71136 22.22429 40.42195 22.93486 40.42195 23.81143ZM38.8348 23.81143"/>
<use data-text="Q" xlink:href="#font_3_2" transform="matrix(9.962899,0,0,-9.963098,92.459339,7.727783)"/>
<use data-text="1" xlink:href="#font_4_1" transform="matrix(6.9740097,0,0,-6.9741489,100.33559,9.221859)"/>
<path transform="matrix(1.00003,0,0,-1.00005,59.796358,51.171957)" d="M118.09157 23.8114C118.09157 24.68796 117.381 25.39854 116.50443 25.39854 115.62787 25.39854 114.91728 24.68796 114.91728 23.8114 114.91728 22.93483 115.62787 22.22426 116.50443 22.22426 117.381 22.22426 118.09157 22.93483 118.09157 23.8114ZM116.50443 23.8114"/>
<path transform="matrix(1.00003,0,0,-1.00005,59.796358,51.171957)" stroke-width=".3985" stroke-linecap="butt" stroke-miterlimit="10" stroke-linejoin="miter" fill="none" stroke="#000000" d="M118.09157 23.8114C118.09157 24.68796 117.381 25.39854 116.50443 25.39854 115.62787 25.39854 114.91728 24.68796 114.91728 23.8114 114.91728 22.93483 115.62787 22.22426 116.50443 22.22426 117.381 22.22426 118.09157 22.93483 118.09157 23.8114ZM116.50443 23.8114"/>
<use data-text="Q" xlink:href="#font_3_2" transform="matrix(9.962899,0,0,-9.963098,170.13167,7.727783)"/>
<use data-text="2" xlink:href="#font_4_2" transform="matrix(6.9740097,0,0,-6.9741489,178.00792,9.221859)"/>
<path transform="matrix(1.00003,0,0,-1.00005,59.796358,51.171957)" d="M195.7612 23.81137C195.7612 24.68793 195.05062 25.39851 194.17406 25.39851 193.2975 25.39851 192.58692 24.68793 192.58692 23.81137 192.58692 22.9348 193.2975 22.22423 194.17406 22.22423 195.05062 22.22423 195.7612 22.9348 195.7612 23.81137ZM194.17406 23.81137"/>
<path transform="matrix(1.00003,0,0,-1.00005,59.796358,51.171957)" stroke-width=".3985" stroke-linecap="butt" stroke-miterlimit="10" stroke-linejoin="miter" fill="none" stroke="#000000" d="M195.7612 23.81137C195.7612 24.68793 195.05062 25.39851 194.17406 25.39851 193.2975 25.39851 192.58692 24.68793 192.58692 23.81137 192.58692 22.9348 193.2975 22.22423 194.17406 22.22423 195.05062 22.22423 195.7612 22.9348 195.7612 23.81137ZM194.17406 23.81137"/>
<use data-text="Q" xlink:href="#font_3_2" transform="matrix(9.962899,0,0,-9.963098,247.80301,7.727783)"/>
<use data-text="3" xlink:href="#font_4_3" transform="matrix(6.9740097,0,0,-6.9741489,255.67926,9.221859)"/>
<use data-text="Q" xlink:href="#font_3_2" transform="matrix(9.962899,0,0,-9.963098,318.38816,7.727783)"/>
<use data-text="4" xlink:href="#font_4_4" transform="matrix(6.9740097,0,0,-6.9741489,326.2644,9.221859)"/>
</svg>
