<svg xmlns="http://www.w3.org/2000/svg" xmlns:xlink="http://www.w3.org/1999/xlink" xmlns:inkscape="http://www.inkscape.org/namespaces/inkscape" version="1.1" width="115" height="92" viewBox="0 0 115 92">
<defs>
<path id="font_1_2" d="M.375 .6136017C.3809967 .63760378 .38398744 .6476135 .40299989 .65060427 .4119873 .6516113 .44400025 .6516113 .46398927 .6516113 .5349884 .6516113 .6459961 .6516113 .6459961 .5525818 .6459961 .51856997 .6299896 .44955445 .59098818 .41055299 .5649872 .38453675 .5119934 .35253907 .42199708 .35253907H.30999757L.375 .6136017M.5189972 .33953858C.6199951 .3615265 .7389984 .43154908 .7389984 .5325775 .7389984 .61860659 .6489868 .6826172 .5179901 .6826172H.23298645C.21299744 .6826172 .20399475 .6826172 .20399475 .6626129 .20399475 .6516113 .21299744 .6516113 .23199463 .6516113 .23399353 .6516113 .25299073 .6516113 .269989 .6496124 .28799439 .6476135 .29699708 .64660647 .29699708 .63360598 .29699708 .62960818 .29599 .6266022 .29299928 .6145935L.15899658 .07752991C.14898682 .038528444 .14698792 .030532837 .067993167 .030532837 .049987794 .030532837 .040985109 .030532837 .040985109 .010528564 .040985109-.00047302247 .052993776-.00047302247 .054992677-.00047302247 .08299255-.00047302247 .15299988 .002532959 .18099976 .002532959 .20899964 .002532959 .27999879-.00047302247 .30799867-.00047302247 .31599427-.00047302247 .32798768-.00047302247 .32798768 .01953125 .32798768 .030532837 .31900025 .030532837 .2999878 .030532837 .2630005 .030532837 .23498535 .030532837 .23498535 .048538209 .23498535 .054534913 .23699951 .059524537 .23799134 .0655365L.3039856 .3305359H.4229889C.5139923 .3305359 .5319977 .27453614 .5319977 .23953247 .5319977 .22453308 .5239868 .19352722 .5179901 .17053223 .5109863 .14253235 .5019989 .105529788 .5019989 .08552551 .5019989-.022460938 .621994-.022460938 .6349945-.022460938 .7200012-.022460938 .7549896 .07853699 .7549896 .0925293 .7549896 .104537967 .74398806 .104537967 .7429962 .104537967 .73399356 .104537967 .7319946 .09753418 .7299957 .090530399 .7049866 .016525269 .6619873-.00047302247 .6389923-.00047302247 .60598757-.00047302247 .598999 .021530152 .598999 .060531618 .598999 .091537479 .6049957 .14253235 .60899356 .17453003 .61099246 .1885376 .61299136 .20753479 .61299136 .2215271 .61299136 .2985382 .54599 .3295288 .5189972 .33953858Z"/>
<path id="font_1_3" d="M.644989 .69506838C.644989 .69807437 .6429901 .7050781 .6339874 .7050781 .6289978 .7050781 .6279907 .70407107 .6159973 .6900635L.56799319 .6330414C.5419922 .68006899 .48999024 .7050781 .4249878 .7050781 .2979889 .7050781 .17799378 .58999636 .17799378 .4689026 .17799378 .38783265 .23098755 .34179688 .28199769 .32678224L.3889923 .2987671C.42599488 .2897644 .48098756 .27474977 .48098756 .19267273 .48098756 .1026001 .39898683 .008529663 .30099488 .008529663 .23699951 .008529663 .12599182 .030548096 .12599182 .15464783 .12599182 .17866516 .1309967 .2026825 .13198853 .20869446 .1329956 .21269226 .13398743 .21369934 .13398743 .21569824 .13398743 .22570801 .1269989 .22669983 .12199402 .22669983 .116989139 .22669983 .114990238 .22570801 .11199951 .22270203 .10798645 .21870423 .051986696-.009475708 .051986696-.012466431 .051986696-.018463135 .056991579-.022460938 .06298828-.022460938 .067993167-.022460938 .068984989-.021469117 .08099365-.007461548L.12998963 .049560548C.17298889-.008468628 .24099732-.022460938 .29899598-.022460938 .43499757-.022460938 .5529938 .11061096 .5529938 .2347107 .5529938 .30377198 .5189972 .33779908 .5039978 .35180665 .48098756 .37483216 .46598817 .37882997 .3769989 .40185548 .35499574 .40785218 .31900025 .41786195 .30999757 .41986085 .2829895 .42886354 .24899292 .457901 .24899292 .51094058 .24899292 .59199526 .32899476 .677063 .42399598 .677063 .5069885 .677063 .56799319 .6340332 .56799319 .52194216 .56799319 .48991395 .56399539 .47190858 .56399539 .4658966 .56399539 .4649048 .56399539 .45588685 .57598879 .45588685 .58599856 .45588685 .58699038 .45889283 .59098818 .47590638L.644989 .69506838Z"/>
<path id="font_1_1" d="M.43798829 .0055236818C.59298709 .0644989 .73999026 .24256897 .73999026 .43579103 .73999026 .5969696 .6339874 .7050781 .4850006 .7050781 .2689972 .7050781 .04899597 .47784425 .04899597 .24456787 .04899597 .07847595 .16099549-.022460938 .30499269-.022460938 .32998658-.022460938 .3639984-.018463135 .40299989-.007461548 .39898683-.06939697 .39898683-.071380618 .39898683-.084365848 .39898683-.11634827 .39898683-.19433594 .48199464-.19433594 .6009979-.19433594 .6489868-.011474609 .6489868-.00047302247 .6489868 .0065307619 .6419983 .009521484 .6380005 .009521484 .6299896 .009521484 .6279907 .0045318605 .6259918-.0014648438 .60198977-.072387699 .5439911-.097335819 .5089874-.097335819 .46299745-.097335819 .44799806-.070388797 .43798829 .0055236818M.24899292 .013519287C.17098999 .044509889 .13699341 .12245178 .13699341 .21252442 .13699341 .2816162 .16299439 .4237671 .23899842 .5319061 .31199647 .63401797 .4059906 .68006899 .47898866 .68006899 .57899478 .68006899 .6519928 .6019745 .6519928 .4678192 .6519928 .3677063 .6009979 .13345337 .43299867 .039505006 .42799378 .07447815 .41799928 .14746094 .34498597 .14746094 .2919922 .14746094 .24299622 .097473148 .24299622 .04550171 .24299622 .025512696 .24899292 .014526367 .24899292 .013519287M.31098939 .002532959C.29699708 .002532959 .2649994 .002532959 .2649994 .04550171 .2649994 .08547974 .30299378 .12545777 .34498597 .12545777 .3869934 .12545777 .4059906 .10147095 .4059906 .040512086 .4059906 .025512696 .40499879 .024520874 .394989 .020523072 .36898805 .009521484 .33898927 .002532959 .31098939 .002532959Z"/>
</defs>
<path transform="matrix(1.00005,0,0,-1.00002,57.203096,17.873038)" stroke-width=".3985" stroke-linecap="butt" stroke-miterlimit="10" stroke-linejoin="miter" fill="none" stroke="#000000" d="M-30.64835-7.93695-30.64833-15.02364M-30.64833-15.02364-30.64835-22.11034 0-32.31528M0-32.31528 30.64835-42.52023 30.64833-49.60692M30.64833-49.60692 30.64835-56.69363M-30.64835-48.75667-30.64833-41.66997M-30.64833-41.66997-30.64835-34.58328 0-24.37833M0-24.37833 30.64835-14.17339 30.64833-7.08669M30.64833-7.08669 30.64835 0M-30.64835 7.93695H-37.73505M-37.73505 7.93695H-44.82175M-30.64835-64.63058-37.73505-64.63057M-37.73505-64.63057-44.82175-64.63058M30.64835 0H37.73505M37.73505 0H44.82175M30.64835-56.69363 37.73505-56.69362M37.73505-56.69362 44.82175-56.69363"/>
<path transform="matrix(1.00005,0,0,-1.00002,57.203096,17.873038)" stroke-width=".3985" stroke-linecap="butt" stroke-miterlimit="10" stroke-linejoin="miter" fill="none" stroke="#000000" d="M-19.53711 7.93695H-30.64835M-19.53711-7.93695H-30.64835"/>
<path transform="matrix(1.00005,0,0,-1.00002,57.203096,17.873038)" stroke-width=".797" stroke-linecap="butt" stroke-miterlimit="10" stroke-linejoin="miter" fill="none" stroke="#000000" d="M-19.53711 15.8739H3.66321C12.43024 15.8739 19.53712 8.76701 19.53712 0 19.53712-8.76701 12.43024-15.8739 3.66321-15.8739H-19.53711Z"/>
<path transform="matrix(1.00005,0,0,-1.00002,57.203096,17.873038)" stroke-width=".3985" stroke-linecap="butt" stroke-miterlimit="10" stroke-linejoin="miter" fill="none" stroke="#000000" d="M24.42648 0H30.64835"/>
<path transform="matrix(1.00005,0,0,-1.00002,57.203096,17.873038)" d="M24.42648 0C24.42648 1.35017 23.33197 2.44469 21.9818 2.44469 20.63162 2.44469 19.53711 1.35017 19.53711 0 19.53711-1.35017 20.63162-2.44469 21.9818-2.44469 23.33197-2.44469 24.42648-1.35017 24.42648 0ZM21.9818 0" fill="#ffffff"/>
<path transform="matrix(1.00005,0,0,-1.00002,57.203096,17.873038)" stroke-width=".797" stroke-linecap="butt" stroke-miterlimit="10" stroke-linejoin="miter" fill="none" stroke="#000000" d="M24.42648 0C24.42648 1.35017 23.33197 2.44469 21.9818 2.44469 20.63162 2.44469 19.53711 1.35017 19.53711 0 19.53711-1.35017 20.63162-2.44469 21.9818-2.44469 23.33197-2.44469 24.42648-1.35017 24.42648 0ZM21.9818 0"/>
<path transform="matrix(1.00005,0,0,-1.00002,57.203096,17.873038)" d="" fill="#ffffff"/>
<path transform="matrix(1.00005,0,0,-1.00002,57.203096,17.873038)" stroke-width=".797" stroke-linecap="butt" stroke-miterlimit="10" stroke-linejoin="miter" fill="none" stroke="#000000" d=""/>
<path transform="matrix(1.00005,0,0,-1.00002,57.203096,17.873038)" stroke-width=".3985" stroke-linecap="butt" stroke-miterlimit="10" stroke-linejoin="miter" fill="none" stroke="#000000" d="M-19.53711-48.75667H-30.64835M-19.53711-64.63058H-30.64835"/>
<path transform="matrix(1.00005,0,0,-1.00002,57.203096,17.873038)" stroke-width=".797" stroke-linecap="butt" stroke-miterlimit="10" stroke-linejoin="miter" fill="none" stroke="#000000" d="M-19.53711-40.81972H3.66321C12.43024-40.81972 19.53712-47.9266 19.53712-56.69363 19.53712-65.46065 12.43024-72.56754 3.66321-72.56754H-19.53711Z"/>
<path transform="matrix(1.00005,0,0,-1.00002,57.203096,17.873038)" stroke-width=".3985" stroke-linecap="butt" stroke-miterlimit="10" stroke-linejoin="miter" fill="none" stroke="#000000" d="M24.42648-56.69363H30.64835"/>
<path transform="matrix(1.00005,0,0,-1.00002,57.203096,17.873038)" d="M24.42648-56.69363C24.42648-55.34344 23.33197-54.24893 21.9818-54.24893 20.63162-54.24893 19.53711-55.34344 19.53711-56.69363 19.53711-58.04381 20.63162-59.13832 21.9818-59.13832 23.33197-59.13832 24.42648-58.04381 24.42648-56.69363ZM21.9818-56.69363" fill="#ffffff"/>
<path transform="matrix(1.00005,0,0,-1.00002,57.203096,17.873038)" stroke-width=".797" stroke-linecap="butt" stroke-miterlimit="10" stroke-linejoin="miter" fill="none" stroke="#000000" d="M24.42648-56.69363C24.42648-55.34344 23.33197-54.24893 21.9818-54.24893 20.63162-54.24893 19.53711-55.34344 19.53711-56.69363 19.53711-58.04381 20.63162-59.13832 21.9818-59.13832 23.33197-59.13832 24.42648-58.04381 24.42648-56.69363ZM21.9818-56.69363"/>
<path transform="matrix(1.00005,0,0,-1.00002,57.203096,17.873038)" d="" fill="#ffffff"/>
<path transform="matrix(1.00005,0,0,-1.00002,57.203096,17.873038)" stroke-width=".797" stroke-linecap="butt" stroke-miterlimit="10" stroke-linejoin="miter" fill="none" stroke="#000000" d=""/>
<path transform="matrix(1.00005,0,0,-1.00002,-140.98979,12.461929)" stroke-width=".3985" stroke-linecap="butt" stroke-miterlimit="10" stroke-linejoin="miter" fill="none" stroke="#000000" d="M142.2 6.329H149.841"/>
<use data-text="R" xlink:href="#font_1_2" transform="matrix(9.963098,0,0,-9.962799,1.2173004,14.335967)"/>
<path transform="matrix(1.00005,0,0,-1.00002,-140.03174,85.03138)" stroke-width=".3985" stroke-linecap="butt" stroke-miterlimit="10" stroke-linejoin="miter" fill="none" stroke="#000000" d="M142.2 6.329H148.883"/>
<use data-text="S" xlink:href="#font_1_3" transform="matrix(9.963098,0,0,-9.962799,2.175354,86.90542)"/>
<path transform="matrix(1.00005,0,0,-1.00002,57.203096,17.873038)" d="M32.2355 0C32.2355 .87656 31.52492 1.58714 30.64835 1.58714 29.77179 1.58714 29.0612 .87656 29.0612 0 29.0612-.87656 29.77179-1.58714 30.64835-1.58714 31.52492-1.58714 32.2355-.87656 32.2355 0ZM30.64835 0"/>
<path transform="matrix(1.00005,0,0,-1.00002,57.203096,17.873038)" stroke-width=".3985" stroke-linecap="butt" stroke-miterlimit="10" stroke-linejoin="miter" fill="none" stroke="#000000" d="M32.2355 0C32.2355 .87656 31.52492 1.58714 30.64835 1.58714 29.77179 1.58714 29.0612 .87656 29.0612 0 29.0612-.87656 29.77179-1.58714 30.64835-1.58714 31.52492-1.58714 32.2355-.87656 32.2355 0ZM30.64835 0"/>
<use data-text="Q" xlink:href="#font_1_1" transform="matrix(9.963098,0,0,-9.962799,105.54751,20.308085)"/>
<path transform="matrix(1.00005,0,0,-1.00002,57.203096,17.873038)" d="M32.2355-56.69363C32.2355-55.81706 31.52492-55.10648 30.64835-55.10648 29.77179-55.10648 29.0612-55.81706 29.0612-56.69363 29.0612-57.57019 29.77179-58.28078 30.64835-58.28078 31.52492-58.28078 32.2355-57.57019 32.2355-56.69363ZM30.64835-56.69363"/>
<path transform="matrix(1.00005,0,0,-1.00002,57.203096,17.873038)" stroke-width=".3985" stroke-linecap="butt" stroke-miterlimit="10" stroke-linejoin="miter" fill="none" stroke="#000000" d="M32.2355-56.69363C32.2355-55.81706 31.52492-55.10648 30.64835-55.10648 29.77179-55.10648 29.0612-55.81706 29.0612-56.69363 29.0612-57.57019 29.77179-58.28078 30.64835-58.28078 31.52492-58.28078 32.2355-57.57019 32.2355-56.69363ZM30.64835-56.69363"/>
<path transform="matrix(1.00005,0,0,-1.00002,-36.659585,76.125209)" stroke-width=".3985" stroke-linecap="butt" stroke-miterlimit="10" stroke-linejoin="miter" fill="none" stroke="#000000" d="M142.2 6.329H150.076"/>
<use data-text="Q" xlink:href="#font_1_1" transform="matrix(9.963098,0,0,-9.962799,105.54751,77.999248)"/>
</svg>
