<svg xmlns="http://www.w3.org/2000/svg" xmlns:xlink="http://www.w3.org/1999/xlink" xmlns:inkscape="http://www.inkscape.org/namespaces/inkscape" version="1.1" width="215" height="126" viewBox="0 0 215 126">
<defs>
<path id="font_1_1" d="M.54100039 .6096039C.548996 .64260867 .5509949 .6516113 .60598757 .6516113 .621994 .6516113 .6329956 .6516113 .6329956 .6706085 .6329956 .6796112 .6269989 .6826172 .61898806 .6826172 .59399417 .6826172 .5329895 .6796112 .5079956 .6796112 .47499085 .6796112 .3939972 .6826172 .36099244 .6826172 .35198976 .6826172 .33999635 .6826172 .33999635 .6626129 .33999635 .6516113 .34799195 .6516113 .37399293 .6516113 .39698792 .6516113 .40699769 .6516113 .43199159 .6496124 .45599366 .64660647 .46299745 .64360049 .46299745 .62960818 .46299745 .62361147 .46099855 .61660769 .45899964 .60861209L.34399415 .1496582C.31999208 .052642824 .2519989-.00047302247 .19999695-.00047302247 .17399597-.00047302247 .12098694 .009552002 .10499573 .061660768 .10798645 .060653688 .114990238 .060653688 .116989139 .060653688 .1559906 .060653688 .18199158 .09465027 .18199158 .12464905 .18199158 .15666199 .15499878 .1666565 .13798523 .1666565 .11999512 .1666565 .070999149 .15466309 .070999149 .08665466 .070999149 .02458191 .12399292-.022460938 .20298767-.022460938 .29499818-.022460938 .39898683 .043624879 .42399598 .14265442L.54100039 .6096039Z"/>
<path id="font_1_2" d="M.5089874 .40376283C.5079956 .40675355 .5039978 .41474916 .5039978 .41775514 .5039978 .41874696 .5219879 .43273927 .5329895 .44073487L.70799258 .5756531C.8019867 .64460757 .84098818 .64860537 .87098696 .6516113 .8789978 .65260317 .8889923 .6536102 .8889923 .6716156 .8889923 .6756134 .8860016 .6826172 .8779907 .6826172 .85598757 .6826172 .83099368 .6796112 .8069916 .6796112 .7709961 .6796112 .7319946 .6826172 .69599917 .6826172 .68899539 .6826172 .6769867 .6826172 .6769867 .6626129 .6769867 .65560916 .6819916 .65260317 .68899539 .6516113 .71099856 .6496124 .7200012 .64460757 .7200012 .63061526 .7200012 .6126251 .6899872 .5896454 .6839905 .5846405L.2939911 .28483583 .37399293 .6056366C.3829956 .6416168 .3849945 .6516113 .45799256 .6516113 .48298646 .6516113 .49198915 .6516113 .49198915 .6716156 .49198915 .680603 .48399354 .6826172 .47799684 .6826172 .44999696 .6826172 .37799073 .6796112 .34999085 .6796112 .32099916 .6796112 .25 .6826172 .22099304 .6826172 .21398926 .6826172 .20098877 .6826172 .20098877 .66360476 .20098877 .6516113 .20999146 .6516113 .22999573 .6516113 .24299622 .6516113 .26098634 .65060427 .272995 .6496124 .2889862 .6476135 .29499818 .64460757 .29499818 .6336212 .29499818 .6296234 .2939911 .62661746 .29100038 .614624L.15699768 .07795715C.14698792 .038986207 .14498902 .0309906 .06599426 .0309906 .04899597 .0309906 .037994386 .0309906 .037994386 .011993408 .037994386 0 .049987794 0 .052993776 0 .08099365 0 .1519928 .0029907227 .17999268 .0029907227 .20098877 .0029907227 .22299195 .0019989014 .24398804 .0019989014 .2659912 .0019989014 .28799439 0 .30899049 0 .31599427 0 .32899476 0 .32899476 .019989014 .32899476 .0309906 .31999208 .0309906 .30099488 .0309906 .2639923 .0309906 .23599243 .0309906 .23599243 .048980714 .23599243 .05596924 .24198914 .07795715 .24499512 .09295654 .25898744 .14492798 .27198792 .19789124 .2849884 .24986267L.43399049 .3657837 .5499878 .096954349C.56199648 .06996155 .56199648 .06796265 .56199648 .061965944 .56199648 .03199768 .5189972 .0309906 .5099945 .0309906 .49899293 .0309906 .48799134 .0309906 .48799134 .010986328 .48799134 0 .5 0 .5019989 0 .5419922 0 .58399966 .0029907227 .6239929 .0029907227 .6459961 .0029907227 .69999697 0 .7220001 0 .72698977 0 .73999026 0 .73999026 .019989014 .73999026 .0309906 .72898867 .0309906 .7200012 .0309906 .67900088 .03199768 .66600039 .040985109 .651001 .07595825L.5089874 .40376283Z"/>
<path id="font_2_59" d="M.4850006 .40411378C.4850006 .42111207 .47299195 .453125 .43399049 .453125 .4139862 .453125 .36999513 .44711305 .32798768 .40611268 .28599549 .43937684 .24398804 .4423828 .22200012 .4423828 .1289978 .4423828 .05999756 .37338258 .05999756 .29638673 .05999756 .25239564 .08198547 .21440125 .10699463 .19340515 .09399414 .17840576 .07598877 .14538574 .07598877 .11035156 .07598877 .07899475 .08898926 .04083252 .11999512 .020828248 .05999756 .003829956 .027999878-.039138795 .027999878-.07911682 .027999878-.15107727 .1269989-.20605469 .24899292-.20605469 .36698915-.20605469 .47099305-.15507508 .47099305-.07711792 .47099305-.042144777 .45700074 .008834839 .4059906 .036834718 .35299684 .064834598 .29499818 .064834598 .23399353 .064834598 .20899964 .064834598 .1659851 .064834598 .15899658 .065841678 .1269989 .069885257 .10598755 .101242069 .10598755 .13334656 .10598755 .13735962 .10598755 .16040039 .12298584 .18040467 .1619873 .15240479 .20298767 .14941406 .22200012 .14941406 .31498719 .14941406 .38398744 .21839905 .38398744 .2953949 .38398744 .3323822 .36799623 .36938478 .34298707 .39237977 .3789978 .42637635 .4149933 .43138124 .43299867 .43138124 .43299867 .43112184 .43998719 .43112184 .44299317 .43011476 .43199159 .42611695 .4269867 .41513063 .4269867 .40315248 .4269867 .38616944 .43998719 .37417604 .45599366 .37417604 .46598817 .37417604 .4850006 .3811798 .4850006 .4041443V.40411378M.30899049 .29626466C.30899049 .26930238 .30799867 .2373352 .29299928 .21235657 .2849884 .20037842 .2619934 .17240906 .22200012 .17240906 .1349945 .17240906 .1349945 .2722931 .1349945 .29527284 .1349945 .3222351 .13598633 .35420228 .15098572 .3791809 .15899658 .3913269 .18199158 .41937257 .22200012 .41937257 .30899049 .41937257 .30899049 .31922914 .30899049 .29618836V.29626466M.4189911-.07911682C.4189911-.13308716 .34799195-.18305969 .25-.18305969 .14898682-.18305969 .07998657-.13209534 .07998657-.07911682 .07998657-.03314209 .117996219 .003829956 .1619873 .0068359377H.22099304C.30699159 .0068359377 .4189911 .0068359377 .4189911-.07911682Z"/>
<path id="font_2_28" d="M.48298646 .08912659V.14511109H.45799256V.08912659C.45799256 .03112793 .43299867 .025131226 .42199708 .025131226 .3889923 .025131226 .3849945 .070129398 .3849945 .07511902V.27508546C.3849945 .31707765 .3849945 .3560791 .34899903 .39312745 .30999757 .43223573 .2599945 .4482422 .21199036 .4482422 .12998963 .4482422 .06098938 .40115357 .06098938 .335083 .06098938 .30508424 .08099365 .28808595 .10699463 .28808595 .1349945 .28808595 .15299988 .30807496 .15299988 .33407594 .15299988 .3460846 .147995 .37908937 .101989749 .38008119 .1289978 .41519166 .17799378 .426239 .20999146 .426239 .25898744 .426239 .31599427 .38710023 .31599427 .29808045V.26107789C.2649994 .25808717 .19499207 .25508119 .13198853 .22509766 .056991579 .19110108 .03199768 .13911438 .03199768 .09512329 .03199768 .014251709 .1289978-.0107421879 .19198609-.0107421879 .2579956-.0107421879 .3039856 .029251099 .32299806 .07624817 .32699586 .036132814 .35398866-.005859375 .40098573-.005859375 .42199708-.005859375 .48298646 .008132935 .48298646 .08912659M.31599427 .14013672C.31599427 .04525757 .24398804 .011245728 .19898987 .011245728 .1499939 .011245728 .10899353 .04624939 .10899353 .09625244 .10899353 .15124512 .15098572 .23425293 .31599427 .24024964V.14013672Z"/>
<path id="font_2_105" d="M.33198548 .12385559V.18066406H.30699159V.12585449C.30699159 .052108766 .2769928 .014251709 .23999024 .014251709 .17298889 .014251709 .17298889 .10491943 .17298889 .12187195V.3996582H.31599427V.43066407H.17298889V.6142578H.147995C.14698792 .5324249 .116989139 .42565919 .018997193 .42166139V.3996582H.10398865V.12408447C.10398865 .0012512207 .19699097-.0107421879 .23298645-.0107421879 .3039856-.0107421879 .33198548 .060180665 .33198548 .12408447V.12385559Z"/>
<path id="font_2_50" d="M.4149933 .11933899C.4149933 .12934876 .40699769 .13134766 .4019928 .13134766 .3929901 .13134766 .3909912 .12535095 .3889923 .11734009 .35398866 .014251709 .2639923 .014251709 .2539978 .014251709 .20399475 .014251709 .1639862 .044281007 .14099121 .08131409 .11099243 .12934876 .11099243 .19540406 .11099243 .23144531H.3899994C.4119873 .23144531 .4149933 .23144531 .4149933 .2524414 .4149933 .35131837 .36099244 .4482422 .23599243 .4482422 .11999512 .4482422 .027999878 .34532167 .027999878 .22042847 .027999878 .08631897 .1329956-.0107421879 .24798584-.0107421879 .36999513-.0107421879 .4149933 .10032654 .4149933 .11933899M.34899903 .2524414H.11199951C.117996219 .40126039 .20199585 .426239 .23599243 .426239 .33898927 .426239 .34899903 .2913971 .34899903 .2524414Z"/>
<path id="font_1_3" d="M.43798829 .0055236818C.59298709 .0644989 .73999026 .24256897 .73999026 .43579103 .73999026 .5969696 .6339874 .7050781 .4850006 .7050781 .2689972 .7050781 .04899597 .47784425 .04899597 .24456787 .04899597 .07847595 .16099549-.022460938 .30499269-.022460938 .32998658-.022460938 .3639984-.018463135 .40299989-.007461548 .39898683-.06939697 .39898683-.071380618 .39898683-.084365848 .39898683-.11634827 .39898683-.19433594 .48199464-.19433594 .6009979-.19433594 .6489868-.011474609 .6489868-.00047302247 .6489868 .0065307619 .6419983 .009521484 .6380005 .009521484 .6299896 .009521484 .6279907 .0045318605 .6259918-.0014648438 .60198977-.072387699 .5439911-.097335819 .5089874-.097335819 .46299745-.097335819 .44799806-.070388797 .43798829 .0055236818M.24899292 .013519287C.17098999 .044509889 .13699341 .12245178 .13699341 .21252442 .13699341 .2816162 .16299439 .4237671 .23899842 .5319061 .31199647 .63401797 .4059906 .68006899 .47898866 .68006899 .57899478 .68006899 .6519928 .6019745 .6519928 .4678192 .6519928 .3677063 .6009979 .13345337 .43299867 .039505006 .42799378 .07447815 .41799928 .14746094 .34498597 .14746094 .2919922 .14746094 .24299622 .097473148 .24299622 .04550171 .24299622 .025512696 .24899292 .014526367 .24899292 .013519287M.31098939 .002532959C.29699708 .002532959 .2649994 .002532959 .2649994 .04550171 .2649994 .08547974 .30299378 .12545777 .34498597 .12545777 .3869934 .12545777 .4059906 .10147095 .4059906 .040512086 .4059906 .025512696 .40499879 .024520874 .394989 .020523072 .36898805 .009521484 .33898927 .002532959 .31098939 .002532959Z"/>
</defs>
<path transform="matrix(1.00002,0,0,-1.00005,129.11829,34.492925)" stroke-width=".3985" stroke-linecap="butt" stroke-miterlimit="10" stroke-linejoin="miter" fill="none" stroke="#000000" d="M-30.64835-7.93695-30.64833-13.60622M-30.64833-13.60622-30.64835-19.2755 0-28.3468M0-28.3468 30.64835-37.41812 30.64833-47.05586M30.64833-47.05586 30.64835-56.69363M-30.64835-48.75667-30.64833-43.08739M-30.64833-43.08739-30.64835-37.41812 0-28.3468M0-28.3468 30.64835-19.2755 30.64833-9.63774M30.64833-9.63774 30.64835 0M-91.94507-2.64566-91.94505-28.34682M-91.94505-28.34682-91.94507-54.048M-91.94507 18.51953-91.94505 25.60622M-91.94505 25.60622-91.94507 32.69293-16.47495 32.69292M-16.47495 32.69292 58.99516 32.69293V-12.00034M58.99516-12.00034V-56.69363M-91.94507-75.2132-91.94505-82.29988M-91.94505-82.29988-91.94507-89.3866H-23.56165M-23.56165-89.3866H44.82175V-44.6933M44.82175-44.6933V0M-91.94507 7.93694-99.03175 7.93692M-99.03175 7.93692-106.11847 7.93694M-91.94507-64.6306H-99.03175M-99.03175-64.6306H-106.11847M-91.94505-28.34682H-99.03175M-99.03175-28.34682H-106.11847M30.64835 0H51.90845M51.90845 0H73.16856M30.64835-56.69363 51.90845-56.69362M51.90845-56.69362 73.16856-56.69363"/>
<path transform="matrix(1.00002,0,0,-1.00005,129.11829,34.492925)" stroke-width=".3985" stroke-linecap="butt" stroke-miterlimit="10" stroke-linejoin="miter" fill="none" stroke="#000000" d="M-19.53711 7.93695H-30.64835M-19.53711-7.93695H-30.64835"/>
<path transform="matrix(1.00002,0,0,-1.00005,129.11829,34.492925)" stroke-width=".797" stroke-linecap="butt" stroke-miterlimit="10" stroke-linejoin="miter" fill="none" stroke="#000000" d="M-19.53711 15.8739H3.66321C12.43024 15.8739 19.53712 8.76701 19.53712 0 19.53712-8.76701 12.43024-15.8739 3.66321-15.8739H-19.53711Z"/>
<path transform="matrix(1.00002,0,0,-1.00005,129.11829,34.492925)" stroke-width=".3985" stroke-linecap="butt" stroke-miterlimit="10" stroke-linejoin="miter" fill="none" stroke="#000000" d="M24.42648 0H30.64835"/>
<path transform="matrix(1.00002,0,0,-1.00005,129.11829,34.492925)" d="M24.42648 0C24.42648 1.35017 23.33197 2.44469 21.9818 2.44469 20.63162 2.44469 19.53711 1.35017 19.53711 0 19.53711-1.35017 20.63162-2.44469 21.9818-2.44469 23.33197-2.44469 24.42648-1.35017 24.42648 0ZM21.9818 0" fill="#ffffff"/>
<path transform="matrix(1.00002,0,0,-1.00005,129.11829,34.492925)" stroke-width=".797" stroke-linecap="butt" stroke-miterlimit="10" stroke-linejoin="miter" fill="none" stroke="#000000" d="M24.42648 0C24.42648 1.35017 23.33197 2.44469 21.9818 2.44469 20.63162 2.44469 19.53711 1.35017 19.53711 0 19.53711-1.35017 20.63162-2.44469 21.9818-2.44469 23.33197-2.44469 24.42648-1.35017 24.42648 0ZM21.9818 0"/>
<path transform="matrix(1.00002,0,0,-1.00005,129.11829,34.492925)" d="" fill="#ffffff"/>
<path transform="matrix(1.00002,0,0,-1.00005,129.11829,34.492925)" stroke-width=".797" stroke-linecap="butt" stroke-miterlimit="10" stroke-linejoin="miter" fill="none" stroke="#000000" d=""/>
<path transform="matrix(1.00002,0,0,-1.00005,129.11829,34.492925)" stroke-width=".3985" stroke-linecap="butt" stroke-miterlimit="10" stroke-linejoin="miter" fill="none" stroke="#000000" d="M-19.53711-48.75667H-30.64835M-19.53711-64.63058H-30.64835"/>
<path transform="matrix(1.00002,0,0,-1.00005,129.11829,34.492925)" stroke-width=".797" stroke-linecap="butt" stroke-miterlimit="10" stroke-linejoin="miter" fill="none" stroke="#000000" d="M-19.53711-40.81972H3.66321C12.43024-40.81972 19.53712-47.9266 19.53712-56.69363 19.53712-65.46065 12.43024-72.56754 3.66321-72.56754H-19.53711Z"/>
<path transform="matrix(1.00002,0,0,-1.00005,129.11829,34.492925)" stroke-width=".3985" stroke-linecap="butt" stroke-miterlimit="10" stroke-linejoin="miter" fill="none" stroke="#000000" d="M24.42648-56.69363H30.64835"/>
<path transform="matrix(1.00002,0,0,-1.00005,129.11829,34.492925)" d="M24.42648-56.69363C24.42648-55.34344 23.33197-54.24893 21.9818-54.24893 20.63162-54.24893 19.53711-55.34344 19.53711-56.69363 19.53711-58.04381 20.63162-59.13832 21.9818-59.13832 23.33197-59.13832 24.42648-58.04381 24.42648-56.69363ZM21.9818-56.69363" fill="#ffffff"/>
<path transform="matrix(1.00002,0,0,-1.00005,129.11829,34.492925)" stroke-width=".797" stroke-linecap="butt" stroke-miterlimit="10" stroke-linejoin="miter" fill="none" stroke="#000000" d="M24.42648-56.69363C24.42648-55.34344 23.33197-54.24893 21.9818-54.24893 20.63162-54.24893 19.53711-55.34344 19.53711-56.69363 19.53711-58.04381 20.63162-59.13832 21.9818-59.13832 23.33197-59.13832 24.42648-58.04381 24.42648-56.69363ZM21.9818-56.69363"/>
<path transform="matrix(1.00002,0,0,-1.00005,129.11829,34.492925)" d="" fill="#ffffff"/>
<path transform="matrix(1.00002,0,0,-1.00005,129.11829,34.492925)" stroke-width=".797" stroke-linecap="butt" stroke-miterlimit="10" stroke-linejoin="miter" fill="none" stroke="#000000" d=""/>
<path transform="matrix(1.00002,0,0,-1.00005,129.11829,34.492925)" stroke-width=".3985" stroke-linecap="butt" stroke-miterlimit="10" stroke-linejoin="miter" fill="none" stroke="#000000" d="M-80.83382 18.51953H-91.94507M-80.83382 7.93694H-91.94507M-80.83382-2.64566H-91.94507"/>
<path transform="matrix(1.00002,0,0,-1.00005,129.11829,34.492925)" stroke-width=".797" stroke-linecap="butt" stroke-miterlimit="10" stroke-linejoin="miter" fill="none" stroke="#000000" d="M-80.83382 23.81085H-57.63348C-48.86647 23.81085-41.75958 16.70396-41.75958 7.93695-41.75958-.83006-48.86647-7.93695-57.63348-7.93695H-80.83382Z"/>
<path transform="matrix(1.00002,0,0,-1.00005,129.11829,34.492925)" stroke-width=".3985" stroke-linecap="butt" stroke-miterlimit="10" stroke-linejoin="miter" fill="none" stroke="#000000" d="M-36.87022 7.93695H-30.64835"/>
<path transform="matrix(1.00002,0,0,-1.00005,129.11829,34.492925)" d="M-36.87022 7.93695C-36.87022 9.28712-37.96472 10.38164-39.31491 10.38164-40.66508 10.38164-41.7596 9.28712-41.7596 7.93695-41.7596 6.58676-40.66508 5.49225-39.31491 5.49225-37.96472 5.49225-36.87022 6.58676-36.87022 7.93695ZM-39.31491 7.93695" fill="#ffffff"/>
<path transform="matrix(1.00002,0,0,-1.00005,129.11829,34.492925)" stroke-width=".797" stroke-linecap="butt" stroke-miterlimit="10" stroke-linejoin="miter" fill="none" stroke="#000000" d="M-36.87022 7.93695C-36.87022 9.28712-37.96472 10.38164-39.31491 10.38164-40.66508 10.38164-41.7596 9.28712-41.7596 7.93695-41.7596 6.58676-40.66508 5.49225-39.31491 5.49225-37.96472 5.49225-36.87022 6.58676-36.87022 7.93695ZM-39.31491 7.93695"/>
<path transform="matrix(1.00002,0,0,-1.00005,129.11829,34.492925)" d="" fill="#ffffff"/>
<path transform="matrix(1.00002,0,0,-1.00005,129.11829,34.492925)" stroke-width=".797" stroke-linecap="butt" stroke-miterlimit="10" stroke-linejoin="miter" fill="none" stroke="#000000" d=""/>
<path transform="matrix(1.00002,0,0,-1.00005,129.11829,34.492925)" stroke-width=".3985" stroke-linecap="butt" stroke-miterlimit="10" stroke-linejoin="miter" fill="none" stroke="#000000" d="M-80.83382-54.048H-91.94507M-80.83382-64.6306H-91.94507M-80.83382-75.2132H-91.94507"/>
<path transform="matrix(1.00002,0,0,-1.00005,129.11829,34.492925)" stroke-width=".797" stroke-linecap="butt" stroke-miterlimit="10" stroke-linejoin="miter" fill="none" stroke="#000000" d="M-80.83382-48.75667H-57.63348C-48.86647-48.75667-41.75958-55.86356-41.75958-64.63058-41.75958-73.39761-48.86647-80.50449-57.63348-80.50449H-80.83382Z"/>
<path transform="matrix(1.00002,0,0,-1.00005,129.11829,34.492925)" stroke-width=".3985" stroke-linecap="butt" stroke-miterlimit="10" stroke-linejoin="miter" fill="none" stroke="#000000" d="M-36.87022-64.63058H-30.64835"/>
<path transform="matrix(1.00002,0,0,-1.00005,129.11829,34.492925)" d="M-36.87022-64.63058C-36.87022-63.2804-37.96472-62.18588-39.31491-62.18588-40.66508-62.18588-41.7596-63.2804-41.7596-64.63058-41.7596-65.98076-40.66508-67.07527-39.31491-67.07527-37.96472-67.07527-36.87022-65.98076-36.87022-64.63058ZM-39.31491-64.63058" fill="#ffffff"/>
<path transform="matrix(1.00002,0,0,-1.00005,129.11829,34.492925)" stroke-width=".797" stroke-linecap="butt" stroke-miterlimit="10" stroke-linejoin="miter" fill="none" stroke="#000000" d="M-36.87022-64.63058C-36.87022-63.2804-37.96472-62.18588-39.31491-62.18588-40.66508-62.18588-41.7596-63.2804-41.7596-64.63058-41.7596-65.98076-40.66508-67.07527-39.31491-67.07527-37.96472-67.07527-36.87022-65.98076-36.87022-64.63058ZM-39.31491-64.63058"/>
<path transform="matrix(1.00002,0,0,-1.00005,129.11829,34.492925)" d="" fill="#ffffff"/>
<path transform="matrix(1.00002,0,0,-1.00005,129.11829,34.492925)" stroke-width=".797" stroke-linecap="butt" stroke-miterlimit="10" stroke-linejoin="miter" fill="none" stroke="#000000" d=""/>
<path transform="matrix(1.00002,0,0,-1.00005,129.11829,34.492925)" d="M60.5823-56.69363C60.5823-55.81706 59.87172-55.10648 58.99516-55.10648 58.1186-55.10648 57.40802-55.81706 57.40802-56.69363 57.40802-57.57019 58.1186-58.28078 58.99516-58.28078 59.87172-58.28078 60.5823-57.57019 60.5823-56.69363ZM58.99516-56.69363"/>
<path transform="matrix(1.00002,0,0,-1.00005,129.11829,34.492925)" stroke-width=".3985" stroke-linecap="butt" stroke-miterlimit="10" stroke-linejoin="miter" fill="none" stroke="#000000" d="M60.5823-56.69363C60.5823-55.81706 59.87172-55.10648 58.99516-55.10648 58.1186-55.10648 57.40802-55.81706 57.40802-56.69363 57.40802-57.57019 58.1186-58.28078 58.99516-58.28078 59.87172-58.28078 60.5823-57.57019 60.5823-56.69363ZM58.99516-56.69363"/>
<path transform="matrix(1.00002,0,0,-1.00005,129.11829,34.492925)" d="M46.40889 0C46.40889 .87656 45.6983 1.58714 44.82175 1.58714 43.94519 1.58714 43.2346 .87656 43.2346 0 43.2346-.87656 43.94519-1.58714 44.82175-1.58714 45.6983-1.58714 46.40889-.87656 46.40889 0ZM44.82175 0"/>
<path transform="matrix(1.00002,0,0,-1.00005,129.11829,34.492925)" stroke-width=".3985" stroke-linecap="butt" stroke-miterlimit="10" stroke-linejoin="miter" fill="none" stroke="#000000" d="M46.40889 0C46.40889 .87656 45.6983 1.58714 44.82175 1.58714 43.94519 1.58714 43.2346 .87656 43.2346 0 43.2346-.87656 43.94519-1.58714 44.82175-1.58714 45.6983-1.58714 46.40889-.87656 46.40889 0ZM44.82175 0"/>
<use data-text="J" xlink:href="#font_1_1" transform="matrix(9.962799,0,0,-9.963098,12.994949,29.959698)"/>
<use data-text="K" xlink:href="#font_1_2" transform="matrix(9.962799,0,0,-9.963098,10.303909,102.53133)"/>
<path transform="matrix(1.00002,0,0,-1.00005,129.11829,34.492925)" d="M-90.35791-28.34682C-90.35791-27.47026-91.0685-26.75967-91.94505-26.75967-92.82161-26.75967-93.5322-27.47026-93.5322-28.34682-93.5322-29.22337-92.82161-29.93396-91.94505-29.93396-91.0685-29.93396-90.35791-29.22337-90.35791-28.34682ZM-91.94505-28.34682"/>
<path transform="matrix(1.00002,0,0,-1.00005,129.11829,34.492925)" stroke-width=".3985" stroke-linecap="butt" stroke-miterlimit="10" stroke-linejoin="miter" fill="none" stroke="#000000" d="M-90.35791-28.34682C-90.35791-27.47026-91.0685-26.75967-91.94505-26.75967-92.82161-26.75967-93.5322-27.47026-93.5322-28.34682-93.5322-29.22337-92.82161-29.93396-91.94505-29.93396-91.0685-29.93396-90.35791-29.22337-90.35791-28.34682ZM-91.94505-28.34682"/>
<use data-text="g" xlink:href="#font_2_59" transform="matrix(9.962799,0,0,-9.963098,1.2157135,64.87844)"/>
<use data-text="a" xlink:href="#font_2_28" transform="matrix(9.962799,0,0,-9.963098,6.197113,64.87844)"/>
<use data-text="t" xlink:href="#font_2_105" transform="matrix(9.962799,0,0,-9.963098,11.178497,64.87844)"/>
<use data-text="e" xlink:href="#font_2_50" transform="matrix(9.962799,0,0,-9.963098,15.054031,64.87844)"/>
<path transform="matrix(1.00002,0,0,-1.00005,129.11829,34.492925)" d="M32.2355 0C32.2355 .87656 31.52492 1.58714 30.64835 1.58714 29.77179 1.58714 29.0612 .87656 29.0612 0 29.0612-.87656 29.77179-1.58714 30.64835-1.58714 31.52492-1.58714 32.2355-.87656 32.2355 0ZM30.64835 0"/>
<path transform="matrix(1.00002,0,0,-1.00005,129.11829,34.492925)" stroke-width=".3985" stroke-linecap="butt" stroke-miterlimit="10" stroke-linejoin="miter" fill="none" stroke="#000000" d="M32.2355 0C32.2355 .87656 31.52492 1.58714 30.64835 1.58714 29.77179 1.58714 29.0612 .87656 29.0612 0 29.0612-.87656 29.77179-1.58714 30.64835-1.58714 31.52492-1.58714 32.2355-.87656 32.2355 0ZM30.64835 0"/>
<use data-text="Q" xlink:href="#font_1_3" transform="matrix(9.962799,0,0,-9.963098,205.80783,36.928049)"/>
<path transform="matrix(1.00002,0,0,-1.00005,129.11829,34.492925)" d="M32.2355-56.69363C32.2355-55.81706 31.52492-55.10648 30.64835-55.10648 29.77179-55.10648 29.0612-55.81706 29.0612-56.69363 29.0612-57.57019 29.77179-58.28078 30.64835-58.28078 31.52492-58.28078 32.2355-57.57019 32.2355-56.69363ZM30.64835-56.69363"/>
<path transform="matrix(1.00002,0,0,-1.00005,129.11829,34.492925)" stroke-width=".3985" stroke-linecap="butt" stroke-miterlimit="10" stroke-linejoin="miter" fill="none" stroke="#000000" d="M32.2355-56.69363C32.2355-55.81706 31.52492-55.10648 30.64835-55.10648 29.77179-55.10648 29.0612-55.81706 29.0612-56.69363 29.0612-57.57019 29.77179-58.28078 30.64835-58.28078 31.52492-58.28078 32.2355-57.57019 32.2355-56.69363ZM30.64835-56.69363"/>
<path transform="matrix(1.00002,0,0,-1.00005,-8.312462,76.123)" stroke-width=".3985" stroke-linecap="butt" stroke-miterlimit="10" stroke-linejoin="miter" fill="none" stroke="#000000" d="M214.116-10.295H221.992"/>
<use data-text="Q" xlink:href="#font_1_3" transform="matrix(9.962799,0,0,-9.963098,205.80783,94.620929)"/>
</svg>
