<svg xmlns="http://www.w3.org/2000/svg" xmlns:xlink="http://www.w3.org/1999/xlink" xmlns:inkscape="http://www.inkscape.org/namespaces/inkscape" version="1.1" width="316" height="66" viewBox="0 0 316 66">
<defs>
<path id="font_1_3" d="M.97499087 .69107058C.97499087 .69207766 .97499087 .7050781 .95899966 .7050781 .9529877 .7050781 .95199587 .70407107 .9399872 .69306948L.87098696 .6240387C.86898806 .6220398 .8619995 .61502078 .8600006 .61502078 .8580017 .61502078 .85598757 .61802676 .8549957 .61802676 .83499148 .64004519 .7739868 .7050781 .6429901 .7050781 .36799623 .7050781 .114990238 .4899292 .114990238 .2707367 .114990238 .10760498 .25498963-.022460938 .46899415-.022460938 .56999209-.022460938 .6589966 .0115356449 .7200012 .05055237 .84799197 .13362122 .86299136 .2407074 .86299136 .24171448 .86299136 .25572206 .848999 .25572206 .84199526 .25572206 .83099368 .25572206 .82499697 .25473023 .82099917 .24272156 .772995 .08457947 .6069946 .022537232 .49398805 .022537232 .3769989 .022537232 .22599793 .0725708 .22599793 .24772644 .22599793 .3598175 .2849884 .47590638 .34799195 .53596499 .46398927 .6460571 .59599307 .6600647 .6579895 .6600647 .7859955 .6600647 .86698916 .57699587 .86698916 .4618988 .86698916 .43988038 .86499026 .4348755 .86499026 .42887879 .86499026 .41386415 .8789978 .41386415 .8880005 .41386415 .9069977 .41386415 .9069977 .41685487 .9119873 .43588258L.97499087 .69107058Z"/>
<path id="font_1_5" d="M.19499207 .09828186C.18899536 .073272708 .17799378 .029251099 .17799378 .024246216 .17799378 .002243042 .19599915-.0107421879 .21499634-.0107421879 .22999573-.0107421879 .2519989-.002746582 .2630005 .022247315 .2639923 .027252198 .27598573 .07426453 .28199769 .10028076 .31599427 .23532105 .31599427 .23731995 .31799317 .24131775 .33099366 .2683258 .40299989 .40837098 .5249939 .40837098 .57398989 .40837098 .59498599 .38136292 .59498599 .3363495 .59498599 .27934266 .5529938 .17630005 .5299988 .119277957 .5249939 .107284549 .519989 .0942688 .519989 .07727051 .519989 .025253296 .56999209-.0107421879 .6289978-.0107421879 .73599246-.0107421879 .79100039 .119277957 .79100039 .14428711 .79100039 .15829468 .7739868 .15829468 .769989 .15829468 .7529907 .15829468 .7519989 .15429688 .74598696 .13528443 .72698977 .07527161 .68099978 .023254395 .6329956 .023254395 .6100006 .023254395 .6029968 .039260866 .6029968 .061264039 .6029968 .08227539 .6069946 .0922699 .6159973 .11427307 .6329956 .15429688 .67900088 .2683258 .67900088 .323349 .67900088 .39736939 .6259918 .4423828 .5309906 .4423828 .43998719 .4423828 .3769989 .38737489 .34199525 .34335328 .33699037 .42536927 .25698854 .4423828 .21998596 .4423828 .11999512 .4423828 .09098816 .28933717 .09098816 .28733827 .09098816 .2733307 .10699463 .2733307 .11199951 .2733307 .1289978 .2733307 .1309967 .27934266 .1349945 .29234315 .1499939 .35035707 .17298889 .40837098 .21499634 .40837098 .24899292 .40837098 .2559967 .3763733 .2559967 .35536195 .2559967 .34135438 .24598694 .30334474 .23999024 .2773285 .23298645 .25032044 .22299195 .20930481 .21798706 .18730164L.19499207 .09828186Z"/>
<path id="font_2_1" d="M.8799896 .2223053C.8959961 .2223053 .9229889 .2223053 .9229889 .25030519 .9229889 .2783203 .8959961 .2783203 .8799896 .2783203H.20298767C.18699646 .2783203 .1599884 .2783203 .1599884 .25030519 .1599884 .2223053 .18699646 .2223053 .20298767 .2223053H.8799896Z"/>
<path id="font_3_1" d="M.397995 .63591006C.397995 .6660156 .394989 .6660156 .3619995 .6660156 .29100038 .6016083 .17999268 .6016083 .1599884 .6016083H.14299011V.5576172H.1599884C.18299866 .5576172 .24798584 .5606079 .30599977 .58561709V.08596802C.30599977 .054977418 .30599977 .04399109 .19999695 .04399109H.1499939V0C.20498657 .0039978029 .2939911 .0039978029 .35198976 .0039978029 .4099884 .0039978029 .49899293 .0039978029 .55400088 0V.04399109H.5039978C.397995 .04399109 .397995 .054977418 .397995 .08596802V.63591006Z"/>
<path id="font_1_2" d="M.24798584 .082977298C.23999024 .052993776 .23899842 .04499817 .16299439 .04499817 .13699341 .04499817 .12098694 .04499817 .12098694 .016998291 .12098694 0 .13699341 0 .1539917 0H.58898928C.7689972 0 .9149933 .111968997 .9149933 .21191406 .9149933 .27389527 .8569946 .3408661 .72099307 .35786439 .81999209 .37086488 .96099856 .4367981 .96099856 .53671267 .96099856 .6206207 .8619995 .6826172 .7259979 .6826172H.31599427C.29699708 .6826172 .2809906 .6826172 .2809906 .65460208 .2809906 .63760378 .2939911 .63760378 .31799317 .63760378 .32798768 .63760378 .36099244 .63760378 .38198854 .6316223 .38198854 .6196289 .38198854 .61763 .3789978 .6066437L.24798584 .082977298M.4169922 .3718567 .47499085 .6046448C.48298646 .63560488 .48298646 .63760378 .5249939 .63760378H.70799258C.8069916 .63760378 .85398867 .58665469 .85398867 .53370669 .85398867 .4527893 .74598696 .3718567 .60598757 .3718567H.4169922M.36898805 .04499817C.36099244 .04499817 .34700013 .04499817 .33699037 .04699707 .33799745 .054992677 .33799745 .056991579 .33999635 .06498718L.4079895 .3378601H.6519928C.7539978 .3378601 .8049927 .2788849 .8049927 .21591187 .8049927 .11895752 .6859894 .04499817 .56199648 .04499817H.36898805Z"/>
<path id="font_1_1" d="M.72698977 .68881228C.72299197 .70980837 .71899417 .7158203 .69699099 .7158203 .6729889 .7158203 .6669922 .70780947 .6569977 .69281008L.2649994 .124816898C.22299195 .063949588 .18798828 .04798889 .12298584 .04498291 .10398865 .04399109 .10398865 .017990113 .10398865 .016998291 .10398865 .0029907227 .115997318 0 .11999512 0 .13398743 0 .15098572 .0029907227 .16499329 .0029907227 .18199158 .0029907227 .19898987 .0039978029 .21598816 .0039978029 .23498535 .0039978029 .25299073 .0029907227 .2709961 .0029907227 .2889862 .0029907227 .30999757 0 .32798768 0 .33499146 0 .35198976 0 .35198976 .027999878 .35198976 .04399109 .33699037 .04498291 .33299256 .04498291 .32499696 .04498291 .28599549 .04698181 .28599549 .07093811 .28599549 .082901 .2979889 .099868778 .30499269 .10984802L.37799073 .21661377C.3829956 .22261048 .38398744 .2236023 .40299989 .2236023H.70599368C.70799258 .21162415 .70899966 .20663452 .71199038 .19467163 .71499636 .17671204 .7350006 .076919559 .7350006 .06694031 .7350006 .04498291 .6719971 .04498291 .6669922 .04498291 .6519928 .04498291 .6359863 .04498291 .6359863 .016998291 .6359863 .0069885256 .6429901 0 .6539917 0 .6749878 0 .69898989 .0029907227 .72099307 .0029907227 .7449951 .0029907227 .7679901 .0039978029 .7919922 .0039978029 .8129883 .0039978029 .83499148 .0029907227 .85598757 .0029907227 .8759918 .0029907227 .8989868 0 .9189911 0 .9359894 0 .94299319 .011993408 .94299319 .027999878 .94299319 .04498291 .9269867 .04498291 .9129944 .04498291 .8470001 .04498291 .84599307 .051971437 .84199526 .07392883L.72698977 .68881228M.6369934 .5927582 .69799807 .26860047H.4139862L.6369934 .5927582Z"/>
<path id="font_1_4" d="M.81799319 .69107058C.81799319 .69207766 .81799319 .7050781 .8019867 .7050781 .7939911 .7050781 .79299929 .70407107 .7809906 .69107058 .7689972 .67907717 .73999026 .6460571 .7279968 .6330414 .7029877 .6650696 .647995 .7050781 .5419922 .7050781 .3849945 .7050781 .25 .5960083 .25 .48391725 .25 .41186524 .30499269 .3598175 .3809967 .3387909 .3919983 .33580018 .47599793 .31878663 .49699403 .31477357 .58299258 .2967682 .6009979 .29275514 .6279907 .2707367 .6519928 .25172425 .66600039 .22570801 .66600039 .19467163 .66600039 .114608768 .56999209 .022537232 .43499757 .022537232 .3619995 .022537232 .21299744 .03755188 .21299744 .16064453 .21299744 .1746521 .21499634 .18966675 .21798706 .20368958 .21899414 .20768738 .21998596 .20869446 .21998596 .21168518 .21998596 .22669983 .20599365 .22669983 .19898987 .22669983 .18598938 .22669983 .18099976 .22570801 .17599488 .2066803L.1269989 .007537842C.1269989 .0055389406 .12298584-.007461548 .12298584-.008468628 .12298584-.010467529 .12399292-.022460938 .13999939-.022460938 .1459961-.022460938 .14698792-.021469117 .16099549-.008468628 .17298889 .0035247803 .20098877 .0345459 .21199036 .046554567 .2689972-.008468628 .35598756-.022460938 .43199159-.022460938 .598999-.022460938 .73098757 .1006012 .73098757 .21769715 .73098757 .29075624 .6769867 .35281373 .59498599 .372818 .58200076 .37582398 .4869995 .3958435 .46398927 .3998413 .394989 .41485597 .37799073 .41786195 .34799195 .44088746 .32798768 .45689393 .31498719 .47991944 .31498719 .50694277 .31498719 .5850067 .41600038 .6630707 .5389862 .6630707 .6279907 .6630707 .723999 .6310425 .723999 .50593569 .723999 .4899292 .7220001 .47590638 .7220001 .46990968 .7220001 .4559021 .7369995 .4559021 .74198916 .4559021 .7599945 .4559021 .7599945 .457901 .7649994 .47691346L.81799319 .69107058Z"/>
<path id="font_4_54" d="M.6100006 .45477296 .58200076 .6796875H.032989503V.64868167H.056991579C.13398743 .64868167 .13598633 .63768008 .13598633 .6016998V.07797241C.13598633 .041992189 .13398743 .0309906 .056991579 .0309906H.032989503V0C.067993167 .0029907227 .1459961 .0029907227 .18499756 .0029907227 .22599793 .0029907227 .31698609 .0029907227 .35299684 0V.0309906H.31999208C.22499085 .031188965 .22499085 .044189454 .22499085 .079193118V.3251953H.31098939C.40699769 .3251953 .4169922 .29318238 .4169922 .20819092H.44198609V.4731903H.4169922C.4169922 .38919068 .40699769 .3561859 .31098939 .3561859H.22499085V.6091919C.22499085 .64167788 .22698975 .64868167 .27398683 .64868167H.3939972C.5439911 .64868167 .56900027 .5926819 .58499148 .4546814L.6100006 .45477296Z"/>
<path id="font_4_109" d="M.5349884 0V.0309906C.46499635 .0309906 .45700074 .037994386 .45700074 .08705139V.4423828L.30999757 .43066407V.3996582C.37998963 .3996582 .3880005 .39266969 .3880005 .34373475V.16601563C.3880005 .07910156 .33999635 .011245728 .2669983 .011245728 .18299866 .011245728 .1789856 .058135988 .1789856 .11009216V.4423828L.03199768 .43066407V.3996582C.10998535 .3996582 .10998535 .39666749 .10998535 .3078003V.15802002C.10998535 .080093387 .10998535-.0107421879 .2619934-.0107421879 .31799317-.0107421879 .3619995 .017242432 .3909912 .07910156V-.0107421879L.5349884 0Z"/>
<path id="font_4_72" d="M.25498963 0V.0309906C.18798828 .0309906 .1769867 .0309906 .1769867 .07601929V.69433596L.032989503 .6826172V.6516113C.102996829 .6516113 .11099243 .64460757 .11099243 .5956421V.07595825C.11099243 .0309906 .099990848 .0309906 .032989503 .0309906V0L.14399719 .0029907227 .25498963 0Z"/>
<path id="font_4_27" d="M.71699526 0V.0309906H.69898989C.6389923 .0309906 .625 .037979127 .6139984 .07095337L.397995 .6958008C.3929901 .7088165 .3909912 .7158203 .375 .7158203 .35899354 .7158203 .35598756 .70980837 .35099793 .6958008L.14399719 .09791565C.12599182 .04698181 .085998538 .03199768 .03199768 .0309906V0L.13398743 .0029907227 .24899292 0V.0309906C.19898987 .0309906 .17399597 .05596924 .17399597 .0819397 .17399597 .08493042 .1749878 .09492493 .17599488 .09692383L.22200012 .2277832H.46899415L.5219879 .07495117C.522995 .07095337 .5249939 .064956668 .5249939 .060958864 .5249939 .0309906 .46899415 .0309906 .44198609 .0309906V0C.47799684 .0029907227 .5479889 .0029907227 .58599856 .0029907227L.71699526 0M.45799256 .25878907H.23298645L.34498597 .58380129 .45799256 .25878907Z"/>
<path id="font_4_47" d="M.5269928 0V.0309906C.45700074 .0309906 .44898988 .038009645 .44898988 .0871582V.69433596L.30499269 .6826172V.6516113C.375 .6516113 .3829956 .64463809 .3829956 .59580996V.38035584C.35398866 .41636659 .31098939 .4423828 .25698854 .4423828 .13899231 .4423828 .033996583 .3443451 .033996583 .21531677 .033996583 .088272098 .13198853-.0107421879 .24598694-.0107421879 .30999757-.0107421879 .35499574 .023254395 .37998963 .055267335V-.0107421879L.5269928 0M.37998963 .117996219C.37998963 .099990848 .37998963 .09799194 .36898805 .08099365 .33898927 .033218385 .2939911 .011245728 .25099183 .011245728 .20599365 .011245728 .16999817 .037216188 .1459961 .075164798 .11999512 .1161499 .116989139 .17320252 .116989139 .21421814 .116989139 .25125123 .11898804 .31129457 .147995 .35632325 .16899109 .38734437 .20698548 .42037965 .26098634 .42037965 .29599 .42037965 .33799745 .405365 .36898805 .3603363 .37998963 .34332276 .37998963 .34132386 .37998963 .32330323V.117996219Z"/>
<path id="font_4_50" d="M.4149933 .11933899C.4149933 .12934876 .40699769 .13134766 .4019928 .13134766 .3929901 .13134766 .3909912 .12535095 .3889923 .11734009 .35398866 .014251709 .2639923 .014251709 .2539978 .014251709 .20399475 .014251709 .1639862 .044281007 .14099121 .08131409 .11099243 .12934876 .11099243 .19540406 .11099243 .23144531H.3899994C.4119873 .23144531 .4149933 .23144531 .4149933 .2524414 .4149933 .35131837 .36099244 .4482422 .23599243 .4482422 .11999512 .4482422 .027999878 .34532167 .027999878 .22042847 .027999878 .08631897 .1329956-.0107421879 .24798584-.0107421879 .36999513-.0107421879 .4149933 .10032654 .4149933 .11933899M.34899903 .2524414H.11199951C.117996219 .40126039 .20199585 .426239 .23599243 .426239 .33898927 .426239 .34899903 .2913971 .34899903 .2524414Z"/>
<path id="font_4_96" d="M.3639984 .38137818C.3639984 .41337586 .33299256 .4423828 .2899933 .4423828 .21699524 .4423828 .18099976 .37538148 .16699219 .3323822V.4423828L.027999878 .43066407V.3996582C.09799194 .3996582 .10598755 .39266969 .10598755 .34370423V.07595825C.10598755 .0309906 .09498596 .0309906 .027999878 .0309906V0L.14199829 .0029907227C.18199158 .0029907227 .22898865 .0029907227 .2689972 0V.0309906H.24798584C.17399597 .0309906 .17199707 .04197693 .17199707 .07795715V.23181153C.17199707 .33137513 .21398926 .42037965 .2899933 .42037965 .29699708 .42037965 .29899598 .42037965 .30099488 .41937257 .2979889 .41838075 .27799989 .40637208 .27799989 .3803711 .27799989 .35237123 .29899598 .33737184 .32099916 .33737184 .33898927 .33737184 .3639984 .3493805 .3639984 .38137818Z"/>
<path id="font_5_1" d="M.1789856 .114868167C.13899231 .047973634 .099990848 .033981325 .055999757 .0309906 .04399109 .02999878 .034988405 .02999878 .034988405 .010986328 .034988405 .004989624 .039993287 0 .04798889 0 .07499695 0 .10598755 .0029907227 .13398743 .0029907227 .16699219 .0029907227 .20199585 0 .23399353 0 .23999024 0 .25299073 0 .25299073 .018997193 .25299073 .02999878 .24398804 .0309906 .23699951 .0309906 .21398926 .032989503 .18998719 .04096985 .18998719 .06593323 .18998719 .077926639 .19599915 .088897708 .20399475 .102890018L.27999879 .23068238H.5309906C.5329895 .2097168 .5469971 .07392883 .5469971 .063949588 .5469971 .033981325 .49499513 .0309906 .47499085 .0309906 .46099855 .0309906 .45098878 .0309906 .45098878 .010986328 .45098878 0 .46299745 0 .46499635 0 .5059967 0 .548996 .0029907227 .58999636 .0029907227 .61499026 .0029907227 .6779938 0 .7029877 0 .70899966 0 .72099307 0 .72099307 .019989014 .72099307 .0309906 .71099856 .0309906 .69799807 .0309906 .6359863 .0309906 .6359863 .037979127 .6329956 .06694031L.57199099 .691803C.56999209 .71180728 .56999209 .7158203 .5529938 .7158203 .5369873 .7158203 .5329895 .7088165 .5269928 .69880679L.1789856 .114868167M.29899598 .26168824 .49598695 .5917816 .5279999 .26168824H.29899598Z"/>
<path id="font_6_1" d="M.5159912 .31925965C.5159912 .42918397 .5029907 .50813296 .45700074 .5780945 .42599488 .62405398 .3639984 .6640625 .28399659 .6640625 .051986696 .6640625 .051986696 .39120484 .051986696 .31925965 .051986696 .2472992 .051986696-.01953125 .28399659-.01953125 .5159912-.01953125 .5159912 .2472992 .5159912 .31925965M.28399659 .008468628C.23799134 .008468628 .1769867 .035446168 .15699768 .117385867 .14299011 .17634583 .14299011 .25830079 .14299011 .33224488 .14299011 .40519715 .14299011 .4811554 .1579895 .53611758 .1789856 .6150665 .24299622 .63604739 .28399659 .63604739 .33799745 .63604739 .3899994 .6030731 .4079895 .545105 .42399598 .4911499 .4249878 .41918946 .4249878 .33224488 .4249878 .25830079 .4249878 .18434143 .4119873 .12138367 .3919983 .030441285 .32398988 .008468628 .28399659 .008468628Z"/>
<path id="font_5_2" d="M.1599884 .07795715C.1499939 .038986207 .147995 .0309906 .068984989 .0309906 .051986696 .0309906 .041992189 .0309906 .041992189 .010986328 .041992189 0 .050994874 0 .068984989 0H.42599488C.58399966 0 .70199587 .11791992 .70199587 .21585083 .70199587 .28778077 .6439972 .3457489 .5469971 .35673524 .651001 .37573243 .7559967 .44970704 .7559967 .5446625 .7559967 .6186218 .6899872 .6826172 .56999209 .6826172H.23399353C.21499634 .6826172 .20498657 .6826172 .20498657 .6626129 .20498657 .6516113 .21398926 .6516113 .23298645 .6516113 .23498535 .6516113 .2539978 .6516113 .2709961 .6496124 .2889862 .6476135 .2979889 .64660647 .2979889 .6336212 .2979889 .6296234 .29699708 .62661746 .2939911 .614624L.1599884 .07795715M.31098939 .36573792 .37298585 .6136322C.38198854 .64860537 .38398744 .6516113 .4269867 .6516113H.55599978C.6439972 .6516113 .6649933 .5926361 .6649933 .5486603 .6649933 .46069337 .57899478 .36573792 .45700074 .36573792H.31098939M.2659912 .0309906C.2519989 .0309906 .25 .0309906 .24398804 .03199768 .23399353 .032989503 .23098755 .033996583 .23098755 .04197693 .23098755 .04498291 .23098755 .04698181 .23599243 .064971927L.30499269 .34375H.49398805C.58999636 .34375 .60899356 .2698059 .60899356 .22683716 .60899356 .12791443 .519989 .0309906 .4019928 .0309906H.2659912Z"/>
<path id="font_5_4" d="M.644989 .69506838C.644989 .69807437 .6429901 .7050781 .6339874 .7050781 .6289978 .7050781 .6279907 .70407107 .6159973 .6900635L.56799319 .6330414C.5419922 .68006899 .48999024 .7050781 .4249878 .7050781 .2979889 .7050781 .17799378 .58999636 .17799378 .4689026 .17799378 .38783265 .23098755 .34179688 .28199769 .32678224L.3889923 .2987671C.42599488 .2897644 .48098756 .27474977 .48098756 .19267273 .48098756 .1026001 .39898683 .008529663 .30099488 .008529663 .23699951 .008529663 .12599182 .030548096 .12599182 .15464783 .12599182 .17866516 .1309967 .2026825 .13198853 .20869446 .1329956 .21269226 .13398743 .21369934 .13398743 .21569824 .13398743 .22570801 .1269989 .22669983 .12199402 .22669983 .116989139 .22669983 .114990238 .22570801 .11199951 .22270203 .10798645 .21870423 .051986696-.009475708 .051986696-.012466431 .051986696-.018463135 .056991579-.022460938 .06298828-.022460938 .067993167-.022460938 .068984989-.021469117 .08099365-.007461548L.12998963 .049560548C.17298889-.008468628 .24099732-.022460938 .29899598-.022460938 .43499757-.022460938 .5529938 .11061096 .5529938 .2347107 .5529938 .30377198 .5189972 .33779908 .5039978 .35180665 .48098756 .37483216 .46598817 .37882997 .3769989 .40185548 .35499574 .40785218 .31900025 .41786195 .30999757 .41986085 .2829895 .42886354 .24899292 .457901 .24899292 .51094058 .24899292 .59199526 .32899476 .677063 .42399598 .677063 .5069885 .677063 .56799319 .6340332 .56799319 .52194216 .56799319 .48991395 .56399539 .47190858 .56399539 .4658966 .56399539 .4649048 .56399539 .45588685 .57598879 .45588685 .58599856 .45588685 .58699038 .45889283 .59098818 .47590638L.644989 .69506838Z"/>
<path id="font_6_2" d="M.33499146 .63612368C.33499146 .6630554 .33299256 .6640625 .30499269 .6640625 .24099732 .6014404 .1499939 .6004486 .10899353 .6004486V.5644531C.1329956 .5644531 .19898987 .5644531 .2539978 .592453V.08203125C.2539978 .04899597 .2539978 .035995485 .1539917 .035995485H.115997318V0C.13398743 .0009918213 .25698854 .0039978029 .2939911 .0039978029 .32499696 .0039978029 .45098878 .0009918213 .47299195 0V.035995485H.43499757C.33499146 .035995485 .33499146 .04899597 .33499146 .08203125V.63612368Z"/>
<path id="font_6_3" d="M.5049896 .18203736H.47099305C.46798707 .16001892 .45799256 .100997928 .44499208 .09098816 .43699647 .084991458 .3600006 .084991458 .34599305 .084991458H.1619873C.2669983 .17803955 .3019867 .20603943 .3619995 .25306703 .43598939 .312088 .5049896 .374115 .5049896 .46914674 .5049896 .5900879 .39898683 .6640625 .2709961 .6640625 .14698792 .6640625 .06298828 .57710269 .06298828 .4851532 .06298828 .43414308 .10598755 .42915345 .115997318 .42915345 .13999939 .42915345 .16899109 .44615174 .16899109 .48214723 .16899109 .5001526 .1619873 .53515627 .10998535 .53515627 .14099121 .6060791 .20899964 .62805178 .2559967 .62805178 .35598756 .62805178 .4079895 .5501404 .4079895 .46914674 .4079895 .38212586 .34599305 .3130951 .31399537 .27708436L.07299805 .038986207C.06298828 .02999878 .06298828 .027999878 .06298828 0H.47499085L.5049896 .18203736Z"/>
<path id="font_5_3" d="M.7599945 .69506838C.7599945 .69807437 .7579956 .7050781 .7489929 .7050781 .74598696 .7050781 .7449951 .70407107 .73399356 .69306948L.6639862 .61602786C.6549988 .6300354 .60899356 .7050781 .49798585 .7050781 .2749939 .7050781 .049987794 .48391725 .049987794 .25172425 .049987794 .08659363 .16799927-.022460938 .32099916-.022460938 .4079895-.022460938 .48399354 .017532349 .5369873 .063583377 .6299896 .14564514 .6469879 .2367096 .6469879 .23971558 .6469879 .24972534 .6369934 .24972534 .6349945 .24972534 .6289978 .24972534 .6239929 .24772644 .621994 .23971558 .61299136 .21069336 .58999636 .13963318 .5209961 .081588748 .45199586 .025543213 .3889923 .008529663 .33699037 .008529663 .24699402 .008529663 .14099121 .060577394 .14099121 .21670532 .14099121 .27374269 .1619873 .43588258 .2619934 .55296328 .32299806 .62402346 .4169922 .67407229 .5059967 .67407229 .60798647 .67407229 .6669922 .5970001 .6669922 .48091126 .6669922 .44088746 .6639862 .43988038 .6639862 .4298706 .6639862 .41986085 .6749878 .41986085 .67900088 .41986085 .69200137 .41986085 .69200137 .42185975 .69699099 .43988038L.7599945 .69506838Z"/>
</defs>
<path transform="matrix(1.00002,0,0,-1.00003,52.47975,29.778414)" stroke-width=".3985" stroke-linecap="butt" stroke-miterlimit="10" stroke-linejoin="miter" fill="none" stroke="#000000" d="M35.71628-13.88966 44.43327-13.88965M44.43327-13.88965H53.15027V-16.20459M53.15027-16.20459V-18.51953H61.86726M61.86726-18.51953H70.58429M142.01686-13.88966 150.73384-13.88965M150.73384-13.88965H159.45085L159.45084-16.20459M159.45084-16.20459 159.45085-18.51953H168.16785M168.16785-18.51953H176.88486"/>
<path transform="matrix(1.00002,0,0,-1.00003,52.47975,29.778414)" stroke-width=".797" stroke-linecap="butt" stroke-miterlimit="10" stroke-linejoin="miter" fill="none" stroke="#000000" d="M-27.77933 27.77933H27.77933V-27.77933H-27.77933Z"/>
<path transform="matrix(1.00002,0,0,-1.00003,52.47975,29.778414)" stroke-width=".3985" stroke-linecap="butt" stroke-miterlimit="10" stroke-linejoin="miter" fill="none" stroke="#000000" d="M-27.77933-18.51953H-35.71628M-27.77933 0H-35.71628M-27.77933 18.51956H-35.71628M27.77933-13.88966H35.71628M27.77933 13.88966H35.71628"/>
<use data-text="C" xlink:href="#font_1_3" transform="matrix(4.9813997,0,0,-4.9814498,26.69223,48.782987)"/>
<use data-text="n" xlink:href="#font_1_5" transform="matrix(4.9813997,0,0,-4.9814498,31.653336,50.389036)"/>
<use data-text="&#x2212;" xlink:href="#font_2_1" transform="matrix(4.9813997,0,0,-4.9814498,36.041429,50.38803)"/>
<use data-text="1" xlink:href="#font_3_1" transform="matrix(4.9813997,0,0,-4.9814498,41.43753,50.389036)"/>
<use data-text="B" xlink:href="#font_1_2" transform="matrix(4.9813997,0,0,-4.9814498,26.69223,30.982449)"/>
<use data-text="n" xlink:href="#font_1_5" transform="matrix(4.9813997,0,0,-4.9814498,31.85733,31.979479)"/>
<use data-text="A" xlink:href="#font_1_1" transform="matrix(4.9813997,0,0,-4.9814498,26.69223,12.461893)"/>
<use data-text="n" xlink:href="#font_1_5" transform="matrix(4.9813997,0,0,-4.9814498,31.853333,13.458922)"/>
<use data-text="C" xlink:href="#font_1_3" transform="matrix(4.9813997,0,0,-4.9814498,68.420078,44.872869)"/>
<use data-text="n" xlink:href="#font_1_5" transform="matrix(4.9813997,0,0,-4.9814498,73.38118,45.869897)"/>
<use data-text="S" xlink:href="#font_1_4" transform="matrix(4.9813997,0,0,-4.9814498,69.11609,17.092034)"/>
<use data-text="n" xlink:href="#font_1_5" transform="matrix(4.9813997,0,0,-4.9814498,73.38118,18.089062)"/>
<use data-text="F" xlink:href="#font_4_54" transform="matrix(9.962799,0,0,-9.962899,44.100587,27.203335)"/>
<use data-text="u" xlink:href="#font_4_109" transform="matrix(9.962799,0,0,-9.962899,49.789339,27.203335)"/>
<use data-text="l" xlink:href="#font_4_72" transform="matrix(9.962799,0,0,-9.962899,55.32866,27.203335)"/>
<use data-text="l" xlink:href="#font_4_72" transform="matrix(9.962799,0,0,-9.962899,58.098314,27.203335)"/>
<use data-text="A" xlink:href="#font_4_27" transform="matrix(9.962799,0,0,-9.962899,39.179475,39.158697)"/>
<use data-text="d" xlink:href="#font_4_47" transform="matrix(9.962799,0,0,-9.962899,46.372636,39.158697)"/>
<use data-text="d" xlink:href="#font_4_47" transform="matrix(9.962799,0,0,-9.962899,51.91194,39.158697)"/>
<use data-text="e" xlink:href="#font_4_50" transform="matrix(9.962799,0,0,-9.962899,57.45125,39.158697)"/>
<use data-text="r" xlink:href="#font_4_96" transform="matrix(9.962799,0,0,-9.962899,61.87474,39.158697)"/>
<path transform="matrix(1.00002,0,0,-1.00003,52.47975,29.778414)" stroke-width=".797" stroke-linecap="butt" stroke-miterlimit="10" stroke-linejoin="miter" fill="none" stroke="#000000" d="M78.52124 27.77933H134.07991V-27.77933H78.52124Z"/>
<path transform="matrix(1.00002,0,0,-1.00003,52.47975,29.778414)" stroke-width=".3985" stroke-linecap="butt" stroke-miterlimit="10" stroke-linejoin="miter" fill="none" stroke="#000000" d="M78.52124-18.51953H70.58429M78.52124 0H70.58429M78.52124 18.51956H70.58429M134.07991-13.88966H142.01686M134.07991 13.88966H142.01686"/>
<use data-text="C" xlink:href="#font_1_3" transform="matrix(4.9813997,0,0,-4.9814498,132.99536,48.782987)"/>
<use data-text="n" xlink:href="#font_1_5" transform="matrix(4.9813997,0,0,-4.9814498,137.95647,50.389036)"/>
<use data-text="&#x2212;" xlink:href="#font_2_1" transform="matrix(4.9813997,0,0,-4.9814498,142.34456,50.38803)"/>
<use data-text="1" xlink:href="#font_3_1" transform="matrix(4.9813997,0,0,-4.9814498,147.74066,50.389036)"/>
<use data-text="B" xlink:href="#font_1_2" transform="matrix(4.9813997,0,0,-4.9814498,132.99536,30.982449)"/>
<use data-text="n" xlink:href="#font_1_5" transform="matrix(4.9813997,0,0,-4.9814498,138.16046,31.979479)"/>
<use data-text="A" xlink:href="#font_1_1" transform="matrix(4.9813997,0,0,-4.9814498,132.99536,12.461893)"/>
<use data-text="n" xlink:href="#font_1_5" transform="matrix(4.9813997,0,0,-4.9814498,138.15647,13.458922)"/>
<use data-text="C" xlink:href="#font_1_3" transform="matrix(4.9813997,0,0,-4.9814498,174.7222,44.872869)"/>
<use data-text="n" xlink:href="#font_1_5" transform="matrix(4.9813997,0,0,-4.9814498,179.6833,45.869897)"/>
<use data-text="S" xlink:href="#font_1_4" transform="matrix(4.9813997,0,0,-4.9814498,175.41822,17.092034)"/>
<use data-text="n" xlink:href="#font_1_5" transform="matrix(4.9813997,0,0,-4.9814498,179.6833,18.089062)"/>
<use data-text="F" xlink:href="#font_4_54" transform="matrix(9.962799,0,0,-9.962899,150.40271,27.203335)"/>
<use data-text="u" xlink:href="#font_4_109" transform="matrix(9.962799,0,0,-9.962899,156.09146,27.203335)"/>
<use data-text="l" xlink:href="#font_4_72" transform="matrix(9.962799,0,0,-9.962899,161.63079,27.203335)"/>
<use data-text="l" xlink:href="#font_4_72" transform="matrix(9.962799,0,0,-9.962899,164.40044,27.203335)"/>
<use data-text="A" xlink:href="#font_4_27" transform="matrix(9.962799,0,0,-9.962899,145.4816,39.158697)"/>
<use data-text="d" xlink:href="#font_4_47" transform="matrix(9.962799,0,0,-9.962899,152.67476,39.158697)"/>
<use data-text="d" xlink:href="#font_4_47" transform="matrix(9.962799,0,0,-9.962899,158.21407,39.158697)"/>
<use data-text="e" xlink:href="#font_4_50" transform="matrix(9.962799,0,0,-9.962899,163.75337,39.158697)"/>
<use data-text="r" xlink:href="#font_4_96" transform="matrix(9.962799,0,0,-9.962899,168.17687,39.158697)"/>
<path transform="matrix(1.00002,0,0,-1.00003,52.47975,29.778414)" stroke-width=".797" stroke-linecap="butt" stroke-miterlimit="10" stroke-linejoin="miter" fill="none" stroke="#000000" d="M184.82181 27.77933H240.38048V-27.77933H184.82181Z"/>
<path transform="matrix(1.00002,0,0,-1.00003,52.47975,29.778414)" stroke-width=".3985" stroke-linecap="butt" stroke-miterlimit="10" stroke-linejoin="miter" fill="none" stroke="#000000" d="M184.82181-18.51953H176.88486M184.82181 0H176.88486M184.82181 18.51956H176.88486M240.38048-13.88966H248.31745M240.38048 13.88966H248.31745"/>
<use data-text="C" xlink:href="#font_1_3" transform="matrix(4.9813997,0,0,-4.9814498,239.29749,48.782987)"/>
<use data-text="n" xlink:href="#font_1_5" transform="matrix(4.9813997,0,0,-4.9814498,244.25859,50.389036)"/>
<use data-text="&#x2212;" xlink:href="#font_2_1" transform="matrix(4.9813997,0,0,-4.9814498,248.64669,50.38803)"/>
<use data-text="1" xlink:href="#font_3_1" transform="matrix(4.9813997,0,0,-4.9814498,254.04279,50.389036)"/>
<use data-text="B" xlink:href="#font_1_2" transform="matrix(4.9813997,0,0,-4.9814498,239.29749,30.982449)"/>
<use data-text="n" xlink:href="#font_1_5" transform="matrix(4.9813997,0,0,-4.9814498,244.46259,31.979479)"/>
<use data-text="A" xlink:href="#font_1_1" transform="matrix(4.9813997,0,0,-4.9814498,239.29749,12.461893)"/>
<use data-text="n" xlink:href="#font_1_5" transform="matrix(4.9813997,0,0,-4.9814498,244.45859,13.458922)"/>
<use data-text="C" xlink:href="#font_1_3" transform="matrix(4.9813997,0,0,-4.9814498,281.02534,44.872869)"/>
<use data-text="n" xlink:href="#font_1_5" transform="matrix(4.9813997,0,0,-4.9814498,285.98646,45.869897)"/>
<use data-text="S" xlink:href="#font_1_4" transform="matrix(4.9813997,0,0,-4.9814498,281.72135,17.092034)"/>
<use data-text="n" xlink:href="#font_1_5" transform="matrix(4.9813997,0,0,-4.9814498,285.98646,18.089062)"/>
<use data-text="F" xlink:href="#font_4_54" transform="matrix(9.962799,0,0,-9.962899,256.70585,27.203335)"/>
<use data-text="u" xlink:href="#font_4_109" transform="matrix(9.962799,0,0,-9.962899,262.3946,27.203335)"/>
<use data-text="l" xlink:href="#font_4_72" transform="matrix(9.962799,0,0,-9.962899,267.9339,27.203335)"/>
<use data-text="l" xlink:href="#font_4_72" transform="matrix(9.962799,0,0,-9.962899,270.70356,27.203335)"/>
<use data-text="A" xlink:href="#font_4_27" transform="matrix(9.962799,0,0,-9.962899,251.78473,39.158697)"/>
<use data-text="d" xlink:href="#font_4_47" transform="matrix(9.962799,0,0,-9.962899,258.9779,39.158697)"/>
<use data-text="d" xlink:href="#font_4_47" transform="matrix(9.962799,0,0,-9.962899,264.5172,39.158697)"/>
<use data-text="e" xlink:href="#font_4_50" transform="matrix(9.962799,0,0,-9.962899,270.05653,39.158697)"/>
<use data-text="r" xlink:href="#font_4_96" transform="matrix(9.962799,0,0,-9.962899,274.47999,39.158697)"/>
<use data-text="A" xlink:href="#font_5_1" transform="matrix(9.962799,0,0,-9.962899,1.3007202,13.914937)"/>
<use data-text="0" xlink:href="#font_6_1" transform="matrix(6.97394,0,0,-6.9740097,8.772873,15.409982)"/>
<use data-text="B" xlink:href="#font_5_2" transform="matrix(9.962799,0,0,-9.962899,1.2167206,32.435495)"/>
<use data-text="0" xlink:href="#font_6_1" transform="matrix(6.97394,0,0,-6.9740097,8.77388,33.93054)"/>
<path transform="matrix(1.00002,0,0,-1.00003,52.47975,29.778414)" stroke-width=".3985" stroke-linecap="butt" stroke-miterlimit="10" stroke-linejoin="miter" fill="none" stroke="#000000" d="M-35.71628-18.51953V-30.42511"/>
<path transform="matrix(1.00002,0,0,-1.00003,52.47975,29.778414)" stroke-width=".797" stroke-linecap="butt" stroke-miterlimit="10" stroke-linejoin="miter" fill="none" stroke="#000000" d="M-41.66913-30.42511H-29.76343M-39.68475-32.40935H-31.7478M-38.19661-34.39372H-33.23596"/>
<use data-text="S" xlink:href="#font_5_4" transform="matrix(9.962799,0,0,-9.962899,91.71654,18.545077)"/>
<use data-text="0" xlink:href="#font_6_1" transform="matrix(6.97394,0,0,-6.9740097,97.82565,20.040122)"/>
<use data-text="A" xlink:href="#font_5_1" transform="matrix(9.962799,0,0,-9.962899,107.60385,13.914937)"/>
<use data-text="1" xlink:href="#font_6_2" transform="matrix(6.97394,0,0,-6.9740097,115.076007,15.409982)"/>
<use data-text="B" xlink:href="#font_5_2" transform="matrix(9.962799,0,0,-9.962899,107.51885,32.435495)"/>
<use data-text="1" xlink:href="#font_6_2" transform="matrix(6.97394,0,0,-6.9740097,115.07601,33.93054)"/>
<use data-text="S" xlink:href="#font_5_4" transform="matrix(9.962799,0,0,-9.962899,198.01967,18.545077)"/>
<use data-text="1" xlink:href="#font_6_2" transform="matrix(6.97394,0,0,-6.9740097,204.12879,20.040122)"/>
<use data-text="A" xlink:href="#font_5_1" transform="matrix(9.962799,0,0,-9.962899,213.90699,13.914937)"/>
<use data-text="2" xlink:href="#font_6_3" transform="matrix(6.97394,0,0,-6.9740097,221.37914,15.409982)"/>
<use data-text="B" xlink:href="#font_5_2" transform="matrix(9.962799,0,0,-9.962899,213.82199,32.435495)"/>
<use data-text="2" xlink:href="#font_6_3" transform="matrix(6.97394,0,0,-6.9740097,221.37915,33.93054)"/>
<use data-text="S" xlink:href="#font_5_4" transform="matrix(9.962799,0,0,-9.962899,304.3218,18.545077)"/>
<use data-text="2" xlink:href="#font_6_3" transform="matrix(6.97394,0,0,-6.9740097,310.4309,20.040122)"/>
<use data-text="C" xlink:href="#font_5_3" transform="matrix(9.962799,0,0,-9.962899,304.3218,46.324914)"/>
<use data-text="2" xlink:href="#font_6_3" transform="matrix(6.97394,0,0,-6.9740097,311.44197,47.819959)"/>
</svg>
