<svg xmlns="http://www.w3.org/2000/svg" xmlns:xlink="http://www.w3.org/1999/xlink" xmlns:inkscape="http://www.inkscape.org/namespaces/inkscape" version="1.1" width="134" height="84" viewBox="0 0 134 84">
<defs>
<path id="font_1_2" d="M.16099549 .07595825C.1519928 .039993287 .1499939 .0309906 .07499695 .0309906 .055999757 .0309906 .04499817 .0309906 .04499817 .0129852299 .04499817 0 .054992677 0 .07299805 0H.4099884C.6239929 0 .82299807 .21188355 .82299807 .42774964 .82299807 .56466677 .7369995 .6826172 .58099368 .6826172H.23799134C.21998596 .6826172 .20799256 .6826172 .20799256 .6646118 .20799256 .6516113 .21699524 .6516113 .23799134 .6516113 .24198914 .6516113 .2599945 .6516113 .27598573 .6496124 .29299928 .6476135 .2999878 .6456146 .2999878 .63461306 .2999878 .6296234 .29899598 .6256256 .29599 .614624L.16099549 .07595825M.3809967 .6126251C.3899994 .64860537 .3919983 .6516113 .43399049 .6516113H.5469971C.651001 .6516113 .73399356 .5936432 .73399356 .46472169 .73399356 .40675355 .70899966 .24685669 .6309967 .1479187 .58499148 .09095764 .5019989 .0309906 .3919983 .0309906H.27198792C.2579956 .0309906 .2559967 .0309906 .2519989 .03199768 .24198914 .032989503 .23899842 .033996583 .23899842 .040985109 .23899842 .04399109 .23899842 .04598999 .24398804 .063964847L.3809967 .6126251Z"/>
<path id="font_1_3" d="M.4119873-.04144287C.4099884-.05241394 .4099884-.06639099 .4099884-.07836914 .4099884-.12634278 .41799928-.19433594 .49699403-.19433594 .6159973-.19433594 .6669922-.015472412 .6669922-.00047302247 .6669922 .0055389406 .6619873 .011520386 .6539917 .011520386 .6459961 .011520386 .6439972 .0045318605 .6409912-.0024719239 .6179962-.070388797 .55999758-.095336917 .522995-.095336917 .47698976-.095336917 .46199037-.06639099 .45199586 .0045318605 .66999819 .09844971 .7579956 .29560853 .7579956 .43276979 .7579956 .59095767 .6519928 .7050781 .49499513 .7050781 .2709961 .7050781 .049987794 .474823 .049987794 .24655152 .049987794 .082458499 .16299439-.022460938 .31399537-.022460938 .35499574-.022460938 .3959961-.013473511 .41299439-.008468628L.4119873-.04144287M.2539978 .01751709C.20799256 .035507204 .14099121 .08746338 .14099121 .21650696 .14099121 .26957704 .1579895 .43077088 .2659912 .55992129 .31799317 .6210022 .4019928 .677063 .48799134 .677063 .58699038 .677063 .6669922 .6039734 .6669922 .46380616 .6669922 .36369325 .6179962 .13743592 .44599916 .041503908 .43699647 .095458988 .41799928 .1484375 .35398866 .1484375 .2979889 .1484375 .24899292 .097457889 .24899292 .04649353 .24899292 .038497926 .25099183 .024520874 .2539978 .01751709M.4149933 .025512696C.40098573 .019515992 .3619995 .0055389406 .32099916 .0055389406 .30799867 .0055389406 .27398683 .0055389406 .27398683 .04649353 .27398683 .083465579 .31098939 .123428348 .35499574 .123428348 .4139862 .123428348 .4149933 .06947327 .4149933 .025512696Z"/>
<path id="font_1_1" d="M.7739868 .67807009C.7769928 .6900635 .7769928 .69207766 .7769928 .69407656 .7769928 .69506838 .776001 .7050781 .7649994 .7050781 .7589874 .7050781 .7559967 .70207217 .7489929 .69407656L.6879883 .6270294C.6839905 .62202456 .6799927 .61802676 .67900088 .61802676 .6779938 .61802676 .6769867 .61901858 .67099 .62602236 .6559906 .64604189 .61099246 .7050781 .5069885 .7050781 .27799989 .7050781 .050994874 .48291017 .050994874 .25473023 .050994874 .09159851 .16999817-.022460938 .33099366-.022460938 .43499757-.022460938 .5169983 .031555177 .55599978 .0665741 .6469879 .14764405 .6639862 .23571778 .6639862 .23971558 .6639862 .24372864 .6619873 .25073243 .6499939 .25073243 .6389923 .25073243 .6369934 .24472046 .6359863 .24072266 .58699038 .079589847 .44400025 .008529663 .34399415 .008529663 .24699402 .008529663 .14399719 .06758118 .14399719 .21870423 .14399719 .2637329 .15899658 .42185975 .2599945 .54496768 .31999208 .61701968 .41799928 .67407229 .5139923 .67407229 .625 .67407229 .6839905 .5890045 .6839905 .47891236 .6839905 .44488526 .68099978 .43788148 .68099978 .4298706 .68099978 .41886903 .69299319 .41886903 .69599917 .41886903 .70899966 .41886903 .70899966 .42086793 .71398928 .43988038L.7739868 .67807009Z"/>
<path id="font_2_42" d="M.6649933 .23271179C.6649933 .24272156 .6649933 .24972534 .6519928 .24972534 .6409912 .24972534 .6409912 .24372864 .6399994 .23371887 .6319885 .09059143 .5249939 .008529663 .41600038 .008529663 .35499574 .008529663 .15899658 .042556764 .15899658 .34080506 .15899658 .64004519 .35398866 .67407229 .4149933 .67407229 .5239868 .67407229 .61299136 .58299258 .6329956 .4368744 .6349945 .42286683 .6349945 .41986085 .6489868 .41986085 .6649933 .41986085 .6649933 .42286683 .6649933 .44387818V.68107607C.6649933 .69807437 .6649933 .7050781 .6539917 .7050781 .6499939 .7050781 .6459961 .7050781 .6380005 .69306948L.58799746 .61901858C.5509949 .6550598 .5 .7050781 .4039917 .7050781 .21699524 .7050781 .055999757 .5459595 .055999757 .34179688 .055999757 .1346283 .21798706-.022460938 .4039917-.022460938 .5669861-.022460938 .6649933 .116622928 .6649933 .23271179Z"/>
<path id="font_2_71" d="M.58200076 .2578125H.5569916C.54599 .15588379 .5319977 .0309906 .35598756 .0309906H.27398683C.22698975 .03060913 .22499085 .037612916 .22499085 .07060242V.6036072C.22499085 .63760378 .22499085 .6516113 .31999208 .6516113H.35299684V.6826172C.31698609 .6796112 .22599793 .6796112 .18499756 .6796112 .1459961 .6796112 .067993167 .6796112 .032989503 .6826172V.6516113H.056991579C.13398743 .6518097 .13598633 .6408081 .13598633 .6048126V.07795715C.13598633 .04197693 .13398743 .0309906 .056991579 .0309906H.032989503V0H.55400088L.58200076 .2578125Z"/>
<path id="font_2_69" d="M.73599246 0V.0309906C.6819916 .0309906 .6609955 .034988405 .6309967 .07896423L.3999939 .41874696 .5799866 .5916443C.58799746 .5996399 .6409912 .65060427 .7220001 .6516113V.6826172C.69599917 .6796112 .6639862 .6796112 .6369934 .6796112 .6009979 .6796112 .5439911 .6796112 .5099945 .6826172V.6516113C.5499878 .65060427 .55599978 .6276245 .55599978 .6186218 .55599978 .6026306 .54599 .5926361 .5379944 .5856476L.22499085 .28683473V.6046295C.22499085 .64060977 .22698975 .6516113 .3039856 .6516113H.32798768V.6826172C.29299928 .6796112 .21899414 .6796112 .18099976 .6796112 .14299011 .6796112 .067993167 .6796112 .032989503 .6826172V.6516113H.056991579C.13398743 .6516113 .13598633 .64060977 .13598633 .6046295V.07795715C.13598633 .041992189 .13398743 .0309906 .056991579 .0309906H.032989503V0C.067993167 .0029907227 .14199829 .0029907227 .17999268 .0029907227 .21798706 .0029907227 .29299928 .0029907227 .32798768 0V.0309906H.3039856C.22698975 .0309906 .22499085 .041992189 .22499085 .07795715V.2528534L.34098817 .3627777 .5219879 .094955448C.5279999 .08595276 .5369873 .07296753 .5369873 .06097412 .5369873 .0309906 .49798585 .0309906 .47799684 .0309906V0C.5130005 .0029907227 .58299258 .0029907227 .62098696 .0029907227L.73599246 0Z"/>
<path id="font_3_1" d="M.43798829 .0055236818C.59298709 .0644989 .73999026 .24256897 .73999026 .43579103 .73999026 .5969696 .6339874 .7050781 .4850006 .7050781 .2689972 .7050781 .04899597 .47784425 .04899597 .24456787 .04899597 .07847595 .16099549-.022460938 .30499269-.022460938 .32998658-.022460938 .3639984-.018463135 .40299989-.007461548 .39898683-.06939697 .39898683-.071380618 .39898683-.084365848 .39898683-.11634827 .39898683-.19433594 .48199464-.19433594 .6009979-.19433594 .6489868-.011474609 .6489868-.00047302247 .6489868 .0065307619 .6419983 .009521484 .6380005 .009521484 .6299896 .009521484 .6279907 .0045318605 .6259918-.0014648438 .60198977-.072387699 .5439911-.097335819 .5089874-.097335819 .46299745-.097335819 .44799806-.070388797 .43798829 .0055236818M.24899292 .013519287C.17098999 .044509889 .13699341 .12245178 .13699341 .21252442 .13699341 .2816162 .16299439 .4237671 .23899842 .5319061 .31199647 .63401797 .4059906 .68006899 .47898866 .68006899 .57899478 .68006899 .6519928 .6019745 .6519928 .4678192 .6519928 .3677063 .6009979 .13345337 .43299867 .039505006 .42799378 .07447815 .41799928 .14746094 .34498597 .14746094 .2919922 .14746094 .24299622 .097473148 .24299622 .04550171 .24299622 .025512696 .24899292 .014526367 .24899292 .013519287M.31098939 .002532959C.29699708 .002532959 .2649994 .002532959 .2649994 .04550171 .2649994 .08547974 .30299378 .12545777 .34498597 .12545777 .3869934 .12545777 .4059906 .10147095 .4059906 .040512086 .4059906 .025512696 .40499879 .024520874 .394989 .020523072 .36898805 .009521484 .33898927 .002532959 .31098939 .002532959Z"/>
<path id="font_4_1" d="M.5159912 .31925965C.5159912 .42918397 .5029907 .50813296 .45700074 .5780945 .42599488 .62405398 .3639984 .6640625 .28399659 .6640625 .051986696 .6640625 .051986696 .39120484 .051986696 .31925965 .051986696 .2472992 .051986696-.01953125 .28399659-.01953125 .5159912-.01953125 .5159912 .2472992 .5159912 .31925965M.28399659 .008468628C.23799134 .008468628 .1769867 .035446168 .15699768 .117385867 .14299011 .17634583 .14299011 .25830079 .14299011 .33224488 .14299011 .40519715 .14299011 .4811554 .1579895 .53611758 .1789856 .6150665 .24299622 .63604739 .28399659 .63604739 .33799745 .63604739 .3899994 .6030731 .4079895 .545105 .42399598 .4911499 .4249878 .41918946 .4249878 .33224488 .4249878 .25830079 .4249878 .18434143 .4119873 .12138367 .3919983 .030441285 .32398988 .008468628 .28399659 .008468628Z"/>
</defs>
<path transform="matrix(1.00009,0,0,-1.00003,71.83511,37.716653)" stroke-width=".3985" stroke-linecap="butt" stroke-miterlimit="10" stroke-linejoin="miter" fill="none" stroke="#000000" d="M-31.74811-23.81143V-34.44147M-31.74811-34.44147V-45.07153L0-45.07152M0-45.07152 31.74811-45.07153V-34.44148M31.74811-34.44148V-23.81146M-31.74811 23.81146H-38.8348M-38.8348 23.81146H-45.92151M31.74811 23.81143H38.8348M38.8348 23.81143H45.92151"/>
<path transform="matrix(1.00009,0,0,-1.00003,71.83511,37.716653)" stroke-width=".797" stroke-linecap="butt" stroke-miterlimit="10" stroke-linejoin="miter" fill="none" stroke="#000000" d="M-23.81116-35.71718H23.811152V35.71718H-23.81116Z"/>
<path transform="matrix(1.00009,0,0,-1.00003,71.83511,37.716653)" stroke-width=".797" stroke-linecap="butt" stroke-miterlimit="10" stroke-linejoin="miter" fill="none" stroke="#000000" d=""/>
<use data-text="D" xlink:href="#font_1_2" transform="matrix(8.967207,0,0,-8.966669,51.09825,64.218448)"/>
<path transform="matrix(1.00009,0,0,-1.00003,-74.61407,42.499795)" stroke-width=".3786" stroke-linecap="butt" stroke-miterlimit="10" stroke-linejoin="miter" fill="none" stroke="#000000" d="M159.904-14.266H167.172"/>
<use data-text="Q" xlink:href="#font_1_3" transform="matrix(8.967207,0,0,-8.966669,85.30433,64.218448)"/>
<path transform="matrix(1.00009,0,0,-1.00003,71.83511,37.716653)" stroke-width=".3985" stroke-linecap="butt" stroke-miterlimit="10" stroke-linejoin="miter" fill="none" stroke="#000000" d="M-23.81116 28.57367-19.04893 23.81146-23.81116 19.04924"/>
<use data-text="C" xlink:href="#font_1_1" transform="matrix(8.967207,0,0,-8.966669,55.86068,16.595017)"/>
<use data-text="Q" xlink:href="#font_1_3" transform="matrix(8.967207,0,0,-8.966669,85.30433,16.595017)"/>
<path transform="matrix(1.00009,0,0,-1.00003,71.83511,37.716653)" stroke-width=".3985" stroke-linecap="butt" stroke-miterlimit="10" stroke-linejoin="miter" fill="none" stroke="#000000" d="M-23.81116-23.81143H-31.74811"/>
<path transform="matrix(1.00009,0,0,-1.00003,71.83511,37.716653)" stroke-width=".3985" stroke-linecap="butt" stroke-miterlimit="10" stroke-linejoin="miter" fill="none" stroke="#000000" d="M23.81116-23.81143H31.74811"/>
<path transform="matrix(1.00009,0,0,-1.00003,71.83511,37.716653)" stroke-width=".3985" stroke-linecap="butt" stroke-miterlimit="10" stroke-linejoin="miter" fill="none" stroke="#000000" d="M-23.81116 23.81146H-31.74811"/>
<path transform="matrix(1.00009,0,0,-1.00003,71.83511,37.716653)" stroke-width=".3985" stroke-linecap="butt" stroke-miterlimit="10" stroke-linejoin="miter" fill="none" stroke="#000000" d="M23.81116 23.81146H31.74811"/>
<path transform="matrix(1.00009,0,0,-1.00003,71.83511,37.716653)" d="M-23.81116 23.81146C-23.81116 25.16164-24.90567 26.25615-26.25584 26.25615-27.60602 26.25615-28.70053 25.16164-28.70053 23.81146-28.70053 22.46127-27.60602 21.36678-26.25584 21.36678-24.90567 21.36678-23.81116 22.46127-23.81116 23.81146ZM-26.25584 23.81146" fill="#ffffff"/>
<path transform="matrix(1.00009,0,0,-1.00003,71.83511,37.716653)" stroke-width=".797" stroke-linecap="butt" stroke-miterlimit="10" stroke-linejoin="miter" fill="none" stroke="#000000" d="M-23.81116 23.81146C-23.81116 25.16164-24.90567 26.25615-26.25584 26.25615-27.60602 26.25615-28.70053 25.16164-28.70053 23.81146-28.70053 22.46127-27.60602 21.36678-26.25584 21.36678-24.90567 21.36678-23.81116 22.46127-23.81116 23.81146ZM-26.25584 23.81146"/>
<path transform="matrix(1.00009,0,0,-1.00003,71.83511,37.716653)" d="" fill="#ffffff"/>
<path transform="matrix(1.00009,0,0,-1.00003,71.83511,37.716653)" stroke-width=".797" stroke-linecap="butt" stroke-miterlimit="10" stroke-linejoin="miter" fill="none" stroke="#000000" d=""/>
<use data-text="C" xlink:href="#font_2_42" transform="matrix(9.963496,0,0,-9.962899,1.2167511,17.30704)"/>
<use data-text="L" xlink:href="#font_2_71" transform="matrix(9.963496,0,0,-9.962899,8.410385,17.30704)"/>
<use data-text="K" xlink:href="#font_2_69" transform="matrix(9.963496,0,0,-9.962899,14.637573,17.30704)"/>
<use data-text="Q" xlink:href="#font_3_1" transform="matrix(9.963496,0,0,-9.962899,121.28056,16.34001)"/>
<use data-text="0" xlink:href="#font_4_1" transform="matrix(6.9744279,0,0,-6.9740097,129.15727,17.834055)"/>
</svg>
