<svg xmlns="http://www.w3.org/2000/svg" xmlns:xlink="http://www.w3.org/1999/xlink" xmlns:inkscape="http://www.inkscape.org/namespaces/inkscape" version="1.1" width="216" height="112" viewBox="0 0 216 112">
<defs>
<path id="font_1_49" d="M.6689911 .2579193H.6409912C.6159973 .10296631 .58999636 .0309906 .4189911 .0309906H.2789917C.23199463 .0309906 .22999573 .037994386 .22999573 .07197571V.33789063H.32299806C.42099 .33789063 .43299867 .30690003 .43299867 .220932H.46099855V.48606874H.43299867C.43299867 .39994813 .42099 .36888124 .32299806 .36888124H.22999573V.6077728C.22999573 .6416931 .23199463 .64868167 .2789917 .64868167H.41299439C.56900027 .64868167 .5970001 .59480288 .61299136 .45507813H.6409912L.61299136 .6796875H.037994386V.64868167H.06098938C.13798523 .64868167 .13999939 .6377106 .13999939 .60079959V.07899475C.13999939 .041992189 .13798523 .0309906 .06098938 .0309906H.037994386V0H.6259918L.6689911 .2579193Z"/>
<path id="font_1_76" d="M.7319946 .6516113V.6826172C.6779938 .680603 .6629944 .6796112 .61499026 .6796112 .56599429 .6796112 .5529938 .680603 .49699403 .6826172V.6516113C.598999 .6516113 .598999 .6036377 .598999 .5766449V.1499176L.23599243 .6706085C.22799683 .6826172 .22499085 .6826172 .20599365 .6826172H.037994386V.6516113H.06599426C.11399841 .6516113 .13999939 .64460757 .13999939 .64460757V.10594177C.13999939 .07896423 .13999939 .0309906 .037994386 .0309906V0C.09298706 .0019989014 .10699463 .0029907227 .1559906 .0029907227 .20399475 .0029907227 .21899414 .0019989014 .272995 0V.0309906C.17098999 .0309906 .17098999 .07896423 .17098999 .10594177V.6216278L.59599307 .011993408C.60398867 0 .60899356 0 .6139984 0 .6299896 0 .6299896 .0079956059 .6299896 .026992798V.5766449C.6299896 .6036377 .6299896 .6516113 .7319946 .6516113Z"/>
<path id="font_2_2" d="M.4119873-.04144287C.4099884-.05241394 .4099884-.06639099 .4099884-.07836914 .4099884-.12634278 .41799928-.19433594 .49699403-.19433594 .6159973-.19433594 .6669922-.015472412 .6669922-.00047302247 .6669922 .0055389406 .6619873 .011520386 .6539917 .011520386 .6459961 .011520386 .6439972 .0045318605 .6409912-.0024719239 .6179962-.070388797 .55999758-.095336917 .522995-.095336917 .47698976-.095336917 .46199037-.06639099 .45199586 .0045318605 .66999819 .09844971 .7579956 .29560853 .7579956 .43276979 .7579956 .59095767 .6519928 .7050781 .49499513 .7050781 .2709961 .7050781 .049987794 .474823 .049987794 .24655152 .049987794 .082458499 .16299439-.022460938 .31399537-.022460938 .35499574-.022460938 .3959961-.013473511 .41299439-.008468628L.4119873-.04144287M.2539978 .01751709C.20799256 .035507204 .14099121 .08746338 .14099121 .21650696 .14099121 .26957704 .1579895 .43077088 .2659912 .55992129 .31799317 .6210022 .4019928 .677063 .48799134 .677063 .58699038 .677063 .6669922 .6039734 .6669922 .46380616 .6669922 .36369325 .6179962 .13743592 .44599916 .041503908 .43699647 .095458988 .41799928 .1484375 .35398866 .1484375 .2979889 .1484375 .24899292 .097457889 .24899292 .04649353 .24899292 .038497926 .25099183 .024520874 .2539978 .01751709M.4149933 .025512696C.40098573 .019515992 .3619995 .0055389406 .32099916 .0055389406 .30799867 .0055389406 .27398683 .0055389406 .27398683 .04649353 .27398683 .083465579 .31098939 .123428348 .35499574 .123428348 .4139862 .123428348 .4149933 .06947327 .4149933 .025512696Z"/>
<path id="font_2_1" d="M.16099549 .07595825C.1519928 .039993287 .1499939 .0309906 .07499695 .0309906 .055999757 .0309906 .04499817 .0309906 .04499817 .0129852299 .04499817 0 .054992677 0 .07299805 0H.4099884C.6239929 0 .82299807 .21188355 .82299807 .42774964 .82299807 .56466677 .7369995 .6826172 .58099368 .6826172H.23799134C.21998596 .6826172 .20799256 .6826172 .20799256 .6646118 .20799256 .6516113 .21699524 .6516113 .23799134 .6516113 .24198914 .6516113 .2599945 .6516113 .27598573 .6496124 .29299928 .6476135 .2999878 .6456146 .2999878 .63461306 .2999878 .6296234 .29899598 .6256256 .29599 .614624L.16099549 .07595825M.3809967 .6126251C.3899994 .64860537 .3919983 .6516113 .43399049 .6516113H.5469971C.651001 .6516113 .73399356 .5936432 .73399356 .46472169 .73399356 .40675355 .70899966 .24685669 .6309967 .1479187 .58499148 .09095764 .5019989 .0309906 .3919983 .0309906H.27198792C.2579956 .0309906 .2559967 .0309906 .2519989 .03199768 .24198914 .032989503 .23899842 .033996583 .23899842 .040985109 .23899842 .04399109 .23899842 .04598999 .24398804 .063964847L.3809967 .6126251Z"/>
<path id="font_3_71" d="M.58200076 .2578125H.5569916C.54599 .15588379 .5319977 .0309906 .35598756 .0309906H.27398683C.22698975 .03060913 .22499085 .037612916 .22499085 .07060242V.6036072C.22499085 .63760378 .22499085 .6516113 .31999208 .6516113H.35299684V.6826172C.31698609 .6796112 .22599793 .6796112 .18499756 .6796112 .1459961 .6796112 .067993167 .6796112 .032989503 .6826172V.6516113H.056991579C.13398743 .6518097 .13598633 .6408081 .13598633 .6048126V.07795715C.13598633 .04197693 .13398743 .0309906 .056991579 .0309906H.032989503V0H.55400088L.58200076 .2578125Z"/>
<path id="font_3_28" d="M.48298646 .08912659V.14511109H.45799256V.08912659C.45799256 .03112793 .43299867 .025131226 .42199708 .025131226 .3889923 .025131226 .3849945 .070129398 .3849945 .07511902V.27508546C.3849945 .31707765 .3849945 .3560791 .34899903 .39312745 .30999757 .43223573 .2599945 .4482422 .21199036 .4482422 .12998963 .4482422 .06098938 .40115357 .06098938 .335083 .06098938 .30508424 .08099365 .28808595 .10699463 .28808595 .1349945 .28808595 .15299988 .30807496 .15299988 .33407594 .15299988 .3460846 .147995 .37908937 .101989749 .38008119 .1289978 .41519166 .17799378 .426239 .20999146 .426239 .25898744 .426239 .31599427 .38710023 .31599427 .29808045V.26107789C.2649994 .25808717 .19499207 .25508119 .13198853 .22509766 .056991579 .19110108 .03199768 .13911438 .03199768 .09512329 .03199768 .014251709 .1289978-.0107421879 .19198609-.0107421879 .2579956-.0107421879 .3039856 .029251099 .32299806 .07624817 .32699586 .036132814 .35398866-.005859375 .40098573-.005859375 .42199708-.005859375 .48298646 .008132935 .48298646 .08912659M.31599427 .14013672C.31599427 .04525757 .24398804 .011245728 .19898987 .011245728 .1499939 .011245728 .10899353 .04624939 .10899353 .09625244 .10899353 .15124512 .15098572 .23425293 .31599427 .24024964V.14013672Z"/>
<path id="font_3_105" d="M.33198548 .12385559V.18066406H.30699159V.12585449C.30699159 .052108766 .2769928 .014251709 .23999024 .014251709 .17298889 .014251709 .17298889 .10491943 .17298889 .12187195V.3996582H.31599427V.43066407H.17298889V.6142578H.147995C.14698792 .5324249 .116989139 .42565919 .018997193 .42166139V.3996582H.10398865V.12408447C.10398865 .0012512207 .19699097-.0107421879 .23298645-.0107421879 .3039856-.0107421879 .33198548 .060180665 .33198548 .12408447V.12385559Z"/>
<path id="font_3_43" d="M.4149933 .119140628C.4149933 .12911988 .40499879 .12911988 .4019928 .12911988 .3929901 .12911988 .3909912 .12512207 .3889923 .119140628 .3600006 .026229859 .29499818 .014251709 .2579956 .014251709 .20498657 .014251709 .116989139 .0572052 .116989139 .21801758 .116989139 .38093568 .19898987 .42323304 .2519989 .42323304 .26098634 .42323304 .32398988 .42222596 .35899354 .38594056 .31799317 .38293458 .31199647 .3529358 .31199647 .3399353 .31199647 .31393434 .32998658 .2939453 .35798646 .2939453 .38398744 .2939453 .4039917 .3109436 .4039917 .34094239 .4039917 .40911866 .32798768 .4482422 .25099183 .4482422 .12599182 .4482422 .033996583 .3399353 .033996583 .21601868 .033996583 .08816528 .1329956-.0107421879 .24899292-.0107421879 .3829956-.0107421879 .4149933 .10914612 .4149933 .119140628Z"/>
<path id="font_3_63" d="M.5349884 0V.0309906C.48298646 .0309906 .45799256 .0309906 .45700074 .061019899V.25221253C.45700074 .3383026 .45700074 .36932374 .42599488 .405365 .4119873 .42237855 .3789978 .4423828 .32099916 .4423828 .23699951 .4423828 .19299317 .38233949 .1769867 .34629823H.17599488V.69433596L.03199768 .6826172V.6516113C.101989749 .6516113 .10998535 .64463809 .10998535 .59580996V.076034549C.10998535 .0309906 .09899902 .0309906 .03199768 .0309906V0L.14498902 .0029907227 .25698854 0V.0309906C.18998719 .0309906 .1789856 .0309906 .1789856 .076034549V.2602234C.1789856 .36431886 .25 .42037965 .31399537 .42037965 .3769989 .42037965 .3880005 .36631776 .3880005 .30926515V.076034549C.3880005 .0309906 .3769989 .0309906 .30999757 .0309906V0L.4229889 .0029907227 .5349884 0Z"/>
<path id="font_3_82" d="M.4189911 0V.0309906H.3869934C.29699708 .0309906 .2939911 .041992189 .2939911 .07902527V.64012148C.2939911 .6640167 .2939911 .6660156 .2709961 .6660156 .20899964 .60227969 .12098694 .60227969 .08898926 .60227969V.57128909C.10899353 .57128909 .16799927 .57128909 .21998596 .5972748V.07902527C.21998596 .042999269 .21699524 .0309906 .1269989 .0309906H.09498596V0C.12998963 .0029907227 .21699524 .0029907227 .25698854 .0029907227 .29699708 .0029907227 .38398744 .0029907227 .4189911 0Z"/>
<path id="font_3_107" d="M.44898988 .17396546H.42399598C.4189911 .14398194 .4119873 .099990848 .4019928 .084991458 .394989 .07699585 .32899476 .07699585 .30699159 .07699585H.1269989L.23298645 .17996216C.3889923 .31803895 .44898988 .37210084 .44898988 .47216798 .44898988 .5860901 .35899354 .6660156 .23699951 .6660156 .12399292 .6660156 .049987794 .57411196 .049987794 .48516847 .049987794 .4291687 .099990848 .4291687 .102996829 .4291687 .11999512 .4291687 .15499878 .44117738 .15499878 .48217774 .15499878 .5081787 .13699341 .5341797 .101989749 .5341797 .09399414 .5341797 .09199524 .5341797 .08898926 .5331726 .11199951 .59806826 .1659851 .63500979 .22399903 .63500979 .31498719 .63500979 .35798646 .5541382 .35798646 .47216798 .35798646 .39196778 .30799867 .31297303 .25299073 .25097657L.06098938 .036987306C.049987794 .025985718 .049987794 .023986817 .049987794 0H.42099L.44898988 .17396546Z"/>
<path id="font_4_1" d="M.15899658 .07795715C.14898682 .038986207 .14698792 .0309906 .067993167 .0309906 .050994874 .0309906 .039993287 .0309906 .039993287 .011993408 .039993287 0 .04899597 0 .067993167 0H.39898683C.6069946 0 .80400088 .21087647 .80400088 .42974855 .80400088 .5706482 .71899417 .6826172 .56900027 .6826172H.23298645C.21398926 .6826172 .20298767 .6826172 .20298767 .66360476 .20298767 .6516113 .21199036 .6516113 .23199463 .6516113 .24499512 .6516113 .2630005 .65060427 .2749939 .6496124 .29100038 .6476135 .29699708 .64460757 .29699708 .6336212 .29699708 .6296234 .29599 .62661746 .29299928 .614624L.15899658 .07795715M.375 .6136322C.38398744 .64860537 .38598634 .6516113 .42900086 .6516113H.5359955C.6339874 .6516113 .71699526 .5986328 .71699526 .46672059 .71699526 .41775514 .69699099 .25386048 .6119995 .1439209 .58299258 .10694885 .5039978 .0309906 .3809967 .0309906H.2679901C.2539978 .0309906 .2519989 .0309906 .24598694 .03199768 .23599243 .032989503 .23298645 .033996583 .23298645 .041992189 .23298645 .04498291 .23298645 .04698181 .23799134 .064971927L.375 .6136322Z"/>
<path id="font_3_42" d="M.6649933 .23271179C.6649933 .24272156 .6649933 .24972534 .6519928 .24972534 .6409912 .24972534 .6409912 .24372864 .6399994 .23371887 .6319885 .09059143 .5249939 .008529663 .41600038 .008529663 .35499574 .008529663 .15899658 .042556764 .15899658 .34080506 .15899658 .64004519 .35398866 .67407229 .4149933 .67407229 .5239868 .67407229 .61299136 .58299258 .6329956 .4368744 .6349945 .42286683 .6349945 .41986085 .6489868 .41986085 .6649933 .41986085 .6649933 .42286683 .6649933 .44387818V.68107607C.6649933 .69807437 .6649933 .7050781 .6539917 .7050781 .6499939 .7050781 .6459961 .7050781 .6380005 .69306948L.58799746 .61901858C.5509949 .6550598 .5 .7050781 .4039917 .7050781 .21699524 .7050781 .055999757 .5459595 .055999757 .34179688 .055999757 .1346283 .21798706-.022460938 .4039917-.022460938 .5669861-.022460938 .6649933 .116622928 .6649933 .23271179Z"/>
<path id="font_3_69" d="M.73599246 0V.0309906C.6819916 .0309906 .6609955 .034988405 .6309967 .07896423L.3999939 .41874696 .5799866 .5916443C.58799746 .5996399 .6409912 .65060427 .7220001 .6516113V.6826172C.69599917 .6796112 .6639862 .6796112 .6369934 .6796112 .6009979 .6796112 .5439911 .6796112 .5099945 .6826172V.6516113C.5499878 .65060427 .55599978 .6276245 .55599978 .6186218 .55599978 .6026306 .54599 .5926361 .5379944 .5856476L.22499085 .28683473V.6046295C.22499085 .64060977 .22698975 .6516113 .3039856 .6516113H.32798768V.6826172C.29299928 .6796112 .21899414 .6796112 .18099976 .6796112 .14299011 .6796112 .067993167 .6796112 .032989503 .6826172V.6516113H.056991579C.13398743 .6516113 .13598633 .64060977 .13598633 .6046295V.07795715C.13598633 .041992189 .13398743 .0309906 .056991579 .0309906H.032989503V0C.067993167 .0029907227 .14199829 .0029907227 .17999268 .0029907227 .21798706 .0029907227 .29299928 .0029907227 .32798768 0V.0309906H.3039856C.22698975 .0309906 .22499085 .041992189 .22499085 .07795715V.2528534L.34098817 .3627777 .5219879 .094955448C.5279999 .08595276 .5369873 .07296753 .5369873 .06097412 .5369873 .0309906 .49798585 .0309906 .47799684 .0309906V0C.5130005 .0029907227 .58299258 .0029907227 .62098696 .0029907227L.73599246 0Z"/>
<path id="font_4_2" d="M.43798829 .0055236818C.59298709 .0644989 .73999026 .24256897 .73999026 .43579103 .73999026 .5969696 .6339874 .7050781 .4850006 .7050781 .2689972 .7050781 .04899597 .47784425 .04899597 .24456787 .04899597 .07847595 .16099549-.022460938 .30499269-.022460938 .32998658-.022460938 .3639984-.018463135 .40299989-.007461548 .39898683-.06939697 .39898683-.071380618 .39898683-.084365848 .39898683-.11634827 .39898683-.19433594 .48199464-.19433594 .6009979-.19433594 .6489868-.011474609 .6489868-.00047302247 .6489868 .0065307619 .6419983 .009521484 .6380005 .009521484 .6299896 .009521484 .6279907 .0045318605 .6259918-.0014648438 .60198977-.072387699 .5439911-.097335819 .5089874-.097335819 .46299745-.097335819 .44799806-.070388797 .43798829 .0055236818M.24899292 .013519287C.17098999 .044509889 .13699341 .12245178 .13699341 .21252442 .13699341 .2816162 .16299439 .4237671 .23899842 .5319061 .31199647 .63401797 .4059906 .68006899 .47898866 .68006899 .57899478 .68006899 .6519928 .6019745 .6519928 .4678192 .6519928 .3677063 .6009979 .13345337 .43299867 .039505006 .42799378 .07447815 .41799928 .14746094 .34498597 .14746094 .2919922 .14746094 .24299622 .097473148 .24299622 .04550171 .24299622 .025512696 .24899292 .014526367 .24899292 .013519287M.31098939 .002532959C.29699708 .002532959 .2649994 .002532959 .2649994 .04550171 .2649994 .08547974 .30299378 .12545777 .34498597 .12545777 .3869934 .12545777 .4059906 .10147095 .4059906 .040512086 .4059906 .025512696 .40499879 .024520874 .394989 .020523072 .36898805 .009521484 .33898927 .002532959 .31098939 .002532959Z"/>
</defs>
<path transform="matrix(1.00005,0,0,-1.00003,71.83183,37.716653)" stroke-width=".3985" stroke-linecap="butt" stroke-miterlimit="10" stroke-linejoin="miter" fill="none" stroke="#000000" d="M31.74811 23.81143 42.52022 23.81145M42.52022 23.81145 53.29234 23.81146M-31.74811-23.81143V-40.25252M-31.74811-40.25252V-56.69363L-28.3033-56.69362M-28.3033-56.69362-24.85847-56.69363M24.85847-56.69363 39.0754-56.69362M39.0754-56.69362 53.29234-56.69363 53.29233-40.25252M53.29233-40.25252 53.29234-23.81143M-31.74811 23.81146H-38.8348M-38.8348 23.81146H-45.92151M-31.74811-56.69363-38.8348-56.69362M-38.8348-56.69362-45.92151-56.69363M116.78857 23.81143H123.87526M123.87526 23.81143H130.96196M116.78857-23.81146H123.87526M123.87526-23.81146H130.96196"/>
<path transform="matrix(1.00005,0,0,-1.00003,71.83183,37.716653)" stroke-width=".797" stroke-linecap="butt" stroke-miterlimit="10" stroke-linejoin="miter" fill="none" stroke="#000000" d="M-23.81116-35.71718H23.811152V35.71718H-23.81116Z"/>
<path transform="matrix(1.00005,0,0,-1.00003,71.83183,37.716653)" stroke-width=".797" stroke-linecap="butt" stroke-miterlimit="10" stroke-linejoin="miter" fill="none" stroke="#000000" d=""/>
<use data-text="E" xlink:href="#font_1_49" transform="matrix(8.966848,0,0,-8.966669,51.095796,64.218448)"/>
<use data-text="N" xlink:href="#font_1_76" transform="matrix(8.966848,0,0,-8.966669,57.363634,64.218448)"/>
<path transform="matrix(1.00005,0,0,-1.00003,-74.61148,42.498796)" stroke-width=".3786" stroke-linecap="butt" stroke-miterlimit="10" stroke-linejoin="miter" fill="none" stroke="#000000" d="M159.904-14.266H167.172"/>
<use data-text="Q" xlink:href="#font_2_2" transform="matrix(8.966848,0,0,-8.966669,85.30051,64.218448)"/>
<use data-text="D" xlink:href="#font_2_1" transform="matrix(8.966848,0,0,-8.966669,51.095796,16.595017)"/>
<use data-text="Q" xlink:href="#font_2_2" transform="matrix(8.966848,0,0,-8.966669,85.30051,16.595017)"/>
<path transform="matrix(1.00005,0,0,-1.00003,71.83183,37.716653)" stroke-width=".3985" stroke-linecap="butt" stroke-miterlimit="10" stroke-linejoin="miter" fill="none" stroke="#000000" d="M-23.81116-23.81143H-31.74811"/>
<path transform="matrix(1.00005,0,0,-1.00003,71.83183,37.716653)" stroke-width=".3985" stroke-linecap="butt" stroke-miterlimit="10" stroke-linejoin="miter" fill="none" stroke="#000000" d="M23.81116-23.81143H31.74811"/>
<path transform="matrix(1.00005,0,0,-1.00003,71.83183,37.716653)" stroke-width=".3985" stroke-linecap="butt" stroke-miterlimit="10" stroke-linejoin="miter" fill="none" stroke="#000000" d="M-23.81116 23.81146H-31.74811"/>
<path transform="matrix(1.00005,0,0,-1.00003,71.83183,37.716653)" stroke-width=".3985" stroke-linecap="butt" stroke-miterlimit="10" stroke-linejoin="miter" fill="none" stroke="#000000" d="M23.81116 23.81146H31.74811"/>
<use data-text="L" xlink:href="#font_3_71" transform="matrix(9.963098,0,0,-9.962899,59.447214,35.195577)"/>
<use data-text="a" xlink:href="#font_3_28" transform="matrix(9.963098,0,0,-9.962899,65.67416,35.195577)"/>
<use data-text="t" xlink:href="#font_3_105" transform="matrix(9.963098,0,0,-9.962899,70.65569,35.195577)"/>
<use data-text="c" xlink:href="#font_3_43" transform="matrix(9.963098,0,0,-9.962899,74.53135,35.195577)"/>
<use data-text="h" xlink:href="#font_3_63" transform="matrix(9.963098,0,0,-9.962899,78.68595,35.195577)"/>
<use data-text="1" xlink:href="#font_3_82" transform="matrix(9.963098,0,0,-9.962899,69.34072,47.151937)"/>
<path transform="matrix(1.00005,0,0,-1.00003,71.83183,37.716653)" stroke-width=".797" stroke-linecap="butt" stroke-miterlimit="10" stroke-linejoin="miter" fill="none" stroke="#000000" d="M61.2293-35.71718H108.85161V35.71718H61.2293Z"/>
<path transform="matrix(1.00005,0,0,-1.00003,71.83183,37.716653)" stroke-width=".797" stroke-linecap="butt" stroke-miterlimit="10" stroke-linejoin="miter" fill="none" stroke="#000000" d=""/>
<use data-text="E" xlink:href="#font_1_49" transform="matrix(8.966848,0,0,-8.966669,136.14005,64.218448)"/>
<use data-text="N" xlink:href="#font_1_76" transform="matrix(8.966848,0,0,-8.966669,142.40789,64.218448)"/>
<path transform="matrix(1.00005,0,0,-1.00003,10.43277,42.498796)" stroke-width=".3786" stroke-linecap="butt" stroke-miterlimit="10" stroke-linejoin="miter" fill="none" stroke="#000000" d="M159.904-14.266H167.172"/>
<use data-text="Q" xlink:href="#font_2_2" transform="matrix(8.966848,0,0,-8.966669,170.34476,64.218448)"/>
<use data-text="D" xlink:href="#font_2_1" transform="matrix(8.966848,0,0,-8.966669,136.14005,16.595017)"/>
<use data-text="Q" xlink:href="#font_2_2" transform="matrix(8.966848,0,0,-8.966669,170.34476,16.595017)"/>
<path transform="matrix(1.00005,0,0,-1.00003,71.83183,37.716653)" stroke-width=".3985" stroke-linecap="butt" stroke-miterlimit="10" stroke-linejoin="miter" fill="none" stroke="#000000" d="M61.2293-23.81143H53.29234"/>
<path transform="matrix(1.00005,0,0,-1.00003,71.83183,37.716653)" stroke-width=".3985" stroke-linecap="butt" stroke-miterlimit="10" stroke-linejoin="miter" fill="none" stroke="#000000" d="M108.85161-23.81143H116.78857"/>
<path transform="matrix(1.00005,0,0,-1.00003,71.83183,37.716653)" stroke-width=".3985" stroke-linecap="butt" stroke-miterlimit="10" stroke-linejoin="miter" fill="none" stroke="#000000" d="M61.2293 23.81146H53.29234"/>
<path transform="matrix(1.00005,0,0,-1.00003,71.83183,37.716653)" stroke-width=".3985" stroke-linecap="butt" stroke-miterlimit="10" stroke-linejoin="miter" fill="none" stroke="#000000" d="M108.85161 23.81146H116.78857"/>
<use data-text="L" xlink:href="#font_3_71" transform="matrix(9.963098,0,0,-9.962899,144.49246,35.195577)"/>
<use data-text="a" xlink:href="#font_3_28" transform="matrix(9.963098,0,0,-9.962899,150.7194,35.195577)"/>
<use data-text="t" xlink:href="#font_3_105" transform="matrix(9.963098,0,0,-9.962899,155.70095,35.195577)"/>
<use data-text="c" xlink:href="#font_3_43" transform="matrix(9.963098,0,0,-9.962899,159.5766,35.195577)"/>
<use data-text="h" xlink:href="#font_3_63" transform="matrix(9.963098,0,0,-9.962899,163.7312,35.195577)"/>
<use data-text="2" xlink:href="#font_3_107" transform="matrix(9.963098,0,0,-9.962899,154.38597,47.151937)"/>
<path transform="matrix(1.00005,0,0,-1.00003,71.83183,37.716653)" stroke-width=".3985" stroke-linecap="butt" stroke-miterlimit="10" stroke-linejoin="miter" fill="none" stroke="#000000" d="M-13.74724-56.69363H-24.85847"/>
<path transform="matrix(1.00005,0,0,-1.00003,71.83183,37.716653)" stroke-width=".797" stroke-linecap="butt" stroke-miterlimit="10" stroke-linejoin="miter" fill="none" stroke="#000000" d="M-13.74724-40.81972 13.74724-56.69363-13.74724-72.56754Z"/>
<path transform="matrix(1.00005,0,0,-1.00003,71.83183,37.716653)" stroke-width=".3985" stroke-linecap="butt" stroke-miterlimit="10" stroke-linejoin="miter" fill="none" stroke="#000000" d="M18.63661-56.69363H24.85847"/>
<path transform="matrix(1.00005,0,0,-1.00003,71.83183,37.716653)" d="M18.63661-56.69363C18.63661-55.34344 17.5421-54.24893 16.19193-54.24893 14.84175-54.24893 13.74724-55.34344 13.74724-56.69363 13.74724-58.04381 14.84175-59.13832 16.19193-59.13832 17.5421-59.13832 18.63661-58.04381 18.63661-56.69363ZM16.19193-56.69363" fill="#ffffff"/>
<path transform="matrix(1.00005,0,0,-1.00003,71.83183,37.716653)" stroke-width=".797" stroke-linecap="butt" stroke-miterlimit="10" stroke-linejoin="miter" fill="none" stroke="#000000" d="M18.63661-56.69363C18.63661-55.34344 17.5421-54.24893 16.19193-54.24893 14.84175-54.24893 13.74724-55.34344 13.74724-56.69363 13.74724-58.04381 14.84175-59.13832 16.19193-59.13832 17.5421-59.13832 18.63661-58.04381 18.63661-56.69363ZM16.19193-56.69363"/>
<path transform="matrix(1.00005,0,0,-1.00003,71.83183,37.716653)" d="" fill="#ffffff"/>
<path transform="matrix(1.00005,0,0,-1.00003,71.83183,37.716653)" stroke-width=".797" stroke-linecap="butt" stroke-miterlimit="10" stroke-linejoin="miter" fill="none" stroke="#000000" d=""/>
<use data-text="D" xlink:href="#font_4_1" transform="matrix(9.963098,0,0,-9.962899,13.86293,17.308039)"/>
<path transform="matrix(1.00005,0,0,-1.00003,71.83183,37.716653)" d="M-30.16096-56.69363C-30.16096-55.81706-30.87155-55.10648-31.74811-55.10648-32.62466-55.10648-33.33525-55.81706-33.33525-56.69363-33.33525-57.57019-32.62466-58.28078-31.74811-58.28078-30.87155-58.28078-30.16096-57.57019-30.16096-56.69363ZM-31.74811-56.69363"/>
<path transform="matrix(1.00005,0,0,-1.00003,71.83183,37.716653)" stroke-width=".3985" stroke-linecap="butt" stroke-miterlimit="10" stroke-linejoin="miter" fill="none" stroke="#000000" d="M-30.16096-56.69363C-30.16096-55.81706-30.87155-55.10648-31.74811-55.10648-32.62466-55.10648-33.33525-55.81706-33.33525-56.69363-33.33525-57.57019-32.62466-58.28078-31.74811-58.28078-30.87155-58.28078-30.16096-57.57019-30.16096-56.69363ZM-31.74811-56.69363"/>
<use data-text="C" xlink:href="#font_3_42" transform="matrix(9.963098,0,0,-9.962899,1.2163086,97.81445)"/>
<use data-text="L" xlink:href="#font_3_71" transform="matrix(9.963098,0,0,-9.962899,8.409668,97.81445)"/>
<use data-text="K" xlink:href="#font_3_69" transform="matrix(9.963098,0,0,-9.962899,14.636597,97.81445)"/>
<use data-text="Q" xlink:href="#font_4_2" transform="matrix(9.963098,0,0,-9.962899,206.32054,16.34001)"/>
<path transform="matrix(1.00005,0,0,-1.00003,49.48471,43.240819)" stroke-width=".3985" stroke-linecap="butt" stroke-miterlimit="10" stroke-linejoin="miter" fill="none" stroke="#000000" d="M156.828-13.516H164.704"/>
<use data-text="Q" xlink:href="#font_4_2" transform="matrix(9.963098,0,0,-9.962899,206.32054,64.96047)"/>
</svg>
