<svg xmlns="http://www.w3.org/2000/svg" xmlns:xlink="http://www.w3.org/1999/xlink" xmlns:inkscape="http://www.inkscape.org/namespaces/inkscape" version="1.1" width="42" height="146" viewBox="0 0 42 146">
<defs>
<path id="font_1_89" d="M.72099307 .25045777C.72099307 .27046205 .70199587 .27046205 .6879883 .27046205H.40899659V.5500488C.40899659 .5640259 .40899659 .5830078 .3889923 .5830078 .36898805 .5830078 .36898805 .5640259 .36898805 .5500488V.27046205H.08898926C.07499695 .27046205 .055999757 .27046205 .055999757 .25045777 .055999757 .23046875 .07499695 .23046875 .08898926 .23046875H.36898805V-.049972536C.36898805-.0639801 .36898805-.08300781 .3889923-.08300781 .40899659-.08300781 .40899659-.0639801 .40899659-.049972536V.23046875H.6879883C.70199587 .23046875 .72099307 .23046875 .72099307 .25045777Z"/>
<path id="font_1_56" d="M.44898988 .20091248C.44898988 .31991578 .36698915 .41992188 .25898744 .41992188 .21099854 .41992188 .16799927 .4039154 .13198853 .36891175V.5641022C.1519928 .55778506 .18499756 .55078127 .21699524 .55078127 .33999635 .55078127 .4099884 .6418457 .4099884 .65493777 .4099884 .6609802 .40699769 .6660156 .3999939 .6660156 .3999939 .66607668 .39698792 .66607668 .3919983 .66308596 .37199403 .65408328 .32299806 .63378909 .2559967 .63378909 .21598816 .63409426 .16999817 .641098 .12298584 .6621094 .114990238 .6651001 .11099243 .6651001 .11099243 .6651001 .100997928 .66508486 .100997928 .657074 .100997928 .64108279V.3447113C.100997928 .3266449 .100997928 .31861878 .114990238 .31861878 .12199402 .31861878 .12399292 .32164 .12799073 .32765199 .13899231 .34371949 .17599488 .3979187 .25698854 .3979187 .30899049 .3979187 .33399964 .3517456 .34199525 .3336792 .35798646 .2965393 .3600006 .2574005 .3600006 .20721436 .3600006 .17218018 .3600006 .112197879 .33599855 .07032776 .31199647 .031448366 .2749939 .0055389406 .22898865 .0055389406 .1559906 .0055389406 .09899902 .05836487 .08198547 .1171875 .084991458 .11685181 .08799744 .115859989 .09899902 .115859989 .13198853 .115859989 .14898682 .14085388 .14898682 .16485596 .14898682 .18885803 .13198853 .21386719 .09899902 .21386719 .084991458 .21386719 .049987794 .2068634 .049987794 .16085816 .049987794 .07432556 .11898804-.022460938 .23098755-.022460938 .34700013-.022460938 .44898988 .07331848 .44898988 .20019531V.20091248Z"/>
<path id="font_1_111" d="M.7299957 .6516113V.6826172C.69898989 .680603 .6589966 .6796112 .6329956 .6796112L.5189972 .6826172V.6516113C.57099917 .6506195 .59199526 .6246033 .59199526 .6016083 .59199526 .5936127 .58898928 .5876007 .58699038 .581604L.4039917 .09954834 .21299744 .60461428C.20698548 .61860659 .20698548 .62260439 .20698548 .62260439 .20698548 .6516113 .2639923 .6516113 .2889862 .6516113V.6826172C.25299073 .6796112 .18399048 .6796112 .1459961 .6796112L.018997193 .6826172V.6516113C.083999637 .6516113 .102996829 .6516113 .116989139 .6136017L.34899903-.00047302247C.35598756-.019470215 .36099244-.022460938 .37399293-.022460938 .3909912-.022460938 .3929901-.017471314 .397995-.0034637452L.62098696 .58461C.6349945 .62161257 .6619873 .6506195 .7299957 .6516113Z"/>
<path id="font_2_1" d="M.7200012 .6586151C.72099307 .6626129 .72299197 .66760256 .72299197 .6736145 .72299197 .6826172 .71798709 .6826172 .69799807 .6826172H.27598573C.2519989 .6826172 .25099183 .6816101 .24499512 .6626129L.18998719 .4827118C.18798828 .47772218 .18699646 .47071839 .18699646 .46871949 .18699646 .46772767 .18699646 .45773316 .19898987 .45773316 .20799256 .45773316 .20999146 .46472169 .21199036 .46772767 .25 .5856476 .3019867 .6516113 .45799256 .6516113H.62098696L.06199646 .026992798C.06199646 .025985718 .057998659 .011993408 .057998659 .008987427 .057998659 0 .06498718 0 .08299255 0H.5179901C.5419922 0 .54299929 .0009918213 .548996 .019989014L.6199951 .24085999C.62098696 .24485779 .6239929 .25186158 .6239929 .25585938 .6239929 .260849 .6199951 .2668457 .61099246 .2668457 .60198977 .2668457 .6009979 .2628479 .59399417 .24186707 .5499878 .10594177 .5019989 .033996583 .33198548 .033996583H.16099549L.7200012 .6586151Z"/>
<path id="font_3_72" d="M.2809906 0V.035995485C.21598816 .035995485 .20599365 .035995485 .20599365 .07901001V.69433596L.055999757 .6826172V.64660647C.12298584 .64660647 .1309967 .6396179 .1309967 .59065249V.07896423C.1309967 .035995485 .12098694 .035995485 .055999757 .035995485V0C.055999757 0 .12799073 .0039978029 .16799927 .0039978029 .20599365 .0039978029 .24299622 .0029907227 .2809906 0Z"/>
<path id="font_3_81" d="M.5289917 .21325684C.5289917 .3382721 .42199708 .44628907 .28399659 .44628907 .1459961 .44628907 .038986207 .3382721 .038986207 .21325684 .038986207 .0892334 .14898682-.009765625 .28399659-.009765625 .4189911-.009765625 .5289917 .0892334 .5289917 .21325684M.43798829 .22225952C.43798829 .17424011 .43499757 .12124634 .4059906 .08023071 .3789978 .042236329 .33299256 .022232056 .28399659 .022232056 .24699402 .022232056 .19299317 .034225465 .1599884 .083236698 .1329956 .12423706 .12998963 .17625427 .12998963 .22225952 .12998963 .2652588 .1309967 .32426454 .1659851 .36727906 .19099427 .39627076 .23298645 .41827394 .28399659 .41827394 .34298707 .41827394 .3849945 .39027406 .40699769 .3592682 .43499757 .32026673 .43798829 .27026368 .43798829 .22225952Z"/>
<path id="font_3_28" d="M.5439911 .09013367V.14515686H.5099945V.09114075C.5099945 .08113098 .5099945 .033111574 .47299195 .033111574 .43598939 .033111574 .43598939 .0801239 .43598939 .09313965V.268219C.43598939 .3212433 .43598939 .35925294 .3899994 .39627076 .34899903 .4302826 .30099488 .44628907 .24198914 .44628907 .14698792 .44628907 .07998657 .41027833 .07998657 .34925843 .07998657 .31723023 .101989749 .30023194 .12799073 .30023194 .15499878 .30023194 .1749878 .3202362 .1749878 .34724427 .1749878 .3642578 .16699219 .38526917 .13999939 .39326478 .17599488 .41827394 .23399353 .41827394 .23999024 .41827394 .29599 .41827394 .35699464 .38127137 .35699464 .29722596V.2662201C.3019867 .26420594 .23599243 .2612152 .16299439 .23420716 .07299805 .20118714 .04499817 .14616394 .04499817 .101135257 .04499817 .0152282719 .14898682-.009765625 .21998596-.009765625 .2999878-.009765625 .34700013 .035232545 .36799623 .07423401 .37199403 .033111574 .39898683-.0048828127 .44499208-.0048828127 .44499208-.0048828127 .5439911-.0048828127 .5439911 .09010315V.09013367M.35699464 .14111328C.35699464 .04522705 .272995 .018234253 .22799683 .018234253 .1769867 .018234253 .1289978 .052230836 .1289978 .10122681 .1289978 .15621948 .1769867 .23323059 .35699464 .24023438V.14111328Z"/>
<path id="font_3_47" d="M.58099368 0V.035995485C.5139923 .035995485 .5059967 .042999269 .5059967 .09202576V.69433596L.35598756 .6826172V.64660647C.4229889 .64660647 .43099977 .6396332 .43099977 .5908203V.3843689C.3939972 .4203949 .34599305 .44140626 .29100038 .44140626 .1579895 .44140626 .04598999 .34132386 .04598999 .21520996 .04598999 .09008789 .1519928-.009765625 .2789917-.009765625 .36099244-.009765625 .4099884 .03414917 .4269867 .05206299V-.009765625L.58099368 0M.4269867 .10499573C.40098573 .05807495 .34999085 .018234253 .2849884 .018234253 .22898865 .018234253 .18899536 .051071168 .16899109 .080078128 .14898682 .11010742 .13699341 .15014649 .13699341 .21421814 .13699341 .23724365 .13699341 .3123169 .17799378 .35932923 .21798706 .40438844 .2669983 .4133911 .29599 .4133911 .34399415 .4133911 .3869934 .39137269 .4149933 .35533143 .4269867 .33932496 .4269867 .33833314 .4269867 .31933595V.10499573Z"/>
</defs>
<path transform="matrix(1.00006,0,0,-1.00002,10.99958,27.082303)" stroke-width=".3985" stroke-linecap="butt" stroke-miterlimit="10" stroke-linejoin="miter" fill="none" stroke="#000000" d="M0 0V-12.47261M0-44.221V-56.69362-68.03238M0-87.87506V-99.21382"/>
<path transform="matrix(1.00006,0,0,-1.00002,10.99958,27.082303)" stroke-width=".797" stroke-linecap="butt" stroke-miterlimit="10" stroke-linejoin="miter" fill="none" stroke="#000000" d="M-3.96848 6.34956 0 11.90543 3.96848 6.34956"/>
<path transform="matrix(1.00006,0,0,-1.00002,10.99958,27.082303)" stroke-width=".3985" stroke-linecap="butt" stroke-miterlimit="10" stroke-linejoin="miter" fill="none" stroke="#000000" d="M0 0V11.90543"/>
<use data-text="+" xlink:href="#font_1_89" transform="matrix(9.963197,0,0,-9.962799,.89697268,7.8059179)"/>
<use data-text="5" xlink:href="#font_1_56" transform="matrix(9.963197,0,0,-9.962799,8.648338,7.8059179)"/>
<use data-text="V" xlink:href="#font_1_111" transform="matrix(9.963197,0,0,-9.962799,13.629936,7.8059179)"/>
<path transform="matrix(1.00006,0,0,-1.00002,10.99958,27.082303)" stroke-width=".797" stroke-linecap="butt" stroke-miterlimit="10" stroke-linejoin="miter" fill="none" stroke="#000000" d="M-5.95285-44.221V-12.47261H5.95285V-44.221ZM5.95285-12.47261"/>
<use data-text="Z" xlink:href="#font_2_1" transform="matrix(9.963197,0,0,-9.962799,19.158066,57.576913)"/>
<use data-text="l" xlink:href="#font_3_72" transform="matrix(6.9742186,0,0,-6.97394,25.959473,59.07094)"/>
<use data-text="o" xlink:href="#font_3_81" transform="matrix(6.9742186,0,0,-6.97394,28.21215,59.07094)"/>
<use data-text="a" xlink:href="#font_3_28" transform="matrix(6.9742186,0,0,-6.97394,32.18048,59.07094)"/>
<use data-text="d" xlink:href="#font_3_47" transform="matrix(6.9742186,0,0,-6.97394,36.14881,59.07094)"/>
<path transform="matrix(1.00006,0,0,-1.00002,10.99958,27.082303)" stroke-width="3.17429" stroke-linecap="round" stroke-miterlimit="10" stroke-linejoin="miter" fill="none" stroke="#000000" d="M0-68.03238 11.90572-87.87506"/>
<path transform="matrix(1.00006,0,0,-1.00002,10.99958,27.082303)" stroke-width=".797" stroke-linecap="butt" stroke-miterlimit="10" stroke-linejoin="miter" fill="none" stroke="#000000" d="M11.18764-72.10437C9.57445-76.5365 5.55254-79.50122 1.03418-79.89445"/>
<path transform="matrix(-.9990599,.04344087,.043442605,.99902006,12.037482,106.706058)" d="M3.1083 0C1.81317 .25902-.51805 .77707-2.0722 1.94269-.77707 .51805-.77707-.51805-2.0722-1.94269-.51805-.77707 1.81317-.25902 3.1083 0Z"/>
<path transform="matrix(1.00006,0,0,-1.00002,10.99958,27.082303)" d="M0-69.61952C.87656-69.61952 1.58714-68.90894 1.58714-68.03238 1.58714-67.1558 .87656-66.44522 0-66.44522-.87656-66.44522-1.58714-67.1558-1.58714-68.03238-1.58714-68.90894-.87656-69.61952 0-69.61952ZM0-68.03238" fill="#ffffff"/>
<path transform="matrix(1.00006,0,0,-1.00002,10.99958,27.082303)" stroke-width=".3985" stroke-linecap="butt" stroke-miterlimit="10" stroke-linejoin="miter" fill="none" stroke="#000000" d="M0-69.61952C.87656-69.61952 1.58714-68.90894 1.58714-68.03238 1.58714-67.1558 .87656-66.44522 0-66.44522-.87656-66.44522-1.58714-67.1558-1.58714-68.03238-1.58714-68.90894-.87656-69.61952 0-69.61952ZM0-68.03238"/>
<path transform="matrix(1.00006,0,0,-1.00002,10.99958,27.082303)" d="" fill="#ffffff"/>
<path transform="matrix(1.00006,0,0,-1.00002,10.99958,27.082303)" stroke-width=".3985" stroke-linecap="butt" stroke-miterlimit="10" stroke-linejoin="miter" fill="none" stroke="#000000" d=""/>
<path transform="matrix(1.00006,0,0,-1.00002,10.99958,27.082303)" d="M0-89.4622C.87656-89.4622 1.58714-88.75162 1.58714-87.87506 1.58714-86.9985 .87656-86.28792 0-86.28792-.87656-86.28792-1.58714-86.9985-1.58714-87.87506-1.58714-88.75162-.87656-89.4622 0-89.4622ZM0-87.87506" fill="#ffffff"/>
<path transform="matrix(1.00006,0,0,-1.00002,10.99958,27.082303)" stroke-width=".3985" stroke-linecap="butt" stroke-miterlimit="10" stroke-linejoin="miter" fill="none" stroke="#000000" d="M0-89.4622C.87656-89.4622 1.58714-88.75162 1.58714-87.87506 1.58714-86.9985 .87656-86.28792 0-86.28792-.87656-86.28792-1.58714-86.9985-1.58714-87.87506-1.58714-88.75162-.87656-89.4622 0-89.4622ZM0-87.87506"/>
<path transform="matrix(1.00006,0,0,-1.00002,10.99958,27.082303)" d="" fill="#ffffff"/>
<path transform="matrix(1.00006,0,0,-1.00002,10.99958,27.082303)" stroke-width=".3985" stroke-linecap="butt" stroke-miterlimit="10" stroke-linejoin="miter" fill="none" stroke="#000000" d=""/>
<path transform="matrix(1.00006,0,0,-1.00002,10.99958,27.082303)" stroke-width=".3985" stroke-linecap="butt" stroke-miterlimit="10" stroke-linejoin="miter" fill="none" stroke="#000000" d="M0-99.21382V-109.13516"/>
<path transform="matrix(1.00006,0,0,-1.00002,10.99958,27.082303)" stroke-width=".797" stroke-linecap="butt" stroke-miterlimit="10" stroke-linejoin="miter" fill="none" stroke="#000000" d="M-5.95285-109.13516H5.95285L0-117.07225Z"/>
</svg>
