<svg xmlns="http://www.w3.org/2000/svg" xmlns:xlink="http://www.w3.org/1999/xlink" xmlns:inkscape="http://www.inkscape.org/namespaces/inkscape" version="1.1" width="212" height="128" viewBox="0 0 212 128">
<defs>
<path id="font_1_89" d="M.72099307 .25045777C.72099307 .27046205 .70199587 .27046205 .6879883 .27046205H.40899659V.5500488C.40899659 .5640259 .40899659 .5830078 .3889923 .5830078 .36898805 .5830078 .36898805 .5640259 .36898805 .5500488V.27046205H.08898926C.07499695 .27046205 .055999757 .27046205 .055999757 .25045777 .055999757 .23046875 .07499695 .23046875 .08898926 .23046875H.36898805V-.049972536C.36898805-.0639801 .36898805-.08300781 .3889923-.08300781 .40899659-.08300781 .40899659-.0639801 .40899659-.049972536V.23046875H.6879883C.70199587 .23046875 .72099307 .23046875 .72099307 .25045777Z"/>
<path id="font_1_56" d="M.44898988 .20091248C.44898988 .31991578 .36698915 .41992188 .25898744 .41992188 .21099854 .41992188 .16799927 .4039154 .13198853 .36891175V.5641022C.1519928 .55778506 .18499756 .55078127 .21699524 .55078127 .33999635 .55078127 .4099884 .6418457 .4099884 .65493777 .4099884 .6609802 .40699769 .6660156 .3999939 .6660156 .3999939 .66607668 .39698792 .66607668 .3919983 .66308596 .37199403 .65408328 .32299806 .63378909 .2559967 .63378909 .21598816 .63409426 .16999817 .641098 .12298584 .6621094 .114990238 .6651001 .11099243 .6651001 .11099243 .6651001 .100997928 .66508486 .100997928 .657074 .100997928 .64108279V.3447113C.100997928 .3266449 .100997928 .31861878 .114990238 .31861878 .12199402 .31861878 .12399292 .32164 .12799073 .32765199 .13899231 .34371949 .17599488 .3979187 .25698854 .3979187 .30899049 .3979187 .33399964 .3517456 .34199525 .3336792 .35798646 .2965393 .3600006 .2574005 .3600006 .20721436 .3600006 .17218018 .3600006 .112197879 .33599855 .07032776 .31199647 .031448366 .2749939 .0055389406 .22898865 .0055389406 .1559906 .0055389406 .09899902 .05836487 .08198547 .1171875 .084991458 .11685181 .08799744 .115859989 .09899902 .115859989 .13198853 .115859989 .14898682 .14085388 .14898682 .16485596 .14898682 .18885803 .13198853 .21386719 .09899902 .21386719 .084991458 .21386719 .049987794 .2068634 .049987794 .16085816 .049987794 .07432556 .11898804-.022460938 .23098755-.022460938 .34700013-.022460938 .44898988 .07331848 .44898988 .20019531V.20091248Z"/>
<path id="font_1_111" d="M.7299957 .6516113V.6826172C.69898989 .680603 .6589966 .6796112 .6329956 .6796112L.5189972 .6826172V.6516113C.57099917 .6506195 .59199526 .6246033 .59199526 .6016083 .59199526 .5936127 .58898928 .5876007 .58699038 .581604L.4039917 .09954834 .21299744 .60461428C.20698548 .61860659 .20698548 .62260439 .20698548 .62260439 .20698548 .6516113 .2639923 .6516113 .2889862 .6516113V.6826172C.25299073 .6796112 .18399048 .6796112 .1459961 .6796112L.018997193 .6826172V.6516113C.083999637 .6516113 .102996829 .6516113 .116989139 .6136017L.34899903-.00047302247C.35598756-.019470215 .36099244-.022460938 .37399293-.022460938 .3909912-.022460938 .3929901-.017471314 .397995-.0034637452L.62098696 .58461C.6349945 .62161257 .6619873 .6506195 .7299957 .6516113Z"/>
<path id="font_2_3" d="M.644989 .69506838C.644989 .69807437 .6429901 .7050781 .6339874 .7050781 .6289978 .7050781 .6279907 .70407107 .6159973 .6900635L.56799319 .6330414C.5419922 .68006899 .48999024 .7050781 .4249878 .7050781 .2979889 .7050781 .17799378 .58999636 .17799378 .4689026 .17799378 .38783265 .23098755 .34179688 .28199769 .32678224L.3889923 .2987671C.42599488 .2897644 .48098756 .27474977 .48098756 .19267273 .48098756 .1026001 .39898683 .008529663 .30099488 .008529663 .23699951 .008529663 .12599182 .030548096 .12599182 .15464783 .12599182 .17866516 .1309967 .2026825 .13198853 .20869446 .1329956 .21269226 .13398743 .21369934 .13398743 .21569824 .13398743 .22570801 .1269989 .22669983 .12199402 .22669983 .116989139 .22669983 .114990238 .22570801 .11199951 .22270203 .10798645 .21870423 .051986696-.009475708 .051986696-.012466431 .051986696-.018463135 .056991579-.022460938 .06298828-.022460938 .067993167-.022460938 .068984989-.021469117 .08099365-.007461548L.12998963 .049560548C.17298889-.008468628 .24099732-.022460938 .29899598-.022460938 .43499757-.022460938 .5529938 .11061096 .5529938 .2347107 .5529938 .30377198 .5189972 .33779908 .5039978 .35180665 .48098756 .37483216 .46598817 .37882997 .3769989 .40185548 .35499574 .40785218 .31900025 .41786195 .30999757 .41986085 .2829895 .42886354 .24899292 .457901 .24899292 .51094058 .24899292 .59199526 .32899476 .677063 .42399598 .677063 .5069885 .677063 .56799319 .6340332 .56799319 .52194216 .56799319 .48991395 .56399539 .47190858 .56399539 .4658966 .56399539 .4649048 .56399539 .45588685 .57598879 .45588685 .58599856 .45588685 .58699038 .45889283 .59098818 .47590638L.644989 .69506838Z"/>
<path id="font_2_2" d="M.375 .6136017C.3809967 .63760378 .38398744 .6476135 .40299989 .65060427 .4119873 .6516113 .44400025 .6516113 .46398927 .6516113 .5349884 .6516113 .6459961 .6516113 .6459961 .5525818 .6459961 .51856997 .6299896 .44955445 .59098818 .41055299 .5649872 .38453675 .5119934 .35253907 .42199708 .35253907H.30999757L.375 .6136017M.5189972 .33953858C.6199951 .3615265 .7389984 .43154908 .7389984 .5325775 .7389984 .61860659 .6489868 .6826172 .5179901 .6826172H.23298645C.21299744 .6826172 .20399475 .6826172 .20399475 .6626129 .20399475 .6516113 .21299744 .6516113 .23199463 .6516113 .23399353 .6516113 .25299073 .6516113 .269989 .6496124 .28799439 .6476135 .29699708 .64660647 .29699708 .63360598 .29699708 .62960818 .29599 .6266022 .29299928 .6145935L.15899658 .07752991C.14898682 .038528444 .14698792 .030532837 .067993167 .030532837 .049987794 .030532837 .040985109 .030532837 .040985109 .010528564 .040985109-.00047302247 .052993776-.00047302247 .054992677-.00047302247 .08299255-.00047302247 .15299988 .002532959 .18099976 .002532959 .20899964 .002532959 .27999879-.00047302247 .30799867-.00047302247 .31599427-.00047302247 .32798768-.00047302247 .32798768 .01953125 .32798768 .030532837 .31900025 .030532837 .2999878 .030532837 .2630005 .030532837 .23498535 .030532837 .23498535 .048538209 .23498535 .054534913 .23699951 .059524537 .23799134 .0655365L.3039856 .3305359H.4229889C.5139923 .3305359 .5319977 .27453614 .5319977 .23953247 .5319977 .22453308 .5239868 .19352722 .5179901 .17053223 .5109863 .14253235 .5019989 .105529788 .5019989 .08552551 .5019989-.022460938 .621994-.022460938 .6349945-.022460938 .7200012-.022460938 .7549896 .07853699 .7549896 .0925293 .7549896 .104537967 .74398806 .104537967 .7429962 .104537967 .73399356 .104537967 .7319946 .09753418 .7299957 .090530399 .7049866 .016525269 .6619873-.00047302247 .6389923-.00047302247 .60598757-.00047302247 .598999 .021530152 .598999 .060531618 .598999 .091537479 .6049957 .14253235 .60899356 .17453003 .61099246 .1885376 .61299136 .20753479 .61299136 .2215271 .61299136 .2985382 .54599 .3295288 .5189972 .33953858Z"/>
<path id="font_2_1" d="M.43798829 .0055236818C.59298709 .0644989 .73999026 .24256897 .73999026 .43579103 .73999026 .5969696 .6339874 .7050781 .4850006 .7050781 .2689972 .7050781 .04899597 .47784425 .04899597 .24456787 .04899597 .07847595 .16099549-.022460938 .30499269-.022460938 .32998658-.022460938 .3639984-.018463135 .40299989-.007461548 .39898683-.06939697 .39898683-.071380618 .39898683-.084365848 .39898683-.11634827 .39898683-.19433594 .48199464-.19433594 .6009979-.19433594 .6489868-.011474609 .6489868-.00047302247 .6489868 .0065307619 .6419983 .009521484 .6380005 .009521484 .6299896 .009521484 .6279907 .0045318605 .6259918-.0014648438 .60198977-.072387699 .5439911-.097335819 .5089874-.097335819 .46299745-.097335819 .44799806-.070388797 .43798829 .0055236818M.24899292 .013519287C.17098999 .044509889 .13699341 .12245178 .13699341 .21252442 .13699341 .2816162 .16299439 .4237671 .23899842 .5319061 .31199647 .63401797 .4059906 .68006899 .47898866 .68006899 .57899478 .68006899 .6519928 .6019745 .6519928 .4678192 .6519928 .3677063 .6009979 .13345337 .43299867 .039505006 .42799378 .07447815 .41799928 .14746094 .34498597 .14746094 .2919922 .14746094 .24299622 .097473148 .24299622 .04550171 .24299622 .025512696 .24899292 .014526367 .24899292 .013519287M.31098939 .002532959C.29699708 .002532959 .2649994 .002532959 .2649994 .04550171 .2649994 .08547974 .30299378 .12545777 .34498597 .12545777 .3869934 .12545777 .4059906 .10147095 .4059906 .040512086 .4059906 .025512696 .40499879 .024520874 .394989 .020523072 .36898805 .009521484 .33898927 .002532959 .31098939 .002532959Z"/>
<path id="font_2_4" d="M.7200012 .6586151C.72099307 .6626129 .72299197 .66760256 .72299197 .6736145 .72299197 .6826172 .71798709 .6826172 .69799807 .6826172H.27598573C.2519989 .6826172 .25099183 .6816101 .24499512 .6626129L.18998719 .4827118C.18798828 .47772218 .18699646 .47071839 .18699646 .46871949 .18699646 .46772767 .18699646 .45773316 .19898987 .45773316 .20799256 .45773316 .20999146 .46472169 .21199036 .46772767 .25 .5856476 .3019867 .6516113 .45799256 .6516113H.62098696L.06199646 .026992798C.06199646 .025985718 .057998659 .011993408 .057998659 .008987427 .057998659 0 .06498718 0 .08299255 0H.5179901C.5419922 0 .54299929 .0009918213 .548996 .019989014L.6199951 .24085999C.62098696 .24485779 .6239929 .25186158 .6239929 .25585938 .6239929 .260849 .6199951 .2668457 .61099246 .2668457 .60198977 .2668457 .6009979 .2628479 .59399417 .24186707 .5499878 .10594177 .5019989 .033996583 .33198548 .033996583H.16099549L.7200012 .6586151Z"/>
<path id="font_3_72" d="M.2809906 0V.035995485C.21598816 .035995485 .20599365 .035995485 .20599365 .07901001V.69433596L.055999757 .6826172V.64660647C.12298584 .64660647 .1309967 .6396179 .1309967 .59065249V.07896423C.1309967 .035995485 .12098694 .035995485 .055999757 .035995485V0C.055999757 0 .12799073 .0039978029 .16799927 .0039978029 .20599365 .0039978029 .24299622 .0029907227 .2809906 0Z"/>
<path id="font_3_81" d="M.5289917 .21325684C.5289917 .3382721 .42199708 .44628907 .28399659 .44628907 .1459961 .44628907 .038986207 .3382721 .038986207 .21325684 .038986207 .0892334 .14898682-.009765625 .28399659-.009765625 .4189911-.009765625 .5289917 .0892334 .5289917 .21325684M.43798829 .22225952C.43798829 .17424011 .43499757 .12124634 .4059906 .08023071 .3789978 .042236329 .33299256 .022232056 .28399659 .022232056 .24699402 .022232056 .19299317 .034225465 .1599884 .083236698 .1329956 .12423706 .12998963 .17625427 .12998963 .22225952 .12998963 .2652588 .1309967 .32426454 .1659851 .36727906 .19099427 .39627076 .23298645 .41827394 .28399659 .41827394 .34298707 .41827394 .3849945 .39027406 .40699769 .3592682 .43499757 .32026673 .43798829 .27026368 .43798829 .22225952Z"/>
<path id="font_3_28" d="M.5439911 .09013367V.14515686H.5099945V.09114075C.5099945 .08113098 .5099945 .033111574 .47299195 .033111574 .43598939 .033111574 .43598939 .0801239 .43598939 .09313965V.268219C.43598939 .3212433 .43598939 .35925294 .3899994 .39627076 .34899903 .4302826 .30099488 .44628907 .24198914 .44628907 .14698792 .44628907 .07998657 .41027833 .07998657 .34925843 .07998657 .31723023 .101989749 .30023194 .12799073 .30023194 .15499878 .30023194 .1749878 .3202362 .1749878 .34724427 .1749878 .3642578 .16699219 .38526917 .13999939 .39326478 .17599488 .41827394 .23399353 .41827394 .23999024 .41827394 .29599 .41827394 .35699464 .38127137 .35699464 .29722596V.2662201C.3019867 .26420594 .23599243 .2612152 .16299439 .23420716 .07299805 .20118714 .04499817 .14616394 .04499817 .101135257 .04499817 .0152282719 .14898682-.009765625 .21998596-.009765625 .2999878-.009765625 .34700013 .035232545 .36799623 .07423401 .37199403 .033111574 .39898683-.0048828127 .44499208-.0048828127 .44499208-.0048828127 .5439911-.0048828127 .5439911 .09010315V.09013367M.35699464 .14111328C.35699464 .04522705 .272995 .018234253 .22799683 .018234253 .1769867 .018234253 .1289978 .052230836 .1289978 .10122681 .1289978 .15621948 .1769867 .23323059 .35699464 .24023438V.14111328Z"/>
<path id="font_3_47" d="M.58099368 0V.035995485C.5139923 .035995485 .5059967 .042999269 .5059967 .09202576V.69433596L.35598756 .6826172V.64660647C.4229889 .64660647 .43099977 .6396332 .43099977 .5908203V.3843689C.3939972 .4203949 .34599305 .44140626 .29100038 .44140626 .1579895 .44140626 .04598999 .34132386 .04598999 .21520996 .04598999 .09008789 .1519928-.009765625 .2789917-.009765625 .36099244-.009765625 .4099884 .03414917 .4269867 .05206299V-.009765625L.58099368 0M.4269867 .10499573C.40098573 .05807495 .34999085 .018234253 .2849884 .018234253 .22898865 .018234253 .18899536 .051071168 .16899109 .080078128 .14898682 .11010742 .13699341 .15014649 .13699341 .21421814 .13699341 .23724365 .13699341 .3123169 .17799378 .35932923 .21798706 .40438844 .2669983 .4133911 .29599 .4133911 .34399415 .4133911 .3869934 .39137269 .4149933 .35533143 .4269867 .33932496 .4269867 .33833314 .4269867 .31933595V.10499573Z"/>
</defs>
<path transform="matrix(1.00003,0,0,-1.00009,122.537158,49.19735)" stroke-width=".3985" stroke-linecap="butt" stroke-miterlimit="10" stroke-linejoin="miter" fill="none" stroke="#000000" d="M-30.64835-7.93695-30.64833-15.02364M-30.64833-15.02364-30.64835-22.11034 0-32.31528M0-32.31528 30.64835-42.52023 30.64833-49.60692M30.64833-49.60692 30.64835-56.69363M-30.64835-48.75667-30.64833-41.66997M-30.64833-41.66997-30.64835-34.58328 0-24.37833M0-24.37833 30.64835-14.17339 30.64833-7.08669M30.64833-7.08669 30.64835 0M-69.01549-28.3468-76.10217-28.34679M-76.10217-28.34679-83.18889-28.3468M-48.97481-16.44109V-4.25206M-48.97481-4.25206V7.93695H-39.81157M-39.81157 7.93695H-30.64835M-48.97481-40.25252V-52.44154M-48.97481-52.44154V-64.63058L-39.81157-64.63057M-39.81157-64.63057-30.64835-64.63058M-48.97481 7.93695H-64.38106M-96.12944 7.93695H-111.53569V-28.3468M-111.53569-28.3468V-64.63058L-96.12944-64.63057M-64.38106-64.63057-48.97481-64.63058M-111.53569 7.93695V15.02364M-111.53569 15.02364V22.11034M30.64835 0H44.82175M44.82175 0H58.99516V-12.47261M58.99516-44.221V-56.69363"/>
<path transform="matrix(1.00003,0,0,-1.00009,122.537158,49.19735)" stroke-width=".3985" stroke-linecap="butt" stroke-miterlimit="10" stroke-linejoin="miter" fill="none" stroke="#000000" d="M-19.53711 7.93695H-30.64835M-19.53711-7.93695H-30.64835"/>
<path transform="matrix(1.00003,0,0,-1.00009,122.537158,49.19735)" stroke-width=".797" stroke-linecap="butt" stroke-miterlimit="10" stroke-linejoin="miter" fill="none" stroke="#000000" d="M-19.53711 15.8739H3.66321C12.43024 15.8739 19.53712 8.76701 19.53712 0 19.53712-8.76701 12.43024-15.8739 3.66321-15.8739H-19.53711Z"/>
<path transform="matrix(1.00003,0,0,-1.00009,122.537158,49.19735)" stroke-width=".3985" stroke-linecap="butt" stroke-miterlimit="10" stroke-linejoin="miter" fill="none" stroke="#000000" d="M24.42648 0H30.64835"/>
<path transform="matrix(1.00003,0,0,-1.00009,122.537158,49.19735)" d="M24.42648 0C24.42648 1.35017 23.33197 2.44469 21.9818 2.44469 20.63162 2.44469 19.53711 1.35017 19.53711 0 19.53711-1.35017 20.63162-2.44469 21.9818-2.44469 23.33197-2.44469 24.42648-1.35017 24.42648 0ZM21.9818 0" fill="#ffffff"/>
<path transform="matrix(1.00003,0,0,-1.00009,122.537158,49.19735)" stroke-width=".797" stroke-linecap="butt" stroke-miterlimit="10" stroke-linejoin="miter" fill="none" stroke="#000000" d="M24.42648 0C24.42648 1.35017 23.33197 2.44469 21.9818 2.44469 20.63162 2.44469 19.53711 1.35017 19.53711 0 19.53711-1.35017 20.63162-2.44469 21.9818-2.44469 23.33197-2.44469 24.42648-1.35017 24.42648 0ZM21.9818 0"/>
<path transform="matrix(1.00003,0,0,-1.00009,122.537158,49.19735)" d="" fill="#ffffff"/>
<path transform="matrix(1.00003,0,0,-1.00009,122.537158,49.19735)" stroke-width=".797" stroke-linecap="butt" stroke-miterlimit="10" stroke-linejoin="miter" fill="none" stroke="#000000" d=""/>
<path transform="matrix(1.00003,0,0,-1.00009,122.537158,49.19735)" stroke-width=".3985" stroke-linecap="butt" stroke-miterlimit="10" stroke-linejoin="miter" fill="none" stroke="#000000" d="M-19.53711-48.75667H-30.64835M-19.53711-64.63058H-30.64835"/>
<path transform="matrix(1.00003,0,0,-1.00009,122.537158,49.19735)" stroke-width=".797" stroke-linecap="butt" stroke-miterlimit="10" stroke-linejoin="miter" fill="none" stroke="#000000" d="M-19.53711-40.81972H3.66321C12.43024-40.81972 19.53712-47.9266 19.53712-56.69363 19.53712-65.46065 12.43024-72.56754 3.66321-72.56754H-19.53711Z"/>
<path transform="matrix(1.00003,0,0,-1.00009,122.537158,49.19735)" stroke-width=".3985" stroke-linecap="butt" stroke-miterlimit="10" stroke-linejoin="miter" fill="none" stroke="#000000" d="M24.42648-56.69363H30.64835"/>
<path transform="matrix(1.00003,0,0,-1.00009,122.537158,49.19735)" d="M24.42648-56.69363C24.42648-55.34344 23.33197-54.24893 21.9818-54.24893 20.63162-54.24893 19.53711-55.34344 19.53711-56.69363 19.53711-58.04381 20.63162-59.13832 21.9818-59.13832 23.33197-59.13832 24.42648-58.04381 24.42648-56.69363ZM21.9818-56.69363" fill="#ffffff"/>
<path transform="matrix(1.00003,0,0,-1.00009,122.537158,49.19735)" stroke-width=".797" stroke-linecap="butt" stroke-miterlimit="10" stroke-linejoin="miter" fill="none" stroke="#000000" d="M24.42648-56.69363C24.42648-55.34344 23.33197-54.24893 21.9818-54.24893 20.63162-54.24893 19.53711-55.34344 19.53711-56.69363 19.53711-58.04381 20.63162-59.13832 21.9818-59.13832 23.33197-59.13832 24.42648-58.04381 24.42648-56.69363ZM21.9818-56.69363"/>
<path transform="matrix(1.00003,0,0,-1.00009,122.537158,49.19735)" d="" fill="#ffffff"/>
<path transform="matrix(1.00003,0,0,-1.00009,122.537158,49.19735)" stroke-width=".797" stroke-linecap="butt" stroke-miterlimit="10" stroke-linejoin="miter" fill="none" stroke="#000000" d=""/>
<path transform="matrix(1.00003,0,0,-1.00009,122.537158,49.19735)" stroke-width="3.17429" stroke-linecap="round" stroke-miterlimit="10" stroke-linejoin="miter" fill="none" stroke="#000000" d="M-67.42833-28.3468-50.56195-18.82181"/>
<path transform="matrix(1.00003,0,0,-1.00009,122.537158,49.19735)" stroke-width=".797" stroke-linecap="butt" stroke-miterlimit="10" stroke-linejoin="miter" fill="none" stroke="#000000" d="M-63.10179-16.45984C-56.53674-18.84935-53.15187-26.10829-55.54138-32.67334-55.94417-33.78003-56.49803-34.8205-57.18326-35.76657"/>
<path transform="matrix(-.6192686,.7852007,.7851536,.61930575,65.163089,84.79712)" d="M3.1083 0C1.81317 .25902-.51805 .77707-2.0722 1.94269-.77707 .51805-.77707-.51805-2.0722-1.94269-.51805-.77707 1.81317-.25902 3.1083 0Z"/>
<path transform="matrix(1.00003,0,0,-1.00009,122.537158,49.19735)" d="M-48.97481-16.44109C-48.97481-15.56453-49.6854-14.85394-50.56195-14.85394-51.43852-14.85394-52.14911-15.56453-52.14911-16.44109-52.14911-17.31764-51.43852-18.02823-50.56195-18.02823-49.6854-18.02823-48.97481-17.31764-48.97481-16.44109ZM-50.56195-16.44109" fill="#ffffff"/>
<path transform="matrix(1.00003,0,0,-1.00009,122.537158,49.19735)" stroke-width=".3985" stroke-linecap="butt" stroke-miterlimit="10" stroke-linejoin="miter" fill="none" stroke="#000000" d="M-48.97481-16.44109C-48.97481-15.56453-49.6854-14.85394-50.56195-14.85394-51.43852-14.85394-52.14911-15.56453-52.14911-16.44109-52.14911-17.31764-51.43852-18.02823-50.56195-18.02823-49.6854-18.02823-48.97481-17.31764-48.97481-16.44109ZM-50.56195-16.44109"/>
<path transform="matrix(1.00003,0,0,-1.00009,122.537158,49.19735)" d="" fill="#ffffff"/>
<path transform="matrix(1.00003,0,0,-1.00009,122.537158,49.19735)" stroke-width=".3985" stroke-linecap="butt" stroke-miterlimit="10" stroke-linejoin="miter" fill="none" stroke="#000000" d=""/>
<path transform="matrix(1.00003,0,0,-1.00009,122.537158,49.19735)" d="M-48.97481-40.25252C-48.97481-39.37596-49.6854-38.66537-50.56195-38.66537-51.43852-38.66537-52.14911-39.37596-52.14911-40.25252-52.14911-41.12907-51.43852-41.83966-50.56195-41.83966-49.6854-41.83966-48.97481-41.12907-48.97481-40.25252ZM-50.56195-40.25252" fill="#ffffff"/>
<path transform="matrix(1.00003,0,0,-1.00009,122.537158,49.19735)" stroke-width=".3985" stroke-linecap="butt" stroke-miterlimit="10" stroke-linejoin="miter" fill="none" stroke="#000000" d="M-48.97481-40.25252C-48.97481-39.37596-49.6854-38.66537-50.56195-38.66537-51.43852-38.66537-52.14911-39.37596-52.14911-40.25252-52.14911-41.12907-51.43852-41.83966-50.56195-41.83966-49.6854-41.83966-48.97481-41.12907-48.97481-40.25252ZM-50.56195-40.25252"/>
<path transform="matrix(1.00003,0,0,-1.00009,122.537158,49.19735)" d="" fill="#ffffff"/>
<path transform="matrix(1.00003,0,0,-1.00009,122.537158,49.19735)" stroke-width=".3985" stroke-linecap="butt" stroke-miterlimit="10" stroke-linejoin="miter" fill="none" stroke="#000000" d=""/>
<path transform="matrix(1.00003,0,0,-1.00009,122.537158,49.19735)" d="M-65.84119-28.3468C-65.84119-27.47025-66.55177-26.75966-67.42833-26.75966-68.3049-26.75966-69.01549-27.47025-69.01549-28.3468-69.01549-29.22336-68.3049-29.93394-67.42833-29.93394-66.55177-29.93394-65.84119-29.22336-65.84119-28.3468ZM-67.42833-28.3468" fill="#ffffff"/>
<path transform="matrix(1.00003,0,0,-1.00009,122.537158,49.19735)" stroke-width=".3985" stroke-linecap="butt" stroke-miterlimit="10" stroke-linejoin="miter" fill="none" stroke="#000000" d="M-65.84119-28.3468C-65.84119-27.47025-66.55177-26.75966-67.42833-26.75966-68.3049-26.75966-69.01549-27.47025-69.01549-28.3468-69.01549-29.22336-68.3049-29.93394-67.42833-29.93394-66.55177-29.93394-65.84119-29.22336-65.84119-28.3468ZM-67.42833-28.3468"/>
<path transform="matrix(1.00003,0,0,-1.00009,122.537158,49.19735)" d="" fill="#ffffff"/>
<path transform="matrix(1.00003,0,0,-1.00009,122.537158,49.19735)" stroke-width=".3985" stroke-linecap="butt" stroke-miterlimit="10" stroke-linejoin="miter" fill="none" stroke="#000000" d=""/>
<path transform="matrix(1.00003,0,0,-1.00009,122.537158,49.19735)" stroke-width=".3985" stroke-linecap="butt" stroke-miterlimit="10" stroke-linejoin="miter" fill="none" stroke="#000000" d="M-83.18889-28.3468V-38.26814"/>
<path transform="matrix(1.00003,0,0,-1.00009,122.537158,49.19735)" stroke-width=".797" stroke-linecap="butt" stroke-miterlimit="10" stroke-linejoin="miter" fill="none" stroke="#000000" d="M-89.14174-38.26814H-77.23602L-83.18889-46.20523Z"/>
<path transform="matrix(1.00003,0,0,-1.00009,122.537158,49.19735)" stroke-width=".797" stroke-linecap="butt" stroke-linejoin="bevel" fill="none" stroke="#000000" d="M-63.98254 7.93695-67.02675 1.9841-72.31813 13.8898-77.60951 1.9841-82.9009 13.8898-88.19228 1.9841-93.48366 13.8898-96.52786 7.93695"/>
<path transform="matrix(1.00003,0,0,-1.00009,122.537158,49.19735)" d="M-47.38766 7.93695C-47.38766 8.8135-48.09825 9.5241-48.97481 9.5241-49.85136 9.5241-50.56195 8.8135-50.56195 7.93695-50.56195 7.06038-49.85136 6.3498-48.97481 6.3498-48.09825 6.3498-47.38766 7.06038-47.38766 7.93695ZM-48.97481 7.93695"/>
<path transform="matrix(1.00003,0,0,-1.00009,122.537158,49.19735)" stroke-width=".3985" stroke-linecap="butt" stroke-miterlimit="10" stroke-linejoin="miter" fill="none" stroke="#000000" d="M-47.38766 7.93695C-47.38766 8.8135-48.09825 9.5241-48.97481 9.5241-49.85136 9.5241-50.56195 8.8135-50.56195 7.93695-50.56195 7.06038-49.85136 6.3498-48.97481 6.3498-48.09825 6.3498-47.38766 7.06038-47.38766 7.93695ZM-48.97481 7.93695"/>
<path transform="matrix(1.00003,0,0,-1.00009,122.537158,49.19735)" stroke-width=".797" stroke-linecap="butt" stroke-linejoin="bevel" fill="none" stroke="#000000" d="M-96.52795-64.63057-93.48375-58.67772-88.19237-70.58342-82.90099-58.67772-77.6096-70.58342-72.31822-58.67772-67.02684-70.58342-63.98264-64.63057"/>
<path transform="matrix(1.00003,0,0,-1.00009,122.537158,49.19735)" d="M-47.38766-64.63058C-47.38766-63.75401-48.09825-63.04343-48.97481-63.04343-49.85136-63.04343-50.56195-63.75401-50.56195-64.63058-50.56195-65.50714-49.85136-66.21773-48.97481-66.21773-48.09825-66.21773-47.38766-65.50714-47.38766-64.63058ZM-48.97481-64.63058"/>
<path transform="matrix(1.00003,0,0,-1.00009,122.537158,49.19735)" stroke-width=".3985" stroke-linecap="butt" stroke-miterlimit="10" stroke-linejoin="miter" fill="none" stroke="#000000" d="M-47.38766-64.63058C-47.38766-63.75401-48.09825-63.04343-48.97481-63.04343-49.85136-63.04343-50.56195-63.75401-50.56195-64.63058-50.56195-65.50714-49.85136-66.21773-48.97481-66.21773-48.09825-66.21773-47.38766-65.50714-47.38766-64.63058ZM-48.97481-64.63058"/>
<path transform="matrix(1.00003,0,0,-1.00009,122.537158,49.19735)" d="M-109.94855 7.93695C-109.94855 8.8135-110.65913 9.5241-111.53569 9.5241-112.41225 9.5241-113.12283 8.8135-113.12283 7.93695-113.12283 7.06038-112.41225 6.3498-111.53569 6.3498-110.65913 6.3498-109.94855 7.06038-109.94855 7.93695ZM-111.53569 7.93695"/>
<path transform="matrix(1.00003,0,0,-1.00009,122.537158,49.19735)" stroke-width=".3985" stroke-linecap="butt" stroke-miterlimit="10" stroke-linejoin="miter" fill="none" stroke="#000000" d="M-109.94855 7.93695C-109.94855 8.8135-110.65913 9.5241-111.53569 9.5241-112.41225 9.5241-113.12283 8.8135-113.12283 7.93695-113.12283 7.06038-112.41225 6.3498-111.53569 6.3498-110.65913 6.3498-109.94855 7.06038-109.94855 7.93695ZM-111.53569 7.93695"/>
<path transform="matrix(1.00003,0,0,-1.00009,122.537158,49.19735)" stroke-width=".797" stroke-linecap="butt" stroke-miterlimit="10" stroke-linejoin="miter" fill="none" stroke="#000000" d="M-115.50417 28.45992-111.53569 34.01578-107.56721 28.45992"/>
<path transform="matrix(1.00003,0,0,-1.00009,122.537158,49.19735)" stroke-width=".3985" stroke-linecap="butt" stroke-miterlimit="10" stroke-linejoin="miter" fill="none" stroke="#000000" d="M-111.53569 22.11034V34.01578"/>
<use data-text="+" xlink:href="#font_1_89" transform="matrix(9.962899,0,0,-9.963496,.8955078,7.8066256)"/>
<use data-text="5" xlink:href="#font_1_56" transform="matrix(9.962899,0,0,-9.963496,8.646637,7.8066256)"/>
<use data-text="V" xlink:href="#font_1_111" transform="matrix(9.962899,0,0,-9.963496,13.628082,7.8066256)"/>
<path transform="matrix(1.00003,0,0,-1.00009,-127.45837,.5309677)" stroke-width=".3985" stroke-linecap="butt" stroke-miterlimit="10" stroke-linejoin="miter" fill="none" stroke="#000000" d="M204.533-29.002H211.216"/>
<use data-text="S" xlink:href="#font_2_3" transform="matrix(9.962899,0,0,-9.963496,77.08079,37.73932)"/>
<path transform="matrix(1.00003,0,0,-1.00009,-127.45837,88.94692)" stroke-width=".3985" stroke-linecap="butt" stroke-miterlimit="10" stroke-linejoin="miter" fill="none" stroke="#000000" d="M204.533-29.002H212.175"/>
<use data-text="R" xlink:href="#font_2_2" transform="matrix(9.962899,0,0,-9.963496,77.08079,126.15527)"/>
<use data-text="Q" xlink:href="#font_2_1" transform="matrix(9.962899,0,0,-9.963496,149.24796,43.73986)"/>
<path transform="matrix(1.00003,0,0,-1.00009,122.537158,49.19735)" d="M32.2355 0C32.2355 .87656 31.52492 1.58714 30.64835 1.58714 29.77179 1.58714 29.0612 .87656 29.0612 0 29.0612-.87656 29.77179-1.58714 30.64835-1.58714 31.52492-1.58714 32.2355-.87656 32.2355 0ZM30.64835 0"/>
<path transform="matrix(1.00003,0,0,-1.00009,122.537158,49.19735)" stroke-width=".3985" stroke-linecap="butt" stroke-miterlimit="10" stroke-linejoin="miter" fill="none" stroke="#000000" d="M32.2355 0C32.2355 .87656 31.52492 1.58714 30.64835 1.58714 29.77179 1.58714 29.0612 .87656 29.0612 0 29.0612-.87656 29.77179-1.58714 30.64835-1.58714 31.52492-1.58714 32.2355-.87656 32.2355 0ZM30.64835 0"/>
<path transform="matrix(1.00003,0,0,-1.00009,122.537158,49.19735)" stroke-width=".797" stroke-linecap="butt" stroke-miterlimit="10" stroke-linejoin="miter" fill="none" stroke="#000000" d="M53.04231-44.221V-12.47261H64.94801V-44.221ZM64.94801-12.47261"/>
<use data-text="Z" xlink:href="#font_2_4" transform="matrix(9.962899,0,0,-9.963496,189.69318,79.69409)"/>
<use data-text="l" xlink:href="#font_3_72" transform="matrix(6.9740097,0,0,-6.9744279,196.49436,81.188228)"/>
<use data-text="o" xlink:href="#font_3_81" transform="matrix(6.9740097,0,0,-6.9744279,198.74695,81.188228)"/>
<use data-text="a" xlink:href="#font_3_28" transform="matrix(6.9740097,0,0,-6.9744279,202.71518,81.188228)"/>
<use data-text="d" xlink:href="#font_3_47" transform="matrix(6.9740097,0,0,-6.9744279,206.68338,81.188228)"/>
<path transform="matrix(1.00003,0,0,-1.00009,122.537158,49.19735)" stroke-width=".3985" stroke-linecap="butt" stroke-miterlimit="10" stroke-linejoin="miter" fill="none" stroke="#000000" d="M58.99516-56.69363V-66.61497"/>
<path transform="matrix(1.00003,0,0,-1.00009,122.537158,49.19735)" stroke-width=".797" stroke-linecap="butt" stroke-miterlimit="10" stroke-linejoin="miter" fill="none" stroke="#000000" d="M53.04231-66.61497H64.94801L58.99516-74.55206Z"/>
</svg>
