<svg xmlns="http://www.w3.org/2000/svg" xmlns:xlink="http://www.w3.org/1999/xlink" xmlns:inkscape="http://www.inkscape.org/namespaces/inkscape" version="1.1" width="434" height="98" viewBox="0 0 434 98">
<defs>
<path id="font_1_3" d="M.6279907 .5686035C.6769867 .64660647 .71899417 .6496124 .7559967 .6516113 .7679901 .65260317 .7689972 .6696167 .7689972 .6706085 .7689972 .6786041 .7639923 .6826172 .7559967 .6826172 .7299957 .6826172 .70098879 .6796112 .673996 .6796112 .6409912 .6796112 .6069946 .6826172 .57499697 .6826172 .56900027 .6826172 .55599978 .6826172 .55599978 .66360476 .55599978 .65260317 .5649872 .6516113 .57199099 .6516113 .598999 .6496124 .6179962 .63960269 .6179962 .61860659 .6179962 .6036072 .6029968 .581604 .6029968 .5805969L.29599 .092544559 .22799683 .62161257C.22799683 .63861086 .25099183 .6516113 .29699708 .6516113 .31098939 .6516113 .32199098 .6516113 .32199098 .6716156 .32199098 .680603 .31399537 .6826172 .30799867 .6826172 .2679901 .6826172 .22499085 .6796112 .18399048 .6796112 .1659851 .6796112 .14698792 .680603 .1289978 .680603 .11099243 .680603 .09199524 .6826172 .07499695 .6826172 .067993167 .6826172 .055999757 .6826172 .055999757 .66360476 .055999757 .6516113 .06498718 .6516113 .08099365 .6516113 .13699341 .6516113 .13798523 .64260867 .14099121 .6175995L.21998596 .0005340576C.22299195-.019470215 .22698975-.022460938 .23999024-.022460938 .2559967-.022460938 .2599945-.017471314 .2679901-.004470825L.6279907 .5686035Z"/>
<path id="font_2_1" d="M.2639923 .66430667C.2649994 .66630557 .2679901 .67930606 .2679901 .68029788 .2679901 .68530276 .2639923 .6943054 .2519989 .6943054 .23199463 .6943054 .14898682 .6863098 .12399292 .6843109 .115997318 .68330386 .101989749 .682312 .101989749 .66130068 .101989749 .64730837 .115997318 .64730837 .12799073 .64730837 .17599488 .64730837 .17599488 .64030459 .17599488 .63230898 .17599488 .62532046 .1659851 .58532717 .1599884 .5623474L.13699341 .4703827C.12799073 .43640138 .07299805 .21731568 .070999149 .20431519 .06599426 .18029785 .06599426 .16729737 .06599426 .1552887 .06599426 .054244996 .12998963-.009765625 .21299744-.009765625 .33799745-.009765625 .47099305 .12626648 .47099305 .27433778 .47099305 .39138795 .3899994 .44140626 .32099916 .44140626 .2689972 .44140626 .22499085 .4123993 .19499207 .38638307L.2639923 .66430667M.21398926 .018234253C.16499329 .018234253 .13699341 .06124878 .13699341 .120269779 .13699341 .1572876 .1459961 .19129944 .17399597 .3043518 .17999268 .32336427 .17999268 .32536317 .19898987 .34736634 .23699951 .39138795 .28199769 .4133911 .31799317 .4133911 .35699464 .4133911 .3909912 .38438417 .3909912 .31636048 .3909912 .27534486 .36898805 .17329407 .33898927 .11526489 .31498719 .06625366 .2649994 .018234253 .21398926 .018234253Z"/>
<path id="font_1_1" d="M.37399293 .6056366C.3829956 .6416168 .38598634 .6516113 .46499635 .6516113 .4889984 .6516113 .49699403 .6516113 .49699403 .6706085 .49699403 .6826172 .48599244 .6826172 .48199464 .6826172 .45298768 .6826172 .3789978 .6796112 .34999085 .6796112 .31999208 .6796112 .24699402 .6826172 .21699524 .6826172 .20999146 .6826172 .19699097 .6826172 .19699097 .6626129 .19699097 .6516113 .20599365 .6516113 .22499085 .6516113 .2669983 .6516113 .2939911 .6516113 .2939911 .63261416 .2939911 .6276245 .2939911 .6256256 .2919922 .6166229L.15699768 .07795715C.147995 .040985109 .14498902 .0309906 .06599426 .0309906 .042999269 .0309906 .033996583 .0309906 .033996583 .010986328 .033996583 0 .04598999 0 .04899597 0 .07798767 0 .15098572 .0029907227 .17999268 .0029907227 .20999146 .0029907227 .28399659 0 .31399537 0 .32199098 0 .33399964 0 .33399964 .018997193 .33399964 .0309906 .32598878 .0309906 .3039856 .0309906 .28599549 .0309906 .2809906 .0309906 .26098634 .032989503 .23999024 .034988405 .23599243 .038986207 .23599243 .049987794 .23599243 .05796814 .23799134 .065963748 .23999024 .07296753L.37399293 .6056366Z"/>
<path id="font_3_4" d="M.33499146 .63612368C.33499146 .6630554 .33299256 .6640625 .30499269 .6640625 .24099732 .6014404 .1499939 .6004486 .10899353 .6004486V.5644531C.1329956 .5644531 .19898987 .5644531 .2539978 .592453V.08203125C.2539978 .04899597 .2539978 .035995485 .1539917 .035995485H.115997318V0C.13398743 .0009918213 .25698854 .0039978029 .2939911 .0039978029 .32499696 .0039978029 .45098878 .0009918213 .47299195 0V.035995485H.43499757C.33499146 .035995485 .33499146 .04899597 .33499146 .08203125V.63612368Z"/>
<path id="font_1_2" d="M.375 .6136017C.3809967 .63760378 .38398744 .6476135 .40299989 .65060427 .4119873 .6516113 .44400025 .6516113 .46398927 .6516113 .5349884 .6516113 .6459961 .6516113 .6459961 .5525818 .6459961 .51856997 .6299896 .44955445 .59098818 .41055299 .5649872 .38453675 .5119934 .35253907 .42199708 .35253907H.30999757L.375 .6136017M.5189972 .33953858C.6199951 .3615265 .7389984 .43154908 .7389984 .5325775 .7389984 .61860659 .6489868 .6826172 .5179901 .6826172H.23298645C.21299744 .6826172 .20399475 .6826172 .20399475 .6626129 .20399475 .6516113 .21299744 .6516113 .23199463 .6516113 .23399353 .6516113 .25299073 .6516113 .269989 .6496124 .28799439 .6476135 .29699708 .64660647 .29699708 .63360598 .29699708 .62960818 .29599 .6266022 .29299928 .6145935L.15899658 .07752991C.14898682 .038528444 .14698792 .030532837 .067993167 .030532837 .049987794 .030532837 .040985109 .030532837 .040985109 .010528564 .040985109-.00047302247 .052993776-.00047302247 .054992677-.00047302247 .08299255-.00047302247 .15299988 .002532959 .18099976 .002532959 .20899964 .002532959 .27999879-.00047302247 .30799867-.00047302247 .31599427-.00047302247 .32798768-.00047302247 .32798768 .01953125 .32798768 .030532837 .31900025 .030532837 .2999878 .030532837 .2630005 .030532837 .23498535 .030532837 .23498535 .048538209 .23498535 .054534913 .23699951 .059524537 .23799134 .0655365L.3039856 .3305359H.4229889C.5139923 .3305359 .5319977 .27453614 .5319977 .23953247 .5319977 .22453308 .5239868 .19352722 .5179901 .17053223 .5109863 .14253235 .5019989 .105529788 .5019989 .08552551 .5019989-.022460938 .621994-.022460938 .6349945-.022460938 .7200012-.022460938 .7549896 .07853699 .7549896 .0925293 .7549896 .104537967 .74398806 .104537967 .7429962 .104537967 .73399356 .104537967 .7319946 .09753418 .7299957 .090530399 .7049866 .016525269 .6619873-.00047302247 .6389923-.00047302247 .60598757-.00047302247 .598999 .021530152 .598999 .060531618 .598999 .091537479 .6049957 .14253235 .60899356 .17453003 .61099246 .1885376 .61299136 .20753479 .61299136 .2215271 .61299136 .2985382 .54599 .3295288 .5189972 .33953858Z"/>
<path id="font_3_5" d="M.5049896 .18203736H.47099305C.46798707 .16001892 .45799256 .100997928 .44499208 .09098816 .43699647 .084991458 .3600006 .084991458 .34599305 .084991458H.1619873C.2669983 .17803955 .3019867 .20603943 .3619995 .25306703 .43598939 .312088 .5049896 .374115 .5049896 .46914674 .5049896 .5900879 .39898683 .6640625 .2709961 .6640625 .14698792 .6640625 .06298828 .57710269 .06298828 .4851532 .06298828 .43414308 .10598755 .42915345 .115997318 .42915345 .13999939 .42915345 .16899109 .44615174 .16899109 .48214723 .16899109 .5001526 .1619873 .53515627 .10998535 .53515627 .14099121 .6060791 .20899964 .62805178 .2559967 .62805178 .35598756 .62805178 .4079895 .5501404 .4079895 .46914674 .4079895 .38212586 .34599305 .3130951 .31399537 .27708436L.07299805 .038986207C.06298828 .02999878 .06298828 .027999878 .06298828 0H.47499085L.5049896 .18203736Z"/>
<path id="font_3_6" d="M.272995 .33428956C.35099793 .33428956 .40699769 .2803192 .40699769 .1733551 .40699769 .04940796 .33499146 .012466431 .2769928 .012466431 .23699951 .012466431 .14898682 .0234375 .10699463 .082351688 .1539917 .084350589 .16499329 .11735535 .16499329 .13835144 .16499329 .17034912 .14099121 .19335938 .10998535 .19335938 .08198547 .19335938 .053985597 .17634583 .053985597 .13534546 .053985597 .041412355 .1579895-.01953125 .2789917-.01953125 .41799928-.01953125 .5139923 .07336426 .5139923 .1733551 .5139923 .2513275 .44999696 .32929994 .33999635 .35229493 .44499208 .39024354 .48298646 .4650879 .48298646 .5260773 .48298646 .60505679 .3919983 .6640625 .2809906 .6640625 .16999817 .6640625 .084991458 .61006167 .084991458 .5300751 .084991458 .49606324 .10699463 .47706605 .13699341 .47706605 .16799927 .47706605 .18798828 .5000763 .18798828 .5280762 .18798828 .5570679 .16799927 .57806399 .13699341 .5800781 .17199707 .62405398 .24099732 .63505557 .27799989 .63505557 .32299806 .63505557 .38598634 .6130676 .38598634 .5260773 .38598634 .48406983 .37199403 .43814088 .34599305 .4072113 .31298829 .36927796 .2849884 .3672943 .23498535 .36428834 .20999146 .3623047 .20799256 .3623047 .20298767 .3612976 .20098877 .3612976 .19299317 .3592987 .19299317 .34829713 .19299317 .33428956 .20199585 .33428956 .21899414 .33428956H.272995Z"/>
<path id="font_3_3" d="M.46299745 .2263794H.7689972C.7819977 .2263794 .80599978 .2263794 .80599978 .25038148 .80599978 .27539063 .7829895 .27539063 .7689972 .27539063H.46299745V.5821533C.46299745 .59513857 .46299745 .6191406 .43899537 .6191406 .4139862 .6191406 .4139862 .5961304 .4139862 .5821533V.27539063H.10699463C.09399414 .27539063 .069992069 .27539063 .069992069 .25138856 .069992069 .2263794 .09298706 .2263794 .10699463 .2263794H.4139862V-.08114624C.4139862-.09416199 .4139862-.11816406 .43798829-.11816406 .46299745-.11816406 .46299745-.09516907 .46299745-.08114624V.2263794Z"/>
<path id="font_3_1" d="M.35499574 .75C.16499329 .61598208 .114990238 .40397645 .114990238 .25097657 .114990238 .10997009 .15699768-.10902405 .35499574-.24902344 .36299134-.24902344 .375-.24902344 .375-.23703003 .375-.23103333 .37199403-.22903443 .36499024-.22203064 .23199463-.10203552 .18299866 .067977908 .18299866 .24996948 .18299866 .519989 .28599549 .65197756 .36799623 .72598269 .37199403 .7299957 .375 .73298647 .375 .73799136 .375 .75 .36299134 .75 .35499574 .75Z"/>
<path id="font_3_2" d="M.08999634 .75C.08299255 .75 .070999149 .75 .070999149 .73799136 .070999149 .73298647 .07398987 .7299957 .07998657 .72299197 .1659851 .64398196 .2619934 .5089874 .2619934 .25097657 .2619934 .04197693 .19699097-.11602783 .08898926-.21403504 .07199097-.23103333 .070999149-.23202515 .070999149-.23703003 .070999149-.24203491 .07398987-.24902344 .083999637-.24902344 .09599304-.24902344 .19099427-.18302918 .25698854-.058029176 .30099488 .024978638 .32998658 .13298035 .32998658 .24996948 .32998658 .39097596 .28799439 .60998538 .08999634 .75Z"/>
<path id="font_4_1" d="M.19400025 .71099856C.19400025 .7259979 .19400025 .75 .16999817 .75 .14498902 .75 .14498902 .72698977 .14498902 .71099856V-.2110138C.14498902-.22601319 .14498902-.25 .16899109-.25 .19400025-.25 .19400025-.227005 .19400025-.2110138V.71099856Z"/>
</defs>
<path transform="matrix(1.00002,0,0,-1,13.200905,94.511)" stroke-width=".3985" stroke-linecap="butt" stroke-miterlimit="10" stroke-linejoin="miter" fill="none" stroke="#000000" d="M0 0"/>
<path transform="matrix(1.00002,0,0,-1,13.200905,94.511)" stroke-width=".3985" stroke-linecap="butt" stroke-miterlimit="10" stroke-linejoin="miter" fill="none" stroke="#000000" d="M0 90.71013"/>
<path transform="matrix(1.00002,0,0,-1,13.200905,94.511)" stroke-width=".3985" stroke-linecap="butt" stroke-miterlimit="10" stroke-linejoin="miter" fill="none" stroke="#000000" d="M0 90.71487V51.31566M0 39.4087V0"/>
<path transform="matrix(1.00002,0,0,-1,13.200905,94.511)" stroke-width=".797" stroke-linecap="butt" stroke-miterlimit="10" stroke-linejoin="miter" fill="none" stroke="#000000" d="M11.90572 51.31027H-11.90572M5.95285 47.3417H-5.95285M11.90572 43.37314H-11.90572M5.95285 39.40457H-5.95285"/>
<use data-text="V" xlink:href="#font_1_3" transform="matrix(9.962799,0,0,-9.9626,28.31221,51.296)"/>
<use data-text="b" xlink:href="#font_2_1" transform="matrix(6.97394,0,0,-6.9738,34.12332,52.791006)"/>
<path transform="matrix(1.00002,0,0,-1,13.200905,94.511)" stroke-width=".3985" stroke-linecap="butt" stroke-miterlimit="10" stroke-linejoin="miter" fill="none" stroke="#000000" d="M0 90.71487 22.67989 90.72438M22.67989 90.72438 45.35506 90.71487 45.35979 83.92033M45.35979 52.16861 45.35506 45.3598 45.35979 38.56049M45.35979 6.80876 45.35506 .00473 22.67989 .00237M22.67989 .00237 0 0"/>
<path transform="matrix(1.00002,0,0,-1,13.200905,94.511)" d="M46.9422 90.71487C46.9422 91.59145 46.23161 92.30203 45.35506 92.30203 44.47849 92.30203 43.7679 91.59145 43.7679 90.71487 43.7679 89.83832 44.47849 89.12773 45.35506 89.12773 46.23161 89.12773 46.9422 89.83832 46.9422 90.71487ZM45.35506 90.71487"/>
<path transform="matrix(1.00002,0,0,-1,13.200905,94.511)" stroke-width=".3985" stroke-linecap="butt" stroke-miterlimit="10" stroke-linejoin="miter" fill="none" stroke="#000000" d="M46.9422 90.71487C46.9422 91.59145 46.23161 92.30203 45.35506 92.30203 44.47849 92.30203 43.7679 91.59145 43.7679 90.71487 43.7679 89.83832 44.47849 89.12773 45.35506 89.12773 46.23161 89.12773 46.9422 89.83832 46.9422 90.71487ZM45.35506 90.71487"/>
<path transform="matrix(1.00002,0,0,-1,13.200905,94.511)" d="M20.94366 90.7244V88.74014L25.1602 90.7244 20.94366 92.70865Z"/>
<path transform="matrix(1.00002,0,0,-1,13.200905,94.511)" stroke-width=".3985" stroke-linecap="butt" stroke-miterlimit="10" stroke-linejoin="miter" fill="none" stroke="#000000" d="M20.94366 90.7244V88.74014L25.1602 90.7244 20.94366 92.70865Z"/>
<use data-text="I" xlink:href="#font_1_1" transform="matrix(9.962799,0,0,-9.9626,31.458271,14.110001)"/>
<use data-text="1" xlink:href="#font_3_4" transform="matrix(6.97394,0,0,-6.9738,35.837354,15.605003)"/>
<path transform="matrix(1.00002,0,0,-1,13.200905,94.511)" stroke-width=".797" stroke-linecap="butt" stroke-linejoin="bevel" fill="none" stroke="#000000" d="M45.35506 84.31003 51.3079 81.23262 39.40219 75.8748 51.3079 70.51698 39.40219 65.15916 51.3079 59.80135 39.40219 54.44354 45.35506 51.76463"/>
<use data-text="R" xlink:href="#font_1_2" transform="matrix(9.962799,0,0,-9.9626,37.9654,28.613999)"/>
<use data-text="1" xlink:href="#font_3_4" transform="matrix(6.97394,0,0,-6.9738,45.529558,30.109002)"/>
<path transform="matrix(1.00002,0,0,-1,13.200905,94.511)" d="M45.36215 50.50552H43.3779L45.36215 46.28899 47.3464 50.50552Z"/>
<path transform="matrix(1.00002,0,0,-1,13.200905,94.511)" stroke-width=".3985" stroke-linecap="butt" stroke-miterlimit="10" stroke-linejoin="miter" fill="none" stroke="#000000" d="M45.36215 50.50552H43.3779L45.36215 46.28899 47.3464 50.50552Z"/>
<use data-text="I" xlink:href="#font_1_1" transform="matrix(9.962799,0,0,-9.9626,62.085886,48.396)"/>
<use data-text="2" xlink:href="#font_3_5" transform="matrix(6.97394,0,0,-6.9738,66.464969,49.891004)"/>
<path transform="matrix(1.00002,0,0,-1,13.200905,94.511)" stroke-width=".797" stroke-linecap="butt" stroke-linejoin="bevel" fill="none" stroke="#000000" d="M45.35506 38.95496 51.3079 35.87755 39.40219 30.51973 51.3079 25.16191 39.40219 19.8041 51.3079 14.44627 39.40219 9.08847 45.35506 6.40956"/>
<path transform="matrix(1.00002,0,0,-1,13.200905,94.511)" d="M46.9422 .00473C46.9422 .8813 46.23161 1.59189 45.35506 1.59189 44.47849 1.59189 43.7679 .8813 43.7679 .00473 43.7679-.87181 44.47849-1.5824 45.35506-1.5824 46.23161-1.5824 46.9422-.87181 46.9422 .00473ZM45.35506 .00473"/>
<path transform="matrix(1.00002,0,0,-1,13.200905,94.511)" stroke-width=".3985" stroke-linecap="butt" stroke-miterlimit="10" stroke-linejoin="miter" fill="none" stroke="#000000" d="M46.9422 .00473C46.9422 .8813 46.23161 1.59189 45.35506 1.59189 44.47849 1.59189 43.7679 .8813 43.7679 .00473 43.7679-.87181 44.47849-1.5824 45.35506-1.5824 46.23161-1.5824 46.9422-.87181 46.9422 .00473ZM45.35506 .00473"/>
<use data-text="R" xlink:href="#font_1_2" transform="matrix(9.962799,0,0,-9.9626,37.9654,73.973)"/>
<use data-text="2" xlink:href="#font_3_5" transform="matrix(6.97394,0,0,-6.9738,45.529558,75.468)"/>
<path transform="matrix(1.00002,0,0,-1,13.200905,94.511)" stroke-width=".3985" stroke-linecap="butt" stroke-miterlimit="10" stroke-linejoin="miter" fill="none" stroke="#000000" d="M45.35742 90.71964 68.04208 90.72916M68.04208 90.72916 90.7125 90.71964 90.722 61.24518M90.722 29.49344 90.7125 .0095 68.04208 .00711M68.04208 .00711 45.35742 .00473"/>
<path transform="matrix(1.00002,0,0,-1,13.200905,94.511)" d="M66.30588 90.72916V88.7449L70.52243 90.72916 66.30588 92.71341Z"/>
<path transform="matrix(1.00002,0,0,-1,13.200905,94.511)" stroke-width=".3985" stroke-linecap="butt" stroke-miterlimit="10" stroke-linejoin="miter" fill="none" stroke="#000000" d="M66.30588 90.72916V88.7449L70.52243 90.72916 66.30588 92.71341Z"/>
<use data-text="I" xlink:href="#font_1_1" transform="matrix(9.962799,0,0,-9.9626,76.82318,14.105003)"/>
<use data-text="3" xlink:href="#font_3_6" transform="matrix(6.97394,0,0,-6.9738,81.202259,15.600006)"/>
<path transform="matrix(1.00002,0,0,-1,13.200905,94.511)" stroke-width=".797" stroke-linecap="butt" stroke-linejoin="bevel" fill="none" stroke="#000000" d="M90.71248 61.63727 96.66533 58.55984 84.75963 53.20204 96.66533 47.84422 84.75963 42.4864 96.66533 37.12859 84.75963 31.77077 90.71248 29.09187"/>
<use data-text="R" xlink:href="#font_1_2" transform="matrix(9.962799,0,0,-9.9626,83.32831,51.289)"/>
<use data-text="3" xlink:href="#font_3_6" transform="matrix(6.97394,0,0,-6.9738,90.89246,52.784006)"/>
<path transform="matrix(1.00002,0,0,-1,13.200905,94.511)" stroke-width=".3985" stroke-linecap="butt" stroke-miterlimit="10" stroke-linejoin="miter" fill="none" stroke="#000000" d="M102.04889 45.35506H129.9973"/>
<path transform="matrix(1.00002,0,0,-1,143.40006,49.15594)" stroke-width=".3985" stroke-linecap="round" stroke-linejoin="round" fill="none" stroke="#000000" d="M-2.07224 2.39104C-1.69365 .95639-.84999 .27895 0 0-.84999-.27895-1.69365-.95639-2.07224-2.39104"/>
<path transform="matrix(1.00002,0,0,-1,13.200905,94.511)" stroke-width=".3985" stroke-linecap="butt" stroke-miterlimit="10" stroke-linejoin="miter" fill="none" stroke="#000000" d="M147.40396 0"/>
<path transform="matrix(1.00002,0,0,-1,13.200905,94.511)" stroke-width=".3985" stroke-linecap="butt" stroke-miterlimit="10" stroke-linejoin="miter" fill="none" stroke="#000000" d="M147.40396 90.71013"/>
<path transform="matrix(1.00002,0,0,-1,13.200905,94.511)" stroke-width=".3985" stroke-linecap="butt" stroke-miterlimit="10" stroke-linejoin="miter" fill="none" stroke="#000000" d="M147.4117 90.71487 147.42719 51.31566M147.42719 39.4087 147.4117 0"/>
<path transform="matrix(1.00002,0,0,-1,13.200905,94.511)" stroke-width=".797" stroke-linecap="butt" stroke-miterlimit="10" stroke-linejoin="miter" fill="none" stroke="#000000" d="M159.31742 51.31027H135.50597M153.36455 47.3417H141.45885M159.31742 43.37314H135.50597M153.36455 39.40457H141.45885"/>
<use data-text="V" xlink:href="#font_1_3" transform="matrix(9.962799,0,0,-9.9626,175.74216,51.296)"/>
<use data-text="b" xlink:href="#font_2_1" transform="matrix(6.97394,0,0,-6.9738,181.55326,52.791006)"/>
<path transform="matrix(1.00002,0,0,-1,13.200905,94.511)" stroke-width=".3985" stroke-linecap="butt" stroke-miterlimit="10" stroke-linejoin="miter" fill="none" stroke="#000000" d="M147.4117 90.71487 170.1071 90.72438M170.1071 90.72438 192.76677 90.71487 192.78705 61.2404M192.78705 29.48866 192.76677 .00473 170.1071 .00237M170.1071 .00237 147.4117 0"/>
<path transform="matrix(1.00002,0,0,-1,13.200905,94.511)" d="M194.35391 90.71487C194.35391 91.59145 193.64333 92.30203 192.76677 92.30203 191.8902 92.30203 191.17961 91.59145 191.17961 90.71487 191.17961 89.83832 191.8902 89.12773 192.76677 89.12773 193.64333 89.12773 194.35391 89.83832 194.35391 90.71487ZM192.76677 90.71487"/>
<path transform="matrix(1.00002,0,0,-1,13.200905,94.511)" stroke-width=".3985" stroke-linecap="butt" stroke-miterlimit="10" stroke-linejoin="miter" fill="none" stroke="#000000" d="M194.35391 90.71487C194.35391 91.59145 193.64333 92.30203 192.76677 92.30203 191.8902 92.30203 191.17961 91.59145 191.17961 90.71487 191.17961 89.83832 191.8902 89.12773 192.76677 89.12773 193.64333 89.12773 194.35391 89.83832 194.35391 90.71487ZM192.76677 90.71487"/>
<path transform="matrix(1.00002,0,0,-1,13.200905,94.511)" d="M168.37088 90.7244V88.74014L172.58744 90.7244 168.37088 92.70865Z"/>
<path transform="matrix(1.00002,0,0,-1,13.200905,94.511)" stroke-width=".3985" stroke-linecap="butt" stroke-miterlimit="10" stroke-linejoin="miter" fill="none" stroke="#000000" d="M168.37088 90.7244V88.74014L172.58744 90.7244 168.37088 92.70865Z"/>
<use data-text="I" xlink:href="#font_1_1" transform="matrix(9.962799,0,0,-9.9626,178.89621,14.110001)"/>
<use data-text="1" xlink:href="#font_3_4" transform="matrix(6.97394,0,0,-6.9738,183.2753,15.605003)"/>
<path transform="matrix(1.00002,0,0,-1,13.200905,94.511)" stroke-width=".797" stroke-linecap="butt" stroke-linejoin="bevel" fill="none" stroke="#000000" d="M192.76677 61.63249 198.71962 58.55508 186.81392 53.19727 198.71962 47.83945 186.81392 42.48163 198.71962 37.12381 186.81392 31.766 192.76677 29.0871"/>
<use data-text="R" xlink:href="#font_1_2" transform="matrix(9.962799,0,0,-9.9626,214.55393,51.293004)"/>
<use data-text="1" xlink:href="#font_3_4" transform="matrix(6.97394,0,0,-6.9738,222.11809,52.788007)"/>
<use data-text="+" xlink:href="#font_3_3" transform="matrix(6.97394,0,0,-6.9738,226.08626,52.788007)"/>
<use data-text="2" xlink:href="#font_3_5" transform="matrix(6.97394,0,0,-6.9738,232.2024,52.788007)"/>
<path transform="matrix(1.00002,0,0,-1,13.200905,94.511)" d="M192.79715 16.48444H190.8129L192.79715 12.2679 194.7814 16.48444Z"/>
<path transform="matrix(1.00002,0,0,-1,13.200905,94.511)" stroke-width=".3985" stroke-linecap="butt" stroke-miterlimit="10" stroke-linejoin="miter" fill="none" stroke="#000000" d="M192.79715 16.48444H190.8129L192.79715 12.2679 194.7814 16.48444Z"/>
<use data-text="I" xlink:href="#font_1_1" transform="matrix(9.962799,0,0,-9.9626,209.53183,82.419)"/>
<use data-text="2" xlink:href="#font_3_5" transform="matrix(6.97394,0,0,-6.9738,213.91092,83.914)"/>
<path transform="matrix(1.00002,0,0,-1,13.200905,94.511)" stroke-width=".3985" stroke-linecap="butt" stroke-miterlimit="10" stroke-linejoin="miter" fill="none" stroke="#000000" d="M192.7769 90.71964 215.47708 90.72916M215.47708 90.72916 238.13196 90.71964 238.15702 61.24518M238.15702 29.49344 238.13196 .0095 215.47708 .00711M215.47708 .00711 192.7769 .00473"/>
<path transform="matrix(1.00002,0,0,-1,13.200905,94.511)" d="M213.74086 90.72916V88.7449L217.9574 90.72916 213.74086 92.71341Z"/>
<path transform="matrix(1.00002,0,0,-1,13.200905,94.511)" stroke-width=".3985" stroke-linecap="butt" stroke-miterlimit="10" stroke-linejoin="miter" fill="none" stroke="#000000" d="M213.74086 90.72916V88.7449L217.9574 90.72916 213.74086 92.71341Z"/>
<use data-text="I" xlink:href="#font_1_1" transform="matrix(9.962799,0,0,-9.9626,224.26914,14.105003)"/>
<use data-text="3" xlink:href="#font_3_6" transform="matrix(6.97394,0,0,-6.9738,228.64821,15.600006)"/>
<path transform="matrix(1.00002,0,0,-1,13.200905,94.511)" stroke-width=".797" stroke-linecap="butt" stroke-linejoin="bevel" fill="none" stroke="#000000" d="M238.13196 61.63727 244.08481 58.55984 232.17911 53.20204 244.08481 47.84422 232.17911 42.4864 244.08481 37.12859 232.17911 31.77077 238.13196 29.09187"/>
<use data-text="R" xlink:href="#font_1_2" transform="matrix(9.962799,0,0,-9.9626,259.92485,51.289)"/>
<use data-text="3" xlink:href="#font_3_6" transform="matrix(6.97394,0,0,-6.9738,267.489,52.784006)"/>
<path transform="matrix(1.00002,0,0,-1,13.200905,94.511)" stroke-width=".3985" stroke-linecap="butt" stroke-miterlimit="10" stroke-linejoin="miter" fill="none" stroke="#000000" d="M261.92558 45.35506H288.74006"/>
<path transform="matrix(1.00002,0,0,-1,302.146,49.15594)" stroke-width=".3985" stroke-linecap="round" stroke-linejoin="round" fill="none" stroke="#000000" d="M-2.07224 2.39104C-1.69365 .95639-.84999 .27895 0 0-.84999-.27895-1.69365-.95639-2.07224-2.39104"/>
<path transform="matrix(1.00002,0,0,-1,13.200905,94.511)" stroke-width=".3985" stroke-linecap="butt" stroke-miterlimit="10" stroke-linejoin="miter" fill="none" stroke="#000000" d="M306.1467 0"/>
<path transform="matrix(1.00002,0,0,-1,13.200905,94.511)" stroke-width=".3985" stroke-linecap="butt" stroke-miterlimit="10" stroke-linejoin="miter" fill="none" stroke="#000000" d="M306.1467 90.71013"/>
<path transform="matrix(1.00002,0,0,-1,13.200905,94.511)" stroke-width=".3985" stroke-linecap="butt" stroke-miterlimit="10" stroke-linejoin="miter" fill="none" stroke="#000000" d="M306.1628 90.71487 306.195 51.31566M306.195 39.4087 306.1628 0"/>
<path transform="matrix(1.00002,0,0,-1,13.200905,94.511)" stroke-width=".797" stroke-linecap="butt" stroke-miterlimit="10" stroke-linejoin="miter" fill="none" stroke="#000000" d="M318.0685 51.31027H294.25706M312.11567 47.3417H300.20997M318.0685 43.37314H294.25706M312.11567 39.40457H300.20997"/>
<use data-text="V" xlink:href="#font_1_3" transform="matrix(9.962799,0,0,-9.9626,334.51335,51.296)"/>
<use data-text="b" xlink:href="#font_2_1" transform="matrix(6.97394,0,0,-6.9738,340.32447,52.791006)"/>
<path transform="matrix(1.00002,0,0,-1,13.200905,94.511)" stroke-width=".3985" stroke-linecap="butt" stroke-miterlimit="10" stroke-linejoin="miter" fill="none" stroke="#000000" d="M306.1628 90.71487 340.21488 90.72438M340.21488 90.72438 374.1954 90.71487 374.23478 61.2404M374.23478 29.48866 374.1954 .00473 340.21488 .00237M340.21488 .00237 306.1628 0"/>
<path transform="matrix(1.00002,0,0,-1,13.200905,94.511)" d="M338.47868 90.7244V88.74014L342.6952 90.7244 338.47868 92.70865Z"/>
<path transform="matrix(1.00002,0,0,-1,13.200905,94.511)" stroke-width=".3985" stroke-linecap="butt" stroke-miterlimit="10" stroke-linejoin="miter" fill="none" stroke="#000000" d="M338.47868 90.7244V88.74014L342.6952 90.7244 338.47868 92.70865Z"/>
<use data-text="I" xlink:href="#font_1_1" transform="matrix(9.962799,0,0,-9.9626,349.01564,14.110001)"/>
<use data-text="1" xlink:href="#font_3_4" transform="matrix(6.97394,0,0,-6.9738,353.3947,15.605003)"/>
<path transform="matrix(1.00002,0,0,-1,13.200905,94.511)" stroke-width=".797" stroke-linecap="butt" stroke-linejoin="bevel" fill="none" stroke="#000000" d="M374.1954 61.63249 380.14826 58.55508 368.24256 53.19727 380.14826 47.83945 368.24256 42.48163 380.14826 37.12381 368.24256 31.766 374.1954 29.0871"/>
<use data-text="R" xlink:href="#font_1_2" transform="matrix(9.962799,0,0,-9.9626,396.00456,51.293004)"/>
<use data-text="(" xlink:href="#font_3_1" transform="matrix(6.97394,0,0,-6.9738,403.5687,53.092008)"/>
<use data-text="1" xlink:href="#font_3_4" transform="matrix(6.97394,0,0,-6.9738,406.67909,53.092008)"/>
<use data-text="+" xlink:href="#font_3_3" transform="matrix(6.97394,0,0,-6.9738,410.64726,53.092008)"/>
<use data-text="2" xlink:href="#font_3_5" transform="matrix(6.97394,0,0,-6.9738,416.76338,53.092008)"/>
<use data-text=")" xlink:href="#font_3_2" transform="matrix(6.97394,0,0,-6.9738,420.73158,53.092008)"/>
<use data-text="|" xlink:href="#font_4_1" transform="matrix(6.97394,0,0,-6.9738,423.8541,53.092008)"/>
<use data-text="|" xlink:href="#font_4_1" transform="matrix(6.97394,0,0,-6.9738,426.21827,53.092008)"/>
<use data-text="3" xlink:href="#font_3_6" transform="matrix(6.97394,0,0,-6.9738,428.5872,53.092008)"/>
<path transform="matrix(1.00002,0,0,-1,13.200905,94.511)" d="M374.25447 16.48444H372.2702L374.25447 12.2679 376.2387 16.48444Z"/>
<path transform="matrix(1.00002,0,0,-1,13.200905,94.511)" stroke-width=".3985" stroke-linecap="butt" stroke-miterlimit="10" stroke-linejoin="miter" fill="none" stroke="#000000" d="M374.25447 16.48444H372.2702L374.25447 12.2679 376.2387 16.48444Z"/>
<use data-text="I" xlink:href="#font_1_1" transform="matrix(9.962799,0,0,-9.9626,391.00248,82.419)"/>
<use data-text="1" xlink:href="#font_3_4" transform="matrix(6.97394,0,0,-6.9738,395.38154,83.914)"/>
</svg>
