<svg xmlns="http://www.w3.org/2000/svg" xmlns:xlink="http://www.w3.org/1999/xlink" xmlns:inkscape="http://www.inkscape.org/namespaces/inkscape" version="1.1" width="177" height="116" viewBox="0 0 177 116">
<defs>
<path id="font_1_1" d="M.44198609 .69781497C.43499757 .7108154 .43299867 .7158203 .41600038 .7158203 .39898683 .7158203 .39698792 .7108154 .3899994 .69781497L.051986696 .019989014C.04699707 .010986328 .04699707 .008987427 .04699707 .0079956059 .04699707 0 .052993776 0 .068984989 0H.7630005C.7789917 0 .7849884 0 .7849884 .0079956059 .7849884 .008987427 .7849884 .010986328 .7799988 .019989014L.44198609 .69781497M.38398744 .61582949 .6529999 .07598877H.11399841L.38398744 .61582949Z"/>
<path id="font_2_1" d="M.6279907 .5686035C.6769867 .64660647 .71899417 .6496124 .7559967 .6516113 .7679901 .65260317 .7689972 .6696167 .7689972 .6706085 .7689972 .6786041 .7639923 .6826172 .7559967 .6826172 .7299957 .6826172 .70098879 .6796112 .673996 .6796112 .6409912 .6796112 .6069946 .6826172 .57499697 .6826172 .56900027 .6826172 .55599978 .6826172 .55599978 .66360476 .55599978 .65260317 .5649872 .6516113 .57199099 .6516113 .598999 .6496124 .6179962 .63960269 .6179962 .61860659 .6179962 .6036072 .6029968 .581604 .6029968 .5805969L.29599 .092544559 .22799683 .62161257C.22799683 .63861086 .25099183 .6516113 .29699708 .6516113 .31098939 .6516113 .32199098 .6516113 .32199098 .6716156 .32199098 .680603 .31399537 .6826172 .30799867 .6826172 .2679901 .6826172 .22499085 .6796112 .18399048 .6796112 .1659851 .6796112 .14698792 .680603 .1289978 .680603 .11099243 .680603 .09199524 .6826172 .07499695 .6826172 .067993167 .6826172 .055999757 .6826172 .055999757 .66360476 .055999757 .6516113 .06498718 .6516113 .08099365 .6516113 .13699341 .6516113 .13798523 .64260867 .14099121 .6175995L.21998596 .0005340576C.22299195-.019470215 .22698975-.022460938 .23999024-.022460938 .2559967-.022460938 .2599945-.017471314 .2679901-.004470825L.6279907 .5686035Z"/>
<path id="font_3_1" d="M.33499146 .63612368C.33499146 .6630554 .33299256 .6640625 .30499269 .6640625 .24099732 .6014404 .1499939 .6004486 .10899353 .6004486V.5644531C.1329956 .5644531 .19898987 .5644531 .2539978 .592453V.08203125C.2539978 .04899597 .2539978 .035995485 .1539917 .035995485H.115997318V0C.13398743 .0009918213 .25698854 .0039978029 .2939911 .0039978029 .32499696 .0039978029 .45098878 .0009918213 .47299195 0V.035995485H.43499757C.33499146 .035995485 .33499146 .04899597 .33499146 .08203125V.63612368Z"/>
<path id="font_3_2" d="M.5049896 .18203736H.47099305C.46798707 .16001892 .45799256 .100997928 .44499208 .09098816 .43699647 .084991458 .3600006 .084991458 .34599305 .084991458H.1619873C.2669983 .17803955 .3019867 .20603943 .3619995 .25306703 .43598939 .312088 .5049896 .374115 .5049896 .46914674 .5049896 .5900879 .39898683 .6640625 .2709961 .6640625 .14698792 .6640625 .06298828 .57710269 .06298828 .4851532 .06298828 .43414308 .10598755 .42915345 .115997318 .42915345 .13999939 .42915345 .16899109 .44615174 .16899109 .48214723 .16899109 .5001526 .1619873 .53515627 .10998535 .53515627 .14099121 .6060791 .20899964 .62805178 .2559967 .62805178 .35598756 .62805178 .4079895 .5501404 .4079895 .46914674 .4079895 .38212586 .34599305 .3130951 .31399537 .27708436L.07299805 .038986207C.06298828 .02999878 .06298828 .027999878 .06298828 0H.47499085L.5049896 .18203736Z"/>
<path id="font_4_71" d="M.61898806 .25985719H.58799746C.57598879 .1559143 .5609894 .032989503 .37799073 .032989503H.2849884C.23899842 .032989503 .23699951 .039993287 .23699951 .07395935V.6006317C.23699951 .6356201 .23699951 .6496124 .33099366 .6496124H.36299134V.6826172C.31799317 .6796112 .24499512 .6796112 .19799805 .6796112L.04399109 .6826172V.6496124H.06599426C.14299011 .6496124 .14498902 .63861086 .14498902 .6016388V.080963138C.14498902 .04399109 .14299011 .032989503 .06599426 .032989503H.04399109V0H.58999636L.61898806 .25985719Z"/>
<path id="font_4_81" d="M.5 .21325684C.5 .3382721 .39698792 .44628907 .2649994 .44628907 .1329956 .44628907 .02999878 .3382721 .02999878 .21325684 .02999878 .08824158 .13699341-.009765625 .2649994-.009765625 .3939972-.009765625 .5 .08824158 .5 .21325684M.41099549 .22225952C.41099549 .17625427 .40899659 .12124634 .3809967 .07923889 .35398866 .039230348 .30899049 .021224976 .2649994 .021224976 .21099854 .021224976 .16899109 .047225954 .14698792 .082229617 .12199402 .12324524 .11898804 .17224121 .11898804 .22225952 .11898804 .2602539 .11898804 .32026673 .1499939 .363266 .17599488 .3982849 .21798706 .41827394 .2649994 .41827394 .31698609 .41827394 .3600006 .39328004 .3829956 .35827638 .4099884 .31626893 .41099549 .2622528 .41099549 .22225952Z"/>
<path id="font_4_84" d="M.55400088 .21640015C.55400088 .34140016 .45298768 .44140626 .33198548 .44140626 .29299928 .44140626 .23498535 .43139649 .18399048 .37939454V.44140626L.034988405 .43045045V.39746095C.10598755 .39746095 .11099243 .39144898 .11099243 .34947206V-.1159668C.11099243-.16113281 .09899902-.16113281 .034988405-.16113281V-.19413758C.07798767-.19114685 .12199402-.19114685 .14898682-.19114685 .17799378-.19114685 .21998596-.19114685 .2630005-.19413758V-.16113281C.19898987-.16113281 .18699646-.16113281 .18699646-.1159668V.049545289C.23399353-.0017700195 .2849884-.009765625 .31698609-.009765625 .44400025-.009765625 .55400088 .088256839 .55400088 .2163086V.21640015M.46499635 .2163086C.46499635 .101257327 .3929901 .018234253 .31199647 .018234253 .2769928 .018234253 .23098755 .033233644 .19898987 .08325195 .18699646 .1002655 .18699646 .101257327 .18699646 .120269779V.33335877C.20999146 .37338258 .2599945 .4104004 .32299806 .4104004 .3999939 .4104004 .46499635 .32536317 .46499635 .2163086Z"/>
</defs>
<path transform="matrix(1.00005,0,0,-1.00002,3.6832276,54.43079)" stroke-width=".3985" stroke-linecap="butt" stroke-miterlimit="10" stroke-linejoin="miter" fill="none" stroke="#000000" d="M0 0H14.17339M14.17339 0H28.3468M28.3468-28.3468 28.34679 0M28.34679 0 28.3468 28.3468M28.3468 28.3468 69.16621 28.34679M49.99666 31.52167C81.46545 41.34392 88.61537 41.34392 120.08414 31.52167M100.9146 28.34679 141.73404 28.3468M141.73404-28.3468 89.00888-28.34679M114.13129-31.52167C91.58841-49.5175 78.4924-49.5175 55.94952-31.52167M81.07193-28.34679 28.3468-28.3468M141.73404-28.3468 141.73403 0M141.73403 0 141.73404 28.3468M141.73404 0H155.90744M155.90744 0H170.08086"/>
<path transform="matrix(1.00005,0,0,-1.00002,3.6832276,54.43079)" d="M1.58714 0C1.58714 .87656 .87656 1.58714 0 1.58714-.87656 1.58714-1.58714 .87656-1.58714 0-1.58714-.87656-.87656-1.58714 0-1.58714 .87656-1.58714 1.58714-.87656 1.58714 0ZM0 0"/>
<path transform="matrix(1.00005,0,0,-1.00002,3.6832276,54.43079)" stroke-width=".3985" stroke-linecap="butt" stroke-miterlimit="10" stroke-linejoin="miter" fill="none" stroke="#000000" d="M1.58714 0C1.58714 .87656 .87656 1.58714 0 1.58714-.87656 1.58714-1.58714 .87656-1.58714 0-1.58714-.87656-.87656-1.58714 0-1.58714 .87656-1.58714 1.58714-.87656 1.58714 0ZM0 0"/>
<path transform="matrix(1.00005,0,0,-1.00002,3.6832276,54.43079)" d="M29.93394 0C29.93394 .87656 29.22336 1.58714 28.3468 1.58714 27.47025 1.58714 26.75966 .87656 26.75966 0 26.75966-.87656 27.47025-1.58714 28.3468-1.58714 29.22336-1.58714 29.93394-.87656 29.93394 0ZM28.3468 0"/>
<path transform="matrix(1.00005,0,0,-1.00002,3.6832276,54.43079)" stroke-width=".3985" stroke-linecap="butt" stroke-miterlimit="10" stroke-linejoin="miter" fill="none" stroke="#000000" d="M29.93394 0C29.93394 .87656 29.22336 1.58714 28.3468 1.58714 27.47025 1.58714 26.75966 .87656 26.75966 0 26.75966-.87656 27.47025-1.58714 28.3468-1.58714 29.22336-1.58714 29.93394-.87656 29.93394 0ZM28.3468 0"/>
<path transform="matrix(1.00005,0,0,-1.00002,3.6832276,54.43079)" stroke-width=".797" stroke-linecap="butt" stroke-linejoin="bevel" fill="none" stroke="#000000" d="M68.7677 28.34679 71.84512 34.29964 77.20294 22.39394 82.56075 34.29964 87.91856 22.39394 93.27638 34.29964 98.6342 22.39394 101.31311 28.34679"/>
<path transform="matrix(1.00005,0,0,-1.00002,3.6832276,54.43079)" d="M116.05934 32.7779 115.46819 30.88388 120.08414 31.52167 116.6505 34.6719Z"/>
<path transform="matrix(1.00005,0,0,-1.00002,3.6832276,54.43079)" stroke-width=".3985" stroke-linecap="butt" stroke-miterlimit="10" stroke-linejoin="miter" fill="none" stroke="#000000" d="M116.05934 32.7779 115.46819 30.88388 120.08414 31.52167 116.6505 34.6719Z"/>
<use data-text="&#x2206;" xlink:href="#font_1_1" transform="matrix(9.963098,0,0,-9.962799,79.43601,9.399891)"/>
<use data-text="V" xlink:href="#font_2_1" transform="matrix(9.963098,0,0,-9.962799,87.738437,9.399891)"/>
<use data-text="1" xlink:href="#font_3_1" transform="matrix(6.9741489,0,0,-6.97394,93.55072,10.893921)"/>
<path transform="matrix(1.00005,0,0,-1.00002,3.6832276,54.43079)" stroke-width=".797" stroke-linecap="butt" stroke-miterlimit="10" stroke-linejoin="miter" fill="none" stroke="#000000" d="M89.00888-40.2525V-16.44107M81.07193-40.2525V-16.44107"/>
<path transform="matrix(1.00005,0,0,-1.00002,3.6832276,54.43079)" d="M59.24464-34.1521 60.4825-32.60146 55.94952-31.52167 58.00679-35.70274Z"/>
<path transform="matrix(1.00005,0,0,-1.00002,3.6832276,54.43079)" stroke-width=".3985" stroke-linecap="butt" stroke-miterlimit="10" stroke-linejoin="miter" fill="none" stroke="#000000" d="M59.24464-34.1521 60.4825-32.60146 55.94952-31.52167 58.00679-35.70274Z"/>
<use data-text="&#x2206;" xlink:href="#font_1_1" transform="matrix(9.963098,0,0,-9.962799,79.43601,112.94896)"/>
<use data-text="V" xlink:href="#font_2_1" transform="matrix(9.963098,0,0,-9.962799,87.738437,112.94896)"/>
<use data-text="2" xlink:href="#font_3_2" transform="matrix(6.9741489,0,0,-6.97394,93.55072,114.44299)"/>
<path transform="matrix(1.00005,0,0,-1.00002,3.6832276,54.43079)" d="M143.32118 0C143.32118 .87656 142.6106 1.58714 141.73404 1.58714 140.85749 1.58714 140.1469 .87656 140.1469 0 140.1469-.87656 140.85749-1.58714 141.73404-1.58714 142.6106-1.58714 143.32118-.87656 143.32118 0ZM141.73404 0"/>
<path transform="matrix(1.00005,0,0,-1.00002,3.6832276,54.43079)" stroke-width=".3985" stroke-linecap="butt" stroke-miterlimit="10" stroke-linejoin="miter" fill="none" stroke="#000000" d="M143.32118 0C143.32118 .87656 142.6106 1.58714 141.73404 1.58714 140.85749 1.58714 140.1469 .87656 140.1469 0 140.1469-.87656 140.85749-1.58714 141.73404-1.58714 142.6106-1.58714 143.32118-.87656 143.32118 0ZM141.73404 0"/>
<path transform="matrix(1.00005,0,0,-1.00002,3.6832276,54.43079)" d="M171.668 0C171.668 .87656 170.95742 1.58714 170.08086 1.58714 169.20429 1.58714 168.4937 .87656 168.4937 0 168.4937-.87656 169.20429-1.58714 170.08086-1.58714 170.95742-1.58714 171.668-.87656 171.668 0ZM170.08086 0"/>
<path transform="matrix(1.00005,0,0,-1.00002,3.6832276,54.43079)" stroke-width=".3985" stroke-linecap="butt" stroke-miterlimit="10" stroke-linejoin="miter" fill="none" stroke="#000000" d="M171.668 0C171.668 .87656 170.95742 1.58714 170.08086 1.58714 169.20429 1.58714 168.4937 .87656 168.4937 0 168.4937-.87656 169.20429-1.58714 170.08086-1.58714 170.95742-1.58714 171.668-.87656 171.668 0ZM170.08086 0"/>
<path transform="matrix(1.00005,0,0,-1.00002,3.6832276,54.43079)" stroke-width=".3985" stroke-linecap="butt" stroke-miterlimit="10" stroke-linejoin="miter" fill="none" stroke="#000000" d="M85.04042 14.17339C92.39622 16.85071 100.52946 13.05814 103.20677 5.70235 105.88408-1.65344 102.09152-9.78668 94.73573-12.46399 91.72998-13.55798 88.44533-13.6017 85.4173-12.59515"/>
<path transform="matrix(-.93971696,-.34203685,-.34204708,.93968889,88.91514,66.96316)" stroke-width=".3985" stroke-linecap="round" stroke-linejoin="round" fill="none" stroke="#000000" d="M-2.07224 2.39104C-1.69365 .95639-.84999 .27895 0 0-.84999-.27895-1.69365-.95639-2.07224-2.39104"/>
<use data-text="L" xlink:href="#font_4_71" transform="matrix(7.970498,0,0,-7.9702599,85.53132,55.52481)"/>
<use data-text="o" xlink:href="#font_4_81" transform="matrix(7.970498,0,0,-7.9702599,90.82373,55.52481)"/>
<use data-text="o" xlink:href="#font_4_81" transform="matrix(7.970498,0,0,-7.9702599,95.29518,55.52481)"/>
<use data-text="p" xlink:href="#font_4_84" transform="matrix(7.970498,0,0,-7.9702599,99.52752,55.52481)"/>
</svg>
