<svg xmlns="http://www.w3.org/2000/svg" xmlns:xlink="http://www.w3.org/1999/xlink" xmlns:inkscape="http://www.inkscape.org/namespaces/inkscape" version="1.1" width="209" height="119" viewBox="0 0 209 119">
<defs>
<path id="font_1_5" d="M.6279907 .5686035C.6769867 .64660647 .71899417 .6496124 .7559967 .6516113 .7679901 .65260317 .7689972 .6696167 .7689972 .6706085 .7689972 .6786041 .7639923 .6826172 .7559967 .6826172 .7299957 .6826172 .70098879 .6796112 .673996 .6796112 .6409912 .6796112 .6069946 .6826172 .57499697 .6826172 .56900027 .6826172 .55599978 .6826172 .55599978 .66360476 .55599978 .65260317 .5649872 .6516113 .57199099 .6516113 .598999 .6496124 .6179962 .63960269 .6179962 .61860659 .6179962 .6036072 .6029968 .581604 .6029968 .5805969L.29599 .092544559 .22799683 .62161257C.22799683 .63861086 .25099183 .6516113 .29699708 .6516113 .31098939 .6516113 .32199098 .6516113 .32199098 .6716156 .32199098 .680603 .31399537 .6826172 .30799867 .6826172 .2679901 .6826172 .22499085 .6796112 .18399048 .6796112 .1659851 .6796112 .14698792 .680603 .1289978 .680603 .11099243 .680603 .09199524 .6826172 .07499695 .6826172 .067993167 .6826172 .055999757 .6826172 .055999757 .66360476 .055999757 .6516113 .06498718 .6516113 .08099365 .6516113 .13699341 .6516113 .13798523 .64260867 .14099121 .6175995L.21998596 .0005340576C.22299195-.019470215 .22698975-.022460938 .23999024-.022460938 .2559967-.022460938 .2599945-.017471314 .2679901-.004470825L.6279907 .5686035Z"/>
<path id="font_2_1" d="M.33499146 .63612368C.33499146 .6630554 .33299256 .6640625 .30499269 .6640625 .24099732 .6014404 .1499939 .6004486 .10899353 .6004486V.5644531C.1329956 .5644531 .19898987 .5644531 .2539978 .592453V.08203125C.2539978 .04899597 .2539978 .035995485 .1539917 .035995485H.115997318V0C.13398743 .0009918213 .25698854 .0039978029 .2939911 .0039978029 .32499696 .0039978029 .45098878 .0009918213 .47299195 0V.035995485H.43499757C.33499146 .035995485 .33499146 .04899597 .33499146 .08203125V.63612368Z"/>
<path id="font_1_4" d="M.375 .6136017C.3809967 .63760378 .38398744 .6476135 .40299989 .65060427 .4119873 .6516113 .44400025 .6516113 .46398927 .6516113 .5349884 .6516113 .6459961 .6516113 .6459961 .5525818 .6459961 .51856997 .6299896 .44955445 .59098818 .41055299 .5649872 .38453675 .5119934 .35253907 .42199708 .35253907H.30999757L.375 .6136017M.5189972 .33953858C.6199951 .3615265 .7389984 .43154908 .7389984 .5325775 .7389984 .61860659 .6489868 .6826172 .5179901 .6826172H.23298645C.21299744 .6826172 .20399475 .6826172 .20399475 .6626129 .20399475 .6516113 .21299744 .6516113 .23199463 .6516113 .23399353 .6516113 .25299073 .6516113 .269989 .6496124 .28799439 .6476135 .29699708 .64660647 .29699708 .63360598 .29699708 .62960818 .29599 .6266022 .29299928 .6145935L.15899658 .07752991C.14898682 .038528444 .14698792 .030532837 .067993167 .030532837 .049987794 .030532837 .040985109 .030532837 .040985109 .010528564 .040985109-.00047302247 .052993776-.00047302247 .054992677-.00047302247 .08299255-.00047302247 .15299988 .002532959 .18099976 .002532959 .20899964 .002532959 .27999879-.00047302247 .30799867-.00047302247 .31599427-.00047302247 .32798768-.00047302247 .32798768 .01953125 .32798768 .030532837 .31900025 .030532837 .2999878 .030532837 .2630005 .030532837 .23498535 .030532837 .23498535 .048538209 .23498535 .054534913 .23699951 .059524537 .23799134 .0655365L.3039856 .3305359H.4229889C.5139923 .3305359 .5319977 .27453614 .5319977 .23953247 .5319977 .22453308 .5239868 .19352722 .5179901 .17053223 .5109863 .14253235 .5019989 .105529788 .5019989 .08552551 .5019989-.022460938 .621994-.022460938 .6349945-.022460938 .7200012-.022460938 .7549896 .07853699 .7549896 .0925293 .7549896 .104537967 .74398806 .104537967 .7429962 .104537967 .73399356 .104537967 .7319946 .09753418 .7299957 .090530399 .7049866 .016525269 .6619873-.00047302247 .6389923-.00047302247 .60598757-.00047302247 .598999 .021530152 .598999 .060531618 .598999 .091537479 .6049957 .14253235 .60899356 .17453003 .61099246 .1885376 .61299136 .20753479 .61299136 .2215271 .61299136 .2985382 .54599 .3295288 .5189972 .33953858Z"/>
<path id="font_2_2" d="M.5049896 .18203736H.47099305C.46798707 .16001892 .45799256 .100997928 .44499208 .09098816 .43699647 .084991458 .3600006 .084991458 .34599305 .084991458H.1619873C.2669983 .17803955 .3019867 .20603943 .3619995 .25306703 .43598939 .312088 .5049896 .374115 .5049896 .46914674 .5049896 .5900879 .39898683 .6640625 .2709961 .6640625 .14698792 .6640625 .06298828 .57710269 .06298828 .4851532 .06298828 .43414308 .10598755 .42915345 .115997318 .42915345 .13999939 .42915345 .16899109 .44615174 .16899109 .48214723 .16899109 .5001526 .1619873 .53515627 .10998535 .53515627 .14099121 .6060791 .20899964 .62805178 .2559967 .62805178 .35598756 .62805178 .4079895 .5501404 .4079895 .46914674 .4079895 .38212586 .34599305 .3130951 .31399537 .27708436L.07299805 .038986207C.06298828 .02999878 .06298828 .027999878 .06298828 0H.47499085L.5049896 .18203736Z"/>
<path id="font_2_3" d="M.272995 .33428956C.35099793 .33428956 .40699769 .2803192 .40699769 .1733551 .40699769 .04940796 .33499146 .012466431 .2769928 .012466431 .23699951 .012466431 .14898682 .0234375 .10699463 .082351688 .1539917 .084350589 .16499329 .11735535 .16499329 .13835144 .16499329 .17034912 .14099121 .19335938 .10998535 .19335938 .08198547 .19335938 .053985597 .17634583 .053985597 .13534546 .053985597 .041412355 .1579895-.01953125 .2789917-.01953125 .41799928-.01953125 .5139923 .07336426 .5139923 .1733551 .5139923 .2513275 .44999696 .32929994 .33999635 .35229493 .44499208 .39024354 .48298646 .4650879 .48298646 .5260773 .48298646 .60505679 .3919983 .6640625 .2809906 .6640625 .16999817 .6640625 .084991458 .61006167 .084991458 .5300751 .084991458 .49606324 .10699463 .47706605 .13699341 .47706605 .16799927 .47706605 .18798828 .5000763 .18798828 .5280762 .18798828 .5570679 .16799927 .57806399 .13699341 .5800781 .17199707 .62405398 .24099732 .63505557 .27799989 .63505557 .32299806 .63505557 .38598634 .6130676 .38598634 .5260773 .38598634 .48406983 .37199403 .43814088 .34599305 .4072113 .31298829 .36927796 .2849884 .3672943 .23498535 .36428834 .20999146 .3623047 .20799256 .3623047 .20298767 .3612976 .20098877 .3612976 .19299317 .3592987 .19299317 .34829713 .19299317 .33428956 .20199585 .33428956 .21899414 .33428956H.272995Z"/>
<path id="font_2_4" d="M.5289917 .1640625V.20005799H.41799928V.64582827C.41799928 .66682437 .41799928 .6738281 .3959961 .6738281 .38398744 .6738281 .37998963 .6738281 .36999513 .65982058L.038986207 .20005799V.1640625H.33299256V.08201599C.33299256 .04800415 .33299256 .035995485 .2519989 .035995485H.22499085V0C.2749939 .0019989014 .33898927 .0039978029 .375 .0039978029 .4119873 .0039978029 .47599793 .0019989014 .526001 0V.035995485H.49899293C.41799928 .035995485 .41799928 .04800415 .41799928 .08201599V.1640625H.5289917M.33999635 .5658722V.20005799H.07598877L.33999635 .5658722Z"/>
<path id="font_1_1" d="M.1789856 .114868167C.13899231 .047973634 .099990848 .033981325 .055999757 .0309906 .04399109 .02999878 .034988405 .02999878 .034988405 .010986328 .034988405 .004989624 .039993287 0 .04798889 0 .07499695 0 .10598755 .0029907227 .13398743 .0029907227 .16699219 .0029907227 .20199585 0 .23399353 0 .23999024 0 .25299073 0 .25299073 .018997193 .25299073 .02999878 .24398804 .0309906 .23699951 .0309906 .21398926 .032989503 .18998719 .04096985 .18998719 .06593323 .18998719 .077926639 .19599915 .088897708 .20399475 .102890018L.27999879 .23068238H.5309906C.5329895 .2097168 .5469971 .07392883 .5469971 .063949588 .5469971 .033981325 .49499513 .0309906 .47499085 .0309906 .46099855 .0309906 .45098878 .0309906 .45098878 .010986328 .45098878 0 .46299745 0 .46499635 0 .5059967 0 .548996 .0029907227 .58999636 .0029907227 .61499026 .0029907227 .6779938 0 .7029877 0 .70899966 0 .72099307 0 .72099307 .019989014 .72099307 .0309906 .71099856 .0309906 .69799807 .0309906 .6359863 .0309906 .6359863 .037979127 .6329956 .06694031L.57199099 .691803C.56999209 .71180728 .56999209 .7158203 .5529938 .7158203 .5369873 .7158203 .5329895 .7088165 .5269928 .69880679L.1789856 .114868167M.29899598 .26168824 .49598695 .5917816 .5279999 .26168824H.29899598Z"/>
<path id="font_1_2" d="M.1599884 .07795715C.1499939 .038986207 .147995 .0309906 .068984989 .0309906 .051986696 .0309906 .041992189 .0309906 .041992189 .010986328 .041992189 0 .050994874 0 .068984989 0H.42599488C.58399966 0 .70199587 .11791992 .70199587 .21585083 .70199587 .28778077 .6439972 .3457489 .5469971 .35673524 .651001 .37573243 .7559967 .44970704 .7559967 .5446625 .7559967 .6186218 .6899872 .6826172 .56999209 .6826172H.23399353C.21499634 .6826172 .20498657 .6826172 .20498657 .6626129 .20498657 .6516113 .21398926 .6516113 .23298645 .6516113 .23498535 .6516113 .2539978 .6516113 .2709961 .6496124 .2889862 .6476135 .2979889 .64660647 .2979889 .6336212 .2979889 .6296234 .29699708 .62661746 .2939911 .614624L.1599884 .07795715M.31098939 .36573792 .37298585 .6136322C.38198854 .64860537 .38398744 .6516113 .4269867 .6516113H.55599978C.6439972 .6516113 .6649933 .5926361 .6649933 .5486603 .6649933 .46069337 .57899478 .36573792 .45700074 .36573792H.31098939M.2659912 .0309906C.2519989 .0309906 .25 .0309906 .24398804 .03199768 .23399353 .032989503 .23098755 .033996583 .23098755 .04197693 .23098755 .04498291 .23098755 .04698181 .23599243 .064971927L.30499269 .34375H.49398805C.58999636 .34375 .60899356 .2698059 .60899356 .22683716 .60899356 .12791443 .519989 .0309906 .4019928 .0309906H.2659912Z"/>
<path id="font_1_3" d="M.37399293 .6056366C.3829956 .6416168 .38598634 .6516113 .46499635 .6516113 .4889984 .6516113 .49699403 .6516113 .49699403 .6706085 .49699403 .6826172 .48599244 .6826172 .48199464 .6826172 .45298768 .6826172 .3789978 .6796112 .34999085 .6796112 .31999208 .6796112 .24699402 .6826172 .21699524 .6826172 .20999146 .6826172 .19699097 .6826172 .19699097 .6626129 .19699097 .6516113 .20599365 .6516113 .22499085 .6516113 .2669983 .6516113 .2939911 .6516113 .2939911 .63261416 .2939911 .6276245 .2939911 .6256256 .2919922 .6166229L.15699768 .07795715C.147995 .040985109 .14498902 .0309906 .06599426 .0309906 .042999269 .0309906 .033996583 .0309906 .033996583 .010986328 .033996583 0 .04598999 0 .04899597 0 .07798767 0 .15098572 .0029907227 .17999268 .0029907227 .20999146 .0029907227 .28399659 0 .31399537 0 .32199098 0 .33399964 0 .33399964 .018997193 .33399964 .0309906 .32598878 .0309906 .3039856 .0309906 .28599549 .0309906 .2809906 .0309906 .26098634 .032989503 .23999024 .034988405 .23599243 .038986207 .23599243 .049987794 .23599243 .05796814 .23799134 .065963748 .23999024 .07296753L.37399293 .6056366Z"/>
</defs>
<path transform="matrix(1,0,0,-1.00005,26.569,92.37587)" stroke-width=".3985" stroke-linecap="butt" stroke-miterlimit="10" stroke-linejoin="miter" fill="none" stroke="#000000" d="M0 85.04042"/>
<path transform="matrix(1,0,0,-1.00005,26.569,92.37587)" stroke-width=".3985" stroke-linecap="butt" stroke-miterlimit="10" stroke-linejoin="miter" fill="none" stroke="#000000" d="M0 85.043V48.47856M0 36.57213V.00258L26.64761 .00255M58.39793 .00255 85.04042 .00258 85.0456 26.65019M85.0456 58.40054 85.04042 85.043 58.39793 85.04816M26.64761 85.04816 0 85.043"/>
<path transform="matrix(1,0,0,-1.00005,26.569,92.37587)" stroke-width=".797" stroke-linecap="butt" stroke-miterlimit="10" stroke-linejoin="miter" fill="none" stroke="#000000" d="M11.90572 48.47563H-11.90572M5.95285 44.50706H-5.95285M11.90572 40.5385H-11.90572M5.95285 36.56993H-5.95285"/>
<use data-text="V" xlink:href="#font_1_5" transform="matrix(9.9626,0,0,-9.963098,1.0439987,51.995855)"/>
<use data-text="1" xlink:href="#font_2_1" transform="matrix(6.9738,0,0,-6.9741489,6.8549959,53.489927)"/>
<path transform="matrix(1,0,0,-1.00005,26.569,92.37587)" stroke-width=".797" stroke-linecap="butt" stroke-linejoin="bevel" fill="none" stroke="#000000" d="M26.2475 .00256 29.2917 5.95541 34.58308-5.95027 39.87447 5.95541 45.16585-5.95027 50.45723 5.95541 55.74861-5.95027 58.7928 .00256"/>
<use data-text="R" xlink:href="#font_1_4" transform="matrix(9.9626,0,0,-9.963098,63.075,109.43872)"/>
<use data-text="2" xlink:href="#font_2_2" transform="matrix(6.9738,0,0,-6.9741489,70.63901,110.93279)"/>
<path transform="matrix(1,0,0,-1.00005,26.569,92.37587)" stroke-width=".797" stroke-linecap="butt" stroke-linejoin="bevel" fill="none" stroke="#000000" d="M85.04042 26.25009 79.08757 29.29428 90.99327 34.58566 79.08757 39.87704 90.99327 45.16843 79.08757 50.45981 90.99327 55.75119 85.04042 58.7954"/>
<use data-text="R" xlink:href="#font_1_4" transform="matrix(9.9626,0,0,-9.963098,120.31,51.995855)"/>
<use data-text="3" xlink:href="#font_2_3" transform="matrix(6.9738,0,0,-6.9741489,127.874,53.489927)"/>
<path transform="matrix(1,0,0,-1.00005,26.569,92.37587)" stroke-width=".797" stroke-linecap="butt" stroke-linejoin="bevel" fill="none" stroke="#000000" d="M58.7929 85.04298 55.7487 79.09013 50.45732 90.99585 45.16594 79.09013 39.87456 90.99585 34.58318 79.09013 29.2918 90.99585 26.24759 85.04298"/>
<use data-text="R" xlink:href="#font_1_4" transform="matrix(9.9626,0,0,-9.963098,63.075,24.388474)"/>
<use data-text="1" xlink:href="#font_2_1" transform="matrix(6.9738,0,0,-6.9741489,70.63901,25.882546)"/>
<path transform="matrix(1,0,0,-1.00005,26.569,92.37587)" stroke-width=".3985" stroke-linecap="butt" stroke-miterlimit="10" stroke-linejoin="miter" fill="none" stroke="#000000" d="M85.043 85.0456 111.69582 85.05077M143.44614 85.05077 170.08344 85.0456"/>
<path transform="matrix(1,0,0,-1.00005,26.569,92.37587)" stroke-width=".797" stroke-linecap="butt" stroke-linejoin="bevel" fill="none" stroke="#000000" d="M111.29051 85.0456 114.33472 90.99844 119.6261 79.09274 124.91748 90.99844 130.20886 79.09274 135.50025 90.99844 140.79163 79.09274 143.83582 85.0456"/>
<path transform="matrix(1,0,0,-1.00005,26.569,92.37587)" d="M86.63016 85.0456C86.63016 85.92215 85.91957 86.63274 85.043 86.63274 84.16644 86.63274 83.45586 85.92215 83.45586 85.0456 83.45586 84.16904 84.16644 83.45845 85.043 83.45845 85.91957 83.45845 86.63016 84.16904 86.63016 85.0456ZM85.043 85.0456"/>
<path transform="matrix(1,0,0,-1.00005,26.569,92.37587)" stroke-width=".3985" stroke-linecap="butt" stroke-miterlimit="10" stroke-linejoin="miter" fill="none" stroke="#000000" d="M86.63016 85.0456C86.63016 85.92215 85.91957 86.63274 85.043 86.63274 84.16644 86.63274 83.45586 85.92215 83.45586 85.0456 83.45586 84.16904 84.16644 83.45845 85.043 83.45845 85.91957 83.45845 86.63016 84.16904 86.63016 85.0456ZM85.043 85.0456"/>
<path transform="matrix(1,0,0,-1.00005,26.569,92.37587)" d="M171.67058 85.0456C171.67058 85.92215 170.95999 86.63274 170.08344 86.63274 169.20688 86.63274 168.49629 85.92215 168.49629 85.0456 168.49629 84.16904 169.20688 83.45845 170.08344 83.45845 170.95999 83.45845 171.67058 84.16904 171.67058 85.0456ZM170.08344 85.0456" fill="#ffffff"/>
<path transform="matrix(1,0,0,-1.00005,26.569,92.37587)" stroke-width=".3985" stroke-linecap="butt" stroke-miterlimit="10" stroke-linejoin="miter" fill="none" stroke="#000000" d="M171.67058 85.0456C171.67058 85.92215 170.95999 86.63274 170.08344 86.63274 169.20688 86.63274 168.49629 85.92215 168.49629 85.0456 168.49629 84.16904 169.20688 83.45845 170.08344 83.45845 170.95999 83.45845 171.67058 84.16904 171.67058 85.0456ZM170.08344 85.0456"/>
<path transform="matrix(1,0,0,-1.00005,26.569,92.37587)" d="" fill="#ffffff"/>
<path transform="matrix(1,0,0,-1.00005,26.569,92.37587)" stroke-width=".3985" stroke-linecap="butt" stroke-miterlimit="10" stroke-linejoin="miter" fill="none" stroke="#000000" d=""/>
<use data-text="R" xlink:href="#font_1_4" transform="matrix(9.9626,0,0,-9.963098,148.123,24.386475)"/>
<use data-text="4" xlink:href="#font_2_4" transform="matrix(6.9738,0,0,-6.9741489,155.68701,25.880547)"/>
<path transform="matrix(1,0,0,-1.00005,26.569,92.37587)" stroke-width=".3985" stroke-linecap="butt" stroke-miterlimit="10" stroke-linejoin="miter" fill="none" stroke="#000000" d="M85.043 .00256 121.61775 .00255M133.52419 .00255 170.08344 .00256"/>
<path transform="matrix(1,0,0,-1.00005,26.569,92.37587)" stroke-width=".797" stroke-linecap="butt" stroke-miterlimit="10" stroke-linejoin="miter" fill="none" stroke="#000000" d="M121.61037 11.90828V-11.90314M125.57893 5.95541V-5.95027M129.5475 11.90828V-11.90314M133.51607 5.95541V-5.95027"/>
<path transform="matrix(1,0,0,-1.00005,26.569,92.37587)" d="M86.63016 .00256C86.63016 .87912 85.91957 1.5897 85.043 1.5897 84.16644 1.5897 83.45586 .87912 83.45586 .00256 83.45586-.87398 84.16644-1.58456 85.043-1.58456 85.91957-1.58456 86.63016-.87398 86.63016 .00256ZM85.043 .00256"/>
<path transform="matrix(1,0,0,-1.00005,26.569,92.37587)" stroke-width=".3985" stroke-linecap="butt" stroke-miterlimit="10" stroke-linejoin="miter" fill="none" stroke="#000000" d="M86.63016 .00256C86.63016 .87912 85.91957 1.5897 85.043 1.5897 84.16644 1.5897 83.45586 .87912 83.45586 .00256 83.45586-.87398 84.16644-1.58456 85.043-1.58456 85.91957-1.58456 86.63016-.87398 86.63016 .00256ZM85.043 .00256"/>
<path transform="matrix(1,0,0,-1.00005,26.569,92.37587)" d="M171.67058 .00256C171.67058 .87912 170.95999 1.5897 170.08344 1.5897 169.20688 1.5897 168.49629 .87912 168.49629 .00256 168.49629-.87398 169.20688-1.58456 170.08344-1.58456 170.95999-1.58456 171.67058-.87398 171.67058 .00256ZM170.08344 .00256" fill="#ffffff"/>
<path transform="matrix(1,0,0,-1.00005,26.569,92.37587)" stroke-width=".3985" stroke-linecap="butt" stroke-miterlimit="10" stroke-linejoin="miter" fill="none" stroke="#000000" d="M171.67058 .00256C171.67058 .87912 170.95999 1.5897 170.08344 1.5897 169.20688 1.5897 168.49629 .87912 168.49629 .00256 168.49629-.87398 169.20688-1.58456 170.08344-1.58456 170.95999-1.58456 171.67058-.87398 171.67058 .00256ZM170.08344 .00256"/>
<path transform="matrix(1,0,0,-1.00005,26.569,92.37587)" d="" fill="#ffffff"/>
<path transform="matrix(1,0,0,-1.00005,26.569,92.37587)" stroke-width=".3985" stroke-linecap="butt" stroke-miterlimit="10" stroke-linejoin="miter" fill="none" stroke="#000000" d=""/>
<use data-text="V" xlink:href="#font_1_5" transform="matrix(9.9626,0,0,-9.963098,148.999,115.987049)"/>
<use data-text="2" xlink:href="#font_2_2" transform="matrix(6.9738,0,0,-6.9741489,154.81,117.481128)"/>
<path transform="matrix(1,0,0,-1.00005,26.569,92.37587)" stroke-width=".3985" stroke-linecap="butt" stroke-miterlimit="10" stroke-linejoin="miter" fill="none" stroke="#000000" d="M170.08861 85.04817"/>
<use data-text="A" xlink:href="#font_1_1" transform="matrix(9.9626,0,0,-9.963098,200.177,10.727791)"/>
<path transform="matrix(1,0,0,-1.00005,26.569,92.37587)" stroke-width=".3985" stroke-linecap="butt" stroke-miterlimit="10" stroke-linejoin="miter" fill="none" stroke="#000000" d="M170.08861 .00255"/>
<use data-text="B" xlink:href="#font_1_2" transform="matrix(9.9626,0,0,-9.963098,200.177,95.77704)"/>
<path transform="matrix(1,0,0,-1.00005,26.569,92.37587)" stroke-width=".3985" stroke-linecap="butt" stroke-miterlimit="10" stroke-linejoin="miter" fill="none" stroke="#0000ff" d="M31.89015 53.15285C39.43767 62.14748 52.84737 63.32056 61.842 55.77304 70.83662 48.22552 72.00969 34.81584 64.46219 25.82121 59.58044 20.00346 51.96375 17.23094 44.48447 18.5497 39.69365 19.39441 35.34044 21.85681 32.14937 25.51802"/>
<path transform="matrix(-.64278,-.76605829,-.76602,.64281216,58.58722,66.70601)" stroke-width=".3985" stroke-linecap="round" stroke-linejoin="round" fill="none" stroke="#0000ff" d="M-2.07224 2.39104C-1.69365 .95639-.84999 .27895 0 0-.84999-.27895-1.69365-.95639-2.07224-2.39104"/>
<use data-text="I" xlink:href="#font_1_3" transform="matrix(9.9626,0,0,-9.963098,72.298007,55.54403)" fill="#0000ff"/>
<use data-text="1" xlink:href="#font_2_1" transform="matrix(6.9738,0,0,-6.9741489,76.677,57.0381)" fill="#0000ff"/>
<path transform="matrix(1,0,0,-1.00005,26.569,92.37587)" stroke-width=".3985" stroke-linecap="butt" stroke-miterlimit="10" stroke-linejoin="miter" fill="none" stroke="#ff0000" d="M116.93062 53.15285C124.47812 62.14748 137.88782 63.32056 146.88245 55.77304 155.87708 48.22552 157.05016 34.81584 149.50266 25.82121 144.6209 20.00346 137.00421 17.23094 129.52492 18.5497 124.73412 19.39441 120.3809 21.85681 117.18982 25.51802"/>
<path transform="matrix(-.64278,-.76605829,-.76602,.64281216,143.62767,66.70601)" stroke-width=".3985" stroke-linecap="round" stroke-linejoin="round" fill="none" stroke="#ff0000" d="M-2.07224 2.39104C-1.69365 .95639-.84999 .27895 0 0-.84999-.27895-1.69365-.95639-2.07224-2.39104"/>
<use data-text="I" xlink:href="#font_1_3" transform="matrix(9.9626,0,0,-9.963098,157.338,55.54403)" fill="#ff0000"/>
<use data-text="2" xlink:href="#font_2_2" transform="matrix(6.9738,0,0,-6.9741489,161.717,57.0381)" fill="#ff0000"/>
</svg>
