<svg xmlns="http://www.w3.org/2000/svg" xmlns:xlink="http://www.w3.org/1999/xlink" xmlns:inkscape="http://www.inkscape.org/namespaces/inkscape" version="1.1" width="137" height="129" viewBox="0 0 137 129">
<defs>
<path id="font_1_1" d="M.375 .6136017C.3809967 .63760378 .38398744 .6476135 .40299989 .65060427 .4119873 .6516113 .44400025 .6516113 .46398927 .6516113 .5349884 .6516113 .6459961 .6516113 .6459961 .5525818 .6459961 .51856997 .6299896 .44955445 .59098818 .41055299 .5649872 .38453675 .5119934 .35253907 .42199708 .35253907H.30999757L.375 .6136017M.5189972 .33953858C.6199951 .3615265 .7389984 .43154908 .7389984 .5325775 .7389984 .61860659 .6489868 .6826172 .5179901 .6826172H.23298645C.21299744 .6826172 .20399475 .6826172 .20399475 .6626129 .20399475 .6516113 .21299744 .6516113 .23199463 .6516113 .23399353 .6516113 .25299073 .6516113 .269989 .6496124 .28799439 .6476135 .29699708 .64660647 .29699708 .63360598 .29699708 .62960818 .29599 .6266022 .29299928 .6145935L.15899658 .07752991C.14898682 .038528444 .14698792 .030532837 .067993167 .030532837 .049987794 .030532837 .040985109 .030532837 .040985109 .010528564 .040985109-.00047302247 .052993776-.00047302247 .054992677-.00047302247 .08299255-.00047302247 .15299988 .002532959 .18099976 .002532959 .20899964 .002532959 .27999879-.00047302247 .30799867-.00047302247 .31599427-.00047302247 .32798768-.00047302247 .32798768 .01953125 .32798768 .030532837 .31900025 .030532837 .2999878 .030532837 .2630005 .030532837 .23498535 .030532837 .23498535 .048538209 .23498535 .054534913 .23699951 .059524537 .23799134 .0655365L.3039856 .3305359H.4229889C.5139923 .3305359 .5319977 .27453614 .5319977 .23953247 .5319977 .22453308 .5239868 .19352722 .5179901 .17053223 .5109863 .14253235 .5019989 .105529788 .5019989 .08552551 .5019989-.022460938 .621994-.022460938 .6349945-.022460938 .7200012-.022460938 .7549896 .07853699 .7549896 .0925293 .7549896 .104537967 .74398806 .104537967 .7429962 .104537967 .73399356 .104537967 .7319946 .09753418 .7299957 .090530399 .7049866 .016525269 .6619873-.00047302247 .6389923-.00047302247 .60598757-.00047302247 .598999 .021530152 .598999 .060531618 .598999 .091537479 .6049957 .14253235 .60899356 .17453003 .61099246 .1885376 .61299136 .20753479 .61299136 .2215271 .61299136 .2985382 .54599 .3295288 .5189972 .33953858Z"/>
<path id="font_2_1" d="M.33499146 .63612368C.33499146 .6630554 .33299256 .6640625 .30499269 .6640625 .24099732 .6014404 .1499939 .6004486 .10899353 .6004486V.5644531C.1329956 .5644531 .19898987 .5644531 .2539978 .592453V.08203125C.2539978 .04899597 .2539978 .035995485 .1539917 .035995485H.115997318V0C.13398743 .0009918213 .25698854 .0039978029 .2939911 .0039978029 .32499696 .0039978029 .45098878 .0009918213 .47299195 0V.035995485H.43499757C.33499146 .035995485 .33499146 .04899597 .33499146 .08203125V.63612368Z"/>
<path id="font_1_2" d="M.6279907 .5686035C.6769867 .64660647 .71899417 .6496124 .7559967 .6516113 .7679901 .65260317 .7689972 .6696167 .7689972 .6706085 .7689972 .6786041 .7639923 .6826172 .7559967 .6826172 .7299957 .6826172 .70098879 .6796112 .673996 .6796112 .6409912 .6796112 .6069946 .6826172 .57499697 .6826172 .56900027 .6826172 .55599978 .6826172 .55599978 .66360476 .55599978 .65260317 .5649872 .6516113 .57199099 .6516113 .598999 .6496124 .6179962 .63960269 .6179962 .61860659 .6179962 .6036072 .6029968 .581604 .6029968 .5805969L.29599 .092544559 .22799683 .62161257C.22799683 .63861086 .25099183 .6516113 .29699708 .6516113 .31098939 .6516113 .32199098 .6516113 .32199098 .6716156 .32199098 .680603 .31399537 .6826172 .30799867 .6826172 .2679901 .6826172 .22499085 .6796112 .18399048 .6796112 .1659851 .6796112 .14698792 .680603 .1289978 .680603 .11099243 .680603 .09199524 .6826172 .07499695 .6826172 .067993167 .6826172 .055999757 .6826172 .055999757 .66360476 .055999757 .6516113 .06498718 .6516113 .08099365 .6516113 .13699341 .6516113 .13798523 .64260867 .14099121 .6175995L.21998596 .0005340576C.22299195-.019470215 .22698975-.022460938 .23999024-.022460938 .2559967-.022460938 .2599945-.017471314 .2679901-.004470825L.6279907 .5686035Z"/>
<path id="font_3_1" d="M.2639923 .66430667C.2649994 .66630557 .2679901 .67930606 .2679901 .68029788 .2679901 .68530276 .2639923 .6943054 .2519989 .6943054 .23199463 .6943054 .14898682 .6863098 .12399292 .6843109 .115997318 .68330386 .101989749 .682312 .101989749 .66130068 .101989749 .64730837 .115997318 .64730837 .12799073 .64730837 .17599488 .64730837 .17599488 .64030459 .17599488 .63230898 .17599488 .62532046 .1659851 .58532717 .1599884 .5623474L.13699341 .4703827C.12799073 .43640138 .07299805 .21731568 .070999149 .20431519 .06599426 .18029785 .06599426 .16729737 .06599426 .1552887 .06599426 .054244996 .12998963-.009765625 .21299744-.009765625 .33799745-.009765625 .47099305 .12626648 .47099305 .27433778 .47099305 .39138795 .3899994 .44140626 .32099916 .44140626 .2689972 .44140626 .22499085 .4123993 .19499207 .38638307L.2639923 .66430667M.21398926 .018234253C.16499329 .018234253 .13699341 .06124878 .13699341 .120269779 .13699341 .1572876 .1459961 .19129944 .17399597 .3043518 .17999268 .32336427 .17999268 .32536317 .19898987 .34736634 .23699951 .39138795 .28199769 .4133911 .31799317 .4133911 .35699464 .4133911 .3909912 .38438417 .3909912 .31636048 .3909912 .27534486 .36898805 .17329407 .33898927 .11526489 .31498719 .06625366 .2649994 .018234253 .21398926 .018234253Z"/>
<path id="font_2_2" d="M.5049896 .18203736H.47099305C.46798707 .16001892 .45799256 .100997928 .44499208 .09098816 .43699647 .084991458 .3600006 .084991458 .34599305 .084991458H.1619873C.2669983 .17803955 .3019867 .20603943 .3619995 .25306703 .43598939 .312088 .5049896 .374115 .5049896 .46914674 .5049896 .5900879 .39898683 .6640625 .2709961 .6640625 .14698792 .6640625 .06298828 .57710269 .06298828 .4851532 .06298828 .43414308 .10598755 .42915345 .115997318 .42915345 .13999939 .42915345 .16899109 .44615174 .16899109 .48214723 .16899109 .5001526 .1619873 .53515627 .10998535 .53515627 .14099121 .6060791 .20899964 .62805178 .2559967 .62805178 .35598756 .62805178 .4079895 .5501404 .4079895 .46914674 .4079895 .38212586 .34599305 .3130951 .31399537 .27708436L.07299805 .038986207C.06298828 .02999878 .06298828 .027999878 .06298828 0H.47499085L.5049896 .18203736Z"/>
</defs>
<path transform="matrix(1.00003,0,0,-1.00008,20.700142,102.39523)" stroke-width=".3985" stroke-linecap="butt" stroke-miterlimit="10" stroke-linejoin="miter" fill="none" stroke="#000000" d="M0 0"/>
<path transform="matrix(1.00003,0,0,-1.00008,20.700142,102.39523)" stroke-width=".3985" stroke-linecap="butt" stroke-miterlimit="10" stroke-linejoin="miter" fill="none" stroke="#000000" d="M0 0V26.64601M0 58.3944V85.04042L28.3468 85.0404M28.3468 85.0404 56.69362 85.04042V48.47305M56.69362 36.56735V0H28.3468M28.3468 0H0"/>
<path transform="matrix(1.00003,0,0,-1.00008,20.700142,102.39523)" stroke-width=".797" stroke-linecap="butt" stroke-linejoin="bevel" fill="none" stroke="#000000" d="M0 26.2475-5.95285 29.2917 5.95285 34.58308-5.95285 39.87447 5.95285 45.16585-5.95285 50.45723 5.95285 55.74861 0 58.7928"/>
<use data-text="R" xlink:href="#font_1_1" transform="matrix(9.962899,0,0,-9.963397,.50753787,62.019)"/>
<use data-text="1" xlink:href="#font_2_1" transform="matrix(6.9740097,0,0,-6.974358,8.072769,63.51312)"/>
<path transform="matrix(1.00003,0,0,-1.00008,20.700142,102.39523)" d="M58.28076 85.04042C58.28076 85.91698 57.57018 86.62756 56.69362 86.62756 55.81705 86.62756 55.10646 85.91698 55.10646 85.04042 55.10646 84.16386 55.81705 83.45328 56.69362 83.45328 57.57018 83.45328 58.28076 84.16386 58.28076 85.04042ZM56.69362 85.04042"/>
<path transform="matrix(1.00003,0,0,-1.00008,20.700142,102.39523)" stroke-width=".3985" stroke-linecap="butt" stroke-miterlimit="10" stroke-linejoin="miter" fill="none" stroke="#000000" d="M58.28076 85.04042C58.28076 85.91698 57.57018 86.62756 56.69362 86.62756 55.81705 86.62756 55.10646 85.91698 55.10646 85.04042 55.10646 84.16386 55.81705 83.45328 56.69362 83.45328 57.57018 83.45328 58.28076 84.16386 58.28076 85.04042ZM56.69362 85.04042"/>
<path transform="matrix(1.00003,0,0,-1.00008,20.700142,102.39523)" stroke-width=".797" stroke-linecap="butt" stroke-miterlimit="10" stroke-linejoin="miter" fill="none" stroke="#000000" d="M68.59933 48.47305H44.78789M62.64647 44.50449H50.74075M68.59933 40.53592H44.78789M62.64647 36.56735H50.74075"/>
<path transform="matrix(1.00003,0,0,-1.00008,20.700142,102.39523)" d="M58.28076 0C58.28076 .87656 57.57018 1.58714 56.69362 1.58714 55.81705 1.58714 55.10646 .87656 55.10646 0 55.10646-.87656 55.81705-1.58714 56.69362-1.58714 57.57018-1.58714 58.28076-.87656 58.28076 0ZM56.69362 0"/>
<path transform="matrix(1.00003,0,0,-1.00008,20.700142,102.39523)" stroke-width=".3985" stroke-linecap="butt" stroke-miterlimit="10" stroke-linejoin="miter" fill="none" stroke="#000000" d="M58.28076 0C58.28076 .87656 57.57018 1.58714 56.69362 1.58714 55.81705 1.58714 55.10646 .87656 55.10646 0 55.10646-.87656 55.81705-1.58714 56.69362-1.58714 57.57018-1.58714 58.28076-.87656 58.28076 0ZM56.69362 0"/>
<use data-text="V" xlink:href="#font_1_2" transform="matrix(9.962899,0,0,-9.963397,92.10229,62.019)"/>
<use data-text="b" xlink:href="#font_3_1" transform="matrix(6.9740097,0,0,-6.974358,97.91446,63.51312)"/>
<use data-text="b" xlink:href="#font_3_1" transform="matrix(6.9740097,0,0,-6.974358,101.41541,63.51312)"/>
<use data-text="1" xlink:href="#font_2_1" transform="matrix(6.9740097,0,0,-6.974358,104.92167,63.51312)"/>
<path transform="matrix(1.00003,0,0,-1.00008,20.700142,102.39523)" stroke-width=".3985" stroke-linecap="butt" stroke-miterlimit="10" stroke-linejoin="miter" fill="none" stroke="#000000" d="M56.69362 85.04042 69.16623 85.0404M100.91461 85.0404 113.38724 85.04042"/>
<path transform="matrix(1.00003,0,0,-1.00008,20.700142,102.39523)" stroke-width=".797" stroke-linecap="butt" stroke-linejoin="bevel" fill="none" stroke="#000000" d="M68.76772 85.0404 71.81192 90.99326 77.1033 79.08755 82.39468 90.99326 87.68607 79.08755 92.97745 90.99326 98.26883 79.08755 101.31303 85.0404"/>
<path transform="matrix(1.00003,0,0,-1.00008,20.700142,102.39523)" d="M114.97438 85.04042C114.97438 85.91698 114.2638 86.62756 113.38724 86.62756 112.51067 86.62756 111.80008 85.91698 111.80008 85.04042 111.80008 84.16386 112.51067 83.45328 113.38724 83.45328 114.2638 83.45328 114.97438 84.16386 114.97438 85.04042ZM113.38724 85.04042" fill="#ffffff"/>
<path transform="matrix(1.00003,0,0,-1.00008,20.700142,102.39523)" stroke-width=".3985" stroke-linecap="butt" stroke-miterlimit="10" stroke-linejoin="miter" fill="none" stroke="#000000" d="M114.97438 85.04042C114.97438 85.91698 114.2638 86.62756 113.38724 86.62756 112.51067 86.62756 111.80008 85.91698 111.80008 85.04042 111.80008 84.16386 112.51067 83.45328 113.38724 83.45328 114.2638 83.45328 114.97438 84.16386 114.97438 85.04042ZM113.38724 85.04042"/>
<path transform="matrix(1.00003,0,0,-1.00008,20.700142,102.39523)" d="" fill="#ffffff"/>
<path transform="matrix(1.00003,0,0,-1.00008,20.700142,102.39523)" stroke-width=".3985" stroke-linecap="butt" stroke-miterlimit="10" stroke-linejoin="miter" fill="none" stroke="#000000" d=""/>
<use data-text="R" xlink:href="#font_1_1" transform="matrix(9.962899,0,0,-9.963397,99.72552,7.5786516)"/>
<use data-text="2" xlink:href="#font_2_2" transform="matrix(6.9740097,0,0,-6.974358,107.29075,9.072769)"/>
<path transform="matrix(1.00003,0,0,-1.00008,20.700142,102.39523)" stroke-width=".3985" stroke-linecap="butt" stroke-miterlimit="10" stroke-linejoin="miter" fill="none" stroke="#000000" d="M56.69362 0H79.08757M90.99327 0H113.38724"/>
<path transform="matrix(1.00003,0,0,-1.00008,20.700142,102.39523)" stroke-width=".797" stroke-linecap="butt" stroke-miterlimit="10" stroke-linejoin="miter" fill="none" stroke="#000000" d="M79.08757 11.90572V-11.90572M83.05614 5.95285V-5.95285M87.0247 11.90572V-11.90572M90.99327 5.95285V-5.95285"/>
<path transform="matrix(1.00003,0,0,-1.00008,20.700142,102.39523)" d="M114.97438 0C114.97438 .87656 114.2638 1.58714 113.38724 1.58714 112.51067 1.58714 111.80008 .87656 111.80008 0 111.80008-.87656 112.51067-1.58714 113.38724-1.58714 114.2638-1.58714 114.97438-.87656 114.97438 0ZM113.38724 0" fill="#ffffff"/>
<path transform="matrix(1.00003,0,0,-1.00008,20.700142,102.39523)" stroke-width=".3985" stroke-linecap="butt" stroke-miterlimit="10" stroke-linejoin="miter" fill="none" stroke="#000000" d="M114.97438 0C114.97438 .87656 114.2638 1.58714 113.38724 1.58714 112.51067 1.58714 111.80008 .87656 111.80008 0 111.80008-.87656 112.51067-1.58714 113.38724-1.58714 114.2638-1.58714 114.97438-.87656 114.97438 0ZM113.38724 0"/>
<path transform="matrix(1.00003,0,0,-1.00008,20.700142,102.39523)" d="" fill="#ffffff"/>
<path transform="matrix(1.00003,0,0,-1.00008,20.700142,102.39523)" stroke-width=".3985" stroke-linecap="butt" stroke-miterlimit="10" stroke-linejoin="miter" fill="none" stroke="#000000" d=""/>
<use data-text="V" xlink:href="#font_1_2" transform="matrix(9.962899,0,0,-9.963397,97.09844,125.47208)"/>
<use data-text="b" xlink:href="#font_3_1" transform="matrix(6.9740097,0,0,-6.974358,102.910617,126.9662)"/>
<use data-text="b" xlink:href="#font_3_1" transform="matrix(6.9740097,0,0,-6.974358,106.41157,126.9662)"/>
<use data-text="2" xlink:href="#font_2_2" transform="matrix(6.9740097,0,0,-6.974358,109.91782,126.9662)"/>
</svg>
