<svg xmlns="http://www.w3.org/2000/svg" xmlns:xlink="http://www.w3.org/1999/xlink" xmlns:inkscape="http://www.inkscape.org/namespaces/inkscape" version="1.1" width="120" height="74" viewBox="0 0 120 74">
<defs>
<path id="font_1_97" d="M.49899293 .18579102C.49899293 .2858429 .43299867 .36791993 .34899903 .38793946L.22099304 .4189453C.15899658 .43388368 .11999512 .48773194 .11999512 .5458069 .11999512 .61595156 .17399597 .677063 .2519989 .677063 .4189911 .677063 .44099427 .5127411 .44699098 .46777345 .44799806 .461792 .44799806 .45581056 .45899964 .45581056 .47200013 .45581056 .47200013 .46080018 .47200013 .47973634V.68107607C.47200013 .69807437 .47200013 .7050781 .46099855 .7050781 .45399476 .7050781 .45298768 .70407107 .44599916 .69207766L.41099549 .63497927C.3809967 .66404727 .33999635 .7050781 .25099183 .7050781 .13999939 .7050781 .055999757 .61694338 .055999757 .5107422 .055999757 .42790223 .10899353 .35490418 .18699646 .32788087 .19799805 .32388307 .24899292 .3118744 .31900025 .29486085 .34599305 .28785707 .37599183 .280838 .4039917 .24382019 .4249878 .2177887 .43499757 .18478394 .43499757 .1517334 .43499757 .0806427 .3849945 .008529663 .30099488 .008529663 .27198792 .008529663 .19599915 .013534546 .14299011 .06260681 .084991458 .11668396 .08198547 .18078614 .08099365 .21679688 .07998657 .22679138 .07199097 .22679138 .068984989 .22679138 .055999757 .22679138 .055999757 .2197876 .055999757 .20178223V.0015258789C.055999757-.015472412 .055999757-.022460938 .066986087-.022460938 .07398987-.022460938 .07499695-.020462037 .08198547-.009475708 .08198547-.009475708 .084991458-.0054626467 .117996219 .047592164 .14898682 .013534546 .21299744-.022460938 .3019867-.022460938 .4189911-.022460938 .49899293 .07562256 .49899293 .18579102Z"/>
<path id="font_1_66" d="M.24699402 0V.0309906C.18099976 .0309906 .1769867 .035995485 .1769867 .075042728V.4423828L.036987306 .43066407V.3996582C.101989749 .3996582 .11099243 .3936615 .11099243 .3447113V.07595825C.11099243 .0309906 .099990848 .0309906 .032989503 .0309906V0L.14299011 .0029907227C.17799378 .0029907227 .21299744 .0009918213 .24699402 0M.19198609 .603775C.19198609 .6307678 .16899109 .6567688 .13899231 .6567688 .10499573 .6567688 .084991458 .6287689 .084991458 .603775 .084991458 .57676699 .10798645 .55078127 .13798523 .55078127 .17199707 .55078127 .19198609 .5787811 .19198609 .603775Z"/>
<path id="font_1_83" d="M.6239929 .4967041C.6239929 .59465029 .5249939 .6826172 .3880005 .6826172H.034988405V.6516113H.05899048C.13598633 .6516113 .13798523 .64060977 .13798523 .6046295V.07795715C.13798523 .041992189 .13598633 .0309906 .05899048 .0309906H.034988405V0C.069992069 .0029907227 .14399719 .0029907227 .18199158 .0029907227 .21998596 .0029907227 .29499818 .0029907227 .32998658 0V.0309906H.30599977C.22898865 .0309906 .22698975 .041992189 .22698975 .07795715V.3157959H.3959961C.5159912 .3157959 .6239929 .39675904 .6239929 .4967041M.5209961 .4967041C.5209961 .4497223 .5209961 .34179688 .3619995 .34179688H.22399903V.6116333C.22399903 .64460757 .22599793 .6516113 .272995 .6516113H.3619995C.5209961 .6516113 .5209961 .54566958 .5209961 .4967041Z"/>
</defs>
<path transform="matrix(1,0,0,-1.00008,14.652,59.713499)" stroke-width=".3985" stroke-linecap="butt" stroke-miterlimit="10" stroke-linejoin="miter" fill="none" stroke="#000000" d="M0 0"/>
<path transform="matrix(1,0,0,-1.00008,14.652,59.713499)" stroke-width=".3985" stroke-linecap="butt" stroke-miterlimit="10" stroke-linejoin="miter" fill="none" stroke="#000000" d="M0 0"/>
<use data-text="S" xlink:href="#font_1_97" transform="matrix(13.947639,0,0,-13.948754,8.8358,64.476879)"/>
<use data-text="i" xlink:href="#font_1_66" transform="matrix(13.947639,0,0,-13.948754,16.590699,64.476879)"/>
<path transform="matrix(1,0,0,-1.00008,14.652,59.713499)" d="M4.25226 11.33855C4.25226 12.12137 3.61766 12.75595 2.83484 12.75595 2.05202 12.75595 1.41742 12.12137 1.41742 11.33855 1.41742 10.55571 2.05202 9.92113 2.83484 9.92113 3.61766 9.92113 4.25226 10.55571 4.25226 11.33855ZM2.83484 11.33855"/>
<path transform="matrix(1,0,0,-1.00008,14.652,59.713499)" d="M12.75595-2.83484C12.75595-2.05202 12.12137-1.41742 11.33855-1.41742 10.55571-1.41742 9.92113-2.05202 9.92113-2.83484 9.92113-3.61766 10.55571-4.25226 11.33855-4.25226 12.12137-4.25226 12.75595-3.61766 12.75595-2.83484ZM11.33855-2.83484"/>
<path transform="matrix(1,0,0,-1.00008,14.652,59.713499)" d="M-1.41742-11.33855C-1.41742-10.55571-2.05202-9.92113-2.83484-9.92113-3.61766-9.92113-4.25226-10.55571-4.25226-11.33855-4.25226-12.12137-3.61766-12.75595-2.83484-12.75595-2.05202-12.75595-1.41742-12.12137-1.41742-11.33855ZM-2.83484-11.33855"/>
<path transform="matrix(1,0,0,-1.00008,14.652,59.713499)" d="M-9.92113 2.83484C-9.92113 3.61766-10.55571 4.25226-11.33855 4.25226-12.12137 4.25226-12.75595 3.61766-12.75595 2.83484-12.75595 2.05202-12.12137 1.41742-11.33855 1.41742-10.55571 1.41742-9.92113 2.05202-9.92113 2.83484ZM-11.33855 2.83484"/>
<path transform="matrix(1,0,0,-1.00008,14.652,59.713499)" stroke-width=".3985" stroke-linecap="butt" stroke-miterlimit="10" stroke-linejoin="miter" fill="none" stroke="#000000" d="M0 22.6771"/>
<path transform="matrix(1,0,0,-1.00008,14.652,59.713499)" stroke-width=".3985" stroke-linecap="butt" stroke-miterlimit="10" stroke-linejoin="miter" fill="none" stroke="#000000" d="M0 22.6771"/>
<use data-text="S" xlink:href="#font_1_97" transform="matrix(13.947639,0,0,-13.948754,8.8358,41.798059)"/>
<use data-text="i" xlink:href="#font_1_66" transform="matrix(13.947639,0,0,-13.948754,16.590699,41.798059)"/>
<path transform="matrix(1,0,0,-1.00008,14.652,59.713499)" d="M4.25226 34.01564C4.25226 34.79846 3.61766 35.43306 2.83484 35.43306 2.05202 35.43306 1.41742 34.79846 1.41742 34.01564 1.41742 33.2328 2.05202 32.59822 2.83484 32.59822 3.61766 32.59822 4.25226 33.2328 4.25226 34.01564ZM2.83484 34.01564"/>
<path transform="matrix(1,0,0,-1.00008,14.652,59.713499)" d="M12.75595 19.84224C12.75595 20.62506 12.12137 21.25966 11.33855 21.25966 10.55571 21.25966 9.92113 20.62506 9.92113 19.84224 9.92113 19.05942 10.55571 18.42482 11.33855 18.42482 12.12137 18.42482 12.75595 19.05942 12.75595 19.84224ZM11.33855 19.84224"/>
<path transform="matrix(1,0,0,-1.00008,14.652,59.713499)" d="M-1.41742 11.33855C-1.41742 12.12137-2.05202 12.75595-2.83484 12.75595-3.61766 12.75595-4.25226 12.12137-4.25226 11.33855-4.25226 10.55571-3.61766 9.92113-2.83484 9.92113-2.05202 9.92113-1.41742 10.55571-1.41742 11.33855ZM-2.83484 11.33855"/>
<path transform="matrix(1,0,0,-1.00008,14.652,59.713499)" d="M-9.92113 25.51193C-9.92113 26.29477-10.55571 26.92935-11.33855 26.92935-12.12137 26.92935-12.75595 26.29477-12.75595 25.51193-12.75595 24.72911-12.12137 24.09451-11.33855 24.09451-10.55571 24.09451-9.92113 24.72911-9.92113 25.51193ZM-11.33855 25.51193"/>
<path transform="matrix(1,0,0,-1.00008,14.652,59.713499)" stroke-width=".3985" stroke-linecap="butt" stroke-miterlimit="10" stroke-linejoin="miter" fill="none" stroke="#000000" d="M0 45.35419"/>
<path transform="matrix(1,0,0,-1.00008,14.652,59.713499)" stroke-width=".3985" stroke-linecap="butt" stroke-miterlimit="10" stroke-linejoin="miter" fill="none" stroke="#000000" d="M0 45.35419"/>
<use data-text="S" xlink:href="#font_1_97" transform="matrix(13.947639,0,0,-13.948754,8.8358,19.119244)"/>
<use data-text="i" xlink:href="#font_1_66" transform="matrix(13.947639,0,0,-13.948754,16.590699,19.119244)"/>
<path transform="matrix(1,0,0,-1.00008,14.652,59.713499)" d="M4.25226 56.69273C4.25226 57.47556 3.61766 58.11015 2.83484 58.11015 2.05202 58.11015 1.41742 57.47556 1.41742 56.69273 1.41742 55.90991 2.05202 55.27531 2.83484 55.27531 3.61766 55.27531 4.25226 55.90991 4.25226 56.69273ZM2.83484 56.69273"/>
<path transform="matrix(1,0,0,-1.00008,14.652,59.713499)" d="M12.75595 42.51933C12.75595 43.30215 12.12137 43.93675 11.33855 43.93675 10.55571 43.93675 9.92113 43.30215 9.92113 42.51933 9.92113 41.73651 10.55571 41.10191 11.33855 41.10191 12.12137 41.10191 12.75595 41.73651 12.75595 42.51933ZM11.33855 42.51933"/>
<path transform="matrix(1,0,0,-1.00008,14.652,59.713499)" d="M-1.41742 34.01564C-1.41742 34.79846-2.05202 35.43306-2.83484 35.43306-3.61766 35.43306-4.25226 34.79846-4.25226 34.01564-4.25226 33.2328-3.61766 32.59822-2.83484 32.59822-2.05202 32.59822-1.41742 33.2328-1.41742 34.01564ZM-2.83484 34.01564"/>
<path transform="matrix(1,0,0,-1.00008,14.652,59.713499)" d="M-9.92113 48.18903C-9.92113 48.97186-10.55571 49.60645-11.33855 49.60645-12.12137 49.60645-12.75595 48.97186-12.75595 48.18903-12.75595 47.4062-12.12137 46.77162-11.33855 46.77162-10.55571 46.77162-9.92113 47.4062-9.92113 48.18903ZM-11.33855 48.18903"/>
<path transform="matrix(1,0,0,-1.00008,14.652,59.713499)" stroke-width=".3985" stroke-linecap="butt" stroke-miterlimit="10" stroke-linejoin="miter" fill="none" stroke="#000000" d="M22.6771 0"/>
<path transform="matrix(1,0,0,-1.00008,14.652,59.713499)" stroke-width=".3985" stroke-linecap="butt" stroke-miterlimit="10" stroke-linejoin="miter" fill="none" stroke="#000000" d="M22.6771 0"/>
<use data-text="S" xlink:href="#font_1_97" transform="matrix(13.947639,0,0,-13.948754,31.512795,64.476879)"/>
<use data-text="i" xlink:href="#font_1_66" transform="matrix(13.947639,0,0,-13.948754,39.267694,64.476879)"/>
<path transform="matrix(1,0,0,-1.00008,14.652,59.713499)" d="M26.92935 11.33855C26.92935 12.12137 26.29477 12.75595 25.51193 12.75595 24.72911 12.75595 24.09451 12.12137 24.09451 11.33855 24.09451 10.55571 24.72911 9.92113 25.51193 9.92113 26.29477 9.92113 26.92935 10.55571 26.92935 11.33855ZM25.51193 11.33855"/>
<path transform="matrix(1,0,0,-1.00008,14.652,59.713499)" d="M35.43306-2.83484C35.43306-2.05202 34.79846-1.41742 34.01564-1.41742 33.2328-1.41742 32.59822-2.05202 32.59822-2.83484 32.59822-3.61766 33.2328-4.25226 34.01564-4.25226 34.79846-4.25226 35.43306-3.61766 35.43306-2.83484ZM34.01564-2.83484"/>
<path transform="matrix(1,0,0,-1.00008,14.652,59.713499)" d="M21.25966-11.33855C21.25966-10.55571 20.62506-9.92113 19.84224-9.92113 19.05942-9.92113 18.42482-10.55571 18.42482-11.33855 18.42482-12.12137 19.05942-12.75595 19.84224-12.75595 20.62506-12.75595 21.25966-12.12137 21.25966-11.33855ZM19.84224-11.33855"/>
<path transform="matrix(1,0,0,-1.00008,14.652,59.713499)" d="M12.75595 2.83484C12.75595 3.61766 12.12137 4.25226 11.33855 4.25226 10.55571 4.25226 9.92113 3.61766 9.92113 2.83484 9.92113 2.05202 10.55571 1.41742 11.33855 1.41742 12.12137 1.41742 12.75595 2.05202 12.75595 2.83484ZM11.33855 2.83484"/>
<path transform="matrix(1,0,0,-1.00008,14.652,59.713499)" stroke-width=".3985" stroke-linecap="butt" stroke-miterlimit="10" stroke-linejoin="miter" fill="none" stroke="#000000" d="M22.6771 22.6771"/>
<path transform="matrix(1,0,0,-1.00008,14.652,59.713499)" stroke-width=".3985" stroke-linecap="butt" stroke-miterlimit="10" stroke-linejoin="miter" fill="none" stroke="#000000" d="M22.6771 22.6771"/>
<use data-text="S" xlink:href="#font_1_97" transform="matrix(13.947639,0,0,-13.948754,31.512795,41.798059)"/>
<use data-text="i" xlink:href="#font_1_66" transform="matrix(13.947639,0,0,-13.948754,39.267694,41.798059)"/>
<path transform="matrix(1,0,0,-1.00008,14.652,59.713499)" d="M26.92935 34.01564C26.92935 34.79846 26.29477 35.43306 25.51193 35.43306 24.72911 35.43306 24.09451 34.79846 24.09451 34.01564 24.09451 33.2328 24.72911 32.59822 25.51193 32.59822 26.29477 32.59822 26.92935 33.2328 26.92935 34.01564ZM25.51193 34.01564"/>
<path transform="matrix(1,0,0,-1.00008,14.652,59.713499)" d="M35.43306 19.84224C35.43306 20.62506 34.79846 21.25966 34.01564 21.25966 33.2328 21.25966 32.59822 20.62506 32.59822 19.84224 32.59822 19.05942 33.2328 18.42482 34.01564 18.42482 34.79846 18.42482 35.43306 19.05942 35.43306 19.84224ZM34.01564 19.84224"/>
<path transform="matrix(1,0,0,-1.00008,14.652,59.713499)" d="M21.25966 11.33855C21.25966 12.12137 20.62506 12.75595 19.84224 12.75595 19.05942 12.75595 18.42482 12.12137 18.42482 11.33855 18.42482 10.55571 19.05942 9.92113 19.84224 9.92113 20.62506 9.92113 21.25966 10.55571 21.25966 11.33855ZM19.84224 11.33855"/>
<path transform="matrix(1,0,0,-1.00008,14.652,59.713499)" d="M12.75595 25.51193C12.75595 26.29477 12.12137 26.92935 11.33855 26.92935 10.55571 26.92935 9.92113 26.29477 9.92113 25.51193 9.92113 24.72911 10.55571 24.09451 11.33855 24.09451 12.12137 24.09451 12.75595 24.72911 12.75595 25.51193ZM11.33855 25.51193"/>
<path transform="matrix(1,0,0,-1.00008,14.652,59.713499)" stroke-width=".3985" stroke-linecap="butt" stroke-miterlimit="10" stroke-linejoin="miter" fill="none" stroke="#000000" d="M22.6771 45.35419"/>
<path transform="matrix(1,0,0,-1.00008,14.652,59.713499)" stroke-width=".3985" stroke-linecap="butt" stroke-miterlimit="10" stroke-linejoin="miter" fill="none" stroke="#000000" d="M22.6771 45.35419"/>
<use data-text="S" xlink:href="#font_1_97" transform="matrix(13.947639,0,0,-13.948754,31.512795,19.119244)"/>
<use data-text="i" xlink:href="#font_1_66" transform="matrix(13.947639,0,0,-13.948754,39.267694,19.119244)"/>
<path transform="matrix(1,0,0,-1.00008,14.652,59.713499)" d="M26.92935 56.69273C26.92935 57.47556 26.29477 58.11015 25.51193 58.11015 24.72911 58.11015 24.09451 57.47556 24.09451 56.69273 24.09451 55.90991 24.72911 55.27531 25.51193 55.27531 26.29477 55.27531 26.92935 55.90991 26.92935 56.69273ZM25.51193 56.69273"/>
<path transform="matrix(1,0,0,-1.00008,14.652,59.713499)" d="M35.43306 42.51933C35.43306 43.30215 34.79846 43.93675 34.01564 43.93675 33.2328 43.93675 32.59822 43.30215 32.59822 42.51933 32.59822 41.73651 33.2328 41.10191 34.01564 41.10191 34.79846 41.10191 35.43306 41.73651 35.43306 42.51933ZM34.01564 42.51933"/>
<path transform="matrix(1,0,0,-1.00008,14.652,59.713499)" d="M21.25966 34.01564C21.25966 34.79846 20.62506 35.43306 19.84224 35.43306 19.05942 35.43306 18.42482 34.79846 18.42482 34.01564 18.42482 33.2328 19.05942 32.59822 19.84224 32.59822 20.62506 32.59822 21.25966 33.2328 21.25966 34.01564ZM19.84224 34.01564"/>
<path transform="matrix(1,0,0,-1.00008,14.652,59.713499)" d="M12.75595 48.18903C12.75595 48.97186 12.12137 49.60645 11.33855 49.60645 10.55571 49.60645 9.92113 48.97186 9.92113 48.18903 9.92113 47.4062 10.55571 46.77162 11.33855 46.77162 12.12137 46.77162 12.75595 47.4062 12.75595 48.18903ZM11.33855 48.18903"/>
<path transform="matrix(1,0,0,-1.00008,14.652,59.713499)" stroke-width=".3985" stroke-linecap="butt" stroke-miterlimit="10" stroke-linejoin="miter" fill="none" stroke="#000000" d="M45.35419 0"/>
<path transform="matrix(1,0,0,-1.00008,14.652,59.713499)" stroke-width=".3985" stroke-linecap="butt" stroke-miterlimit="10" stroke-linejoin="miter" fill="none" stroke="#000000" d="M45.35419 0"/>
<use data-text="S" xlink:href="#font_1_97" transform="matrix(13.947639,0,0,-13.948754,54.189798,64.476879)"/>
<use data-text="i" xlink:href="#font_1_66" transform="matrix(13.947639,0,0,-13.948754,61.944696,64.476879)"/>
<path transform="matrix(1,0,0,-1.00008,14.652,59.713499)" d="M49.60645 11.33855C49.60645 12.12137 48.97186 12.75595 48.18903 12.75595 47.4062 12.75595 46.77162 12.12137 46.77162 11.33855 46.77162 10.55571 47.4062 9.92113 48.18903 9.92113 48.97186 9.92113 49.60645 10.55571 49.60645 11.33855ZM48.18903 11.33855"/>
<path transform="matrix(1,0,0,-1.00008,14.652,59.713499)" d="M58.11015-2.83484C58.11015-2.05202 57.47556-1.41742 56.69273-1.41742 55.90991-1.41742 55.27531-2.05202 55.27531-2.83484 55.27531-3.61766 55.90991-4.25226 56.69273-4.25226 57.47556-4.25226 58.11015-3.61766 58.11015-2.83484ZM56.69273-2.83484"/>
<path transform="matrix(1,0,0,-1.00008,14.652,59.713499)" d="M43.93675-11.33855C43.93675-10.55571 43.30215-9.92113 42.51933-9.92113 41.73651-9.92113 41.10191-10.55571 41.10191-11.33855 41.10191-12.12137 41.73651-12.75595 42.51933-12.75595 43.30215-12.75595 43.93675-12.12137 43.93675-11.33855ZM42.51933-11.33855"/>
<path transform="matrix(1,0,0,-1.00008,14.652,59.713499)" d="M35.43306 2.83484C35.43306 3.61766 34.79846 4.25226 34.01564 4.25226 33.2328 4.25226 32.59822 3.61766 32.59822 2.83484 32.59822 2.05202 33.2328 1.41742 34.01564 1.41742 34.79846 1.41742 35.43306 2.05202 35.43306 2.83484ZM34.01564 2.83484"/>
<path transform="matrix(1,0,0,-1.00008,14.652,59.713499)" stroke-width=".3985" stroke-linecap="butt" stroke-miterlimit="10" stroke-linejoin="miter" fill="none" stroke="#000000" d="M45.35419 22.6771"/>
<path transform="matrix(1,0,0,-1.00008,14.652,59.713499)" stroke-width=".3985" stroke-linecap="butt" stroke-miterlimit="10" stroke-linejoin="miter" fill="none" stroke="#000000" d="M45.35419 22.6771"/>
<use data-text="P" xlink:href="#font_1_83" transform="matrix(13.947639,0,0,-13.948754,55.256799,41.798059)" fill="#ff0000"/>
<path transform="matrix(1,0,0,-1.00008,14.652,59.713499)" d="M49.60645 34.01564C49.60645 34.79846 48.97186 35.43306 48.18903 35.43306 47.4062 35.43306 46.77162 34.79846 46.77162 34.01564 46.77162 33.2328 47.4062 32.59822 48.18903 32.59822 48.97186 32.59822 49.60645 33.2328 49.60645 34.01564ZM48.18903 34.01564" fill="#ff0000"/>
<path transform="matrix(1,0,0,-1.00008,14.652,59.713499)" d="M58.11015 19.84224C58.11015 20.62506 57.47556 21.25966 56.69273 21.25966 55.90991 21.25966 55.27531 20.62506 55.27531 19.84224 55.27531 19.05942 55.90991 18.42482 56.69273 18.42482 57.47556 18.42482 58.11015 19.05942 58.11015 19.84224ZM56.69273 19.84224" fill="#ff0000"/>
<path transform="matrix(1,0,0,-1.00008,14.652,59.713499)" d="M43.93675 11.33855C43.93675 12.12137 43.30215 12.75595 42.51933 12.75595 41.73651 12.75595 41.10191 12.12137 41.10191 11.33855 41.10191 10.55571 41.73651 9.92113 42.51933 9.92113 43.30215 9.92113 43.93675 10.55571 43.93675 11.33855ZM42.51933 11.33855" fill="#ff0000"/>
<path transform="matrix(1,0,0,-1.00008,14.652,59.713499)" d="M35.43306 25.51193C35.43306 26.29477 34.79846 26.92935 34.01564 26.92935 33.2328 26.92935 32.59822 26.29477 32.59822 25.51193 32.59822 24.72911 33.2328 24.09451 34.01564 24.09451 34.79846 24.09451 35.43306 24.72911 35.43306 25.51193ZM34.01564 25.51193" fill="#ff0000"/>
<path transform="matrix(1,0,0,-1.00008,14.652,59.713499)" d="M54.78795 30.69344C54.78795 31.47627 54.15337 32.11086 53.37053 32.11086 52.5877 32.11086 51.95313 31.47627 51.95313 30.69344 51.95313 29.91061 52.5877 29.27602 53.37053 29.27602 54.15337 29.27602 54.78795 29.91061 54.78795 30.69344ZM53.37053 30.69344" fill="#0000ff"/>
<path transform="matrix(1,0,0,-1.00008,14.652,59.713499)" stroke-width=".3985" stroke-linecap="butt" stroke-miterlimit="10" stroke-linejoin="miter" fill="none" stroke="#000000" d="M45.35419 45.35419"/>
<path transform="matrix(1,0,0,-1.00008,14.652,59.713499)" stroke-width=".3985" stroke-linecap="butt" stroke-miterlimit="10" stroke-linejoin="miter" fill="none" stroke="#000000" d="M45.35419 45.35419"/>
<use data-text="S" xlink:href="#font_1_97" transform="matrix(13.947639,0,0,-13.948754,54.189798,19.119244)"/>
<use data-text="i" xlink:href="#font_1_66" transform="matrix(13.947639,0,0,-13.948754,61.944696,19.119244)"/>
<path transform="matrix(1,0,0,-1.00008,14.652,59.713499)" d="M49.60645 56.69273C49.60645 57.47556 48.97186 58.11015 48.18903 58.11015 47.4062 58.11015 46.77162 57.47556 46.77162 56.69273 46.77162 55.90991 47.4062 55.27531 48.18903 55.27531 48.97186 55.27531 49.60645 55.90991 49.60645 56.69273ZM48.18903 56.69273"/>
<path transform="matrix(1,0,0,-1.00008,14.652,59.713499)" d="M58.11015 42.51933C58.11015 43.30215 57.47556 43.93675 56.69273 43.93675 55.90991 43.93675 55.27531 43.30215 55.27531 42.51933 55.27531 41.73651 55.90991 41.10191 56.69273 41.10191 57.47556 41.10191 58.11015 41.73651 58.11015 42.51933ZM56.69273 42.51933"/>
<path transform="matrix(1,0,0,-1.00008,14.652,59.713499)" d="M43.93675 34.01564C43.93675 34.79846 43.30215 35.43306 42.51933 35.43306 41.73651 35.43306 41.10191 34.79846 41.10191 34.01564 41.10191 33.2328 41.73651 32.59822 42.51933 32.59822 43.30215 32.59822 43.93675 33.2328 43.93675 34.01564ZM42.51933 34.01564"/>
<path transform="matrix(1,0,0,-1.00008,14.652,59.713499)" d="M35.43306 48.18903C35.43306 48.97186 34.79846 49.60645 34.01564 49.60645 33.2328 49.60645 32.59822 48.97186 32.59822 48.18903 32.59822 47.4062 33.2328 46.77162 34.01564 46.77162 34.79846 46.77162 35.43306 47.4062 35.43306 48.18903ZM34.01564 48.18903"/>
<path transform="matrix(1,0,0,-1.00008,14.652,59.713499)" stroke-width=".3985" stroke-linecap="butt" stroke-miterlimit="10" stroke-linejoin="miter" fill="none" stroke="#000000" d="M68.03128 0"/>
<path transform="matrix(1,0,0,-1.00008,14.652,59.713499)" stroke-width=".3985" stroke-linecap="butt" stroke-miterlimit="10" stroke-linejoin="miter" fill="none" stroke="#000000" d="M68.03128 0"/>
<use data-text="S" xlink:href="#font_1_97" transform="matrix(13.947639,0,0,-13.948754,76.8668,64.476879)"/>
<use data-text="i" xlink:href="#font_1_66" transform="matrix(13.947639,0,0,-13.948754,84.6217,64.476879)"/>
<path transform="matrix(1,0,0,-1.00008,14.652,59.713499)" d="M72.28354 11.33855C72.28354 12.12137 71.64896 12.75595 70.86613 12.75595 70.0833 12.75595 69.44872 12.12137 69.44872 11.33855 69.44872 10.55571 70.0833 9.92113 70.86613 9.92113 71.64896 9.92113 72.28354 10.55571 72.28354 11.33855ZM70.86613 11.33855"/>
<path transform="matrix(1,0,0,-1.00008,14.652,59.713499)" d="M80.78725-2.83484C80.78725-2.05202 80.15265-1.41742 79.36983-1.41742 78.587-1.41742 77.95241-2.05202 77.95241-2.83484 77.95241-3.61766 78.587-4.25226 79.36983-4.25226 80.15265-4.25226 80.78725-3.61766 80.78725-2.83484ZM79.36983-2.83484"/>
<path transform="matrix(1,0,0,-1.00008,14.652,59.713499)" d="M66.61385-11.33855C66.61385-10.55571 65.97925-9.92113 65.19643-9.92113 64.4136-9.92113 63.779-10.55571 63.779-11.33855 63.779-12.12137 64.4136-12.75595 65.19643-12.75595 65.97925-12.75595 66.61385-12.12137 66.61385-11.33855ZM65.19643-11.33855"/>
<path transform="matrix(1,0,0,-1.00008,14.652,59.713499)" d="M58.11015 2.83484C58.11015 3.61766 57.47556 4.25226 56.69273 4.25226 55.90991 4.25226 55.27531 3.61766 55.27531 2.83484 55.27531 2.05202 55.90991 1.41742 56.69273 1.41742 57.47556 1.41742 58.11015 2.05202 58.11015 2.83484ZM56.69273 2.83484"/>
<path transform="matrix(1,0,0,-1.00008,14.652,59.713499)" stroke-width=".3985" stroke-linecap="butt" stroke-miterlimit="10" stroke-linejoin="miter" fill="none" stroke="#000000" d="M68.03128 22.6771"/>
<path transform="matrix(1,0,0,-1.00008,14.652,59.713499)" stroke-width=".3985" stroke-linecap="butt" stroke-miterlimit="10" stroke-linejoin="miter" fill="none" stroke="#000000" d="M68.03128 22.6771"/>
<use data-text="S" xlink:href="#font_1_97" transform="matrix(13.947639,0,0,-13.948754,76.8668,41.798059)"/>
<use data-text="i" xlink:href="#font_1_66" transform="matrix(13.947639,0,0,-13.948754,84.6217,41.798059)"/>
<path transform="matrix(1,0,0,-1.00008,14.652,59.713499)" d="M72.28354 34.01564C72.28354 34.79846 71.64896 35.43306 70.86613 35.43306 70.0833 35.43306 69.44872 34.79846 69.44872 34.01564 69.44872 33.2328 70.0833 32.59822 70.86613 32.59822 71.64896 32.59822 72.28354 33.2328 72.28354 34.01564ZM70.86613 34.01564"/>
<path transform="matrix(1,0,0,-1.00008,14.652,59.713499)" d="M80.78725 19.84224C80.78725 20.62506 80.15265 21.25966 79.36983 21.25966 78.587 21.25966 77.95241 20.62506 77.95241 19.84224 77.95241 19.05942 78.587 18.42482 79.36983 18.42482 80.15265 18.42482 80.78725 19.05942 80.78725 19.84224ZM79.36983 19.84224"/>
<path transform="matrix(1,0,0,-1.00008,14.652,59.713499)" d="M66.61385 11.33855C66.61385 12.12137 65.97925 12.75595 65.19643 12.75595 64.4136 12.75595 63.779 12.12137 63.779 11.33855 63.779 10.55571 64.4136 9.92113 65.19643 9.92113 65.97925 9.92113 66.61385 10.55571 66.61385 11.33855ZM65.19643 11.33855"/>
<path transform="matrix(1,0,0,-1.00008,14.652,59.713499)" d="M58.11015 25.51193C58.11015 26.29477 57.47556 26.92935 56.69273 26.92935 55.90991 26.92935 55.27531 26.29477 55.27531 25.51193 55.27531 24.72911 55.90991 24.09451 56.69273 24.09451 57.47556 24.09451 58.11015 24.72911 58.11015 25.51193ZM56.69273 25.51193"/>
<path transform="matrix(1,0,0,-1.00008,14.652,59.713499)" stroke-width=".3985" stroke-linecap="butt" stroke-miterlimit="10" stroke-linejoin="miter" fill="none" stroke="#000000" d="M68.03128 45.35419"/>
<path transform="matrix(1,0,0,-1.00008,14.652,59.713499)" stroke-width=".3985" stroke-linecap="butt" stroke-miterlimit="10" stroke-linejoin="miter" fill="none" stroke="#000000" d="M68.03128 45.35419"/>
<use data-text="S" xlink:href="#font_1_97" transform="matrix(13.947639,0,0,-13.948754,76.8668,19.119244)"/>
<use data-text="i" xlink:href="#font_1_66" transform="matrix(13.947639,0,0,-13.948754,84.6217,19.119244)"/>
<path transform="matrix(1,0,0,-1.00008,14.652,59.713499)" d="M72.28354 56.69273C72.28354 57.47556 71.64896 58.11015 70.86613 58.11015 70.0833 58.11015 69.44872 57.47556 69.44872 56.69273 69.44872 55.90991 70.0833 55.27531 70.86613 55.27531 71.64896 55.27531 72.28354 55.90991 72.28354 56.69273ZM70.86613 56.69273"/>
<path transform="matrix(1,0,0,-1.00008,14.652,59.713499)" d="M80.78725 42.51933C80.78725 43.30215 80.15265 43.93675 79.36983 43.93675 78.587 43.93675 77.95241 43.30215 77.95241 42.51933 77.95241 41.73651 78.587 41.10191 79.36983 41.10191 80.15265 41.10191 80.78725 41.73651 80.78725 42.51933ZM79.36983 42.51933"/>
<path transform="matrix(1,0,0,-1.00008,14.652,59.713499)" d="M66.61385 34.01564C66.61385 34.79846 65.97925 35.43306 65.19643 35.43306 64.4136 35.43306 63.779 34.79846 63.779 34.01564 63.779 33.2328 64.4136 32.59822 65.19643 32.59822 65.97925 32.59822 66.61385 33.2328 66.61385 34.01564ZM65.19643 34.01564"/>
<path transform="matrix(1,0,0,-1.00008,14.652,59.713499)" d="M58.11015 48.18903C58.11015 48.97186 57.47556 49.60645 56.69273 49.60645 55.90991 49.60645 55.27531 48.97186 55.27531 48.18903 55.27531 47.4062 55.90991 46.77162 56.69273 46.77162 57.47556 46.77162 58.11015 47.4062 58.11015 48.18903ZM56.69273 48.18903"/>
<path transform="matrix(1,0,0,-1.00008,14.652,59.713499)" stroke-width=".3985" stroke-linecap="butt" stroke-miterlimit="10" stroke-linejoin="miter" fill="none" stroke="#000000" d="M90.70837 0"/>
<path transform="matrix(1,0,0,-1.00008,14.652,59.713499)" stroke-width=".3985" stroke-linecap="butt" stroke-miterlimit="10" stroke-linejoin="miter" fill="none" stroke="#000000" d="M90.70837 0"/>
<use data-text="S" xlink:href="#font_1_97" transform="matrix(13.947639,0,0,-13.948754,99.54379,64.476879)"/>
<use data-text="i" xlink:href="#font_1_66" transform="matrix(13.947639,0,0,-13.948754,107.29869,64.476879)"/>
<path transform="matrix(1,0,0,-1.00008,14.652,59.713499)" d="M94.96065 11.33855C94.96065 12.12137 94.32605 12.75595 93.54323 12.75595 92.76039 12.75595 92.12581 12.12137 92.12581 11.33855 92.12581 10.55571 92.76039 9.92113 93.54323 9.92113 94.32605 9.92113 94.96065 10.55571 94.96065 11.33855ZM93.54323 11.33855"/>
<path transform="matrix(1,0,0,-1.00008,14.652,59.713499)" d="M103.46434-2.83484C103.46434-2.05202 102.82974-1.41742 102.04692-1.41742 101.2641-1.41742 100.6295-2.05202 100.6295-2.83484 100.6295-3.61766 101.2641-4.25226 102.04692-4.25226 102.82974-4.25226 103.46434-3.61766 103.46434-2.83484ZM102.04692-2.83484"/>
<path transform="matrix(1,0,0,-1.00008,14.652,59.713499)" d="M89.29094-11.33855C89.29094-10.55571 88.65636-9.92113 87.87352-9.92113 87.0907-9.92113 86.4561-10.55571 86.4561-11.33855 86.4561-12.12137 87.0907-12.75595 87.87352-12.75595 88.65636-12.75595 89.29094-12.12137 89.29094-11.33855ZM87.87352-11.33855"/>
<path transform="matrix(1,0,0,-1.00008,14.652,59.713499)" d="M80.78725 2.83484C80.78725 3.61766 80.15265 4.25226 79.36983 4.25226 78.587 4.25226 77.95241 3.61766 77.95241 2.83484 77.95241 2.05202 78.587 1.41742 79.36983 1.41742 80.15265 1.41742 80.78725 2.05202 80.78725 2.83484ZM79.36983 2.83484"/>
<path transform="matrix(1,0,0,-1.00008,14.652,59.713499)" stroke-width=".3985" stroke-linecap="butt" stroke-miterlimit="10" stroke-linejoin="miter" fill="none" stroke="#000000" d="M90.70837 22.6771"/>
<path transform="matrix(1,0,0,-1.00008,14.652,59.713499)" stroke-width=".3985" stroke-linecap="butt" stroke-miterlimit="10" stroke-linejoin="miter" fill="none" stroke="#000000" d="M90.70837 22.6771"/>
<use data-text="S" xlink:href="#font_1_97" transform="matrix(13.947639,0,0,-13.948754,99.54379,41.798059)"/>
<use data-text="i" xlink:href="#font_1_66" transform="matrix(13.947639,0,0,-13.948754,107.29869,41.798059)"/>
<path transform="matrix(1,0,0,-1.00008,14.652,59.713499)" d="M94.96065 34.01564C94.96065 34.79846 94.32605 35.43306 93.54323 35.43306 92.76039 35.43306 92.12581 34.79846 92.12581 34.01564 92.12581 33.2328 92.76039 32.59822 93.54323 32.59822 94.32605 32.59822 94.96065 33.2328 94.96065 34.01564ZM93.54323 34.01564"/>
<path transform="matrix(1,0,0,-1.00008,14.652,59.713499)" d="M103.46434 19.84224C103.46434 20.62506 102.82974 21.25966 102.04692 21.25966 101.2641 21.25966 100.6295 20.62506 100.6295 19.84224 100.6295 19.05942 101.2641 18.42482 102.04692 18.42482 102.82974 18.42482 103.46434 19.05942 103.46434 19.84224ZM102.04692 19.84224"/>
<path transform="matrix(1,0,0,-1.00008,14.652,59.713499)" d="M89.29094 11.33855C89.29094 12.12137 88.65636 12.75595 87.87352 12.75595 87.0907 12.75595 86.4561 12.12137 86.4561 11.33855 86.4561 10.55571 87.0907 9.92113 87.87352 9.92113 88.65636 9.92113 89.29094 10.55571 89.29094 11.33855ZM87.87352 11.33855"/>
<path transform="matrix(1,0,0,-1.00008,14.652,59.713499)" d="M80.78725 25.51193C80.78725 26.29477 80.15265 26.92935 79.36983 26.92935 78.587 26.92935 77.95241 26.29477 77.95241 25.51193 77.95241 24.72911 78.587 24.09451 79.36983 24.09451 80.15265 24.09451 80.78725 24.72911 80.78725 25.51193ZM79.36983 25.51193"/>
<path transform="matrix(1,0,0,-1.00008,14.652,59.713499)" stroke-width=".3985" stroke-linecap="butt" stroke-miterlimit="10" stroke-linejoin="miter" fill="none" stroke="#000000" d="M90.70837 45.35419"/>
<path transform="matrix(1,0,0,-1.00008,14.652,59.713499)" stroke-width=".3985" stroke-linecap="butt" stroke-miterlimit="10" stroke-linejoin="miter" fill="none" stroke="#000000" d="M90.70837 45.35419"/>
<use data-text="S" xlink:href="#font_1_97" transform="matrix(13.947639,0,0,-13.948754,99.54379,19.119244)"/>
<use data-text="i" xlink:href="#font_1_66" transform="matrix(13.947639,0,0,-13.948754,107.29869,19.119244)"/>
<path transform="matrix(1,0,0,-1.00008,14.652,59.713499)" d="M94.96065 56.69273C94.96065 57.47556 94.32605 58.11015 93.54323 58.11015 92.76039 58.11015 92.12581 57.47556 92.12581 56.69273 92.12581 55.90991 92.76039 55.27531 93.54323 55.27531 94.32605 55.27531 94.96065 55.90991 94.96065 56.69273ZM93.54323 56.69273"/>
<path transform="matrix(1,0,0,-1.00008,14.652,59.713499)" d="M103.46434 42.51933C103.46434 43.30215 102.82974 43.93675 102.04692 43.93675 101.2641 43.93675 100.6295 43.30215 100.6295 42.51933 100.6295 41.73651 101.2641 41.10191 102.04692 41.10191 102.82974 41.10191 103.46434 41.73651 103.46434 42.51933ZM102.04692 42.51933"/>
<path transform="matrix(1,0,0,-1.00008,14.652,59.713499)" d="M89.29094 34.01564C89.29094 34.79846 88.65636 35.43306 87.87352 35.43306 87.0907 35.43306 86.4561 34.79846 86.4561 34.01564 86.4561 33.2328 87.0907 32.59822 87.87352 32.59822 88.65636 32.59822 89.29094 33.2328 89.29094 34.01564ZM87.87352 34.01564"/>
<path transform="matrix(1,0,0,-1.00008,14.652,59.713499)" d="M80.78725 48.18903C80.78725 48.97186 80.15265 49.60645 79.36983 49.60645 78.587 49.60645 77.95241 48.97186 77.95241 48.18903 77.95241 47.4062 78.587 46.77162 79.36983 46.77162 80.15265 46.77162 80.78725 47.4062 80.78725 48.18903ZM79.36983 48.18903"/>
</svg>
