<svg xmlns="http://www.w3.org/2000/svg" xmlns:xlink="http://www.w3.org/1999/xlink" xmlns:inkscape="http://www.inkscape.org/namespaces/inkscape" version="1.1" width="236" height="153" viewBox="0 0 236 153">
<defs>
<path id="font_1_2" d="M.6279907 .5686035C.6769867 .64660647 .71899417 .6496124 .7559967 .6516113 .7679901 .65260317 .7689972 .6696167 .7689972 .6706085 .7689972 .6786041 .7639923 .6826172 .7559967 .6826172 .7299957 .6826172 .70098879 .6796112 .673996 .6796112 .6409912 .6796112 .6069946 .6826172 .57499697 .6826172 .56900027 .6826172 .55599978 .6826172 .55599978 .66360476 .55599978 .65260317 .5649872 .6516113 .57199099 .6516113 .598999 .6496124 .6179962 .63960269 .6179962 .61860659 .6179962 .6036072 .6029968 .581604 .6029968 .5805969L.29599 .092544559 .22799683 .62161257C.22799683 .63861086 .25099183 .6516113 .29699708 .6516113 .31098939 .6516113 .32199098 .6516113 .32199098 .6716156 .32199098 .680603 .31399537 .6826172 .30799867 .6826172 .2679901 .6826172 .22499085 .6796112 .18399048 .6796112 .1659851 .6796112 .14698792 .680603 .1289978 .680603 .11099243 .680603 .09199524 .6826172 .07499695 .6826172 .067993167 .6826172 .055999757 .6826172 .055999757 .66360476 .055999757 .6516113 .06498718 .6516113 .08099365 .6516113 .13699341 .6516113 .13798523 .64260867 .14099121 .6175995L.21998596 .0005340576C.22299195-.019470215 .22698975-.022460938 .23999024-.022460938 .2559967-.022460938 .2599945-.017471314 .2679901-.004470825L.6279907 .5686035Z"/>
<path id="font_2_66" d="M.27398683 0V.035995485C.21598816 .035995485 .20599365 .035995485 .20599365 .07803345V.44140626L.05899048 .43052674V.39453126C.12199402 .39453126 .1309967 .3885193 .1309967 .33952333V.07952881C.1309967 .035995485 .12098694 .035995485 .055999757 .035995485V0C.055999757 0 .12799073 .0039978029 .16799927 .0039978029 .20298767 .0039978029 .23899842 .0029907227 .27398683 0M.21899414 .60214236C.21899414 .6341553 .19400025 .66015627 .1619873 .66015627 .12799073 .66015627 .10499573 .6321411 .10499573 .6031494 .10499573 .57115176 .12998963 .54515078 .1619873 .54515078 .19599915 .54515078 .21899414 .57315066 .21899414 .60214236Z"/>
<path id="font_2_77" d="M.58999636 0V.035995485C.5249939 .035995485 .5149994 .035995485 .5149994 .07904053V.3032837C.5149994 .3903656 .47200013 .44140626 .36499024 .44140626 .2829895 .44140626 .22999573 .39637757 .20199585 .34432984H.20098877V.44140626L.053985597 .43052674V.39453126C.12098694 .39453126 .1289978 .3875122 .1289978 .33843995V.079055789C.1289978 .035995485 .11898804 .035995485 .053985597 .035995485V0C.053985597 0 .12599182 .0039978029 .16799927 .0039978029 .20498657 .0039978029 .27398683 .0009918213 .2829895 0V.035995485C.21798706 .035995485 .20799256 .035995485 .20799256 .079055789V.25932313C.20799256 .36434938 .29100038 .4133911 .35699464 .4133911 .4269867 .4133911 .43598939 .3583374 .43598939 .3072815V.07904053C.43598939 .035995485 .42599488 .035995485 .36099244 .035995485V0C.36099244 0 .43299867 .0039978029 .47499085 .0039978029 .5119934 .0039978029 .58099368 .0009918213 .58999636 0Z"/>
<path id="font_3_82" d="M.4189911 0V.0309906H.3869934C.29699708 .0309906 .2939911 .041992189 .2939911 .07902527V.64012148C.2939911 .6640167 .2939911 .6660156 .2709961 .6660156 .20899964 .60227969 .12098694 .60227969 .08898926 .60227969V.57128909C.10899353 .57128909 .16799927 .57128909 .21998596 .5972748V.07902527C.21998596 .042999269 .21699524 .0309906 .1269989 .0309906H.09498596V0C.12998963 .0029907227 .21699524 .0029907227 .25698854 .0029907227 .29699708 .0029907227 .38398744 .0029907227 .4189911 0Z"/>
<path id="font_3_76" d="M.71598818 .6516113V.6826172L.598999 .6796112 .48199464 .6826172V.6516113C.58499148 .6516113 .58499148 .6046295 .58499148 .577652V.15092469L.23199463 .6696167C.22299195 .6816101 .22200012 .6826172 .20298767 .6826172H.032989503V.6516113H.06199646C.07699585 .6516113 .09700012 .65060427 .11199951 .6496124 .1349945 .64660647 .13598633 .6456146 .13598633 .62661746V.10494995C.13598633 .07795715 .13598633 .0309906 .032989503 .0309906V0L.1499939 .0029907227 .2669983 0V.0309906C.1639862 .0309906 .1639862 .07795715 .1639862 .10494995V.62461856C.16899109 .6196289 .16999817 .6186218 .17399597 .6126251L.58200076 .0129852299C.59098818 .0009918213 .59199526 0 .598999 0 .61299136 0 .61299136 .0069885256 .61299136 .025985718V.577652C.61299136 .6046295 .61299136 .6516113 .71598818 .6516113Z"/>
<path id="font_3_57" d="M.47099305 .16503906V.19602967H.37098695V.6507721C.37098695 .6707611 .37098695 .6767578 .35499574 .6767578 .34599305 .6767578 .34298707 .6767578 .33499146 .6647644L.027999878 .19602967V.16503906H.2939911V.07800293C.2939911 .041992189 .2919922 .0309906 .21798706 .0309906H.19699097V0C.23799134 .0029907227 .2899933 .0029907227 .33198548 .0029907227 .37399293 .0029907227 .4269867 .0029907227 .46798707 0V.0309906H.44699098C.37298585 .0309906 .37098695 .041992189 .37098695 .07800293V.16503906H.47099305M.2999878 .19602967H.055999757L.2999878 .56881716V.19602967Z"/>
<path id="font_3_121" d="M.45999146 .31976319C.45999146 .39982606 .45498658 .47988893 .41999818 .5539398 .37399293 .65000918 .2919922 .6660156 .25 .6660156 .18998719 .6660156 .116989139 .64001467 .07598877 .54693606 .04399109 .47789 .038986207 .39982606 .038986207 .31976319 .038986207 .24472046 .042999269 .15464783 .083999637 .07859802 .1269989-.0024719239 .19999695-.022460938 .24899292-.022460938 .30299378-.022460938 .3789978-.0014648438 .4229889 .09359741 .45498658 .16265869 .45999146 .2407074 .45999146 .31976319M.3769989 .3317871C.3769989 .25672914 .3769989 .18867493 .3659973 .12461853 .35099793 .029556275 .2939911-.00047302247 .24899292-.00047302247 .20999146-.00047302247 .15098572 .024551392 .1329956 .12062073 .12199402 .18066406 .12199402 .2727356 .12199402 .3317871 .12199402 .39582826 .12199402 .46188355 .12998963 .5159149 .14898682 .63500979 .22399903 .64401248 .24899292 .64401248 .28199769 .64401248 .34799195 .6259918 .36698915 .52693179 .3769989 .47088624 .3769989 .39482118 .3769989 .3317871Z"/>
<path id="font_1_1" d="M.37399293 .6056366C.3829956 .6416168 .38598634 .6516113 .46499635 .6516113 .4889984 .6516113 .49699403 .6516113 .49699403 .6706085 .49699403 .6826172 .48599244 .6826172 .48199464 .6826172 .45298768 .6826172 .3789978 .6796112 .34999085 .6796112 .31999208 .6796112 .24699402 .6826172 .21699524 .6826172 .20999146 .6826172 .19699097 .6826172 .19699097 .6626129 .19699097 .6516113 .20599365 .6516113 .22499085 .6516113 .2669983 .6516113 .2939911 .6516113 .2939911 .63261416 .2939911 .6276245 .2939911 .6256256 .2919922 .6166229L.15699768 .07795715C.147995 .040985109 .14498902 .0309906 .06599426 .0309906 .042999269 .0309906 .033996583 .0309906 .033996583 .010986328 .033996583 0 .04598999 0 .04899597 0 .07798767 0 .15098572 .0029907227 .17999268 .0029907227 .20999146 .0029907227 .28399659 0 .31399537 0 .32199098 0 .33399964 0 .33399964 .018997193 .33399964 .0309906 .32598878 .0309906 .3039856 .0309906 .28599549 .0309906 .2809906 .0309906 .26098634 .032989503 .23999024 .034988405 .23599243 .038986207 .23599243 .049987794 .23599243 .05796814 .23799134 .065963748 .23999024 .07296753L.37399293 .6056366Z"/>
<path id="font_4_1" d="M.18899536 .07797241C.18099976 .04399109 .1789856 .035995485 .100997928 .035995485 .08299255 .035995485 .070999149 .035995485 .070999149 .01399231 .070999149 0 .08299255 0 .100997928 0H.45799256C.6799927 0 .8929901 .20388794 .8929901 .42175294 .8929901 .5676575 .7919922 .6826172 .6289978 .6826172H.2649994C.24499512 .6826172 .23298645 .6826172 .23298645 .660614 .23298645 .64660647 .24398804 .64660647 .2659912 .64660647 .28199769 .64660647 .28599549 .64660647 .3039856 .64460757 .32398988 .64260867 .32598878 .64060977 .32598878 .63061526 .32598878 .62861636 .32598878 .6236267 .32199098 .6086426L.18899536 .07797241M.41299439 .6126251C.42099 .6436157 .42199708 .64660647 .46398927 .64660647H.59199526C.70399478 .64660647 .7979889 .59065249 .7979889 .45472718 .7979889 .43174745 .7879944 .2588501 .6879883 .14492798 .6489868 .09994507 .5629883 .035995485 .43998719 .035995485H.3039856C.272995 .035995485 .27198792 .036987306 .27198792 .04598999 .27198792 .04698181 .27198792 .051986696 .27598573 .066970828L.41299439 .6126251Z"/>
<path id="font_5_3" d="M.2939911 .64004519C.2939911 .66400149 .2939911 .6660156 .2709961 .6660156 .20899964 .60227969 .12098694 .60227969 .08898926 .60227969V.57128909C.10899353 .57128909 .16799927 .57128909 .21998596 .5972748V.07902527C.21998596 .042999269 .21699524 .0309906 .1269989 .0309906H.09498596V0C.12998963 .0029907227 .21699524 .0029907227 .25698854 .0029907227 .29699708 .0029907227 .38398744 .0029907227 .4189911 0V.0309906H.3869934C.29699708 .0309906 .2939911 .041992189 .2939911 .07902527V.64004519Z"/>
<path id="font_5_2" d="M.45999146 .31976319C.45999146 .39982606 .45498658 .47988893 .41999818 .5539398 .37399293 .65000918 .2919922 .6660156 .25 .6660156 .18998719 .6660156 .116989139 .64001467 .07598877 .54693606 .04399109 .47789 .038986207 .39982606 .038986207 .31976319 .038986207 .24472046 .042999269 .15464783 .083999637 .07859802 .1269989-.0024719239 .19999695-.022460938 .24899292-.022460938 .30299378-.022460938 .3789978-.0014648438 .4229889 .09359741 .45498658 .16265869 .45999146 .2407074 .45999146 .31976319M.24899292-.00047302247C.20999146-.00047302247 .15098572 .024551392 .1329956 .12062073 .12199402 .18066406 .12199402 .2727356 .12199402 .3317871 .12199402 .39582826 .12199402 .46188355 .12998963 .5159149 .14898682 .63500979 .22399903 .64401248 .24899292 .64401248 .28199769 .64401248 .34799195 .6259918 .36698915 .52693179 .3769989 .47088624 .3769989 .39482118 .3769989 .3317871 .3769989 .25672914 .3769989 .18867493 .3659973 .12461853 .35099793 .029556275 .2939911-.00047302247 .24899292-.00047302247Z"/>
<path id="font_5_4" d="M.10598755 .07595825C.10598755 .0309906 .09498596 .0309906 .027999878 .0309906V0C.06098938 .0009918213 .10798645 .0029907227 .13699341 .0029907227 .16699219 .0029907227 .20698548 .0019989014 .24699402 0V.0309906C.17999268 .0309906 .16899109 .0309906 .16899109 .07595825V.17886353L.23298645 .23381043C.30999757 .12789917 .35198976 .07196045 .35198976 .053970338 .35198976 .034988405 .33499146 .0309906 .31599427 .0309906V0C.34399415 .0009918213 .40299989 .0029907227 .42399598 .0029907227 .45298768 .0029907227 .48199464 .0019989014 .5109863 0V.0309906C.47399903 .0309906 .45199586 .0309906 .4139862 .0839386L.2869873 .26278688C.28599549 .26478578 .2809906 .2707672 .2809906 .2737732 .2809906 .277771 .35198976 .33770753 .3619995 .34570313 .4249878 .39666749 .46699525 .39865113 .48799134 .3996582V.43066407C.45899964 .42765809 .44599916 .42765809 .41799928 .42765809 .38198854 .42765809 .31999208 .42965699 .30599977 .43066407V.3996582C.32499696 .39865113 .33499146 .3876648 .33499146 .37467958 .33499146 .3547058 .32099916 .3427124 .31298829 .33570863L.17199707 .21382141V.69433596L.027999878 .68333438V.6523285C.09799194 .6523285 .10598755 .64530947 .10598755 .5961609V.07595825Z"/>
<path id="font_5_1" d="M.6769867 .16200257H.6519928C.6469879 .13600159 .6429901 .11299133 .6339874 .08898926 .6289978 .07299805 .6259918 .06498718 .56799319 .06498718H.48799134C.5009918 .1210022 .5319977 .16900635 .57699587 .23501587 .6239929 .306015 .6649933 .37503053 .6649933 .45404054 .6649933 .59306338 .5299988 .7050781 .36099244 .7050781 .18899536 .7050781 .055999757 .5910492 .055999757 .45404054 .055999757 .37503053 .09700012 .306015 .14399719 .23501587 .18798828 .16900635 .21998596 .1210022 .23298645 .06498718H.15299988C.09498596 .06498718 .09199524 .07299805 .08699036 .08799744 .07899475 .11099243 .07398987 .13700867 .068984989 .16200257H.04399109L.07699585 0H.23699951C.25898744 0 .2619934 0 .2619934 .020996094 .2619934 .09098816 .23098755 .17900086 .20799256 .24301148 .18699646 .3010254 .15899658 .3800354 .15899658 .45503236 .15899658 .6150665 .2689972 .68307498 .3600006 .68307498 .45599366 .68307498 .56199648 .61105349 .56199648 .45503236 .56199648 .3800354 .5349884 .3040161 .5059967 .22201538 .4909973 .18000794 .45899964 .08999634 .45899964 .020996094 .45899964 0 .46199037 0 .4850006 0H.6439972L.6769867 .16200257Z"/>
<path id="font_2_81" d="M.5289917 .21325684C.5289917 .3382721 .42199708 .44628907 .28399659 .44628907 .1459961 .44628907 .038986207 .3382721 .038986207 .21325684 .038986207 .0892334 .14898682-.009765625 .28399659-.009765625 .4189911-.009765625 .5289917 .0892334 .5289917 .21325684M.43798829 .22225952C.43798829 .17424011 .43499757 .12124634 .4059906 .08023071 .3789978 .042236329 .33299256 .022232056 .28399659 .022232056 .24699402 .022232056 .19299317 .034225465 .1599884 .083236698 .1329956 .12423706 .12998963 .17625427 .12998963 .22225952 .12998963 .2652588 .1309967 .32426454 .1659851 .36727906 .19099427 .39627076 .23298645 .41827394 .28399659 .41827394 .34298707 .41827394 .3849945 .39027406 .40699769 .3592682 .43499757 .32026673 .43798829 .27026368 .43798829 .22225952Z"/>
<path id="font_2_109" d="M.58999636 0V.035995485C.522995 .035995485 .5149994 .042999269 .5149994 .092056278V.44140626L.36099244 .43052674V.39453126C.42799378 .39439393 .43598939 .3874359 .43598939 .33872987V.16749573C.43598939 .079330448 .3789978 .018234253 .30299378 .018234253 .21199036 .018234253 .20799256 .061309816 .20799256 .11239624V.44140626L.053985597 .43052674V.39453126C.1289978 .39453126 .1289978 .39154054 .1289978 .30273438V.15246582C.1289978 .083343509 .1289978-.009765625 .29599-.009765625 .31799317-.009765625 .3909912-.009765625 .43899537 .07432556H.43998719V-.009765625L.58999636 0Z"/>
<path id="font_2_105" d="M.375 .12606812V.1809845H.34098817V.12705994C.34098817 .059173585 .30899049 .022232056 .269989 .022232056 .20098877 .022232056 .20098877 .10609436 .20098877 .124069217V.39465333H.35699464V.43066407H.20098877V.6142578H.16699219C.1659851 .5244446 .125 .42565919 .0289917 .4226532V.39465333H.12199402V.1250763C.12199402 .01322937 .20599365-.009765625 .2619934-.009765625 .32899476-.010009766 .375 .04699707 .375 .12599182V.12606812Z"/>
</defs>
<path transform="matrix(1.00003,0,0,-1.00002,28.177376,135.10047)" stroke-width=".3985" stroke-linecap="butt" stroke-miterlimit="10" stroke-linejoin="miter" fill="none" stroke="#000000" d="M0 0"/>
<path transform="matrix(1.00003,0,0,-1.00002,28.177376,135.10047)" stroke-width=".3985" stroke-linecap="butt" stroke-miterlimit="10" stroke-linejoin="miter" fill="none" stroke="#000000" d="M0 0V44.78789M0 68.59933V113.38724H48.75665M64.63057 113.38724H113.38724V72.56781M113.38724 40.81941V0H56.69362M56.69362 0H0"/>
<path transform="matrix(1.00003,0,0,-1.00002,28.177376,135.10047)" stroke-width=".797" stroke-linecap="butt" stroke-miterlimit="10" stroke-linejoin="miter" fill="none" stroke="#000000" d="M-11.90572 56.69362C-11.90572 50.1182-6.57541 44.78789 0 44.78789 6.57541 44.78789 11.90572 50.1182 11.90572 56.69362 11.90572 63.26903 6.57541 68.59933 0 68.59933-6.57541 68.59933-11.90572 63.26903-11.90572 56.69362ZM0 56.69362"/>
<path transform="matrix(1.00003,0,0,-1.00002,28.177376,135.10047)" stroke-width=".797" stroke-linecap="butt" stroke-miterlimit="10" stroke-linejoin="miter" fill="none" stroke="#000000" d="M5.95285 56.69362C4.98253 55.16971 4.0539 53.7172 2.97643 53.7172 1.89896 53.7172 .97032 55.1697 0 56.69362-.9703 58.21751-1.89894 59.67004-2.97643 59.67004-4.05388 59.67004-4.98251 58.21753-5.95285 56.69362"/>
<use data-text="V" xlink:href="#font_1_2" transform="matrix(9.962899,0,0,-9.962799,.5075455,80.55237)"/>
<use data-text="i" xlink:href="#font_2_66" transform="matrix(6.9740097,0,0,-6.97394,6.318718,82.0464)"/>
<use data-text="n" xlink:href="#font_2_77" transform="matrix(6.9740097,0,0,-6.97394,8.57132,82.0464)"/>
<path transform="matrix(1.00003,0,0,-1.00002,28.177376,135.10047)" stroke-width=".797" stroke-linecap="butt" stroke-miterlimit="10" stroke-linejoin="miter" fill="none" stroke="#000000" d="M64.63057 113.38724 48.75665 123.30858V103.46588Z"/>
<path transform="matrix(1.00003,0,0,-1.00002,28.177376,135.10047)" stroke-width=".797" stroke-linecap="butt" stroke-miterlimit="10" stroke-linejoin="miter" fill="none" stroke="#000000" d="M64.63057 103.46588V123.30858"/>
<path transform="matrix(1.00003,0,0,-1.00002,28.177376,135.10047)" d="M114.97438 113.38724C114.97438 114.2638 114.2638 114.97438 113.38724 114.97438 112.51067 114.97438 111.80008 114.2638 111.80008 113.38724 111.80008 112.51067 112.51067 111.80008 113.38724 111.80008 114.2638 111.80008 114.97438 112.51067 114.97438 113.38724ZM113.38724 113.38724"/>
<path transform="matrix(1.00003,0,0,-1.00002,28.177376,135.10047)" stroke-width=".3985" stroke-linecap="butt" stroke-miterlimit="10" stroke-linejoin="miter" fill="none" stroke="#000000" d="M114.97438 113.38724C114.97438 114.2638 114.2638 114.97438 113.38724 114.97438 112.51067 114.97438 111.80008 114.2638 111.80008 113.38724 111.80008 112.51067 112.51067 111.80008 113.38724 111.80008 114.2638 111.80008 114.97438 112.51067 114.97438 113.38724ZM113.38724 113.38724"/>
<use data-text="1" xlink:href="#font_3_82" transform="matrix(9.962899,0,0,-9.962799,68.682598,7.5769045)"/>
<use data-text="N" xlink:href="#font_3_76" transform="matrix(9.962899,0,0,-9.962799,73.66404,7.5769045)"/>
<use data-text="4" xlink:href="#font_3_57" transform="matrix(9.962899,0,0,-9.962799,81.13622,7.5769045)"/>
<use data-text="0" xlink:href="#font_3_121" transform="matrix(9.962899,0,0,-9.962799,86.11766,7.5769045)"/>
<use data-text="0" xlink:href="#font_3_121" transform="matrix(9.962899,0,0,-9.962799,91.099109,7.5769045)"/>
<use data-text="1" xlink:href="#font_3_82" transform="matrix(9.962899,0,0,-9.962799,96.08055,7.5769045)"/>
<path transform="matrix(1.00003,0,0,-1.00002,28.177376,135.10047)" d="M87.27267 113.38724V111.40298L91.48923 113.38724 87.27267 115.37149Z"/>
<path transform="matrix(1.00003,0,0,-1.00002,28.177376,135.10047)" stroke-width=".3985" stroke-linecap="butt" stroke-miterlimit="10" stroke-linejoin="miter" fill="none" stroke="#000000" d="M87.27267 113.38724V111.40298L91.48923 113.38724 87.27267 115.37149Z"/>
<use data-text="I" xlink:href="#font_1_1" transform="matrix(9.962899,0,0,-9.962799,111.38588,16.69709)"/>
<use data-text="D" xlink:href="#font_4_1" transform="matrix(6.9740097,0,0,-6.97394,115.76501,18.191124)"/>
<path transform="matrix(1.00003,0,0,-1.00002,28.177376,135.10047)" stroke-width=".797" stroke-linecap="butt" stroke-linejoin="bevel" fill="none" stroke="#000000" d="M113.38724 72.96631 119.34009 69.92212 107.43439 64.63074 119.34009 59.33936 107.43439 54.04797 119.34009 48.75658 107.43439 43.4652 113.38724 40.421"/>
<path transform="matrix(1.00003,0,0,-1.00002,28.177376,135.10047)" d="M114.97438 0C114.97438 .87656 114.2638 1.58714 113.38724 1.58714 112.51067 1.58714 111.80008 .87656 111.80008 0 111.80008-.87656 112.51067-1.58714 113.38724-1.58714 114.2638-1.58714 114.97438-.87656 114.97438 0ZM113.38724 0"/>
<path transform="matrix(1.00003,0,0,-1.00002,28.177376,135.10047)" stroke-width=".3985" stroke-linecap="butt" stroke-miterlimit="10" stroke-linejoin="miter" fill="none" stroke="#000000" d="M114.97438 0C114.97438 .87656 114.2638 1.58714 113.38724 1.58714 112.51067 1.58714 111.80008 .87656 111.80008 0 111.80008-.87656 112.51067-1.58714 113.38724-1.58714 114.2638-1.58714 114.97438-.87656 114.97438 0ZM113.38724 0"/>
<use data-text="1" xlink:href="#font_5_3" transform="matrix(9.962899,0,0,-9.962799,149.72702,80.55237)"/>
<use data-text="0" xlink:href="#font_5_2" transform="matrix(9.962899,0,0,-9.962799,154.70847,80.55237)"/>
<use data-text="k" xlink:href="#font_5_4" transform="matrix(9.962899,0,0,-9.962799,161.34377,80.55237)"/>
<use data-text="&#x2126;" xlink:href="#font_5_1" transform="matrix(9.962899,0,0,-9.962799,166.59423,80.55237)"/>
<path transform="matrix(1.00003,0,0,-1.00002,28.177376,135.10047)" stroke-width=".3985" stroke-linecap="butt" stroke-miterlimit="10" stroke-linejoin="miter" fill="none" stroke="#000000" d="M113.38724 113.38724H155.90744M155.90744 113.38724H198.42766"/>
<path transform="matrix(1.00003,0,0,-1.00002,28.177376,135.10047)" d="M200.01482 113.38724C200.01482 114.2638 199.30423 114.97438 198.42766 114.97438 197.5511 114.97438 196.84052 114.2638 196.84052 113.38724 196.84052 112.51067 197.5511 111.80008 198.42766 111.80008 199.30423 111.80008 200.01482 112.51067 200.01482 113.38724ZM198.42766 113.38724" fill="#ffffff"/>
<path transform="matrix(1.00003,0,0,-1.00002,28.177376,135.10047)" stroke-width=".3985" stroke-linecap="butt" stroke-miterlimit="10" stroke-linejoin="miter" fill="none" stroke="#000000" d="M200.01482 113.38724C200.01482 114.2638 199.30423 114.97438 198.42766 114.97438 197.5511 114.97438 196.84052 114.2638 196.84052 113.38724 196.84052 112.51067 197.5511 111.80008 198.42766 111.80008 199.30423 111.80008 200.01482 112.51067 200.01482 113.38724ZM198.42766 113.38724"/>
<path transform="matrix(1.00003,0,0,-1.00002,28.177376,135.10047)" d="" fill="#ffffff"/>
<path transform="matrix(1.00003,0,0,-1.00002,28.177376,135.10047)" stroke-width=".3985" stroke-linecap="butt" stroke-miterlimit="10" stroke-linejoin="miter" fill="none" stroke="#000000" d=""/>
<path transform="matrix(1.00003,0,0,-1.00002,28.177376,135.10047)" stroke-width=".3985" stroke-linecap="butt" stroke-miterlimit="10" stroke-linejoin="miter" fill="none" stroke="#000000" d="M113.38724 0H155.90744M155.90744 0H198.42766"/>
<path transform="matrix(1.00003,0,0,-1.00002,28.177376,135.10047)" d="M200.01482 0C200.01482 .87656 199.30423 1.58714 198.42766 1.58714 197.5511 1.58714 196.84052 .87656 196.84052 0 196.84052-.87656 197.5511-1.58714 198.42766-1.58714 199.30423-1.58714 200.01482-.87656 200.01482 0ZM198.42766 0" fill="#ffffff"/>
<path transform="matrix(1.00003,0,0,-1.00002,28.177376,135.10047)" stroke-width=".3985" stroke-linecap="butt" stroke-miterlimit="10" stroke-linejoin="miter" fill="none" stroke="#000000" d="M200.01482 0C200.01482 .87656 199.30423 1.58714 198.42766 1.58714 197.5511 1.58714 196.84052 .87656 196.84052 0 196.84052-.87656 197.5511-1.58714 198.42766-1.58714 199.30423-1.58714 200.01482-.87656 200.01482 0ZM198.42766 0"/>
<path transform="matrix(1.00003,0,0,-1.00002,28.177376,135.10047)" d="" fill="#ffffff"/>
<path transform="matrix(1.00003,0,0,-1.00002,28.177376,135.10047)" stroke-width=".3985" stroke-linecap="butt" stroke-miterlimit="10" stroke-linejoin="miter" fill="none" stroke="#000000" d=""/>
<path transform="matrix(1.00003,0,0,-1.00002,28.177376,135.10047)" stroke-width=".3985" stroke-linecap="butt" stroke-miterlimit="10" stroke-linejoin="miter" fill="none" stroke="#000000" d="M198.42766 56.6936"/>
<use data-text="V" xlink:href="#font_1_2" transform="matrix(9.962899,0,0,-9.962799,217.71607,81.02738)"/>
<use data-text="o" xlink:href="#font_2_81" transform="matrix(6.9740097,0,0,-6.97394,223.52725,82.521419)"/>
<use data-text="u" xlink:href="#font_2_109" transform="matrix(6.9740097,0,0,-6.97394,227.49546,82.521419)"/>
<use data-text="t" xlink:href="#font_2_105" transform="matrix(6.9740097,0,0,-6.97394,231.89606,82.521419)"/>
<path transform="matrix(1.00003,0,0,-1.00002,28.177376,135.10047)" stroke-width=".3985" stroke-linecap="butt" stroke-miterlimit="10" stroke-linejoin="miter" fill="none" stroke="#000000" d="M0 0"/>
<path transform="matrix(1.00003,0,0,-1.00002,28.177376,135.10047)" stroke-width=".3985" stroke-linecap="butt" stroke-miterlimit="10" stroke-linejoin="miter" fill="none" stroke="#000000" d="M0 0V-11.90558"/>
<path transform="matrix(1.00003,0,0,-1.00002,28.177376,135.10047)" stroke-width=".797" stroke-linecap="butt" stroke-miterlimit="10" stroke-linejoin="miter" fill="none" stroke="#000000" d="M-5.95285-11.90558H5.95285M-3.96848-13.88982H3.96848M-2.48032-15.87419H2.48032"/>
</svg>
