<svg xmlns="http://www.w3.org/2000/svg" xmlns:xlink="http://www.w3.org/1999/xlink" xmlns:inkscape="http://www.inkscape.org/namespaces/inkscape" version="1.1" width="216" height="112" viewBox="0 0 216 112">
<defs>
<path id="font_1_1" d="M.1269989 .07699585 .23298645 .18003845C.3889923 .31811524 .44898988 .3721466 .44898988 .47216798 .44898988 .5860901 .35899354 .6660156 .23699951 .6660156 .12399292 .6660156 .049987794 .57411196 .049987794 .48516847 .049987794 .4291687 .099990848 .4291687 .102996829 .4291687 .11999512 .4291687 .15499878 .44117738 .15499878 .48217774 .15499878 .5081787 .13699341 .5341797 .101989749 .5341797 .09399414 .5341797 .09199524 .5341797 .08898926 .5331726 .11199951 .59806826 .1659851 .63500979 .22399903 .63500979 .31498719 .63500979 .35798646 .5541382 .35798646 .47216798 .35798646 .39215089 .30799867 .31311036 .25299073 .25108338L.06098938 .036987306C.049987794 .025985718 .049987794 .023986817 .049987794 0H.42099L.44898988 .17404175H.42399598C.4189911 .14402771 .4119873 .1000061 .4019928 .084991458 .394989 .07699585 .32899476 .07699585 .30699159 .07699585H.1269989Z"/>
<path id="font_2_111" d="M.7299957 .6516113V.6826172C.69898989 .680603 .6589966 .6796112 .6329956 .6796112L.5189972 .6826172V.6516113C.57099917 .6506195 .59199526 .6246033 .59199526 .6016083 .59199526 .5936127 .58898928 .5876007 .58699038 .581604L.4039917 .09954834 .21299744 .60461428C.20698548 .61860659 .20698548 .62260439 .20698548 .62260439 .20698548 .6516113 .2639923 .6516113 .2889862 .6516113V.6826172C.25299073 .6796112 .18399048 .6796112 .1459961 .6796112L.018997193 .6826172V.6516113C.083999637 .6516113 .102996829 .6516113 .116989139 .6136017L.34899903-.00047302247C.35598756-.019470215 .36099244-.022460938 .37399293-.022460938 .3909912-.022460938 .3929901-.017471314 .397995-.0034637452L.62098696 .58461C.6349945 .62161257 .6619873 .6506195 .7299957 .6516113Z"/>
<path id="font_3_1" d="M.375 .6136017C.3809967 .63760378 .38398744 .6476135 .40299989 .65060427 .4119873 .6516113 .44400025 .6516113 .46398927 .6516113 .5349884 .6516113 .6459961 .6516113 .6459961 .5525818 .6459961 .51856997 .6299896 .44955445 .59098818 .41055299 .5649872 .38453675 .5119934 .35253907 .42199708 .35253907H.30999757L.375 .6136017M.5189972 .33953858C.6199951 .3615265 .7389984 .43154908 .7389984 .5325775 .7389984 .61860659 .6489868 .6826172 .5179901 .6826172H.23298645C.21299744 .6826172 .20399475 .6826172 .20399475 .6626129 .20399475 .6516113 .21299744 .6516113 .23199463 .6516113 .23399353 .6516113 .25299073 .6516113 .269989 .6496124 .28799439 .6476135 .29699708 .64660647 .29699708 .63360598 .29699708 .62960818 .29599 .6266022 .29299928 .6145935L.15899658 .07752991C.14898682 .038528444 .14698792 .030532837 .067993167 .030532837 .049987794 .030532837 .040985109 .030532837 .040985109 .010528564 .040985109-.00047302247 .052993776-.00047302247 .054992677-.00047302247 .08299255-.00047302247 .15299988 .002532959 .18099976 .002532959 .20899964 .002532959 .27999879-.00047302247 .30799867-.00047302247 .31599427-.00047302247 .32798768-.00047302247 .32798768 .01953125 .32798768 .030532837 .31900025 .030532837 .2999878 .030532837 .2630005 .030532837 .23498535 .030532837 .23498535 .048538209 .23498535 .054534913 .23699951 .059524537 .23799134 .0655365L.3039856 .3305359H.4229889C.5139923 .3305359 .5319977 .27453614 .5319977 .23953247 .5319977 .22453308 .5239868 .19352722 .5179901 .17053223 .5109863 .14253235 .5019989 .105529788 .5019989 .08552551 .5019989-.022460938 .621994-.022460938 .6349945-.022460938 .7200012-.022460938 .7549896 .07853699 .7549896 .0925293 .7549896 .104537967 .74398806 .104537967 .7429962 .104537967 .73399356 .104537967 .7319946 .09753418 .7299957 .090530399 .7049866 .016525269 .6619873-.00047302247 .6389923-.00047302247 .60598757-.00047302247 .598999 .021530152 .598999 .060531618 .598999 .091537479 .6049957 .14253235 .60899356 .17453003 .61099246 .1885376 .61299136 .20753479 .61299136 .2215271 .61299136 .2985382 .54599 .3295288 .5189972 .33953858Z"/>
<path id="font_3_2" d="M.6279907 .5686035C.6769867 .64660647 .71899417 .6496124 .7559967 .6516113 .7679901 .65260317 .7689972 .6696167 .7689972 .6706085 .7689972 .6786041 .7639923 .6826172 .7559967 .6826172 .7299957 .6826172 .70098879 .6796112 .673996 .6796112 .6409912 .6796112 .6069946 .6826172 .57499697 .6826172 .56900027 .6826172 .55599978 .6826172 .55599978 .66360476 .55599978 .65260317 .5649872 .6516113 .57199099 .6516113 .598999 .6496124 .6179962 .63960269 .6179962 .61860659 .6179962 .6036072 .6029968 .581604 .6029968 .5805969L.29599 .092544559 .22799683 .62161257C.22799683 .63861086 .25099183 .6516113 .29699708 .6516113 .31098939 .6516113 .32199098 .6516113 .32199098 .6716156 .32199098 .680603 .31399537 .6826172 .30799867 .6826172 .2679901 .6826172 .22499085 .6796112 .18399048 .6796112 .1659851 .6796112 .14698792 .680603 .1289978 .680603 .11099243 .680603 .09199524 .6826172 .07499695 .6826172 .067993167 .6826172 .055999757 .6826172 .055999757 .66360476 .055999757 .6516113 .06498718 .6516113 .08099365 .6516113 .13699341 .6516113 .13798523 .64260867 .14099121 .6175995L.21998596 .0005340576C.22299195-.019470215 .22698975-.022460938 .23999024-.022460938 .2559967-.022460938 .2599945-.017471314 .2679901-.004470825L.6279907 .5686035Z"/>
<path id="font_4_66" d="M.27398683 0V.035995485C.21598816 .035995485 .20599365 .035995485 .20599365 .07803345V.44140626L.05899048 .43052674V.39453126C.12199402 .39453126 .1309967 .3885193 .1309967 .33952333V.07952881C.1309967 .035995485 .12098694 .035995485 .055999757 .035995485V0C.055999757 0 .12799073 .0039978029 .16799927 .0039978029 .20298767 .0039978029 .23899842 .0029907227 .27398683 0M.21899414 .60214236C.21899414 .6341553 .19400025 .66015627 .1619873 .66015627 .12799073 .66015627 .10499573 .6321411 .10499573 .6031494 .10499573 .57115176 .12998963 .54515078 .1619873 .54515078 .19599915 .54515078 .21899414 .57315066 .21899414 .60214236Z"/>
<path id="font_4_77" d="M.58999636 0V.035995485C.5249939 .035995485 .5149994 .035995485 .5149994 .07904053V.3032837C.5149994 .3903656 .47200013 .44140626 .36499024 .44140626 .2829895 .44140626 .22999573 .39637757 .20199585 .34432984H.20098877V.44140626L.053985597 .43052674V.39453126C.12098694 .39453126 .1289978 .3875122 .1289978 .33843995V.079055789C.1289978 .035995485 .11898804 .035995485 .053985597 .035995485V0C.053985597 0 .12599182 .0039978029 .16799927 .0039978029 .20498657 .0039978029 .27398683 .0009918213 .2829895 0V.035995485C.21798706 .035995485 .20799256 .035995485 .20799256 .079055789V.25932313C.20799256 .36434938 .29100038 .4133911 .35699464 .4133911 .4269867 .4133911 .43598939 .3583374 .43598939 .3072815V.07904053C.43598939 .035995485 .42599488 .035995485 .36099244 .035995485V0C.36099244 0 .43299867 .0039978029 .47499085 .0039978029 .5119934 .0039978029 .58099368 .0009918213 .58999636 0Z"/>
<path id="font_4_81" d="M.5289917 .21325684C.5289917 .3382721 .42199708 .44628907 .28399659 .44628907 .1459961 .44628907 .038986207 .3382721 .038986207 .21325684 .038986207 .0892334 .14898682-.009765625 .28399659-.009765625 .4189911-.009765625 .5289917 .0892334 .5289917 .21325684M.43798829 .22225952C.43798829 .17424011 .43499757 .12124634 .4059906 .08023071 .3789978 .042236329 .33299256 .022232056 .28399659 .022232056 .24699402 .022232056 .19299317 .034225465 .1599884 .083236698 .1329956 .12423706 .12998963 .17625427 .12998963 .22225952 .12998963 .2652588 .1309967 .32426454 .1659851 .36727906 .19099427 .39627076 .23298645 .41827394 .28399659 .41827394 .34298707 .41827394 .3849945 .39027406 .40699769 .3592682 .43499757 .32026673 .43798829 .27026368 .43798829 .22225952Z"/>
<path id="font_4_109" d="M.58999636 0V.035995485C.522995 .035995485 .5149994 .042999269 .5149994 .092056278V.44140626L.36099244 .43052674V.39453126C.42799378 .39439393 .43598939 .3874359 .43598939 .33872987V.16749573C.43598939 .079330448 .3789978 .018234253 .30299378 .018234253 .21199036 .018234253 .20799256 .061309816 .20799256 .11239624V.44140626L.053985597 .43052674V.39453126C.1289978 .39453126 .1289978 .39154054 .1289978 .30273438V.15246582C.1289978 .083343509 .1289978-.009765625 .29599-.009765625 .31799317-.009765625 .3909912-.009765625 .43899537 .07432556H.43998719V-.009765625L.58999636 0Z"/>
<path id="font_4_105" d="M.375 .12606812V.1809845H.34098817V.12705994C.34098817 .059173585 .30899049 .022232056 .269989 .022232056 .20098877 .022232056 .20098877 .10609436 .20098877 .124069217V.39465333H.35699464V.43066407H.20098877V.6142578H.16699219C.1659851 .5244446 .125 .42565919 .0289917 .4226532V.39465333H.12199402V.1250763C.12199402 .01322937 .20599365-.009765625 .2619934-.009765625 .32899476-.010009766 .375 .04699707 .375 .12599182V.12606812Z"/>
</defs>
<path transform="matrix(1.00002,0,0,-1.00005,7.6988527,108.93985)" stroke-width=".3985" stroke-linecap="butt" stroke-miterlimit="10" stroke-linejoin="miter" fill="none" stroke="#000000" d="M0 0"/>
<path transform="matrix(1.00002,0,0,-1.00005,7.6988527,108.93985)" stroke-width=".3985" stroke-linecap="butt" stroke-miterlimit="10" stroke-linejoin="miter" fill="none" stroke="#000000" d="M0 0H56.69362M56.69362 0H113.38724 155.90744M155.90744 0H198.42766"/>
<path transform="matrix(1.00002,0,0,-1.00005,7.6988527,108.93985)" d="M1.58714 0C1.58714 .87656 .87656 1.58714 0 1.58714-.87656 1.58714-1.58714 .87656-1.58714 0-1.58714-.87656-.87656-1.58714 0-1.58714 .87656-1.58714 1.58714-.87656 1.58714 0ZM0 0" fill="#ffffff"/>
<path transform="matrix(1.00002,0,0,-1.00005,7.6988527,108.93985)" stroke-width=".3985" stroke-linecap="butt" stroke-miterlimit="10" stroke-linejoin="miter" fill="none" stroke="#000000" d="M1.58714 0C1.58714 .87656 .87656 1.58714 0 1.58714-.87656 1.58714-1.58714 .87656-1.58714 0-1.58714-.87656-.87656-1.58714 0-1.58714 .87656-1.58714 1.58714-.87656 1.58714 0ZM0 0"/>
<path transform="matrix(1.00002,0,0,-1.00005,7.6988527,108.93985)" d="" fill="#ffffff"/>
<path transform="matrix(1.00002,0,0,-1.00005,7.6988527,108.93985)" stroke-width=".3985" stroke-linecap="butt" stroke-miterlimit="10" stroke-linejoin="miter" fill="none" stroke="#000000" d=""/>
<path transform="matrix(1.00002,0,0,-1.00005,7.6988527,108.93985)" d="M114.97438 0C114.97438 .87656 114.2638 1.58714 113.38724 1.58714 112.51067 1.58714 111.80008 .87656 111.80008 0 111.80008-.87656 112.51067-1.58714 113.38724-1.58714 114.2638-1.58714 114.97438-.87656 114.97438 0ZM113.38724 0"/>
<path transform="matrix(1.00002,0,0,-1.00005,7.6988527,108.93985)" stroke-width=".3985" stroke-linecap="butt" stroke-miterlimit="10" stroke-linejoin="miter" fill="none" stroke="#000000" d="M114.97438 0C114.97438 .87656 114.2638 1.58714 113.38724 1.58714 112.51067 1.58714 111.80008 .87656 111.80008 0 111.80008-.87656 112.51067-1.58714 113.38724-1.58714 114.2638-1.58714 114.97438-.87656 114.97438 0ZM113.38724 0"/>
<path transform="matrix(1.00002,0,0,-1.00005,7.6988527,108.93985)" d="M200.01482 0C200.01482 .87656 199.30423 1.58714 198.42766 1.58714 197.5511 1.58714 196.84052 .87656 196.84052 0 196.84052-.87656 197.5511-1.58714 198.42766-1.58714 199.30423-1.58714 200.01482-.87656 200.01482 0ZM198.42766 0" fill="#ffffff"/>
<path transform="matrix(1.00002,0,0,-1.00005,7.6988527,108.93985)" stroke-width=".3985" stroke-linecap="butt" stroke-miterlimit="10" stroke-linejoin="miter" fill="none" stroke="#000000" d="M200.01482 0C200.01482 .87656 199.30423 1.58714 198.42766 1.58714 197.5511 1.58714 196.84052 .87656 196.84052 0 196.84052-.87656 197.5511-1.58714 198.42766-1.58714 199.30423-1.58714 200.01482-.87656 200.01482 0ZM198.42766 0"/>
<path transform="matrix(1.00002,0,0,-1.00005,7.6988527,108.93985)" d="" fill="#ffffff"/>
<path transform="matrix(1.00002,0,0,-1.00005,7.6988527,108.93985)" stroke-width=".3985" stroke-linecap="butt" stroke-miterlimit="10" stroke-linejoin="miter" fill="none" stroke="#000000" d=""/>
<path transform="matrix(1.00002,0,0,-1.00005,7.6988527,108.93985)" stroke-width=".3985" stroke-linecap="butt" stroke-miterlimit="10" stroke-linejoin="miter" fill="none" stroke="#000000" d="M0 85.04045 22.39395 85.04044M34.29965 85.04044 56.69362 85.04045 69.16623 85.04044M100.91461 85.04044 113.38724 85.04045 155.90744 85.04044M155.90744 85.04044 198.42766 85.04045"/>
<path transform="matrix(1.00002,0,0,-1.00005,7.6988527,108.93985)" stroke-width=".797" stroke-linecap="butt" stroke-miterlimit="10" stroke-linejoin="miter" fill="none" stroke="#000000" d="M22.39395 96.94615V73.13472M26.36252 90.99329V79.08759M30.33109 96.94615V73.13472M34.29965 90.99329V79.08759"/>
<path transform="matrix(1.00002,0,0,-1.00005,7.6988527,108.93985)" d="M1.58714 85.04045C1.58714 85.917 .87656 86.6276 0 86.6276-.87656 86.6276-1.58714 85.917-1.58714 85.04045-1.58714 84.1639-.87656 83.45331 0 83.45331 .87656 83.45331 1.58714 84.1639 1.58714 85.04045ZM0 85.04045" fill="#ffffff"/>
<path transform="matrix(1.00002,0,0,-1.00005,7.6988527,108.93985)" stroke-width=".3985" stroke-linecap="butt" stroke-miterlimit="10" stroke-linejoin="miter" fill="none" stroke="#000000" d="M1.58714 85.04045C1.58714 85.917 .87656 86.6276 0 86.6276-.87656 86.6276-1.58714 85.917-1.58714 85.04045-1.58714 84.1639-.87656 83.45331 0 83.45331 .87656 83.45331 1.58714 84.1639 1.58714 85.04045ZM0 85.04045"/>
<path transform="matrix(1.00002,0,0,-1.00005,7.6988527,108.93985)" d="" fill="#ffffff"/>
<path transform="matrix(1.00002,0,0,-1.00005,7.6988527,108.93985)" stroke-width=".3985" stroke-linecap="butt" stroke-miterlimit="10" stroke-linejoin="miter" fill="none" stroke="#000000" d=""/>
<use data-text="2" xlink:href="#font_1_1" transform="matrix(9.962799,0,0,-9.963098,28.98928,7.5777819)"/>
<use data-text="V" xlink:href="#font_2_111" transform="matrix(9.962799,0,0,-9.963098,35.630418,7.5777819)"/>
<path transform="matrix(1.00002,0,0,-1.00005,7.6988527,108.93985)" stroke-width=".797" stroke-linecap="butt" stroke-linejoin="bevel" fill="none" stroke="#000000" d="M68.76772 85.04044 71.84514 90.99329 77.20296 79.08759 82.56076 90.99329 87.91858 79.08759 93.2764 90.99329 98.63422 79.08759 101.31313 85.04044"/>
<path transform="matrix(1.00002,0,0,-1.00005,7.6988527,108.93985)" d="M114.97438 85.04045C114.97438 85.917 114.2638 86.6276 113.38724 86.6276 112.51067 86.6276 111.80008 85.917 111.80008 85.04045 111.80008 84.1639 112.51067 83.45331 113.38724 83.45331 114.2638 83.45331 114.97438 84.1639 114.97438 85.04045ZM113.38724 85.04045"/>
<path transform="matrix(1.00002,0,0,-1.00005,7.6988527,108.93985)" stroke-width=".3985" stroke-linecap="butt" stroke-miterlimit="10" stroke-linejoin="miter" fill="none" stroke="#000000" d="M114.97438 85.04045C114.97438 85.917 114.2638 86.6276 113.38724 86.6276 112.51067 86.6276 111.80008 85.917 111.80008 85.04045 111.80008 84.1639 112.51067 83.45331 113.38724 83.45331 114.2638 83.45331 114.97438 84.1639 114.97438 85.04045ZM113.38724 85.04045"/>
<use data-text="R" xlink:href="#font_3_1" transform="matrix(9.962799,0,0,-9.963098,88.92048,14.126114)"/>
<path transform="matrix(1.00002,0,0,-1.00005,7.6988527,108.93985)" d="M200.01482 85.04045C200.01482 85.917 199.30423 86.6276 198.42766 86.6276 197.5511 86.6276 196.84052 85.917 196.84052 85.04045 196.84052 84.1639 197.5511 83.45331 198.42766 83.45331 199.30423 83.45331 200.01482 84.1639 200.01482 85.04045ZM198.42766 85.04045" fill="#ffffff"/>
<path transform="matrix(1.00002,0,0,-1.00005,7.6988527,108.93985)" stroke-width=".3985" stroke-linecap="butt" stroke-miterlimit="10" stroke-linejoin="miter" fill="none" stroke="#000000" d="M200.01482 85.04045C200.01482 85.917 199.30423 86.6276 198.42766 86.6276 197.5511 86.6276 196.84052 85.917 196.84052 85.04045 196.84052 84.1639 197.5511 83.45331 198.42766 83.45331 199.30423 83.45331 200.01482 84.1639 200.01482 85.04045ZM198.42766 85.04045"/>
<path transform="matrix(1.00002,0,0,-1.00005,7.6988527,108.93985)" d="" fill="#ffffff"/>
<path transform="matrix(1.00002,0,0,-1.00005,7.6988527,108.93985)" stroke-width=".3985" stroke-linecap="butt" stroke-miterlimit="10" stroke-linejoin="miter" fill="none" stroke="#000000" d=""/>
<path transform="matrix(1.00002,0,0,-1.00005,7.6988527,108.93985)" stroke-width=".3985" stroke-linecap="butt" stroke-miterlimit="10" stroke-linejoin="miter" fill="none" stroke="#000000" d="M113.38724 0V34.58327M113.38724 50.45717V85.04045"/>
<path transform="matrix(1.00002,0,0,-1.00005,7.6988527,108.93985)" stroke-width=".797" stroke-linecap="butt" stroke-miterlimit="10" stroke-linejoin="miter" fill="none" stroke="#000000" d="M113.38724 34.58327 103.46588 50.45717H123.30858Z"/>
<path transform="matrix(1.00002,0,0,-1.00005,7.6988527,108.93985)" stroke-width=".797" stroke-linecap="butt" stroke-miterlimit="10" stroke-linejoin="miter" fill="none" stroke="#000000" d="M123.30858 34.58327H103.46588"/>
<use data-text="V" xlink:href="#font_3_2" transform="matrix(9.962799,0,0,-9.963098,1.21772,69.07486)"/>
<use data-text="i" xlink:href="#font_4_66" transform="matrix(6.97394,0,0,-6.9741489,7.028839,70.56893)"/>
<use data-text="n" xlink:href="#font_4_77" transform="matrix(6.97394,0,0,-6.9741489,9.281425,70.56893)"/>
<use data-text="V" xlink:href="#font_3_2" transform="matrix(9.962799,0,0,-9.963098,197.23566,69.039859)"/>
<use data-text="o" xlink:href="#font_4_81" transform="matrix(6.97394,0,0,-6.9741489,203.04679,70.533939)"/>
<use data-text="u" xlink:href="#font_4_109" transform="matrix(6.97394,0,0,-6.9741489,207.01496,70.533939)"/>
<use data-text="t" xlink:href="#font_4_105" transform="matrix(6.97394,0,0,-6.9741489,211.4155,70.533939)"/>
</svg>
