<svg xmlns="http://www.w3.org/2000/svg" xmlns:xlink="http://www.w3.org/1999/xlink" xmlns:inkscape="http://www.inkscape.org/namespaces/inkscape" version="1.1" width="432" height="263" viewBox="0 0 432 263">
<defs>
<path id="font_1_50" d="M.4149933 .11933899C.4149933 .12934876 .40699769 .13134766 .4019928 .13134766 .3929901 .13134766 .3909912 .12535095 .3889923 .11734009 .35398866 .014251709 .2639923 .014251709 .2539978 .014251709 .20399475 .014251709 .1639862 .044281007 .14099121 .08131409 .11099243 .12934876 .11099243 .19540406 .11099243 .23144531H.3899994C.4119873 .23144531 .4149933 .23144531 .4149933 .2524414 .4149933 .35131837 .36099244 .4482422 .23599243 .4482422 .11999512 .4482422 .027999878 .34532167 .027999878 .22042847 .027999878 .08631897 .1329956-.0107421879 .24798584-.0107421879 .36999513-.0107421879 .4149933 .10032654 .4149933 .11933899M.34899903 .2524414H.11199951C.117996219 .40126039 .20199585 .426239 .23599243 .426239 .33898927 .426239 .34899903 .2913971 .34899903 .2524414Z"/>
<path id="font_1_84" d="M.5209961 .21636963C.5209961 .34336854 .42399598 .4423828 .31199647 .4423828 .23399353 .4423828 .19198609 .39837647 .17199707 .3763733V.4423828L.027999878 .43066407V.3996582C.09899902 .3996582 .10598755 .3936615 .10598755 .34973146V-.117996219C.10598755-.16308594 .09498596-.16308594 .027999878-.16308594V-.1940918L.13999939-.19110108 .25299073-.1940918V-.16308594C.18598938-.16308594 .1749878-.16308594 .1749878-.117996219V.050186159 .059173585C.17999268 .04319763 .22200012-.0107421879 .2979889-.0107421879 .4169922-.0107421879 .5209961 .087127689 .5209961 .21594239V.21636963M.43798829 .21594239C.43798829 .09512329 .36799623 .011245728 .2939911 .011245728 .2539978 .011245728 .21598816 .031219483 .18899536 .07215881 .1749878 .09312439 .1749878 .09411621 .1749878 .114089969V.33674623C.20399475 .38838197 .25299073 .41737367 .3039856 .41737367 .3769989 .41737367 .43798829 .32937623 .43798829 .21636963V.21594239Z"/>
<path id="font_1_64" d="M.27598573 .18710327V.24511719H.010986328V.18710327H.27598573Z"/>
<path id="font_1_105" d="M.33198548 .12385559V.18066406H.30699159V.12585449C.30699159 .052108766 .2769928 .014251709 .23999024 .014251709 .17298889 .014251709 .17298889 .10491943 .17298889 .12187195V.3996582H.31599427V.43066407H.17298889V.6142578H.147995C.14698792 .5324249 .116989139 .42565919 .018997193 .42166139V.3996582H.10398865V.12408447C.10398865 .0012512207 .19699097-.0107421879 .23298645-.0107421879 .3039856-.0107421879 .33198548 .060180665 .33198548 .12408447V.12385559Z"/>
<path id="font_1_118" d="M.5079956 .3996582V.43066407C.4850006 .4286499 .45599366 .42765809 .43299867 .42765809L.34599305 .43066407V.3996582C.3769989 .39866639 .3929901 .3816681 .3929901 .35668946 .3929901 .34669496 .3919983 .34469605 .3869934 .33270265L.28599549 .08685303 .1749878 .35568238C.17098999 .36567689 .16899109 .36967469 .16899109 .3736725 .16899109 .3996582 .20599365 .3996582 .22499085 .3996582V.43066407L.115997318 .42765809C.08898926 .42765809 .04899597 .4286499 .018997193 .43066407V.3996582C.066986087 .3996582 .085998538 .3996582 .099990848 .36468507L.25-.000091552738 .22499085-.059066774C.20298767-.11407471 .1749878-.18309021 .11099243-.18309021 .10598755-.18309021 .08299255-.18309021 .06399536-.16503906 .09498596-.16104126 .102996829-.13905335 .102996829-.123046878 .102996829-.0970459 .083999637-.08103943 .06098938-.08103943 .040985109-.08103943 .018997193-.09403992 .018997193-.124053958 .018997193-.16905213 .06098938-.20507813 .11099243-.20507813 .17399597-.20507813 .21499634-.14804077 .23899842-.091049198L.4149933 .33569337C.44099427 .39865113 .49198915 .3996582 .5079956 .3996582Z"/>
<path id="font_1_77" d="M.5349884 0V.0309906C.48298646 .0309906 .45799256 .0309906 .45700074 .061019899V.25221253C.45700074 .3383026 .45700074 .36932374 .42599488 .405365 .4119873 .42237855 .3789978 .4423828 .32099916 .4423828 .24798584 .4423828 .20098877 .39935304 .17298889 .33729554V.4423828L.03199768 .43066407V.3996582C.101989749 .3996582 .10998535 .39266969 .10998535 .34370423V.07595825C.10998535 .0309906 .09899902 .0309906 .03199768 .0309906V0L.14498902 .0029907227 .25698854 0V.0309906C.18998719 .0309906 .1789856 .0309906 .1789856 .07595825V.25978089C.1789856 .36431886 .25 .42037965 .31399537 .42037965 .3769989 .42037965 .3880005 .36631776 .3880005 .30926515V.076034549C.3880005 .0309906 .3769989 .0309906 .30999757 .0309906V0L.4229889 .0029907227 .5349884 0Z"/>
<path id="font_2_2" d="M.40899659 .23046875H.6879883C.70199587 .23046875 .72099307 .23046875 .72099307 .25045777 .72099307 .27046205 .70199587 .27046205 .6879883 .27046205H.40899659V.5500183C.40899659 .56399539 .40899659 .5830078 .3889923 .5830078 .36898805 .5830078 .36898805 .56399539 .36898805 .5500183V.27046205H.08898926C.07499695 .27046205 .055999757 .27046205 .055999757 .25045777 .055999757 .23046875 .07499695 .23046875 .08898926 .23046875H.36898805V-.05000305C.36898805-.06401062 .36898805-.08300781 .3889923-.08300781 .40899659-.08300781 .40899659-.06401062 .40899659-.05000305V.23046875Z"/>
<path id="font_3_2" d="M.6279907 .5686035C.6769867 .64660647 .71899417 .6496124 .7559967 .6516113 .7679901 .65260317 .7689972 .6696167 .7689972 .6706085 .7689972 .6786041 .7639923 .6826172 .7559967 .6826172 .7299957 .6826172 .70098879 .6796112 .673996 .6796112 .6409912 .6796112 .6069946 .6826172 .57499697 .6826172 .56900027 .6826172 .55599978 .6826172 .55599978 .66360476 .55599978 .65260317 .5649872 .6516113 .57199099 .6516113 .598999 .6496124 .6179962 .63960269 .6179962 .61860659 .6179962 .6036072 .6029968 .581604 .6029968 .5805969L.29599 .092544559 .22799683 .62161257C.22799683 .63861086 .25099183 .6516113 .29699708 .6516113 .31098939 .6516113 .32199098 .6516113 .32199098 .6716156 .32199098 .680603 .31399537 .6826172 .30799867 .6826172 .2679901 .6826172 .22499085 .6796112 .18399048 .6796112 .1659851 .6796112 .14698792 .680603 .1289978 .680603 .11099243 .680603 .09199524 .6826172 .07499695 .6826172 .067993167 .6826172 .055999757 .6826172 .055999757 .66360476 .055999757 .6516113 .06498718 .6516113 .08099365 .6516113 .13699341 .6516113 .13798523 .64260867 .14099121 .6175995L.21998596 .0005340576C.22299195-.019470215 .22698975-.022460938 .23999024-.022460938 .2559967-.022460938 .2599945-.017471314 .2679901-.004470825L.6279907 .5686035Z"/>
<path id="font_4_28" d="M.5439911 .09013367V.14515686H.5099945V.09114075C.5099945 .08113098 .5099945 .033111574 .47299195 .033111574 .43598939 .033111574 .43598939 .0801239 .43598939 .09313965V.268219C.43598939 .3212433 .43598939 .35925294 .3899994 .39627076 .34899903 .4302826 .30099488 .44628907 .24198914 .44628907 .14698792 .44628907 .07998657 .41027833 .07998657 .34925843 .07998657 .31723023 .101989749 .30023194 .12799073 .30023194 .15499878 .30023194 .1749878 .3202362 .1749878 .34724427 .1749878 .3642578 .16699219 .38526917 .13999939 .39326478 .17599488 .41827394 .23399353 .41827394 .23999024 .41827394 .29599 .41827394 .35699464 .38127137 .35699464 .29722596V.2662201C.3019867 .26420594 .23599243 .2612152 .16299439 .23420716 .07299805 .20118714 .04499817 .14616394 .04499817 .101135257 .04499817 .0152282719 .14898682-.009765625 .21998596-.009765625 .2999878-.009765625 .34700013 .035232545 .36799623 .07423401 .37199403 .033111574 .39898683-.0048828127 .44499208-.0048828127 .44499208-.0048828127 .5439911-.0048828127 .5439911 .09010315V.09013367M.35699464 .14111328C.35699464 .04522705 .272995 .018234253 .22799683 .018234253 .1769867 .018234253 .1289978 .052230836 .1289978 .10122681 .1289978 .15621948 .1769867 .23323059 .35699464 .24023438V.14111328Z"/>
<path id="font_4_84" d="M.58399966 .21640015C.58399966 .33940126 .48199464 .44140626 .35499574 .44140626 .2979889 .44140626 .23999024 .4203949 .19898987 .3804016V.44140626L.04899597 .43052674V.39453126C.11898804 .39453126 .12399292 .38952638 .12399292 .34753419V-.11437988C.12399292-.15736389 .11399841-.15736389 .04899597-.15736389V-.19335938C.04899597-.19346619 .12098694-.18945313 .16299439-.18945313 .19999695-.18936157 .2689972-.19236756 .27799989-.19335938V-.15736389C.21299744-.15736389 .20298767-.15736389 .20298767-.114486698V.048233034C.20799256 .04324341 .25498963-.009765625 .33898927-.009765625 .47099305-.009765625 .58399966 .089263919 .58399966 .2163086V.21640015M.49299623 .2163086C.49299623 .102264408 .41799928 .018234253 .33299256 .018234253 .24499512 .018234253 .20599365 .09526062 .20298767 .101257327V.33335877C.23298645 .38339234 .29100038 .4093933 .34399415 .4093933 .42799378 .4093933 .49299623 .32136537 .49299623 .2163086Z"/>
<path id="font_4_72" d="M.2809906 0V.035995485C.21598816 .035995485 .20599365 .035995485 .20599365 .07901001V.69433596L.055999757 .6826172V.64660647C.12298584 .64660647 .1309967 .6396179 .1309967 .59065249V.07896423C.1309967 .035995485 .12098694 .035995485 .055999757 .035995485V0C.055999757 0 .12799073 .0039978029 .16799927 .0039978029 .20599365 .0039978029 .24299622 .0029907227 .2809906 0Z"/>
<path id="font_4_66" d="M.27398683 0V.035995485C.21598816 .035995485 .20599365 .035995485 .20599365 .07803345V.44140626L.05899048 .43052674V.39453126C.12199402 .39453126 .1309967 .3885193 .1309967 .33952333V.07952881C.1309967 .035995485 .12098694 .035995485 .055999757 .035995485V0C.055999757 0 .12799073 .0039978029 .16799927 .0039978029 .20298767 .0039978029 .23899842 .0029907227 .27398683 0M.21899414 .60214236C.21899414 .6341553 .19400025 .66015627 .1619873 .66015627 .12799073 .66015627 .10499573 .6321411 .10499573 .6031494 .10499573 .57115176 .12998963 .54515078 .1619873 .54515078 .19599915 .54515078 .21899414 .57315066 .21899414 .60214236Z"/>
<path id="font_4_50" d="M.46798707 .12036133C.46798707 .12435913 .46598817 .13438416 .45098878 .13438416 .43798829 .13438416 .43598939 .12837219 .43299867 .11836243 .4019928 .037246705 .32598878 .022232056 .2899933 .022232056 .24299622 .022232056 .19799805 .043258668 .16799927 .08131409 .1309967 .12837219 .12998963 .18945313 .12998963 .22851563H.43998719C.46099855 .22851563 .46798707 .22851563 .46798707 .25050355 .46798707 .33839417 .4189911 .44628907 .269989 .44628907 .13899231 .44628907 .038986207 .34239198 .038986207 .21949768 .038986207 .092315677 .1499939-.009765625 .2829895-.009765625 .41799928-.009765625 .46798707 .09832764 .46798707 .12036133M.397995 .25450135H.1309967C.14199829 .39530946 .23199463 .41827394 .269989 .41827394 .3929901 .41827394 .39698792 .27947999 .397995 .25450135Z"/>
<path id="font_4_47" d="M.58099368 0V.035995485C.5139923 .035995485 .5059967 .042999269 .5059967 .09202576V.69433596L.35598756 .6826172V.64660647C.4229889 .64660647 .43099977 .6396332 .43099977 .5908203V.3843689C.3939972 .4203949 .34599305 .44140626 .29100038 .44140626 .1579895 .44140626 .04598999 .34132386 .04598999 .21520996 .04598999 .09008789 .1519928-.009765625 .2789917-.009765625 .36099244-.009765625 .4099884 .03414917 .4269867 .05206299V-.009765625L.58099368 0M.4269867 .10499573C.40098573 .05807495 .34999085 .018234253 .2849884 .018234253 .22898865 .018234253 .18899536 .051071168 .16899109 .080078128 .14898682 .11010742 .13699341 .15014649 .13699341 .21421814 .13699341 .23724365 .13699341 .3123169 .17799378 .35932923 .21798706 .40438844 .2669983 .4133911 .29599 .4133911 .34399415 .4133911 .3869934 .39137269 .4149933 .35533143 .4269867 .33932496 .4269867 .33833314 .4269867 .31933595V.10499573Z"/>
<path id="font_5_1" d="M.6589966 .23046875C.6759949 .23046875 .69400027 .23046875 .69400027 .25045777 .69400027 .27046205 .6759949 .27046205 .6589966 .27046205H.117996219C.100997928 .27046205 .08299255 .27046205 .08299255 .25045777 .08299255 .23046875 .100997928 .23046875 .117996219 .23046875H.6589966Z"/>
<path id="font_2_1" d="M.44198609 .69781497C.43499757 .7108154 .43299867 .7158203 .41600038 .7158203 .39898683 .7158203 .39698792 .7108154 .3899994 .69781497L.051986696 .019989014C.04699707 .010986328 .04699707 .008987427 .04699707 .0079956059 .04699707 0 .052993776 0 .068984989 0H.7630005C.7789917 0 .7849884 0 .7849884 .0079956059 .7849884 .008987427 .7849884 .010986328 .7799988 .019989014L.44198609 .69781497M.38398744 .61582949 .6529999 .07598877H.11399841L.38398744 .61582949Z"/>
<path id="font_3_3" d="M.33399964 .30233766C.33999635 .32835389 .36299134 .42037965 .43299867 .42037965 .43798829 .42037965 .46199037 .42037965 .48298646 .40734864 .45498658 .402359 .43499757 .37734986 .43499757 .35334779 .43499757 .33735658 .44599916 .31835938 .47299195 .31835938 .49499513 .31835938 .5269928 .3363495 .5269928 .37635804 .5269928 .42837525 .46798707 .4423828 .43399049 .4423828 .37599183 .4423828 .34098817 .38935853 .32899476 .36634828 .3039856 .43237306 .25 .4423828 .22099304 .4423828 .116989139 .4423828 .05999756 .3133545 .05999756 .28834535 .05999756 .27833558 .069992069 .27833558 .07199097 .27833558 .07998657 .27833558 .08299255 .28033448 .084991458 .28933717 .11898804 .39535523 .18499756 .42037965 .21899414 .42037965 .23799134 .42037965 .272995 .4113617 .272995 .35334779 .272995 .32235719 .2559967 .25532533 .21899414 .11528015 .20298767 .053268434 .16799927 .011245728 .12399292 .011245728 .117996219 .011245728 .09498596 .011245728 .07398987 .024276734 .09899902 .029266358 .12098694 .05027771 .12098694 .07827759 .12098694 .105270389 .09899902 .11328125 .083999637 .11328125 .053985597 .11328125 .0289917 .08728027 .0289917 .055267335 .0289917 .009246826 .07899475-.0107421879 .12298584-.0107421879 .18899536-.0107421879 .22499085 .059280397 .22799683 .0652771 .23999024 .028274537 .27598573-.0107421879 .33599855-.0107421879 .43899537-.0107421879 .49598695 .118270877 .49598695 .14328003 .49598695 .1532898 .4869995 .1532898 .48399354 .1532898 .47499085 .1532898 .47299195 .14929199 .47099305 .14228821 .43798829 .03527832 .36999513 .011245728 .33799745 .011245728 .29899598 .011245728 .2829895 .043273927 .2829895 .07727051 .2829895 .09927368 .2889862 .121276859 .2999878 .16529846L.33399964 .30233766Z"/>
<path id="font_3_4" d="M.5369873 .5947571C.522995 .5818329 .48999024 .55400088 .48999024 .5361023 .48999024 .5261078 .5 .516098 .5099945 .516098 .5189972 .516098 .5239868 .5231018 .5289917 .5290985 .54100039 .5440674 .56399539 .5718994 .60798647 .59376528 .61499026 .59776309 .625 .6027527 .625 .61476138 .625 .62475588 .6179962 .62976077 .61099246 .6347656 .58898928 .6497803 .5779877 .66781619 .56999209 .69184878 .56799319 .7008667 .56399539 .7138672 .5499878 .7138672 .5359955 .7138672 .5299988 .7008667 .5299988 .69285586 .5299988 .68785098 .5379944 .65579226 .55400088 .6347656H.21699524C.19999695 .6347656 .18199158 .6347656 .18199158 .61476138 .18199158 .5947571 .19999695 .5947571 .21699524 .5947571H.5369873Z"/>
<path id="font_3_1" d="M.70799258 .23292542C.70999148 .23791504 .71299746 .24491883 .71299746 .24691773 .71299746 .24790955 .71299746 .2579193 .70098879 .2579193 .69200137 .2579193 .6899872 .25190736 .6879883 .24591065 .6230011 .097961429 .58599856 .0309906 .4149933 .0309906H.2689972C.25498963 .0309906 .25299073 .0309906 .24699402 .03199768 .23699951 .032989503 .23399353 .033996583 .23399353 .041992189 .23399353 .04498291 .23399353 .04698181 .23899842 .06498718L.30699159 .33789063H.4059906C.4909973 .33789063 .4909973 .31689454 .4909973 .29190064 .4909973 .28489686 .4909973 .27290345 .48399354 .24291992 .48199464 .23791504 .48098756 .23492432 .48098756 .23191834 .48098756 .22692871 .4850006 .220932 .49398805 .220932 .5019989 .220932 .5049896 .22592163 .5089874 .24092102L.56599429 .47477723C.56599429 .48077394 .5609894 .48576356 .55400088 .48576356 .54499819 .48576356 .54299929 .47976686 .5399933 .4677887 .5189972 .39186097 .5009918 .36888124 .40899659 .36888124H.31498719L.375 .60964968C.38398744 .64460757 .3849945 .64860537 .42900086 .64860537H.56999209C.69200137 .64860537 .7220001 .61964419 .7220001 .5377197 .7220001 .51374819 .7220001 .51174929 .71798709 .48477174 .71798709 .47877503 .71699526 .4717865 .71699526 .46678163 .71699526 .461792 .7200012 .45480348 .72898867 .45480348 .73999026 .45480348 .7409973 .46080018 .7429962 .47976686L.7630005 .65260317C.7659912 .6796112 .7609863 .6796112 .73599246 .6796112H.23098755C.21099854 .6796112 .20098877 .6796112 .20098877 .65960696 .20098877 .64860537 .20999146 .64860537 .22898865 .64860537 .2659912 .64860537 .2939911 .64860537 .2939911 .6306305 .2939911 .6266327 .2939911 .6246338 .2889862 .6066437L.15699768 .07797241C.14698792 .038986207 .14498902 .0309906 .06599426 .0309906 .04899597 .0309906 .037994386 .0309906 .037994386 .011993408 .037994386 0 .04699707 0 .06599426 0H.58499148C.60798647 0 .60899356 .0009918213 .6159973 .016998291L.70799258 .23292542Z"/>
<path id="font_6_1" d="M.57099917 .66430667C.57199099 .66630557 .57499697 .67930606 .57499697 .68029788 .57499697 .68530276 .57099917 .6943054 .5589905 .6943054 .5389862 .6943054 .45599366 .6863098 .43099977 .6843109 .4229889 .68330386 .40899659 .682312 .40899659 .66130068 .40899659 .64730837 .4229889 .64730837 .43499757 .64730837 .48298646 .64730837 .48298646 .64030459 .48298646 .63230898 .48298646 .62532046 .48098756 .61932376 .47898866 .61032107L.42199708 .38238526C.40098573 .41540528 .36698915 .44140626 .31900025 .44140626 .19099427 .44140626 .06098938 .300354 .06098938 .15628052 .06098938 .059249879 .12599182-.009765625 .21199036-.009765625 .2659912-.009765625 .31399537 .021224976 .35398866 .0602417 .37298585 .00022888184 .43099977-.009765625 .45700074-.009765625 .49299623-.009765625 .5179901 .01222229 .5359955 .04324341 .55799868 .08226013 .57099917 .13928223 .57099917 .14328003 .57099917 .15628052 .55799868 .15628052 .5549927 .15628052 .54100039 .15628052 .5399933 .15228272 .5329895 .12527466 .5209961 .07725525 .5019989 .018234253 .45999146 .018234253 .43399049 .018234253 .4269867 .040237428 .4269867 .06724548 .4269867 .086257938 .42900086 .09526062 .43199159 .10826111L.57099917 .66430667M.35798646 .12527466C.35099793 .09725952 .32899476 .07725525 .30699159 .058242799 .2979889 .050247194 .2579956 .018234253 .21499634 .018234253 .17799378 .018234253 .14199829 .04423523 .14199829 .11526489 .14199829 .16828919 .17098999 .27833558 .19400025 .31835938 .23999024 .39839173 .29100038 .4133911 .31900025 .4133911 .3889923 .4133911 .4079895 .33737184 .4079895 .32635499 .4079895 .32235719 .4059906 .3153534 .40499879 .3123474L.35798646 .12527466Z"/>
</defs>
<path transform="matrix(1,0,0,-1.00009,34.870004,211.6679)" stroke-width=".3985" stroke-linecap="butt" stroke-miterlimit="10" stroke-linejoin="miter" fill="none" stroke="#000000" d="M22.67752 22.67752"/>
<path transform="matrix(1,0,0,-1.00009,34.870004,211.6679)" stroke-width="1.59404" stroke-linecap="butt" stroke-miterlimit="10" stroke-linejoin="miter" fill="none" stroke="#0000ff" d="M33.30875 22.6787C33.30875 28.54958 28.54958 33.30875 22.6787 33.30875 16.80782 33.30875 12.04866 28.54958 12.04866 22.6787 12.04866 16.80782 16.80782 12.04866 22.6787 12.04866 28.54958 12.04866 33.30875 16.80782 33.30875 22.6787ZM22.6787 22.6787"/>
<path transform="matrix(1,0,0,-1.00009,34.870004,211.6679)" stroke-width=".3985" stroke-linecap="butt" stroke-miterlimit="10" stroke-linejoin="miter" fill="none" stroke="#000000" d="M22.67752 68.03261"/>
<path transform="matrix(1,0,0,-1.00009,34.870004,211.6679)" stroke-width="1.59404" stroke-linecap="butt" stroke-miterlimit="10" stroke-linejoin="miter" fill="none" stroke="#0000ff" d="M33.30875 68.03616C33.30875 73.90704 28.54958 78.6662 22.6787 78.6662 16.80782 78.6662 12.04866 73.90704 12.04866 68.03616 12.04866 62.16527 16.80782 57.40611 22.6787 57.40611 28.54958 57.40611 33.30875 62.16527 33.30875 68.03616ZM22.6787 68.03616"/>
<path transform="matrix(1,0,0,-1.00009,34.870004,211.6679)" stroke-width=".3985" stroke-linecap="butt" stroke-miterlimit="10" stroke-linejoin="miter" fill="none" stroke="#000000" d="M22.67752 113.3877"/>
<path transform="matrix(1,0,0,-1.00009,34.870004,211.6679)" stroke-width="1.59404" stroke-linecap="butt" stroke-miterlimit="10" stroke-linejoin="miter" fill="none" stroke="#0000ff" d="M33.30875 113.39365C33.30875 119.26453 28.54958 124.0237 22.6787 124.0237 16.80782 124.0237 12.04866 119.26453 12.04866 113.39365 12.04866 107.52277 16.80782 102.7636 22.6787 102.7636 28.54958 102.7636 33.30875 107.52277 33.30875 113.39365ZM22.6787 113.39365"/>
<path transform="matrix(1,0,0,-1.00009,34.870004,211.6679)" stroke-width=".3985" stroke-linecap="butt" stroke-miterlimit="10" stroke-linejoin="miter" fill="none" stroke="#000000" d="M22.67752 158.74277"/>
<path transform="matrix(1,0,0,-1.00009,34.870004,211.6679)" stroke-width="1.59404" stroke-linecap="butt" stroke-miterlimit="10" stroke-linejoin="miter" fill="none" stroke="#0000ff" d="M33.30875 158.7511C33.30875 164.622 28.54958 169.38115 22.6787 169.38115 16.80782 169.38115 12.04866 164.622 12.04866 158.7511 12.04866 152.88022 16.80782 148.12107 22.6787 148.12107 28.54958 148.12107 33.30875 152.88022 33.30875 158.7511ZM22.6787 158.7511"/>
<path transform="matrix(1,0,0,-1.00009,34.870004,211.6679)" stroke-width=".3985" stroke-linecap="butt" stroke-miterlimit="10" stroke-linejoin="miter" fill="none" stroke="#000000" d="M68.03261 22.67752"/>
<path transform="matrix(1,0,0,-1.00009,34.870004,211.6679)" stroke-width="1.59404" stroke-linecap="butt" stroke-miterlimit="10" stroke-linejoin="miter" fill="none" stroke="#0000ff" d="M78.6662 22.6787C78.6662 28.54958 73.90704 33.30875 68.03616 33.30875 62.16527 33.30875 57.40611 28.54958 57.40611 22.6787 57.40611 16.80782 62.16527 12.04866 68.03616 12.04866 73.90704 12.04866 78.6662 16.80782 78.6662 22.6787ZM68.03616 22.6787"/>
<path transform="matrix(1,0,0,-1.00009,34.870004,211.6679)" stroke-width=".3985" stroke-linecap="butt" stroke-miterlimit="10" stroke-linejoin="miter" fill="none" stroke="#000000" d="M68.03261 68.03261"/>
<path transform="matrix(1,0,0,-1.00009,34.870004,211.6679)" stroke-width="1.59404" stroke-linecap="butt" stroke-miterlimit="10" stroke-linejoin="miter" fill="none" stroke="#0000ff" d="M78.6662 68.03616C78.6662 73.90704 73.90704 78.6662 68.03616 78.6662 62.16527 78.6662 57.40611 73.90704 57.40611 68.03616 57.40611 62.16527 62.16527 57.40611 68.03616 57.40611 73.90704 57.40611 78.6662 62.16527 78.6662 68.03616ZM68.03616 68.03616"/>
<path transform="matrix(1,0,0,-1.00009,34.870004,211.6679)" stroke-width=".3985" stroke-linecap="butt" stroke-miterlimit="10" stroke-linejoin="miter" fill="none" stroke="#000000" d="M68.03261 113.3877"/>
<path transform="matrix(1,0,0,-1.00009,34.870004,211.6679)" stroke-width="1.59404" stroke-linecap="butt" stroke-miterlimit="10" stroke-linejoin="miter" fill="none" stroke="#0000ff" d="M78.6662 113.39365C78.6662 119.26453 73.90704 124.0237 68.03616 124.0237 62.16527 124.0237 57.40611 119.26453 57.40611 113.39365 57.40611 107.52277 62.16527 102.7636 68.03616 102.7636 73.90704 102.7636 78.6662 107.52277 78.6662 113.39365ZM68.03616 113.39365"/>
<path transform="matrix(1,0,0,-1.00009,34.870004,211.6679)" stroke-width=".3985" stroke-linecap="butt" stroke-miterlimit="10" stroke-linejoin="miter" fill="none" stroke="#000000" d="M68.03261 158.74277"/>
<path transform="matrix(1,0,0,-1.00009,34.870004,211.6679)" stroke-width="1.59404" stroke-linecap="butt" stroke-miterlimit="10" stroke-linejoin="miter" fill="none" stroke="#0000ff" d="M78.6662 158.7511C78.6662 164.622 73.90704 169.38115 68.03616 169.38115 62.16527 169.38115 57.40611 164.622 57.40611 158.7511 57.40611 152.88022 62.16527 148.12107 68.03616 148.12107 73.90704 148.12107 78.6662 152.88022 78.6662 158.7511ZM68.03616 158.7511"/>
<path transform="matrix(1,0,0,-1.00009,34.870004,211.6679)" stroke-width=".3985" stroke-linecap="butt" stroke-miterlimit="10" stroke-linejoin="miter" fill="none" stroke="#000000" d="M113.3877 22.67752"/>
<path transform="matrix(1,0,0,-1.00009,34.870004,211.6679)" stroke-width="1.59404" stroke-linecap="butt" stroke-miterlimit="10" stroke-linejoin="miter" fill="none" stroke="#0000ff" d="M124.0237 22.6787C124.0237 28.54958 119.26453 33.30875 113.39365 33.30875 107.52277 33.30875 102.7636 28.54958 102.7636 22.6787 102.7636 16.80782 107.52277 12.04866 113.39365 12.04866 119.26453 12.04866 124.0237 16.80782 124.0237 22.6787ZM113.39365 22.6787"/>
<path transform="matrix(1,0,0,-1.00009,34.870004,211.6679)" stroke-width=".3985" stroke-linecap="butt" stroke-miterlimit="10" stroke-linejoin="miter" fill="none" stroke="#000000" d="M113.3877 68.03261"/>
<path transform="matrix(1,0,0,-1.00009,34.870004,211.6679)" stroke-width="1.59404" stroke-linecap="butt" stroke-miterlimit="10" stroke-linejoin="miter" fill="none" stroke="#0000ff" d="M124.0237 68.03616C124.0237 73.90704 119.26453 78.6662 113.39365 78.6662 107.52277 78.6662 102.7636 73.90704 102.7636 68.03616 102.7636 62.16527 107.52277 57.40611 113.39365 57.40611 119.26453 57.40611 124.0237 62.16527 124.0237 68.03616ZM113.39365 68.03616"/>
<path transform="matrix(1,0,0,-1.00009,34.870004,211.6679)" stroke-width=".3985" stroke-linecap="butt" stroke-miterlimit="10" stroke-linejoin="miter" fill="none" stroke="#000000" d="M113.3877 113.3877"/>
<path transform="matrix(1,0,0,-1.00009,34.870004,211.6679)" stroke-width="1.59404" stroke-linecap="butt" stroke-miterlimit="10" stroke-linejoin="miter" fill="none" stroke="#0000ff" d="M124.0237 113.39365C124.0237 119.26453 119.26453 124.0237 113.39365 124.0237 107.52277 124.0237 102.7636 119.26453 102.7636 113.39365 102.7636 107.52277 107.52277 102.7636 113.39365 102.7636 119.26453 102.7636 124.0237 107.52277 124.0237 113.39365ZM113.39365 113.39365"/>
<path transform="matrix(1,0,0,-1.00009,34.870004,211.6679)" stroke-width=".3985" stroke-linecap="butt" stroke-miterlimit="10" stroke-linejoin="miter" fill="none" stroke="#000000" d="M113.3877 158.74277"/>
<path transform="matrix(1,0,0,-1.00009,34.870004,211.6679)" stroke-width="1.59404" stroke-linecap="butt" stroke-miterlimit="10" stroke-linejoin="miter" fill="none" stroke="#0000ff" d="M124.0237 158.7511C124.0237 164.622 119.26453 169.38115 113.39365 169.38115 107.52277 169.38115 102.7636 164.622 102.7636 158.7511 102.7636 152.88022 107.52277 148.12107 113.39365 148.12107 119.26453 148.12107 124.0237 152.88022 124.0237 158.7511ZM113.39365 158.7511"/>
<path transform="matrix(1,0,0,-1.00009,34.870004,211.6679)" stroke-width=".3985" stroke-linecap="butt" stroke-miterlimit="10" stroke-linejoin="miter" fill="none" stroke="#000000" d="M158.74277 22.67752"/>
<path transform="matrix(1,0,0,-1.00009,34.870004,211.6679)" stroke-width="1.59404" stroke-linecap="butt" stroke-miterlimit="10" stroke-linejoin="miter" fill="none" stroke="#0000ff" d="M169.38115 22.6787C169.38115 28.54958 164.622 33.30875 158.7511 33.30875 152.88022 33.30875 148.12107 28.54958 148.12107 22.6787 148.12107 16.80782 152.88022 12.04866 158.7511 12.04866 164.622 12.04866 169.38115 16.80782 169.38115 22.6787ZM158.7511 22.6787"/>
<path transform="matrix(1,0,0,-1.00009,34.870004,211.6679)" stroke-width=".3985" stroke-linecap="butt" stroke-miterlimit="10" stroke-linejoin="miter" fill="none" stroke="#000000" d="M158.74277 68.03261"/>
<path transform="matrix(1,0,0,-1.00009,34.870004,211.6679)" stroke-width="1.59404" stroke-linecap="butt" stroke-miterlimit="10" stroke-linejoin="miter" fill="none" stroke="#0000ff" d="M169.38115 68.03616C169.38115 73.90704 164.622 78.6662 158.7511 78.6662 152.88022 78.6662 148.12107 73.90704 148.12107 68.03616 148.12107 62.16527 152.88022 57.40611 158.7511 57.40611 164.622 57.40611 169.38115 62.16527 169.38115 68.03616ZM158.7511 68.03616"/>
<path transform="matrix(1,0,0,-1.00009,34.870004,211.6679)" stroke-width=".3985" stroke-linecap="butt" stroke-miterlimit="10" stroke-linejoin="miter" fill="none" stroke="#000000" d="M158.74277 113.3877"/>
<path transform="matrix(1,0,0,-1.00009,34.870004,211.6679)" stroke-width="1.59404" stroke-linecap="butt" stroke-miterlimit="10" stroke-linejoin="miter" fill="none" stroke="#0000ff" d="M169.38115 113.39365C169.38115 119.26453 164.622 124.0237 158.7511 124.0237 152.88022 124.0237 148.12107 119.26453 148.12107 113.39365 148.12107 107.52277 152.88022 102.7636 158.7511 102.7636 164.622 102.7636 169.38115 107.52277 169.38115 113.39365ZM158.7511 113.39365"/>
<path transform="matrix(1,0,0,-1.00009,34.870004,211.6679)" stroke-width=".3985" stroke-linecap="butt" stroke-miterlimit="10" stroke-linejoin="miter" fill="none" stroke="#000000" d="M158.74277 158.74277"/>
<path transform="matrix(1,0,0,-1.00009,34.870004,211.6679)" stroke-width="1.59404" stroke-linecap="butt" stroke-miterlimit="10" stroke-linejoin="miter" fill="none" stroke="#0000ff" d="M169.38115 158.7511C169.38115 164.622 164.622 169.38115 158.7511 169.38115 152.88022 169.38115 148.12107 164.622 148.12107 158.7511 148.12107 152.88022 152.88022 148.12107 158.7511 148.12107 164.622 148.12107 169.38115 152.88022 169.38115 158.7511ZM158.7511 158.7511"/>
<path transform="matrix(1,0,0,-1.00009,34.870004,211.6679)" stroke-width=".3985" stroke-linecap="butt" stroke-miterlimit="10" stroke-linejoin="miter" fill="none" stroke="#000000" d="M204.09786 22.67752"/>
<path transform="matrix(1,0,0,-1.00009,34.870004,211.6679)" stroke-width="1.59404" stroke-linecap="butt" stroke-miterlimit="10" stroke-linejoin="miter" fill="none" stroke="#0000ff" d="M214.73862 22.6787C214.73862 28.54958 209.97946 33.30875 204.10858 33.30875 198.2377 33.30875 193.47853 28.54958 193.47853 22.6787 193.47853 16.80782 198.2377 12.04866 204.10858 12.04866 209.97946 12.04866 214.73862 16.80782 214.73862 22.6787ZM204.10858 22.6787"/>
<path transform="matrix(1,0,0,-1.00009,34.870004,211.6679)" stroke-width="1.59404" stroke-linecap="butt" stroke-miterlimit="10" stroke-linejoin="miter" fill="none" stroke="#ff0000" d="M195.60453 22.6787H174.07205"/>
<path transform="matrix(-1,-0,0,1.00009,208.94205,188.98715)" d="M6.81448 0C4.79533 .37857 1.51433 1.51433-.75716 2.83936V-2.83936C1.51433-1.51433 4.79533-.37857 6.81448 0" fill="#ff0000"/>
<path transform="matrix(1,0,0,-1.00009,34.870004,211.6679)" stroke-width=".3985" stroke-linecap="butt" stroke-miterlimit="10" stroke-linejoin="miter" fill="none" stroke="#000000" d="M158.75351 22.6787"/>
<use data-text="e" xlink:href="#font_1_50" transform="matrix(9.9626,0,0,-9.963496,191.41202,191.16405)" fill="#ff0000"/>
<path transform="matrix(1,0,0,-1.00009,34.870004,211.6679)" stroke-width=".3985" stroke-linecap="butt" stroke-miterlimit="10" stroke-linejoin="miter" fill="none" stroke="#000000" d="M204.09786 68.03261"/>
<path transform="matrix(1,0,0,-1.00009,34.870004,211.6679)" stroke-width="1.59404" stroke-linecap="butt" stroke-miterlimit="10" stroke-linejoin="miter" fill="none" stroke="#0000ff" d="M214.73862 68.03616C214.73862 73.90704 209.97946 78.6662 204.10858 78.6662 198.2377 78.6662 193.47853 73.90704 193.47853 68.03616 193.47853 62.16527 198.2377 57.40611 204.10858 57.40611 209.97946 57.40611 214.73862 62.16527 214.73862 68.03616ZM204.10858 68.03616"/>
<path transform="matrix(1,0,0,-1.00009,34.870004,211.6679)" stroke-width="1.59404" stroke-linecap="butt" stroke-miterlimit="10" stroke-linejoin="miter" fill="none" stroke="#ff0000" d="M195.60453 68.03616H174.07205"/>
<path transform="matrix(-1,-0,0,1.00009,208.94205,143.62561)" d="M6.81448 0C4.79533 .37857 1.51433 1.51433-.75716 2.83936V-2.83936C1.51433-1.51433 4.79533-.37857 6.81448 0" fill="#ff0000"/>
<path transform="matrix(1,0,0,-1.00009,34.870004,211.6679)" stroke-width=".3985" stroke-linecap="butt" stroke-miterlimit="10" stroke-linejoin="miter" fill="none" stroke="#000000" d="M158.75351 68.03616"/>
<use data-text="e" xlink:href="#font_1_50" transform="matrix(9.9626,0,0,-9.963496,191.41202,145.80297)" fill="#ff0000"/>
<path transform="matrix(1,0,0,-1.00009,34.870004,211.6679)" stroke-width=".3985" stroke-linecap="butt" stroke-miterlimit="10" stroke-linejoin="miter" fill="none" stroke="#000000" d="M204.09786 113.3877"/>
<path transform="matrix(1,0,0,-1.00009,34.870004,211.6679)" stroke-width="1.59404" stroke-linecap="butt" stroke-miterlimit="10" stroke-linejoin="miter" fill="none" stroke="#0000ff" d="M214.73862 113.39365C214.73862 119.26453 209.97946 124.0237 204.10858 124.0237 198.2377 124.0237 193.47853 119.26453 193.47853 113.39365 193.47853 107.52277 198.2377 102.7636 204.10858 102.7636 209.97946 102.7636 214.73862 107.52277 214.73862 113.39365ZM204.10858 113.39365"/>
<path transform="matrix(1,0,0,-1.00009,34.870004,211.6679)" stroke-width="1.59404" stroke-linecap="butt" stroke-miterlimit="10" stroke-linejoin="miter" fill="none" stroke="#ff0000" d="M195.60453 113.39365H174.07205"/>
<path transform="matrix(-1,-0,0,1.00009,208.94205,98.26404)" d="M6.81448 0C4.79533 .37857 1.51433 1.51433-.75716 2.83936V-2.83936C1.51433-1.51433 4.79533-.37857 6.81448 0" fill="#ff0000"/>
<path transform="matrix(1,0,0,-1.00009,34.870004,211.6679)" stroke-width=".3985" stroke-linecap="butt" stroke-miterlimit="10" stroke-linejoin="miter" fill="none" stroke="#000000" d="M158.75351 113.39365"/>
<use data-text="e" xlink:href="#font_1_50" transform="matrix(9.9626,0,0,-9.963496,191.41202,100.44088)" fill="#ff0000"/>
<path transform="matrix(1,0,0,-1.00009,34.870004,211.6679)" stroke-width=".3985" stroke-linecap="butt" stroke-miterlimit="10" stroke-linejoin="miter" fill="none" stroke="#000000" d="M204.09786 158.74277"/>
<path transform="matrix(1,0,0,-1.00009,34.870004,211.6679)" stroke-width="1.59404" stroke-linecap="butt" stroke-miterlimit="10" stroke-linejoin="miter" fill="none" stroke="#0000ff" d="M214.73862 158.7511C214.73862 164.622 209.97946 169.38115 204.10858 169.38115 198.2377 169.38115 193.47853 164.622 193.47853 158.7511 193.47853 152.88022 198.2377 148.12107 204.10858 148.12107 209.97946 148.12107 214.73862 152.88022 214.73862 158.7511ZM204.10858 158.7511"/>
<path transform="matrix(1,0,0,-1.00009,34.870004,211.6679)" stroke-width="1.59404" stroke-linecap="butt" stroke-miterlimit="10" stroke-linejoin="miter" fill="none" stroke="#ff0000" d="M195.60453 158.7511H174.07205"/>
<path transform="matrix(-1,-0,0,1.00009,208.94205,52.90251)" d="M6.81448 0C4.79533 .37857 1.51433 1.51433-.75716 2.83936V-2.83936C1.51433-1.51433 4.79533-.37857 6.81448 0" fill="#ff0000"/>
<path transform="matrix(1,0,0,-1.00009,34.870004,211.6679)" stroke-width=".3985" stroke-linecap="butt" stroke-miterlimit="10" stroke-linejoin="miter" fill="none" stroke="#000000" d="M158.75351 158.7511"/>
<use data-text="e" xlink:href="#font_1_50" transform="matrix(9.9626,0,0,-9.963496,191.41202,55.07979)" fill="#ff0000"/>
<path transform="matrix(1,0,0,-1.00009,34.870004,211.6679)" stroke-width=".3985" stroke-linecap="butt" stroke-miterlimit="10" stroke-linejoin="miter" fill="none" stroke="#000000" d="M249.45293 22.67752"/>
<path transform="matrix(1,0,0,-1.00009,34.870004,211.6679)" stroke-width="1.59404" stroke-linecap="butt" stroke-miterlimit="10" stroke-linejoin="miter" fill="none" stroke="#0000ff" d="M260.09608 22.6787C260.09608 28.54958 255.33692 33.30875 249.46604 33.30875 243.59516 33.30875 238.836 28.54958 238.836 22.6787 238.836 16.80782 243.59516 12.04866 249.46604 12.04866 255.33692 12.04866 260.09608 16.80782 260.09608 22.6787ZM249.46604 22.6787"/>
<use data-text="e" xlink:href="#font_1_50" transform="matrix(9.9626,0,0,-9.963496,282.124,191.16405)" fill="#0000ff"/>
<path transform="matrix(1,0,0,-1.00009,34.870004,211.6679)" stroke-width=".3985" stroke-linecap="butt" stroke-miterlimit="10" stroke-linejoin="miter" fill="none" stroke="#000000" d="M249.45293 68.03261"/>
<path transform="matrix(1,0,0,-1.00009,34.870004,211.6679)" stroke-width="1.59404" stroke-linecap="butt" stroke-miterlimit="10" stroke-linejoin="miter" fill="none" stroke="#0000ff" d="M260.09608 68.03616C260.09608 73.90704 255.33692 78.6662 249.46604 78.6662 243.59516 78.6662 238.836 73.90704 238.836 68.03616 238.836 62.16527 243.59516 57.40611 249.46604 57.40611 255.33692 57.40611 260.09608 62.16527 260.09608 68.03616ZM249.46604 68.03616"/>
<use data-text="e" xlink:href="#font_1_50" transform="matrix(9.9626,0,0,-9.963496,282.124,145.80297)" fill="#0000ff"/>
<path transform="matrix(1,0,0,-1.00009,34.870004,211.6679)" stroke-width=".3985" stroke-linecap="butt" stroke-miterlimit="10" stroke-linejoin="miter" fill="none" stroke="#000000" d="M249.45293 113.3877"/>
<path transform="matrix(1,0,0,-1.00009,34.870004,211.6679)" stroke-width="1.59404" stroke-linecap="butt" stroke-miterlimit="10" stroke-linejoin="miter" fill="none" stroke="#0000ff" d="M260.09608 113.39365C260.09608 119.26453 255.33692 124.0237 249.46604 124.0237 243.59516 124.0237 238.836 119.26453 238.836 113.39365 238.836 107.52277 243.59516 102.7636 249.46604 102.7636 255.33692 102.7636 260.09608 107.52277 260.09608 113.39365ZM249.46604 113.39365"/>
<use data-text="e" xlink:href="#font_1_50" transform="matrix(9.9626,0,0,-9.963496,282.124,100.44088)" fill="#0000ff"/>
<path transform="matrix(1,0,0,-1.00009,34.870004,211.6679)" stroke-width=".3985" stroke-linecap="butt" stroke-miterlimit="10" stroke-linejoin="miter" fill="none" stroke="#000000" d="M249.45293 158.74277"/>
<path transform="matrix(1,0,0,-1.00009,34.870004,211.6679)" stroke-width="1.59404" stroke-linecap="butt" stroke-miterlimit="10" stroke-linejoin="miter" fill="none" stroke="#0000ff" d="M260.09608 158.7511C260.09608 164.622 255.33692 169.38115 249.46604 169.38115 243.59516 169.38115 238.836 164.622 238.836 158.7511 238.836 152.88022 243.59516 148.12107 249.46604 148.12107 255.33692 148.12107 260.09608 152.88022 260.09608 158.7511ZM249.46604 158.7511"/>
<use data-text="e" xlink:href="#font_1_50" transform="matrix(9.9626,0,0,-9.963496,282.124,55.07979)" fill="#0000ff"/>
<path transform="matrix(1,0,0,-1.00009,34.870004,211.6679)" stroke-width=".3985" stroke-linecap="butt" stroke-miterlimit="10" stroke-linejoin="miter" fill="none" stroke="#000000" d="M294.808 22.67752"/>
<path transform="matrix(1,0,0,-1.00009,34.870004,211.6679)" stroke-width="1.59404" stroke-linecap="butt" stroke-miterlimit="10" stroke-linejoin="miter" fill="none" stroke="#0000ff" d="M305.45356 22.6787C305.45356 28.54958 300.6944 33.30875 294.82353 33.30875 288.95265 33.30875 284.19349 28.54958 284.19349 22.6787 284.19349 16.80782 288.95265 12.04866 294.82353 12.04866 300.6944 12.04866 305.45356 16.80782 305.45356 22.6787ZM294.82353 22.6787"/>
<use data-text="e" xlink:href="#font_1_50" transform="matrix(9.9626,0,0,-9.963496,327.482,191.16405)" fill="#0000ff"/>
<path transform="matrix(1,0,0,-1.00009,34.870004,211.6679)" stroke-width=".3985" stroke-linecap="butt" stroke-miterlimit="10" stroke-linejoin="miter" fill="none" stroke="#000000" d="M294.808 68.03261"/>
<path transform="matrix(1,0,0,-1.00009,34.870004,211.6679)" stroke-width="1.59404" stroke-linecap="butt" stroke-miterlimit="10" stroke-linejoin="miter" fill="none" stroke="#0000ff" d="M305.45356 68.03616C305.45356 73.90704 300.6944 78.6662 294.82353 78.6662 288.95265 78.6662 284.19349 73.90704 284.19349 68.03616 284.19349 62.16527 288.95265 57.40611 294.82353 57.40611 300.6944 57.40611 305.45356 62.16527 305.45356 68.03616ZM294.82353 68.03616"/>
<use data-text="e" xlink:href="#font_1_50" transform="matrix(9.9626,0,0,-9.963496,327.482,145.80297)" fill="#0000ff"/>
<path transform="matrix(1,0,0,-1.00009,34.870004,211.6679)" stroke-width=".3985" stroke-linecap="butt" stroke-miterlimit="10" stroke-linejoin="miter" fill="none" stroke="#000000" d="M294.808 113.3877"/>
<path transform="matrix(1,0,0,-1.00009,34.870004,211.6679)" stroke-width="1.59404" stroke-linecap="butt" stroke-miterlimit="10" stroke-linejoin="miter" fill="none" stroke="#0000ff" d="M305.45356 113.39365C305.45356 119.26453 300.6944 124.0237 294.82353 124.0237 288.95265 124.0237 284.19349 119.26453 284.19349 113.39365 284.19349 107.52277 288.95265 102.7636 294.82353 102.7636 300.6944 102.7636 305.45356 107.52277 305.45356 113.39365ZM294.82353 113.39365"/>
<use data-text="e" xlink:href="#font_1_50" transform="matrix(9.9626,0,0,-9.963496,327.482,100.44088)" fill="#0000ff"/>
<path transform="matrix(1,0,0,-1.00009,34.870004,211.6679)" stroke-width=".3985" stroke-linecap="butt" stroke-miterlimit="10" stroke-linejoin="miter" fill="none" stroke="#000000" d="M294.808 158.74277"/>
<path transform="matrix(1,0,0,-1.00009,34.870004,211.6679)" stroke-width="1.59404" stroke-linecap="butt" stroke-miterlimit="10" stroke-linejoin="miter" fill="none" stroke="#0000ff" d="M305.45356 158.7511C305.45356 164.622 300.6944 169.38115 294.82353 169.38115 288.95265 169.38115 284.19349 164.622 284.19349 158.7511 284.19349 152.88022 288.95265 148.12107 294.82353 148.12107 300.6944 148.12107 305.45356 152.88022 305.45356 158.7511ZM294.82353 158.7511"/>
<use data-text="e" xlink:href="#font_1_50" transform="matrix(9.9626,0,0,-9.963496,327.482,55.07979)" fill="#0000ff"/>
<path transform="matrix(1,0,0,-1.00009,34.870004,211.6679)" stroke-width=".3985" stroke-linecap="butt" stroke-miterlimit="10" stroke-linejoin="miter" fill="none" stroke="#000000" d="M340.1631 22.67752"/>
<path transform="matrix(1,0,0,-1.00009,34.870004,211.6679)" stroke-width="1.59404" stroke-linecap="butt" stroke-miterlimit="10" stroke-linejoin="miter" fill="none" stroke="#0000ff" d="M350.81105 22.6787C350.81105 28.54958 346.05186 33.30875 340.18098 33.30875 334.3101 33.30875 329.55094 28.54958 329.55094 22.6787 329.55094 16.80782 334.3101 12.04866 340.18098 12.04866 346.05186 12.04866 350.81105 16.80782 350.81105 22.6787ZM340.18098 22.6787"/>
<use data-text="e" xlink:href="#font_1_50" transform="matrix(9.9626,0,0,-9.963496,372.839,191.16405)" fill="#0000ff"/>
<path transform="matrix(1,0,0,-1.00009,34.870004,211.6679)" stroke-width=".3985" stroke-linecap="butt" stroke-miterlimit="10" stroke-linejoin="miter" fill="none" stroke="#000000" d="M340.1631 68.03261"/>
<path transform="matrix(1,0,0,-1.00009,34.870004,211.6679)" stroke-width="1.59404" stroke-linecap="butt" stroke-miterlimit="10" stroke-linejoin="miter" fill="none" stroke="#0000ff" d="M350.81105 68.03616C350.81105 73.90704 346.05186 78.6662 340.18098 78.6662 334.3101 78.6662 329.55094 73.90704 329.55094 68.03616 329.55094 62.16527 334.3101 57.40611 340.18098 57.40611 346.05186 57.40611 350.81105 62.16527 350.81105 68.03616ZM340.18098 68.03616"/>
<use data-text="e" xlink:href="#font_1_50" transform="matrix(9.9626,0,0,-9.963496,372.839,145.80297)" fill="#0000ff"/>
<path transform="matrix(1,0,0,-1.00009,34.870004,211.6679)" stroke-width=".3985" stroke-linecap="butt" stroke-miterlimit="10" stroke-linejoin="miter" fill="none" stroke="#000000" d="M340.1631 113.3877"/>
<path transform="matrix(1,0,0,-1.00009,34.870004,211.6679)" stroke-width="1.59404" stroke-linecap="butt" stroke-miterlimit="10" stroke-linejoin="miter" fill="none" stroke="#0000ff" d="M350.81105 113.39365C350.81105 119.26453 346.05186 124.0237 340.18098 124.0237 334.3101 124.0237 329.55094 119.26453 329.55094 113.39365 329.55094 107.52277 334.3101 102.7636 340.18098 102.7636 346.05186 102.7636 350.81105 107.52277 350.81105 113.39365ZM340.18098 113.39365"/>
<use data-text="e" xlink:href="#font_1_50" transform="matrix(9.9626,0,0,-9.963496,372.839,100.44088)" fill="#0000ff"/>
<path transform="matrix(1,0,0,-1.00009,34.870004,211.6679)" stroke-width=".3985" stroke-linecap="butt" stroke-miterlimit="10" stroke-linejoin="miter" fill="none" stroke="#000000" d="M340.1631 158.74277"/>
<path transform="matrix(1,0,0,-1.00009,34.870004,211.6679)" stroke-width="1.59404" stroke-linecap="butt" stroke-miterlimit="10" stroke-linejoin="miter" fill="none" stroke="#0000ff" d="M350.81105 158.7511C350.81105 164.622 346.05186 169.38115 340.18098 169.38115 334.3101 169.38115 329.55094 164.622 329.55094 158.7511 329.55094 152.88022 334.3101 148.12107 340.18098 148.12107 346.05186 148.12107 350.81105 152.88022 350.81105 158.7511ZM340.18098 158.7511"/>
<use data-text="e" xlink:href="#font_1_50" transform="matrix(9.9626,0,0,-9.963496,372.839,55.07979)" fill="#0000ff"/>
<path transform="matrix(1,0,0,-1.00009,34.870004,211.6679)" stroke-width="1.59404" stroke-linecap="butt" stroke-miterlimit="10" stroke-linejoin="miter" fill="none" stroke="#000000" d="M0 0V181.42032H181.42032V0ZM181.42032 181.42032"/>
<use data-text="p" xlink:href="#font_1_84" transform="matrix(9.9626,0,0,-9.963496,111.607,21.138749)"/>
<use data-text="-" xlink:href="#font_1_64" transform="matrix(9.9626,0,0,-9.963496,117.14621,21.138749)"/>
<use data-text="t" xlink:href="#font_1_105" transform="matrix(9.9626,0,0,-9.963496,120.46376,21.138749)"/>
<use data-text="y" xlink:href="#font_1_118" transform="matrix(9.9626,0,0,-9.963496,124.07022,21.138749)"/>
<use data-text="p" xlink:href="#font_1_84" transform="matrix(9.9626,0,0,-9.963496,129.33048,21.138749)"/>
<use data-text="e" xlink:href="#font_1_50" transform="matrix(9.9626,0,0,-9.963496,135.13867,21.138749)"/>
<path transform="matrix(1,0,0,-1.00009,34.870004,211.6679)" stroke-width="1.59404" stroke-linecap="butt" stroke-miterlimit="10" stroke-linejoin="miter" fill="none" stroke="#000000" d="M181.42032 0V181.42032H362.84065V0ZM362.84065 181.42032"/>
<use data-text="n" xlink:href="#font_1_77" transform="matrix(9.9626,0,0,-9.963496,293.037,21.138749)"/>
<use data-text="-" xlink:href="#font_1_64" transform="matrix(9.9626,0,0,-9.963496,298.5762,21.138749)"/>
<use data-text="t" xlink:href="#font_1_105" transform="matrix(9.9626,0,0,-9.963496,301.89375,21.138749)"/>
<use data-text="y" xlink:href="#font_1_118" transform="matrix(9.9626,0,0,-9.963496,305.5002,21.138749)"/>
<use data-text="p" xlink:href="#font_1_84" transform="matrix(9.9626,0,0,-9.963496,310.76048,21.138749)"/>
<use data-text="e" xlink:href="#font_1_50" transform="matrix(9.9626,0,0,-9.963496,316.56867,21.138749)"/>
<path transform="matrix(1,0,0,-1.00009,34.870004,211.6679)" stroke-width="1.59404" stroke-linecap="butt" stroke-miterlimit="10" stroke-linejoin="miter" fill="none" stroke="#000000" d="M-4.53577 0V181.42032"/>
<use data-text="+" xlink:href="#font_2_2" transform="matrix(14.943899,0,0,-14.945244,.8769989,19.783082)"/>
<use data-text="V" xlink:href="#font_3_2" transform="matrix(14.943899,0,0,-14.945244,12.500488,19.783082)"/>
<use data-text="a" xlink:href="#font_4_28" transform="matrix(10.4607,0,0,-10.461641,21.21701,22.025788)"/>
<use data-text="p" xlink:href="#font_4_84" transform="matrix(10.4607,0,0,-10.461641,27.169144,22.025788)"/>
<use data-text="p" xlink:href="#font_4_84" transform="matrix(10.4607,0,0,-10.461641,33.769838,22.025788)"/>
<use data-text="l" xlink:href="#font_4_72" transform="matrix(10.4607,0,0,-10.461641,40.370546,22.025788)"/>
<use data-text="i" xlink:href="#font_4_66" transform="matrix(10.4607,0,0,-10.461641,43.749345,22.025788)"/>
<use data-text="e" xlink:href="#font_4_50" transform="matrix(10.4607,0,0,-10.461641,47.128145,22.025788)"/>
<use data-text="d" xlink:href="#font_4_47" transform="matrix(10.4607,0,0,-10.461641,52.442186,22.025788)"/>
<path transform="matrix(1,0,0,-1.00009,34.870004,211.6679)" stroke-width="1.59404" stroke-linecap="butt" stroke-miterlimit="10" stroke-linejoin="miter" fill="none" stroke="#000000" d="M367.37644 0V181.42032"/>
<use data-text="&#x2212;" xlink:href="#font_5_1" transform="matrix(14.943899,0,0,-14.945244,372.789,19.783082)"/>
<use data-text="V" xlink:href="#font_3_2" transform="matrix(14.943899,0,0,-14.945244,384.4125,19.783082)"/>
<use data-text="a" xlink:href="#font_4_28" transform="matrix(10.4607,0,0,-10.461641,393.12904,22.025788)"/>
<use data-text="p" xlink:href="#font_4_84" transform="matrix(10.4607,0,0,-10.461641,399.08119,22.025788)"/>
<use data-text="p" xlink:href="#font_4_84" transform="matrix(10.4607,0,0,-10.461641,405.68186,22.025788)"/>
<use data-text="l" xlink:href="#font_4_72" transform="matrix(10.4607,0,0,-10.461641,412.28257,22.025788)"/>
<use data-text="i" xlink:href="#font_4_66" transform="matrix(10.4607,0,0,-10.461641,415.66139,22.025788)"/>
<use data-text="e" xlink:href="#font_4_50" transform="matrix(10.4607,0,0,-10.461641,419.04017,22.025788)"/>
<use data-text="d" xlink:href="#font_4_47" transform="matrix(10.4607,0,0,-10.461641,424.3542,22.025788)"/>
<path transform="matrix(1,0,0,-1.00009,34.870004,211.6679)" stroke-width="1.59404" stroke-linecap="butt" stroke-dasharray="2.98883,2.98883" stroke-miterlimit="10" stroke-linejoin="miter" fill="none" stroke="#0000ff" d="M136.06523 0V181.42032"/>
<path transform="matrix(1,0,0,-1.00009,34.870004,211.6679)" stroke-width="1.59404" stroke-linecap="butt" stroke-dasharray="2.98883,2.98883" stroke-miterlimit="10" stroke-linejoin="miter" fill="none" stroke="#0000ff" d="M226.77539 0V181.42032"/>
<path transform="matrix(1,0,0,-1.00009,34.870004,211.6679)" stroke-width="1.59404" stroke-linecap="butt" stroke-miterlimit="10" stroke-linejoin="miter" fill="none" stroke="#000000" d="M136.06523 185.71427C137.55959 188.70313 141.04662 190.69565 146.028 190.69565H171.45754C176.43892 190.69565 179.92595 192.68817 181.4203 195.67704 182.91466 192.68817 186.40169 190.69565 191.38307 190.69565H216.81262C221.794 190.69565 225.28104 188.70313 226.77539 185.71427"/>
<use data-text="&#x2206;" xlink:href="#font_2_1" transform="matrix(9.9626,0,0,-9.963496,209.29199,8.726624)"/>
<use data-text="x" xlink:href="#font_3_3" transform="matrix(9.9626,0,0,-9.963496,217.594,8.726624)"/>
<path transform="matrix(1,0,0,-1.00009,34.870004,211.6679)" stroke-width="1.59404" stroke-linecap="butt" stroke-miterlimit="10" stroke-linejoin="miter" fill="none" stroke="#0000ff" d="M204.09786-22.67752H165.55725"/>
<path transform="matrix(-1,-0,0,1.00009,200.42725,234.34746)" d="M6.81448 0C4.79533 .37857 1.51433 1.51433-.75716 2.83936V-2.83936C1.51433-1.51433 4.79533-.37857 6.81448 0" fill="#0000ff"/>
<use data-text="&#x20d7;" xlink:href="#font_3_4" transform="matrix(9.9626,0,0,-9.963496,211.828,225.93717)" fill="#0000ff"/>
<use data-text="E" xlink:href="#font_3_1" transform="matrix(9.9626,0,0,-9.963496,210.29,228.4554)" fill="#0000ff"/>
<use data-text="d" xlink:href="#font_6_1" transform="matrix(6.9738,0,0,-6.9744279,217.644,229.95053)" fill="#0000ff"/>
<path transform="matrix(1,0,0,-1.00009,34.870004,211.6679)" stroke-width="1.59404" stroke-linecap="butt" stroke-miterlimit="10" stroke-linejoin="miter" fill="none" stroke="#0000ff" d="M90.71016-34.0163H265.31599"/>
<path transform="matrix(1,0,0,-1.00009,300.18598,245.68726)" d="M6.81448 0C4.79533 .37857 1.51433 1.51433-.75716 2.83936V-2.83936C1.51433-1.51433 4.79533-.37857 6.81448 0" fill="#0000ff"/>
<use data-text="&#x20d7;" xlink:href="#font_3_4" transform="matrix(9.9626,0,0,-9.963496,201.293,256.52693)" fill="#0000ff"/>
<use data-text="E" xlink:href="#font_3_1" transform="matrix(9.9626,0,0,-9.963496,199.75499,259.04518)" fill="#0000ff"/>
<use data-text="a" xlink:href="#font_4_28" transform="matrix(6.9738,0,0,-6.9744279,207.109,260.54029)" fill="#0000ff"/>
<use data-text="p" xlink:href="#font_4_84" transform="matrix(6.9738,0,0,-6.9744279,211.07709,260.54029)" fill="#0000ff"/>
<use data-text="p" xlink:href="#font_4_84" transform="matrix(6.9738,0,0,-6.9744279,215.47756,260.54029)" fill="#0000ff"/>
<use data-text="l" xlink:href="#font_4_72" transform="matrix(6.9738,0,0,-6.9744279,219.87802,260.54029)" fill="#0000ff"/>
<use data-text="i" xlink:href="#font_4_66" transform="matrix(6.9738,0,0,-6.9744279,222.13056,260.54029)" fill="#0000ff"/>
<use data-text="e" xlink:href="#font_4_50" transform="matrix(6.9738,0,0,-6.9744279,224.38309,260.54029)" fill="#0000ff"/>
<use data-text="d" xlink:href="#font_4_47" transform="matrix(6.9738,0,0,-6.9744279,227.92578,260.54029)" fill="#0000ff"/>
</svg>
