<svg xmlns="http://www.w3.org/2000/svg" xmlns:xlink="http://www.w3.org/1999/xlink" xmlns:inkscape="http://www.inkscape.org/namespaces/inkscape" version="1.1" width="86" height="36" viewBox="0 0 86 36">
<defs>
<path id="font_1_27" d="M.71699526 0V.0309906H.69898989C.6389923 .0309906 .625 .037979127 .6139984 .07095337L.397995 .6958008C.3929901 .7088165 .3909912 .7158203 .375 .7158203 .35899354 .7158203 .35598756 .70980837 .35099793 .6958008L.14399719 .09791565C.12599182 .04698181 .085998538 .03199768 .03199768 .0309906V0L.13398743 .0029907227 .24899292 0V.0309906C.19898987 .0309906 .17399597 .05596924 .17399597 .0819397 .17399597 .08493042 .1749878 .09492493 .17599488 .09692383L.22200012 .2277832H.46899415L.5219879 .07495117C.522995 .07095337 .5249939 .064956668 .5249939 .060958864 .5249939 .0309906 .46899415 .0309906 .44198609 .0309906V0C.47799684 .0029907227 .5479889 .0029907227 .58599856 .0029907227L.71699526 0M.45799256 .25878907H.23298645L.34498597 .58380129 .45799256 .25878907Z"/>
<path id="font_1_34" d="M.651001 .18289185C.651001 .26983644 .56900027 .34480287 .45799256 .35679627 .5549927 .3757782 .6239929 .43974305 .6239929 .51368716 .6239929 .6006317 .5319977 .6826172 .4019928 .6826172H.035995485V.6516113H.05999756C.13699341 .6516113 .13899231 .64060977 .13899231 .6046295V.07795715C.13899231 .041992189 .13699341 .0309906 .05999756 .0309906H.035995485V0H.42799378C.5609894-.0002593994 .651001 .08874512 .651001 .18273926V.18289185M.5269928 .5136719C.5269928 .44970704 .47799684 .36573792 .36698915 .36573792H.22200012V.6116333C.22200012 .64460757 .22399903 .6516113 .2709961 .6516113H.394989C.49198915 .65174868 .5269928 .56674197 .5269928 .51374819V.5136719M.5509949 .18386841C.5509949 .1129303 .49899293 .0309906 .3959961 .0309906H.2709961C.22399903 .0309906 .22200012 .037994386 .22200012 .07095337V.34375H.4099884C.5089874 .34399415 .5509949 .25099183 .5509949 .18399048V.18386841Z"/>
<path id="font_1_117" d="M.73799136 .6516113V.6826172C.70700076 .680603 .6669922 .6796112 .6399994 .6796112L.5249939 .6826172V.6516113C.56599429 .6516113 .58200076 .63261416 .58200076 .6126251 .58200076 .6016388 .57598879 .5886383 .57199099 .5826416L.40699769 .31481935 .22599793 .6096344C.21899414 .6196289 .21899414 .6216278 .21899414 .62661746 .21899414 .6476135 .24398804 .6516113 .2889862 .6516113V.6826172C.25299073 .6796112 .17999268 .6796112 .14099121 .6796112L.010986328 .6826172V.6516113H.0289917C.09700012 .6516113 .10499573 .64060977 .12098694 .614624L.33099366 .2728424V.07795715C.33099366 .041992189 .32899476 .0309906 .2519989 .0309906H.22799683V0C.2639923 .0029907227 .33499146 .0029907227 .37399293 .0029907227 .41299439 .0029907227 .48399354 .0029907227 .519989 0V.0309906H.49699403C.41999818 .0309906 .4169922 .040985109 .4169922 .079956058V.2728424L.6100006 .5866394C.6469879 .6476135 .70599368 .6516113 .73799136 .6516113Z"/>
</defs>
<path transform="matrix(1.00002,0,0,-1.00005,42.857568,18.20011)" stroke-width=".3985" stroke-linecap="butt" stroke-miterlimit="10" stroke-linejoin="miter" fill="none" stroke="#000000" d="M30.64835 0"/>
<path transform="matrix(1.00002,0,0,-1.00005,42.857568,18.20011)" stroke-width=".3985" stroke-linecap="butt" stroke-miterlimit="10" stroke-linejoin="miter" fill="none" stroke="#000000" d="M-20.48512 7.93695H-30.64835"/>
<path transform="matrix(1.00002,0,0,-1.00005,42.857568,18.20011)" stroke-width=".3985" stroke-linecap="butt" stroke-miterlimit="10" stroke-linejoin="miter" fill="none" stroke="#000000" d="M-20.48512-7.93695H-30.64835"/>
<path transform="matrix(1.00002,0,0,-1.00005,42.857568,18.20011)" stroke-width=".797" stroke-linecap="butt" stroke-miterlimit="10" stroke-linejoin="miter" fill="none" stroke="#000000" d="M-19.53711 15.8739H-8.85695C2.80333 16.20137 13.70792 10.10574 19.53564 .00096 13.7084-10.10332 2.80284-16.19942-8.85646-15.87244L-22.89082-15.8739C-18.26643-5.9054-18.26643 5.90521-22.89082 15.87372Z"/>
<path transform="matrix(1.00002,0,0,-1.00005,42.857568,18.20011)" stroke-width=".3985" stroke-linecap="butt" stroke-miterlimit="10" stroke-linejoin="miter" fill="none" stroke="#000000" d="M19.53711 0H30.64835"/>
<use data-text="A" xlink:href="#font_1_27" transform="matrix(9.962799,0,0,-9.963098,1.2167282,13.829891)"/>
<use data-text="B" xlink:href="#font_1_34" transform="matrix(9.962799,0,0,-9.963098,1.6347427,29.539677)"/>
<use data-text="Y" xlink:href="#font_1_117" transform="matrix(9.962799,0,0,-9.963098,77.026248,21.60228)"/>
<path transform="matrix(1.00002,0,0,-1.00005,42.857568,18.20011)" d="M-20.48512-7.93695C-20.48512-7.06038-21.19571-6.3498-22.07228-6.3498-22.94884-6.3498-23.65942-7.06038-23.65942-7.93695-23.65942-8.8135-22.94884-9.5241-22.07228-9.5241-21.19571-9.5241-20.48512-8.8135-20.48512-7.93695ZM-22.07228-7.93695" fill="#ffffff"/>
<path transform="matrix(1.00002,0,0,-1.00005,42.857568,18.20011)" stroke-width=".3985" stroke-linecap="butt" stroke-miterlimit="10" stroke-linejoin="miter" fill="none" stroke="#000000" d="M-20.48512-7.93695C-20.48512-7.06038-21.19571-6.3498-22.07228-6.3498-22.94884-6.3498-23.65942-7.06038-23.65942-7.93695-23.65942-8.8135-22.94884-9.5241-22.07228-9.5241-21.19571-9.5241-20.48512-8.8135-20.48512-7.93695ZM-22.07228-7.93695"/>
<path transform="matrix(1.00002,0,0,-1.00005,42.857568,18.20011)" d="" fill="#ffffff"/>
<path transform="matrix(1.00002,0,0,-1.00005,42.857568,18.20011)" stroke-width=".3985" stroke-linecap="butt" stroke-miterlimit="10" stroke-linejoin="miter" fill="none" stroke="#000000" d=""/>
</svg>
