<svg xmlns="http://www.w3.org/2000/svg" xmlns:xlink="http://www.w3.org/1999/xlink" xmlns:inkscape="http://www.inkscape.org/namespaces/inkscape" version="1.1" width="368" height="205" viewBox="0 0 368 205">
<defs>
<path id="font_1_50" d="M.3849945 .25134278C.3849945 .35336305 .33099366 .4423828 .21699524 .4423828 .11099243 .4423828 .026992798 .34135438 .026992798 .21833802 .026992798 .08824158 .12199402-.0078125 .22799683-.0078125 .33999635-.0078125 .38398744 .09825134 .38398744 .119262699 .38398744 .12626648 .37599183 .12626648 .37599183 .12626648 .36898805 .12626648 .36799623 .12426758 .3639984 .11225891 .34199525 .044204713 .2869873 .010177612 .23498535 .010177612 .19198609 .010177612 .14898682 .034194948 .12199402 .07823181 .09098816 .12927246 .09098816 .18830872 .09098816 .23535156H.3809967C.3849945 .23934937 .3849945 .24134827 .3849945 .25134278M.33099366 .25035096H.09199524C.09899902 .3943634 .17599488 .42637635 .21598816 .42637635 .28399659 .42637635 .32998658 .36236573 .33099366 .25035096Z"/>
<path id="font_1_84" d="M.47698976 .2162323C.47698976 .34222413 .3899994 .43847657 .2869873 .43847657 .22698975 .43847657 .17799378 .4053955 .1499939 .36523438V.43847657L.0309906 .4273529V.4013672C.08999634 .4013672 .09899902 .39533998 .09899902 .347229V-.12591553C.09899902-.16395569 .09498596-.16894531 .0309906-.16894531V-.19494629C.054992677-.19294739 .09899902-.19294739 .125-.19294739 .15098572-.19294739 .19599915-.19294739 .21998596-.19494629V-.16894531C.1559906-.16894531 .1519928-.16494751 .1519928-.12591553V.061187746C.18099976 .019180298 .22299195-.0078125 .27598573-.0078125 .37599183-.0078125 .47698976 .08018494 .47698976 .21620178V.2162323M.41299439 .21520996C.41299439 .10119629 .34899903 .008178711 .269989 .008178711 .23399353 .008178711 .19499207 .025177002 .16499329 .07218933 .1519928 .094192508 .1519928 .10018921 .1519928 .11619568V.31422425C.1519928 .32821656 .1519928 .3492279 .19099427 .38630677 .19599915 .3904724 .22999573 .4204712 .27999879 .4204712 .35299684 .4204712 .41299439 .32946778 .41299439 .21546936V.21520996Z"/>
<path id="font_1_64" d="M.25498963 .19329834V.23730469H.0039978029V.19329834H.25498963Z"/>
<path id="font_1_105" d="M.30699159 .1240387V.18096924H.2889862V.12503052C.2889862 .056121828 .2619934 .010177612 .21998596 .010177612 .19099427 .010177612 .15098572 .030151368 .15098572 .121032718V.40368653H.29100038V.4296875H.15098572V.6142578H.1329956C.1309967 .51148989 .09599304 .42167665 .010986328 .41967774V.40368653H.09799194V.123031619C.09799194 .10406494 .09799194-.0078125 .21398926-.0078125 .272995-.0078125 .30699159 .050125123 .30699159 .1240387Z"/>
<path id="font_1_118" d="M.47399903 .40368653V.4296875L.41099549 .42767335C.3899994 .42767335 .35699464 .42767335 .33699037 .4296875V.40368653C.375 .40068055 .37599183 .37269593 .37599183 .36470033 .37599183 .3547058 .37399293 .34970094 .36898805 .33770753L.2599945 .0677948 .14099121 .35969544C.13598633 .37168885 .13598633 .37968446 .13598633 .37968446 .13598633 .40168763 .15899658 .40368653 .18299866 .40368653V.4296875C.15899658 .42767335 .115997318 .42767335 .09098816 .42767335 .06399536 .42767335 .03199768 .42767335 .009994507 .4296875V.40368653C.06399536 .40368653 .069992069 .39868165 .08299255 .36669923L.23199463-.00018310547C.18699646-.1181488 .16099549-.18713379 .09799194-.18713379 .08699036-.18713379 .06199646-.18412781 .04399109-.1661377 .066986087-.1641388 .07699585-.15014649 .07699585-.1331482 .07699585-.1161499 .06498718-.10116577 .04499817-.10116577 .022994996-.10116577 .011993408-.1161499 .011993408-.13415528 .011993408-.1741333 .052993776-.203125 .09799194-.203125 .1559906-.203125 .19198609-.1471405 .21199036-.09716797L.3899994 .34170533C.4149933 .40267945 .45999146 .40368653 .47399903 .40368653Z"/>
<path id="font_1_77" d="M.48298646 0V.025985718C.4189911 .025985718 .4149933 .02999878 .4149933 .06904602V.3043213C.4149933 .35539247 .40499879 .43847657 .2869873 .43847657 .20799256 .43847657 .16699219 .3774109 .1519928 .33737184H.15098572V.43847657L.032989503 .4273529V.4013672C.09199524 .4013672 .100997928 .39535523 .100997928 .3473053V.06903076C.100997928 .0309906 .09700012 .025985718 .032989503 .025985718V0C.056991579 .0019989014 .100997928 .0019989014 .1269989 .0019989014 .15299988 .0019989014 .19799805 .0019989014 .22200012 0V.025985718C.1579895 .025985718 .1539917 .02999878 .1539917 .06903076V.26123048C.1539917 .35339356 .20999146 .4224701 .27999879 .4224701 .35398866 .4224701 .3619995 .35638429 .3619995 .30833436V.06904602C.3619995 .03100586 .35798646 .025985718 .2939911 .025985718V0C.31799317 .0019989014 .3619995 .0019989014 .3880005 .0019989014 .4139862 .0019989014 .45899964 .0019989014 .48298646 0Z"/>
</defs>
<path transform="matrix(1,0,0,-1.00005,2.6940003,202.76953)" stroke-width=".3985" stroke-linecap="butt" stroke-miterlimit="10" stroke-linejoin="miter" fill="none" stroke="#000000" d="M22.67752 22.67752"/>
<path transform="matrix(1,0,0,-1.00005,2.6940003,202.76953)" stroke-width="1.59404" stroke-linecap="butt" stroke-miterlimit="10" stroke-linejoin="miter" fill="none" stroke="#0000ff" d="M33.30875 22.6787C33.30875 28.54958 28.54958 33.30875 22.6787 33.30875 16.80782 33.30875 12.04866 28.54958 12.04866 22.6787 12.04866 16.80782 16.80782 12.04866 22.6787 12.04866 28.54958 12.04866 33.30875 16.80782 33.30875 22.6787ZM22.6787 22.6787"/>
<path transform="matrix(1,0,0,-1.00005,2.6940003,202.76953)" stroke-width=".3985" stroke-linecap="butt" stroke-miterlimit="10" stroke-linejoin="miter" fill="none" stroke="#000000" d="M22.67752 68.03261"/>
<path transform="matrix(1,0,0,-1.00005,2.6940003,202.76953)" stroke-width="1.59404" stroke-linecap="butt" stroke-miterlimit="10" stroke-linejoin="miter" fill="none" stroke="#0000ff" d="M33.30875 68.03616C33.30875 73.90704 28.54958 78.6662 22.6787 78.6662 16.80782 78.6662 12.04866 73.90704 12.04866 68.03616 12.04866 62.16527 16.80782 57.40611 22.6787 57.40611 28.54958 57.40611 33.30875 62.16527 33.30875 68.03616ZM22.6787 68.03616"/>
<path transform="matrix(1,0,0,-1.00005,2.6940003,202.76953)" stroke-width=".3985" stroke-linecap="butt" stroke-miterlimit="10" stroke-linejoin="miter" fill="none" stroke="#000000" d="M22.67752 113.3877"/>
<path transform="matrix(1,0,0,-1.00005,2.6940003,202.76953)" stroke-width="1.59404" stroke-linecap="butt" stroke-miterlimit="10" stroke-linejoin="miter" fill="none" stroke="#0000ff" d="M33.30875 113.39365C33.30875 119.26453 28.54958 124.0237 22.6787 124.0237 16.80782 124.0237 12.04866 119.26453 12.04866 113.39365 12.04866 107.52277 16.80782 102.7636 22.6787 102.7636 28.54958 102.7636 33.30875 107.52277 33.30875 113.39365ZM22.6787 113.39365"/>
<path transform="matrix(1,0,0,-1.00005,2.6940003,202.76953)" stroke-width=".3985" stroke-linecap="butt" stroke-miterlimit="10" stroke-linejoin="miter" fill="none" stroke="#000000" d="M22.67752 158.74277"/>
<path transform="matrix(1,0,0,-1.00005,2.6940003,202.76953)" stroke-width="1.59404" stroke-linecap="butt" stroke-miterlimit="10" stroke-linejoin="miter" fill="none" stroke="#0000ff" d="M33.30875 158.7511C33.30875 164.622 28.54958 169.38115 22.6787 169.38115 16.80782 169.38115 12.04866 164.622 12.04866 158.7511 12.04866 152.88022 16.80782 148.12107 22.6787 148.12107 28.54958 148.12107 33.30875 152.88022 33.30875 158.7511ZM22.6787 158.7511"/>
<path transform="matrix(1,0,0,-1.00005,2.6940003,202.76953)" stroke-width=".3985" stroke-linecap="butt" stroke-miterlimit="10" stroke-linejoin="miter" fill="none" stroke="#000000" d="M68.03261 22.67752"/>
<path transform="matrix(1,0,0,-1.00005,2.6940003,202.76953)" stroke-width="1.59404" stroke-linecap="butt" stroke-miterlimit="10" stroke-linejoin="miter" fill="none" stroke="#0000ff" d="M78.6662 22.6787C78.6662 28.54958 73.90704 33.30875 68.03616 33.30875 62.16527 33.30875 57.40611 28.54958 57.40611 22.6787 57.40611 16.80782 62.16527 12.04866 68.03616 12.04866 73.90704 12.04866 78.6662 16.80782 78.6662 22.6787ZM68.03616 22.6787"/>
<path transform="matrix(1,0,0,-1.00005,2.6940003,202.76953)" stroke-width=".3985" stroke-linecap="butt" stroke-miterlimit="10" stroke-linejoin="miter" fill="none" stroke="#000000" d="M68.03261 68.03261"/>
<path transform="matrix(1,0,0,-1.00005,2.6940003,202.76953)" stroke-width="1.59404" stroke-linecap="butt" stroke-miterlimit="10" stroke-linejoin="miter" fill="none" stroke="#0000ff" d="M78.6662 68.03616C78.6662 73.90704 73.90704 78.6662 68.03616 78.6662 62.16527 78.6662 57.40611 73.90704 57.40611 68.03616 57.40611 62.16527 62.16527 57.40611 68.03616 57.40611 73.90704 57.40611 78.6662 62.16527 78.6662 68.03616ZM68.03616 68.03616"/>
<path transform="matrix(1,0,0,-1.00005,2.6940003,202.76953)" stroke-width=".3985" stroke-linecap="butt" stroke-miterlimit="10" stroke-linejoin="miter" fill="none" stroke="#000000" d="M68.03261 113.3877"/>
<path transform="matrix(1,0,0,-1.00005,2.6940003,202.76953)" stroke-width="1.59404" stroke-linecap="butt" stroke-miterlimit="10" stroke-linejoin="miter" fill="none" stroke="#0000ff" d="M78.6662 113.39365C78.6662 119.26453 73.90704 124.0237 68.03616 124.0237 62.16527 124.0237 57.40611 119.26453 57.40611 113.39365 57.40611 107.52277 62.16527 102.7636 68.03616 102.7636 73.90704 102.7636 78.6662 107.52277 78.6662 113.39365ZM68.03616 113.39365"/>
<path transform="matrix(1,0,0,-1.00005,2.6940003,202.76953)" stroke-width=".3985" stroke-linecap="butt" stroke-miterlimit="10" stroke-linejoin="miter" fill="none" stroke="#000000" d="M68.03261 158.74277"/>
<path transform="matrix(1,0,0,-1.00005,2.6940003,202.76953)" stroke-width="1.59404" stroke-linecap="butt" stroke-miterlimit="10" stroke-linejoin="miter" fill="none" stroke="#0000ff" d="M78.6662 158.7511C78.6662 164.622 73.90704 169.38115 68.03616 169.38115 62.16527 169.38115 57.40611 164.622 57.40611 158.7511 57.40611 152.88022 62.16527 148.12107 68.03616 148.12107 73.90704 148.12107 78.6662 152.88022 78.6662 158.7511ZM68.03616 158.7511"/>
<path transform="matrix(1,0,0,-1.00005,2.6940003,202.76953)" stroke-width=".3985" stroke-linecap="butt" stroke-miterlimit="10" stroke-linejoin="miter" fill="none" stroke="#000000" d="M113.3877 22.67752"/>
<path transform="matrix(1,0,0,-1.00005,2.6940003,202.76953)" stroke-width="1.59404" stroke-linecap="butt" stroke-miterlimit="10" stroke-linejoin="miter" fill="none" stroke="#0000ff" d="M124.0237 22.6787C124.0237 28.54958 119.26453 33.30875 113.39365 33.30875 107.52277 33.30875 102.7636 28.54958 102.7636 22.6787 102.7636 16.80782 107.52277 12.04866 113.39365 12.04866 119.26453 12.04866 124.0237 16.80782 124.0237 22.6787ZM113.39365 22.6787"/>
<path transform="matrix(1,0,0,-1.00005,2.6940003,202.76953)" stroke-width=".3985" stroke-linecap="butt" stroke-miterlimit="10" stroke-linejoin="miter" fill="none" stroke="#000000" d="M113.3877 68.03261"/>
<path transform="matrix(1,0,0,-1.00005,2.6940003,202.76953)" stroke-width="1.59404" stroke-linecap="butt" stroke-miterlimit="10" stroke-linejoin="miter" fill="none" stroke="#0000ff" d="M124.0237 68.03616C124.0237 73.90704 119.26453 78.6662 113.39365 78.6662 107.52277 78.6662 102.7636 73.90704 102.7636 68.03616 102.7636 62.16527 107.52277 57.40611 113.39365 57.40611 119.26453 57.40611 124.0237 62.16527 124.0237 68.03616ZM113.39365 68.03616"/>
<path transform="matrix(1,0,0,-1.00005,2.6940003,202.76953)" stroke-width=".3985" stroke-linecap="butt" stroke-miterlimit="10" stroke-linejoin="miter" fill="none" stroke="#000000" d="M113.3877 113.3877"/>
<path transform="matrix(1,0,0,-1.00005,2.6940003,202.76953)" stroke-width="1.59404" stroke-linecap="butt" stroke-miterlimit="10" stroke-linejoin="miter" fill="none" stroke="#0000ff" d="M124.0237 113.39365C124.0237 119.26453 119.26453 124.0237 113.39365 124.0237 107.52277 124.0237 102.7636 119.26453 102.7636 113.39365 102.7636 107.52277 107.52277 102.7636 113.39365 102.7636 119.26453 102.7636 124.0237 107.52277 124.0237 113.39365ZM113.39365 113.39365"/>
<path transform="matrix(1,0,0,-1.00005,2.6940003,202.76953)" stroke-width=".3985" stroke-linecap="butt" stroke-miterlimit="10" stroke-linejoin="miter" fill="none" stroke="#000000" d="M113.3877 158.74277"/>
<path transform="matrix(1,0,0,-1.00005,2.6940003,202.76953)" stroke-width="1.59404" stroke-linecap="butt" stroke-miterlimit="10" stroke-linejoin="miter" fill="none" stroke="#0000ff" d="M124.0237 158.7511C124.0237 164.622 119.26453 169.38115 113.39365 169.38115 107.52277 169.38115 102.7636 164.622 102.7636 158.7511 102.7636 152.88022 107.52277 148.12107 113.39365 148.12107 119.26453 148.12107 124.0237 152.88022 124.0237 158.7511ZM113.39365 158.7511"/>
<path transform="matrix(1,0,0,-1.00005,2.6940003,202.76953)" stroke-width=".3985" stroke-linecap="butt" stroke-miterlimit="10" stroke-linejoin="miter" fill="none" stroke="#000000" d="M158.74277 22.67752"/>
<path transform="matrix(1,0,0,-1.00005,2.6940003,202.76953)" stroke-width="1.59404" stroke-linecap="butt" stroke-miterlimit="10" stroke-linejoin="miter" fill="none" stroke="#0000ff" d="M169.38115 22.6787C169.38115 28.54958 164.622 33.30875 158.7511 33.30875 152.88022 33.30875 148.12107 28.54958 148.12107 22.6787 148.12107 16.80782 152.88022 12.04866 158.7511 12.04866 164.622 12.04866 169.38115 16.80782 169.38115 22.6787ZM158.7511 22.6787"/>
<path transform="matrix(1,0,0,-1.00005,2.6940003,202.76953)" stroke-width=".3985" stroke-linecap="butt" stroke-miterlimit="10" stroke-linejoin="miter" fill="none" stroke="#000000" d="M158.74277 68.03261"/>
<path transform="matrix(1,0,0,-1.00005,2.6940003,202.76953)" stroke-width="1.59404" stroke-linecap="butt" stroke-miterlimit="10" stroke-linejoin="miter" fill="none" stroke="#0000ff" d="M169.38115 68.03616C169.38115 73.90704 164.622 78.6662 158.7511 78.6662 152.88022 78.6662 148.12107 73.90704 148.12107 68.03616 148.12107 62.16527 152.88022 57.40611 158.7511 57.40611 164.622 57.40611 169.38115 62.16527 169.38115 68.03616ZM158.7511 68.03616"/>
<path transform="matrix(1,0,0,-1.00005,2.6940003,202.76953)" stroke-width=".3985" stroke-linecap="butt" stroke-miterlimit="10" stroke-linejoin="miter" fill="none" stroke="#000000" d="M158.74277 113.3877"/>
<path transform="matrix(1,0,0,-1.00005,2.6940003,202.76953)" stroke-width="1.59404" stroke-linecap="butt" stroke-miterlimit="10" stroke-linejoin="miter" fill="none" stroke="#0000ff" d="M169.38115 113.39365C169.38115 119.26453 164.622 124.0237 158.7511 124.0237 152.88022 124.0237 148.12107 119.26453 148.12107 113.39365 148.12107 107.52277 152.88022 102.7636 158.7511 102.7636 164.622 102.7636 169.38115 107.52277 169.38115 113.39365ZM158.7511 113.39365"/>
<path transform="matrix(1,0,0,-1.00005,2.6940003,202.76953)" stroke-width=".3985" stroke-linecap="butt" stroke-miterlimit="10" stroke-linejoin="miter" fill="none" stroke="#000000" d="M158.74277 158.74277"/>
<path transform="matrix(1,0,0,-1.00005,2.6940003,202.76953)" stroke-width="1.59404" stroke-linecap="butt" stroke-miterlimit="10" stroke-linejoin="miter" fill="none" stroke="#0000ff" d="M169.38115 158.7511C169.38115 164.622 164.622 169.38115 158.7511 169.38115 152.88022 169.38115 148.12107 164.622 148.12107 158.7511 148.12107 152.88022 152.88022 148.12107 158.7511 148.12107 164.622 148.12107 169.38115 152.88022 169.38115 158.7511ZM158.7511 158.7511"/>
<path transform="matrix(1,0,0,-1.00005,2.6940003,202.76953)" stroke-width=".3985" stroke-linecap="butt" stroke-miterlimit="10" stroke-linejoin="miter" fill="none" stroke="#000000" d="M204.09786 22.67752"/>
<use data-text="e" xlink:href="#font_1_50" transform="matrix(24.7871,0,0,-24.788338,201.771,185.46868)" fill="#0000ff"/>
<path transform="matrix(1,0,0,-1.00005,2.6940003,202.76953)" stroke-width=".3985" stroke-linecap="butt" stroke-miterlimit="10" stroke-linejoin="miter" fill="none" stroke="#000000" d="M204.09786 68.03261"/>
<use data-text="e" xlink:href="#font_1_50" transform="matrix(24.7871,0,0,-24.788338,201.771,140.1094)" fill="#0000ff"/>
<path transform="matrix(1,0,0,-1.00005,2.6940003,202.76953)" stroke-width=".3985" stroke-linecap="butt" stroke-miterlimit="10" stroke-linejoin="miter" fill="none" stroke="#000000" d="M204.09786 113.3877"/>
<use data-text="e" xlink:href="#font_1_50" transform="matrix(24.7871,0,0,-24.788338,201.771,94.74914)" fill="#0000ff"/>
<path transform="matrix(1,0,0,-1.00005,2.6940003,202.76953)" stroke-width=".3985" stroke-linecap="butt" stroke-miterlimit="10" stroke-linejoin="miter" fill="none" stroke="#000000" d="M204.09786 158.74277"/>
<use data-text="e" xlink:href="#font_1_50" transform="matrix(24.7871,0,0,-24.788338,201.771,49.389879)" fill="#0000ff"/>
<path transform="matrix(1,0,0,-1.00005,2.6940003,202.76953)" stroke-width=".3985" stroke-linecap="butt" stroke-miterlimit="10" stroke-linejoin="miter" fill="none" stroke="#000000" d="M249.45293 22.67752"/>
<use data-text="e" xlink:href="#font_1_50" transform="matrix(24.7871,0,0,-24.788338,247.128,185.46868)" fill="#0000ff"/>
<path transform="matrix(1,0,0,-1.00005,2.6940003,202.76953)" stroke-width=".3985" stroke-linecap="butt" stroke-miterlimit="10" stroke-linejoin="miter" fill="none" stroke="#000000" d="M249.45293 68.03261"/>
<use data-text="e" xlink:href="#font_1_50" transform="matrix(24.7871,0,0,-24.788338,247.128,140.1094)" fill="#0000ff"/>
<path transform="matrix(1,0,0,-1.00005,2.6940003,202.76953)" stroke-width=".3985" stroke-linecap="butt" stroke-miterlimit="10" stroke-linejoin="miter" fill="none" stroke="#000000" d="M249.45293 113.3877"/>
<use data-text="e" xlink:href="#font_1_50" transform="matrix(24.7871,0,0,-24.788338,247.128,94.74914)" fill="#0000ff"/>
<path transform="matrix(1,0,0,-1.00005,2.6940003,202.76953)" stroke-width=".3985" stroke-linecap="butt" stroke-miterlimit="10" stroke-linejoin="miter" fill="none" stroke="#000000" d="M249.45293 158.74277"/>
<use data-text="e" xlink:href="#font_1_50" transform="matrix(24.7871,0,0,-24.788338,247.128,49.389879)" fill="#0000ff"/>
<path transform="matrix(1,0,0,-1.00005,2.6940003,202.76953)" stroke-width=".3985" stroke-linecap="butt" stroke-miterlimit="10" stroke-linejoin="miter" fill="none" stroke="#000000" d="M294.808 22.67752"/>
<use data-text="e" xlink:href="#font_1_50" transform="matrix(24.7871,0,0,-24.788338,292.486,185.46868)" fill="#0000ff"/>
<path transform="matrix(1,0,0,-1.00005,2.6940003,202.76953)" stroke-width=".3985" stroke-linecap="butt" stroke-miterlimit="10" stroke-linejoin="miter" fill="none" stroke="#000000" d="M294.808 68.03261"/>
<use data-text="e" xlink:href="#font_1_50" transform="matrix(24.7871,0,0,-24.788338,292.486,140.1094)" fill="#0000ff"/>
<path transform="matrix(1,0,0,-1.00005,2.6940003,202.76953)" stroke-width=".3985" stroke-linecap="butt" stroke-miterlimit="10" stroke-linejoin="miter" fill="none" stroke="#000000" d="M294.808 113.3877"/>
<use data-text="e" xlink:href="#font_1_50" transform="matrix(24.7871,0,0,-24.788338,292.486,94.74914)" fill="#0000ff"/>
<path transform="matrix(1,0,0,-1.00005,2.6940003,202.76953)" stroke-width=".3985" stroke-linecap="butt" stroke-miterlimit="10" stroke-linejoin="miter" fill="none" stroke="#000000" d="M294.808 158.74277"/>
<use data-text="e" xlink:href="#font_1_50" transform="matrix(24.7871,0,0,-24.788338,292.486,49.389879)" fill="#0000ff"/>
<path transform="matrix(1,0,0,-1.00005,2.6940003,202.76953)" stroke-width=".3985" stroke-linecap="butt" stroke-miterlimit="10" stroke-linejoin="miter" fill="none" stroke="#000000" d="M340.1631 22.67752"/>
<use data-text="e" xlink:href="#font_1_50" transform="matrix(24.7871,0,0,-24.788338,337.843,185.46868)" fill="#0000ff"/>
<path transform="matrix(1,0,0,-1.00005,2.6940003,202.76953)" stroke-width=".3985" stroke-linecap="butt" stroke-miterlimit="10" stroke-linejoin="miter" fill="none" stroke="#000000" d="M340.1631 68.03261"/>
<use data-text="e" xlink:href="#font_1_50" transform="matrix(24.7871,0,0,-24.788338,337.843,140.1094)" fill="#0000ff"/>
<path transform="matrix(1,0,0,-1.00005,2.6940003,202.76953)" stroke-width=".3985" stroke-linecap="butt" stroke-miterlimit="10" stroke-linejoin="miter" fill="none" stroke="#000000" d="M340.1631 113.3877"/>
<use data-text="e" xlink:href="#font_1_50" transform="matrix(24.7871,0,0,-24.788338,337.843,94.74914)" fill="#0000ff"/>
<path transform="matrix(1,0,0,-1.00005,2.6940003,202.76953)" stroke-width=".3985" stroke-linecap="butt" stroke-miterlimit="10" stroke-linejoin="miter" fill="none" stroke="#000000" d="M340.1631 158.74277"/>
<use data-text="e" xlink:href="#font_1_50" transform="matrix(24.7871,0,0,-24.788338,337.843,49.389879)" fill="#0000ff"/>
<path transform="matrix(1,0,0,-1.00005,2.6940003,202.76953)" stroke-width="1.59404" stroke-linecap="butt" stroke-miterlimit="10" stroke-linejoin="miter" fill="none" stroke="#000000" d="M0 0V181.42032H181.42032V0ZM181.42032 181.42032"/>
<use data-text="p" xlink:href="#font_1_84" transform="matrix(20.6625,0,0,-20.663533,66.863,13.625092)"/>
<use data-text="-" xlink:href="#font_1_64" transform="matrix(20.6625,0,0,-20.663533,77.42154,13.625092)"/>
<use data-text="t" xlink:href="#font_1_105" transform="matrix(20.6625,0,0,-20.663533,83.66161,13.625092)"/>
<use data-text="y" xlink:href="#font_1_118" transform="matrix(20.6625,0,0,-20.663533,90.43891,13.625092)"/>
<use data-text="p" xlink:href="#font_1_84" transform="matrix(20.6625,0,0,-20.663533,100.46023,13.625092)"/>
<use data-text="e" xlink:href="#font_1_50" transform="matrix(20.6625,0,0,-20.663533,111.53533,13.625092)"/>
<path transform="matrix(1,0,0,-1.00005,2.6940003,202.76953)" stroke-width="1.59404" stroke-linecap="butt" stroke-miterlimit="10" stroke-linejoin="miter" fill="none" stroke="#000000" d="M181.42032 0V181.42032H362.84065V0ZM362.84065 181.42032"/>
<use data-text="n" xlink:href="#font_1_77" transform="matrix(20.6625,0,0,-20.663533,248.283,13.625092)"/>
<use data-text="-" xlink:href="#font_1_64" transform="matrix(20.6625,0,0,-20.663533,258.84156,13.625092)"/>
<use data-text="t" xlink:href="#font_1_105" transform="matrix(20.6625,0,0,-20.663533,265.0816,13.625092)"/>
<use data-text="y" xlink:href="#font_1_118" transform="matrix(20.6625,0,0,-20.663533,271.85893,13.625092)"/>
<use data-text="p" xlink:href="#font_1_84" transform="matrix(20.6625,0,0,-20.663533,281.88026,13.625092)"/>
<use data-text="e" xlink:href="#font_1_50" transform="matrix(20.6625,0,0,-20.663533,292.95533,13.625092)"/>
</svg>
