<svg xmlns="http://www.w3.org/2000/svg" xmlns:xlink="http://www.w3.org/1999/xlink" xmlns:inkscape="http://www.inkscape.org/namespaces/inkscape" version="1.1" width="368" height="266" viewBox="0 0 368 266">
<defs>
<path id="font_1_50" d="M.3849945 .25134278C.3849945 .35336305 .33099366 .4423828 .21699524 .4423828 .11099243 .4423828 .026992798 .34135438 .026992798 .21833802 .026992798 .08824158 .12199402-.0078125 .22799683-.0078125 .33999635-.0078125 .38398744 .09825134 .38398744 .119262699 .38398744 .12626648 .37599183 .12626648 .37599183 .12626648 .36898805 .12626648 .36799623 .12426758 .3639984 .11225891 .34199525 .044204713 .2869873 .010177612 .23498535 .010177612 .19198609 .010177612 .14898682 .034194948 .12199402 .07823181 .09098816 .12927246 .09098816 .18830872 .09098816 .23535156H.3809967C.3849945 .23934937 .3849945 .24134827 .3849945 .25134278M.33099366 .25035096H.09199524C.09899902 .3943634 .17599488 .42637635 .21598816 .42637635 .28399659 .42637635 .32998658 .36236573 .33099366 .25035096Z"/>
<path id="font_1_84" d="M.47698976 .2162323C.47698976 .34222413 .3899994 .43847657 .2869873 .43847657 .22698975 .43847657 .17799378 .4053955 .1499939 .36523438V.43847657L.0309906 .4273529V.4013672C.08999634 .4013672 .09899902 .39533998 .09899902 .347229V-.12591553C.09899902-.16395569 .09498596-.16894531 .0309906-.16894531V-.19494629C.054992677-.19294739 .09899902-.19294739 .125-.19294739 .15098572-.19294739 .19599915-.19294739 .21998596-.19494629V-.16894531C.1559906-.16894531 .1519928-.16494751 .1519928-.12591553V.061187746C.18099976 .019180298 .22299195-.0078125 .27598573-.0078125 .37599183-.0078125 .47698976 .08018494 .47698976 .21620178V.2162323M.41299439 .21520996C.41299439 .10119629 .34899903 .008178711 .269989 .008178711 .23399353 .008178711 .19499207 .025177002 .16499329 .07218933 .1519928 .094192508 .1519928 .10018921 .1519928 .11619568V.31422425C.1519928 .32821656 .1519928 .3492279 .19099427 .38630677 .19599915 .3904724 .22999573 .4204712 .27999879 .4204712 .35299684 .4204712 .41299439 .32946778 .41299439 .21546936V.21520996Z"/>
<path id="font_1_64" d="M.25498963 .19329834V.23730469H.0039978029V.19329834H.25498963Z"/>
<path id="font_1_105" d="M.30699159 .1240387V.18096924H.2889862V.12503052C.2889862 .056121828 .2619934 .010177612 .21998596 .010177612 .19099427 .010177612 .15098572 .030151368 .15098572 .121032718V.40368653H.29100038V.4296875H.15098572V.6142578H.1329956C.1309967 .51148989 .09599304 .42167665 .010986328 .41967774V.40368653H.09799194V.123031619C.09799194 .10406494 .09799194-.0078125 .21398926-.0078125 .272995-.0078125 .30699159 .050125123 .30699159 .1240387Z"/>
<path id="font_1_118" d="M.47399903 .40368653V.4296875L.41099549 .42767335C.3899994 .42767335 .35699464 .42767335 .33699037 .4296875V.40368653C.375 .40068055 .37599183 .37269593 .37599183 .36470033 .37599183 .3547058 .37399293 .34970094 .36898805 .33770753L.2599945 .0677948 .14099121 .35969544C.13598633 .37168885 .13598633 .37968446 .13598633 .37968446 .13598633 .40168763 .15899658 .40368653 .18299866 .40368653V.4296875C.15899658 .42767335 .115997318 .42767335 .09098816 .42767335 .06399536 .42767335 .03199768 .42767335 .009994507 .4296875V.40368653C.06399536 .40368653 .069992069 .39868165 .08299255 .36669923L.23199463-.00018310547C.18699646-.1181488 .16099549-.18713379 .09799194-.18713379 .08699036-.18713379 .06199646-.18412781 .04399109-.1661377 .066986087-.1641388 .07699585-.15014649 .07699585-.1331482 .07699585-.1161499 .06498718-.10116577 .04499817-.10116577 .022994996-.10116577 .011993408-.1161499 .011993408-.13415528 .011993408-.1741333 .052993776-.203125 .09799194-.203125 .1559906-.203125 .19198609-.1471405 .21199036-.09716797L.3899994 .34170533C.4149933 .40267945 .45999146 .40368653 .47399903 .40368653Z"/>
<path id="font_1_77" d="M.48298646 0V.025985718C.4189911 .025985718 .4149933 .02999878 .4149933 .06904602V.3043213C.4149933 .35539247 .40499879 .43847657 .2869873 .43847657 .20799256 .43847657 .16699219 .3774109 .1519928 .33737184H.15098572V.43847657L.032989503 .4273529V.4013672C.09199524 .4013672 .100997928 .39535523 .100997928 .3473053V.06903076C.100997928 .0309906 .09700012 .025985718 .032989503 .025985718V0C.056991579 .0019989014 .100997928 .0019989014 .1269989 .0019989014 .15299988 .0019989014 .19799805 .0019989014 .22200012 0V.025985718C.1579895 .025985718 .1539917 .02999878 .1539917 .06903076V.26123048C.1539917 .35339356 .20999146 .4224701 .27999879 .4224701 .35398866 .4224701 .3619995 .35638429 .3619995 .30833436V.06904602C.3619995 .03100586 .35798646 .025985718 .2939911 .025985718V0C.31799317 .0019989014 .3619995 .0019989014 .3880005 .0019989014 .4139862 .0019989014 .45899964 .0019989014 .48298646 0Z"/>
<path id="font_2_46" d="M.69299319 .33480836C.69299319 .5276947 .55799868 .6826172 .3919983 .6826172H.041992189V.6536102H.06199646C.13398743 .6536102 .13699341 .6436157 .13699341 .6066437V.07595825C.13699341 .038986207 .13398743 .0289917 .06199646 .0289917H.041992189V0H.3919983C.5589905 0 .69299319 .1499176 .69299319 .33480836M.60198977 .33580018C.60198977 .2798462 .6009979 .18589783 .5439911 .11193848 .5109863 .06996155 .45098878 .0289917 .36698915 .0289917H.2619934C.21798706 .0289917 .21598816 .035995485 .21598816 .06896973V.6136322C.21598816 .6466217 .21798706 .6536102 .2619934 .6536102H.36698915C.44999696 .6536102 .5159912 .6136322 .5569916 .5476837 .60198977 .4767151 .60198977 .3757782 .60198977 .33580018Z"/>
<path id="font_2_50" d="M.40699769 .11932373C.40699769 .1253357 .4019928 .1293335 .3959961 .1293335 .3880005 .1293335 .38598634 .12432861 .38398744 .11932373 .35798646 .035247804 .29100038 .01222229 .24899292 .01222229 .20698548 .01222229 .10598755 .040252687 .10598755 .21340943V.23242188H.3829956C.40499879 .23242188 .40699769 .23242188 .40699769 .25141908 .40699769 .3523407 .35299684 .44628907 .23199463 .44628907 .117996219 .44628907 .02999878 .34335328 .02999878 .21940613 .02999878 .08729553 .13198853-.009765625 .24299622-.009765625 .3619995-.009765625 .40699769 .09829712 .40699769 .11932373M.34498597 .25141908H.10699463C.114990238 .40830995 .20298767 .42630006 .23098755 .42630006 .33799745 .42630006 .34399415 .28538514 .34498597 .25141908Z"/>
<path id="font_2_84" d="M.5079956 .21640015C.5079956 .34339906 .4139862 .44140626 .30499269 .44140626 .21699524 .44140626 .16999817 .3784027 .16699219 .3744049V.44140626L.027999878 .4303589V.4013672C.09799194 .4013672 .10398865 .3943634 .10398865 .3503418V-.1199646C.10398865-.16503906 .09298706-.16503906 .027999878-.16503906V-.19404602C.053985597-.19204712 .10798645-.19204712 .13598633-.19204712 .16499329-.19204712 .21899414-.19204712 .24499512-.19404602V-.16503906C.18099976-.16503906 .16899109-.16503906 .16899109-.1199646V.054244996C.18699646 .02923584 .22799683-.009765625 .2919922-.009765625 .40699769-.009765625 .5079956 .087249759 .5079956 .21629334V.21640015M.43199159 .21629334C.43199159 .09725952 .3639984 .010223389 .2869873 .010223389 .2559967 .010223389 .22698975 .023223877 .20698548 .042236329 .18399048 .06524658 .16899109 .085250858 .16899109 .11326599V.31933595C.16899109 .33833314 .16899109 .3393402 .17999268 .35534669 .20999146 .40040589 .25898744 .41940309 .29699708 .41940309 .37199403 .41940309 .43199159 .32839967 .43199159 .21640015V.21629334Z"/>
<path id="font_2_72" d="M.24798584 0V.0289917C.18399048 .0289917 .17199707 .0289917 .17199707 .074020389V.69433596L.032989503 .6826172V.6536102C.100997928 .6536102 .10899353 .6466217 .10899353 .597641V.07395935C.10899353 .0289917 .09799194 .0289917 .032989503 .0289917V0C.06098938 .0019989014 .10998535 .0019989014 .13999939 .0019989014 .16999817 .0019989014 .21998596 .0019989014 .24798584 0Z"/>
<path id="font_2_105" d="M.32598878 .124069217V.1809845H.3039856V.12606812C.3039856 .0541687 .2749939 .01222229 .23599243 .01222229 .16799927 .01222229 .16799927 .10508728 .16799927 .12207031V.4016571H.30899049V.43066407H.16799927V.6142578H.1459961C.14498902 .52046206 .10899353 .4246521 .017990113 .42166139V.4016571H.102996829V.124069217C.102996829 .01322937 .1769867-.009765625 .22999573-.009765625 .29299928-.009765625 .32598878 .0521698 .32598878 .124069217Z"/>
<path id="font_2_66" d="M.24099732 0V.0289917C.17599488 .0289917 .17199707 .033996583 .17199707 .07304382V.44140626L.035995485 .4303589V.4013672C.099990848 .4013672 .10899353 .39535523 .10899353 .34629823V.074035648C.10899353 .0289917 .09799194 .0289917 .032989503 .0289917V0C.06098938 .0019989014 .10899353 .0019989014 .13798523 .0019989014 .14898682 .0019989014 .20698548 .0019989014 .24099732 0M.18499756 .6043091C.18499756 .63430789 .16099549 .6533203 .13699341 .6533203 .10899353 .6533203 .08799744 .63131716 .08799744 .6043091 .08799744 .5783081 .10998535 .55630496 .13598633 .55630496 .1659851 .55630496 .18499756 .580307 .18499756 .6043091Z"/>
<path id="font_2_81" d="M.45899964 .21424866C.45899964 .34326173 .36099244 .44628907 .24499512 .44628907 .125 .44628907 .02999878 .340271 .02999878 .21424866 .02999878 .086242679 .12998963-.009765625 .24398804-.009765625 .3619995-.009765625 .45899964 .08824158 .45899964 .21424866M.3829956 .22325135C.3829956 .18824768 .3829956 .12623596 .35699464 .07923889 .32899476 .031234742 .2829895 .01222229 .24499512 .01222229 .20799256 .01222229 .16299439 .02822876 .13398743 .07723999 .10699463 .12223816 .10598755 .1812439 .10598755 .22325135 .10598755 .261261 .10598755 .32226563 .13699341 .3672638 .16499329 .41027833 .20899964 .42626954 .24398804 .42626954 .2829895 .42626954 .32499696 .40827943 .35198976 .3692627 .3829956 .32325746 .3829956 .2602539 .3829956 .22325135Z"/>
<path id="font_2_77" d="M.5209961 0V.0289917C.47099305 .0289917 .44599916 .0289917 .44499208 .059051515V.24342346C.44499208 .3365631 .44499208 .36450196 .42199708 .39640809 .3929901 .4353943 .34599305 .44140626 .31199647 .44140626 .21499634 .44140626 .1769867 .35850526 .16899109 .338562H.16799927V.44140626L.03199768 .4303589V.4013672C.099990848 .4013672 .10798645 .39437867 .10798645 .34553529V.07408142C.10798645 .0289917 .09700012 .0289917 .03199768 .0289917V0C.057998659 .0019989014 .11199951 .0019989014 .13999939 .0019989014 .16899109 .0019989014 .22299195 .0019989014 .24899292 0V.0289917C.18499756 .0289917 .17298889 .0289917 .17298889 .07408142V.26046754C.17298889 .36547853 .24198914 .4213562 .3039856 .4213562 .3659973 .4213562 .37998963 .37045289 .37998963 .3095703V.07408142C.37998963 .0289917 .36898805 .0289917 .3039856 .0289917V0C.32998658 .0019989014 .38398744 .0019989014 .4119873 .0019989014 .44099427 .0019989014 .49499513 .0019989014 .5209961 0Z"/>
<path id="font_2_71" d="M.56999209 .25585938H.5479889C.5379944 .1559143 .5249939 .0289917 .34999085 .0289917H.2630005C.21899414 .0289917 .21699524 .035995485 .21699524 .06896973V.6056366C.21699524 .6416168 .21899414 .6536102 .30599977 .6536102H.33599855V.6826172C.30699159 .680603 .21899414 .680603 .18399048 .680603 .1539917 .680603 .06498718 .680603 .040985109 .6826172V.6536102H.06098938C.1329956 .6536102 .13598633 .6436157 .13598633 .6066437V.07595825C.13598633 .038986207 .1329956 .0289917 .06098938 .0289917H.040985109V0H.5439911L.56999209 .25585938Z"/>
<path id="font_2_28" d="M.47399903 .08912659V.14515686H.45199586V.08912659C.45199586 .03211975 .42799378 .024108887 .4139862 .024108887 .37599183 .024108887 .37599183 .07713318 .37599183 .09213257V.26719667C.37599183 .3211975 .37599183 .36120606 .33198548 .40023805 .29699708 .43226625 .2519989 .44628907 .20799256 .44628907 .12599182 .44628907 .06298828 .39222718 .06298828 .32720948 .06298828 .2982025 .08198547 .2842102 .10499573 .2842102 .1289978 .2842102 .1459961 .3012085 .1459961 .32521058 .1459961 .36621095 .10998535 .36621095 .09498596 .36621095 .117996219 .4082489 .1659851 .42625428 .20599365 .42625428 .2519989 .42625428 .31098939 .38822938 .31098939 .2982025V.25819398C.10998535 .255188 .033996583 .17115784 .033996583 .09413147 .033996583 .0152282719 .12599182-.009765625 .18699646-.009765625 .25299073-.009765625 .2979889 .030227662 .31698609 .07823181 .32099916 .03111267 .35198976-.0048828127 .394989-.0048828127 .41600038-.0048828127 .47399903 .009109497 .47399903 .089141849V.08912659M.31098939 .14117432C.31098939 .043121339 .23799134 .010116577 .19499207 .010116577 .1459961 .010116577 .10499573 .04612732 .10499573 .09414673 .10499573 .22621155 .2749939 .23822022 .31098939 .24023438V.14117432Z"/>
<path id="font_2_118" d="M.49798585 .4016571V.43066407C.46899415 .4286499 .45498658 .4286499 .4229889 .4286499L.34199525 .43066407V.4016571C.3789978 .3996582 .3880005 .3766632 .3880005 .35865785 .3880005 .34965516 .38598634 .34465028 .38198854 .33465577L.27999879 .08265686 .16899109 .35466004C.16299439 .36865235 .16299439 .37565614 .16299439 .37565614 .16299439 .4016571 .19799805 .4016571 .21798706 .4016571V.43066407C.19198609 .4286499 .14299011 .4286499 .114990238 .4286499L.017990113 .43066407V.4016571C.07598877 .4016571 .083999637 .39665223 .09700012 .36567689L.24598694-.000076293948C.20199585-.10601807 .20199585-.10801697 .19799805-.11602783 .18099976-.14602661 .1539917-.184021 .10899353-.184021 .07798767-.184021 .05899048-.16601563 .05899048-.16601563 .05899048-.16601563 .09399414-.16201782 .09399414-.12702942 .09399414-.103027347 .07499695-.090026859 .056991579-.090026859 .039993287-.090148929 .018997193-.10014343 .018997193-.12913513 .018997193-.16712952 .055999757-.20410156 .10899353-.20410156 .16499329-.20410156 .20599365-.15512085 .23199463-.09214783L.40499879 .3336792C.43199159 .40065003 .47898866 .4016571 .49798585 .4016571Z"/>
<path id="font_2_96" d="M.35299684 .38339234C.35299684 .4133911 .32598878 .44140626 .2829895 .44140626 .19799805 .44140626 .16899109 .34939576 .16299439 .33039857H.1619873V.44140626L.027999878 .4303589V.4013672C.09599304 .4013672 .10398865 .39434815 .10398865 .3453064V.074035648C.10398865 .0289917 .09298706 .0289917 .027999878 .0289917V0C.055999757 .0019989014 .11099243 .0019989014 .14099121 .0019989014 .16799927 .0019989014 .23899842 .0019989014 .2619934 0V.0289917H.24198914C.16899109 .02973938 .16699219 .040740968 .16699219 .07673645V.23374939C.16699219 .3307495 .20698548 .42173768 .28399659 .42173768 .2919922 .42173768 .2939911 .42173768 .2979889 .42074586 .2899933 .41674806 .27398683 .41073609 .27398683 .3837433 .27398683 .35473634 .29699708 .34375 .31298829 .34375 .33299256 .34375 .35299684 .35673524 .35299684 .3837433V.38339234Z"/>
<path id="font_3_3" d="M.5349884 .5967865C.522995 .5857849 .48599244 .55078127 .48599244 .5367737 .48599244 .5267792 .49499513 .5177765 .5049896 .5177765 .5139923 .5177765 .5179901 .52378848 .5249939 .53378298 .548996 .56378176 .57598879 .58277896 .598999 .5957794 .60899356 .6017761 .6159973 .6047821 .6159973 .6157837 .6159973 .6247864 .60798647 .629776 .60198977 .6347809 .57398989 .6537781 .5669861 .68078616 .56399539 .69277957 .5609894 .70077517 .55799868 .7127838 .5439911 .7127838 .5379944 .7127838 .526001 .708786 .526001 .6937866 .526001 .68478396 .5319977 .66078189 .5509949 .63378909H.21499634C.19799805 .63378909 .18099976 .63378909 .18099976 .6147766 .18099976 .5967865 .19898987 .5967865 .21499634 .5967865H.5349884Z"/>
<path id="font_3_1" d="M.69499209 .23190308C.69599917 .23490906 .69898989 .24189759 .69898989 .24589539 .69898989 .25090028 .69499209 .2558899 .68899539 .2558899 .68499758 .2558899 .68299868 .25489808 .6799927 .2518921 .6779938 .25090028 .6779938 .24890137 .6689911 .22891236 .6100006 .088974 .5669861 .0289917 .40699769 .0289917H.26098634C.24699402 .0289917 .24499512 .0289917 .23899842 .02999878 .22799683 .0309906 .22698975 .032989503 .22698975 .040985109 .22698975 .04798889 .22898865 .053985597 .23098755 .06297302L.2999878 .3388672H.39898683C.47698976 .3388672 .48298646 .3218689 .48298646 .29188539 .48298646 .28189088 .48298646 .27288819 .47599793 .24290467 .47399903 .23890686 .47299195 .23490906 .47299195 .23190308 .47299195 .22491455 .47799684 .22190857 .48399354 .22190857 .49299623 .22190857 .49398805 .22891236 .49798585 .24290467L.5549927 .47476197C.5549927 .47976686 .5509949 .48475648 .54499819 .48475648 .5359955 .48475648 .5349884 .48075868 .5309906 .46676637 .5109863 .3898468 .4909973 .3678589 .4019928 .3678589H.30699159L.36898805 .61364749C.37799073 .6486206 .37998963 .6516113 .42099 .6516113H.56399539C.68699648 .6516113 .71199038 .6186371 .71199038 .54270938 .71199038 .5417023 .71199038 .5137329 .70799258 .48075868 .70700076 .47676087 .70599368 .47076417 .70599368 .46876527 .70599368 .4607849 .71099856 .45777894 .71699526 .45777894 .723999 .45777894 .7279968 .46177674 .7299957 .47976686L.7509918 .65460208C.7509918 .65760806 .7529907 .66760256 .7529907 .6696167 .7529907 .680603 .74398806 .680603 .7259979 .680603H.23799134C.21899414 .680603 .20899964 .680603 .20899964 .6626129 .20899964 .6516113 .21598816 .6516113 .23298645 .6516113 .29499818 .6516113 .29499818 .6446228 .29499818 .6336212 .29499818 .6286316 .2939911 .6246338 .29100038 .61364749L.1559906 .07397461C.14698792 .038986207 .14498902 .0289917 .07499695 .0289917 .055999757 .0289917 .04598999 .0289917 .04598999 .010986328 .04598999 0 .051986696 0 .07199097 0H.57398989C.59599307 0 .5970001 .0009918213 .60398867 .016998291L.69499209 .23190308Z"/>
<path id="font_3_2" d="M.5029907 .6693268C.5039978 .6733246 .5059967 .6793213 .5059967 .6843262 .5059967 .69433596 .49598695 .69433596 .49398805 .69433596 .49299623 .69433596 .44400025 .6903229 .43899537 .68933108 .42199708 .688324 .40699769 .6863251 .3889923 .68533328 .3639984 .68333438 .35699464 .6823273 .35699464 .6643219 .35699464 .6543274 .36499024 .6543274 .3789978 .6543274 .42799378 .6543274 .42900086 .6453247 .42900086 .6353302 .42900086 .6293335 .4269867 .6213379 .42599488 .61834719L.36499024 .37538148C.35398866 .4013977 .32699586 .44140626 .2749939 .44140626 .1619873 .44140626 .039993287 .29534913 .039993287 .14727783 .039993287 .04824829 .09799194-.009765625 .1659851-.009765625 .22099304-.009765625 .2679901 .033233644 .29599 .06625366 .30599977 .007232666 .35299684-.009765625 .3829956-.009765625 .41299439-.009765625 .43699647 .008224487 .45498658 .04423523 .47099305 .07826233 .4850006 .13928223 .4850006 .14328003 .4850006 .14828491 .48098756 .15228272 .47499085 .15228272 .46598817 .15228272 .46499635 .14727783 .46099855 .13227844 .44599916 .07325745 .4269867 .010223389 .38598634 .010223389 .35699464 .010223389 .35499574 .036239625 .35499574 .056243898 .35499574 .0602417 .35499574 .08125305 .3619995 .10926819L.5029907 .6693268M.30099488 .119277957C.29599 .102264408 .29599 .1002655 .28199769 .08125305 .2599945 .053237916 .21598816 .010223389 .16899109 .010223389 .12799073 .010223389 .10499573 .04724121 .10499573 .10626221 .10499573 .1612854 .13598633 .2733307 .15499878 .3153534 .18899536 .38539125 .23599243 .42140199 .2749939 .42140199 .34098817 .42140199 .35398866 .33937074 .35398866 .33135987 .35398866 .33036805 .35099793 .3173523 .34999085 .3153534L.30099488 .119277957Z"/>
</defs>
<path transform="matrix(1,0,0,-1.0001,2.6940003,225.48134)" stroke-width=".3985" stroke-linecap="butt" stroke-miterlimit="10" stroke-linejoin="miter" fill="none" stroke="#000000" d="M22.67752 22.67752"/>
<path transform="matrix(1,0,0,-1.0001,2.6940003,225.48134)" stroke-width="1.59404" stroke-linecap="butt" stroke-miterlimit="10" stroke-linejoin="miter" fill="none" stroke="#0000ff" d="M33.30875 22.6787C33.30875 28.54958 28.54958 33.30875 22.6787 33.30875 16.80782 33.30875 12.04866 28.54958 12.04866 22.6787 12.04866 16.80782 16.80782 12.04866 22.6787 12.04866 28.54958 12.04866 33.30875 16.80782 33.30875 22.6787ZM22.6787 22.6787"/>
<path transform="matrix(1,0,0,-1.0001,2.6940003,225.48134)" stroke-width=".3985" stroke-linecap="butt" stroke-miterlimit="10" stroke-linejoin="miter" fill="none" stroke="#000000" d="M22.67752 68.03261"/>
<path transform="matrix(1,0,0,-1.0001,2.6940003,225.48134)" stroke-width="1.59404" stroke-linecap="butt" stroke-miterlimit="10" stroke-linejoin="miter" fill="none" stroke="#0000ff" d="M33.30875 68.03616C33.30875 73.90704 28.54958 78.6662 22.6787 78.6662 16.80782 78.6662 12.04866 73.90704 12.04866 68.03616 12.04866 62.16527 16.80782 57.40611 22.6787 57.40611 28.54958 57.40611 33.30875 62.16527 33.30875 68.03616ZM22.6787 68.03616"/>
<path transform="matrix(1,0,0,-1.0001,2.6940003,225.48134)" stroke-width=".3985" stroke-linecap="butt" stroke-miterlimit="10" stroke-linejoin="miter" fill="none" stroke="#000000" d="M22.67752 113.3877"/>
<path transform="matrix(1,0,0,-1.0001,2.6940003,225.48134)" stroke-width="1.59404" stroke-linecap="butt" stroke-miterlimit="10" stroke-linejoin="miter" fill="none" stroke="#0000ff" d="M33.30875 113.39365C33.30875 119.26453 28.54958 124.0237 22.6787 124.0237 16.80782 124.0237 12.04866 119.26453 12.04866 113.39365 12.04866 107.52277 16.80782 102.7636 22.6787 102.7636 28.54958 102.7636 33.30875 107.52277 33.30875 113.39365ZM22.6787 113.39365"/>
<path transform="matrix(1,0,0,-1.0001,2.6940003,225.48134)" stroke-width=".3985" stroke-linecap="butt" stroke-miterlimit="10" stroke-linejoin="miter" fill="none" stroke="#000000" d="M22.67752 158.74277"/>
<path transform="matrix(1,0,0,-1.0001,2.6940003,225.48134)" stroke-width="1.59404" stroke-linecap="butt" stroke-miterlimit="10" stroke-linejoin="miter" fill="none" stroke="#0000ff" d="M33.30875 158.7511C33.30875 164.622 28.54958 169.38115 22.6787 169.38115 16.80782 169.38115 12.04866 164.622 12.04866 158.7511 12.04866 152.88022 16.80782 148.12107 22.6787 148.12107 28.54958 148.12107 33.30875 152.88022 33.30875 158.7511ZM22.6787 158.7511"/>
<path transform="matrix(1,0,0,-1.0001,2.6940003,225.48134)" stroke-width=".3985" stroke-linecap="butt" stroke-miterlimit="10" stroke-linejoin="miter" fill="none" stroke="#000000" d="M68.03261 22.67752"/>
<path transform="matrix(1,0,0,-1.0001,2.6940003,225.48134)" stroke-width="1.59404" stroke-linecap="butt" stroke-miterlimit="10" stroke-linejoin="miter" fill="none" stroke="#0000ff" d="M78.6662 22.6787C78.6662 28.54958 73.90704 33.30875 68.03616 33.30875 62.16527 33.30875 57.40611 28.54958 57.40611 22.6787 57.40611 16.80782 62.16527 12.04866 68.03616 12.04866 73.90704 12.04866 78.6662 16.80782 78.6662 22.6787ZM68.03616 22.6787"/>
<path transform="matrix(1,0,0,-1.0001,2.6940003,225.48134)" stroke-width=".3985" stroke-linecap="butt" stroke-miterlimit="10" stroke-linejoin="miter" fill="none" stroke="#000000" d="M68.03261 68.03261"/>
<path transform="matrix(1,0,0,-1.0001,2.6940003,225.48134)" stroke-width="1.59404" stroke-linecap="butt" stroke-miterlimit="10" stroke-linejoin="miter" fill="none" stroke="#0000ff" d="M78.6662 68.03616C78.6662 73.90704 73.90704 78.6662 68.03616 78.6662 62.16527 78.6662 57.40611 73.90704 57.40611 68.03616 57.40611 62.16527 62.16527 57.40611 68.03616 57.40611 73.90704 57.40611 78.6662 62.16527 78.6662 68.03616ZM68.03616 68.03616"/>
<path transform="matrix(1,0,0,-1.0001,2.6940003,225.48134)" stroke-width=".3985" stroke-linecap="butt" stroke-miterlimit="10" stroke-linejoin="miter" fill="none" stroke="#000000" d="M68.03261 113.3877"/>
<path transform="matrix(1,0,0,-1.0001,2.6940003,225.48134)" stroke-width="1.59404" stroke-linecap="butt" stroke-miterlimit="10" stroke-linejoin="miter" fill="none" stroke="#0000ff" d="M78.6662 113.39365C78.6662 119.26453 73.90704 124.0237 68.03616 124.0237 62.16527 124.0237 57.40611 119.26453 57.40611 113.39365 57.40611 107.52277 62.16527 102.7636 68.03616 102.7636 73.90704 102.7636 78.6662 107.52277 78.6662 113.39365ZM68.03616 113.39365"/>
<path transform="matrix(1,0,0,-1.0001,2.6940003,225.48134)" stroke-width=".3985" stroke-linecap="butt" stroke-miterlimit="10" stroke-linejoin="miter" fill="none" stroke="#000000" d="M68.03261 158.74277"/>
<path transform="matrix(1,0,0,-1.0001,2.6940003,225.48134)" stroke-width="1.59404" stroke-linecap="butt" stroke-miterlimit="10" stroke-linejoin="miter" fill="none" stroke="#0000ff" d="M78.6662 158.7511C78.6662 164.622 73.90704 169.38115 68.03616 169.38115 62.16527 169.38115 57.40611 164.622 57.40611 158.7511 57.40611 152.88022 62.16527 148.12107 68.03616 148.12107 73.90704 148.12107 78.6662 152.88022 78.6662 158.7511ZM68.03616 158.7511"/>
<path transform="matrix(1,0,0,-1.0001,2.6940003,225.48134)" stroke-width=".3985" stroke-linecap="butt" stroke-miterlimit="10" stroke-linejoin="miter" fill="none" stroke="#000000" d="M113.3877 22.67752"/>
<path transform="matrix(1,0,0,-1.0001,2.6940003,225.48134)" stroke-width="1.59404" stroke-linecap="butt" stroke-miterlimit="10" stroke-linejoin="miter" fill="none" stroke="#0000ff" d="M124.0237 22.6787C124.0237 28.54958 119.26453 33.30875 113.39365 33.30875 107.52277 33.30875 102.7636 28.54958 102.7636 22.6787 102.7636 16.80782 107.52277 12.04866 113.39365 12.04866 119.26453 12.04866 124.0237 16.80782 124.0237 22.6787ZM113.39365 22.6787"/>
<path transform="matrix(1,0,0,-1.0001,2.6940003,225.48134)" stroke-width=".3985" stroke-linecap="butt" stroke-miterlimit="10" stroke-linejoin="miter" fill="none" stroke="#000000" d="M113.3877 68.03261"/>
<path transform="matrix(1,0,0,-1.0001,2.6940003,225.48134)" stroke-width="1.59404" stroke-linecap="butt" stroke-miterlimit="10" stroke-linejoin="miter" fill="none" stroke="#0000ff" d="M124.0237 68.03616C124.0237 73.90704 119.26453 78.6662 113.39365 78.6662 107.52277 78.6662 102.7636 73.90704 102.7636 68.03616 102.7636 62.16527 107.52277 57.40611 113.39365 57.40611 119.26453 57.40611 124.0237 62.16527 124.0237 68.03616ZM113.39365 68.03616"/>
<path transform="matrix(1,0,0,-1.0001,2.6940003,225.48134)" stroke-width=".3985" stroke-linecap="butt" stroke-miterlimit="10" stroke-linejoin="miter" fill="none" stroke="#000000" d="M113.3877 113.3877"/>
<path transform="matrix(1,0,0,-1.0001,2.6940003,225.48134)" stroke-width="1.59404" stroke-linecap="butt" stroke-miterlimit="10" stroke-linejoin="miter" fill="none" stroke="#0000ff" d="M124.0237 113.39365C124.0237 119.26453 119.26453 124.0237 113.39365 124.0237 107.52277 124.0237 102.7636 119.26453 102.7636 113.39365 102.7636 107.52277 107.52277 102.7636 113.39365 102.7636 119.26453 102.7636 124.0237 107.52277 124.0237 113.39365ZM113.39365 113.39365"/>
<path transform="matrix(1,0,0,-1.0001,2.6940003,225.48134)" stroke-width=".3985" stroke-linecap="butt" stroke-miterlimit="10" stroke-linejoin="miter" fill="none" stroke="#000000" d="M113.3877 158.74277"/>
<path transform="matrix(1,0,0,-1.0001,2.6940003,225.48134)" stroke-width="1.59404" stroke-linecap="butt" stroke-miterlimit="10" stroke-linejoin="miter" fill="none" stroke="#0000ff" d="M124.0237 158.7511C124.0237 164.622 119.26453 169.38115 113.39365 169.38115 107.52277 169.38115 102.7636 164.622 102.7636 158.7511 102.7636 152.88022 107.52277 148.12107 113.39365 148.12107 119.26453 148.12107 124.0237 152.88022 124.0237 158.7511ZM113.39365 158.7511"/>
<path transform="matrix(1,0,0,-1.0001,2.6940003,225.48134)" stroke-width=".3985" stroke-linecap="butt" stroke-miterlimit="10" stroke-linejoin="miter" fill="none" stroke="#000000" d="M158.74277 22.67752"/>
<path transform="matrix(1,0,0,-1.0001,2.6940003,225.48134)" stroke-width=".3985" stroke-linecap="butt" stroke-miterlimit="10" stroke-linejoin="miter" fill="none" stroke="#000000" d="M158.74277 68.03261"/>
<path transform="matrix(1,0,0,-1.0001,2.6940003,225.48134)" stroke-width=".3985" stroke-linecap="butt" stroke-miterlimit="10" stroke-linejoin="miter" fill="none" stroke="#000000" d="M158.74277 113.3877"/>
<path transform="matrix(1,0,0,-1.0001,2.6940003,225.48134)" stroke-width=".3985" stroke-linecap="butt" stroke-miterlimit="10" stroke-linejoin="miter" fill="none" stroke="#000000" d="M158.74277 158.74277"/>
<path transform="matrix(1,0,0,-1.0001,2.6940003,225.48134)" stroke-width=".3985" stroke-linecap="butt" stroke-miterlimit="10" stroke-linejoin="miter" fill="none" stroke="#000000" d="M204.09786 22.67752"/>
<path transform="matrix(1,0,0,-1.0001,2.6940003,225.48134)" stroke-width="1.59404" stroke-linecap="butt" stroke-miterlimit="10" stroke-linejoin="miter" fill="none" stroke="#ff0000" d="M214.73862 22.6787C214.73862 28.54958 209.97946 33.30875 204.10858 33.30875 198.2377 33.30875 193.47853 28.54958 193.47853 22.6787 193.47853 16.80782 198.2377 12.04866 204.10858 12.04866 209.97946 12.04866 214.73862 16.80782 214.73862 22.6787ZM204.10858 22.6787"/>
<path transform="matrix(1,0,0,-1.0001,2.6940003,225.48134)" stroke-width="1.59404" stroke-linecap="butt" stroke-miterlimit="10" stroke-linejoin="miter" fill="none" stroke="#ff0000" d="M190.50203 22.6787H174.07205"/>
<path transform="matrix(-1,-0,0,1.0001,176.76605,202.80037)" d="M6.81448 0C4.79533 .37857 1.51433 1.51433-.75716 2.83936V-2.83936C1.51433-1.51433 4.79533-.37857 6.81448 0" fill="#ff0000"/>
<path transform="matrix(1,0,0,-1.0001,2.6940003,225.48134)" stroke-width=".3985" stroke-linecap="butt" stroke-miterlimit="10" stroke-linejoin="miter" fill="none" stroke="#000000" d="M158.75351 22.6787"/>
<use data-text="e" xlink:href="#font_1_50" transform="matrix(24.7871,0,0,-24.78958,156.416,208.17961)" fill="#ff0000"/>
<path transform="matrix(1,0,0,-1.0001,2.6940003,225.48134)" stroke-width=".3985" stroke-linecap="butt" stroke-miterlimit="10" stroke-linejoin="miter" fill="none" stroke="#000000" d="M204.09786 68.03261"/>
<path transform="matrix(1,0,0,-1.0001,2.6940003,225.48134)" stroke-width="1.59404" stroke-linecap="butt" stroke-miterlimit="10" stroke-linejoin="miter" fill="none" stroke="#ff0000" d="M214.73862 68.03616C214.73862 73.90704 209.97946 78.6662 204.10858 78.6662 198.2377 78.6662 193.47853 73.90704 193.47853 68.03616 193.47853 62.16527 198.2377 57.40611 204.10858 57.40611 209.97946 57.40611 214.73862 62.16527 214.73862 68.03616ZM204.10858 68.03616"/>
<path transform="matrix(1,0,0,-1.0001,2.6940003,225.48134)" stroke-width="1.59404" stroke-linecap="butt" stroke-miterlimit="10" stroke-linejoin="miter" fill="none" stroke="#ff0000" d="M190.50203 68.03616H174.07205"/>
<path transform="matrix(-1,-0,0,1.0001,176.76605,157.43837)" d="M6.81448 0C4.79533 .37857 1.51433 1.51433-.75716 2.83936V-2.83936C1.51433-1.51433 4.79533-.37857 6.81448 0" fill="#ff0000"/>
<path transform="matrix(1,0,0,-1.0001,2.6940003,225.48134)" stroke-width=".3985" stroke-linecap="butt" stroke-miterlimit="10" stroke-linejoin="miter" fill="none" stroke="#000000" d="M158.75351 68.03616"/>
<use data-text="e" xlink:href="#font_1_50" transform="matrix(24.7871,0,0,-24.78958,156.416,162.81807)" fill="#ff0000"/>
<path transform="matrix(1,0,0,-1.0001,2.6940003,225.48134)" stroke-width=".3985" stroke-linecap="butt" stroke-miterlimit="10" stroke-linejoin="miter" fill="none" stroke="#000000" d="M204.09786 113.3877"/>
<path transform="matrix(1,0,0,-1.0001,2.6940003,225.48134)" stroke-width="1.59404" stroke-linecap="butt" stroke-miterlimit="10" stroke-linejoin="miter" fill="none" stroke="#ff0000" d="M214.73862 113.39365C214.73862 119.26453 209.97946 124.0237 204.10858 124.0237 198.2377 124.0237 193.47853 119.26453 193.47853 113.39365 193.47853 107.52277 198.2377 102.7636 204.10858 102.7636 209.97946 102.7636 214.73862 107.52277 214.73862 113.39365ZM204.10858 113.39365"/>
<path transform="matrix(1,0,0,-1.0001,2.6940003,225.48134)" stroke-width="1.59404" stroke-linecap="butt" stroke-miterlimit="10" stroke-linejoin="miter" fill="none" stroke="#ff0000" d="M190.50203 113.39365H174.07205"/>
<path transform="matrix(-1,-0,0,1.0001,176.76605,112.07635)" d="M6.81448 0C4.79533 .37857 1.51433 1.51433-.75716 2.83936V-2.83936C1.51433-1.51433 4.79533-.37857 6.81448 0" fill="#ff0000"/>
<path transform="matrix(1,0,0,-1.0001,2.6940003,225.48134)" stroke-width=".3985" stroke-linecap="butt" stroke-miterlimit="10" stroke-linejoin="miter" fill="none" stroke="#000000" d="M158.75351 113.39365"/>
<use data-text="e" xlink:href="#font_1_50" transform="matrix(24.7871,0,0,-24.78958,156.416,117.455539)" fill="#ff0000"/>
<path transform="matrix(1,0,0,-1.0001,2.6940003,225.48134)" stroke-width=".3985" stroke-linecap="butt" stroke-miterlimit="10" stroke-linejoin="miter" fill="none" stroke="#000000" d="M204.09786 158.74277"/>
<path transform="matrix(1,0,0,-1.0001,2.6940003,225.48134)" stroke-width="1.59404" stroke-linecap="butt" stroke-miterlimit="10" stroke-linejoin="miter" fill="none" stroke="#ff0000" d="M214.73862 158.7511C214.73862 164.622 209.97946 169.38115 204.10858 169.38115 198.2377 169.38115 193.47853 164.622 193.47853 158.7511 193.47853 152.88022 198.2377 148.12107 204.10858 148.12107 209.97946 148.12107 214.73862 152.88022 214.73862 158.7511ZM204.10858 158.7511"/>
<path transform="matrix(1,0,0,-1.0001,2.6940003,225.48134)" stroke-width="1.59404" stroke-linecap="butt" stroke-miterlimit="10" stroke-linejoin="miter" fill="none" stroke="#ff0000" d="M190.50203 158.7511H174.07205"/>
<path transform="matrix(-1,-0,0,1.0001,176.76605,66.714359)" d="M6.81448 0C4.79533 .37857 1.51433 1.51433-.75716 2.83936V-2.83936C1.51433-1.51433 4.79533-.37857 6.81448 0" fill="#ff0000"/>
<path transform="matrix(1,0,0,-1.0001,2.6940003,225.48134)" stroke-width=".3985" stroke-linecap="butt" stroke-miterlimit="10" stroke-linejoin="miter" fill="none" stroke="#000000" d="M158.75351 158.7511"/>
<use data-text="e" xlink:href="#font_1_50" transform="matrix(24.7871,0,0,-24.78958,156.416,72.09401)" fill="#ff0000"/>
<path transform="matrix(1,0,0,-1.0001,2.6940003,225.48134)" stroke-width=".3985" stroke-linecap="butt" stroke-miterlimit="10" stroke-linejoin="miter" fill="none" stroke="#000000" d="M249.45293 22.67752"/>
<use data-text="e" xlink:href="#font_1_50" transform="matrix(24.7871,0,0,-24.78958,247.128,208.17961)" fill="#0000ff"/>
<path transform="matrix(1,0,0,-1.0001,2.6940003,225.48134)" stroke-width=".3985" stroke-linecap="butt" stroke-miterlimit="10" stroke-linejoin="miter" fill="none" stroke="#000000" d="M249.45293 68.03261"/>
<use data-text="e" xlink:href="#font_1_50" transform="matrix(24.7871,0,0,-24.78958,247.128,162.81807)" fill="#0000ff"/>
<path transform="matrix(1,0,0,-1.0001,2.6940003,225.48134)" stroke-width=".3985" stroke-linecap="butt" stroke-miterlimit="10" stroke-linejoin="miter" fill="none" stroke="#000000" d="M249.45293 113.3877"/>
<use data-text="e" xlink:href="#font_1_50" transform="matrix(24.7871,0,0,-24.78958,247.128,117.455539)" fill="#0000ff"/>
<path transform="matrix(1,0,0,-1.0001,2.6940003,225.48134)" stroke-width=".3985" stroke-linecap="butt" stroke-miterlimit="10" stroke-linejoin="miter" fill="none" stroke="#000000" d="M249.45293 158.74277"/>
<use data-text="e" xlink:href="#font_1_50" transform="matrix(24.7871,0,0,-24.78958,247.128,72.09401)" fill="#0000ff"/>
<path transform="matrix(1,0,0,-1.0001,2.6940003,225.48134)" stroke-width=".3985" stroke-linecap="butt" stroke-miterlimit="10" stroke-linejoin="miter" fill="none" stroke="#000000" d="M294.808 22.67752"/>
<use data-text="e" xlink:href="#font_1_50" transform="matrix(24.7871,0,0,-24.78958,292.486,208.17961)" fill="#0000ff"/>
<path transform="matrix(1,0,0,-1.0001,2.6940003,225.48134)" stroke-width=".3985" stroke-linecap="butt" stroke-miterlimit="10" stroke-linejoin="miter" fill="none" stroke="#000000" d="M294.808 68.03261"/>
<use data-text="e" xlink:href="#font_1_50" transform="matrix(24.7871,0,0,-24.78958,292.486,162.81807)" fill="#0000ff"/>
<path transform="matrix(1,0,0,-1.0001,2.6940003,225.48134)" stroke-width=".3985" stroke-linecap="butt" stroke-miterlimit="10" stroke-linejoin="miter" fill="none" stroke="#000000" d="M294.808 113.3877"/>
<use data-text="e" xlink:href="#font_1_50" transform="matrix(24.7871,0,0,-24.78958,292.486,117.455539)" fill="#0000ff"/>
<path transform="matrix(1,0,0,-1.0001,2.6940003,225.48134)" stroke-width=".3985" stroke-linecap="butt" stroke-miterlimit="10" stroke-linejoin="miter" fill="none" stroke="#000000" d="M294.808 158.74277"/>
<use data-text="e" xlink:href="#font_1_50" transform="matrix(24.7871,0,0,-24.78958,292.486,72.09401)" fill="#0000ff"/>
<path transform="matrix(1,0,0,-1.0001,2.6940003,225.48134)" stroke-width=".3985" stroke-linecap="butt" stroke-miterlimit="10" stroke-linejoin="miter" fill="none" stroke="#000000" d="M340.1631 22.67752"/>
<use data-text="e" xlink:href="#font_1_50" transform="matrix(24.7871,0,0,-24.78958,337.843,208.17961)" fill="#0000ff"/>
<path transform="matrix(1,0,0,-1.0001,2.6940003,225.48134)" stroke-width=".3985" stroke-linecap="butt" stroke-miterlimit="10" stroke-linejoin="miter" fill="none" stroke="#000000" d="M340.1631 68.03261"/>
<use data-text="e" xlink:href="#font_1_50" transform="matrix(24.7871,0,0,-24.78958,337.843,162.81807)" fill="#0000ff"/>
<path transform="matrix(1,0,0,-1.0001,2.6940003,225.48134)" stroke-width=".3985" stroke-linecap="butt" stroke-miterlimit="10" stroke-linejoin="miter" fill="none" stroke="#000000" d="M340.1631 113.3877"/>
<use data-text="e" xlink:href="#font_1_50" transform="matrix(24.7871,0,0,-24.78958,337.843,117.455539)" fill="#0000ff"/>
<path transform="matrix(1,0,0,-1.0001,2.6940003,225.48134)" stroke-width=".3985" stroke-linecap="butt" stroke-miterlimit="10" stroke-linejoin="miter" fill="none" stroke="#000000" d="M340.1631 158.74277"/>
<use data-text="e" xlink:href="#font_1_50" transform="matrix(24.7871,0,0,-24.78958,337.843,72.09401)" fill="#0000ff"/>
<path transform="matrix(1,0,0,-1.0001,2.6940003,225.48134)" stroke-width="1.59404" stroke-linecap="butt" stroke-miterlimit="10" stroke-linejoin="miter" fill="none" stroke="#000000" d="M0 0V181.42032H181.42032V0ZM181.42032 181.42032"/>
<use data-text="p" xlink:href="#font_1_84" transform="matrix(20.6625,0,0,-20.664566,66.863,36.327425)"/>
<use data-text="-" xlink:href="#font_1_64" transform="matrix(20.6625,0,0,-20.664566,77.42154,36.327425)"/>
<use data-text="t" xlink:href="#font_1_105" transform="matrix(20.6625,0,0,-20.664566,83.66161,36.327425)"/>
<use data-text="y" xlink:href="#font_1_118" transform="matrix(20.6625,0,0,-20.664566,90.43891,36.327425)"/>
<use data-text="p" xlink:href="#font_1_84" transform="matrix(20.6625,0,0,-20.664566,100.46023,36.327425)"/>
<use data-text="e" xlink:href="#font_1_50" transform="matrix(20.6625,0,0,-20.664566,111.53533,36.327425)"/>
<path transform="matrix(1,0,0,-1.0001,2.6940003,225.48134)" stroke-width="1.59404" stroke-linecap="butt" stroke-miterlimit="10" stroke-linejoin="miter" fill="none" stroke="#000000" d="M181.42032 0V181.42032H362.84065V0ZM362.84065 181.42032"/>
<use data-text="n" xlink:href="#font_1_77" transform="matrix(20.6625,0,0,-20.664566,248.283,36.327425)"/>
<use data-text="-" xlink:href="#font_1_64" transform="matrix(20.6625,0,0,-20.664566,258.84156,36.327425)"/>
<use data-text="t" xlink:href="#font_1_105" transform="matrix(20.6625,0,0,-20.664566,265.0816,36.327425)"/>
<use data-text="y" xlink:href="#font_1_118" transform="matrix(20.6625,0,0,-20.664566,271.85893,36.327425)"/>
<use data-text="p" xlink:href="#font_1_84" transform="matrix(20.6625,0,0,-20.664566,281.88026,36.327425)"/>
<use data-text="e" xlink:href="#font_1_50" transform="matrix(20.6625,0,0,-20.664566,292.95533,36.327425)"/>
<path transform="matrix(1,0,0,-1.0001,2.6940003,225.48134)" stroke-width="1.59404" stroke-linecap="butt" stroke-dasharray="2.98883,2.98883" stroke-miterlimit="10" stroke-linejoin="miter" fill="none" stroke="#0000ff" d="M136.06523 0V181.42032"/>
<path transform="matrix(1,0,0,-1.0001,2.6940003,225.48134)" stroke-width="1.59404" stroke-linecap="butt" stroke-dasharray="2.98883,2.98883" stroke-miterlimit="10" stroke-linejoin="miter" fill="none" stroke="#0000ff" d="M226.77539 0V181.42032"/>
<path transform="matrix(1,0,0,-1.0001,2.6940003,225.48134)" stroke-width="1.59404" stroke-linecap="butt" stroke-miterlimit="10" stroke-linejoin="miter" fill="none" stroke="#000000" d="M136.06523 185.71427C137.55959 188.70313 141.04662 190.69565 146.028 190.69565H171.45754C176.43892 190.69565 179.92595 192.68817 181.4203 195.67704 182.91466 192.68817 186.40169 190.69565 191.38307 190.69565H216.81262C221.794 190.69565 225.28104 188.70313 226.77539 185.71427"/>
<use data-text="D" xlink:href="#font_2_46" transform="matrix(14.3462,0,0,-14.347635,155.767,10.876877)"/>
<use data-text="e" xlink:href="#font_2_50" transform="matrix(14.3462,0,0,-14.347635,166.49796,10.876877)"/>
<use data-text="p" xlink:href="#font_2_84" transform="matrix(14.3462,0,0,-14.347635,172.73856,10.876877)"/>
<use data-text="l" xlink:href="#font_2_72" transform="matrix(14.3462,0,0,-14.347635,180.5429,10.876877)"/>
<use data-text="e" xlink:href="#font_2_50" transform="matrix(14.3462,0,0,-14.347635,184.44507,10.876877)"/>
<use data-text="t" xlink:href="#font_2_105" transform="matrix(14.3462,0,0,-14.347635,190.68567,10.876877)"/>
<use data-text="i" xlink:href="#font_2_66" transform="matrix(14.3462,0,0,-14.347635,196.15157,10.876877)"/>
<use data-text="o" xlink:href="#font_2_81" transform="matrix(14.3462,0,0,-14.347635,200.05374,10.876877)"/>
<use data-text="n" xlink:href="#font_2_77" transform="matrix(14.3462,0,0,-14.347635,207.08338,10.876877)"/>
<use data-text="L" xlink:href="#font_2_71" transform="matrix(14.3462,0,0,-14.347635,167.034,24.45523)"/>
<use data-text="a" xlink:href="#font_2_28" transform="matrix(14.3462,0,0,-14.347635,175.81388,24.45523)"/>
<use data-text="y" xlink:href="#font_2_118" transform="matrix(14.3462,0,0,-14.347635,182.45618,24.45523)"/>
<use data-text="e" xlink:href="#font_2_50" transform="matrix(14.3462,0,0,-14.347635,189.48581,24.45523)"/>
<use data-text="r" xlink:href="#font_2_96" transform="matrix(14.3462,0,0,-14.347635,195.72641,24.45523)"/>
<path transform="matrix(1,0,0,-1.0001,2.6940003,225.48134)" stroke-width="1.59404" stroke-linecap="butt" stroke-miterlimit="10" stroke-linejoin="miter" fill="none" stroke="#0000ff" d="M204.09786-9.07086H165.55725"/>
<path transform="matrix(-1,-0,0,1.0001,168.25125,234.5531)" d="M6.81448 0C4.79533 .37857 1.51433 1.51433-.75716 2.83936V-2.83936C1.51433-1.51433 4.79533-.37857 6.81448 0" fill="#0000ff"/>
<use data-text="&#x20d7;" xlink:href="#font_3_3" transform="matrix(20.6625,0,0,-20.664566,175.85901,255.69138)" fill="#0000ff"/>
<use data-text="E" xlink:href="#font_3_1" transform="matrix(20.6625,0,0,-20.664566,172.727,260.9149)" fill="#0000ff"/>
<use data-text="d" xlink:href="#font_3_2" transform="matrix(14.3462,0,0,-14.347635,187.703,264.01423)" fill="#0000ff"/>
</svg>
