<svg xmlns="http://www.w3.org/2000/svg" xmlns:xlink="http://www.w3.org/1999/xlink" xmlns:inkscape="http://www.inkscape.org/namespaces/inkscape" version="1.1" width="194" height="99" viewBox="0 0 194 99">
<defs>
<path id="font_1_27" d="M.71699526 0V.0309906H.69898989C.6389923 .0309906 .625 .037979127 .6139984 .07095337L.397995 .6958008C.3929901 .7088165 .3909912 .7158203 .375 .7158203 .35899354 .7158203 .35598756 .70980837 .35099793 .6958008L.14399719 .09791565C.12599182 .04698181 .085998538 .03199768 .03199768 .0309906V0L.13398743 .0029907227 .24899292 0V.0309906C.19898987 .0309906 .17399597 .05596924 .17399597 .0819397 .17399597 .08493042 .1749878 .09492493 .17599488 .09692383L.22200012 .2277832H.46899415L.5219879 .07495117C.522995 .07095337 .5249939 .064956668 .5249939 .060958864 .5249939 .0309906 .46899415 .0309906 .44198609 .0309906V0C.47799684 .0029907227 .5479889 .0029907227 .58599856 .0029907227L.71699526 0M.45799256 .25878907H.23298645L.34498597 .58380129 .45799256 .25878907Z"/>
<path id="font_2_3" d="M.375 .6136017C.3809967 .63760378 .38398744 .6476135 .40299989 .65060427 .4119873 .6516113 .44400025 .6516113 .46398927 .6516113 .5349884 .6516113 .6459961 .6516113 .6459961 .5525818 .6459961 .51856997 .6299896 .44955445 .59098818 .41055299 .5649872 .38453675 .5119934 .35253907 .42199708 .35253907H.30999757L.375 .6136017M.5189972 .33953858C.6199951 .3615265 .7389984 .43154908 .7389984 .5325775 .7389984 .61860659 .6489868 .6826172 .5179901 .6826172H.23298645C.21299744 .6826172 .20399475 .6826172 .20399475 .6626129 .20399475 .6516113 .21299744 .6516113 .23199463 .6516113 .23399353 .6516113 .25299073 .6516113 .269989 .6496124 .28799439 .6476135 .29699708 .64660647 .29699708 .63360598 .29699708 .62960818 .29599 .6266022 .29299928 .6145935L.15899658 .07752991C.14898682 .038528444 .14698792 .030532837 .067993167 .030532837 .049987794 .030532837 .040985109 .030532837 .040985109 .010528564 .040985109-.00047302247 .052993776-.00047302247 .054992677-.00047302247 .08299255-.00047302247 .15299988 .002532959 .18099976 .002532959 .20899964 .002532959 .27999879-.00047302247 .30799867-.00047302247 .31599427-.00047302247 .32798768-.00047302247 .32798768 .01953125 .32798768 .030532837 .31900025 .030532837 .2999878 .030532837 .2630005 .030532837 .23498535 .030532837 .23498535 .048538209 .23498535 .054534913 .23699951 .059524537 .23799134 .0655365L.3039856 .3305359H.4229889C.5139923 .3305359 .5319977 .27453614 .5319977 .23953247 .5319977 .22453308 .5239868 .19352722 .5179901 .17053223 .5109863 .14253235 .5019989 .105529788 .5019989 .08552551 .5019989-.022460938 .621994-.022460938 .6349945-.022460938 .7200012-.022460938 .7549896 .07853699 .7549896 .0925293 .7549896 .104537967 .74398806 .104537967 .7429962 .104537967 .73399356 .104537967 .7319946 .09753418 .7299957 .090530399 .7049866 .016525269 .6619873-.00047302247 .6389923-.00047302247 .60598757-.00047302247 .598999 .021530152 .598999 .060531618 .598999 .091537479 .6049957 .14253235 .60899356 .17453003 .61099246 .1885376 .61299136 .20753479 .61299136 .2215271 .61299136 .2985382 .54599 .3295288 .5189972 .33953858Z"/>
<path id="font_2_2" d="M.37399293 .6046295C.3829956 .64060977 .38598634 .6516113 .47999574 .6516113 .5099945 .6516113 .5179901 .6516113 .5179901 .6706085 .5179901 .6826172 .5069885 .6826172 .5019989 .6826172 .46899415 .6826172 .3869934 .6796112 .35398866 .6796112 .32398988 .6796112 .25099183 .6826172 .22099304 .6826172 .21398926 .6826172 .20199585 .6826172 .20199585 .6626129 .20199585 .6516113 .21099854 .6516113 .22999573 .6516113 .23199463 .6516113 .25099183 .6516113 .2679901 .6496124 .28599549 .6476135 .29499818 .64660647 .29499818 .6336212 .29499818 .6296234 .2939911 .62661746 .29100038 .614624L.15699768 .07795715C.14698792 .038986207 .14498902 .0309906 .06599426 .0309906 .04899597 .0309906 .038986207 .0309906 .038986207 .010986328 .038986207 0 .04798889 0 .06599426 0H.5289917C.5529938 0 .55400088 0 .55999758 .016998291L.6389923 .23286438C.6429901 .24386597 .6429901 .24586487 .6429901 .24685669 .6429901 .2508545 .6399994 .25785829 .6309967 .25785829 .621994 .25785829 .62098696 .2528534 .6139984 .23686219 .5799866 .14492798 .5359955 .0309906 .36299134 .0309906H.2689972C.25498963 .0309906 .25299073 .0309906 .24699402 .03199768 .23699951 .032989503 .23399353 .033996583 .23399353 .041992189 .23399353 .04498291 .23399353 .04698181 .23899842 .064971927L.37399293 .6046295Z"/>
<path id="font_2_1" d="M.7599945 .69506838C.7599945 .69807437 .7579956 .7050781 .7489929 .7050781 .74598696 .7050781 .7449951 .70407107 .73399356 .69306948L.6639862 .61602786C.6549988 .6300354 .60899356 .7050781 .49798585 .7050781 .2749939 .7050781 .049987794 .48391725 .049987794 .25172425 .049987794 .08659363 .16799927-.022460938 .32099916-.022460938 .4079895-.022460938 .48399354 .017532349 .5369873 .063583377 .6299896 .14564514 .6469879 .2367096 .6469879 .23971558 .6469879 .24972534 .6369934 .24972534 .6349945 .24972534 .6289978 .24972534 .6239929 .24772644 .621994 .23971558 .61299136 .21069336 .58999636 .13963318 .5209961 .081588748 .45199586 .025543213 .3889923 .008529663 .33699037 .008529663 .24699402 .008529663 .14099121 .060577394 .14099121 .21670532 .14099121 .27374269 .1619873 .43588258 .2619934 .55296328 .32299806 .62402346 .4169922 .67407229 .5059967 .67407229 .60798647 .67407229 .6669922 .5970001 .6669922 .48091126 .6669922 .44088746 .6639862 .43988038 .6639862 .4298706 .6639862 .41986085 .6749878 .41986085 .67900088 .41986085 .69200137 .41986085 .69200137 .42185975 .69699099 .43988038L.7599945 .69506838Z"/>
<path id="font_1_34" d="M.651001 .18289185C.651001 .26983644 .56900027 .34480287 .45799256 .35679627 .5549927 .3757782 .6239929 .43974305 .6239929 .51368716 .6239929 .6006317 .5319977 .6826172 .4019928 .6826172H.035995485V.6516113H.05999756C.13699341 .6516113 .13899231 .64060977 .13899231 .6046295V.07795715C.13899231 .041992189 .13699341 .0309906 .05999756 .0309906H.035995485V0H.42799378C.5609894-.0002593994 .651001 .08874512 .651001 .18273926V.18289185M.5269928 .5136719C.5269928 .44970704 .47799684 .36573792 .36698915 .36573792H.22200012V.6116333C.22200012 .64460757 .22399903 .6516113 .2709961 .6516113H.394989C.49198915 .65174868 .5269928 .56674197 .5269928 .51374819V.5136719M.5509949 .18386841C.5509949 .1129303 .49899293 .0309906 .3959961 .0309906H.2709961C.22399903 .0309906 .22200012 .037994386 .22200012 .07095337V.34375H.4099884C.5089874 .34399415 .5509949 .25099183 .5509949 .18399048V.18386841Z"/>
</defs>
<path transform="matrix(1.00006,0,0,-1.00002,12.209831,45.693677)" stroke-width=".3985" stroke-linecap="butt" stroke-miterlimit="10" stroke-linejoin="miter" fill="none" stroke="#000000" d="M0 0"/>
<path transform="matrix(1.00006,0,0,-1.00002,12.209831,45.693677)" stroke-width=".3985" stroke-linecap="butt" stroke-miterlimit="10" stroke-linejoin="miter" fill="none" stroke="#000000" d="M0 0H14.17339M14.17339 0H28.3468L28.34679 14.17339M28.34679 14.17339 28.3468 28.3468 40.8194 28.34679M72.5678 28.34679 85.04042 28.3468 101.48149 28.34679M125.29294 28.34679 141.73404 28.3468 141.73403 14.17339M141.73403 14.17339 141.73404 0"/>
<use data-text="A" xlink:href="#font_1_27" transform="matrix(9.963197,0,0,-9.962799,1.2171707,49.26075)"/>
<path transform="matrix(1.00006,0,0,-1.00002,12.209831,45.693677)" d="M1.58714 0C1.58714 .87656 .87656 1.58714 0 1.58714-.87656 1.58714-1.58714 .87656-1.58714 0-1.58714-.87656-.87656-1.58714 0-1.58714 .87656-1.58714 1.58714-.87656 1.58714 0ZM0 0" fill="#ffffff"/>
<path transform="matrix(1.00006,0,0,-1.00002,12.209831,45.693677)" stroke-width=".3985" stroke-linecap="butt" stroke-miterlimit="10" stroke-linejoin="miter" fill="none" stroke="#000000" d="M1.58714 0C1.58714 .87656 .87656 1.58714 0 1.58714-.87656 1.58714-1.58714 .87656-1.58714 0-1.58714-.87656-.87656-1.58714 0-1.58714 .87656-1.58714 1.58714-.87656 1.58714 0ZM0 0"/>
<path transform="matrix(1.00006,0,0,-1.00002,12.209831,45.693677)" d="" fill="#ffffff"/>
<path transform="matrix(1.00006,0,0,-1.00002,12.209831,45.693677)" stroke-width=".3985" stroke-linecap="butt" stroke-miterlimit="10" stroke-linejoin="miter" fill="none" stroke="#000000" d=""/>
<path transform="matrix(1.00006,0,0,-1.00002,12.209831,45.693677)" d="M29.93394 0C29.93394 .87656 29.22336 1.58714 28.3468 1.58714 27.47025 1.58714 26.75966 .87656 26.75966 0 26.75966-.87656 27.47025-1.58714 28.3468-1.58714 29.22336-1.58714 29.93394-.87656 29.93394 0ZM28.3468 0"/>
<path transform="matrix(1.00006,0,0,-1.00002,12.209831,45.693677)" stroke-width=".3985" stroke-linecap="butt" stroke-miterlimit="10" stroke-linejoin="miter" fill="none" stroke="#000000" d="M29.93394 0C29.93394 .87656 29.22336 1.58714 28.3468 1.58714 27.47025 1.58714 26.75966 .87656 26.75966 0 26.75966-.87656 27.47025-1.58714 28.3468-1.58714 29.22336-1.58714 29.93394-.87656 29.93394 0ZM28.3468 0"/>
<path transform="matrix(1.00006,0,0,-1.00002,12.209831,45.693677)" stroke-width=".797" stroke-linecap="butt" stroke-linejoin="bevel" fill="none" stroke="#000000" d="M40.4209 28.34679 43.46509 34.29964 48.75647 22.39394 54.04787 34.29964 59.33925 22.39394 64.63063 34.29964 69.92201 22.39394 72.9662 28.34679"/>
<use data-text="R" xlink:href="#font_2_3" transform="matrix(9.963197,0,0,-9.962799,65.086,7.5779116)"/>
<path transform="matrix(1.00006,0,0,-1.00002,12.209831,45.693677)" stroke-width=".797" stroke-linecap="butt" stroke-linejoin="bevel" fill="none" stroke="#000000" d="M101.083 28.1874C101.083 31.4751 102.71774 34.14024 104.73434 34.14024 106.75095 34.14024 108.3857 31.4751 108.3857 28.1874 108.3857 26.54364 107.71944 25.21112 106.89755 25.21112 106.07567 25.21112 105.40941 26.54364 105.40941 28.1874 105.40941 31.4751 107.04416 34.14024 109.06076 34.14024 111.07736 34.14024 112.71211 31.4751 112.71211 28.1874 112.71211 26.54364 112.04585 25.21112 111.22397 25.21112 110.4021 25.21112 109.73584 26.54364 109.73584 28.1874 109.73584 31.4751 111.37059 34.14024 113.38719 34.14024 115.4038 34.14024 117.03853 31.4751 117.03853 28.1874 117.03853 26.54364 116.37228 25.21112 115.5504 25.21112 114.72852 25.21112 114.06226 26.54364 114.06226 28.1874 114.06226 31.4751 115.697 34.14024 117.71361 34.14024 119.73021 34.14024 121.36496 31.4751 121.36496 28.1874 121.36496 26.54364 120.6987 25.21112 119.87682 25.21112 119.05495 25.21112 118.38869 26.54364 118.38869 28.1874 118.38869 31.4751 120.02342 34.14024 122.04002 34.14024 124.05664 34.14024 125.69138 31.4751 125.69138 28.1874"/>
<use data-text="L" xlink:href="#font_2_2" transform="matrix(9.963197,0,0,-9.962799,122.21343,7.5779116)"/>
<path transform="matrix(1.00006,0,0,-1.00002,12.209831,45.693677)" stroke-width=".3985" stroke-linecap="butt" stroke-miterlimit="10" stroke-linejoin="miter" fill="none" stroke="#000000" d="M28.3468 0 28.34679-14.17339M28.34679-14.17339 28.3468-28.3468 81.07193-28.34679M89.00888-28.34679 141.73404-28.3468 141.73403-14.17339M141.73403-14.17339 141.73404 0H155.90744M155.90744 0H170.08086"/>
<path transform="matrix(1.00006,0,0,-1.00002,12.209831,45.693677)" stroke-width=".797" stroke-linecap="butt" stroke-miterlimit="10" stroke-linejoin="miter" fill="none" stroke="#000000" d="M81.07193-16.44107V-40.2525M89.00888-16.44107V-40.2525"/>
<use data-text="C" xlink:href="#font_2_1" transform="matrix(9.963197,0,0,-9.962799,93.3387,97.11671)"/>
<path transform="matrix(1.00006,0,0,-1.00002,12.209831,45.693677)" d="M143.32118 0C143.32118 .87656 142.6106 1.58714 141.73404 1.58714 140.85749 1.58714 140.1469 .87656 140.1469 0 140.1469-.87656 140.85749-1.58714 141.73404-1.58714 142.6106-1.58714 143.32118-.87656 143.32118 0ZM141.73404 0"/>
<path transform="matrix(1.00006,0,0,-1.00002,12.209831,45.693677)" stroke-width=".3985" stroke-linecap="butt" stroke-miterlimit="10" stroke-linejoin="miter" fill="none" stroke="#000000" d="M143.32118 0C143.32118 .87656 142.6106 1.58714 141.73404 1.58714 140.85749 1.58714 140.1469 .87656 140.1469 0 140.1469-.87656 140.85749-1.58714 141.73404-1.58714 142.6106-1.58714 143.32118-.87656 143.32118 0ZM141.73404 0"/>
<path transform="matrix(1.00006,0,0,-1.00002,12.209831,45.693677)" d="M171.668 0C171.668 .87656 170.95742 1.58714 170.08086 1.58714 169.20429 1.58714 168.4937 .87656 168.4937 0 168.4937-.87656 169.20429-1.58714 170.08086-1.58714 170.95742-1.58714 171.668-.87656 171.668 0ZM170.08086 0" fill="#ffffff"/>
<path transform="matrix(1.00006,0,0,-1.00002,12.209831,45.693677)" stroke-width=".3985" stroke-linecap="butt" stroke-miterlimit="10" stroke-linejoin="miter" fill="none" stroke="#000000" d="M171.668 0C171.668 .87656 170.95742 1.58714 170.08086 1.58714 169.20429 1.58714 168.4937 .87656 168.4937 0 168.4937-.87656 169.20429-1.58714 170.08086-1.58714 170.95742-1.58714 171.668-.87656 171.668 0ZM170.08086 0"/>
<path transform="matrix(1.00006,0,0,-1.00002,12.209831,45.693677)" d="" fill="#ffffff"/>
<path transform="matrix(1.00006,0,0,-1.00002,12.209831,45.693677)" stroke-width=".3985" stroke-linecap="butt" stroke-miterlimit="10" stroke-linejoin="miter" fill="none" stroke="#000000" d=""/>
<use data-text="B" xlink:href="#font_1_34" transform="matrix(9.963197,0,0,-9.962799,185.82123,49.095746)"/>
</svg>
