<svg xmlns="http://www.w3.org/2000/svg" xmlns:xlink="http://www.w3.org/1999/xlink" xmlns:inkscape="http://www.inkscape.org/namespaces/inkscape" version="1.1" width="134" height="127" viewBox="0 0 134 127">
<defs>
<path id="font_1_2" d="M.40899659 .23046875H.6879883C.70199587 .23046875 .72099307 .23046875 .72099307 .25045777 .72099307 .27046205 .70199587 .27046205 .6879883 .27046205H.40899659V.5500183C.40899659 .56399539 .40899659 .5830078 .3889923 .5830078 .36898805 .5830078 .36898805 .56399539 .36898805 .5500183V.27046205H.08898926C.07499695 .27046205 .055999757 .27046205 .055999757 .25045777 .055999757 .23046875 .07499695 .23046875 .08898926 .23046875H.36898805V-.05000305C.36898805-.06401062 .36898805-.08300781 .3889923-.08300781 .40899659-.08300781 .40899659-.06401062 .40899659-.05000305V.23046875Z"/>
<path id="font_2_1" d="M.6589966 .23046875C.6759949 .23046875 .69400027 .23046875 .69400027 .25045777 .69400027 .27046205 .6759949 .27046205 .6589966 .27046205H.117996219C.100997928 .27046205 .08299255 .27046205 .08299255 .25045777 .08299255 .23046875 .100997928 .23046875 .117996219 .23046875H.6589966Z"/>
<path id="font_1_5" d="M.44898988 .20022583C.44898988 .3193512 .36698915 .41944886 .25898744 .41944886 .21099854 .41944886 .16799927 .40345765 .13198853 .36842347V.5637665C.1519928 .5577698 .18499756 .55078127 .21699524 .55078127 .33999635 .55078127 .4099884 .6417694 .4099884 .6547699 .4099884 .6607666 .40699769 .6657715 .3999939 .6657715 .39898683 .6657715 .39698792 .6657715 .3919983 .66278079 .37199403 .6537781 .32299806 .6337738 .2559967 .6337738 .21598816 .6337738 .16999817 .6407776 .12298584 .6617737 .114990238 .66477969 .11299133 .66477969 .11099243 .66477969 .100997928 .66477969 .100997928 .6567688 .100997928 .6407776V.34439088C.100997928 .32637025 .100997928 .31835938 .114990238 .31835938 .12199402 .31835938 .12399292 .32136537 .12799073 .32736207 .13899231 .3433838 .17599488 .39746095 .25698854 .39746095 .30899049 .39746095 .33399964 .35139466 .34199525 .33337403 .35798646 .29632569 .3600006 .25727845 .3600006 .20722962 .3600006 .17222595 .3600006 .11222839 .33599855 .07035828 .31199647 .031463624 .2749939 .0055389406 .22898865 .0055389406 .1559906 .0055389406 .09899902 .058380128 .08198547 .11723328 .084991458 .1162262 .08799744 .115234378 .09899902 .115234378 .13198853 .115234378 .14898682 .14022827 .14898682 .16423035 .14898682 .18823242 .13198853 .21322632 .09899902 .21322632 .084991458 .21322632 .049987794 .20622254 .049987794 .16023255 .049987794 .07434082 .11898804-.022460938 .23098755-.022460938 .34700013-.022460938 .44898988 .073349 .44898988 .20022583Z"/>
<path id="font_1_6" d="M.62098696 .58461C.6349945 .62161257 .6619873 .65060427 .7299957 .6516113V.6826172C.69898989 .680603 .6589966 .6796112 .6329956 .6796112 .6029968 .6796112 .54499819 .6816101 .5189972 .6826172V.6516113C.57099917 .65060427 .59199526 .6246033 .59199526 .6016083 .59199526 .5935974 .58898928 .5876007 .58699038 .581604L.4039917 .09954834 .21299744 .604599C.20698548 .61860659 .20698548 .62060549 .20698548 .62260439 .20698548 .6516113 .2639923 .6516113 .2889862 .6516113V.6826172C.25299073 .6796112 .18399048 .6796112 .1459961 .6796112 .09799194 .6796112 .054992677 .6816101 .018997193 .6826172V.6516113C.083999637 .6516113 .102996829 .6516113 .116989139 .6136017L.34899903-.00047302247C.35598756-.019470215 .36099244-.022460938 .37399293-.022460938 .3909912-.022460938 .3929901-.017471314 .397995-.0034637452L.62098696 .58461Z"/>
<path id="font_1_3" d="M.2939911 .64004519C.2939911 .66400149 .2939911 .6660156 .2709961 .6660156 .20899964 .60227969 .12098694 .60227969 .08898926 .60227969V.57128909C.10899353 .57128909 .16799927 .57128909 .21998596 .5972748V.07902527C.21998596 .042999269 .21699524 .0309906 .1269989 .0309906H.09498596V0C.12998963 .0029907227 .21699524 .0029907227 .25698854 .0029907227 .29699708 .0029907227 .38398744 .0029907227 .4189911 0V.0309906H.3869934C.29699708 .0309906 .2939911 .041992189 .2939911 .07902527V.64004519Z"/>
<path id="font_1_7" d="M.10598755 .07595825C.10598755 .0309906 .09498596 .0309906 .027999878 .0309906V0C.06098938 .0009918213 .10798645 .0029907227 .13699341 .0029907227 .16699219 .0029907227 .20698548 .0019989014 .24699402 0V.0309906C.17999268 .0309906 .16899109 .0309906 .16899109 .07595825V.17886353L.23298645 .23381043C.30999757 .12789917 .35198976 .07196045 .35198976 .053970338 .35198976 .034988405 .33499146 .0309906 .31599427 .0309906V0C.34399415 .0009918213 .40299989 .0029907227 .42399598 .0029907227 .45298768 .0029907227 .48199464 .0019989014 .5109863 0V.0309906C.47399903 .0309906 .45199586 .0309906 .4139862 .0839386L.2869873 .26278688C.28599549 .26478578 .2809906 .2707672 .2809906 .2737732 .2809906 .277771 .35198976 .33770753 .3619995 .34570313 .4249878 .39666749 .46699525 .39865113 .48799134 .3996582V.43066407C.45899964 .42765809 .44599916 .42765809 .41799928 .42765809 .38198854 .42765809 .31999208 .42965699 .30599977 .43066407V.3996582C.32499696 .39865113 .33499146 .3876648 .33499146 .37467958 .33499146 .3547058 .32099916 .3427124 .31298829 .33570863L.17199707 .21382141V.69433596L.027999878 .68333438V.6523285C.09799194 .6523285 .10598755 .64530947 .10598755 .5961609V.07595825Z"/>
<path id="font_1_1" d="M.6769867 .16200257H.6519928C.6469879 .13600159 .6429901 .11299133 .6339874 .08898926 .6289978 .07299805 .6259918 .06498718 .56799319 .06498718H.48799134C.5009918 .1210022 .5319977 .16900635 .57699587 .23501587 .6239929 .306015 .6649933 .37503053 .6649933 .45404054 .6649933 .59306338 .5299988 .7050781 .36099244 .7050781 .18899536 .7050781 .055999757 .5910492 .055999757 .45404054 .055999757 .37503053 .09700012 .306015 .14399719 .23501587 .18798828 .16900635 .21998596 .1210022 .23298645 .06498718H.15299988C.09498596 .06498718 .09199524 .07299805 .08699036 .08799744 .07899475 .11099243 .07398987 .13700867 .068984989 .16200257H.04399109L.07699585 0H.23699951C.25898744 0 .2619934 0 .2619934 .020996094 .2619934 .09098816 .23098755 .17900086 .20799256 .24301148 .18699646 .3010254 .15899658 .3800354 .15899658 .45503236 .15899658 .6150665 .2689972 .68307498 .3600006 .68307498 .45599366 .68307498 .56199648 .61105349 .56199648 .45503236 .56199648 .3800354 .5349884 .3040161 .5059967 .22201538 .4909973 .18000794 .45899964 .08999634 .45899964 .020996094 .45899964 0 .46199037 0 .4850006 0H.6439972L.6769867 .16200257Z"/>
<path id="font_1_4" d="M.2939911 .16503906V.07800293C.2939911 .041992189 .2919922 .0309906 .21798706 .0309906H.19699097V0C.23799134 .0029907227 .2899933 .0029907227 .33198548 .0029907227 .37399293 .0029907227 .4269867 .0029907227 .46798707 0V.0309906H.44699098C.37298585 .0309906 .37098695 .041992189 .37098695 .07800293V.16503906H.47099305V.19602967H.37098695V.65075686C.37098695 .67074587 .37098695 .6767578 .35499574 .6767578 .34599305 .6767578 .34298707 .6767578 .33499146 .66474917L.027999878 .19602967V.16503906H.2939911M.2999878 .19602967H.055999757L.2999878 .5688019V.19602967Z"/>
<path id="font_3_27" d="M.71699526 0V.0309906H.69898989C.6389923 .0309906 .625 .037979127 .6139984 .07095337L.397995 .6958008C.3929901 .7088165 .3909912 .7158203 .375 .7158203 .35899354 .7158203 .35598756 .70980837 .35099793 .6958008L.14399719 .09791565C.12599182 .04698181 .085998538 .03199768 .03199768 .0309906V0L.13398743 .0029907227 .24899292 0V.0309906C.19898987 .0309906 .17399597 .05596924 .17399597 .0819397 .17399597 .08493042 .1749878 .09492493 .17599488 .09692383L.22200012 .2277832H.46899415L.5219879 .07495117C.522995 .07095337 .5249939 .064956668 .5249939 .060958864 .5249939 .0309906 .46899415 .0309906 .44198609 .0309906V0C.47799684 .0029907227 .5479889 .0029907227 .58599856 .0029907227L.71699526 0M.45799256 .25878907H.23298645L.34498597 .58380129 .45799256 .25878907Z"/>
<path id="font_3_34" d="M.651001 .18289185C.651001 .26983644 .56900027 .34480287 .45799256 .35679627 .5549927 .3757782 .6239929 .43974305 .6239929 .51368716 .6239929 .6006317 .5319977 .6826172 .4019928 .6826172H.035995485V.6516113H.05999756C.13699341 .6516113 .13899231 .64060977 .13899231 .6046295V.07795715C.13899231 .041992189 .13699341 .0309906 .05999756 .0309906H.035995485V0H.42799378C.5609894-.0002593994 .651001 .08874512 .651001 .18273926V.18289185M.5269928 .5136719C.5269928 .44970704 .47799684 .36573792 .36698915 .36573792H.22200012V.6116333C.22200012 .64460757 .22399903 .6516113 .2709961 .6516113H.394989C.49198915 .65174868 .5269928 .56674197 .5269928 .51374819V.5136719M.5509949 .18386841C.5509949 .1129303 .49899293 .0309906 .3959961 .0309906H.2709961C.22399903 .0309906 .22200012 .037994386 .22200012 .07095337V.34375H.4099884C.5089874 .34399415 .5509949 .25099183 .5509949 .18399048V.18386841Z"/>
</defs>
<path transform="matrix(1,0,0,-1.00002,35.593004,115.18698)" stroke-width=".3985" stroke-linecap="butt" stroke-miterlimit="10" stroke-linejoin="miter" fill="none" stroke="#000000" d="M0 113.38724"/>
<path transform="matrix(1,0,0,-1.00002,35.593004,115.18698)" stroke-width=".3985" stroke-linecap="butt" stroke-miterlimit="10" stroke-linejoin="miter" fill="none" stroke="#000000" d="M0 113.38724V62.64647M0 50.74075V0"/>
<path transform="matrix(1,0,0,-1.00002,35.593004,115.18698)" stroke-width=".797" stroke-linecap="butt" stroke-miterlimit="10" stroke-linejoin="miter" fill="none" stroke="#000000" d="M11.90572 62.64647H-11.90572M5.95285 58.6779H-5.95285M11.90572 54.70934H-11.90572M5.95285 50.74075H-5.95285"/>
<use data-text="+" xlink:href="#font_1_2" transform="matrix(9.9626,0,0,-9.962799,15.840004,51.815713)"/>
<use data-text="&#x2212;" xlink:href="#font_2_1" transform="matrix(9.9626,0,0,-9.962799,15.840004,70.150089)"/>
<use data-text="5" xlink:href="#font_1_5" transform="matrix(9.9626,0,0,-9.962799,.88900759,61.895914)"/>
<use data-text="V" xlink:href="#font_1_6" transform="matrix(9.9626,0,0,-9.962799,7.5241014,61.895914)"/>
<path transform="matrix(1,0,0,-1.00002,35.593004,115.18698)" stroke-width=".3985" stroke-linecap="butt" stroke-miterlimit="10" stroke-linejoin="miter" fill="none" stroke="#000000" d="M0 113.38724H28.3468M28.3468 113.38724H56.69362V100.91461M56.69362 69.16623V56.69362 44.221M56.69362 12.47261V0H28.3468M28.3468 0H0"/>
<path transform="matrix(1,0,0,-1.00002,35.593004,115.18698)" stroke-width=".797" stroke-linecap="butt" stroke-linejoin="bevel" fill="none" stroke="#000000" d="M56.69362 101.31313 62.64647 98.2357 50.74075 92.8779 62.64647 87.52008 50.74075 82.16226 62.64647 76.80444 50.74075 71.44662 56.69362 68.76772"/>
<use data-text="1" xlink:href="#font_1_3" transform="matrix(9.9626,0,0,-9.962799,65.033008,32.29232)"/>
<use data-text="k" xlink:href="#font_1_7" transform="matrix(9.9626,0,0,-9.962799,71.6681,32.29232)"/>
<use data-text="&#x2126;" xlink:href="#font_1_1" transform="matrix(9.9626,0,0,-9.962799,76.918399,32.29232)"/>
<path transform="matrix(1,0,0,-1.00002,35.593004,115.18698)" stroke-width=".797" stroke-linecap="butt" stroke-linejoin="bevel" fill="none" stroke="#000000" d="M56.69362 44.6195 62.64647 41.54208 50.74075 36.18428 62.64647 30.82646 50.74075 25.46864 62.64647 20.11082 50.74075 14.753 56.69362 12.0741"/>
<path transform="matrix(1,0,0,-1.00002,35.593004,115.18698)" stroke-width=".797" stroke-linecap="butt" stroke-linejoin="bevel" fill="none" stroke="#000000" d="M72.56781 28.3468H65.75478"/>
<path transform="matrix(-1,-0,0,1.00002,101.347789,86.839618)" d="M3.1083 0C1.81317 .25902-.51805 .77707-2.0722 1.94269-.77707 .51805-.77707-.51805-2.0722-1.94269-.51805-.77707 1.81317-.25902 3.1083 0Z"/>
<use data-text="4" xlink:href="#font_1_4" transform="matrix(9.9626,0,0,-9.962799,65.033008,88.98646)"/>
<use data-text="k" xlink:href="#font_1_7" transform="matrix(9.9626,0,0,-9.962799,71.6681,88.98646)"/>
<use data-text="&#x2126;" xlink:href="#font_1_1" transform="matrix(9.9626,0,0,-9.962799,76.918399,88.98646)"/>
<path transform="matrix(1,0,0,-1.00002,35.593004,115.18698)" stroke-width=".3985" stroke-linecap="butt" stroke-miterlimit="10" stroke-linejoin="miter" fill="none" stroke="#000000" d="M72.56781 28.3468 79.6545 28.34679M79.6545 28.34679 86.74121 28.3468"/>
<path transform="matrix(1,0,0,-1.00002,35.593004,115.18698)" d="M88.32835 28.3468C88.32835 29.22336 87.61777 29.93394 86.74121 29.93394 85.86464 29.93394 85.15405 29.22336 85.15405 28.3468 85.15405 27.47025 85.86464 26.75966 86.74121 26.75966 87.61777 26.75966 88.32835 27.47025 88.32835 28.3468ZM86.74121 28.3468" fill="#ffffff"/>
<path transform="matrix(1,0,0,-1.00002,35.593004,115.18698)" stroke-width=".3985" stroke-linecap="butt" stroke-miterlimit="10" stroke-linejoin="miter" fill="none" stroke="#000000" d="M88.32835 28.3468C88.32835 29.22336 87.61777 29.93394 86.74121 29.93394 85.86464 29.93394 85.15405 29.22336 85.15405 28.3468 85.15405 27.47025 85.86464 26.75966 86.74121 26.75966 87.61777 26.75966 88.32835 27.47025 88.32835 28.3468ZM86.74121 28.3468"/>
<path transform="matrix(1,0,0,-1.00002,35.593004,115.18698)" d="" fill="#ffffff"/>
<path transform="matrix(1,0,0,-1.00002,35.593004,115.18698)" stroke-width=".3985" stroke-linecap="butt" stroke-miterlimit="10" stroke-linejoin="miter" fill="none" stroke="#000000" d=""/>
<path transform="matrix(1,0,0,-1.00002,35.593004,115.18698)" stroke-width=".3985" stroke-linecap="butt" stroke-miterlimit="10" stroke-linejoin="miter" fill="none" stroke="#000000" d="M56.69362 0H71.7174M71.7174 0H86.74121"/>
<path transform="matrix(1,0,0,-1.00002,35.593004,115.18698)" d="M88.32835 0C88.32835 .87656 87.61777 1.58714 86.74121 1.58714 85.86464 1.58714 85.15405 .87656 85.15405 0 85.15405-.87656 85.86464-1.58714 86.74121-1.58714 87.61777-1.58714 88.32835-.87656 88.32835 0ZM86.74121 0" fill="#ffffff"/>
<path transform="matrix(1,0,0,-1.00002,35.593004,115.18698)" stroke-width=".3985" stroke-linecap="butt" stroke-miterlimit="10" stroke-linejoin="miter" fill="none" stroke="#000000" d="M88.32835 0C88.32835 .87656 87.61777 1.58714 86.74121 1.58714 85.86464 1.58714 85.15405 .87656 85.15405 0 85.15405-.87656 85.86464-1.58714 86.74121-1.58714 87.61777-1.58714 88.32835-.87656 88.32835 0ZM86.74121 0"/>
<path transform="matrix(1,0,0,-1.00002,35.593004,115.18698)" d="" fill="#ffffff"/>
<path transform="matrix(1,0,0,-1.00002,35.593004,115.18698)" stroke-width=".3985" stroke-linecap="butt" stroke-miterlimit="10" stroke-linejoin="miter" fill="none" stroke="#000000" d=""/>
<path transform="matrix(1,0,0,-1.00002,35.593004,115.18698)" stroke-width=".3985" stroke-linecap="butt" stroke-miterlimit="10" stroke-linejoin="miter" fill="none" stroke="#000000" d="M86.74121 28.3468"/>
<use data-text="A" xlink:href="#font_3_27" transform="matrix(9.9626,0,0,-9.962799,125.854007,83.31934)"/>
<path transform="matrix(1,0,0,-1.00002,35.593004,115.18698)" stroke-width=".3985" stroke-linecap="butt" stroke-miterlimit="10" stroke-linejoin="miter" fill="none" stroke="#000000" d="M86.74121 0"/>
<use data-text="B" xlink:href="#font_3_34" transform="matrix(9.9626,0,0,-9.962799,125.854007,125.511188)"/>
</svg>
