<svg xmlns="http://www.w3.org/2000/svg" xmlns:xlink="http://www.w3.org/1999/xlink" xmlns:inkscape="http://www.inkscape.org/namespaces/inkscape" version="1.1" width="210" height="92" viewBox="0 0 210 92">
<defs>
<path id="font_1_2" d="M.2939911 .64004519C.2939911 .66400149 .2939911 .6660156 .2709961 .6660156 .20899964 .60227969 .12098694 .60227969 .08898926 .60227969V.57128909C.10899353 .57128909 .16799927 .57128909 .21998596 .5972748V.07902527C.21998596 .042999269 .21699524 .0309906 .1269989 .0309906H.09498596V0C.12998963 .0029907227 .21699524 .0029907227 .25698854 .0029907227 .29699708 .0029907227 .38398744 .0029907227 .4189911 0V.0309906H.3869934C.29699708 .0309906 .2939911 .041992189 .2939911 .07902527V.64004519Z"/>
<path id="font_1_1" d="M.6769867 .16200257H.6519928C.6469879 .13600159 .6429901 .11299133 .6339874 .08898926 .6289978 .07299805 .6259918 .06498718 .56799319 .06498718H.48799134C.5009918 .1210022 .5319977 .16900635 .57699587 .23501587 .6239929 .306015 .6649933 .37503053 .6649933 .45404054 .6649933 .59306338 .5299988 .7050781 .36099244 .7050781 .18899536 .7050781 .055999757 .5910492 .055999757 .45404054 .055999757 .37503053 .09700012 .306015 .14399719 .23501587 .18798828 .16900635 .21998596 .1210022 .23298645 .06498718H.15299988C.09498596 .06498718 .09199524 .07299805 .08699036 .08799744 .07899475 .11099243 .07398987 .13700867 .068984989 .16200257H.04399109L.07699585 0H.23699951C.25898744 0 .2619934 0 .2619934 .020996094 .2619934 .09098816 .23098755 .17900086 .20799256 .24301148 .18699646 .3010254 .15899658 .3800354 .15899658 .45503236 .15899658 .6150665 .2689972 .68307498 .3600006 .68307498 .45599366 .68307498 .56199648 .61105349 .56199648 .45503236 .56199648 .3800354 .5349884 .3040161 .5059967 .22201538 .4909973 .18000794 .45899964 .08999634 .45899964 .020996094 .45899964 0 .46199037 0 .4850006 0H.6439972L.6769867 .16200257Z"/>
<path id="font_1_3" d="M.1269989 .07699585 .23298645 .18003845C.3889923 .31811524 .44898988 .3721466 .44898988 .47216798 .44898988 .5860901 .35899354 .6660156 .23699951 .6660156 .12399292 .6660156 .049987794 .57411196 .049987794 .48516847 .049987794 .4291687 .099990848 .4291687 .102996829 .4291687 .11999512 .4291687 .15499878 .44117738 .15499878 .48217774 .15499878 .5081787 .13699341 .5341797 .101989749 .5341797 .09399414 .5341797 .09199524 .5341797 .08898926 .5331726 .11199951 .59806826 .1659851 .63500979 .22399903 .63500979 .31498719 .63500979 .35798646 .5541382 .35798646 .47216798 .35798646 .39215089 .30799867 .31311036 .25299073 .25108338L.06098938 .036987306C.049987794 .025985718 .049987794 .023986817 .049987794 0H.42099L.44898988 .17404175H.42399598C.4189911 .14402771 .4119873 .1000061 .4019928 .084991458 .394989 .07699585 .32899476 .07699585 .30699159 .07699585H.1269989Z"/>
<path id="font_2_27" d="M.71699526 0V.0309906H.69898989C.6389923 .0309906 .625 .037979127 .6139984 .07095337L.397995 .6958008C.3929901 .7088165 .3909912 .7158203 .375 .7158203 .35899354 .7158203 .35598756 .70980837 .35099793 .6958008L.14399719 .09791565C.12599182 .04698181 .085998538 .03199768 .03199768 .0309906V0L.13398743 .0029907227 .24899292 0V.0309906C.19898987 .0309906 .17399597 .05596924 .17399597 .0819397 .17399597 .08493042 .1749878 .09492493 .17599488 .09692383L.22200012 .2277832H.46899415L.5219879 .07495117C.522995 .07095337 .5249939 .064956668 .5249939 .060958864 .5249939 .0309906 .46899415 .0309906 .44198609 .0309906V0C.47799684 .0029907227 .5479889 .0029907227 .58599856 .0029907227L.71699526 0M.45799256 .25878907H.23298645L.34498597 .58380129 .45799256 .25878907Z"/>
<path id="font_2_34" d="M.651001 .18289185C.651001 .26983644 .56900027 .34480287 .45799256 .35679627 .5549927 .3757782 .6239929 .43974305 .6239929 .51368716 .6239929 .6006317 .5319977 .6826172 .4019928 .6826172H.035995485V.6516113H.05999756C.13699341 .6516113 .13899231 .64060977 .13899231 .6046295V.07795715C.13899231 .041992189 .13699341 .0309906 .05999756 .0309906H.035995485V0H.42799378C.5609894-.0002593994 .651001 .08874512 .651001 .18273926V.18289185M.5269928 .5136719C.5269928 .44970704 .47799684 .36573792 .36698915 .36573792H.22200012V.6116333C.22200012 .64460757 .22399903 .6516113 .2709961 .6516113H.394989C.49198915 .65174868 .5269928 .56674197 .5269928 .51374819V.5136719M.5509949 .18386841C.5509949 .1129303 .49899293 .0309906 .3959961 .0309906H.2709961C.22399903 .0309906 .22200012 .037994386 .22200012 .07095337V.34375H.4099884C.5089874 .34399415 .5509949 .25099183 .5509949 .18399048V.18386841Z"/>
</defs>
<path transform="matrix(1.00006,0,0,-1,12.209831,17.347)" stroke-width=".3985" stroke-linecap="butt" stroke-miterlimit="10" stroke-linejoin="miter" fill="none" stroke="#000000" d="M0 0"/>
<path transform="matrix(1.00006,0,0,-1,12.209831,17.347)" stroke-width=".3985" stroke-linecap="butt" stroke-miterlimit="10" stroke-linejoin="miter" fill="none" stroke="#000000" d="M0 0H12.47261M44.221 0H56.69362 85.04042M85.04042 0H113.38724 141.73404M141.73404 0H170.08086V-12.47261M170.08086-44.221V-56.69362H143.43483M111.68643-56.69362H85.04042 42.5202M42.5202-56.69362 0-56.69363"/>
<path transform="matrix(1.00006,0,0,-1,12.209831,17.347)" stroke-width=".797" stroke-linecap="butt" stroke-linejoin="bevel" fill="none" stroke="#000000" d="M12.0741 0 15.15152 5.95285 20.50934-5.95285 25.86714 5.95285 31.22496-5.95285 36.58278 5.95285 41.9406-5.95285 44.6195 0"/>
<path transform="matrix(1.00006,0,0,-1,12.209831,17.347)" d="M58.28076 0C58.28076 .87656 57.57018 1.58714 56.69362 1.58714 55.81705 1.58714 55.10646 .87656 55.10646 0 55.10646-.87656 55.81705-1.58714 56.69362-1.58714 57.57018-1.58714 58.28076-.87656 58.28076 0ZM56.69362 0"/>
<path transform="matrix(1.00006,0,0,-1,12.209831,17.347)" stroke-width=".3985" stroke-linecap="butt" stroke-miterlimit="10" stroke-linejoin="miter" fill="none" stroke="#000000" d="M58.28076 0C58.28076 .87656 57.57018 1.58714 56.69362 1.58714 55.81705 1.58714 55.10646 .87656 55.10646 0 55.10646-.87656 55.81705-1.58714 56.69362-1.58714 57.57018-1.58714 58.28076-.87656 58.28076 0ZM56.69362 0"/>
<use data-text="1" xlink:href="#font_1_2" transform="matrix(9.963197,0,0,-9.9626,31.147965,7.578)"/>
<use data-text="1" xlink:href="#font_1_2" transform="matrix(9.963197,0,0,-9.9626,36.129564,7.578)"/>
<use data-text="&#x2126;" xlink:href="#font_1_1" transform="matrix(9.963197,0,0,-9.9626,42.765054,7.578)"/>
<path transform="matrix(1.00006,0,0,-1,12.209831,17.347)" d="M171.668 0C171.668 .87656 170.95742 1.58714 170.08086 1.58714 169.20429 1.58714 168.4937 .87656 168.4937 0 168.4937-.87656 169.20429-1.58714 170.08086-1.58714 170.95742-1.58714 171.668-.87656 171.668 0ZM170.08086 0"/>
<path transform="matrix(1.00006,0,0,-1,12.209831,17.347)" stroke-width=".3985" stroke-linecap="butt" stroke-miterlimit="10" stroke-linejoin="miter" fill="none" stroke="#000000" d="M171.668 0C171.668 .87656 170.95742 1.58714 170.08086 1.58714 169.20429 1.58714 168.4937 .87656 168.4937 0 168.4937-.87656 169.20429-1.58714 170.08086-1.58714 170.95742-1.58714 171.668-.87656 171.668 0ZM170.08086 0"/>
<path transform="matrix(1.00006,0,0,-1,12.209831,17.347)" stroke-width=".797" stroke-linecap="butt" stroke-linejoin="bevel" fill="none" stroke="#000000" d="M170.08086-12.0741 176.0337-15.15152 164.128-20.50934 176.0337-25.86714 164.128-31.22496 176.0337-36.58278 164.128-41.9406 170.08086-44.6195"/>
<use data-text="1" xlink:href="#font_1_2" transform="matrix(9.963197,0,0,-9.9626,190.4595,47.841)"/>
<use data-text="1" xlink:href="#font_1_2" transform="matrix(9.963197,0,0,-9.9626,195.4411,47.841)"/>
<use data-text="&#x2126;" xlink:href="#font_1_1" transform="matrix(9.963197,0,0,-9.9626,202.0766,47.841)"/>
<path transform="matrix(1.00006,0,0,-1,12.209831,17.347)" stroke-width=".797" stroke-linecap="butt" stroke-linejoin="bevel" fill="none" stroke="#000000" d="M143.83333-56.69362 140.75592-62.64647 135.3981-50.74075 130.04029-62.64647 124.68246-50.74075 119.32465-62.64647 113.96684-50.74075 111.28793-56.69362"/>
<path transform="matrix(1.00006,0,0,-1,12.209831,17.347)" d="M86.62756-56.69362C86.62756-55.81705 85.91698-55.10646 85.04042-55.10646 84.16386-55.10646 83.45328-55.81705 83.45328-56.69362 83.45328-57.57018 84.16386-58.28076 85.04042-58.28076 85.91698-58.28076 86.62756-57.57018 86.62756-56.69362ZM85.04042-56.69362"/>
<path transform="matrix(1.00006,0,0,-1,12.209831,17.347)" stroke-width=".3985" stroke-linecap="butt" stroke-miterlimit="10" stroke-linejoin="miter" fill="none" stroke="#000000" d="M86.62756-56.69362C86.62756-55.81705 85.91698-55.10646 85.04042-55.10646 84.16386-55.10646 83.45328-55.81705 83.45328-56.69362 83.45328-57.57018 84.16386-58.28076 85.04042-58.28076 85.91698-58.28076 86.62756-57.57018 86.62756-56.69362ZM85.04042-56.69362"/>
<use data-text="2" xlink:href="#font_1_3" transform="matrix(9.963197,0,0,-9.9626,130.36792,90.568)"/>
<use data-text="2" xlink:href="#font_1_3" transform="matrix(9.963197,0,0,-9.9626,135.34952,90.568)"/>
<use data-text="&#x2126;" xlink:href="#font_1_1" transform="matrix(9.963197,0,0,-9.9626,141.98502,90.568)"/>
<path transform="matrix(1.00006,0,0,-1,12.209831,17.347)" stroke-width=".3985" stroke-linecap="butt" stroke-miterlimit="10" stroke-linejoin="miter" fill="none" stroke="#000000" d="M56.69362 0 63.7685-14.1495M77.96553-42.5441 85.04042-56.69362"/>
<path transform="matrix(1.00006,0,0,-1,12.209831,17.347)" stroke-width=".797" stroke-linecap="butt" stroke-linejoin="bevel" fill="none" stroke="#000000" d="M63.59029-13.79309 70.29044-13.88347 62.0383-23.99922 75.08218-23.46713 66.83003-33.58289 79.87392-33.0508 71.62178-43.16655 78.14372-42.90051"/>
<use data-text="2" xlink:href="#font_1_3" transform="matrix(4.523291,8.876677,8.877208,-4.5230205,64.52668,44.389749)"/>
<use data-text="2" xlink:href="#font_1_3" transform="matrix(4.523291,8.876677,8.877208,-4.5230205,66.78832,48.828088)"/>
<use data-text="&#x2126;" xlink:href="#font_1_1" transform="matrix(4.523291,8.876677,8.877208,-4.5230205,69.80084,54.73996)"/>
<path transform="matrix(1.00006,0,0,-1,12.209831,17.347)" stroke-width=".3985" stroke-linecap="butt" stroke-miterlimit="10" stroke-linejoin="miter" fill="none" stroke="#000000" d="M170.08086 0 140.7682-19.54182M114.35306-37.15178 85.04042-56.69362"/>
<path transform="matrix(1.00006,0,0,-1,12.209831,17.347)" stroke-width=".797" stroke-linecap="butt" stroke-linejoin="bevel" fill="none" stroke="#000000" d="M141.09976-19.3208 141.84119-25.98062 130.77965-19.04672 132.9256-31.92429 121.8641-24.99036 124.01004-37.86792 112.94852-30.93402 114.02148-37.3728"/>
<use data-text="2" xlink:href="#font_1_3" transform="matrix(8.355835,-5.4261305,-5.4264557,-8.355333,125.47615,41.094484)"/>
<use data-text="2" xlink:href="#font_1_3" transform="matrix(8.355835,-5.4261305,-5.4264557,-8.355333,129.65407,38.38142)"/>
<use data-text="&#x2126;" xlink:href="#font_1_1" transform="matrix(8.355835,-5.4261305,-5.4264557,-8.355333,135.21906,34.767618)"/>
<path transform="matrix(1.00006,0,0,-1,12.209831,17.347)" stroke-width=".3985" stroke-linecap="butt" stroke-miterlimit="10" stroke-linejoin="miter" fill="none" stroke="#000000" d="M0 0"/>
<use data-text="A" xlink:href="#font_2_27" transform="matrix(9.963197,0,0,-9.9626,1.2171707,13.827)"/>
<path transform="matrix(1.00006,0,0,-1,12.209831,17.347)" stroke-width=".3985" stroke-linecap="butt" stroke-miterlimit="10" stroke-linejoin="miter" fill="none" stroke="#000000" d="M0-56.69363"/>
<use data-text="B" xlink:href="#font_2_34" transform="matrix(9.963197,0,0,-9.9626,1.6362,84.365)"/>
</svg>
