<svg xmlns="http://www.w3.org/2000/svg" xmlns:xlink="http://www.w3.org/1999/xlink" xmlns:inkscape="http://www.inkscape.org/namespaces/inkscape" version="1.1" width="206" height="170" viewBox="0 0 206 170">
<defs>
<path id="font_1_2" d="M.33399964 .30233766C.33999635 .32835389 .36299134 .42037965 .43299867 .42037965 .43798829 .42037965 .46199037 .42037965 .48298646 .40734864 .45498658 .402359 .43499757 .37734986 .43499757 .35334779 .43499757 .33735658 .44599916 .31835938 .47299195 .31835938 .49499513 .31835938 .5269928 .3363495 .5269928 .37635804 .5269928 .42837525 .46798707 .4423828 .43399049 .4423828 .37599183 .4423828 .34098817 .38935853 .32899476 .36634828 .3039856 .43237306 .25 .4423828 .22099304 .4423828 .116989139 .4423828 .05999756 .3133545 .05999756 .28834535 .05999756 .27833558 .069992069 .27833558 .07199097 .27833558 .07998657 .27833558 .08299255 .28033448 .084991458 .28933717 .11898804 .39535523 .18499756 .42037965 .21899414 .42037965 .23799134 .42037965 .272995 .4113617 .272995 .35334779 .272995 .32235719 .2559967 .25532533 .21899414 .11528015 .20298767 .053268434 .16799927 .011245728 .12399292 .011245728 .117996219 .011245728 .09498596 .011245728 .07398987 .024276734 .09899902 .029266358 .12098694 .05027771 .12098694 .07827759 .12098694 .105270389 .09899902 .11328125 .083999637 .11328125 .053985597 .11328125 .0289917 .08728027 .0289917 .055267335 .0289917 .009246826 .07899475-.0107421879 .12298584-.0107421879 .18899536-.0107421879 .22499085 .059280397 .22799683 .0652771 .23999024 .028274537 .27598573-.0107421879 .33599855-.0107421879 .43899537-.0107421879 .49598695 .118270877 .49598695 .14328003 .49598695 .1532898 .4869995 .1532898 .48399354 .1532898 .47499085 .1532898 .47299195 .14929199 .47099305 .14228821 .43798829 .03527832 .36999513 .011245728 .33799745 .011245728 .29899598 .011245728 .2829895 .043273927 .2829895 .07727051 .2829895 .09927368 .2889862 .121276859 .2999878 .16529846L.33399964 .30233766Z"/>
<path id="font_2_1" d="M.32299806 .24900818C.40499879 .28497315 .44198609 .29896546 .46699525 .31095887 .48599244 .3189392 .49499513 .322937 .49499513 .34191896 .49499513 .35891725 .48199464 .37390138 .46398927 .37390138 .45700074 .37390138 .45498658 .37390138 .44299317 .36489869L.30699159 .27398683 .32199098 .42185975C.32398988 .4398346 .32199098 .46484376 .2919922 .46484376 .27999879 .46484376 .26098634 .4568329 .26098634 .43484498 .26098634 .42585755 .2649994 .39587403 .2659912 .38587953 .2679901 .36889649 .2749939 .29696656 .2769928 .27398683L.14199829 .36489869C.13198853 .3708954 .1289978 .37390138 .11999512 .37390138 .101989749 .37390138 .08898926 .35891725 .08898926 .34191896 .08898926 .3219452 .100997928 .3169403 .10998535 .3129425L.26098634 .25C.1789856 .21403504 .14199829 .20004273 .116989139 .18806458 .09799194 .18006897 .08898926 .17607117 .08898926 .15708924 .08898926 .1401062 .101989749 .12510681 .11999512 .12510681 .1269989 .12510681 .1289978 .12510681 .14099121 .1341095L.2769928 .22502136 .26098634 .06416321C.26098634 .042175294 .27999879 .034179689 .2919922 .034179689 .3039856 .034179689 .32299806 .042175294 .32299806 .06416321 .32299806 .073150638 .31900025 .103134158 .31799317 .11312866 .31599427 .1301117 .30899049 .20204163 .30699159 .22502136L.4269867 .14509583C.45298768 .12510681 .45498658 .12510681 .46398927 .12510681 .48199464 .12510681 .49499513 .1401062 .49499513 .15708924 .49499513 .17706299 .48298646 .18206787 .47399903 .18606568L.32299806 .24900818Z"/>
<path id="font_3_2" d="M.33499146 .63612368C.33499146 .6630554 .33299256 .6640625 .30499269 .6640625 .24099732 .6014404 .1499939 .6004486 .10899353 .6004486V.5644531C.1329956 .5644531 .19898987 .5644531 .2539978 .592453V.08203125C.2539978 .04899597 .2539978 .035995485 .1539917 .035995485H.115997318V0C.13398743 .0009918213 .25698854 .0039978029 .2939911 .0039978029 .32499696 .0039978029 .45098878 .0009918213 .47299195 0V.035995485H.43499757C.33499146 .035995485 .33499146 .04899597 .33499146 .08203125V.63612368Z"/>
<path id="font_3_1" d="M.5159912 .31925965C.5159912 .42918397 .5029907 .50813296 .45700074 .5780945 .42599488 .62405398 .3639984 .6640625 .28399659 .6640625 .051986696 .6640625 .051986696 .39120484 .051986696 .31925965 .051986696 .2472992 .051986696-.01953125 .28399659-.01953125 .5159912-.01953125 .5159912 .2472992 .5159912 .31925965M.28399659 .008468628C.23799134 .008468628 .1769867 .035446168 .15699768 .117385867 .14299011 .17634583 .14299011 .25830079 .14299011 .33224488 .14299011 .40519715 .14299011 .4811554 .1579895 .53611758 .1789856 .6150665 .24299622 .63604739 .28399659 .63604739 .33799745 .63604739 .3899994 .6030731 .4079895 .545105 .42399598 .4911499 .4249878 .41918946 .4249878 .33224488 .4249878 .25830079 .4249878 .18434143 .4119873 .12138367 .3919983 .030441285 .32398988 .008468628 .28399659 .008468628Z"/>
<clipPath id="clip_4">
<path transform="matrix(1.00002,0,0,-1.00005,1.095665,382.39445)" d="M0 214.09095H194.27368V375.47959H0Z"/>
</clipPath>
<path id="font_1_1" d="M.36698915 .3996582H.45298768C.47299195 .3996582 .48298646 .3996582 .48298646 .41966249 .48298646 .43066407 .47299195 .43066407 .45599366 .43066407H.37298585L.3939972 .5449524C.397995 .5660095 .4119873 .6370239 .41799928 .6490326 .4269867 .66804507 .44400025 .68307498 .46499635 .68307498 .46899415 .68307498 .49499513 .68307498 .5139923 .66503909 .46998597 .661026 .45999146 .6260376 .45999146 .6110382 .45999146 .58802798 .47799684 .57603457 .49699403 .57603457 .522995 .57603457 .5519867 .5980377 .5519867 .6360321 .5519867 .6820679 .5059967 .7050781 .46499635 .7050781 .43099977 .7050781 .36799623 .68707278 .33799745 .58802798 .33198548 .56700137 .32899476 .5569763 .30499269 .43066407H.23599243C.21699524 .43066407 .20599365 .43066407 .20599365 .4116516 .20599365 .3996582 .21499634 .3996582 .23399353 .3996582H.2999878L.22499085 .0048828127C.20698548-.09207153 .18998719-.18309021 .13798523-.18309021 .13398743-.18309021 .10899353-.18309021 .08999634-.16506958 .13598633-.1620636 .14498902-.12606812 .14498902-.111068729 .14498902-.08807373 .1269989-.07606506 .10798645-.07606506 .08198547-.07606506 .052993776-.09806824 .052993776-.13606262 .052993776-.18109131 .09700012-.20507813 .13798523-.20507813 .19299317-.20507813 .23298645-.14607239 .25099183-.108062747 .2829895-.04508972 .30599977 .07583618 .30699159 .082839969L.36698915 .3996582Z"/>
<path id="font_5_1" d="M.33099366-.2400055C.33099366-.23701477 .33099366-.23500061 .31399537-.21800232 .18899536-.0920105 .15699768 .09700012 .15699768 .25 .15699768 .42399598 .19499207 .59799197 .31799317 .72299197 .33099366 .73498538 .33099366 .7369995 .33099366 .73999026 .33099366 .746994 .32699586 .75 .32099916 .75 .31098939 .75 .22099304 .6819916 .1619873 .5549927 .11099243 .44499208 .09899902 .33399964 .09899902 .25 .09899902 .17199707 .10998535 .050994874 .16499329-.06201172 .22499085-.18501282 .31098939-.25 .32099916-.25 .32699586-.25 .33099366-.24700928 .33099366-.2400055Z"/>
<path id="font_5_2" d="M.2889862 .25C.2889862 .32798768 .27799989 .44898988 .22299195 .56199648 .16299439 .68499758 .07699585 .75 .066986087 .75 .06098938 .75 .056991579 .74598696 .056991579 .73999026 .056991579 .7369995 .056991579 .73498538 .07598877 .71699526 .17399597 .6179962 .23098755 .45899964 .23098755 .25 .23098755 .07899475 .19400025-.09700012 .069992069-.2230072 .056991579-.23500061 .056991579-.23701477 .056991579-.2400055 .056991579-.2460022 .06098938-.25 .066986087-.25 .07699585-.25 .16699219-.18200684 .22599793-.055007936 .2769928 .054992677 .2889862 .16600037 .2889862 .25Z"/>
</defs>
<path transform="matrix(1.00002,0,0,-1.00005,1.095665,382.39445)" stroke-width="1.19553" stroke-linecap="butt" stroke-miterlimit="10" stroke-linejoin="miter" fill="none" stroke="#000000" d="M116.56421 238.22032V248.16757M131.86286 238.22032V248.16757M163.18988 238.22032V248.16757"/>
<path transform="matrix(1.00002,0,0,-1.00005,1.095665,382.39445)" stroke-width="1.19553" stroke-linecap="butt" stroke-miterlimit="10" stroke-linejoin="miter" fill="none" stroke="#000000" d=""/>
<path transform="matrix(1.00002,0,0,-1.00005,1.095665,382.39445)" stroke-width=".3985" stroke-linecap="butt" stroke-miterlimit="10" stroke-linejoin="miter" fill="none" stroke="#000000" d="M0 243.19394H192.28116"/>
<path transform="matrix(1.00002,0,0,-1.00005,193.38068,139.18836)" d="M1.99252 0-1.19551 1.59401 0 0-1.19551-1.59401"/>
<path transform="matrix(1.00002,0,0,-1.00005,1.095665,382.39445)" stroke-width=".3985" stroke-linecap="butt" stroke-miterlimit="10" stroke-linejoin="miter" fill="none" stroke="#000000" d="M38.85474 214.09095V373.48707"/>
<path transform="matrix(0,-1.00005,-1.00002,-0,39.951185,8.888733)" d="M1.99252 0-1.19551 1.59401 0 0-1.19551-1.59401"/>
<use data-text="x" xlink:href="#font_1_2" transform="matrix(9.962799,0,0,-9.963098,112.524898,154.54306)"/>
<use data-text="&#x2217;" xlink:href="#font_2_1" transform="matrix(6.97394,0,0,-6.9741489,118.21901,150.92789)"/>
<use data-text="x" xlink:href="#font_1_2" transform="matrix(9.962799,0,0,-9.963098,127.8792,151.97194)"/>
<use data-text="1" xlink:href="#font_3_2" transform="matrix(6.97394,0,0,-6.9741489,133.57332,153.46602)"/>
<use data-text="x" xlink:href="#font_1_2" transform="matrix(9.962799,0,0,-9.963098,159.20685,151.97194)"/>
<use data-text="0" xlink:href="#font_3_1" transform="matrix(6.97394,0,0,-6.9741489,164.90096,153.46602)"/>
<g clip-path="url(#clip_4)">
<path transform="matrix(1.00002,0,0,-1.00005,1.095665,382.39445)" stroke-width=".3985" stroke-linecap="butt" stroke-miterlimit="10" stroke-linejoin="miter" fill="none" stroke="#0000ff" d="M38.85474 216.73682H39.47702 40.09932L40.72162 216.73722 41.34392 216.73763 41.9662 216.73844 42.5885 216.73964 43.21082 216.74166 43.8331 216.74367 44.4554 216.74692 45.07768 216.75055 45.7 216.75499 46.3223 216.76023 46.94458 216.7667 47.56688 216.77396 48.18918 216.78284 48.81148 216.79251 49.43379 216.80342 50.05608 216.81595 50.67838 216.83007 51.30067 216.8454 51.92297 216.86277 52.54527 216.88135 53.16756 216.90193 53.78987 216.92453 54.41216 216.94916 55.03445 216.97582 55.65675 217.00408 56.27904 217.03516 56.90135 217.06826 57.52364 217.10378 58.14595 217.14173 58.76823 217.1821 59.39055 217.2249 60.01285 217.2709 60.63513 217.31935 61.25743 217.37064 61.87973 217.42514 62.50203 217.48246 63.12433 217.5426 63.74661 217.60639 64.36891 217.67342 64.99121 217.74326 65.61351 217.81714 66.23581 217.89424 66.85811 217.97498 67.48041 218.05934 68.1027 218.14736 68.725 218.2394 69.3473 218.33509 69.96959 218.4352 70.5919 218.53896 71.21419 218.64714 71.83649 218.75937 72.45877 218.87604 73.08109 218.99716 73.70338 219.12271 74.32567 219.2531 74.94797 219.38794 75.57027 219.52722 76.19257 219.67174 76.81487 219.82071 77.43716 219.97492 78.05946 220.13397 78.68176 220.29869 79.30406 220.46825 79.92636 220.64304 80.54865 220.82309 81.17096 221.0088 81.79324 221.20017 82.41554 221.39717 83.03784 221.59983 83.66014 221.80814 84.28244 222.02211 84.90472 222.24253 85.52702 222.4686 86.14934 222.70113 86.77162 222.93973 87.39394 223.18437 88.01622 223.43547 88.63852 223.69303 89.26082 223.95746 89.88312 224.22794 90.50542 224.50568 91.1277 224.7899 91.75002 225.08098 92.3723 225.3789 92.9946 225.6837 93.6169 225.99575 94.23918 226.31508 94.8615 226.64168 95.48378 226.97554 96.1061 227.31668 96.7284 227.66548 97.3507 228.02155 97.97299 228.38568 98.59528 228.75749 99.21758 229.13698 99.83989 229.52452 100.46217 229.92015 101.08447 230.32347 101.70679 230.73525 102.32904 231.15509 102.95137 231.58342 103.57362 232.01982 104.19595 232.4651 104.8183 232.91887 105.44054 233.38112 106.06285 233.85224 106.6851 234.33184 107.30745 234.82073 107.92978 235.31848 108.55202 235.82514 109.17435 236.34108 109.7966 236.86629 110.41893 237.40038 111.04126 237.94417 111.66351 238.49767 112.28584 239.06043 112.90808 239.63248 113.53043 240.2146 114.15276 240.80643 114.775 241.40836 115.39732 242.01998 116.01956 242.64168 116.64192 243.27347 117.26424 243.91536 117.88649 244.56775 118.50882 245.23023 119.13106 245.9032 119.75339 246.58667 120.37572 247.28104 120.99797 247.9859 121.6203 248.70168 122.24255 249.42794 122.86487 250.1655 123.48721 250.91356 124.10947 251.67293 124.73178 252.4436 125.35403 253.22559 125.97636 254.01885 126.59871 254.82343 127.22095 255.63932 127.84328 256.46733 128.46553 257.3066 129.08785 258.15763 129.71019 259.02076 130.33245 259.89558 130.95478 260.7821 131.57701 261.68116 132.19934 262.5919 132.82169 263.51518 133.44393 264.45097 134.06626 265.39888 134.68849 266.35929 135.31084 267.3322 135.93317 268.31764 136.55539 269.316 137.17774 270.32728 137.79999 271.35108 138.42232 272.38819 139.04465 273.4382 139.66689 274.50117 140.28923 275.57746 140.91149 276.66703 141.5338 277.76994 142.15615 278.8866 142.77838 280.01658 143.40071 281.16026 144.02297 282.3173 144.6453 283.48844 145.26764 284.6733 145.88986 285.87229 146.5122 287.085 147.13446 288.31187 147.75678 289.55326 148.37912 290.80879 149.00135 292.07844 149.62369 293.3626 150.24593 294.66133 150.86826 295.97459 151.49062 297.30278 152.11284 298.64509 152.73519 300.00315 153.3574 301.3753 153.97975 302.76286 154.6021 304.1653 155.22432 305.58314 155.84667 307.01628 156.4689 308.46437 157.09125 309.9282 157.71358 311.40736 158.33582 312.90187 158.95816 314.4125 159.58039 315.93894 160.20273 317.48069 160.82508 319.03858 161.44731 320.6122 162.06964 322.2024 162.69188 323.80833 163.31423 325.43083 163.93654 327.06944 164.55879 328.72425 165.18112 330.39558 165.80336 332.08345 166.4257 333.78828 167.04802 335.50968 167.67028 337.24763 168.29262 339.00254 168.91486 340.77439 169.53719 342.5636 170.15953 344.36979 170.78177 346.1929 171.40412 348.03337 172.02634 349.8912 172.64868 351.7668 173.27101 353.6598 173.89325 355.57054 174.5156 357.4986 175.13784 359.44447 175.76018 361.40809 176.38249 363.38987 177.00473 365.38984 177.62709 367.40794 178.24932 369.4434 178.87166 371.49827 179.49399 373.5709 180.11624 375.66206 180.73856 377.77143 181.3608 379.89973 181.98316 382.04664 182.60547 384.2125 183.22772 386.3965 183.85004 388.59996 184.47229 390.82197 185.09464 393.0637 185.71695 395.32447 186.3392 397.60417 186.96154 399.90324 187.58379 402.22175 188.20612 404.55998 188.82845 406.91764 189.4507 409.2946 190.07302 411.69139 190.69527 414.10838 191.31761 416.5447 191.93994 419.00209 192.56218 421.478 193.18451 423.9753 193.80675 426.492 194.42911 429.02967 195.05142 431.58714 195.67366 434.1652 196.296 436.76383 196.91825 439.38346 197.54058 442.0233 198.16292 444.6845 198.78516 447.36589 199.40749 450.0687 200.02973 452.79249 200.65206 455.53727 201.2744 458.30305 201.89665 461.0902 202.51897 463.89958 203.14122 466.72874 203.76355 469.5809 204.38588 472.45408 205.00814 475.34904 205.63047 478.26539 206.25272 481.20393 206.87503 484.16429 207.49738 487.14726 208.11963 490.15126 208.74195 493.1782 209.3642 496.22657 209.98653 499.29835 210.60887 502.3919 211.2311 505.50813 211.85344 508.6469 212.47568 511.80833 213.098 514.9923 213.72035 518.20016 214.34258 521.4298 214.96494 524.6828 215.58718 527.9585 216.20949 531.25759 216.83184 534.58 217.45407 537.92556 218.07642 541.2952 218.69866 544.68716 219.32099 548.1037 219.94333 551.54367 220.56555 555.007 221.1879 558.4942 221.81015 562.00527 222.43248 565.5401 223.05481 569.0999 223.67705 572.6824 224.2994 576.2907 224.92165 579.92166 225.54396 583.5788 226.1663 587.2589 226.78855 590.9641 227.41088 594.694 228.03311 598.44839 228.65544 602.2283 229.27779 606.03237 229.90003 609.86148 230.52236 613.71566 231.14459 617.5944 231.76694 621.499 232.38928 625.4295 233.0115 629.38339 233.63387 633.36477 234.25609 637.3699 234.87842 641.4021 235.50077 645.4593 236.123 649.54238 236.74535 653.65127 237.36757 657.7856 237.98992 661.94656 238.61226 666.13418 239.23448 670.3464 239.85683 674.58609 240.47905 678.8516 241.10141 683.1438 241.72373 687.4622 242.34598 691.8073 242.96833 696.1798 243.59055 700.57736 244.21289 705.00357 244.8352 709.4556 245.45746 713.9347 246.0798 718.44088 246.70204 722.97409 247.32437 727.5351 247.9467 732.1236 248.56896 736.7379 249.19129 741.3813 249.81352 746.05099 250.43587 750.74966 251.0582 755.4754 251.68044 760.229 252.30278 765.0101 252.92502 769.8194 253.54735 774.657 254.16968 779.52328 254.79193 784.41696 255.41428 789.33889 256.0365 794.2891 256.65885 799.2676 257.28117 804.27517 257.9034 809.3109 258.52574 814.3766 259.14799 819.46896 259.77037 824.59237 260.39265 829.74319 261.01493 834.9235 261.63725 840.1329 262.2595 845.37136 262.8818 850.63888 263.50416 855.9371 264.1264 861.2623 264.74873 866.6195 265.37098 872.0041 265.9933 877.4206 266.61564 882.8657 267.23789 888.34036 267.8602 893.8453 268.48246 899.38009 269.1048 904.9459 269.7271 910.54086 270.34938 916.16647 270.9717 921.82199 271.59397 927.5077 272.21629 933.22457 272.83863 938.9725 273.46086 944.7491 274.0832 950.5588 274.70545 956.3967 275.32774 962.26828 275.9501 968.1691 276.57234 974.10159 277.19468 980.0647 277.81694 986.05929 278.43925 992.08499 279.06159 998.14376 279.6838 1004.2312 280.30616 1010.35256 280.9284 1016.5046 281.55076 1022.6881 282.17308 1028.9036 282.79533 1035.1509 283.41767 1041.4297 284.0399 1047.7412 284.66224 1054.0858 285.28456 1060.461 285.9068 1066.869 286.52915 1073.3093 287.15138 1079.7827 287.7737 1086.2868 288.39604 1092.826 289.01829 1099.395 289.64064 1106 290.26289 1112.6349 290.8852 1119.3046 291.5075 1126.0076 292.12977 1132.743 292.7521 1139.5111 293.37437 1146.3119 293.99668 1153.147 294.61903 1160.0169 295.24128 1166.919 295.8636 1173.8543 296.48585 1180.8237 297.1082 1187.8256 297.7305 1194.8629 298.35276 1201.9338 298.97508 1209.039 299.59736 1216.176 300.21968 1223.3511 300.842 1230.5576 301.46424 1237.7992 302.08659 1245.0744 302.70884 1252.3855 303.33116 1259.7305 303.9535 1267.111 304.57575 1274.5238 305.19807 1281.9741 305.82029 1289.4568 306.44264 1296.9774 307.06498 1304.5307 307.6872 1312.1199 308.30955 1319.7439 308.9318 1327.404 309.5541 1335.0988 310.17646 1342.8305 310.79869 1350.5964 311.42106 1358.3977 312.04328 1366.2356 312.6656 1374.1085 313.28797 1382.0188 313.9102 1389.9617 314.53254 1397.9441 315.15476 1405.9596 315.7771 1414.0148 316.39945 1422.105 317.02168 1430.2307 317.644 1438.3927 318.26625 1446.592 318.88859 1454.8272 319.5109 1463.1002 320.13316 1471.4072 320.75553 1479.7546 321.37773 1488.1376 322.0001 1496.5568 322.6224 1505.0144 323.24467 1513.5083 323.867 1522.039 324.4892 1530.6076 325.11158 1539.2153 325.7339 1547.8595 326.35615 1556.5403 326.9785 1565.2583 327.6007 1574.015 328.22306 1582.8088 328.84538 1591.6423 329.46763 1600.5117 330.08998 1609.4214 330.7122 1618.3659 331.33454 1627.3524 331.95686 1636.3755 332.57914 1645.4367 333.20146 1654.5358 333.82368 1663.6744 334.44606 1672.851 335.06837 1682.0691 335.6906 1691.3236 336.31294 1700.6165 336.93519 1709.949 337.5575 1719.3197 338.17985 1728.7308 338.8021 1738.1803 339.4244 1747.6707 340.04667 1757.1984 340.66899 1766.7682 341.29136 1776.3744 341.91358 1786.0228 342.5359 1795.7085 343.15815 1805.4349 343.7805 1815.2009 344.40284 1825.0098 345.02507 1834.8536 345.64738 1844.7428 346.26966 1854.6675 346.89198 1864.6361 347.5143 1874.6436 348.13655 1884.6909 348.75889 1894.7778 349.38114 1904.9067 350.00346 1915.0773 350.6258 1925.2886 351.24806 1935.5407 351.87037 1945.8318 352.4926 1956.1646 353.11494 1966.5398 353.7373 1976.9558 354.35954 1987.4113 354.98185 1997.9104 355.6041 2008.447 356.22645 2019.031 356.84877 2029.6536 357.471 2040.317 358.09336 2051.0218 358.71559 2061.7708 359.3379 2072.5594 359.96025 2083.393 360.5825 2094.264 361.20484 2105.1822 361.82707 2116.14 362.4494 2127.1392 363.07176 2138.1817 363.69398 2149.2684 364.3163 2160.3944 364.93858 2171.5645 365.5609 2182.7806 366.18324 2194.0362 366.80549 2205.3343 367.4278 2216.6763 368.05006 2228.0604 368.6724 2239.487 369.2947 2250.9605 369.91697 2262.4732 370.53929 2274.032 371.16154 2285.632 371.78388 2297.278 372.4062 2308.966 373.02845 2320.6973 373.65077 2332.4735 374.27305 2344.2923 374.89537 2356.1563 375.5177 2368.0665 376.13993 2380.017 376.76228 2392.0133 377.38453 2404.053 378.00685 2416.1378 378.62919 2428.2664 379.25144 2440.4407 379.87376 2452.6597 380.496 2464.921 381.11833 2477.2296 381.7407 2489.5816 382.3629 2501.9793 382.98524 2514.4215 383.60749 2526.908 384.22984 2539.4395 384.85218 2552.0194 385.4744 2564.6402 386.09675 2577.3114 386.71897 2590.0218 387.3413 2602.7843 387.96366 2615.589 388.58589 2628.4407 389.20823 2641.3355 389.83045 2654.279 390.4528 2667.266 391.07514 2680.3045 391.69737 2693.384 392.3197 2706.511 392.94194 2719.6834 393.5643 2732.9036 394.1866 2746.1717 394.80885 2759.4822 395.4312 2772.844 396.05345 2786.2467 396.67579 2799.7025 397.2981 2813.2015 397.92036 2826.7486 398.5427 2840.342 399.16493 2853.982 399.78727 2867.67 400.40959 2881.4073 401.03184 2895.1876 401.65419 2909.02 402.2764 2922.897 402.89878 2936.822 403.52107 2950.7945 404.1433 2964.8155 404.76567 2978.8839 405.3879 2992.999 406.01026 3007.1666 406.63255 3021.3782 407.2548 3035.6395 407.87715 3049.9483 408.49937 3064.306 409.12174 3078.7122 409.74406 3093.1683 410.3663 3107.6685 410.98863 3122.2225 411.61088 3136.8189 412.23323 3151.4708 412.85554 3166.1678 413.47779 3180.915 414.1001 3195.7108 414.72239 3210.5565 415.3447 3225.4512 415.96705 3240.3968 416.5893 3255.3902 417.2116 3270.4327 417.83387 3285.5255 418.45619 3300.6673 419.07853 3315.8577 419.70079 3331.099 420.32307 3346.393 420.94535 3361.7298 421.56767 3377.1239 422.19 3392.5665 422.81224 3408.0584 423.43458 3423.5999 424.05683 3439.1905 424.67918 3454.8333 425.30149 3470.5303 425.92375 3486.2716 426.54609 3502.0687 427.1683 3517.9114 427.79066 3533.8106 428.413 3549.7569 429.03523 3565.755 429.65757 3581.8038 430.2798 3597.905 430.90214 3614.0565 431.52449 3630.2615 432.1467 3646.516 432.76905 3662.8238 433.3913 3679.18 434.0136 3695.5889 434.63594 3712.0538 435.2582 3728.564 435.88053 3745.1314 436.50279 3761.7457 437.1251 3778.4176 437.74745 3795.1392 438.3697 3811.9107 438.992 3828.7379 439.61427 3845.6165 440.2366 3862.5469 440.85893 3879.532 441.48118 3896.5648 442.1035 3913.6578 442.72575 3930.7974 443.34809 3947.9937 443.9704 3965.2396 444.59266 3982.5399 445.215 3999.8927 445.83723 4017.2999 446.45957 4034.765 447.0819 4052.2767 447.70414 4069.844 448.32649 4087.4656 448.94874 4105.1379 449.57106 4122.867 450.1934 4140.651 450.81565 4158.483 451.43797 4176.377 452.0602 4194.3176 452.68254 4212.318 453.30488 4230.3708 453.92713 4248.4768 454.54945 4266.636 455.1717 4284.851 455.794 4303.1208 456.41639 4321.4489 457.0386 4339.8239 457.66093 4358.262 458.2832 4376.7487 458.90553 4395.2937 459.52787 4413.89 460.1501 4432.5456 460.77244 4451.257 461.39469 4470.017 462.017 4488.8395 462.63935 4507.715 463.26158 4526.645 463.88395 4545.632 464.50617 4564.6735 465.1285 4583.77 465.75086 4602.9274 466.37306 4622.1325 466.9954 4641.402 467.6176 4660.7199 468.24 4680.0998 468.86235 4699.5339 469.48454 4719.0236 470.1069 4738.571 470.72914 4758.1735 471.35148 4777.832 471.9738 4797.552 472.59605 4817.324 473.21839 4837.155 473.8406 4857.041 474.46296 4876.984 475.08528 4896.9885 475.70753 4917.044 476.32987 4937.161 476.9521 4957.3298 477.57447 4977.564 478.19676 4997.8518 478.81904 5018.1955 479.44136 5038.5988 480.06358 5059.058 480.68595 5079.5749 481.30827 5100.1545 481.9305 5120.7839 482.55284 5141.48 483.17509 5162.2297 483.79743 5183.0388 484.41975 5203.9055 485.042 5224.829 485.66435 5245.8127 486.28657 5266.854 486.9089 5287.959 487.53123 5309.1179 488.15348 5330.335 488.77583 5351.6125 489.39808 5372.9475 490.0204 5394.3405 490.64274 5415.8005 491.26499 5437.3088 491.8873 5458.885 492.50956 5480.5119 493.13188 5502.2058 493.7542 5523.9558 494.37648 5545.767 494.99879 5567.6369 495.62104 5589.566 496.24339 5611.556 496.8657 5633.609 497.48796 5655.7136 498.11027 5677.8869 498.7325 5700.115 499.35487 5722.406 499.9772 5744.756 500.59944 5767.165 501.22178 5789.64 501.84403 5812.1667 502.46635 5834.7639 503.08869 5857.416 503.7109 5880.131 504.33326 5902.906 504.95549 5925.74 505.57786 5948.6379 506.20018 5971.599 506.8224 5994.613 507.44474 6017.6975 508.067 6040.836 508.68934 6064.044 509.31166 6087.308 509.9339 6110.6335 510.55625 6134.021 511.17848 6157.47 511.8008 6180.9826 512.42318 6204.562 513.0454 6228.196 513.6677 6251.8937 514.29 6275.653 514.9123 6299.4758 515.5346 6323.3659 516.15689 6347.3078 516.7792 6371.321 517.4014 6395.388 518.02377 6419.5275 518.6461 6443.727 519.2684 6467.986 519.8907 6492.309 520.51296 6516.6975 521.13528 6541.144 521.7576 6565.6628 522.3798 6590.233 523.0022 6614.8786 523.6244 6639.576 524.24679 6664.3469 524.8691 6689.176 525.49136 6714.0705 526.11367 6739.0275 526.7359 6764.047 527.3583 6789.1389 527.9806 6814.287 528.6028 6839.498 529.22518 6864.7775 529.8474 6890.117 530.4697 6915.5236 531.09207 6940.9997 531.7143 6966.528 532.3367 6992.131 532.95889 7017.7917 533.5812 7043.5246 534.20358 7069.317 534.8258 7095.176 535.4481 7121.0988 536.0704 7147.088 536.6927 7173.141 537.315 7199.263 537.93728 7225.4436 538.55966 7251.6965 539.1818 7278.012 539.8042 7304.3928 540.4265 7330.837 541.04879 7357.349 541.6711 7383.93 542.29336 7410.5705 542.91567 7437.2839 543.538 7464.0578 544.1603 7490.8996 544.7826 7517.8068 545.40487 7544.7814 546.02719 7571.8215 546.6495 7598.9338 547.2717 7626.1 547.8941 7653.3459 548.5163 7680.646 549.1387 7708.0266 549.761 7735.465 550.38327 7762.972 551.00558 7790.5456 551.6278 7818.187 552.2501 7845.895 552.8725 7873.6765 553.4947 7901.519 554.11709 7929.428 554.73928 7957.407 555.36166 7985.452 555.98397 8013.5705 556.6062 8041.744 557.2286 8069.999 557.85079 8098.309 558.4731 8126.6999 559.09548 8155.151 559.7177 8183.672 560.34 8212.262 560.9623 8240.917 561.5846 8269.645 562.207 8298.442 562.82919 8327.3 563.4515 8356.237 564.0737 8385.23 564.6961 8414.306 565.3184 8443.442 565.9407 8472.648 566.563 8501.926 567.18527 8531.2709 567.8076 8560.689 568.4299 8590.173 569.0521 8619.726 569.6745 8649.347 570.2967 8679.038 570.91909 8708.799 571.5414 8738.636 572.16366 8768.531 572.78598 8798.508 573.4082 8828.542 574.0306 8858.659 574.6529 8888.84 575.27517 8919.091 575.89749 8949.41 576.5197 8979.802 577.142 9010.264 577.76437 9040.801 578.3866 9071.398 579.0089 9102.079 579.6312 9132.823 580.25357 9163.638 580.87588 9194.524 581.4981 9225.481 582.1204 9256.516 582.7427 9287.61 583.365 9318.785 583.98739 9350.027 584.6096 9381.341 585.23196 9412.727 585.8542 9444.184 586.4765 9475.71 587.0988 9507.315 587.72109 9538.981 588.3434 9570.731 588.96566 9602.542 589.58798 9634.437 590.2103 9666.394 590.8326 9698.428 591.4549 9730.53 592.07717 9762.707 592.69949 9794.958 593.32186 9827.285 593.94406 9859.679 594.5664 9892.146 595.18869 9924.687 595.811 9957.298 596.4333 9989.991 597.05557 10022.741 597.67788 10055.58 598.3001 10088.4799 598.9224 10121.464 599.5448 10154.517 600.167 10187.641 600.78939 10220.84 601.4116 10254.112 602.03396 10287.457 602.65628 10320.885 603.2785 10354.372 603.9009 10387.945 604.5231 10421.579 605.14547 10455.301 605.76779 10489.091 606.38998 10522.957 607.0123 10556.894 607.6346 10590.908 608.2569 10625.002 608.8793 10659.164 609.50149 10693.4 610.12387 10727.712 610.74606 10762.098 611.3684 10796.558 611.9907 10831.102 612.613 10865.706 613.2353 10900.398 613.85757 10935.154 614.4799 10969.998 615.10226 11004.91 615.7245 11039.896 616.3468 11074.961 616.969 11110.099 617.5914 11145.314 618.2137 11180.613 618.83596 11215.974 619.45828 11251.422 620.0805 11286.939 620.7029 11322.535 621.3252 11358.206 621.94747 11393.951 622.56979 11429.783 623.192 11465.675 623.81436 11501.66 624.4367 11537.714 625.0589 11573.842 625.6813 11610.049 626.3035 11646.331 626.92587 11682.692 627.5482 11719.139 628.1704 11755.646 628.7928 11792.243 629.415 11828.906 630.0373 11865.659 630.65969 11902.482 631.28189 11939.386 631.90426 11976.364 632.5265 12013.42 633.1488 12050.556 633.7711 12087.776 634.3934 12125.064 635.01577 12162.433 635.63796 12199.881 636.2603 12237.403 636.8826 12275.014 637.5049 12312.688 638.1272 12350.456 638.74948 12388.288 639.3718 12426.21 639.9941 12464.205 640.61636 12502.28 641.2387 12540.433 641.8609 12578.664 642.4833 12616.975 643.1056 12655.373 643.72787 12693.835 644.3502 12732.391 644.9724 12771.012 645.5948 12809.725 646.2171 12848.511 646.83938 12887.378 647.4617 12926.323 648.0839 12965.347 648.70626 13004.461 649.32858 13043.6459 649.9508 13082.911 650.5731 13122.256 651.1954 13161.683 651.81777 13201.186 652.44009 13240.779 653.0623 13280.4379 653.68466 13320.192 654.3069 13360.013 654.92929 13399.93 655.5516 13439.916 656.1738 13479.986 656.79617 13520.137 657.4184 13560.369 658.0407 13600.678 658.663 13641.079 659.2853 13681.548 659.9076 13722.109 660.52987 13762.747"/>
<path transform="matrix(1.00002,0,0,-1.00005,1.095665,382.39445)" stroke-width=".3985" stroke-linecap="butt" stroke-dasharray="2.98883,2.98883" stroke-miterlimit="10" stroke-linejoin="miter" fill="none" stroke="#ff0000" d="M38.85474 0 39.47702 1.6269 40.09932 3.25423 40.72162 4.88116 41.34392 6.50848 41.9662 8.13583 42.5885 9.76274 43.21082 11.39008 43.8331 13.017 44.4554 14.64433 45.07768 16.27167 45.7 17.89859 46.3223 19.52592 46.94458 21.15285 47.56688 22.78017 48.18918 24.4071 48.81148 26.03442 49.43379 27.66136 50.05608 29.28868 50.67838 30.91562 51.30067 32.54294 51.92297 34.17027 52.54527 35.7972 53.16756 37.42453 53.78987 39.05145 54.41216 40.67879 55.03445 42.30571 55.65675 43.93304 56.27904 45.56036 56.90135 47.1873 57.52364 48.81462 58.14595 50.44156 58.76823 52.06888 59.39055 53.69582 60.01285 55.32314 60.63513 56.95007 61.25743 58.5774 61.87973 60.20473 62.50203 61.83165 63.12433 63.45898 63.74661 65.0859 64.36891 66.71324 64.99121 68.34016 65.61351 69.9675 66.23581 71.59482 66.85811 73.22176 67.48041 74.84908 68.1027 76.47601 68.725 78.10333 69.3473 79.73027 69.96959 81.35759 70.5919 82.98453 71.21419 84.61185 71.83649 86.23918 72.45877 87.8661 73.08109 89.49342 73.70338 91.12036 74.32567 92.74768 74.94797 94.37462 75.57027 96.00194 76.19257 97.62888 76.81487 99.2562 77.43716 100.88313 78.05946 102.51045 78.68176 104.13779 79.30406 105.76471 79.92636 107.39204 80.54865 109.01897 81.17096 110.6463 81.79324 112.27362 82.41554 113.90056 83.03784 115.52788 83.66014 117.15482 84.28244 118.78214 84.90472 120.40907 85.52702 122.03639 86.14934 123.66331 86.77162 125.29065 87.39394 126.91757 88.01622 128.5449 88.63852 130.17224 89.26082 131.79917 89.88312 133.4265 90.50542 135.0534 91.1277 136.68076 91.75002 138.30808 92.3723 139.93502 92.9946 141.56233 93.6169 143.18926 94.23918 144.81659 94.8615 146.44351 95.48378 148.07085 96.1061 149.69777 96.7284 151.3251 97.3507 152.95203 97.97299 154.57935 98.59528 156.20629 99.21758 157.8336 99.83989 159.46096 100.46217 161.08786 101.08447 162.71521 101.70679 164.34253 102.32904 165.96945 102.95137 167.59679 103.57362 169.22371 104.19595 170.85105 104.8183 172.47797 105.44054 174.1053 106.06285 175.73223 106.6851 177.35955 107.30745 178.98648 107.92978 180.6138 108.55202 182.24074 109.17435 183.86806 109.7966 185.495 110.41893 187.12232 111.04126 188.74964 111.66351 190.37657 112.28584 192.00389 112.90808 193.63083 113.53043 195.25815 114.15276 196.88549 114.775 198.5124 115.39732 200.13974 116.01956 201.76667 116.64192 203.394 117.26424 205.02133 117.88649 206.64786 118.50882 208.27558 119.13106 209.90251 119.75339 211.52983 120.37572 213.15677 120.99797 214.78409 121.6203 216.41144 122.24255 218.03835 122.86487 219.66568 123.48721 221.2926 124.10947 222.91994 124.73178 224.54686 125.35403 226.1742 125.97636 227.80112 126.59871 229.42845 127.22095 231.05538 127.84328 232.68271 128.46553 234.30963 129.08785 235.93697 129.71019 237.56429 130.33245 239.19123 130.95478 240.81855 131.57701 242.44548 132.19934 244.0724 132.82169 245.70014 133.44393 247.32706 134.06626 248.95439 134.68849 250.58132 135.31084 252.20865 135.93317 253.83557 136.55539 255.4625 137.17774 257.09025 137.79999 258.71675 138.42232 260.34449 139.04465 261.9714 139.66689 263.59877 140.28923 265.22569 140.91149 266.853 141.5338 268.47993 142.15615 270.10725 142.77838 271.7342 143.40071 273.3615 144.02297 274.98847 144.6453 276.61579 145.26764 278.24269 145.88986 279.87004 146.5122 281.49696 147.13446 283.12428 147.75678 284.7516 148.37912 286.37895 149.00135 288.00587 149.62369 289.6332 150.24593 291.26014 150.86826 292.88746 151.49062 294.51478 152.11284 296.1413 152.73519 297.76905 153.3574 299.39555 153.97975 301.0233 154.6021 302.6502 155.22432 304.27714 155.84667 305.90449 156.4689 307.5314 157.09125 309.15873 157.71358 310.78608 158.33582 312.413 158.95816 314.0403 159.58039 315.66725 160.20273 317.29457 160.82508 318.9219 161.44731 320.5488 162.06964 322.17616 162.69188 323.80308 163.31423 325.43043 163.93654 327.05735 164.55879 328.68467 165.18112 330.31159 165.80336 331.93894 166.4257 333.56584 167.04802 335.1936 167.67028 336.8201 168.29262 338.44786 168.91486 340.07438 169.53719 341.7021 170.15953 343.329 170.78177 344.95597 171.40412 346.58329 172.02634 348.2102 172.64868 349.83753 173.27101 351.46488 173.89325 353.09178 174.5156 354.71913 175.13784 356.34605 175.76018 357.97337 176.38249 359.6003 177.00473 361.22764 177.62709 362.85496 178.24932 364.4819 178.87166 366.1092 179.49399 367.73655 180.11624 369.36347 180.73856 370.9904 181.3608 372.6177 181.98316 374.24467 182.60547 375.87239 183.22772 377.49894 183.85004 379.12626 184.47229 380.75318 185.09464 382.3805 185.71695 384.0078 186.3392 385.63475 186.96154 387.2621 187.58379 388.889 188.20612 390.51676 188.82845 392.14366 189.4507 393.77098 190.07302 395.39793 190.69527 397.02485 191.31761 398.6522 191.93994 400.2795 192.56218 401.90644 193.18451 403.53376 193.80675 405.16069 194.42911 406.78804 195.05142 408.41496 195.67366 410.04228 196.296 411.6692 196.91825 413.2965 197.54058 414.92347 198.16292 416.55119 198.78516 418.17774 199.40749 419.80506 200.02973 421.43238 200.65206 423.0593 201.2744 424.6866 201.89665 426.31355 202.51897 427.9409 203.14122 429.5678 203.76355 431.19514 204.38588 432.82246 205.00814 434.4494 205.63047 436.07673 206.25272 437.70368 206.87503 439.331 207.49738 440.9583 208.11963 442.58525 208.74195 444.21257 209.3642 445.8395 209.98653 447.46684 210.60887 449.09376 211.2311 450.72108 211.85344 452.348 212.47568 453.97535 213.098 455.60227 213.72035 457.2296 214.34258 458.85694 214.96494 460.48387 215.58718 462.11119 216.20949 463.7381 216.83184 465.36543 217.45407 466.99238 218.07642 468.6201 218.69866 470.2466 219.32099 471.87394 219.94333 473.50129 220.56555 475.1282 221.1879 476.75553 221.81015 478.38246 222.43248 480.00978 223.05481 481.63713 223.67705 483.264 224.2994 484.89137 224.92165 486.51829 225.54396 488.14564 226.1663 489.77256 226.78855 491.3999 227.41088 493.0268 228.03311 494.65415 228.65544 496.28147 229.27779 497.9084 229.90003 499.5357 230.52236 501.16264 231.14459 502.78999 231.76694 504.4169 232.38928 506.04423 233.0115 507.67118 233.63387 509.2985 234.25609 510.9254 234.87842 512.55276 235.50077 514.18008 236.123 515.807 236.74535 517.4343 237.36757 519.0613 237.98992 520.6886 238.61226 522.3159 239.23448 523.9428 239.85683 525.5702 240.47905 527.1971 241.10141 528.8244 241.72373 530.45138 242.34598 532.0787 242.96833 533.706 243.59055 535.33297 244.21289 536.96029 244.8352 538.5872 245.45746 540.21456 246.0798 541.84146 246.70204 543.46878 247.32437 545.0957 247.9467 546.723 248.56896 548.35 249.19129 549.9773 249.81352 551.60427 250.43587 553.23159 251.0582 554.8589 251.68044 556.48587 252.30278 558.11318 252.92502 559.74008 253.54735 561.3674 254.16968 562.9947 254.79193 564.62167 255.41428 566.24899 256.0365 567.8759 256.65885 569.50326 257.28117 571.1302 257.9034 572.7575 258.52574 574.3848 259.14799 576.0117 259.77037 577.6391 260.39265 579.266 261.01493 580.8933 261.63725 582.52029 262.2595 584.1476 262.8818 585.7745 263.50416 587.40188 264.1264 589.02877 264.74873 590.6561 265.37098 592.283 265.9933 593.91036 266.61564 595.53768 267.23789 597.1646 267.8602 598.79196 268.48246 600.4189 269.1048 602.0462 269.7271 603.6735 270.34938 605.3005 270.9717 606.9278 271.59397 608.5547 272.21629 610.18209 272.83863 611.8094 273.46086 613.43588 274.0832 615.0636 274.70545 616.6901 275.32774 618.3179 275.9501 619.9448 276.57234 621.57217 277.19468 623.1991 277.81694 624.8264 278.43925 626.4533 279.06159 628.0806 279.6838 629.7076 280.30616 631.3349 280.9284 632.9622 281.55076 634.5892 282.17308 636.2165 282.79533 637.8434 283.41767 639.47036 284.0399 641.09768 284.66224 642.725 285.28456 644.35238 285.9068 645.97927 286.52915 647.60659 287.15138 649.2335 287.7737 650.86087 288.39604 652.48818 289.01829 654.1147 289.64064 655.74246 290.26289 657.36898 290.8852 658.99667 291.5075 660.6236 292.12977 662.25057 292.7521 663.87789 293.37437 665.5052 293.99668 667.1321 294.61903 668.75949 295.24128 670.3868 295.8636 672.0137 296.48585 673.64108 297.1082 675.26797 297.7305 676.8949 298.35276 678.5222 298.97508 680.14956 299.59736 681.7765 300.21968 683.4038 300.842 685.0311 301.46424 686.658 302.08659 688.285 302.70884 689.9123 303.33116 691.53927 303.9535 693.167 304.57575 694.7935 305.19807 696.4212 305.82029 698.0477 306.44264 699.6755 307.06498 701.3024 307.6872 702.9293 308.30955 704.55667 308.9318 706.1836 309.5541 707.8109 310.17646 709.43826 310.79869 711.0652 311.42106 712.6925 312.04328 714.3198 312.6656 715.9468 313.28797 717.5741 313.9102 719.20108 314.53254 720.82839 315.15476 722.45529 315.7771 724.0826 316.39945 725.70956 317.02168 727.33688 317.644 728.9638 318.26625 730.5911 318.88859 732.2181 319.5109 733.84579 320.13316 735.4723 320.75553 737.10006 321.37773 738.727 322.0001 740.3539 322.6224 741.9812 323.24467 743.60818 323.867 745.2355 324.4892 746.8624 325.11158 748.4901 325.7339 750.11709 326.35615 751.74398 326.9785 753.3713 327.6007 754.9982 328.22306 756.62557 328.84538 758.25289 329.46763 759.8798 330.08998 761.50717 330.7122 763.1341 331.33454 764.7614 331.95686 766.38839 332.57914 768.0157 333.20146 769.6426 333.82368 771.2699 334.44606 772.89688 335.06837 774.5242 335.6906 776.1515 336.31294 777.77847 336.93519 779.40579 337.5575 781.03268 338.17985 782.66006 338.8021 784.2869 339.4244 785.9143 340.04667 787.5412 340.66899 789.16897 341.29136 790.79586 341.91358 792.4228 342.5359 794.0501 343.15815 795.677 343.7805 797.3044 344.40284 798.9317 345.02507 800.5586 345.64738 802.186 346.26966 803.81289 346.89198 805.44027 347.5143 807.06716 348.13655 808.69448 348.75889 810.32138 349.38114 811.9487 350.00346 813.5756 350.6258 815.20339 351.24806 816.8303 351.87037 818.4572 352.4926 820.08456 353.11494 821.7115 353.7373 823.3388 354.35954 824.96578 354.98185 826.5931 355.6041 828.22 356.22645 829.8473 356.84877 831.4747 357.471 833.10159 358.09336 834.7289 358.71559 836.35586 359.3379 837.98318 359.96025 839.6105 360.5825 841.2374 361.20484 842.86477 361.82707 844.4917 362.4494 846.119 363.07176 847.7459 363.69398 849.3732 364.3163 851.0002 364.93858 852.6275 365.5609 854.2548 366.18324 855.8818 366.80549 857.5091 367.4278 859.13607 368.05006 860.76339 368.6724 862.3903 369.2947 864.018 369.91697 865.64456 370.53929 867.27188 371.16154 868.8988 371.78388 870.5261 372.4062 872.15347 373.02845 873.7804 373.65077 875.4077 374.27305 877.03469 374.89537 878.662 375.5177 880.2893 376.13993 881.91629 376.76228 883.5436 377.38453 885.1705 378.00685 886.7978 378.62919 888.42477 379.25144 890.05209 379.87376 891.6794 380.496 893.30636 381.11833 894.93368 381.7407 896.5606 382.3629 898.1879 382.98524 899.8148 383.60749 901.4422 384.22984 903.0691 384.85218 904.6964 385.4744 906.32339 386.09675 907.9507 386.71897 909.5776 387.3413 911.20498 387.96366 912.8323 388.58589 914.4592 389.20823 916.08657 389.83045 917.71347 390.4528 919.34078 391.07514 920.96817 391.69737 922.59506 392.3197 924.22238 392.94194 925.8493 393.5643 927.4766 394.1866 929.10397 394.80885 930.7309 395.4312 932.3582 396.05345 933.98477 396.67579 935.6125 397.2981 937.2394 397.92036 938.8667 398.5427 940.49368 399.16493 942.121 399.78727 943.74789 400.40959 945.37527 401.03184 947.00216 401.65419 948.6295 402.2764 950.2568 402.89878 951.8837 403.52107 953.51107 404.1433 955.138 404.76567 956.7653 405.3879 958.3922 406.01026 960.0196 406.63255 961.6469 407.2548 963.2738 407.87715 964.9012 408.49937 966.5281 409.12174 968.15548 409.74406 969.7828 410.3663 971.40927 410.98863 973.037 411.61088 974.66397 412.23323 976.29129 412.85554 977.91818 413.47779 979.54556 414.1001 981.1724 414.72239 982.79977 415.3447 984.4267 415.96705 986.054 416.5893 987.6814 417.2116 989.3083 417.83387 990.9356 418.45619 992.5625 419.07853 994.1899 419.70079 995.8168 420.32307 997.4441 420.94535 999.07107 421.56767 1000.69839 422.19 1002.3257 422.81224 1003.95266 423.43458 1005.57998 424.05683 1007.2069 424.67918 1008.8338 425.30149 1010.46157 425.92375 1012.0881 426.54609 1013.7158 427.1683 1015.34237 427.79066 1016.97006 428.413 1018.597 429.03523 1020.2243 429.65757 1021.85128 430.2798 1023.4786 430.90214 1025.1055 431.52449 1026.7328 432.1467 1028.3601 432.76905 1029.987 433.3913 1031.6144 434.0136 1033.2413 434.63594 1034.8687 435.2582 1036.4956 435.88053 1038.1229 436.50279 1039.7499 437.1251 1041.3772 437.74745 1043.0045 438.3697 1044.6315 438.992 1046.2588 439.61427 1047.8858 440.2366 1049.5131 440.85893 1051.1404 441.48118 1052.7669 442.1035 1054.3947 442.72575 1056.0215 443.34809 1057.6488 443.9704 1059.2758 444.59266 1060.9027 445.215 1062.53 445.83723 1064.157 446.45957 1065.7847 447.0819 1067.4116 447.70414 1069.039 448.32649 1070.6659 448.94874 1072.2932 449.57106 1073.9202 450.1934 1075.5475 450.81565 1077.1744 451.43797 1078.8018 452.0602 1080.4287 452.68254 1082.056 453.30488 1083.6829 453.92713 1085.3102 454.54945 1086.9371 455.1717 1088.5645 455.794 1090.1914 456.41639 1091.8191 457.0386 1093.4457 457.66093 1095.0734 458.2832 1096.7003 458.90553 1098.3276 459.52787 1099.9546 460.1501 1101.5816 460.77244 1103.2092 461.39469 1104.8358 462.017 1106.4635 462.63935 1108.0905 463.26158 1109.7174 463.88395 1111.3447 464.50617 1112.9717 465.1285 1114.599 465.75086 1116.2263 466.37306 1117.8532 466.9954 1119.4806 467.6176 1121.1074 468.24 1122.7348 468.86235 1124.362 469.48454 1125.989 470.1069 1127.616 470.72914 1129.2433 471.35148 1130.8703 471.9738 1132.4979 472.59605 1134.1249 473.21839 1135.7518 473.8406 1137.3792 474.46296 1139.0061 475.08528 1140.6338 475.70753 1142.2603 476.32987 1143.8881 476.9521 1145.5145 477.57447 1147.1423 478.19676 1148.7693 478.81904 1150.3961 479.44136 1152.0234 480.06358 1153.6504 480.68595 1155.2777 481.30827 1156.905 481.9305 1158.532 482.55284 1160.1593 483.17509 1161.7866 483.79743 1163.4136 484.41975 1165.0405 485.042 1166.6679 485.66435 1168.2948 486.28657 1169.9221 486.9089 1171.5494 487.53123 1173.1768 488.15348 1174.8037 488.77583 1176.4307 489.39808 1178.058 490.0204 1179.6849 490.64274 1181.3126 491.26499 1182.9391 491.8873 1184.5664 492.50956 1186.1934 493.13188 1187.8207 493.7542 1189.448 494.37648 1191.075 494.99879 1192.7023 495.62104 1194.3292 496.24339 1195.9566 496.8657 1197.5839 497.48796 1199.2108 498.11027 1200.8381 498.7325 1202.4651 499.35487 1204.0924 499.9772 1205.7194 500.59944 1207.3467 501.22178 1208.974 501.84403 1210.601 502.46635 1212.2283 503.08869 1213.8551 503.7109 1215.4824 504.33326 1217.1094 504.95549 1218.7367 505.57786 1220.3637 506.20018 1221.9915 506.8224 1223.6179 507.44474 1225.2453 508.067 1226.8722 508.68934 1228.4995 509.31166 1230.1268 509.9339 1231.7538 510.55625 1233.3811 511.17848 1235.008 511.8008 1236.6354 512.42318 1238.2627 513.0454 1239.8897 513.6677 1241.517 514.29 1243.1439 514.9123 1244.7713 515.5346 1246.3986 516.15689 1248.0254 516.7792 1249.6528 517.4014 1251.2797 518.02377 1252.907 518.6461 1254.5339 519.2684 1256.1613 519.8907 1257.7882 520.51296 1259.4155 521.13528 1261.0425 521.7576 1262.6698 522.3798 1264.2968 523.0022 1265.9241 523.6244 1267.551 524.24679 1269.1784 524.8691 1270.8057 525.49136 1272.4326 526.11367 1274.0599 526.7359 1275.6869 527.3583 1277.3142 527.9806 1278.9415 528.6028 1280.5684 529.22518 1282.1958 529.8474 1283.8226 530.4697 1285.45 531.09207 1287.0773 531.7143 1288.7042 532.3367 1290.3316 532.95889 1291.9585 533.5812 1293.5858 534.20358 1295.2128 534.8258 1296.8401 535.4481 1298.467 536.0704 1300.0944 536.6927 1301.7213 537.315 1303.3486 537.93728 1304.9756 538.55966 1306.6029 539.1818 1308.2302 539.8042 1309.8572 540.4265 1311.4845 541.04879 1313.1113 541.6711 1314.7387 542.29336 1316.3656 542.91567 1317.9929 543.538 1319.6203 544.1603 1321.2472 544.7826 1322.8745 545.40487 1324.5015 546.02719 1326.1288 546.6495 1327.7561 547.2717 1329.383 547.8941 1331.0104 548.5163 1332.6373 549.1387 1334.2647 549.761 1335.8916 550.38327 1337.5189 551.00558 1339.1459 551.6278 1340.7732 552.2501 1342.4002 552.8725 1344.0274 553.4947 1345.6548 554.11709 1347.2816 554.73928 1348.909 555.36166 1350.5359 555.98397 1352.1632 556.6062 1353.7902 557.2286 1355.4175 557.85079 1357.0444 558.4731 1358.6718 559.09548 1360.2991 559.7177 1361.926 560.34 1363.5534 560.9623 1365.1803 561.5846 1366.8076 562.207 1368.4349 562.82919 1370.0614 563.4515 1371.6892 564.0737 1373.3157 564.6961 1374.9435 565.3184 1376.5703 565.9407 1378.1978 566.563 1379.8246 567.18527 1381.452 567.8076 1383.0792 568.4299 1384.7062 569.0521 1386.3335 569.6745 1387.9605 570.2967 1389.5878 570.91909 1391.2147 571.5414 1392.842 572.16366 1394.469 572.78598 1396.0963 573.4082 1397.7233 574.0306 1399.3506 574.6529 1400.9779 575.27517 1402.6049 575.89749 1404.2322 576.5197 1405.8591 577.142 1407.486 577.76437 1409.1138 578.3866 1410.7402 579.0089 1412.368 579.6312 1413.9949 580.25357 1415.6222 580.87588 1417.2492 581.4981 1418.8761 582.1204 1420.5038 582.7427 1422.1307 583.365 1423.758 583.98739 1425.385 584.6096 1427.0123 585.23196 1428.6393 585.8542 1430.2666 586.4765 1431.8936 587.0988 1433.5209 587.72109 1435.1478 588.3434 1436.7752 588.96566 1438.4021 589.58798 1440.0294 590.2103 1441.6567 590.8326 1443.2836 591.4549 1444.911 592.07717 1446.5379 592.69949 1448.1648 593.32186 1449.7925 593.94406 1451.4194 594.5664 1453.0468 595.18869 1454.6737 595.811 1456.3007 596.4333 1457.9284 597.05557 1459.5549 597.67788 1461.1826 598.3001 1462.8092 598.9224 1464.4369 599.5448 1466.0639 600.167 1467.6908 600.78939 1469.3181 601.4116 1470.9454 602.03396 1472.5724 602.65628 1474.1997 603.2785 1475.8265 603.9009 1477.454 604.5231 1479.0808 605.14547 1480.7081 605.76779 1482.3351 606.38998 1483.9624 607.0123 1485.5894 607.6346 1487.2167 608.2569 1488.844 608.8793 1490.4713 609.50149 1492.0983 610.12387 1493.7256 610.74606 1495.3526 611.3684 1496.9795 611.9907 1498.6072 612.613 1500.2337 613.2353 1501.8615 613.85757 1503.4879 614.4799 1505.1154 615.10226 1506.7426 615.7245 1508.3695 616.3468 1509.9968 616.969 1511.6238 617.5914 1513.2511 618.2137 1514.8784 618.83596 1516.5054 619.45828 1518.1327 620.0805 1519.76 620.7029 1521.387 621.3252 1523.0139 621.94747 1524.6412 622.56979 1526.2686 623.192 1527.8955 623.81436 1529.5228 624.4367 1531.1498 625.0589 1532.7771 625.6813 1534.404 626.3035 1536.0314 626.92587 1537.6582 627.5482 1539.286 628.1704 1540.9125 628.7928 1542.5403 629.415 1544.1668 630.0373 1545.7946 630.65969 1547.4214 631.28189 1549.0484 631.90426 1550.6757 632.5265 1552.3026 633.1488 1553.9299 633.7711 1555.5573 634.3934 1557.1842 635.01577 1558.8115 635.63796 1560.4385 636.2603 1562.0658 636.8826 1563.6931 637.5049 1565.3201 638.1272 1566.9474 638.74948 1568.5744 639.3718 1570.2017 639.9941 1571.8285 640.61636 1573.4559 641.2387 1575.0828 641.8609 1576.7101 642.4833 1578.337 643.1056 1579.9644 643.72787 1581.5913 644.3502 1583.2186 644.9724 1584.8456 645.5948 1586.4729 646.2171 1588.1002 646.83938 1589.7272 647.4617 1591.3545 648.0839 1592.9815 648.70626 1594.6091 649.32858 1596.2361 649.9508 1597.863 650.5731 1599.4904 651.1954 1601.1173 651.81777 1602.7446 652.44009 1604.372 653.0623 1605.9988 653.68466 1607.6262 654.3069 1609.253 654.92929 1610.8804 655.5516 1612.5073 656.1738 1614.1347 656.79617 1615.7616 657.4184 1617.3889 658.0407 1619.0159 658.663 1620.6436 659.2853 1622.2702 659.9076 1623.8975 660.52987 1625.5248"/>
<path transform="matrix(1.00002,0,0,-1.00005,1.095665,382.39445)" stroke-width=".3985" stroke-linecap="butt" stroke-dasharray="2.98883,2.98883" stroke-miterlimit="10" stroke-linejoin="miter" fill="none" stroke="#000000" d="M163.18988 243.19394V325.1054"/>
</g>
<use data-text="x" xlink:href="#font_1_2" transform="matrix(9.962799,0,0,-9.963098,198.89264,141.3334)"/>
<use data-text="f" xlink:href="#font_1_1" transform="matrix(9.962799,0,0,-9.963098,43.47151,9.38681)"/>
<use data-text="(" xlink:href="#font_5_1" transform="matrix(9.962799,0,0,-9.963098,49.421625,9.38681)"/>
<use data-text="x" xlink:href="#font_1_2" transform="matrix(9.962799,0,0,-9.963098,53.2957,9.38681)"/>
<use data-text=")" xlink:href="#font_5_2" transform="matrix(9.962799,0,0,-9.963098,58.989816,9.38681)"/>
</svg>
