<svg xmlns="http://www.w3.org/2000/svg" xmlns:xlink="http://www.w3.org/1999/xlink" xmlns:inkscape="http://www.inkscape.org/namespaces/inkscape" version="1.1" width="349" height="185" viewBox="0 0 349 185">
<defs>
<path id="font_1_2" d="M.6279907 .5686035C.6769867 .64660647 .71899417 .6496124 .7559967 .6516113 .7679901 .65260317 .7689972 .6696167 .7689972 .6706085 .7689972 .6786041 .7639923 .6826172 .7559967 .6826172 .7299957 .6826172 .70098879 .6796112 .673996 .6796112 .6409912 .6796112 .6069946 .6826172 .57499697 .6826172 .56900027 .6826172 .55599978 .6826172 .55599978 .66360476 .55599978 .65260317 .5649872 .6516113 .57199099 .6516113 .598999 .6496124 .6179962 .63960269 .6179962 .61860659 .6179962 .6036072 .6029968 .581604 .6029968 .5805969L.29599 .092544559 .22799683 .62161257C.22799683 .63861086 .25099183 .6516113 .29699708 .6516113 .31098939 .6516113 .32199098 .6516113 .32199098 .6716156 .32199098 .680603 .31399537 .6826172 .30799867 .6826172 .2679901 .6826172 .22499085 .6796112 .18399048 .6796112 .1659851 .6796112 .14698792 .680603 .1289978 .680603 .11099243 .680603 .09199524 .6826172 .07499695 .6826172 .067993167 .6826172 .055999757 .6826172 .055999757 .66360476 .055999757 .6516113 .06498718 .6516113 .08099365 .6516113 .13699341 .6516113 .13798523 .64260867 .14099121 .6175995L.21998596 .0005340576C.22299195-.019470215 .22698975-.022460938 .23999024-.022460938 .2559967-.022460938 .2599945-.017471314 .2679901-.004470825L.6279907 .5686035Z"/>
<path id="font_2_66" d="M.27398683 0V.035995485C.21598816 .035995485 .20599365 .035995485 .20599365 .07803345V.44140626L.05899048 .43052674V.39453126C.12199402 .39453126 .1309967 .3885193 .1309967 .33952333V.07952881C.1309967 .035995485 .12098694 .035995485 .055999757 .035995485V0C.055999757 0 .12799073 .0039978029 .16799927 .0039978029 .20298767 .0039978029 .23899842 .0029907227 .27398683 0M.21899414 .60214236C.21899414 .6341553 .19400025 .66015627 .1619873 .66015627 .12799073 .66015627 .10499573 .6321411 .10499573 .6031494 .10499573 .57115176 .12998963 .54515078 .1619873 .54515078 .19599915 .54515078 .21899414 .57315066 .21899414 .60214236Z"/>
<path id="font_2_77" d="M.58999636 0V.035995485C.5249939 .035995485 .5149994 .035995485 .5149994 .07904053V.3032837C.5149994 .3903656 .47200013 .44140626 .36499024 .44140626 .2829895 .44140626 .22999573 .39637757 .20199585 .34432984H.20098877V.44140626L.053985597 .43052674V.39453126C.12098694 .39453126 .1289978 .3875122 .1289978 .33843995V.079055789C.1289978 .035995485 .11898804 .035995485 .053985597 .035995485V0C.053985597 0 .12599182 .0039978029 .16799927 .0039978029 .20498657 .0039978029 .27398683 .0009918213 .2829895 0V.035995485C.21798706 .035995485 .20799256 .035995485 .20799256 .079055789V.25932313C.20799256 .36434938 .29100038 .4133911 .35699464 .4133911 .4269867 .4133911 .43598939 .3583374 .43598939 .3072815V.07904053C.43598939 .035995485 .42599488 .035995485 .36099244 .035995485V0C.36099244 0 .43299867 .0039978029 .47499085 .0039978029 .5119934 .0039978029 .58099368 .0009918213 .58999636 0Z"/>
<path id="font_1_3" d="M.28399659 .6252594C.28399659 .6452637 .269989 .6612549 .24699402 .6612549 .21998596 .6612549 .19299317 .6352539 .19299317 .6082611 .19299317 .5892639 .20698548 .5722656 .23098755 .5722656 .2539978 .5722656 .28399659 .5952606 .28399659 .6252594M.20799256 .24932862C.21998596 .27833558 .21998596 .28033448 .22999573 .30734254 .23799134 .3273468 .24299622 .34135438 .24299622 .36035157 .24299622 .405365 .21099854 .4423828 .16099549 .4423828 .066986087 .4423828 .0289917 .29733277 .0289917 .28833009 .0289917 .27833558 .038986207 .27833558 .040985109 .27833558 .050994874 .27833558 .051986696 .28033448 .056991579 .29634095 .083999637 .3903656 .12399292 .42037965 .1579895 .42037965 .1659851 .42037965 .18299866 .42037965 .18299866 .3883667 .18299866 .36735536 .17599488 .346344 .17199707 .3363495 .1639862 .31033326 .11898804 .19430542 .102996829 .1512909 .09298706 .12528992 .07998657 .0922699 .07998657 .0712738 .07998657 .024261475 .11399841-.0107421879 .1619873-.0107421879 .2559967-.0107421879 .29299928 .1342926 .29299928 .14329529 .29299928 .1532898 .28399659 .1532898 .2809906 .1532898 .2709961 .1532898 .2709961 .15029907 .2659912 .13528443 .24798584 .072265628 .21499634 .011245728 .1639862 .011245728 .14698792 .011245728 .13999939 .021255494 .13999939 .044265748 .13999939 .0692749 .1459961 .08326721 .16899109 .14428711L.20799256 .24932862Z"/>
<path id="font_3_1" d="M.33499146 .63612368C.33499146 .6630554 .33299256 .6640625 .30499269 .6640625 .24099732 .6014404 .1499939 .6004486 .10899353 .6004486V.5644531C.1329956 .5644531 .19898987 .5644531 .2539978 .592453V.08203125C.2539978 .04899597 .2539978 .035995485 .1539917 .035995485H.115997318V0C.13398743 .0009918213 .25698854 .0039978029 .2939911 .0039978029 .32499696 .0039978029 .45098878 .0009918213 .47299195 0V.035995485H.43499757C.33499146 .035995485 .33499146 .04899597 .33499146 .08203125V.63612368Z"/>
<path id="font_4_27" d="M.71699526 0V.0309906H.69898989C.6389923 .0309906 .625 .037979127 .6139984 .07095337L.397995 .6958008C.3929901 .7088165 .3909912 .7158203 .375 .7158203 .35899354 .7158203 .35598756 .70980837 .35099793 .6958008L.14399719 .09791565C.12599182 .04698181 .085998538 .03199768 .03199768 .0309906V0L.13398743 .0029907227 .24899292 0V.0309906C.19898987 .0309906 .17399597 .05596924 .17399597 .0819397 .17399597 .08493042 .1749878 .09492493 .17599488 .09692383L.22200012 .2277832H.46899415L.5219879 .07495117C.522995 .07095337 .5249939 .064956668 .5249939 .060958864 .5249939 .0309906 .46899415 .0309906 .44198609 .0309906V0C.47799684 .0029907227 .5479889 .0029907227 .58599856 .0029907227L.71699526 0M.45799256 .25878907H.23298645L.34498597 .58380129 .45799256 .25878907Z"/>
<path id="font_1_1" d="M.15899658 .07795715C.14898682 .038986207 .14698792 .0309906 .067993167 .0309906 .050994874 .0309906 .039993287 .0309906 .039993287 .011993408 .039993287 0 .04899597 0 .067993167 0H.39898683C.6069946 0 .80400088 .21087647 .80400088 .42974855 .80400088 .5706482 .71899417 .6826172 .56900027 .6826172H.23298645C.21398926 .6826172 .20298767 .6826172 .20298767 .66360476 .20298767 .6516113 .21199036 .6516113 .23199463 .6516113 .24499512 .6516113 .2630005 .65060427 .2749939 .6496124 .29100038 .6476135 .29699708 .64460757 .29699708 .6336212 .29699708 .6296234 .29599 .62661746 .29299928 .614624L.15899658 .07795715M.375 .6136322C.38398744 .64860537 .38598634 .6516113 .42900086 .6516113H.5359955C.6339874 .6516113 .71699526 .5986328 .71699526 .46672059 .71699526 .41775514 .69699099 .25386048 .6119995 .1439209 .58299258 .10694885 .5039978 .0309906 .3809967 .0309906H.2679901C.2539978 .0309906 .2519989 .0309906 .24598694 .03199768 .23599243 .032989503 .23298645 .033996583 .23298645 .041992189 .23298645 .04498291 .23298645 .04698181 .23799134 .064971927L.375 .6136322Z"/>
<path id="font_3_3" d="M.272995 .33428956C.35099793 .33428956 .40699769 .2803192 .40699769 .1733551 .40699769 .04940796 .33499146 .012466431 .2769928 .012466431 .23699951 .012466431 .14898682 .0234375 .10699463 .082351688 .1539917 .084350589 .16499329 .11735535 .16499329 .13835144 .16499329 .17034912 .14099121 .19335938 .10998535 .19335938 .08198547 .19335938 .053985597 .17634583 .053985597 .13534546 .053985597 .041412355 .1579895-.01953125 .2789917-.01953125 .41799928-.01953125 .5139923 .07336426 .5139923 .1733551 .5139923 .2513275 .44999696 .32929994 .33999635 .35229493 .44499208 .39024354 .48298646 .4650879 .48298646 .5260773 .48298646 .60505679 .3919983 .6640625 .2809906 .6640625 .16999817 .6640625 .084991458 .61006167 .084991458 .5300751 .084991458 .49606324 .10699463 .47706605 .13699341 .47706605 .16799927 .47706605 .18798828 .5000763 .18798828 .5280762 .18798828 .5570679 .16799927 .57806399 .13699341 .5800781 .17199707 .62405398 .24099732 .63505557 .27799989 .63505557 .32299806 .63505557 .38598634 .6130676 .38598634 .5260773 .38598634 .48406983 .37199403 .43814088 .34599305 .4072113 .31298829 .36927796 .2849884 .3672943 .23498535 .36428834 .20999146 .3623047 .20799256 .3623047 .20298767 .3612976 .20098877 .3612976 .19299317 .3592987 .19299317 .34829713 .19299317 .33428956 .20199585 .33428956 .21899414 .33428956H.272995Z"/>
<path id="font_3_4" d="M.5289917 .1640625V.20005799H.41799928V.64582827C.41799928 .66682437 .41799928 .6738281 .3959961 .6738281 .38398744 .6738281 .37998963 .6738281 .36999513 .65982058L.038986207 .20005799V.1640625H.33299256V.08201599C.33299256 .04800415 .33299256 .035995485 .2519989 .035995485H.22499085V0C.2749939 .0019989014 .33898927 .0039978029 .375 .0039978029 .4119873 .0039978029 .47599793 .0019989014 .526001 0V.035995485H.49899293C.41799928 .035995485 .41799928 .04800415 .41799928 .08201599V.1640625H.5289917M.33999635 .5658722V.20005799H.07598877L.33999635 .5658722Z"/>
<path id="font_4_34" d="M.651001 .18289185C.651001 .26983644 .56900027 .34480287 .45799256 .35679627 .5549927 .3757782 .6239929 .43974305 .6239929 .51368716 .6239929 .6006317 .5319977 .6826172 .4019928 .6826172H.035995485V.6516113H.05999756C.13699341 .6516113 .13899231 .64060977 .13899231 .6046295V.07795715C.13899231 .041992189 .13699341 .0309906 .05999756 .0309906H.035995485V0H.42799378C.5609894-.0002593994 .651001 .08874512 .651001 .18273926V.18289185M.5269928 .5136719C.5269928 .44970704 .47799684 .36573792 .36698915 .36573792H.22200012V.6116333C.22200012 .64460757 .22399903 .6516113 .2709961 .6516113H.394989C.49198915 .65174868 .5269928 .56674197 .5269928 .51374819V.5136719M.5509949 .18386841C.5509949 .1129303 .49899293 .0309906 .3959961 .0309906H.2709961C.22399903 .0309906 .22200012 .037994386 .22200012 .07095337V.34375H.4099884C.5089874 .34399415 .5509949 .25099183 .5509949 .18399048V.18386841Z"/>
<path id="font_3_2" d="M.5049896 .18203736H.47099305C.46798707 .16001892 .45799256 .100997928 .44499208 .09098816 .43699647 .084991458 .3600006 .084991458 .34599305 .084991458H.1619873C.2669983 .17803955 .3019867 .20603943 .3619995 .25306703 .43598939 .312088 .5049896 .374115 .5049896 .46914674 .5049896 .5900879 .39898683 .6640625 .2709961 .6640625 .14698792 .6640625 .06298828 .57710269 .06298828 .4851532 .06298828 .43414308 .10598755 .42915345 .115997318 .42915345 .13999939 .42915345 .16899109 .44615174 .16899109 .48214723 .16899109 .5001526 .1619873 .53515627 .10998535 .53515627 .14099121 .6060791 .20899964 .62805178 .2559967 .62805178 .35598756 .62805178 .4079895 .5501404 .4079895 .46914674 .4079895 .38212586 .34599305 .3130951 .31399537 .27708436L.07299805 .038986207C.06298828 .02999878 .06298828 .027999878 .06298828 0H.47499085L.5049896 .18203736Z"/>
<path id="font_3_5" d="M.15499878 .5588074C.20599365 .5458069 .23599243 .5458069 .2519989 .5458069 .38398744 .5458069 .46199037 .6358032 .46199037 .6508026 .46199037 .6618042 .45498658 .6648102 .44999696 .6648102 .44799806 .6648102 .44599916 .6648102 .44198609 .6618042 .41799928 .6528015 .36499024 .6328125 .29100038 .6328125 .2630005 .6328125 .20999146 .6348114 .14498902 .6598053 .1349945 .6648102 .1329956 .6648102 .13198853 .6648102 .11898804 .6648102 .11898804 .6538086 .11898804 .6378021V.34251405C.11898804 .32548524 .11898804 .3134613 .1349945 .3134613 .14399719 .3134613 .14498902 .3154602 .15499878 .32748414 .19799805 .38259889 .25898744 .390625 .2939911 .390625 .35398866 .390625 .3809967 .34251405 .38598634 .33450318 .4039917 .30143739 .4099884 .26335145 .4099884 .20524597 .4099884 .17524719 .4099884 .116256717 .37998963 .07234192 .35499574 .03640747 .31199647 .012466431 .2630005 .012466431 .19799805 .012466431 .1309967 .04838562 .10598755 .11425781 .14399719 .11125183 .16299439 .13624573 .16299439 .16325379 .16299439 .20625305 .12599182 .21424866 .11299133 .21424866 .11099243 .21424866 .06298828 .21424866 .06298828 .1602478 .06298828 .07034302 .14498902-.01953125 .2649994-.01953125 .3929901-.01953125 .5049896 .07533264 .5049896 .20124817 .5049896 .31445313 .4189911 .41862489 .29499818 .41862489 .25099183 .41862489 .19898987 .4076233 .15499878 .36956788V.5588074Z"/>
<path id="font_4_95" d="M.7319946 .08753967C.7319946 .09353638 .7319946 .104537967 .71899417 .104537967 .70799258 .104537967 .70799258 .09555054 .70700076 .08854675 .70098879 .017532349 .66600039-.00047302247 .6409912-.00047302247 .59199526-.00047302247 .58399966 .05053711 .56999209 .14355469L.5569916 .22355652C.5389862 .28756715 .48999024 .3205719 .43499757 .3395691 .5319977 .36357118 .6100006 .4245758 .6100006 .502594 .6100006 .5986023 .49598695 .6826172 .34899903 .6826172H.034988405V.6516113H.05899048C.13598633 .6516113 .13798523 .64060977 .13798523 .604599V.077545169C.13798523 .04197693 .13598633 .0309906 .05899048 .0309906H.034988405V0C.070999149 .0029907227 .14199829 .0029907227 .18099976 .0029907227 .21998596 .0029907227 .29100038 .0029907227 .32699586 0V.0309906H.30299378C.22599793 .0309906 .22399903 .04197693 .22399903 .077926639V.3305359H.33898927C.35499574 .3305359 .39698792 .3305359 .43199159 .29658509 .46998597 .26063539 .46998597 .22969055 .46998597 .16279602 .46998597 .09788513 .46998597 .05795288 .5109863 .019989014 .5519867-.016464234 .6069946-.022460938 .6369934-.022460938 .71499636-.022460938 .7319946 .059524537 .7319946 .087524417V.08753967M.5069885 .5025635C.5069885 .43354798 .48298646 .35253907 .33499146 .35253907H.22399903V.6116028C.22399903 .6345978 .22399903 .64660647 .24598694 .6496124 .2559967 .6516113 .2849884 .6516113 .30499269 .6516113 .394989 .6516113 .5069885 .6476135 .5069885 .5025635Z"/>
<path id="font_3_6" d="M.1499939 .3274536C.1499939 .40945436 .15699768 .48303224 .19499207 .543869 .22898865 .5978699 .2829895 .63505557 .34700013 .63505557 .3769989 .63505557 .4169922 .62701418 .43699647 .5998688 .4119873 .5978699 .3909912 .5808716 .3909912 .5518799 .3909912 .5268707 .4079895 .5048828 .43798829 .5048828 .46798707 .5048828 .48599244 .5248718 .48599244 .5538788 .48599244 .6119385 .44400025 .6640625 .34498597 .6640625 .20098877 .6640625 .053985597 .5318756 .053985597 .3174591 .053985597 .05845642 .17599488-.01953125 .28599549-.01953125 .4079895-.01953125 .5139923 .07345581 .5139923 .20445252 .5139923 .33145143 .41299439 .42546083 .29599 .42546083 .21598816 .42546083 .17199707 .37245179 .1499939 .3274536M.28599549 .012466431C.23599243 .012466431 .19699097 .04145813 .17599488 .08546448 .16099549 .11546326 .15299988 .16545105 .15299988 .22544861 .15299988 .32244874 .21099854 .39746095 .29100038 .39746095 .33699037 .39746095 .36799623 .37945558 .3929901 .342453 .4169922 .30445863 .41799928 .26245118 .41799928 .20445252 .41799928 .14746094 .41799928 .10545349 .3909912 .066467288 .36698915 .031463624 .33499146 .012466431 .28599549 .012466431Z"/>
<path id="font_2_81" d="M.5289917 .21325684C.5289917 .3382721 .42199708 .44628907 .28399659 .44628907 .1459961 .44628907 .038986207 .3382721 .038986207 .21325684 .038986207 .0892334 .14898682-.009765625 .28399659-.009765625 .4189911-.009765625 .5289917 .0892334 .5289917 .21325684M.43798829 .22225952C.43798829 .17424011 .43499757 .12124634 .4059906 .08023071 .3789978 .042236329 .33299256 .022232056 .28399659 .022232056 .24699402 .022232056 .19299317 .034225465 .1599884 .083236698 .1329956 .12423706 .12998963 .17625427 .12998963 .22225952 .12998963 .2652588 .1309967 .32426454 .1659851 .36727906 .19099427 .39627076 .23298645 .41827394 .28399659 .41827394 .34298707 .41827394 .3849945 .39027406 .40699769 .3592682 .43499757 .32026673 .43798829 .27026368 .43798829 .22225952Z"/>
<path id="font_2_109" d="M.58999636 0V.035995485C.522995 .035995485 .5149994 .042999269 .5149994 .092056278V.44140626L.36099244 .43052674V.39453126C.42799378 .39439393 .43598939 .3874359 .43598939 .33872987V.16749573C.43598939 .079330448 .3789978 .018234253 .30299378 .018234253 .21199036 .018234253 .20799256 .061309816 .20799256 .11239624V.44140626L.053985597 .43052674V.39453126C.1289978 .39453126 .1289978 .39154054 .1289978 .30273438V.15246582C.1289978 .083343509 .1289978-.009765625 .29599-.009765625 .31799317-.009765625 .3909912-.009765625 .43899537 .07432556H.43998719V-.009765625L.58999636 0Z"/>
<path id="font_2_105" d="M.375 .12606812V.1809845H.34098817V.12705994C.34098817 .059173585 .30899049 .022232056 .269989 .022232056 .20098877 .022232056 .20098877 .10609436 .20098877 .124069217V.39465333H.35699464V.43066407H.20098877V.6142578H.16699219C.1659851 .5244446 .125 .42565919 .0289917 .4226532V.39465333H.12199402V.1250763C.12199402 .01322937 .20599365-.009765625 .2619934-.009765625 .32899476-.010009766 .375 .04699707 .375 .12599182V.12606812Z"/>
</defs>
<path transform="matrix(1.00002,0,0,-1.00003,28.176247,155.24227)" stroke-width=".3985" stroke-linecap="butt" stroke-miterlimit="10" stroke-linejoin="miter" fill="none" stroke="#000000" d="M0 0"/>
<path transform="matrix(1.00002,0,0,-1.00003,28.176247,155.24227)" stroke-width=".3985" stroke-linecap="butt" stroke-miterlimit="10" stroke-linejoin="miter" fill="none" stroke="#000000" d="M0 0V58.96129M0 82.77272V141.73404L70.867 141.73403M70.867 141.73403 141.73404 141.73404 141.73403 134.64734M141.73403 134.64734 141.73404 127.56064 118.99948 104.8261M107.77495 93.60156 85.04042 70.86702 107.77495 48.13248M118.99948 36.90794 141.73404 14.1734 141.73403 7.0867M141.73403 7.0867 141.73404 0H70.867M70.867 0H0"/>
<path transform="matrix(1.00002,0,0,-1.00003,28.176247,155.24227)" stroke-width=".797" stroke-linecap="butt" stroke-miterlimit="10" stroke-linejoin="miter" fill="none" stroke="#000000" d="M-11.90572 70.867C-11.90572 64.2916-6.57541 58.96129 0 58.96129 6.57541 58.96129 11.90572 64.2916 11.90572 70.867 11.90572 77.44243 6.57541 82.77272 0 82.77272-6.57541 82.77272-11.90572 77.44243-11.90572 70.867ZM0 70.867"/>
<path transform="matrix(1.00002,0,0,-1.00003,28.176247,155.24227)" stroke-width=".797" stroke-linecap="butt" stroke-miterlimit="10" stroke-linejoin="miter" fill="none" stroke="#000000" d="M5.95285 70.867C4.98253 69.34311 4.0539 67.89058 2.97643 67.89058 1.89896 67.89058 .97032 69.3431 0 70.867-.9703 72.39091-1.89894 73.84343-2.97643 73.84343-4.05388 73.84343-4.98251 72.39093-5.95285 70.867"/>
<use data-text="V" xlink:href="#font_1_2" transform="matrix(9.962799,0,0,-9.962899,.506691,86.520198)"/>
<use data-text="i" xlink:href="#font_2_66" transform="matrix(6.97394,0,0,-6.9740097,6.31781,88.014247)"/>
<use data-text="n" xlink:href="#font_2_77" transform="matrix(6.97394,0,0,-6.9740097,8.570396,88.014247)"/>
<path transform="matrix(1.00002,0,0,-1.00003,28.176247,155.24227)" d="M69.1308 141.73403V139.74977L73.34734 141.73403 69.1308 143.71828Z"/>
<path transform="matrix(1.00002,0,0,-1.00003,28.176247,155.24227)" stroke-width=".3985" stroke-linecap="butt" stroke-miterlimit="10" stroke-linejoin="miter" fill="none" stroke="#000000" d="M69.1308 141.73403V139.74977L73.34734 141.73403 69.1308 143.71828Z"/>
<use data-text="i" xlink:href="#font_1_3" transform="matrix(9.962799,0,0,-9.962899,95.09359,8.489853)"/>
<use data-text="1" xlink:href="#font_3_1" transform="matrix(6.97394,0,0,-6.9740097,98.52566,9.983902)"/>
<path transform="matrix(1.00002,0,0,-1.00003,28.176247,155.24227)" d="M143.32118 127.56064C143.32118 128.43721 142.6106 129.1478 141.73404 129.1478 140.85749 129.1478 140.1469 128.43721 140.1469 127.56064 140.1469 126.68408 140.85749 125.9735 141.73404 125.9735 142.6106 125.9735 143.32118 126.68408 143.32118 127.56064ZM141.73404 127.56064"/>
<path transform="matrix(1.00002,0,0,-1.00003,28.176247,155.24227)" stroke-width=".3985" stroke-linecap="butt" stroke-miterlimit="10" stroke-linejoin="miter" fill="none" stroke="#000000" d="M143.32118 127.56064C143.32118 128.43721 142.6106 129.1478 141.73404 129.1478 140.85749 129.1478 140.1469 128.43721 140.1469 127.56064 140.1469 126.68408 140.85749 125.9735 141.73404 125.9735 142.6106 125.9735 143.32118 126.68408 143.32118 127.56064ZM141.73404 127.56064"/>
<use data-text="A" xlink:href="#font_4_27" transform="matrix(9.962799,0,0,-9.962899,173.43317,24.158326)"/>
<path transform="matrix(1.00002,0,0,-1.00003,28.176247,155.24227)" stroke-width=".797" stroke-linecap="butt" stroke-miterlimit="10" stroke-linejoin="miter" fill="none" stroke="#000000" d="M118.9995 104.82611 114.7904 86.58612 100.75949 100.61702Z"/>
<path transform="matrix(1.00002,0,0,-1.00003,28.176247,155.24227)" stroke-width=".797" stroke-linecap="butt" stroke-miterlimit="10" stroke-linejoin="miter" fill="none" stroke="#000000" d="M111.98402 111.84155 126.01494 97.81065"/>
<path transform="matrix(1.00002,0,0,-1.00003,28.176247,155.24227)" d="M86.62756 70.86702C86.62756 71.74359 85.91698 72.45418 85.04042 72.45418 84.16386 72.45418 83.45328 71.74359 83.45328 70.86702 83.45328 69.99046 84.16386 69.27988 85.04042 69.27988 85.91698 69.27988 86.62756 69.99046 86.62756 70.86702ZM85.04042 70.86702"/>
<path transform="matrix(1.00002,0,0,-1.00003,28.176247,155.24227)" stroke-width=".3985" stroke-linecap="butt" stroke-miterlimit="10" stroke-linejoin="miter" fill="none" stroke="#000000" d="M86.62756 70.86702C86.62756 71.74359 85.91698 72.45418 85.04042 72.45418 84.16386 72.45418 83.45328 71.74359 83.45328 70.86702 83.45328 69.99046 84.16386 69.27988 85.04042 69.27988 85.91698 69.27988 86.62756 69.99046 86.62756 70.86702ZM85.04042 70.86702"/>
<use data-text="D" xlink:href="#font_1_1" transform="matrix(9.962799,0,0,-9.962899,119.901088,43.110895)"/>
<use data-text="1" xlink:href="#font_3_1" transform="matrix(6.97394,0,0,-6.9740097,128.14926,44.604944)"/>
<path transform="matrix(1.00002,0,0,-1.00003,28.176247,155.24227)" d="M97.63535 83.46198 96.23228 84.86504 94.65382 80.48044 99.03842 82.0589Z"/>
<path transform="matrix(1.00002,0,0,-1.00003,28.176247,155.24227)" stroke-width=".3985" stroke-linecap="butt" stroke-miterlimit="10" stroke-linejoin="miter" fill="none" stroke="#000000" d="M97.63535 83.46198 96.23228 84.86504 94.65382 80.48044 99.03842 82.0589Z"/>
<use data-text="i" xlink:href="#font_1_3" transform="matrix(9.962799,0,0,-9.962899,113.16395,67.99164)"/>
<use data-text="3" xlink:href="#font_3_3" transform="matrix(6.97394,0,0,-6.9740097,116.596019,69.48569)"/>
<use data-text="V" xlink:href="#font_1_2" transform="matrix(9.962799,0,0,-9.962899,99.41767,94.70145)"/>
<use data-text="1" xlink:href="#font_3_1" transform="matrix(6.97394,0,0,-6.9740097,105.22879,96.195499)"/>
<path transform="matrix(1.00002,0,0,-1.00003,28.176247,155.24227)" stroke-width=".797" stroke-linecap="butt" stroke-miterlimit="10" stroke-linejoin="miter" fill="none" stroke="#000000" d="M118.9995 36.90793 114.7904 55.14793 100.75949 41.11702Z"/>
<path transform="matrix(1.00002,0,0,-1.00003,28.176247,155.24227)" stroke-width=".797" stroke-linecap="butt" stroke-miterlimit="10" stroke-linejoin="miter" fill="none" stroke="#000000" d="M111.98402 29.89249 126.01494 43.9234"/>
<path transform="matrix(1.00002,0,0,-1.00003,28.176247,155.24227)" d="M143.32118 14.1734C143.32118 15.04997 142.6106 15.76056 141.73404 15.76056 140.85749 15.76056 140.1469 15.04997 140.1469 14.1734 140.1469 13.29684 140.85749 12.58626 141.73404 12.58626 142.6106 12.58626 143.32118 13.29684 143.32118 14.1734ZM141.73404 14.1734"/>
<path transform="matrix(1.00002,0,0,-1.00003,28.176247,155.24227)" stroke-width=".3985" stroke-linecap="butt" stroke-miterlimit="10" stroke-linejoin="miter" fill="none" stroke="#000000" d="M143.32118 14.1734C143.32118 15.04997 142.6106 15.76056 141.73404 15.76056 140.85749 15.76056 140.1469 15.04997 140.1469 14.1734 140.1469 13.29684 140.85749 12.58626 141.73404 12.58626 142.6106 12.58626 143.32118 13.29684 143.32118 14.1734ZM141.73404 14.1734"/>
<use data-text="D" xlink:href="#font_1_1" transform="matrix(9.962799,0,0,-9.962899,119.901088,130.41751)"/>
<use data-text="3" xlink:href="#font_3_3" transform="matrix(6.97394,0,0,-6.9740097,128.14926,131.91156)"/>
<path transform="matrix(1.00002,0,0,-1.00003,28.176247,155.24227)" d="M129.13907 26.76836 127.736 25.36528 132.1206 23.78682 130.54213 28.17142Z"/>
<path transform="matrix(1.00002,0,0,-1.00003,28.176247,155.24227)" stroke-width=".3985" stroke-linecap="butt" stroke-miterlimit="10" stroke-linejoin="miter" fill="none" stroke="#000000" d="M129.13907 26.76836 127.736 25.36528 132.1206 23.78682 130.54213 28.17142Z"/>
<use data-text="i" xlink:href="#font_1_3" transform="matrix(9.962799,0,0,-9.962899,147.12363,139.7918)"/>
<use data-text="4" xlink:href="#font_3_4" transform="matrix(6.97394,0,0,-6.9740097,150.5557,141.28585)"/>
<use data-text="B" xlink:href="#font_4_34" transform="matrix(9.962799,0,0,-9.962899,173.43317,151.39315)"/>
<path transform="matrix(1.00002,0,0,-1.00003,28.176247,155.24227)" stroke-width=".3985" stroke-linecap="butt" stroke-miterlimit="10" stroke-linejoin="miter" fill="none" stroke="#000000" d="M141.73404 127.56064 164.46857 104.8261M175.6931 93.60156 198.42766 70.86702 175.6931 48.13248M164.46857 36.90794 141.73404 14.1734"/>
<path transform="matrix(1.00002,0,0,-1.00003,28.176247,155.24227)" stroke-width=".797" stroke-linecap="butt" stroke-miterlimit="10" stroke-linejoin="miter" fill="none" stroke="#000000" d="M175.69312 93.60155 171.48403 111.84155 157.45311 97.81065Z"/>
<path transform="matrix(1.00002,0,0,-1.00003,28.176247,155.24227)" stroke-width=".797" stroke-linecap="butt" stroke-miterlimit="10" stroke-linejoin="miter" fill="none" stroke="#000000" d="M168.67765 86.58612 182.70856 100.61702"/>
<path transform="matrix(1.00002,0,0,-1.00003,28.176247,155.24227)" d="M200.01482 70.86702C200.01482 71.74359 199.30423 72.45418 198.42766 72.45418 197.5511 72.45418 196.84052 71.74359 196.84052 70.86702 196.84052 69.99046 197.5511 69.27988 198.42766 69.27988 199.30423 69.27988 200.01482 69.99046 200.01482 70.86702ZM198.42766 70.86702"/>
<path transform="matrix(1.00002,0,0,-1.00003,28.176247,155.24227)" stroke-width=".3985" stroke-linecap="butt" stroke-miterlimit="10" stroke-linejoin="miter" fill="none" stroke="#000000" d="M200.01482 70.86702C200.01482 71.74359 199.30423 72.45418 198.42766 72.45418 197.5511 72.45418 196.84052 71.74359 196.84052 70.86702 196.84052 69.99046 197.5511 69.27988 198.42766 69.27988 199.30423 69.27988 200.01482 69.99046 200.01482 70.86702ZM198.42766 70.86702"/>
<use data-text="D" xlink:href="#font_1_1" transform="matrix(9.962799,0,0,-9.962899,207.20783,43.110895)"/>
<use data-text="2" xlink:href="#font_3_2" transform="matrix(6.97394,0,0,-6.9740097,215.456,44.604944)"/>
<path transform="matrix(1.00002,0,0,-1.00003,28.176247,155.24227)" d="M185.83269 83.46198 184.42963 82.0589 188.81423 80.48044 187.23575 84.86504Z"/>
<path transform="matrix(1.00002,0,0,-1.00003,28.176247,155.24227)" stroke-width=".3985" stroke-linecap="butt" stroke-miterlimit="10" stroke-linejoin="miter" fill="none" stroke="#000000" d="M185.83269 83.46198 184.42963 82.0589 188.81423 80.48044 187.23575 84.86504Z"/>
<use data-text="i" xlink:href="#font_1_3" transform="matrix(9.962799,0,0,-9.962899,218.76007,67.99164)"/>
<use data-text="2" xlink:href="#font_3_2" transform="matrix(6.97394,0,0,-6.9740097,222.19214,69.48569)"/>
<use data-text="V" xlink:href="#font_1_2" transform="matrix(9.962799,0,0,-9.962899,230.12729,94.70145)"/>
<use data-text="2" xlink:href="#font_3_2" transform="matrix(6.97394,0,0,-6.9740097,235.93842,96.195499)"/>
<path transform="matrix(1.00002,0,0,-1.00003,28.176247,155.24227)" stroke-width=".797" stroke-linecap="butt" stroke-miterlimit="10" stroke-linejoin="miter" fill="none" stroke="#000000" d="M175.69312 48.13249 171.48403 29.89249 157.45311 43.9234Z"/>
<path transform="matrix(1.00002,0,0,-1.00003,28.176247,155.24227)" stroke-width=".797" stroke-linecap="butt" stroke-miterlimit="10" stroke-linejoin="miter" fill="none" stroke="#000000" d="M168.67765 55.14793 182.70856 41.11702"/>
<use data-text="D" xlink:href="#font_1_1" transform="matrix(9.962799,0,0,-9.962899,207.20783,130.41751)"/>
<use data-text="4" xlink:href="#font_3_4" transform="matrix(6.97394,0,0,-6.9740097,215.456,131.91156)"/>
<path transform="matrix(1.00002,0,0,-1.00003,28.176247,155.24227)" d="M154.32898 26.76836 152.9259 28.17142 151.34745 23.78682 155.73204 25.36528Z"/>
<path transform="matrix(1.00002,0,0,-1.00003,28.176247,155.24227)" stroke-width=".3985" stroke-linecap="butt" stroke-miterlimit="10" stroke-linejoin="miter" fill="none" stroke="#000000" d="M154.32898 26.76836 152.9259 28.17142 151.34745 23.78682 155.73204 25.36528Z"/>
<use data-text="i" xlink:href="#font_1_3" transform="matrix(9.962799,0,0,-9.962899,184.80039,139.7918)"/>
<use data-text="5" xlink:href="#font_3_5" transform="matrix(6.97394,0,0,-6.9740097,188.23246,141.28585)"/>
<path transform="matrix(1.00002,0,0,-1.00003,28.176247,155.24227)" stroke-width=".3985" stroke-linecap="butt" stroke-miterlimit="10" stroke-linejoin="miter" fill="none" stroke="#000000" d="M198.42766 70.86702H255.12126M255.12126 70.86702H311.8149"/>
<path transform="matrix(1.00002,0,0,-1.00003,28.176247,155.24227)" d="M313.40205 70.86702C313.40205 71.74359 312.69148 72.45418 311.8149 72.45418 310.93836 72.45418 310.22776 71.74359 310.22776 70.86702 310.22776 69.99046 310.93836 69.27988 311.8149 69.27988 312.69148 69.27988 313.40205 69.99046 313.40205 70.86702ZM311.8149 70.86702" fill="#ffffff"/>
<path transform="matrix(1.00002,0,0,-1.00003,28.176247,155.24227)" stroke-width=".3985" stroke-linecap="butt" stroke-miterlimit="10" stroke-linejoin="miter" fill="none" stroke="#000000" d="M313.40205 70.86702C313.40205 71.74359 312.69148 72.45418 311.8149 72.45418 310.93836 72.45418 310.22776 71.74359 310.22776 70.86702 310.22776 69.99046 310.93836 69.27988 311.8149 69.27988 312.69148 69.27988 313.40205 69.99046 313.40205 70.86702ZM311.8149 70.86702"/>
<path transform="matrix(1.00002,0,0,-1.00003,28.176247,155.24227)" d="" fill="#ffffff"/>
<path transform="matrix(1.00002,0,0,-1.00003,28.176247,155.24227)" stroke-width=".3985" stroke-linecap="butt" stroke-miterlimit="10" stroke-linejoin="miter" fill="none" stroke="#000000" d=""/>
<path transform="matrix(1.00002,0,0,-1.00003,28.176247,155.24227)" stroke-width=".3985" stroke-linecap="butt" stroke-linejoin="bevel" fill="none" stroke="#000000" d="M85.04042 11.90543V4.76207C87.67047 4.76207 89.8025 2.63004 89.8025 0 89.8025-2.63004 87.67047-4.76207 85.04042-4.76207V-11.90543M96.94585 0H90.99313M88.61205 0H73.135"/>
<path transform="matrix(1.00002,0,0,-1.00003,28.176247,155.24227)" stroke-width=".3985" stroke-linecap="butt" stroke-miterlimit="10" stroke-linejoin="miter" fill="none" stroke="#000000" d="M85.04042 11.90543 85.0404 41.38623M85.0404 41.38623 85.04042 70.86702"/>
<path transform="matrix(1.00002,0,0,-1.00003,28.176247,155.24227)" stroke-width=".3985" stroke-linecap="butt" stroke-miterlimit="10" stroke-linejoin="miter" fill="none" stroke="#000000" d="M85.04042-11.90543 85.0404-18.99211M85.0404-18.99211 85.04042-26.07881 198.42765-26.0788M198.42765-26.0788 311.8149-26.07881"/>
<path transform="matrix(1.00002,0,0,-1.00003,28.176247,155.24227)" d="M313.40205-26.07881C313.40205-25.20226 312.69148-24.49167 311.8149-24.49167 310.93836-24.49167 310.22776-25.20226 310.22776-26.07881 310.22776-26.95538 310.93836-27.66597 311.8149-27.66597 312.69148-27.66597 313.40205-26.95538 313.40205-26.07881ZM311.8149-26.07881" fill="#ffffff"/>
<path transform="matrix(1.00002,0,0,-1.00003,28.176247,155.24227)" stroke-width=".3985" stroke-linecap="butt" stroke-miterlimit="10" stroke-linejoin="miter" fill="none" stroke="#000000" d="M313.40205-26.07881C313.40205-25.20226 312.69148-24.49167 311.8149-24.49167 310.93836-24.49167 310.22776-25.20226 310.22776-26.07881 310.22776-26.95538 310.93836-27.66597 311.8149-27.66597 312.69148-27.66597 313.40205-26.95538 313.40205-26.07881ZM311.8149-26.07881"/>
<path transform="matrix(1.00002,0,0,-1.00003,28.176247,155.24227)" d="" fill="#ffffff"/>
<path transform="matrix(1.00002,0,0,-1.00003,28.176247,155.24227)" stroke-width=".3985" stroke-linecap="butt" stroke-miterlimit="10" stroke-linejoin="miter" fill="none" stroke="#000000" d=""/>
<path transform="matrix(1.00002,0,0,-1.00003,28.176247,155.24227)" stroke-width=".3985" stroke-linecap="butt" stroke-miterlimit="10" stroke-linejoin="miter" fill="none" stroke="#000000" d="M255.12126 70.86702V38.2683M255.12126 6.51991V-26.07881"/>
<path transform="matrix(1.00002,0,0,-1.00003,28.176247,155.24227)" d="M256.70845 70.86702C256.70845 71.74359 255.99784 72.45418 255.12126 72.45418 254.2447 72.45418 253.53412 71.74359 253.53412 70.86702 253.53412 69.99046 254.2447 69.27988 255.12126 69.27988 255.99784 69.27988 256.70845 69.99046 256.70845 70.86702ZM255.12126 70.86702"/>
<path transform="matrix(1.00002,0,0,-1.00003,28.176247,155.24227)" stroke-width=".3985" stroke-linecap="butt" stroke-miterlimit="10" stroke-linejoin="miter" fill="none" stroke="#000000" d="M256.70845 70.86702C256.70845 71.74359 255.99784 72.45418 255.12126 72.45418 254.2447 72.45418 253.53412 71.74359 253.53412 70.86702 253.53412 69.99046 254.2447 69.27988 255.12126 69.27988 255.99784 69.27988 256.70845 69.99046 256.70845 70.86702ZM255.12126 70.86702"/>
<path transform="matrix(1.00002,0,0,-1.00003,28.176247,155.24227)" stroke-width=".797" stroke-linecap="butt" stroke-linejoin="bevel" fill="none" stroke="#000000" d="M255.12126 38.66681 261.0741 35.58939 249.16841 30.23157 261.0741 24.87376 249.16841 19.51595 261.0741 14.15813 249.16841 8.80031 255.12126 6.1214"/>
<use data-text="R" xlink:href="#font_4_95" transform="matrix(9.962799,0,0,-9.962899,291.46153,134.99466)"/>
<path transform="matrix(1.00002,0,0,-1.00003,28.176247,155.24227)" d="M255.12126-8.04323H253.13701L255.12126-12.25977 257.1055-8.04323Z"/>
<path transform="matrix(1.00002,0,0,-1.00003,28.176247,155.24227)" stroke-width=".3985" stroke-linecap="butt" stroke-miterlimit="10" stroke-linejoin="miter" fill="none" stroke="#000000" d="M255.12126-8.04323H253.13701L255.12126-12.25977 257.1055-8.04323Z"/>
<use data-text="i" xlink:href="#font_1_3" transform="matrix(9.962799,0,0,-9.962899,286.82243,167.56064)"/>
<use data-text="6" xlink:href="#font_3_6" transform="matrix(6.97394,0,0,-6.9740097,290.2545,169.05469)"/>
<path transform="matrix(1.00002,0,0,-1.00003,28.176247,155.24227)" d="M256.70845-26.07881C256.70845-25.20226 255.99784-24.49167 255.12126-24.49167 254.2447-24.49167 253.53412-25.20226 253.53412-26.07881 253.53412-26.95538 254.2447-27.66597 255.12126-27.66597 255.99784-27.66597 256.70845-26.95538 256.70845-26.07881ZM255.12126-26.07881"/>
<path transform="matrix(1.00002,0,0,-1.00003,28.176247,155.24227)" stroke-width=".3985" stroke-linecap="butt" stroke-miterlimit="10" stroke-linejoin="miter" fill="none" stroke="#000000" d="M256.70845-26.07881C256.70845-25.20226 255.99784-24.49167 255.12126-24.49167 254.2447-24.49167 253.53412-25.20226 253.53412-26.07881 253.53412-26.95538 254.2447-27.66597 255.12126-27.66597 255.99784-27.66597 256.70845-26.95538 256.70845-26.07881ZM255.12126-26.07881"/>
<use data-text="V" xlink:href="#font_1_2" transform="matrix(9.962799,0,0,-9.962899,331.10234,135.46967)"/>
<use data-text="o" xlink:href="#font_2_81" transform="matrix(6.97394,0,0,-6.9740097,336.91346,136.96372)"/>
<use data-text="u" xlink:href="#font_2_109" transform="matrix(6.97394,0,0,-6.9740097,340.88163,136.96372)"/>
<use data-text="t" xlink:href="#font_2_105" transform="matrix(6.97394,0,0,-6.9740097,345.28218,136.96372)"/>
</svg>
