<svg xmlns="http://www.w3.org/2000/svg" xmlns:xlink="http://www.w3.org/1999/xlink" xmlns:inkscape="http://www.inkscape.org/namespaces/inkscape" version="1.1" width="330" height="127" viewBox="0 0 330 127">
<defs>
<clipPath id="clip_1">
<path transform="matrix(1.00006,0,0,-1.00005,2.2949982,82.80554)" d="M0 7.08669V-21.2601H56.69362V7.08669ZM56.69362-21.2601"/>
</clipPath>
<g id="pattern_tile_2">
<path transform="matrix(.7071,-.7071,-.7071,-.7071,-153,732)" stroke-width=".79701" stroke-linecap="butt" stroke-miterlimit="10" stroke-linejoin="miter" fill="none" stroke="#0000ff" d="M-1.49442 0H1.49442"/>
</g>
<pattern id="pattern_2" patternUnits="userSpaceOnUse" patternContentUnits="userSpaceOnUse" x="0" y="0" width="2.98883" height="2.98883">
<g transform="matrix(.7071136,-.7071136,-.7071136,-.7071136,625.79556,409.4188)">
<use x="0" y="0" xlink:href="#pattern_tile_2"/>
<use x="0" y="-2.98883" xlink:href="#pattern_tile_2"/>
<use x="-2.98883" y="0" xlink:href="#pattern_tile_2"/>
<use x="-2.98883" y="-2.98883" xlink:href="#pattern_tile_2"/>
</g>
</pattern>
<clipPath id="clip_3">
<path transform="matrix(1.00006,0,0,-1.00005,2.2949982,82.80554)" d="M70.867-3.54333V-31.89014H127.56062V-3.54333ZM127.56062-31.89014"/>
</clipPath>
<g id="pattern_tile_4">
<path transform="matrix(.7071,-.7071,-.7071,-.7071,-153,732)" stroke-width=".79701" stroke-linecap="butt" stroke-miterlimit="10" stroke-linejoin="miter" fill="none" stroke="#0000ff" d="M-1.49442 0H1.49442"/>
</g>
<pattern id="pattern_4" patternUnits="userSpaceOnUse" patternContentUnits="userSpaceOnUse" x="0" y="0" width="2.98883" height="2.98883">
<g transform="matrix(.7071136,-.7071136,-.7071136,-.7071136,625.79556,409.4188)">
<use x="0" y="0" xlink:href="#pattern_tile_4"/>
<use x="0" y="-2.98883" xlink:href="#pattern_tile_4"/>
<use x="-2.98883" y="0" xlink:href="#pattern_tile_4"/>
<use x="-2.98883" y="-2.98883" xlink:href="#pattern_tile_4"/>
</g>
</pattern>
<clipPath id="clip_5">
<path transform="matrix(1.00006,0,0,-1.00005,2.2949982,82.80554)" d="M141.73404-10.63004V-31.89014H198.42766V-10.63004ZM198.42766-31.89014"/>
</clipPath>
<g id="pattern_tile_6">
<path transform="matrix(.7071,-.7071,-.7071,-.7071,-153,732)" stroke-width=".79701" stroke-linecap="butt" stroke-miterlimit="10" stroke-linejoin="miter" fill="none" stroke="#0000ff" d="M-1.49442 0H1.49442"/>
</g>
<pattern id="pattern_6" patternUnits="userSpaceOnUse" patternContentUnits="userSpaceOnUse" x="0" y="0" width="2.98883" height="2.98883">
<g transform="matrix(.7071136,-.7071136,-.7071136,-.7071136,625.79556,409.4188)">
<use x="0" y="0" xlink:href="#pattern_tile_6"/>
<use x="0" y="-2.98883" xlink:href="#pattern_tile_6"/>
<use x="-2.98883" y="0" xlink:href="#pattern_tile_6"/>
<use x="-2.98883" y="-2.98883" xlink:href="#pattern_tile_6"/>
</g>
</pattern>
<clipPath id="clip_7">
<path transform="matrix(1.00006,0,0,-1.00005,2.2949982,82.80554)" d="M141.73404 3.54333V10.63004H198.42766V3.54333ZM198.42766 10.63004"/>
</clipPath>
<g id="pattern_tile_8">
<path transform="matrix(.7071,-.7071,-.7071,-.7071,-153,732)" stroke-width=".79701" stroke-linecap="butt" stroke-miterlimit="10" stroke-linejoin="miter" fill="none" stroke="#0000ff" d="M-1.49442 0H1.49442"/>
</g>
<pattern id="pattern_8" patternUnits="userSpaceOnUse" patternContentUnits="userSpaceOnUse" x="0" y="0" width="2.98883" height="2.98883">
<g transform="matrix(.7071136,-.7071136,-.7071136,-.7071136,625.79556,409.4188)">
<use x="0" y="0" xlink:href="#pattern_tile_8"/>
<use x="0" y="-2.98883" xlink:href="#pattern_tile_8"/>
<use x="-2.98883" y="0" xlink:href="#pattern_tile_8"/>
<use x="-2.98883" y="-2.98883" xlink:href="#pattern_tile_8"/>
</g>
</pattern>
<path id="font_9_65" d="M.33299256 0V.0309906H.30699159C.22799683 .0309906 .22499085 .041992189 .22499085 .07795715V.6046295C.22499085 .64060977 .22799683 .6516113 .30699159 .6516113H.33299256V.6826172C.2979889 .6796112 .21899414 .6796112 .18099976 .6796112 .14199829 .6796112 .06298828 .6796112 .027999878 .6826172V.6516113H.053985597C.1329956 .6516113 .13598633 .64060977 .13598633 .6046295V.07795715C.13598633 .041992189 .1329956 .0309906 .053985597 .0309906H.027999878V0C.06298828 .0029907227 .14199829 .0029907227 .17999268 .0029907227 .21899414 .0029907227 .2979889 .0029907227 .33299256 0Z"/>
<path id="font_9_77" d="M.5349884 0V.0309906C.48298646 .0309906 .45799256 .0309906 .45700074 .061019899V.25221253C.45700074 .3383026 .45700074 .36932374 .42599488 .405365 .4119873 .42237855 .3789978 .4423828 .32099916 .4423828 .24798584 .4423828 .20098877 .39935304 .17298889 .33729554V.4423828L.03199768 .43066407V.3996582C.101989749 .3996582 .10998535 .39266969 .10998535 .34370423V.07595825C.10998535 .0309906 .09899902 .0309906 .03199768 .0309906V0L.14498902 .0029907227 .25698854 0V.0309906C.18998719 .0309906 .1789856 .0309906 .1789856 .07595825V.25978089C.1789856 .36431886 .25 .42037965 .31399537 .42037965 .3769989 .42037965 .3880005 .36631776 .3880005 .30926515V.076034549C.3880005 .0309906 .3769989 .0309906 .30999757 .0309906V0L.4229889 .0029907227 .5349884 0Z"/>
<path id="font_9_98" d="M.3600006 .12823487C.3600006 .18122864 .32998658 .21122742 .31799317 .22323609 .2849884 .25523377 .24598694 .26322938 .20399475 .27124024 .147995 .28224183 .08099365 .29522706 .08099365 .35324098 .08099365 .38822938 .10699463 .42922975 .19299317 .42922975 .30299378 .42922975 .30799867 .3392334 .30999757 .30822755 .31098939 .2992401 .32199098 .2992401 .32199098 .2992401 .33499146 .2992401 .33499146 .30422975 .33499146 .32322694V.4242401C.33499146 .4412384 .33499146 .4482422 .32398988 .4482422 .31900025 .4482422 .31698609 .4482422 .3039856 .43623353 .30099488 .43223573 .29100038 .42323304 .2869873 .42022706 .24899292 .4482422 .20799256 .4482422 .19299317 .4482422 .070999149 .4482422 .032989503 .38124085 .032989503 .3252411 .032989503 .29023744 .04899597 .26223756 .07598877 .24023438 .10798645 .2142334 .13598633 .2082367 .20799256 .19422913 .22999573 .19021607 .31199647 .17422486 .31199647 .10221863 .31199647 .051223756 .2769928 .011245728 .19898987 .011245728 .114990238 .011245728 .07899475 .068222049 .05999756 .1532135 .056991579 .16621399 .055999757 .17021179 .04598999 .17021179 .032989503 .17021179 .032989503 .16322327 .032989503 .1452179V.013214111C.032989503-.003753662 .032989503-.0107421879 .04399109-.0107421879 .04899597-.0107421879 .049987794-.009750366 .068984989 .009246826 .070999149 .011245728 .070999149 .013214111 .08898926 .032226564 .1329956-.009750366 .17799378-.0107421879 .19898987-.0107421879 .31399537-.0107421879 .3600006 .05621338 .3600006 .1282196V.12823487Z"/>
<path id="font_9_109" d="M.5349884 0V.0309906C.46499635 .0309906 .45700074 .037994386 .45700074 .08705139V.4423828L.30999757 .43066407V.3996582C.37998963 .3996582 .3880005 .39266969 .3880005 .34373475V.16601563C.3880005 .07910156 .33999635 .011245728 .2669983 .011245728 .18299866 .011245728 .1789856 .058135988 .1789856 .11009216V.4423828L.03199768 .43066407V.3996582C.10998535 .3996582 .10998535 .39666749 .10998535 .3078003V.15802002C.10998535 .080093387 .10998535-.0107421879 .2619934-.0107421879 .31799317-.0107421879 .3619995 .017242432 .3909912 .07910156V-.0107421879L.5349884 0Z"/>
<path id="font_9_72" d="M.25498963 0V.0309906C.18798828 .0309906 .1769867 .0309906 .1769867 .07601929V.69433596L.032989503 .6826172V.6516113C.102996829 .6516113 .11099243 .64460757 .11099243 .5956421V.07595825C.11099243 .0309906 .099990848 .0309906 .032989503 .0309906V0L.14399719 .0029907227 .25498963 0Z"/>
<path id="font_9_28" d="M.48298646 .08912659V.14511109H.45799256V.08912659C.45799256 .03112793 .43299867 .025131226 .42199708 .025131226 .3889923 .025131226 .3849945 .070129398 .3849945 .07511902V.27508546C.3849945 .31707765 .3849945 .3560791 .34899903 .39312745 .30999757 .43223573 .2599945 .4482422 .21199036 .4482422 .12998963 .4482422 .06098938 .40115357 .06098938 .335083 .06098938 .30508424 .08099365 .28808595 .10699463 .28808595 .1349945 .28808595 .15299988 .30807496 .15299988 .33407594 .15299988 .3460846 .147995 .37908937 .101989749 .38008119 .1289978 .41519166 .17799378 .426239 .20999146 .426239 .25898744 .426239 .31599427 .38710023 .31599427 .29808045V.26107789C.2649994 .25808717 .19499207 .25508119 .13198853 .22509766 .056991579 .19110108 .03199768 .13911438 .03199768 .09512329 .03199768 .014251709 .1289978-.0107421879 .19198609-.0107421879 .2579956-.0107421879 .3039856 .029251099 .32299806 .07624817 .32699586 .036132814 .35398866-.005859375 .40098573-.005859375 .42199708-.005859375 .48298646 .008132935 .48298646 .08912659M.31599427 .14013672C.31599427 .04525757 .24398804 .011245728 .19898987 .011245728 .1499939 .011245728 .10899353 .04624939 .10899353 .09625244 .10899353 .15124512 .15098572 .23425293 .31599427 .24024964V.14013672Z"/>
<path id="font_9_105" d="M.33198548 .12385559V.18066406H.30699159V.12585449C.30699159 .052108766 .2769928 .014251709 .23999024 .014251709 .17298889 .014251709 .17298889 .10491943 .17298889 .12187195V.3996582H.31599427V.43066407H.17298889V.6142578H.147995C.14698792 .5324249 .116989139 .42565919 .018997193 .42166139V.3996582H.10398865V.12408447C.10398865 .0012512207 .19699097-.0107421879 .23298645-.0107421879 .3039856-.0107421879 .33198548 .060180665 .33198548 .12408447V.12385559Z"/>
<path id="font_9_81" d="M.47099305 .21424866C.47099305 .34223939 .37098695 .4482422 .25 .4482422 .125 .4482422 .027999878 .3392334 .027999878 .21424866 .027999878 .085250858 .13198853-.0107421879 .24899292-.0107421879 .36999513-.0107421879 .47099305 .087249759 .47099305 .21424866M.3880005 .22224427C.3880005 .18624878 .3880005 .13224793 .3659973 .08824158 .34399415 .04324341 .2999878 .014251709 .25 .014251709 .20698548 .014251709 .16299439 .035247804 .13598633 .08125305 .11099243 .12524414 .11099243 .18624878 .11099243 .22224427 .11099243 .26124574 .11099243 .31523133 .1349945 .35923768 .1619873 .40522767 .20899964 .426239 .24899292 .426239 .29299928 .426239 .33599855 .40423585 .3619995 .36123658 .3880005 .3182373 .3880005 .26023866 .3880005 .22224427Z"/>
<path id="font_9_96" d="M.3639984 .38137818C.3639984 .41337586 .33299256 .4423828 .2899933 .4423828 .21699524 .4423828 .18099976 .37538148 .16699219 .3323822V.4423828L.027999878 .43066407V.3996582C.09799194 .3996582 .10598755 .39266969 .10598755 .34370423V.07595825C.10598755 .0309906 .09498596 .0309906 .027999878 .0309906V0L.14199829 .0029907227C.18199158 .0029907227 .22898865 .0029907227 .2689972 0V.0309906H.24798584C.17399597 .0309906 .17199707 .04197693 .17199707 .07795715V.23181153C.17199707 .33137513 .21398926 .42037965 .2899933 .42037965 .29699708 .42037965 .29899598 .42037965 .30099488 .41937257 .2979889 .41838075 .27799989 .40637208 .27799989 .3803711 .27799989 .35237123 .29899598 .33737184 .32099916 .33737184 .33898927 .33737184 .3639984 .3493805 .3639984 .38137818Z"/>
<clipPath id="clip_10">
<path transform="matrix(1.00006,0,0,-1.00005,2.2949982,82.80554)" d="M212.60106-14.17339V-42.5202H269.29469V-14.17339ZM269.29469-42.5202"/>
</clipPath>
<g id="pattern_tile_11">
<path transform="matrix(.7071,-.7071,-.7071,-.7071,-153,732)" stroke-width=".79701" stroke-linecap="butt" stroke-miterlimit="10" stroke-linejoin="miter" fill="none" stroke="#0000ff" d="M-1.49442 0H1.49442"/>
</g>
<pattern id="pattern_11" patternUnits="userSpaceOnUse" patternContentUnits="userSpaceOnUse" x="0" y="0" width="2.98883" height="2.98883">
<g transform="matrix(.7071136,-.7071136,-.7071136,-.7071136,625.79556,409.4188)">
<use x="0" y="0" xlink:href="#pattern_tile_11"/>
<use x="0" y="-2.98883" xlink:href="#pattern_tile_11"/>
<use x="-2.98883" y="0" xlink:href="#pattern_tile_11"/>
<use x="-2.98883" y="-2.98883" xlink:href="#pattern_tile_11"/>
</g>
</pattern>
<path id="font_9_42" d="M.6649933 .23271179C.6649933 .24272156 .6649933 .24972534 .6519928 .24972534 .6409912 .24972534 .6409912 .24372864 .6399994 .23371887 .6319885 .09059143 .5249939 .008529663 .41600038 .008529663 .35499574 .008529663 .15899658 .042556764 .15899658 .34080506 .15899658 .64004519 .35398866 .67407229 .4149933 .67407229 .5239868 .67407229 .61299136 .58299258 .6329956 .4368744 .6349945 .42286683 .6349945 .41986085 .6489868 .41986085 .6649933 .41986085 .6649933 .42286683 .6649933 .44387818V.68107607C.6649933 .69807437 .6649933 .7050781 .6539917 .7050781 .6499939 .7050781 .6459961 .7050781 .6380005 .69306948L.58799746 .61901858C.5509949 .6550598 .5 .7050781 .4039917 .7050781 .21699524 .7050781 .055999757 .5459595 .055999757 .34179688 .055999757 .1346283 .21798706-.022460938 .4039917-.022460938 .5669861-.022460938 .6649933 .116622928 .6649933 .23271179Z"/>
<path id="font_9_47" d="M.5269928 0V.0309906C.45700074 .0309906 .44898988 .038009645 .44898988 .0871582V.69433596L.30499269 .6826172V.6516113C.375 .6516113 .3829956 .64463809 .3829956 .59580996V.38035584C.35398866 .41636659 .31098939 .4423828 .25698854 .4423828 .13899231 .4423828 .033996583 .3443451 .033996583 .21531677 .033996583 .088272098 .13198853-.0107421879 .24598694-.0107421879 .30999757-.0107421879 .35499574 .023254395 .37998963 .055267335V-.0107421879L.5269928 0M.37998963 .117996219C.37998963 .099990848 .37998963 .09799194 .36898805 .08099365 .33898927 .033218385 .2939911 .011245728 .25099183 .011245728 .20599365 .011245728 .16999817 .037216188 .1459961 .075164798 .11999512 .1161499 .116989139 .17320252 .116989139 .21421814 .116989139 .25125123 .11898804 .31129457 .147995 .35632325 .16899109 .38734437 .20698548 .42037965 .26098634 .42037965 .29599 .42037965 .33799745 .405365 .36898805 .3603363 .37998963 .34332276 .37998963 .34132386 .37998963 .32330323V.117996219Z"/>
<path id="font_9_43" d="M.4149933 .119140628C.4149933 .12911988 .40499879 .12911988 .4019928 .12911988 .3929901 .12911988 .3909912 .12512207 .3889923 .119140628 .3600006 .026229859 .29499818 .014251709 .2579956 .014251709 .20498657 .014251709 .116989139 .0572052 .116989139 .21801758 .116989139 .38093568 .19898987 .42323304 .2519989 .42323304 .26098634 .42323304 .32398988 .42222596 .35899354 .38594056 .31799317 .38293458 .31199647 .3529358 .31199647 .3399353 .31199647 .31393434 .32998658 .2939453 .35798646 .2939453 .38398744 .2939453 .4039917 .3109436 .4039917 .34094239 .4039917 .40911866 .32798768 .4482422 .25099183 .4482422 .12599182 .4482422 .033996583 .3399353 .033996583 .21601868 .033996583 .08816528 .1329956-.0107421879 .24899292-.0107421879 .3829956-.0107421879 .4149933 .10914612 .4149933 .119140628Z"/>
<path id="font_9_66" d="M.24699402 0V.0309906C.18099976 .0309906 .1769867 .035995485 .1769867 .075042728V.4423828L.036987306 .43066407V.3996582C.101989749 .3996582 .11099243 .3936615 .11099243 .3447113V.07595825C.11099243 .0309906 .099990848 .0309906 .032989503 .0309906V0L.14299011 .0029907227C.17799378 .0029907227 .21299744 .0009918213 .24699402 0M.19198609 .603775C.19198609 .6307678 .16899109 .6567688 .13899231 .6567688 .10499573 .6567688 .084991458 .6287689 .084991458 .603775 .084991458 .57676699 .10798645 .55078127 .13798523 .55078127 .17199707 .55078127 .19198609 .5787811 .19198609 .603775Z"/>
<path id="font_9_59" d="M.4850006 .40411378C.4850006 .42111207 .47299195 .453125 .43399049 .453125 .4139862 .453125 .36999513 .44711305 .32798768 .40611268 .28599549 .43937684 .24398804 .4423828 .22200012 .4423828 .1289978 .4423828 .05999756 .37338258 .05999756 .29638673 .05999756 .25239564 .08198547 .21440125 .10699463 .19340515 .09399414 .17840576 .07598877 .14538574 .07598877 .11035156 .07598877 .07899475 .08898926 .04083252 .11999512 .020828248 .05999756 .003829956 .027999878-.039138795 .027999878-.07911682 .027999878-.15107727 .1269989-.20605469 .24899292-.20605469 .36698915-.20605469 .47099305-.15507508 .47099305-.07711792 .47099305-.042144777 .45700074 .008834839 .4059906 .036834718 .35299684 .064834598 .29499818 .064834598 .23399353 .064834598 .20899964 .064834598 .1659851 .064834598 .15899658 .065841678 .1269989 .069885257 .10598755 .101242069 .10598755 .13334656 .10598755 .13735962 .10598755 .16040039 .12298584 .18040467 .1619873 .15240479 .20298767 .14941406 .22200012 .14941406 .31498719 .14941406 .38398744 .21839905 .38398744 .2953949 .38398744 .3323822 .36799623 .36938478 .34298707 .39237977 .3789978 .42637635 .4149933 .43138124 .43299867 .43138124 .43299867 .43112184 .43998719 .43112184 .44299317 .43011476 .43199159 .42611695 .4269867 .41513063 .4269867 .40315248 .4269867 .38616944 .43998719 .37417604 .45599366 .37417604 .46598817 .37417604 .4850006 .3811798 .4850006 .4041443V.40411378M.30899049 .29626466C.30899049 .26930238 .30799867 .2373352 .29299928 .21235657 .2849884 .20037842 .2619934 .17240906 .22200012 .17240906 .1349945 .17240906 .1349945 .2722931 .1349945 .29527284 .1349945 .3222351 .13598633 .35420228 .15098572 .3791809 .15899658 .3913269 .18199158 .41937257 .22200012 .41937257 .30899049 .41937257 .30899049 .31922914 .30899049 .29618836V.29626466M.4189911-.07911682C.4189911-.13308716 .34799195-.18305969 .25-.18305969 .14898682-.18305969 .07998657-.13209534 .07998657-.07911682 .07998657-.03314209 .117996219 .003829956 .1619873 .0068359377H.22099304C.30699159 .0068359377 .4189911 .0068359377 .4189911-.07911682Z"/>
<path id="font_9_34" d="M.651001 .18289185C.651001 .26983644 .56900027 .34480287 .45799256 .35679627 .5549927 .3757782 .6239929 .43974305 .6239929 .51368716 .6239929 .6006317 .5319977 .6826172 .4019928 .6826172H.035995485V.6516113H.05999756C.13699341 .6516113 .13899231 .64060977 .13899231 .6046295V.07795715C.13899231 .041992189 .13699341 .0309906 .05999756 .0309906H.035995485V0H.42799378C.5609894-.0002593994 .651001 .08874512 .651001 .18273926V.18289185M.5269928 .5136719C.5269928 .44970704 .47799684 .36573792 .36698915 .36573792H.22200012V.6116333C.22200012 .64460757 .22399903 .6516113 .2709961 .6516113H.394989C.49198915 .65174868 .5269928 .56674197 .5269928 .51374819V.5136719M.5509949 .18386841C.5509949 .1129303 .49899293 .0309906 .3959961 .0309906H.2709961C.22399903 .0309906 .22200012 .037994386 .22200012 .07095337V.34375H.4099884C.5089874 .34399415 .5509949 .25099183 .5509949 .18399048V.18386841Z"/>
<path id="font_9_111" d="M.7299957 .6516113V.6826172C.69898989 .680603 .6589966 .6796112 .6329956 .6796112L.5189972 .6826172V.6516113C.57099917 .6506195 .59199526 .6246033 .59199526 .6016083 .59199526 .5936127 .58898928 .5876007 .58699038 .581604L.4039917 .09954834 .21299744 .60461428C.20698548 .61860659 .20698548 .62260439 .20698548 .62260439 .20698548 .6516113 .2639923 .6516113 .2889862 .6516113V.6826172C.25299073 .6796112 .18399048 .6796112 .1459961 .6796112L.018997193 .6826172V.6516113C.083999637 .6516113 .102996829 .6516113 .116989139 .6136017L.34899903-.00047302247C.35598756-.019470215 .36099244-.022460938 .37399293-.022460938 .3909912-.022460938 .3929901-.017471314 .397995-.0034637452L.62098696 .58461C.6349945 .62161257 .6619873 .6506195 .7299957 .6516113Z"/>
<path id="font_9_50" d="M.4149933 .11933899C.4149933 .12934876 .40699769 .13134766 .4019928 .13134766 .3929901 .13134766 .3909912 .12535095 .3889923 .11734009 .35398866 .014251709 .2639923 .014251709 .2539978 .014251709 .20399475 .014251709 .1639862 .044281007 .14099121 .08131409 .11099243 .12934876 .11099243 .19540406 .11099243 .23144531H.3899994C.4119873 .23144531 .4149933 .23144531 .4149933 .2524414 .4149933 .35131837 .36099244 .4482422 .23599243 .4482422 .11999512 .4482422 .027999878 .34532167 .027999878 .22042847 .027999878 .08631897 .1329956-.0107421879 .24798584-.0107421879 .36999513-.0107421879 .4149933 .10032654 .4149933 .11933899M.34899903 .2524414H.11199951C.117996219 .40126039 .20199585 .426239 .23599243 .426239 .33898927 .426239 .34899903 .2913971 .34899903 .2524414Z"/>
<path id="font_9_58" d="M.7350006 .24145508V.27246095L.61299136 .26945497C.57299807 .26945497 .48799134 .26945497 .45199586 .27246095V.24145508H.48399354C.57398989 .24145508 .57699587 .23045349 .57699587 .19346619V.12948609C.57699587 .017532349 .44999696 .008529663 .42199708 .008529663 .35699464 .008529663 .15899658 .043518068 .15899658 .34155274 .15899658 .6410217 .35598756 .67407229 .41600038 .67407229 .522995 .67407229 .6139984 .5839386 .6339874 .43670655 .6359863 .42268373 .6359863 .41967774 .6499939 .41967774 .66600039 .41967774 .66600039 .42268373 .66600039 .44371034V.68107607C.66600039 .69807437 .66600039 .7050781 .6549988 .7050781 .651001 .7050781 .6469879 .7050781 .6389923 .69306948L.58898928 .61898806C.5569916 .6510315 .5029907 .7050781 .4039917 .7050781 .21798706 .7050781 .055999757 .546875 .055999757 .34155274 .055999757 .13648987 .21598816-.022460938 .4059906-.022460938 .47898866-.022460938 .5589905 .0035247803 .59298709 .06251526 .60598757 .040527345 .6459961 .0005340576 .6569977 .0005340576 .66600039 .0005340576 .66600039 .008529663 .66600039 .023529053V.19746399C.66600039 .2364502 .66999819 .24145508 .7350006 .24145508Z"/>
<path id="font_9_84" d="M.5209961 .21636963C.5209961 .34336854 .42399598 .4423828 .31199647 .4423828 .23399353 .4423828 .19198609 .39837647 .17199707 .3763733V.4423828L.027999878 .43066407V.3996582C.09899902 .3996582 .10598755 .3936615 .10598755 .34973146V-.117996219C.10598755-.16308594 .09498596-.16308594 .027999878-.16308594V-.1940918L.13999939-.19110108 .25299073-.1940918V-.16308594C.18598938-.16308594 .1749878-.16308594 .1749878-.117996219V.050186159 .059173585C.17999268 .04319763 .22200012-.0107421879 .2979889-.0107421879 .4169922-.0107421879 .5209961 .087127689 .5209961 .21594239V.21636963M.43798829 .21594239C.43798829 .09512329 .36799623 .011245728 .2939911 .011245728 .2539978 .011245728 .21598816 .031219483 .18899536 .07215881 .1749878 .09312439 .1749878 .09411621 .1749878 .114089969V.33674623C.20399475 .38838197 .25299073 .41737367 .3039856 .41737367 .3769989 .41737367 .43798829 .32937623 .43798829 .21636963V.21594239Z"/>
<path id="font_9_97" d="M.49899293 .18579102C.49899293 .2858429 .43299867 .36791993 .34899903 .38793946L.22099304 .4189453C.15899658 .43388368 .11999512 .48773194 .11999512 .5458069 .11999512 .61595156 .17399597 .677063 .2519989 .677063 .4189911 .677063 .44099427 .5127411 .44699098 .46777345 .44799806 .461792 .44799806 .45581056 .45899964 .45581056 .47200013 .45581056 .47200013 .46080018 .47200013 .47973634V.68107607C.47200013 .69807437 .47200013 .7050781 .46099855 .7050781 .45399476 .7050781 .45298768 .70407107 .44599916 .69207766L.41099549 .63497927C.3809967 .66404727 .33999635 .7050781 .25099183 .7050781 .13999939 .7050781 .055999757 .61694338 .055999757 .5107422 .055999757 .42790223 .10899353 .35490418 .18699646 .32788087 .19799805 .32388307 .24899292 .3118744 .31900025 .29486085 .34599305 .28785707 .37599183 .280838 .4039917 .24382019 .4249878 .2177887 .43499757 .18478394 .43499757 .1517334 .43499757 .0806427 .3849945 .008529663 .30099488 .008529663 .27198792 .008529663 .19599915 .013534546 .14299011 .06260681 .084991458 .11668396 .08198547 .18078614 .08099365 .21679688 .07998657 .22679138 .07199097 .22679138 .068984989 .22679138 .055999757 .22679138 .055999757 .2197876 .055999757 .20178223V.0015258789C.055999757-.015472412 .055999757-.022460938 .066986087-.022460938 .07398987-.022460938 .07499695-.020462037 .08198547-.009475708 .08198547-.009475708 .084991458-.0054626467 .117996219 .047592164 .14898682 .013534546 .21299744-.022460938 .3019867-.022460938 .4189911-.022460938 .49899293 .07562256 .49899293 .18579102Z"/>
<path id="font_9_75" d="M.8129883 0V.0309906C.7609863 .0309906 .73599246 .0309906 .7350006 .061019899V.25221253C.7350006 .3383026 .7350006 .36932374 .70399478 .405365 .6899872 .42237855 .6569977 .4423828 .598999 .4423828 .5149994 .4423828 .47099305 .38233949 .45399476 .34429933 .43998719 .43138124 .3659973 .4423828 .32099916 .4423828 .24798584 .4423828 .20098877 .39935304 .17298889 .33729554V.4423828L.03199768 .43066407V.3996582C.101989749 .3996582 .10998535 .39266969 .10998535 .34370423V.07595825C.10998535 .0309906 .09899902 .0309906 .03199768 .0309906V0L.14498902 .0029907227 .25698854 0V.0309906C.18998719 .0309906 .1789856 .0309906 .1789856 .07595825V.25978089C.1789856 .36431886 .25 .42037965 .31399537 .42037965 .3769989 .42037965 .3880005 .36631776 .3880005 .30926515V.076034549C.3880005 .0309906 .3769989 .0309906 .30999757 .0309906V0L.4229889 .0029907227 .5349884 0V.0309906C.46798707 .0309906 .45700074 .0309906 .45700074 .076034549V.2602234C.45700074 .36431886 .5279999 .42037965 .59199526 .42037965 .6549988 .42037965 .66600039 .36631776 .66600039 .30926515V.076034549C.66600039 .0309906 .6549988 .0309906 .58799746 .0309906V0L.70098879 .0029907227 .8129883 0Z"/>
<path id="font_9_85" d="M.33099366-.2400055C.33099366-.23701477 .33099366-.23500061 .31399537-.21800232 .18899536-.0920105 .15699768 .09700012 .15699768 .25 .15699768 .42399598 .19499207 .59799197 .31799317 .72299197 .33099366 .7350006 .33099366 .7369995 .33099366 .73999026 .33099366 .746994 .32699586 .75 .32099916 .75 .31098939 .75 .22099304 .6819916 .1619873 .5549927 .11099243 .44499208 .09899902 .33399964 .09899902 .25 .09899902 .17199707 .10998535 .050994874 .16499329-.06201172 .22499085-.18501282 .31098939-.25 .32099916-.25 .32699586-.25 .33099366-.24700928 .33099366-.2400055Z"/>
<path id="font_9_104" d="M.68499758 .45214845 .66600039 .6767578H.054992677L.035995485 .45214845H.06098938C.07499695 .6128235 .08999634 .64575198 .24099732 .64575198 .25898744 .64575198 .2849884 .64575198 .29499818 .64375308 .31599427 .6397705 .31599427 .6287842 .31599427 .60583499V.07901001C.31599427 .04499817 .31599427 .0309906 .21099854 .0309906H.17098999V0C.21199036 .0029907227 .31399537 .0029907227 .3600006 .0029907227 .4059906 .0029907227 .5089874 .0029907227 .5499878 0V.0309906H.5099945C.40499879 .0309906 .40499879 .04499817 .40499879 .07901001V.60583499C.40499879 .62579348 .40499879 .6397705 .4229889 .64375308 .43399049 .64575198 .46099855 .64575198 .47999574 .64575198 .6309967 .64575198 .6459961 .6128235 .6599884 .45214845H.68499758Z"/>
<path id="font_9_52" d="M.72099307 .34713746C.72099307 .36714173 .70199587 .36714173 .6879883 .36714173H.08898926C.07499695 .36714173 .055999757 .36714173 .055999757 .34713746 .055999757 .32714845 .07499695 .32714845 .08999634 .32714845H.68699648C.70199587 .32714845 .72099307 .32714845 .72099307 .34713746M.72099307 .15284729C.72099307 .17285156 .70199587 .17285156 .68699648 .17285156H.08999634C.07499695 .17285156 .055999757 .17285156 .055999757 .15284729 .055999757 .13284302 .07499695 .13284302 .08898926 .13284302H.6879883C.70199587 .13284302 .72099307 .13284302 .72099307 .15284729Z"/>
<path id="font_9_121" d="M.45999146 .31976319C.45999146 .39982606 .45498658 .47988893 .41999818 .5539398 .37399293 .65000918 .2919922 .6660156 .25 .6660156 .18998719 .6660156 .116989139 .64001467 .07598877 .54693606 .04399109 .47789 .038986207 .39982606 .038986207 .31976319 .038986207 .24472046 .042999269 .15464783 .083999637 .07859802 .1269989-.0024719239 .19999695-.022460938 .24899292-.022460938 .30299378-.022460938 .3789978-.0014648438 .4229889 .09359741 .45498658 .16265869 .45999146 .2407074 .45999146 .31976319M.3769989 .3317871C.3769989 .25672914 .3769989 .18867493 .3659973 .12461853 .35099793 .029556275 .2939911-.00047302247 .24899292-.00047302247 .20999146-.00047302247 .15098572 .024551392 .1329956 .12062073 .12199402 .18066406 .12199402 .2727356 .12199402 .3317871 .12199402 .39582826 .12199402 .46188355 .12998963 .5159149 .14898682 .63500979 .22399903 .64401248 .24899292 .64401248 .28199769 .64401248 .34799195 .6259918 .36698915 .52693179 .3769989 .47088624 .3769989 .39482118 .3769989 .3317871Z"/>
<path id="font_9_69" d="M.73599246 0V.0309906C.6819916 .0309906 .6609955 .034988405 .6309967 .07896423L.3999939 .41874696 .5799866 .5916443C.58799746 .5996399 .6409912 .65060427 .7220001 .6516113V.6826172C.69599917 .6796112 .6639862 .6796112 .6369934 .6796112 .6009979 .6796112 .5439911 .6796112 .5099945 .6826172V.6516113C.5499878 .65060427 .55599978 .6276245 .55599978 .6186218 .55599978 .6026306 .54599 .5926361 .5379944 .5856476L.22499085 .28683473V.6046295C.22499085 .64060977 .22698975 .6516113 .3039856 .6516113H.32798768V.6826172C.29299928 .6796112 .21899414 .6796112 .18099976 .6796112 .14299011 .6796112 .067993167 .6796112 .032989503 .6826172V.6516113H.056991579C.13398743 .6516113 .13598633 .64060977 .13598633 .6046295V.07795715C.13598633 .041992189 .13398743 .0309906 .056991579 .0309906H.032989503V0C.067993167 .0029907227 .14199829 .0029907227 .17999268 .0029907227 .21798706 .0029907227 .29299928 .0029907227 .32798768 0V.0309906H.3039856C.22698975 .0309906 .22499085 .041992189 .22499085 .07795715V.2528534L.34098817 .3627777 .5219879 .094955448C.5279999 .08595276 .5369873 .07296753 .5369873 .06097412 .5369873 .0309906 .49798585 .0309906 .47799684 .0309906V0C.5130005 .0029907227 .58299258 .0029907227 .62098696 .0029907227L.73599246 0Z"/>
<path id="font_9_86" d="M.2889862 .25C.2889862 .32798768 .27799989 .44898988 .22299195 .56199648 .16299439 .68499758 .07699585 .75 .066986087 .75 .06098938 .75 .056991579 .74598696 .056991579 .73999026 .056991579 .7369995 .056991579 .7350006 .07598877 .71699526 .17399597 .6179962 .23098755 .45899964 .23098755 .25 .23098755 .07899475 .19400025-.09700012 .069992069-.2230072 .056991579-.23500061 .056991579-.23701477 .056991579-.2400055 .056991579-.2460022 .06098938-.25 .066986087-.25 .07699585-.25 .16699219-.18200684 .22599793-.055007936 .2769928 .054992677 .2889862 .16600037 .2889862 .25Z"/>
<path id="font_9_61" d="M.69400027 .25C.69400027 .2619934 .6859894 .2669983 .6749878 .27198792L.12098694 .5329895C.10798645 .5399933 .10598755 .5399933 .102996829 .5399933 .09199524 .5399933 .08299255 .5309906 .08299255 .519989 .08299255 .5109863 .08799744 .5049896 .101989749 .49798585L.6269989 .25 .101989749 .0019989014C.08799744-.005004883 .08299255-.011001587 .08299255-.020004273 .08299255-.03100586 .09199524-.040008546 .102996829-.040008546 .10598755-.040008546 .10798645-.040008546 .12098694-.03300476L.6749878 .22799683C.6859894 .23298645 .69400027 .23799134 .69400027 .25Z"/>
</defs>
<path transform="matrix(1.00006,0,0,-1.00005,2.2949982,82.80554)" stroke-width=".79701" stroke-linecap="butt" stroke-miterlimit="10" stroke-linejoin="miter" fill="none" stroke="#ff0000" d="M0-7.08669V21.2601H56.69362V-7.08669ZM56.69362 21.2601"/>
<g clip-path="url(#clip_1)">
<rect transform="matrix(.7071,-.7071,-.7071,-.7071,-153,732)" fill="url(#pattern_2)" x="553.26779" y="293.55415" width="61.263856" height="61.263856"/>
</g>
<path transform="matrix(1.00006,0,0,-1.00005,2.2949982,82.80554)" stroke-width=".79701" stroke-linecap="butt" stroke-miterlimit="10" stroke-linejoin="miter" fill="none" stroke="#0000ff" d="M0 7.08669V-21.2601H56.69362V7.08669ZM56.69362-21.2601"/>
<path transform="matrix(1.00006,0,0,-1.00005,2.2949982,82.80554)" stroke-width=".79701" stroke-linecap="butt" stroke-miterlimit="10" stroke-linejoin="miter" fill="none" stroke="#ff0000" d="M70.867 3.54333V31.89014H127.56062V3.54333ZM127.56062 31.89014"/>
<g clip-path="url(#clip_3)">
<rect transform="matrix(.7071,-.7071,-.7071,-.7071,-153,732)" fill="url(#pattern_4)" x="595.86477" y="235.92308" width="61.263917" height="61.26387"/>
</g>
<path transform="matrix(1.00006,0,0,-1.00005,2.2949982,82.80554)" stroke-width=".79701" stroke-linecap="butt" stroke-miterlimit="10" stroke-linejoin="miter" fill="none" stroke="#0000ff" d="M70.867-3.54333V-31.89014H127.56062V-3.54333ZM127.56062-31.89014"/>
<path transform="matrix(1.00006,0,0,-1.00005,2.2949982,82.80554)" stroke-width=".79701" stroke-linecap="butt" stroke-miterlimit="10" stroke-linejoin="miter" fill="none" stroke="#ff0000" d="M141.73404 3.54333V31.89014H198.42766V3.54333ZM198.42766 31.89014"/>
<path transform="matrix(1.00006,0,0,-1.00005,2.2949982,82.80554)" stroke-width=".79701" stroke-linecap="butt" stroke-miterlimit="10" stroke-linejoin="miter" fill="none" stroke="#0000ff" d="M141.73404-3.54333V-31.89014H198.42766V-3.54333ZM198.42766-31.89014"/>
<g clip-path="url(#clip_5)">
<rect transform="matrix(.7071,-.7071,-.7071,-.7071,-153,732)" fill="url(#pattern_6)" x="646.5424" y="186.37265" width="55.125307" height="55.12529"/>
</g>
<g clip-path="url(#clip_7)">
<rect transform="matrix(.7071,-.7071,-.7071,-.7071,-153,732)" fill="url(#pattern_8)" x="671.5992" y="211.42938" width="45.1026" height="45.1026"/>
</g>
<path transform="matrix(1.00006,0,0,-1.00005,2.2949982,82.80554)" stroke-width=".79701" stroke-linecap="butt" stroke-miterlimit="10" stroke-linejoin="miter" fill="none" stroke="#000000" d="M212.60106 56.69362H269.29469"/>
<use data-text="I" xlink:href="#font_9_65" transform="matrix(9.963197,0,0,-9.963098,223.69928,22.280522)"/>
<use data-text="n" xlink:href="#font_9_77" transform="matrix(9.963197,0,0,-9.963098,227.29599,22.280522)"/>
<use data-text="s" xlink:href="#font_9_98" transform="matrix(9.963197,0,0,-9.963098,232.83554,22.280522)"/>
<use data-text="u" xlink:href="#font_9_109" transform="matrix(9.963197,0,0,-9.963098,236.76103,22.280522)"/>
<use data-text="l" xlink:href="#font_9_72" transform="matrix(9.963197,0,0,-9.963098,242.30057,22.280522)"/>
<use data-text="a" xlink:href="#font_9_28" transform="matrix(9.963197,0,0,-9.963098,245.07035,22.280522)"/>
<use data-text="t" xlink:href="#font_9_105" transform="matrix(9.963197,0,0,-9.963098,250.05194,22.280522)"/>
<use data-text="o" xlink:href="#font_9_81" transform="matrix(9.963197,0,0,-9.963098,253.92761,22.280522)"/>
<use data-text="r" xlink:href="#font_9_96" transform="matrix(9.963197,0,0,-9.963098,258.9092,22.280522)"/>
<path transform="matrix(1.00006,0,0,-1.00005,2.2949982,82.80554)" stroke-width=".79701" stroke-linecap="butt" stroke-miterlimit="10" stroke-linejoin="miter" fill="none" stroke="#ff0000" d="M212.60106 14.17339V42.5202H269.29469V14.17339ZM269.29469 42.5202"/>
<g clip-path="url(#clip_10)">
<rect transform="matrix(.7071,-.7071,-.7071,-.7071,-153,732)" fill="url(#pattern_11)" x="688.5758" y="128.17795" width="61.263917" height="61.263887"/>
</g>
<path transform="matrix(1.00006,0,0,-1.00005,2.2949982,82.80554)" stroke-width=".79701" stroke-linecap="butt" stroke-miterlimit="10" stroke-linejoin="miter" fill="none" stroke="#0000ff" d="M212.60106-14.17339V-42.5202H269.29469V-14.17339ZM269.29469-42.5202"/>
<path transform="matrix(1.00006,0,0,-1.00005,2.2949982,82.80554)" stroke-width=".79701" stroke-linecap="butt" stroke-miterlimit="10" stroke-linejoin="miter" fill="none" stroke="#ff0000" d="M325.9883 28.3468H270.09169"/>
<path transform="matrix(-1.00006,-0,0,1.00005,272.00434,54.45733)" stroke-width=".79701" stroke-linecap="round" stroke-linejoin="round" fill="none" stroke="#ff0000" d="M-2.55046 3.11095C-2.0845 1.24435-1.04614 .36295 0 0-1.04614-.36295-2.0845-1.24435-2.55046-3.11095"/>
<use data-text="C" xlink:href="#font_9_42" transform="matrix(9.963197,0,0,-9.963098,274.7623,38.67334)" fill="#ff0000"/>
<use data-text="o" xlink:href="#font_9_81" transform="matrix(9.963197,0,0,-9.963098,281.95576,38.67334)" fill="#ff0000"/>
<use data-text="n" xlink:href="#font_9_77" transform="matrix(9.963197,0,0,-9.963098,286.93733,38.67334)" fill="#ff0000"/>
<use data-text="d" xlink:href="#font_9_47" transform="matrix(9.963197,0,0,-9.963098,292.47688,38.67334)" fill="#ff0000"/>
<use data-text="u" xlink:href="#font_9_109" transform="matrix(9.963197,0,0,-9.963098,298.01643,38.67334)" fill="#ff0000"/>
<use data-text="c" xlink:href="#font_9_43" transform="matrix(9.963197,0,0,-9.963098,303.55598,38.67334)" fill="#ff0000"/>
<use data-text="t" xlink:href="#font_9_105" transform="matrix(9.963197,0,0,-9.963098,307.9796,38.67334)" fill="#ff0000"/>
<use data-text="i" xlink:href="#font_9_66" transform="matrix(9.963197,0,0,-9.963098,311.8553,38.67334)" fill="#ff0000"/>
<use data-text="n" xlink:href="#font_9_77" transform="matrix(9.963197,0,0,-9.963098,314.62507,38.67334)" fill="#ff0000"/>
<use data-text="g" xlink:href="#font_9_59" transform="matrix(9.963197,0,0,-9.963098,320.1646,38.67334)" fill="#ff0000"/>
<use data-text="B" xlink:href="#font_9_34" transform="matrix(9.963197,0,0,-9.963098,288.39714,50.628938)" fill="#ff0000"/>
<use data-text="a" xlink:href="#font_9_28" transform="matrix(9.963197,0,0,-9.963098,295.45106,50.628938)" fill="#ff0000"/>
<use data-text="n" xlink:href="#font_9_77" transform="matrix(9.963197,0,0,-9.963098,300.43269,50.628938)" fill="#ff0000"/>
<use data-text="d" xlink:href="#font_9_47" transform="matrix(9.963197,0,0,-9.963098,305.9722,50.628938)" fill="#ff0000"/>
<path transform="matrix(1.00006,0,0,-1.00005,2.2949982,82.80554)" stroke-width=".79701" stroke-linecap="butt" stroke-miterlimit="10" stroke-linejoin="miter" fill="none" stroke="#0000ff" d="M325.9883-28.3468H270.09169"/>
<path transform="matrix(-1.00006,-0,0,1.00005,272.00434,111.153759)" stroke-width=".79701" stroke-linecap="round" stroke-linejoin="round" fill="none" stroke="#0000ff" d="M-2.55046 3.11095C-2.0845 1.24435-1.04614 .36295 0 0-1.04614-.36295-2.0845-1.24435-2.55046-3.11095"/>
<use data-text="V" xlink:href="#font_9_111" transform="matrix(9.963197,0,0,-9.963098,283.35084,95.36917)" fill="#0000ff"/>
<use data-text="a" xlink:href="#font_9_28" transform="matrix(9.963197,0,0,-9.963098,290.00627,95.36917)" fill="#0000ff"/>
<use data-text="l" xlink:href="#font_9_72" transform="matrix(9.963197,0,0,-9.963098,294.98786,95.36917)" fill="#0000ff"/>
<use data-text="e" xlink:href="#font_9_50" transform="matrix(9.963197,0,0,-9.963098,297.75764,95.36917)" fill="#0000ff"/>
<use data-text="n" xlink:href="#font_9_77" transform="matrix(9.963197,0,0,-9.963098,302.18128,95.36917)" fill="#0000ff"/>
<use data-text="c" xlink:href="#font_9_43" transform="matrix(9.963197,0,0,-9.963098,307.72084,95.36917)" fill="#0000ff"/>
<use data-text="e" xlink:href="#font_9_50" transform="matrix(9.963197,0,0,-9.963098,312.14448,95.36917)" fill="#0000ff"/>
<use data-text="B" xlink:href="#font_9_34" transform="matrix(9.963197,0,0,-9.963098,288.39714,107.32477)" fill="#0000ff"/>
<use data-text="a" xlink:href="#font_9_28" transform="matrix(9.963197,0,0,-9.963098,295.45109,107.32477)" fill="#0000ff"/>
<use data-text="n" xlink:href="#font_9_77" transform="matrix(9.963197,0,0,-9.963098,300.43269,107.32477)" fill="#0000ff"/>
<use data-text="d" xlink:href="#font_9_47" transform="matrix(9.963197,0,0,-9.963098,305.97224,107.32477)" fill="#0000ff"/>
<path transform="matrix(1.00006,0,0,-1.00005,2.2949982,82.80554)" stroke-width=".3985" stroke-linecap="butt" stroke-miterlimit="10" stroke-linejoin="miter" fill="none" stroke="#000000" d="M240.94788 0"/>
<use data-text="B" xlink:href="#font_9_34" transform="matrix(9.963197,0,0,-9.963098,220.87009,85.35067)"/>
<use data-text="a" xlink:href="#font_9_28" transform="matrix(9.963197,0,0,-9.963098,227.92404,85.35067)"/>
<use data-text="n" xlink:href="#font_9_77" transform="matrix(9.963197,0,0,-9.963098,232.90564,85.35067)"/>
<use data-text="d" xlink:href="#font_9_47" transform="matrix(9.963197,0,0,-9.963098,238.44518,85.35067)"/>
<use data-text="G" xlink:href="#font_9_58" transform="matrix(9.963197,0,0,-9.963098,247.30246,85.35067)"/>
<use data-text="a" xlink:href="#font_9_28" transform="matrix(9.963197,0,0,-9.963098,255.12357,85.35067)"/>
<use data-text="p" xlink:href="#font_9_84" transform="matrix(9.963197,0,0,-9.963098,260.10517,85.35067)"/>
<path transform="matrix(1.00006,0,0,-1.00005,2.2949982,82.80554)" stroke-width=".79701" stroke-linecap="butt" stroke-miterlimit="10" stroke-linejoin="miter" fill="none" stroke="#000000" d="M0 56.69362H56.69362"/>
<use data-text="C" xlink:href="#font_9_42" transform="matrix(9.963197,0,0,-9.963098,7.6533205,22.170514)"/>
<use data-text="o" xlink:href="#font_9_81" transform="matrix(9.963197,0,0,-9.963098,14.846748,22.170514)"/>
<use data-text="n" xlink:href="#font_9_77" transform="matrix(9.963197,0,0,-9.963098,19.828347,22.170514)"/>
<use data-text="d" xlink:href="#font_9_47" transform="matrix(9.963197,0,0,-9.963098,25.36789,22.170514)"/>
<use data-text="u" xlink:href="#font_9_109" transform="matrix(9.963197,0,0,-9.963098,30.907425,22.170514)"/>
<use data-text="c" xlink:href="#font_9_43" transform="matrix(9.963197,0,0,-9.963098,36.446969,22.170514)"/>
<use data-text="t" xlink:href="#font_9_105" transform="matrix(9.963197,0,0,-9.963098,40.87063,22.170514)"/>
<use data-text="o" xlink:href="#font_9_81" transform="matrix(9.963197,0,0,-9.963098,44.746309,22.170514)"/>
<use data-text="r" xlink:href="#font_9_96" transform="matrix(9.963197,0,0,-9.963098,49.727907,22.170514)"/>
<path transform="matrix(1.00006,0,0,-1.00005,2.2949982,82.80554)" stroke-width=".79701" stroke-linecap="butt" stroke-miterlimit="10" stroke-linejoin="miter" fill="none" stroke="#000000" d="M70.867 56.69362H127.56062"/>
<use data-text="S" xlink:href="#font_9_97" transform="matrix(9.963197,0,0,-9.963098,69.39302,7.943802)"/>
<use data-text="e" xlink:href="#font_9_50" transform="matrix(9.963197,0,0,-9.963098,74.932559,7.943802)"/>
<use data-text="m" xlink:href="#font_9_75" transform="matrix(9.963197,0,0,-9.963098,79.35622,7.943802)"/>
<use data-text="i" xlink:href="#font_9_66" transform="matrix(9.963197,0,0,-9.963098,87.655559,7.943802)"/>
<use data-text="c" xlink:href="#font_9_43" transform="matrix(9.963197,0,0,-9.963098,90.42532,7.943802)"/>
<use data-text="o" xlink:href="#font_9_81" transform="matrix(9.963197,0,0,-9.963098,94.84898,7.943802)"/>
<use data-text="n" xlink:href="#font_9_77" transform="matrix(9.963197,0,0,-9.963098,99.83058,7.943802)"/>
<use data-text="d" xlink:href="#font_9_47" transform="matrix(9.963197,0,0,-9.963098,105.37012,7.943802)"/>
<use data-text="u" xlink:href="#font_9_109" transform="matrix(9.963197,0,0,-9.963098,110.90966,7.943802)"/>
<use data-text="c" xlink:href="#font_9_43" transform="matrix(9.963197,0,0,-9.963098,116.449199,7.943802)"/>
<use data-text="t" xlink:href="#font_9_105" transform="matrix(9.963197,0,0,-9.963098,120.87287,7.943802)"/>
<use data-text="o" xlink:href="#font_9_81" transform="matrix(9.963197,0,0,-9.963098,124.74856,7.943802)"/>
<use data-text="r" xlink:href="#font_9_96" transform="matrix(9.963197,0,0,-9.963098,129.73014,7.943802)"/>
<use data-text="(" xlink:href="#font_9_85" transform="matrix(9.963197,0,0,-9.963098,82.140789,19.899399)"/>
<use data-text="T" xlink:href="#font_9_104" transform="matrix(9.963197,0,0,-9.963098,86.016468,19.899399)"/>
<use data-text="=" xlink:href="#font_9_52" transform="matrix(9.963197,0,0,-9.963098,93.2099,19.899399)"/>
<use data-text="0" xlink:href="#font_9_121" transform="matrix(9.963197,0,0,-9.963098,100.961269,19.899399)"/>
<use data-text="K" xlink:href="#font_9_69" transform="matrix(9.963197,0,0,-9.963098,109.260608,19.899399)"/>
<use data-text=")" xlink:href="#font_9_86" transform="matrix(9.963197,0,0,-9.963098,117.01197,19.899399)"/>
<path transform="matrix(1.00006,0,0,-1.00005,2.2949982,82.80554)" stroke-width=".79701" stroke-linecap="butt" stroke-miterlimit="10" stroke-linejoin="miter" fill="none" stroke="#000000" d="M141.73404 56.69362H198.42766"/>
<use data-text="S" xlink:href="#font_9_97" transform="matrix(9.963197,0,0,-9.963098,140.26427,7.943802)"/>
<use data-text="e" xlink:href="#font_9_50" transform="matrix(9.963197,0,0,-9.963098,145.8038,7.943802)"/>
<use data-text="m" xlink:href="#font_9_75" transform="matrix(9.963197,0,0,-9.963098,150.22747,7.943802)"/>
<use data-text="i" xlink:href="#font_9_66" transform="matrix(9.963197,0,0,-9.963098,158.5268,7.943802)"/>
<use data-text="c" xlink:href="#font_9_43" transform="matrix(9.963197,0,0,-9.963098,161.29657,7.943802)"/>
<use data-text="o" xlink:href="#font_9_81" transform="matrix(9.963197,0,0,-9.963098,165.72023,7.943802)"/>
<use data-text="n" xlink:href="#font_9_77" transform="matrix(9.963197,0,0,-9.963098,170.70183,7.943802)"/>
<use data-text="d" xlink:href="#font_9_47" transform="matrix(9.963197,0,0,-9.963098,176.24137,7.943802)"/>
<use data-text="u" xlink:href="#font_9_109" transform="matrix(9.963197,0,0,-9.963098,181.78092,7.943802)"/>
<use data-text="c" xlink:href="#font_9_43" transform="matrix(9.963197,0,0,-9.963098,187.32044,7.943802)"/>
<use data-text="t" xlink:href="#font_9_105" transform="matrix(9.963197,0,0,-9.963098,191.74411,7.943802)"/>
<use data-text="o" xlink:href="#font_9_81" transform="matrix(9.963197,0,0,-9.963098,195.61981,7.943802)"/>
<use data-text="r" xlink:href="#font_9_96" transform="matrix(9.963197,0,0,-9.963098,200.60138,7.943802)"/>
<use data-text="(" xlink:href="#font_9_85" transform="matrix(9.963197,0,0,-9.963098,153.01203,19.899399)"/>
<use data-text="T" xlink:href="#font_9_104" transform="matrix(9.963197,0,0,-9.963098,156.88771,19.899399)"/>
<use data-text="&#x003e;" xlink:href="#font_9_61" transform="matrix(9.963197,0,0,-9.963098,164.08115,19.899399)"/>
<use data-text="0" xlink:href="#font_9_121" transform="matrix(9.963197,0,0,-9.963098,171.83252,19.899399)"/>
<use data-text="K" xlink:href="#font_9_69" transform="matrix(9.963197,0,0,-9.963098,180.13185,19.899399)"/>
<use data-text=")" xlink:href="#font_9_86" transform="matrix(9.963197,0,0,-9.963098,187.88321,19.899399)"/>
</svg>
