<svg xmlns="http://www.w3.org/2000/svg" xmlns:xlink="http://www.w3.org/1999/xlink" xmlns:inkscape="http://www.inkscape.org/namespaces/inkscape" version="1.1" width="123" height="118" viewBox="0 0 123 118">
<defs>
<path id="font_1_2" d="M.6279907 .5686035C.6769867 .64660647 .71899417 .6496124 .7559967 .6516113 .7679901 .65260317 .7689972 .6696167 .7689972 .6706085 .7689972 .6786041 .7639923 .6826172 .7559967 .6826172 .7299957 .6826172 .70098879 .6796112 .673996 .6796112 .6409912 .6796112 .6069946 .6826172 .57499697 .6826172 .56900027 .6826172 .55599978 .6826172 .55599978 .66360476 .55599978 .65260317 .5649872 .6516113 .57199099 .6516113 .598999 .6496124 .6179962 .63960269 .6179962 .61860659 .6179962 .6036072 .6029968 .581604 .6029968 .5805969L.29599 .092544559 .22799683 .62161257C.22799683 .63861086 .25099183 .6516113 .29699708 .6516113 .31098939 .6516113 .32199098 .6516113 .32199098 .6716156 .32199098 .680603 .31399537 .6826172 .30799867 .6826172 .2679901 .6826172 .22499085 .6796112 .18399048 .6796112 .1659851 .6796112 .14698792 .680603 .1289978 .680603 .11099243 .680603 .09199524 .6826172 .07499695 .6826172 .067993167 .6826172 .055999757 .6826172 .055999757 .66360476 .055999757 .6516113 .06498718 .6516113 .08099365 .6516113 .13699341 .6516113 .13798523 .64260867 .14099121 .6175995L.21998596 .0005340576C.22299195-.019470215 .22698975-.022460938 .23999024-.022460938 .2559967-.022460938 .2599945-.017471314 .2679901-.004470825L.6279907 .5686035Z"/>
<path id="font_2_66" d="M.27398683 0V.035995485C.21598816 .035995485 .20599365 .035995485 .20599365 .07803345V.44140626L.05899048 .43052674V.39453126C.12199402 .39453126 .1309967 .3885193 .1309967 .33952333V.07952881C.1309967 .035995485 .12098694 .035995485 .055999757 .035995485V0C.055999757 0 .12799073 .0039978029 .16799927 .0039978029 .20298767 .0039978029 .23899842 .0029907227 .27398683 0M.21899414 .60214236C.21899414 .6341553 .19400025 .66015627 .1619873 .66015627 .12799073 .66015627 .10499573 .6321411 .10499573 .6031494 .10499573 .57115176 .12998963 .54515078 .1619873 .54515078 .19599915 .54515078 .21899414 .57315066 .21899414 .60214236Z"/>
<path id="font_2_77" d="M.58999636 0V.035995485C.5249939 .035995485 .5149994 .035995485 .5149994 .07904053V.3032837C.5149994 .3903656 .47200013 .44140626 .36499024 .44140626 .2829895 .44140626 .22999573 .39637757 .20199585 .34432984H.20098877V.44140626L.053985597 .43052674V.39453126C.12098694 .39453126 .1289978 .3875122 .1289978 .33843995V.079055789C.1289978 .035995485 .11898804 .035995485 .053985597 .035995485V0C.053985597 0 .12599182 .0039978029 .16799927 .0039978029 .20498657 .0039978029 .27398683 .0009918213 .2829895 0V.035995485C.21798706 .035995485 .20799256 .035995485 .20799256 .079055789V.25932313C.20799256 .36434938 .29100038 .4133911 .35699464 .4133911 .4269867 .4133911 .43598939 .3583374 .43598939 .3072815V.07904053C.43598939 .035995485 .42599488 .035995485 .36099244 .035995485V0C.36099244 0 .43299867 .0039978029 .47499085 .0039978029 .5119934 .0039978029 .58099368 .0009918213 .58999636 0Z"/>
<path id="font_1_1" d="M.375 .6136017C.3809967 .63760378 .38398744 .6476135 .40299989 .65060427 .4119873 .6516113 .44400025 .6516113 .46398927 .6516113 .5349884 .6516113 .6459961 .6516113 .6459961 .5525818 .6459961 .51856997 .6299896 .44955445 .59098818 .41055299 .5649872 .38453675 .5119934 .35253907 .42199708 .35253907H.30999757L.375 .6136017M.5189972 .33953858C.6199951 .3615265 .7389984 .43154908 .7389984 .5325775 .7389984 .61860659 .6489868 .6826172 .5179901 .6826172H.23298645C.21299744 .6826172 .20399475 .6826172 .20399475 .6626129 .20399475 .6516113 .21299744 .6516113 .23199463 .6516113 .23399353 .6516113 .25299073 .6516113 .269989 .6496124 .28799439 .6476135 .29699708 .64660647 .29699708 .63360598 .29699708 .62960818 .29599 .6266022 .29299928 .6145935L.15899658 .07752991C.14898682 .038528444 .14698792 .030532837 .067993167 .030532837 .049987794 .030532837 .040985109 .030532837 .040985109 .010528564 .040985109-.00047302247 .052993776-.00047302247 .054992677-.00047302247 .08299255-.00047302247 .15299988 .002532959 .18099976 .002532959 .20899964 .002532959 .27999879-.00047302247 .30799867-.00047302247 .31599427-.00047302247 .32798768-.00047302247 .32798768 .01953125 .32798768 .030532837 .31900025 .030532837 .2999878 .030532837 .2630005 .030532837 .23498535 .030532837 .23498535 .048538209 .23498535 .054534913 .23699951 .059524537 .23799134 .0655365L.3039856 .3305359H.4229889C.5139923 .3305359 .5319977 .27453614 .5319977 .23953247 .5319977 .22453308 .5239868 .19352722 .5179901 .17053223 .5109863 .14253235 .5019989 .105529788 .5019989 .08552551 .5019989-.022460938 .621994-.022460938 .6349945-.022460938 .7200012-.022460938 .7549896 .07853699 .7549896 .0925293 .7549896 .104537967 .74398806 .104537967 .7429962 .104537967 .73399356 .104537967 .7319946 .09753418 .7299957 .090530399 .7049866 .016525269 .6619873-.00047302247 .6389923-.00047302247 .60598757-.00047302247 .598999 .021530152 .598999 .060531618 .598999 .091537479 .6049957 .14253235 .60899356 .17453003 .61099246 .1885376 .61299136 .20753479 .61299136 .2215271 .61299136 .2985382 .54599 .3295288 .5189972 .33953858Z"/>
<path id="font_2_125" d="M.5970001 0V.035995485C.5319977 .035995485 .5219879 .035995485 .5219879 .078948978V.44265748L.3899994 .4336548C.3789978 .43266297 .37399293 .43266297 .37199403 .43165589 .36999513 .43066407 .36799623 .43066407 .35398866 .43066407H.19499207V.5397186C.19499207 .6387634 .2979889 .67578127 .36698915 .67578127 .40098573 .67578127 .43499757 .66877749 .46099855 .6477661 .4249878 .6397705 .42199708 .6117554 .42199708 .5997467 .42199708 .56877139 .44699098 .55078127 .47099305 .55078127 .4889984 .55078127 .519989 .56277468 .519989 .6017761 .519989 .6567688 .46398927 .7037811 .37098695 .7037811 .2669983 .7037811 .12399292 .6567688 .12399292 .5407562V.43066407H.037994386V.39465333H.12399292V.078948978C.12399292 .035995485 .11399841 .035995485 .04899597 .035995485V0C.04899597 0 .12098694 .0039978029 .16099549 .0039978029 .19898987 .0039978029 .23599243 .0029907227 .27398683 0V.035995485C.20899964 .035995485 .19898987 .035995485 .19898987 .078948978V.39465333H.397995C.43899537 .39465333 .44699098 .3846588 .44699098 .3407135V.078948978C.44699098 .035995485 .43699647 .035995485 .37199403 .035995485V0C.37199403 0 .44400025 .0039978029 .48399354 .0039978029 .5219879 .0039978029 .5589905 .0029907227 .5970001 0Z"/>
<path id="font_2_116" d="M.57398989 0V.035995485C.5069885 .035995485 .49899293 .04197693 .47599793 .06793213L.33898927 .22369385 .33099366 .23371887C.33099366 .23672486 .39698792 .3078308 .4059906 .31684876 .44099427 .35588075 .47599793 .3936615 .5549927 .39465333V.43066407C.5269928 .4286499 .49798585 .426651 .47099305 .426651 .44099427 .426651 .4019928 .42765809 .37199403 .43066407V.39465333C.3889923 .39169313 .3919983 .3808136 .3919983 .3718872 .3919983 .3718872 .3919983 .35488893 .3769989 .33789063L.30699159 .25875855 .22399903 .35388185C.21398926 .36488343 .21299744 .3698883 .21299744 .3738861 .21299744 .38871766 .22698975 .39465333 .23999024 .39465333V.43066407C.20298767 .42765809 .16499329 .426651 .12799073 .426651 .09799194 .426651 .05999756 .42765809 .0309906 .43066407V.39465333C.07699585 .39465333 .102996829 .39465333 .1289978 .36488343L.2539978 .22070313 .2619934 .21069336C.2619934 .20770264 .18699646 .12580872 .1769867 .11483765 .13999939 .074920658 .10598755 .037994386 .025985718 .035995485V0C.055999757 .0019989014 .07798767 .0039978029 .10899353 .0039978029 .13899231 .0039978029 .1789856 .0029907227 .20899964 0V.035995485C.19699097 .037994386 .18899536 .04496765 .18899536 .058944704 .18899536 .07791138 .19999695 .09088135 .21598816 .10784912L.28599549 .18469239 .37298585 .08589172C.3919983 .064941409 .3919983 .062942508 .3919983 .0569458 .3919983 .036987306 .36898805 .035995485 .36499024 .035995485V0C.37399293 .0009918213 .44599916 .0039978029 .47799684 .0039978029 .5099945 .0039978029 .5419922 .0029907227 .57398989 0Z"/>
<path id="font_2_50" d="M.46798707 .12036133C.46798707 .12435913 .46598817 .13438416 .45098878 .13438416 .43798829 .13438416 .43598939 .12837219 .43299867 .11836243 .4019928 .037246705 .32598878 .022232056 .2899933 .022232056 .24299622 .022232056 .19799805 .043258668 .16799927 .08131409 .1309967 .12837219 .12998963 .18945313 .12998963 .22851563H.43998719C.46099855 .22851563 .46798707 .22851563 .46798707 .25050355 .46798707 .33839417 .4189911 .44628907 .269989 .44628907 .13899231 .44628907 .038986207 .34239198 .038986207 .21949768 .038986207 .092315677 .1499939-.009765625 .2829895-.009765625 .41799928-.009765625 .46798707 .09832764 .46798707 .12036133M.397995 .25450135H.1309967C.14199829 .39530946 .23199463 .41827394 .269989 .41827394 .3929901 .41827394 .39698792 .27947999 .397995 .25450135Z"/>
<path id="font_2_47" d="M.58099368 0V.035995485C.5139923 .035995485 .5059967 .042999269 .5059967 .09202576V.69433596L.35598756 .6826172V.64660647C.4229889 .64660647 .43099977 .6396332 .43099977 .5908203V.3843689C.3939972 .4203949 .34599305 .44140626 .29100038 .44140626 .1579895 .44140626 .04598999 .34132386 .04598999 .21520996 .04598999 .09008789 .1519928-.009765625 .2789917-.009765625 .36099244-.009765625 .4099884 .03414917 .4269867 .05206299V-.009765625L.58099368 0M.4269867 .10499573C.40098573 .05807495 .34999085 .018234253 .2849884 .018234253 .22898865 .018234253 .18899536 .051071168 .16899109 .080078128 .14898682 .11010742 .13699341 .15014649 .13699341 .21421814 .13699341 .23724365 .13699341 .3123169 .17799378 .35932923 .21798706 .40438844 .2669983 .4133911 .29599 .4133911 .34399415 .4133911 .3869934 .39137269 .4149933 .35533143 .4269867 .33932496 .4269867 .33833314 .4269867 .31933595V.10499573Z"/>
<path id="font_2_81" d="M.5289917 .21325684C.5289917 .3382721 .42199708 .44628907 .28399659 .44628907 .1459961 .44628907 .038986207 .3382721 .038986207 .21325684 .038986207 .0892334 .14898682-.009765625 .28399659-.009765625 .4189911-.009765625 .5289917 .0892334 .5289917 .21325684M.43798829 .22225952C.43798829 .17424011 .43499757 .12124634 .4059906 .08023071 .3789978 .042236329 .33299256 .022232056 .28399659 .022232056 .24699402 .022232056 .19299317 .034225465 .1599884 .083236698 .1329956 .12423706 .12998963 .17625427 .12998963 .22225952 .12998963 .2652588 .1309967 .32426454 .1659851 .36727906 .19099427 .39627076 .23298645 .41827394 .28399659 .41827394 .34298707 .41827394 .3849945 .39027406 .40699769 .3592682 .43499757 .32026673 .43798829 .27026368 .43798829 .22225952Z"/>
<path id="font_2_109" d="M.58999636 0V.035995485C.522995 .035995485 .5149994 .042999269 .5149994 .092056278V.44140626L.36099244 .43052674V.39453126C.42799378 .39439393 .43598939 .3874359 .43598939 .33872987V.16749573C.43598939 .079330448 .3789978 .018234253 .30299378 .018234253 .21199036 .018234253 .20799256 .061309816 .20799256 .11239624V.44140626L.053985597 .43052674V.39453126C.1289978 .39453126 .1289978 .39154054 .1289978 .30273438V.15246582C.1289978 .083343509 .1289978-.009765625 .29599-.009765625 .31799317-.009765625 .3909912-.009765625 .43899537 .07432556H.43998719V-.009765625L.58999636 0Z"/>
<path id="font_2_105" d="M.375 .12606812V.1809845H.34098817V.12705994C.34098817 .059173585 .30899049 .022232056 .269989 .022232056 .20098877 .022232056 .20098877 .10609436 .20098877 .124069217V.39465333H.35699464V.43066407H.20098877V.6142578H.16699219C.1659851 .5244446 .125 .42565919 .0289917 .4226532V.39465333H.12199402V.1250763C.12199402 .01322937 .20599365-.009765625 .2619934-.009765625 .32899476-.010009766 .375 .04699707 .375 .12599182V.12606812Z"/>
</defs>
<path transform="matrix(1.00006,0,0,-1.00006,28.177735,1.7991495)" stroke-width=".3985" stroke-linecap="butt" stroke-miterlimit="10" stroke-linejoin="miter" fill="none" stroke="#000000" d="M0 0"/>
<path transform="matrix(1.00006,0,0,-1.00006,28.177735,1.7991495)" stroke-width=".3985" stroke-linecap="butt" stroke-miterlimit="10" stroke-linejoin="miter" fill="none" stroke="#000000" d="M0 0V-50.74075M0-62.64647V-113.38724"/>
<path transform="matrix(1.00006,0,0,-1.00006,28.177735,1.7991495)" stroke-width=".797" stroke-linecap="butt" stroke-miterlimit="10" stroke-linejoin="miter" fill="none" stroke="#000000" d="M11.90572-50.74075H-11.90572M5.95285-54.70934H-5.95285M11.90572-58.6779H-11.90572M5.95285-62.64647H-5.95285"/>
<use data-text="V" xlink:href="#font_1_2" transform="matrix(9.963197,0,0,-9.963197,.50707247,60.64368)"/>
<use data-text="i" xlink:href="#font_2_66" transform="matrix(6.9742186,0,0,-6.9742186,6.318413,62.13877)"/>
<use data-text="n" xlink:href="#font_2_77" transform="matrix(6.9742186,0,0,-6.9742186,8.571091,62.13877)"/>
<path transform="matrix(1.00006,0,0,-1.00006,28.177735,1.7991495)" stroke-width=".3985" stroke-linecap="butt" stroke-miterlimit="10" stroke-linejoin="miter" fill="none" stroke="#000000" d="M0 0H28.3468M28.3468 0H56.69362V-12.47261M56.69362-44.221V-56.69362-69.16623M56.69362-100.91461V-113.38724H28.3468M28.3468-113.38724H0"/>
<path transform="matrix(1.00006,0,0,-1.00006,28.177735,1.7991495)" stroke-width=".797" stroke-linecap="butt" stroke-linejoin="bevel" fill="none" stroke="#000000" d="M56.69362-12.0741 62.64647-15.1183 50.74075-20.40968 62.64647-25.70107 50.74075-30.99245 62.64647-36.28383 50.74075-41.57521 56.69362-44.61942"/>
<path transform="matrix(1.00006,0,0,-1.00006,28.177735,1.7991495)" d="M58.28076-56.69362C58.28076-55.81705 57.57018-55.10646 56.69362-55.10646 55.81705-55.10646 55.10646-55.81705 55.10646-56.69362 55.10646-57.57018 55.81705-58.28076 56.69362-58.28076 57.57018-58.28076 58.28076-57.57018 58.28076-56.69362ZM56.69362-56.69362"/>
<path transform="matrix(1.00006,0,0,-1.00006,28.177735,1.7991495)" stroke-width=".3985" stroke-linecap="butt" stroke-miterlimit="10" stroke-linejoin="miter" fill="none" stroke="#000000" d="M58.28076-56.69362C58.28076-55.81705 57.57018-55.10646 56.69362-55.10646 55.81705-55.10646 55.10646-55.81705 55.10646-56.69362 55.10646-57.57018 55.81705-58.28076 56.69362-58.28076 57.57018-58.28076 58.28076-57.57018 58.28076-56.69362ZM56.69362-56.69362"/>
<use data-text="R" xlink:href="#font_1_1" transform="matrix(9.963197,0,0,-9.963197,52.01216,32.29498)"/>
<use data-text="f" xlink:href="#font_2_125" transform="matrix(6.9742186,0,0,-6.9742186,59.576616,33.79007)"/>
<use data-text="x" xlink:href="#font_2_116" transform="matrix(6.9742186,0,0,-6.9742186,64.088939,33.79007)"/>
<use data-text="e" xlink:href="#font_2_50" transform="matrix(6.9742186,0,0,-6.9742186,68.273479,33.79007)"/>
<use data-text="d" xlink:href="#font_2_47" transform="matrix(6.9742186,0,0,-6.9742186,71.81638,33.79007)"/>
<path transform="matrix(1.00006,0,0,-1.00006,28.177735,1.7991495)" stroke-width=".797" stroke-linecap="butt" stroke-linejoin="bevel" fill="none" stroke="#000000" d="M56.69362-68.76772 62.64647-71.81192 50.74075-77.1033 62.64647-82.39468 50.74075-87.68607 62.64647-92.97745 50.74075-98.26883 56.69362-101.31303"/>
<path transform="matrix(1.00006,0,0,-1.00006,28.177735,1.7991495)" d="M58.28076-113.38724C58.28076-112.51067 57.57018-111.80008 56.69362-111.80008 55.81705-111.80008 55.10646-112.51067 55.10646-113.38724 55.10646-114.2638 55.81705-114.97438 56.69362-114.97438 57.57018-114.97438 58.28076-114.2638 58.28076-113.38724ZM56.69362-113.38724"/>
<path transform="matrix(1.00006,0,0,-1.00006,28.177735,1.7991495)" stroke-width=".3985" stroke-linecap="butt" stroke-miterlimit="10" stroke-linejoin="miter" fill="none" stroke="#000000" d="M58.28076-113.38724C58.28076-112.51067 57.57018-111.80008 56.69362-111.80008 55.81705-111.80008 55.10646-112.51067 55.10646-113.38724 55.10646-114.2638 55.81705-114.97438 56.69362-114.97438 57.57018-114.97438 58.28076-114.2638 58.28076-113.38724ZM56.69362-113.38724"/>
<use data-text="R" xlink:href="#font_1_1" transform="matrix(9.963197,0,0,-9.963197,69.07419,88.99138)"/>
<path transform="matrix(1.00006,0,0,-1.00006,28.177735,1.7991495)" stroke-width=".3985" stroke-linecap="butt" stroke-miterlimit="10" stroke-linejoin="miter" fill="none" stroke="#000000" d="M56.69362-56.69362H70.867M70.867-56.69362H85.04042"/>
<path transform="matrix(1.00006,0,0,-1.00006,28.177735,1.7991495)" d="M86.62756-56.69362C86.62756-55.81705 85.91698-55.10646 85.04042-55.10646 84.16386-55.10646 83.45328-55.81705 83.45328-56.69362 83.45328-57.57018 84.16386-58.28076 85.04042-58.28076 85.91698-58.28076 86.62756-57.57018 86.62756-56.69362ZM85.04042-56.69362" fill="#ffffff"/>
<path transform="matrix(1.00006,0,0,-1.00006,28.177735,1.7991495)" stroke-width=".3985" stroke-linecap="butt" stroke-miterlimit="10" stroke-linejoin="miter" fill="none" stroke="#000000" d="M86.62756-56.69362C86.62756-55.81705 85.91698-55.10646 85.04042-55.10646 84.16386-55.10646 83.45328-55.81705 83.45328-56.69362 83.45328-57.57018 84.16386-58.28076 85.04042-58.28076 85.91698-58.28076 86.62756-57.57018 86.62756-56.69362ZM85.04042-56.69362"/>
<path transform="matrix(1.00006,0,0,-1.00006,28.177735,1.7991495)" d="" fill="#ffffff"/>
<path transform="matrix(1.00006,0,0,-1.00006,28.177735,1.7991495)" stroke-width=".3985" stroke-linecap="butt" stroke-miterlimit="10" stroke-linejoin="miter" fill="none" stroke="#000000" d=""/>
<path transform="matrix(1.00006,0,0,-1.00006,28.177735,1.7991495)" stroke-width=".3985" stroke-linecap="butt" stroke-miterlimit="10" stroke-linejoin="miter" fill="none" stroke="#000000" d="M56.69362-113.38724H70.867M70.867-113.38724H85.04042"/>
<path transform="matrix(1.00006,0,0,-1.00006,28.177735,1.7991495)" d="M86.62756-113.38724C86.62756-112.51067 85.91698-111.80008 85.04042-111.80008 84.16386-111.80008 83.45328-112.51067 83.45328-113.38724 83.45328-114.2638 84.16386-114.97438 85.04042-114.97438 85.91698-114.97438 86.62756-114.2638 86.62756-113.38724ZM85.04042-113.38724" fill="#ffffff"/>
<path transform="matrix(1.00006,0,0,-1.00006,28.177735,1.7991495)" stroke-width=".3985" stroke-linecap="butt" stroke-miterlimit="10" stroke-linejoin="miter" fill="none" stroke="#000000" d="M86.62756-113.38724C86.62756-112.51067 85.91698-111.80008 85.04042-111.80008 84.16386-111.80008 83.45328-112.51067 83.45328-113.38724 83.45328-114.2638 84.16386-114.97438 85.04042-114.97438 85.91698-114.97438 86.62756-114.2638 86.62756-113.38724ZM85.04042-113.38724"/>
<path transform="matrix(1.00006,0,0,-1.00006,28.177735,1.7991495)" d="" fill="#ffffff"/>
<path transform="matrix(1.00006,0,0,-1.00006,28.177735,1.7991495)" stroke-width=".3985" stroke-linecap="butt" stroke-miterlimit="10" stroke-linejoin="miter" fill="none" stroke="#000000" d=""/>
<path transform="matrix(1.00006,0,0,-1.00006,28.177735,1.7991495)" stroke-width=".3985" stroke-linecap="butt" stroke-miterlimit="10" stroke-linejoin="miter" fill="none" stroke="#000000" d="M85.04042-85.04042"/>
<use data-text="V" xlink:href="#font_1_2" transform="matrix(9.963197,0,0,-9.963197,104.3283,89.466419)"/>
<use data-text="o" xlink:href="#font_2_81" transform="matrix(6.9742186,0,0,-6.9742186,110.13964,90.9615)"/>
<use data-text="u" xlink:href="#font_2_109" transform="matrix(6.9742186,0,0,-6.9742186,114.10797,90.9615)"/>
<use data-text="t" xlink:href="#font_2_105" transform="matrix(6.9742186,0,0,-6.9742186,118.508708,90.9615)"/>
</svg>
