<svg xmlns="http://www.w3.org/2000/svg" xmlns:xlink="http://www.w3.org/1999/xlink" xmlns:inkscape="http://www.inkscape.org/namespaces/inkscape" version="1.1" width="110" height="67" viewBox="0 0 110 67">
<defs>
<path id="font_1_82" d="M.55400088 0V.04399109H.5039978C.397995 .04399109 .397995 .054977418 .397995 .08596802V.6358185C.397995 .6660156 .394989 .6660156 .3619995 .6660156 .29100038 .6016083 .17999268 .6016083 .1599884 .6016083H.14299011V.5576172H.1599884C.18299866 .5576172 .24798584 .5606079 .30599977 .58561709V.08596802C.30599977 .054977418 .30599977 .04399109 .19999695 .04399109H.1499939V0C.20498657 .0039978029 .2939911 .0039978029 .35198976 .0039978029 .4099884 .0039978029 .49899293 .0039978029 .55400088 0Z"/>
<path id="font_1_107" d="M.58898928 .19299317H.5469971C.5439911 .17399597 .5339966 .11199951 .5179901 .101989749 .5099945 .09599304 .42599488 .09599304 .41099549 .09599304H.21499634C.2809906 .14498902 .35499574 .20098877 .4149933 .24099732 .5049896 .30300904 .58898928 .3610077 .58898928 .4670105 .58898928 .5950012 .46798707 .6660156 .32499696 .6660156 .18998719 .6660156 .09098816 .58795168 .09098816 .48986817 .09098816 .4378662 .1349945 .42886354 .14898682 .42886354 .17599488 .42886354 .20799256 .4468689 .20799256 .48786927 .20799256 .52386477 .18199158 .543869 .15098572 .546875 .1789856 .59194949 .23699951 .6220093 .3039856 .6220093 .40098573 .6220093 .48199464 .5639038 .48199464 .4658661 .48199464 .3818817 .42399598 .31791688 .34700013 .2529297L.102996829 .04598999C.09298706 .036987306 .09199524 .036987306 .09098816 .02999878V0H.55599978L.58898928 .19299317Z"/>
<path id="font_1_106" d="M.59999087 .17382813C.59999087 .25582887 .5269928 .32583619 .41299439 .35183717 .5329895 .39083863 .5649872 .46684266 .5649872 .5228424 .5649872 .60491946 .46299745 .6660156 .33699037 .6660156 .21398926 .6660156 .114990238 .61395266 .114990238 .5238342 .114990238 .47683717 .15299988 .46484376 .17199707 .46484376 .20098877 .46484376 .22898865 .48583985 .22898865 .5218353 .22898865 .5448303 .21699524 .5728302 .18099976 .57884219 .22399903 .625 .31298829 .628006 .33399964 .628006 .40699769 .628006 .45899964 .5908661 .45899964 .5228424 .45899964 .46484376 .42099 .37384034 .31599427 .36782838 .28799439 .36683656 .28399659 .36582948 .2579956 .36483766 .24699402 .36383058 .23599243 .36283876 .23599243 .34783937 .23599243 .3310547 .24598694 .3310547 .2639923 .3310547H.32998658C.42199708 .3310547 .48298646 .2737732 .48298646 .17437744 .48298646 .07237244 .41999818 .01852417 .33099366 .01852417 .31999208 .01852417 .20098877 .01852417 .1499939 .070373538 .19099427 .07637024 .20298767 .1073761 .20298767 .13137818 .20298767 .16838074 .1749878 .19238281 .14199829 .19238281 .10998535 .19238281 .07998657 .17137146 .07998657 .12937927 .07998657 .025512696 .19799805-.022460938 .33399964-.022460938 .49798585-.022460938 .59999087 .07637024 .59999087 .17337036V.17382813Z"/>
<path id="font_1_57" d="M.61698916 .1630249V.20703125H.49198915V.6467743C.49198915 .6707611 .4909973 .6767578 .46499635 .6767578 .44499208 .6767578 .44400025 .67575076 .43299867 .6617584L.06298828 .20703125V.1630249H.3959961V.085006717C.3959961 .054000856 .3959961 .04399109 .30899049 .04399109H.27398683V0L.44400025 .0039978029 .6139984 0V.04399109H.57899478C.49198915 .04399109 .49198915 .054000856 .49198915 .085006717V.1630249H.61698916M.4039917 .20703125H.10998535L.4039917 .56881716V.20703125Z"/>
<path id="font_1_56" d="M.58898928 .20191956C.58898928 .3149109 .49198915 .41992188 .35299684 .41992188 .2899933 .41993714 .23899842 .4039154 .19599915 .37088014V.55107119C.24899292 .53808596 .2939911 .53808596 .30499269 .53808596 .37298585 .53808596 .4229889 .55807498 .44898988 .5720825 .47299195 .5840759 .54100039 .6270752 .54100039 .64904788 .54100039 .6640167 .5299988 .6660156 .5269928 .6660156 .5269928 .6660156 .522995 .6660156 .5119934 .661026 .47399903 .6480408 .4119873 .634079 .34599305 .634079 .2889862 .634079 .23399353 .6440582 .18099976 .6620178 .16999817 .6660156 .1659851 .6660156 .1659851 .6660156 .1519928 .6660156 .1519928 .6540375 .1519928 .6380768V.33789063C.1519928 .3209076 .1519928 .3079071 .17098999 .3079071 .18199158 .3079071 .18299866 .30992127 .19198609 .3209076 .22999573 .36489869 .2829895 .3869171 .35099793 .3869171 .40899659 .3869171 .44099427 .35289 .45498658 .3318634 .47799684 .2978363 .48298646 .25279237 .48298646 .20477295 .48298646 .1627655 .47898866 .10676575 .43998719 .06765747 .394989 .02154541 .33799745 .01852417 .31599427 .01852417 .25099183 .01852417 .17799378 .04660034 .14698792 .10575867 .18899536 .10876465 .20298767 .13876343 .20298767 .16175843 .20298767 .19377136 .1789856 .21777344 .14698792 .21777344 .125 .21777344 .09098816 .20477295 .09098816 .1587677 .09098816 .060638429 .18699646-.022460938 .31799317-.022460938 .46699525-.022537232 .58898928 .07745361 .58898928 .20146179V.20191956Z"/>
<path id="font_1_101" d="M.59999087 .20472718C.59999087 .2657318 .5799866 .31472779 .5279999 .36073304 .48399354 .40072633 .43798829 .42773438 .35099793 .42773438 .29299928 .42773438 .22799683 .39971925 .18598938 .32772828 .18699646 .37373353 .18798828 .45272828 .22399903 .517746 .25299073 .5718231 .31799317 .628006 .41099549 .628006 .42999269 .628006 .47499085 .6260071 .5049896 .60191348 .4889984 .5979004 .46299745 .5828552 .46299745 .54875186 .46299745 .51708987 .4869995 .49609376 .5159912 .49609376 .5329895 .4957428 .56900027 .5047455 .56900027 .5517578 .56900027 .60598757 .5309906 .6660156 .4099884 .6660156 .23799134 .6660156 .07998657 .5249176 .07998657 .31776429 .07998657 .07858276 .19699097-.022460938 .34298707-.022460938 .44198609-.022460938 .4889984 .014526367 .522995 .042556764 .58699038 .095565799 .59999087 .15460205 .59999087 .20463562V.20472718M.49398805 .20562744C.49398805 .14759827 .49398805 .109573367 .46199037 .06956482 .43399049 .0365448 .39898683 .01852417 .34298707 .01852417 .18899536 .01852417 .18899536 .18461609 .18899536 .2266388 .18899536 .30368043 .24398804 .39372254 .34899903 .39372254 .3999939 .3939972 .43199159 .3809967 .46299745 .34098817 .49299623 .3039856 .49398805 .2619934 .49398805 .20599365V.20562744Z"/>
<path id="font_1_100" d="M.6349945 .6158447V.6438446H.3929901C.36698915 .6438446 .22099304 .6478424 .20298767 .65083315 .17999268 .65582278 .1789856 .665802 .1769867 .67578127H.1349945L.09700012 .4507904H.13899231C.14099121 .46580506 .1519928 .530838 .16899109 .5418396 .1749878 .5468445 .2689972 .54785159 .28399659 .54785159H.5219879C.47999574 .49882508 .42599488 .4447937 .3869934 .3957672 .2679901 .24368286 .25299073 .099594119 .25299073 .03855896 .25299073-.016464234 .28799439-.022460938 .30599977-.022460938 .35899354-.022460938 .35899354 .028564454 .35899354 .04057312V.060577394C.35899354 .23867798 .39698792 .34873963 .45700074 .41477967L.625 .59983828C.6339874 .60884097 .6339874 .61083987 .6349945 .6158447Z"/>
<path id="font_1_51" d="M.59999087 .17100525C.59999087 .28001405 .49598695 .3310089 .42900086 .3610077 .5319977 .40400697 .5649872 .45700074 .5649872 .51400759 .5649872 .6180115 .44999696 .6660156 .34098817 .6660156 .21699524 .6660156 .114990238 .5960083 .114990238 .4960022 .114990238 .40382386 .19400025 .36279298 .24598694 .3357849 .13999939 .29473878 .07998657 .23570252 .07998657 .15364075 .07998657 .03353882 .21299744-.022460938 .33898927-.022460938 .47898866-.022460938 .59999087 .05255127 .59999087 .1706543V.17100525M.5029907 .51290896C.5029907 .42485047 .3880005 .38381959 .3880005 .38381959 .3880005 .38381959 .38598634 .38381959 .3769989 .38882447L.23298645 .46287538C.18998719 .4848938 .1769867 .51091006 .1769867 .53492739 .1769867 .59898379 .25898744 .628006 .33898927 .628006 .4189911 .62753298 .5029907 .5885315 .5029907 .51252749V.51290896M.5309906 .13453675C.5309906 .053527833 .42999269 .01852417 .34098817 .01852417 .25 .01852417 .14898682 .0635376 .14898682 .15452576 .14898682 .25352479 .25698854 .29953004 .2889862 .3135376L.44400025 .23452759C.47999574 .21598816 .5309906 .18899536 .5309906 .1349945V.13453675Z"/>
<path id="font_2_4" d="M.84098818 .55859377C.84799197 .56759646 .84799197 .56959536 .86099246 .5836029 .8789978 .6036072 .9079895 .63360598 .97299197 .63760378 .98399356 .63861086 1 .63861086 1 .66560366 1 .6716156 .99598696 .6826172 .98399356 .6826172 .9700012 .6826172 .95399478 .6796112 .93899539 .6796112 .923996 .6796112 .9079895 .6786041 .8929901 .6786041 .8739929 .6786041 .85598757 .6796112 .83799746 .6796112 .81999209 .6796112 .798996 .6826172 .7809906 .6826172 .7649994 .6826172 .7569885 .6716156 .7569885 .65460208 .7569885 .63861086 .772995 .63760378 .7799988 .63760378 .79499819 .63661196 .82099917 .63261416 .82099917 .61260989 .82099917 .6056061 .81700137 .5935974 .8029938 .5746002L.45199586 .092544559 .33599855 .6026001C.33399964 .61260989 .33399964 .61460879 .33399964 .6175995 .33399964 .63160708 .3659973 .63760378 .40098573 .63760378 .4139862 .63760378 .43099977 .63760378 .43099977 .66560366 .43099977 .6736145 .4249878 .6826172 .41299439 .6826172 .3919983 .6826172 .36799623 .6796112 .34599305 .6796112 .32199098 .6796112 .29899598 .6786041 .2749939 .6786041 .2539978 .6786041 .23199463 .6796112 .21099854 .6796112 .19198609 .6796112 .16999817 .6826172 .1519928 .6826172 .14498902 .6826172 .12799073 .6826172 .12799073 .65460208 .12799073 .63760378 .14199829 .63760378 .1599884 .63760378 .21899414 .63760378 .21998596 .63061526 .22499085 .6096039L.3619995 .0065307619C.36698915-.014465332 .36898805-.022460938 .3939972-.022460938 .4059906-.022460938 .4189911-.022460938 .43598939 .0005340576L.84098818 .55859377Z"/>
<path id="font_1_81" d="M.61499026 .21324158C.61499026 .33824159 .49699403 .4482422 .33999635 .4482422 .18299866 .4482422 .06498718 .33824159 .06498718 .21324158 .06498718 .09324646 .18399048-.0107421879 .33999635-.0107421879 .49699403-.0107421879 .61499026 .09324646 .61499026 .21324158M.5149994 .22323609C.5149994 .17424011 .5149994 .025253296 .33999635 .025253296 .16499329 .025253296 .16499329 .17424011 .16499329 .22323609 .16499329 .26823426 .16499329 .41523744 .33999635 .41523744 .5149994 .41523744 .5149994 .26823426 .5149994 .22323609Z"/>
<path id="font_1_109" d="M.68299868 .00024414063V.04425049C.60899356 .04425049 .59999087 .051254274 .59999087 .1002655V.4423828L.42799378 .43138124V.38737489C.5019989 .38737489 .5109863 .3803711 .5109863 .33135987V.16828919C.5109863 .07626343 .44198609 .022247315 .3600006 .022247315 .2579956 .022247315 .2539978 .06326294 .2539978 .11427307V.4423828L.08198547 .43138124V.38737489C.15899658 .38737489 .16499329 .379364 .16499329 .32835389V.11027527C.17399597-.0017547608 .2869873-.0107421879 .35198976-.0107421879 .43598939-.0107421879 .4850006 .027252198 .5149994 .07426453V-.0107421879L.68299868 .00024414063Z"/>
<path id="font_1_105" d="M.44400025 .12608338V.18099976H.4019928V.1290741C.4019928 .05419922 .35798646 .025253296 .32299806 .025253296 .24598694 .025253296 .24598694 .1051178 .24598694 .12608338V.3866577H.4229889V.43066407H.24598694V.6142578H.20399475C.20298767 .52046206 .15299988 .4226532 .050994874 .41966249V.3866577H.15699768V.12608338C.15699768 .012252808 .25099183-.0107421879 .31298829-.0107421879 .3880005-.011001587 .44400025 .04399109 .44400025 .12599182V.12608338Z"/>
<path id="font_1_45" d="M.27598573 .009994507C.27598573 .07299805 .24899292 .12199402 .20098877 .12199402 .1619873 .12199402 .13999939 .09199524 .13999939 .06098938 .13999939 .02999878 .1619873 0 .20098877 0 .22698975 0 .24299622 .01499939 .24299622 .01499939 .24299622-.057113649 .21398926-.11720276 .1599884-.16229248 .1519928-.16929627 .15098572-.17030335 .15098572-.17730713 .15098572-.18632508 .16099549-.19433594 .16799927-.19433594 .18199158-.19433594 .27598573-.11621094 .27598573 .009994507Z"/>
<path id="font_1_27" d="M.9089966 0V.04399109H.8829956C.82099917 .04399109 .80599978 .049987794 .7939911 .07698059L.5249939 .68981936C.5169983 .70780947 .5139923 .7158203 .48999024 .7158203 .47200013 .7158203 .46398927 .71180728 .45498658 .69181826L.19699097 .10298157C.1749878 .052993776 .12098694 .04399109 .070999149 .04399109V0C.10798645 .0029907227 .1499939 .0039978029 .18699646 .0039978029 .19999695 .0039978029 .2709961 .0029907227 .31698609 0V.04399109C.26098634 .043945314 .24099732 .06893921 .24099732 .0879364 .24099732 .09391785 .24299622 .09692383 .24598694 .104904178L.2979889 .22265625H.61898806L.6799927 .08293152C.6859894 .07093811 .6859894 .06793213 .6859894 .06793213 .6859894 .043945314 .6289978 .043945314 .59999087 .043945314V0L.7619934 .0039978029 .9089966 0M.59999087 .26664735H.31698609L.45799256 .58865359 .59999087 .26664735Z"/>
<path id="font_3_1" d="M.8799896 .2223053C.8959961 .2223053 .9229889 .2223053 .9229889 .25030519 .9229889 .2783203 .8959961 .2783203 .8799896 .2783203H.20298767C.18699646 .2783203 .1599884 .2783203 .1599884 .25030519 .1599884 .2223053 .18699646 .2223053 .20298767 .2223053H.8799896Z"/>
<path id="font_2_1" d="M.269989 .01399231C.269989-.08216858 .21798706-.13726807 .19099427-.15931702 .18099976-.16732788 .1789856-.16934204 .1789856-.17634583 .1789856-.18234253 .18798828-.19433594 .19699097-.19433594 .20999146-.19433594 .3039856-.1162262 .3039856 .008987427 .3039856 .07699585 .27398683 .12199402 .22898865 .12199402 .19099427 .12199402 .16799927 .09199524 .16799927 .06098938 .16799927 .0289917 .19099427 0 .22898865 0 .24398804 0 .25898744 .0039978029 .269989 .01399231Z"/>
<path id="font_2_2" d="M.72698977 .68881228C.72299197 .70980837 .71899417 .7158203 .69699099 .7158203 .6729889 .7158203 .6669922 .70780947 .6569977 .69281008L.2649994 .124816898C.22299195 .063949588 .18798828 .04798889 .12298584 .04498291 .10398865 .04399109 .10398865 .017990113 .10398865 .016998291 .10398865 .0029907227 .115997318 0 .11999512 0 .13398743 0 .15098572 .0029907227 .16499329 .0029907227 .18199158 .0029907227 .19898987 .0039978029 .21598816 .0039978029 .23498535 .0039978029 .25299073 .0029907227 .2709961 .0029907227 .2889862 .0029907227 .30999757 0 .32798768 0 .33499146 0 .35198976 0 .35198976 .027999878 .35198976 .04399109 .33699037 .04498291 .33299256 .04498291 .32499696 .04498291 .28599549 .04698181 .28599549 .07093811 .28599549 .082901 .2979889 .099868778 .30499269 .10984802L.37799073 .21661377C.3829956 .22261048 .38398744 .2236023 .40299989 .2236023H.70599368C.70799258 .21162415 .70899966 .20663452 .71199038 .19467163 .71499636 .17671204 .7350006 .076919559 .7350006 .06694031 .7350006 .04498291 .6719971 .04498291 .6669922 .04498291 .6519928 .04498291 .6359863 .04498291 .6359863 .016998291 .6359863 .0069885256 .6429901 0 .6539917 0 .6749878 0 .69898989 .0029907227 .72099307 .0029907227 .7449951 .0029907227 .7679901 .0039978029 .7919922 .0039978029 .8129883 .0039978029 .83499148 .0029907227 .85598757 .0029907227 .8759918 .0029907227 .8989868 0 .9189911 0 .9359894 0 .94299319 .011993408 .94299319 .027999878 .94299319 .04498291 .9269867 .04498291 .9129944 .04498291 .8470001 .04498291 .84599307 .051971437 .84199526 .07392883L.72698977 .68881228M.6369934 .5927582 .69799807 .26860047H.4139862L.6369934 .5927582Z"/>
<path id="font_4_1" d="M.5419922 .22167969H.8899994C.9029999 .22167969 .9299927 .22167969 .9299927 .24967957 .9299927 .27767945 .9029999 .27767945 .8899994 .27767945H.5419922V.6259613C.5419922 .63998416 .5419922 .6669922 .5139923 .6669922 .48599244 .6669922 .48599244 .63998416 .48599244 .6259613V.27767945H.13699341C.12399292 .27767945 .09700012 .27767945 .09700012 .24967957 .09700012 .22167969 .12399292 .22167969 .13699341 .22167969H.48599244V-.12602234C.48599244-.13999939 .48599244-.16699219 .5139923-.16699219 .5419922-.16699219 .5419922-.13999939 .5419922-.12602234V.22167969Z"/>
<path id="font_1_58" d="M.94599917 .23339844V.27738954L.79499819 .27339173C.7409973 .27339173 .6469879 .27339173 .5970001 .27738954V.23339844H.6469879C.7529907 .23339844 .7529907 .22239685 .7529907 .19142151V.12945557C.7529907 .10647583 .7529907 .06550598 .68499758 .040512086 .6349945 .021530152 .57398989 .021530152 .5609894 .021530152 .3929901 .021530152 .21398926 .111465457 .21398926 .34150697 .21398926 .57992556 .40098573 .6610718 .54599 .6610718 .6359863 .6610718 .7829895 .61198428 .8149872 .426651 .81700137 .41462709 .82899478 .41462709 .83699038 .41462709 .85899356 .41462709 .85899356 .42164613 .85899356 .442688V.677063C.85899356 .69407656 .85899356 .7050781 .84298709 .7050781 .83299258 .7050781 .8299866 .70106509 .82398989 .69306948L.7649994 .6159973C.71798709 .6550598 .644989 .7050781 .5279999 .7050781 .2869873 .7050781 .09700012 .53785708 .09700012 .34150697 .09700012 .15245056 .2749939-.022460938 .5339966-.022460938 .57099917-.022460938 .6239929-.020462037 .6749878-.0064697267 .7489929 .013534546 .7749939 .04951477 .7779999 .054504396 .8019867 .023529053 .83699038-.00047302247 .8450012-.00047302247 .85899356-.00047302247 .85899356 .012527466 .85899356 .027526856V.19342041C.85899356 .22439575 .85899356 .23339844 .9259949 .23339844H.94599917Z"/>
<path id="font_1_76" d="M.8969879 .63861086V.6826172C.85198977 .6796112 .80799868 .6786041 .7630005 .6786041 .7350006 .6786041 .66999819 .6796112 .6289978 .6826172V.63861086C.73999026 .63861086 .73999026 .5976105 .73999026 .5716095V.15660095L.30899049 .6706085C.29899598 .6826172 .29699708 .6826172 .2769928 .6826172H.08299255V.63861086H.12199402C.13398743 .63861086 .17999268 .63760378 .18998719 .63461306 .19299317 .63261416 .19400025 .63160708 .19400025 .61561587V.11061096C.19400025 .084609989 .19400025 .04360962 .08299255 .04360962V-.00039672853C.12799073 .002609253 .17199707 .0036010743 .21699524 .0036010743 .24499512 .0036010743 .30999757 .002609253 .35099793-.00039672853V.04360962C.23999024 .04360962 .23999024 .084609989 .23999024 .11061096V.6056061L.73799136 .0116119389C.7480011-.00039672853 .7519989-.00039672853 .7630005-.00039672853 .7859955-.00039672853 .7859955 .008605957 .7859955 .02960205V.5716095C.7859955 .5976105 .7859955 .63861086 .8969879 .63861086Z"/>
<path id="font_1_46" d="M.9059906 .33580018C.9059906 .5226898 .7389984 .6826172 .5249939 .6826172H.084991458V.63861086C.10899353 .63861086 .13899231 .63861086 .16099549 .63661196 .19599915 .6336212 .19599915 .6206207 .19599915 .5956421V.08695984C.19599915 .0619812 .19599915 .04899597 .16099549 .04598999 .13899231 .04399109 .10699463 .04399109 .084991458 .04399109V0H.5249939C.7369995 0 .9059906 .15092469 .9059906 .33580018M.79299929 .33580018C.79299929 .24786377 .772995 .17390442 .71598818 .11894226 .68299868 .08796692 .6119995 .04399109 .49598695 .04399109H.34899903C.2979889 .04399109 .2979889 .049987794 .2979889 .083969119V.5986328C.2979889 .63261416 .2979889 .63861086 .34899903 .63861086H.49598695C.61499026 .63861086 .6859894 .5886383 .71299746 .56266787 .75 .52568057 .79299929 .46672059 .79299929 .33580018Z"/>
<path id="font_2_3" d="M.24798584 .082977298C.23999024 .052993776 .23899842 .04499817 .16299439 .04499817 .13699341 .04499817 .12098694 .04499817 .12098694 .016998291 .12098694 0 .13699341 0 .1539917 0H.58898928C.7689972 0 .9149933 .111968997 .9149933 .21191406 .9149933 .27389527 .8569946 .3408661 .72099307 .35786439 .81999209 .37086488 .96099856 .4367981 .96099856 .53671267 .96099856 .6206207 .8619995 .6826172 .7259979 .6826172H.31599427C.29699708 .6826172 .2809906 .6826172 .2809906 .65460208 .2809906 .63760378 .2939911 .63760378 .31799317 .63760378 .32798768 .63760378 .36099244 .63760378 .38198854 .6316223 .38198854 .6196289 .38198854 .61763 .3789978 .6066437L.24798584 .082977298M.4169922 .3718567 .47499085 .6046448C.48298646 .63560488 .48298646 .63760378 .5249939 .63760378H.70799258C.8069916 .63760378 .85398867 .58665469 .85398867 .53370669 .85398867 .4527893 .74598696 .3718567 .60598757 .3718567H.4169922M.36898805 .04499817C.36099244 .04499817 .34700013 .04499817 .33699037 .04699707 .33799745 .054992677 .33799745 .056991579 .33999635 .06498718L.4079895 .3378601H.6519928C.7539978 .3378601 .8049927 .2788849 .8049927 .21591187 .8049927 .11895752 .6859894 .04499817 .56199648 .04499817H.36898805Z"/>
<path id="font_1_34" d="M.83699038 .184906C.83699038 .25585938 .7649994 .33680726 .6029968 .3577881 .70399478 .3737793 .8019867 .43174745 .8019867 .51168826 .8019867 .6046295 .6779938 .6826172 .5289917 .6826172H.08699036V.63861086H.116989139C.19799805 .63861086 .19799805 .62861636 .19799805 .597641V.08496094C.19799805 .053985597 .19799805 .04399109 .116989139 .04399109H.08699036V0H.56199648C.71598818-.0001373291 .83699038 .085861209 .83699038 .18486023V.184906M.69299319 .5107269C.69299319 .43780519 .6049957 .3718567 .49499513 .3718567H.29599V.600647C.29599 .6316223 .29599 .63861086 .34498597 .63861086H.5219879C.6289978 .638855 .69299319 .5728607 .69299319 .51086428V.5107269M.723999 .18592835C.723999 .110961917 .6409912 .04399109 .5239868 .04399109H.34498597C.29599 .04399109 .29599 .050994874 .29599 .081970218V.3388672H.5319977C.66600039 .33898927 .723999 .25099183 .723999 .18598938V.18592835Z"/>
<path id="font_2_5" d="M.5069885 .37800599C.47200013 .36798097 .46699525 .33798219 .46699525 .32798768 .46699525 .30297853 .48799134 .2919922 .5049896 .2919922 .5169983 .2919922 .55799868 .3009796 .55799868 .35398866 .55799868 .42137147 .47898866 .4423828 .4039917 .4423828 .23498535 .4423828 .20298767 .33898927 .20298767 .30297853 .20298767 .26701356 .22399903 .24604798 .24198914 .23207093 .269989 .21209717 .2999878 .20809937 .35299684 .19911194 .41600038 .18913269 .48599244 .17814636 .48599244 .12716675 .48599244 .12617493 .48599244 .023254395 .3019867 .023254395 .2639923 .023254395 .20199585 .026245118 .16999817 .057174684 .20599365 .06517029 .22200012 .094177249 .22200012 .11817932 .22200012 .1461792 .20098877 .15917969 .1789856 .15917969 .14498902 .15917969 .114990238 .13217163 .114990238 .08717346 .114990238-.0107421879 .2709961-.0107421879 .2999878-.0107421879 .5049896-.0107421879 .5399933 .107177738 .5399933 .1481781 .5399933 .23806763 .42999269 .2550354 .37799073 .26402284 .30699159 .27500917 .2579956 .2829895 .2579956 .32398988 .2579956 .3249817 .2579956 .40837098 .4019928 .40837098 .42799378 .40837098 .48098756 .40634156 .5069885 .37800599Z"/>
<path id="font_5_1" d="M.7519989 .22024536C.7669983 .22024536 .7969971 .22024536 .7969971 .25024415 .7969971 .28125 .7679901 .28125 .7519989 .28125H.14099121C.12599182 .28125 .09599304 .28125 .09599304 .25123597 .09599304 .22024536 .125 .22024536 .14099121 .22024536H.7519989Z"/>
<path id="font_6_1" d="M.47698976 .22024536H.7859955C.798996 .22024536 .82899478 .22024536 .82899478 .25024415 .82899478 .28125 .7999878 .28125 .7859955 .28125H.47698976V.5908356C.47698976 .6028137 .47698976 .6328125 .44699098 .6328125 .41600038 .6328125 .41600038 .6038208 .41600038 .5908356V.28125H.10699463C.09298706 .28125 .06399536 .28125 .06399536 .25024415 .06399536 .22024536 .09399414 .22024536 .10699463 .22024536H.41600038V-.08984375C.41600038-.10183716 .41600038-.13183594 .44599916-.13183594 .47698976-.13183594 .47698976-.10284424 .47698976-.08984375V.22024536Z"/>
</defs>
<path transform="matrix(1,0,0,-1.00002,55.561006,33.746355)" stroke-width=".3985" stroke-linecap="butt" stroke-miterlimit="10" stroke-linejoin="miter" fill="none" stroke="#000000" d="M0 0"/>
<path transform="matrix(1,0,0,-1.00002,55.561006,33.746355)" stroke-width=".797" stroke-linecap="butt" stroke-miterlimit="10" stroke-linejoin="miter" fill="none" stroke="#000000" d="M-23.81116-31.7478H23.811152V31.74782H-23.81116Z"/>
<path transform="matrix(1,0,0,-1.00002,55.561006,33.746355)" stroke-width=".797" stroke-linecap="butt" stroke-miterlimit="10" stroke-linejoin="miter" fill="none" stroke="#000000" d="M-4.76215 31.7478C-4.76215 29.1177-2.63008 26.98564 0 26.98564 2.63008 26.98564 4.76215 29.1177 4.76215 31.7478"/>
<use data-text="1" xlink:href="#font_1_82" transform="matrix(4.9813,0,0,-4.9813997,24.838006,11.593908)"/>
<use data-text="2" xlink:href="#font_1_107" transform="matrix(4.9813,0,0,-4.9813997,24.838006,27.468228)"/>
<use data-text="3" xlink:href="#font_1_106" transform="matrix(4.9813,0,0,-4.9813997,24.838006,43.287546)"/>
<use data-text="4" xlink:href="#font_1_57" transform="matrix(4.9813,0,0,-4.9813997,24.838006,59.243867)"/>
<use data-text="5" xlink:href="#font_1_56" transform="matrix(4.9813,0,0,-4.9813997,82.892009,59.161867)"/>
<use data-text="6" xlink:href="#font_1_101" transform="matrix(4.9813,0,0,-4.9813997,82.892009,43.287546)"/>
<use data-text="7" xlink:href="#font_1_100" transform="matrix(4.9813,0,0,-4.9813997,82.892009,27.438227)"/>
<use data-text="8" xlink:href="#font_1_51" transform="matrix(4.9813,0,0,-4.9813997,82.892009,11.538908)"/>
<use data-text="V" xlink:href="#font_2_4" transform="matrix(4.9813,0,0,-4.9813997,1.2160034,10.228882)"/>
<use data-text="o" xlink:href="#font_1_81" transform="matrix(4.9813,0,0,-4.9813997,5.3390047,12.07992)"/>
<use data-text="u" xlink:href="#font_1_109" transform="matrix(4.9813,0,0,-4.9813997,8.731277,12.07992)"/>
<use data-text="t" xlink:href="#font_1_105" transform="matrix(4.9813,0,0,-4.9813997,12.467255,12.07992)"/>
<use data-text="," xlink:href="#font_1_45" transform="matrix(4.9813,0,0,-4.9813997,15.167114,12.07992)"/>
<use data-text="A" xlink:href="#font_1_27" transform="matrix(4.9813,0,0,-4.9813997,17.174576,12.07992)"/>
<use data-text="V" xlink:href="#font_2_4" transform="matrix(4.9813,0,0,-4.9813997,5.098007,26.1832)"/>
<use data-text="&#x2212;" xlink:href="#font_3_1" transform="matrix(4.9813,0,0,-4.9813997,9.221008,27.871235)"/>
<use data-text="," xlink:href="#font_2_1" transform="matrix(4.9813,0,0,-4.9813997,14.618011,27.871235)"/>
<use data-text="A" xlink:href="#font_2_2" transform="matrix(4.9813,0,0,-4.9813997,16.899445,27.871235)"/>
<use data-text="V" xlink:href="#font_2_4" transform="matrix(4.9813,0,0,-4.9813997,5.375,42.057519)"/>
<use data-text="+" xlink:href="#font_4_1" transform="matrix(4.9813,0,0,-4.9813997,9.498001,43.745553)"/>
<use data-text="," xlink:href="#font_2_1" transform="matrix(4.9813,0,0,-4.9813997,14.617996,43.745553)"/>
<use data-text="A" xlink:href="#font_2_2" transform="matrix(4.9813,0,0,-4.9813997,16.89943,43.745553)"/>
<use data-text="G" xlink:href="#font_1_58" transform="matrix(4.9813,0,0,-4.9813997,7.527008,59.258867)"/>
<use data-text="N" xlink:href="#font_1_76" transform="matrix(4.9813,0,0,-4.9813997,12.672684,59.258867)"/>
<use data-text="D" xlink:href="#font_1_46" transform="matrix(4.9813,0,0,-4.9813997,17.559342,59.258867)"/>
<use data-text="V" xlink:href="#font_2_4" transform="matrix(4.9813,0,0,-4.9813997,88.561008,57.93084)"/>
<use data-text="+" xlink:href="#font_4_1" transform="matrix(4.9813,0,0,-4.9813997,92.684009,59.618875)"/>
<use data-text="," xlink:href="#font_2_1" transform="matrix(4.9813,0,0,-4.9813997,97.804,59.618875)"/>
<use data-text="B" xlink:href="#font_2_3" transform="matrix(4.9813,0,0,-4.9813997,100.085437,59.618875)"/>
<use data-text="V" xlink:href="#font_2_4" transform="matrix(4.9813,0,0,-4.9813997,88.561008,42.057519)"/>
<use data-text="&#x2212;" xlink:href="#font_3_1" transform="matrix(4.9813,0,0,-4.9813997,92.684009,43.745553)"/>
<use data-text="," xlink:href="#font_2_1" transform="matrix(4.9813,0,0,-4.9813997,98.08101,43.745553)"/>
<use data-text="B" xlink:href="#font_2_3" transform="matrix(4.9813,0,0,-4.9813997,100.36244,43.745553)"/>
<use data-text="V" xlink:href="#font_2_4" transform="matrix(4.9813,0,0,-4.9813997,88.561008,26.185202)"/>
<use data-text="o" xlink:href="#font_1_81" transform="matrix(4.9813,0,0,-4.9813997,92.684009,27.871237)"/>
<use data-text="u" xlink:href="#font_1_109" transform="matrix(4.9813,0,0,-4.9813997,96.07628,27.871237)"/>
<use data-text="t" xlink:href="#font_1_105" transform="matrix(4.9813,0,0,-4.9813997,99.812259,27.871237)"/>
<use data-text="," xlink:href="#font_1_45" transform="matrix(4.9813,0,0,-4.9813997,102.512119,27.871237)"/>
<use data-text="B" xlink:href="#font_1_34" transform="matrix(4.9813,0,0,-4.9813997,104.51958,27.871237)"/>
<use data-text="V" xlink:href="#font_2_4" transform="matrix(4.9813,0,0,-4.9813997,88.561008,10.418886)"/>
<use data-text="s" xlink:href="#font_2_5" transform="matrix(4.9813,0,0,-4.9813997,92.684009,12.023918)"/>
<use data-text="+" xlink:href="#font_4_1" transform="matrix(4.9813,0,0,-4.9813997,96.02301,12.023918)"/>
<path transform="matrix(1,0,0,-1.00002,55.561006,33.746355)" stroke-width=".797" stroke-linecap="butt" stroke-miterlimit="10" stroke-linejoin="miter" fill="none" stroke="#000000" d="M-9.52432 15.83438-15.08015 6.38948H-3.96849Z"/>
<path transform="matrix(1,0,0,-1.00002,55.561006,33.746355)" stroke-width=".3985" stroke-linecap="square" stroke-miterlimit="10" stroke-linejoin="miter" fill="none" stroke="#000000" d="M-12.30225 4.36552V6.38948M-6.7464 4.36552V6.38948M-9.52432 17.85832V15.83437"/>
<use data-text="&#x2212;" xlink:href="#font_5_1" transform="matrix(0,-1.9925599,-1.99252,-0,43.7574,26.69341)"/>
<use data-text="+" xlink:href="#font_6_1" transform="matrix(0,-1.9925599,-1.99252,-0,49.3124,26.69341)"/>
<path transform="matrix(1,0,0,-1.00002,55.561006,33.746355)" stroke-width=".797" stroke-linecap="butt" stroke-miterlimit="10" stroke-linejoin="miter" fill="none" stroke="#000000" d="M9.52432 15.83438 15.08015 6.38948H3.96849Z"/>
<path transform="matrix(1,0,0,-1.00002,55.561006,33.746355)" stroke-width=".3985" stroke-linecap="square" stroke-miterlimit="10" stroke-linejoin="miter" fill="none" stroke="#000000" d="M12.30225 4.36552V6.38948M6.7464 4.36552V6.38948M9.52432 17.85832V15.83437"/>
<use data-text="&#x2212;" xlink:href="#font_5_1" transform="matrix(0,-1.9925599,1.99252,0,67.3646,26.69341)"/>
<use data-text="+" xlink:href="#font_6_1" transform="matrix(0,-1.9925599,1.99252,0,61.809595,26.69341)"/>
<path transform="matrix(1,0,0,-1.00002,55.561006,33.746355)" stroke-width=".3985" stroke-linecap="butt" stroke-miterlimit="10" stroke-linejoin="miter" fill="none" stroke="#000000" d="M-23.81116 23.81085H-9.52432V17.85832"/>
<path transform="matrix(1,0,0,-1.00002,55.561006,33.746355)" stroke-width=".3985" stroke-linecap="butt" stroke-miterlimit="10" stroke-linejoin="miter" fill="none" stroke="#000000" d="M-23.81116 7.93695-19.04863 7.93694V4.36552H-12.30225"/>
<path transform="matrix(1,0,0,-1.00002,55.561006,33.746355)" stroke-width=".3985" stroke-linecap="butt" stroke-miterlimit="10" stroke-linejoin="miter" fill="none" stroke="#000000" d="M-23.81116-7.93695H-6.7464V4.36552"/>
<path transform="matrix(1,0,0,-1.00002,55.561006,33.746355)" stroke-width=".3985" stroke-linecap="butt" stroke-miterlimit="10" stroke-linejoin="miter" fill="none" stroke="#000000" d="M23.81116-23.81085H6.7464V4.36552"/>
<path transform="matrix(1,0,0,-1.00002,55.561006,33.746355)" stroke-width=".3985" stroke-linecap="butt" stroke-miterlimit="10" stroke-linejoin="miter" fill="none" stroke="#000000" d="M23.81116-7.93695H12.30225V4.36552"/>
<path transform="matrix(1,0,0,-1.00002,55.561006,33.746355)" stroke-width=".3985" stroke-linecap="butt" stroke-miterlimit="10" stroke-linejoin="miter" fill="none" stroke="#000000" d="M23.81116 7.93695 19.04863 7.93694V17.85832H9.52432"/>
<path transform="matrix(1,0,0,-1.00002,55.561006,33.746355)" stroke-width=".3985" stroke-linecap="butt" stroke-miterlimit="10" stroke-linejoin="miter" fill="none" stroke="#000000" d="M23.81116 23.81085H0V10.63966H-6.4686 6.4686"/>
</svg>
