<svg xmlns="http://www.w3.org/2000/svg" xmlns:xlink="http://www.w3.org/1999/xlink" xmlns:inkscape="http://www.inkscape.org/namespaces/inkscape" version="1.1" width="104" height="67" viewBox="0 0 104 67">
<defs>
<path id="font_1_82" d="M.55400088 0V.04399109H.5039978C.397995 .04399109 .397995 .054977418 .397995 .08596802V.6358185C.397995 .6660156 .394989 .6660156 .3619995 .6660156 .29100038 .6016083 .17999268 .6016083 .1599884 .6016083H.14299011V.5576172H.1599884C.18299866 .5576172 .24798584 .5606079 .30599977 .58561709V.08596802C.30599977 .054977418 .30599977 .04399109 .19999695 .04399109H.1499939V0C.20498657 .0039978029 .2939911 .0039978029 .35198976 .0039978029 .4099884 .0039978029 .49899293 .0039978029 .55400088 0Z"/>
<path id="font_1_107" d="M.58898928 .19299317H.5469971C.5439911 .17399597 .5339966 .11199951 .5179901 .101989749 .5099945 .09599304 .42599488 .09599304 .41099549 .09599304H.21499634C.2809906 .14498902 .35499574 .20098877 .4149933 .24099732 .5049896 .30300904 .58898928 .3610077 .58898928 .4670105 .58898928 .5950012 .46798707 .6660156 .32499696 .6660156 .18998719 .6660156 .09098816 .58795168 .09098816 .48986817 .09098816 .4378662 .1349945 .42886354 .14898682 .42886354 .17599488 .42886354 .20799256 .4468689 .20799256 .48786927 .20799256 .52386477 .18199158 .543869 .15098572 .546875 .1789856 .59194949 .23699951 .6220093 .3039856 .6220093 .40098573 .6220093 .48199464 .5639038 .48199464 .4658661 .48199464 .3818817 .42399598 .31791688 .34700013 .2529297L.102996829 .04598999C.09298706 .036987306 .09199524 .036987306 .09098816 .02999878V0H.55599978L.58898928 .19299317Z"/>
<path id="font_1_106" d="M.59999087 .17382813C.59999087 .25582887 .5269928 .32583619 .41299439 .35183717 .5329895 .39083863 .5649872 .46684266 .5649872 .5228424 .5649872 .60491946 .46299745 .6660156 .33699037 .6660156 .21398926 .6660156 .114990238 .61395266 .114990238 .5238342 .114990238 .47683717 .15299988 .46484376 .17199707 .46484376 .20098877 .46484376 .22898865 .48583985 .22898865 .5218353 .22898865 .5448303 .21699524 .5728302 .18099976 .57884219 .22399903 .625 .31298829 .628006 .33399964 .628006 .40699769 .628006 .45899964 .5908661 .45899964 .5228424 .45899964 .46484376 .42099 .37384034 .31599427 .36782838 .28799439 .36683656 .28399659 .36582948 .2579956 .36483766 .24699402 .36383058 .23599243 .36283876 .23599243 .34783937 .23599243 .3310547 .24598694 .3310547 .2639923 .3310547H.32998658C.42199708 .3310547 .48298646 .2737732 .48298646 .17437744 .48298646 .07237244 .41999818 .01852417 .33099366 .01852417 .31999208 .01852417 .20098877 .01852417 .1499939 .070373538 .19099427 .07637024 .20298767 .1073761 .20298767 .13137818 .20298767 .16838074 .1749878 .19238281 .14199829 .19238281 .10998535 .19238281 .07998657 .17137146 .07998657 .12937927 .07998657 .025512696 .19799805-.022460938 .33399964-.022460938 .49798585-.022460938 .59999087 .07637024 .59999087 .17337036V.17382813Z"/>
<path id="font_1_57" d="M.61698916 .1630249V.20703125H.49198915V.6467743C.49198915 .6707611 .4909973 .6767578 .46499635 .6767578 .44499208 .6767578 .44400025 .67575076 .43299867 .6617584L.06298828 .20703125V.1630249H.3959961V.085006717C.3959961 .054000856 .3959961 .04399109 .30899049 .04399109H.27398683V0L.44400025 .0039978029 .6139984 0V.04399109H.57899478C.49198915 .04399109 .49198915 .054000856 .49198915 .085006717V.1630249H.61698916M.4039917 .20703125H.10998535L.4039917 .56881716V.20703125Z"/>
<path id="font_1_56" d="M.58898928 .20191956C.58898928 .3149109 .49198915 .41992188 .35299684 .41992188 .2899933 .41993714 .23899842 .4039154 .19599915 .37088014V.55107119C.24899292 .53808596 .2939911 .53808596 .30499269 .53808596 .37298585 .53808596 .4229889 .55807498 .44898988 .5720825 .47299195 .5840759 .54100039 .6270752 .54100039 .64904788 .54100039 .6640167 .5299988 .6660156 .5269928 .6660156 .5269928 .6660156 .522995 .6660156 .5119934 .661026 .47399903 .6480408 .4119873 .634079 .34599305 .634079 .2889862 .634079 .23399353 .6440582 .18099976 .6620178 .16999817 .6660156 .1659851 .6660156 .1659851 .6660156 .1519928 .6660156 .1519928 .6540375 .1519928 .6380768V.33789063C.1519928 .3209076 .1519928 .3079071 .17098999 .3079071 .18199158 .3079071 .18299866 .30992127 .19198609 .3209076 .22999573 .36489869 .2829895 .3869171 .35099793 .3869171 .40899659 .3869171 .44099427 .35289 .45498658 .3318634 .47799684 .2978363 .48298646 .25279237 .48298646 .20477295 .48298646 .1627655 .47898866 .10676575 .43998719 .06765747 .394989 .02154541 .33799745 .01852417 .31599427 .01852417 .25099183 .01852417 .17799378 .04660034 .14698792 .10575867 .18899536 .10876465 .20298767 .13876343 .20298767 .16175843 .20298767 .19377136 .1789856 .21777344 .14698792 .21777344 .125 .21777344 .09098816 .20477295 .09098816 .1587677 .09098816 .060638429 .18699646-.022460938 .31799317-.022460938 .46699525-.022537232 .58898928 .07745361 .58898928 .20146179V.20191956Z"/>
<path id="font_1_101" d="M.59999087 .20472718C.59999087 .2657318 .5799866 .31472779 .5279999 .36073304 .48399354 .40072633 .43798829 .42773438 .35099793 .42773438 .29299928 .42773438 .22799683 .39971925 .18598938 .32772828 .18699646 .37373353 .18798828 .45272828 .22399903 .517746 .25299073 .5718231 .31799317 .628006 .41099549 .628006 .42999269 .628006 .47499085 .6260071 .5049896 .60191348 .4889984 .5979004 .46299745 .5828552 .46299745 .54875186 .46299745 .51708987 .4869995 .49609376 .5159912 .49609376 .5329895 .4957428 .56900027 .5047455 .56900027 .5517578 .56900027 .60598757 .5309906 .6660156 .4099884 .6660156 .23799134 .6660156 .07998657 .5249176 .07998657 .31776429 .07998657 .07858276 .19699097-.022460938 .34298707-.022460938 .44198609-.022460938 .4889984 .014526367 .522995 .042556764 .58699038 .095565799 .59999087 .15460205 .59999087 .20463562V.20472718M.49398805 .20562744C.49398805 .14759827 .49398805 .109573367 .46199037 .06956482 .43399049 .0365448 .39898683 .01852417 .34298707 .01852417 .18899536 .01852417 .18899536 .18461609 .18899536 .2266388 .18899536 .30368043 .24398804 .39372254 .34899903 .39372254 .3999939 .3939972 .43199159 .3809967 .46299745 .34098817 .49299623 .3039856 .49398805 .2619934 .49398805 .20599365V.20562744Z"/>
<path id="font_1_100" d="M.6349945 .6158447V.6438446H.3929901C.36698915 .6438446 .22099304 .6478424 .20298767 .65083315 .17999268 .65582278 .1789856 .665802 .1769867 .67578127H.1349945L.09700012 .4507904H.13899231C.14099121 .46580506 .1519928 .530838 .16899109 .5418396 .1749878 .5468445 .2689972 .54785159 .28399659 .54785159H.5219879C.47999574 .49882508 .42599488 .4447937 .3869934 .3957672 .2679901 .24368286 .25299073 .099594119 .25299073 .03855896 .25299073-.016464234 .28799439-.022460938 .30599977-.022460938 .35899354-.022460938 .35899354 .028564454 .35899354 .04057312V.060577394C.35899354 .23867798 .39698792 .34873963 .45700074 .41477967L.625 .59983828C.6339874 .60884097 .6339874 .61083987 .6349945 .6158447Z"/>
<path id="font_1_51" d="M.59999087 .17100525C.59999087 .28001405 .49598695 .3310089 .42900086 .3610077 .5319977 .40400697 .5649872 .45700074 .5649872 .51400759 .5649872 .6180115 .44999696 .6660156 .34098817 .6660156 .21699524 .6660156 .114990238 .5960083 .114990238 .4960022 .114990238 .40382386 .19400025 .36279298 .24598694 .3357849 .13999939 .29473878 .07998657 .23570252 .07998657 .15364075 .07998657 .03353882 .21299744-.022460938 .33898927-.022460938 .47898866-.022460938 .59999087 .05255127 .59999087 .1706543V.17100525M.5029907 .51290896C.5029907 .42485047 .3880005 .38381959 .3880005 .38381959 .3880005 .38381959 .38598634 .38381959 .3769989 .38882447L.23298645 .46287538C.18998719 .4848938 .1769867 .51091006 .1769867 .53492739 .1769867 .59898379 .25898744 .628006 .33898927 .628006 .4189911 .62753298 .5029907 .5885315 .5029907 .51252749V.51290896M.5309906 .13453675C.5309906 .053527833 .42999269 .01852417 .34098817 .01852417 .25 .01852417 .14898682 .0635376 .14898682 .15452576 .14898682 .25352479 .25698854 .29953004 .2889862 .3135376L.44400025 .23452759C.47999574 .21598816 .5309906 .18899536 .5309906 .1349945V.13453675Z"/>
<path id="font_1_80" d="M.9299927 .3387909C.9299927 .53596499 .7489929 .7050781 .5139923 .7050781 .27598573 .7050781 .09700012 .5339508 .09700012 .3387909 .09700012 .14263916 .27999879-.022460938 .5130005-.022460938 .75-.022460938 .9299927 .14463806 .9299927 .3387909M.8129883 .35380555C.8129883 .12062073 .6589966 .014526367 .5139923 .014526367 .36299134 .014526367 .21398926 .12461853 .21398926 .35380555 .21398926 .57199099 .36898805 .6690674 .5130005 .6690674 .6629944 .6690674 .8129883 .56799319 .8129883 .35380555Z"/>
<path id="font_1_122" d="M.9059906 .6269989C.9059906 .6700592 .86299136 .7050781 .79599 .7050781 .7539978 .7050781 .70899966 .69207766 .6729889 .6680603 .6619873 .69407656 .62098696 .7050781 .47799684 .7050781 .32998658 .7050781 .16699219 .6490326 .16699219 .5398407V.43066407H.069992069V.3866577H.16699219V.08395386C.16699219 .052978517 .16699219 .04399109 .101989749 .04399109H.083999637V0C.12599182 .0029907227 .17098999 .0039978029 .21299744 .0039978029L.35598756 0V.04399109H.32899476C.2519989 .04399109 .2519989 .053985597 .2519989 .08494568V.3866577H.6049957V.08395386C.6049957 .052978517 .6049957 .04399109 .5399933 .04399109H.5219879V0C.56399539 .0029907227 .60899356 .0039978029 .651001 .0039978029L.7939911 0V.04399109H.7669983C.6899872 .04399109 .6899872 .053985597 .6899872 .08494568V.3866577H.83200076V.43066407H.6859894V.5388489C.6859894 .6329956 .7480011 .67207339 .7939911 .67207339 .8009949 .67207339 .82099917 .6700592 .82099917 .6670685L.81900027 .6650543C.8129883 .65904238 .8029938 .6470337 .8029938 .6259918 .8029938 .59794619 .82299807 .5749054 .85398867 .5749054 .8869934 .5749054 .9059906 .59794619 .9059906 .6269989M.60899356 .5769043C.6069946 .56588748 .6049957 .5528717 .6049957 .5398407V.43066407H.24798584V.5388489C.24798584 .6329956 .36999513 .67207339 .47599793 .67207339 .48298646 .67207339 .59298709 .6700592 .59298709 .6670685L.59098818 .6650543C.58499148 .65904238 .57499697 .6470337 .57499697 .6259918 .57499697 .60295107 .58799746 .58392336 .60899356 .5769043Z"/>
<path id="font_1_98" d="M.47799684 .12625122C.47799684 .17124939 .45298768 .20423889 .4149933 .22824097 .375 .25323487 .34498597 .25723268 .26098634 .27023316 .19699097 .28024293 .11999512 .29223634 .11999512 .3452301 .11999512 .38023377 .15899658 .41822816 .2679901 .41822816 .35099793 .41822816 .39898683 .38523866 .40499879 .3162384 .4059906 .301239 .40699769 .2952423 .42599488 .2952423 .44699098 .2952423 .44699098 .30223084 .44699098 .3232422V.42022706C.44699098 .4372406 .44699098 .4482422 .43099977 .4482422 .42599488 .4482422 .42199708 .4472351 .4139862 .4412384 .4099884 .4372406 .3919983 .42123414 .3880005 .42123414 .3880005 .42123414 .3849945 .42123414 .3789978 .42523194 .35598756 .43823243 .31900025 .4482422 .2689972 .4482422 .10398865 .4482422 .069992069 .37223817 .069992069 .3262329 .069992069 .23223877 .18598938 .21424866 .27799989 .20024109 .33599855 .1912384 .42799378 .1772461 .42799378 .10925293 .42799378 .07424927 .39898683 .022247315 .27799989 .022247315 .20999146 .022247315 .14399719 .04725647 .11399841 .15324402 .10899353 .17124939 .10798645 .17424011 .09098816 .17424011 .069992069 .17424011 .069992069 .1662445 .069992069 .14524842V.01725769C.069992069 .00024414063 .069992069-.0107421879 .085998538-.0107421879 .09399414-.0107421879 .09498596-.009750366 .11399841 .009246826L.13999939 .03425598C.18998719-.009750366 .25299073-.0107421879 .27799989-.0107421879 .44499208-.0107421879 .47799684 .07624817 .47799684 .12625122Z"/>
<path id="font_1_50" d="M.5469971 .119155887C.5469971 .13623047 .5309906 .13623047 .526001 .13623047 .5109863 .13623047 .5089874 .1322174 .5029907 .11816406 .47499085 .049209596 .40098573 .025253296 .34498597 .025253296 .2639923 .025253296 .21899414 .07017517 .20399475 .0871582 .16499329 .13522339 .16499329 .19847107 .16499329 .22558594H.5169983C.5379944 .22558594 .5469971 .22558594 .5469971 .24957276 .5469971 .31645204 .5109863 .4482422 .32398988 .4482422 .17199707 .4482422 .06498718 .3390503 .06498718 .21984864 .06498718 .09310913 .18699646-.0107421879 .33898927-.0107421879 .49798585-.0107421879 .5469971 .100097659 .5469971 .11906433V.119155887M.46998597 .25585938H.16699219C.1789856 .38816834 .27598573 .41523744 .32299806 .41523744 .46199037 .41523744 .46899415 .28492738 .46998597 .25585938Z"/>
<path id="font_1_105" d="M.44400025 .12608338V.18099976H.4019928V.1290741C.4019928 .05419922 .35798646 .025253296 .32299806 .025253296 .24598694 .025253296 .24598694 .1051178 .24598694 .12608338V.3866577H.4229889V.43066407H.24598694V.6142578H.20399475C.20298767 .52046206 .15299988 .4226532 .050994874 .41966249V.3866577H.15699768V.12608338C.15699768 .012252808 .25099183-.0107421879 .31298829-.0107421879 .3880005-.011001587 .44400025 .04399109 .44400025 .12599182V.12608338Z"/>
<path id="font_1_76" d="M.8969879 .63861086V.6826172C.85198977 .6796112 .80799868 .6786041 .7630005 .6786041 .7350006 .6786041 .66999819 .6796112 .6289978 .6826172V.63861086C.73999026 .63861086 .73999026 .5976105 .73999026 .5716095V.15660095L.30899049 .6706085C.29899598 .6826172 .29699708 .6826172 .2769928 .6826172H.08299255V.63861086H.12199402C.13398743 .63861086 .17999268 .63760378 .18998719 .63461306 .19299317 .63261416 .19400025 .63160708 .19400025 .61561587V.11061096C.19400025 .084609989 .19400025 .04360962 .08299255 .04360962V-.00039672853C.12799073 .002609253 .17199707 .0036010743 .21699524 .0036010743 .24499512 .0036010743 .30999757 .002609253 .35099793-.00039672853V.04360962C.23999024 .04360962 .23999024 .084609989 .23999024 .11061096V.6056061L.73799136 .0116119389C.7480011-.00039672853 .7519989-.00039672853 .7630005-.00039672853 .7859955-.00039672853 .7859955 .008605957 .7859955 .02960205V.5716095C.7859955 .5976105 .7859955 .63861086 .8969879 .63861086Z"/>
<path id="font_1_109" d="M.68299868 .00024414063V.04425049C.60899356 .04425049 .59999087 .051254274 .59999087 .1002655V.4423828L.42799378 .43138124V.38737489C.5019989 .38737489 .5109863 .3803711 .5109863 .33135987V.16828919C.5109863 .07626343 .44198609 .022247315 .3600006 .022247315 .2579956 .022247315 .2539978 .06326294 .2539978 .11427307V.4423828L.08198547 .43138124V.38737489C.15899658 .38737489 .16499329 .379364 .16499329 .32835389V.11027527C.17399597-.0017547608 .2869873-.0107421879 .35198976-.0107421879 .43598939-.0107421879 .4850006 .027252198 .5149994 .07426453V-.0107421879L.68299868 .00024414063Z"/>
<path id="font_1_72" d="M.33399964 0V.04399109H.31599427C.25099183 .04399109 .25099183 .052993776 .25099183 .08401489V.69433596L.08299255 .6826172V.63861086C.15699768 .63861086 .1659851 .6316223 .1659851 .5826416V.083969119C.1659851 .052993776 .1659851 .04399109 .100997928 .04399109H.08299255V0C.125 .0029907227 .1659851 .0039978029 .20799256 .0039978029 .25 .0039978029 .2919922 .0029907227 .33399964 0Z"/>
<path id="font_2_1" d="M.84098818 .55859377C.84799197 .56759646 .84799197 .56959536 .86099246 .5836029 .8789978 .6036072 .9079895 .63360598 .97299197 .63760378 .98399356 .63861086 1 .63861086 1 .66560366 1 .6716156 .99598696 .6826172 .98399356 .6826172 .9700012 .6826172 .95399478 .6796112 .93899539 .6796112 .923996 .6796112 .9079895 .6786041 .8929901 .6786041 .8739929 .6786041 .85598757 .6796112 .83799746 .6796112 .81999209 .6796112 .798996 .6826172 .7809906 .6826172 .7649994 .6826172 .7569885 .6716156 .7569885 .65460208 .7569885 .63861086 .772995 .63760378 .7799988 .63760378 .79499819 .63661196 .82099917 .63261416 .82099917 .61260989 .82099917 .6056061 .81700137 .5935974 .8029938 .5746002L.45199586 .092544559 .33599855 .6026001C.33399964 .61260989 .33399964 .61460879 .33399964 .6175995 .33399964 .63160708 .3659973 .63760378 .40098573 .63760378 .4139862 .63760378 .43099977 .63760378 .43099977 .66560366 .43099977 .6736145 .4249878 .6826172 .41299439 .6826172 .3919983 .6826172 .36799623 .6796112 .34599305 .6796112 .32199098 .6796112 .29899598 .6786041 .2749939 .6786041 .2539978 .6786041 .23199463 .6796112 .21099854 .6796112 .19198609 .6796112 .16999817 .6826172 .1519928 .6826172 .14498902 .6826172 .12799073 .6826172 .12799073 .65460208 .12799073 .63760378 .14199829 .63760378 .1599884 .63760378 .21899414 .63760378 .21998596 .63061526 .22499085 .6096039L.3619995 .0065307619C.36698915-.014465332 .36898805-.022460938 .3939972-.022460938 .4059906-.022460938 .4189911-.022460938 .43598939 .0005340576L.84098818 .55859377Z"/>
<path id="font_3_1" d="M.8799896 .2223053C.8959961 .2223053 .9229889 .2223053 .9229889 .25030519 .9229889 .2783203 .8959961 .2783203 .8799896 .2783203H.20298767C.18699646 .2783203 .1599884 .2783203 .1599884 .25030519 .1599884 .2223053 .18699646 .2223053 .20298767 .2223053H.8799896Z"/>
<path id="font_4_1" d="M.5419922 .22167969H.8899994C.9029999 .22167969 .9299927 .22167969 .9299927 .24967957 .9299927 .27767945 .9029999 .27767945 .8899994 .27767945H.5419922V.6259613C.5419922 .63998416 .5419922 .6669922 .5139923 .6669922 .48599244 .6669922 .48599244 .63998416 .48599244 .6259613V.27767945H.13699341C.12399292 .27767945 .09700012 .27767945 .09700012 .24967957 .09700012 .22167969 .12399292 .22167969 .13699341 .22167969H.48599244V-.12602234C.48599244-.13999939 .48599244-.16699219 .5139923-.16699219 .5419922-.16699219 .5419922-.13999939 .5419922-.12602234V.22167969Z"/>
<path id="font_2_2" d="M.5069885 .37800599C.47200013 .36798097 .46699525 .33798219 .46699525 .32798768 .46699525 .30297853 .48799134 .2919922 .5049896 .2919922 .5169983 .2919922 .55799868 .3009796 .55799868 .35398866 .55799868 .42137147 .47898866 .4423828 .4039917 .4423828 .23498535 .4423828 .20298767 .33898927 .20298767 .30297853 .20298767 .26701356 .22399903 .24604798 .24198914 .23207093 .269989 .21209717 .2999878 .20809937 .35299684 .19911194 .41600038 .18913269 .48599244 .17814636 .48599244 .12716675 .48599244 .12617493 .48599244 .023254395 .3019867 .023254395 .2639923 .023254395 .20199585 .026245118 .16999817 .057174684 .20599365 .06517029 .22200012 .094177249 .22200012 .11817932 .22200012 .1461792 .20098877 .15917969 .1789856 .15917969 .14498902 .15917969 .114990238 .13217163 .114990238 .08717346 .114990238-.0107421879 .2709961-.0107421879 .2999878-.0107421879 .5049896-.0107421879 .5399933 .107177738 .5399933 .1481781 .5399933 .23806763 .42999269 .2550354 .37799073 .26402284 .30699159 .27500917 .2579956 .2829895 .2579956 .32398988 .2579956 .3249817 .2579956 .40837098 .4019928 .40837098 .42799378 .40837098 .48098756 .40634156 .5069885 .37800599Z"/>
<path id="font_1_81" d="M.61499026 .21324158C.61499026 .33824159 .49699403 .4482422 .33999635 .4482422 .18299866 .4482422 .06498718 .33824159 .06498718 .21324158 .06498718 .09324646 .18399048-.0107421879 .33999635-.0107421879 .49699403-.0107421879 .61499026 .09324646 .61499026 .21324158M.5149994 .22323609C.5149994 .17424011 .5149994 .025253296 .33999635 .025253296 .16499329 .025253296 .16499329 .17424011 .16499329 .22323609 .16499329 .26823426 .16499329 .41523744 .33999635 .41523744 .5149994 .41523744 .5149994 .26823426 .5149994 .22323609Z"/>
<path id="font_1_108" d="M.8969879 .63861086V.6826172C.84799197 .6796112 .7779999 .6786041 .7639923 .6786041 .73999026 .6786041 .6759949 .6796112 .6309967 .6826172V.63861086C.74198916 .63861086 .74198916 .5975952 .74198916 .57159426V.2325592C.74198916 .09954834 .6299896 .021530152 .5059967 .021530152 .43899537 .021530152 .2999878 .05053711 .2999878 .2285614V.5975952C.2999878 .6286011 .2999878 .63861086 .3809967 .63861086H.41099549V.6826172L.24699402 .6786041 .08299255 .6826172V.63861086H.11299133C.19400025 .63861086 .19400025 .6286011 .19400025 .5975952V.2305603C.19400025 .08354187 .33898927-.022460938 .5039978-.022460938 .6619873-.022460938 .7859955 .089538577 .7859955 .22955323V.57159426C.7859955 .5975952 .7859955 .63861086 .8969879 .63861086Z"/>
<path id="font_1_47" d="M.6729889 0V.04399109C.598999 .04399109 .58999636 .050994874 .58999636 .10002136V.69433596L.42199708 .6826172V.63861086C.49598695 .63861086 .5049896 .6316376 .5049896 .5828247V.3883667C.48298646 .40737916 .42900086 .4423828 .34599305 .4423828 .19599915 .4423828 .07199097 .34135438 .07199097 .21531677 .07199097 .0942688 .18499756-.0107421879 .33399964-.0107421879 .41600038-.0107421879 .47299195 .025253296 .5009918 .04925537V-.0107421879L.6729889 0M.5009918 .10899353C.45298768 .03526306 .3789978 .022247315 .33999635 .022247315 .2899933 .022247315 .23999024 .042266847 .20698548 .08628845 .1749878 .12731934 .17199707 .18435669 .17199707 .21539307 .17199707 .24240113 .17399597 .30845643 .21699524 .3544922 .2519989 .39048768 .3039856 .40948487 .35299684 .40948487 .38198854 .40948487 .45298768 .40348817 .5009918 .33546449V.10899353Z"/>
<path id="font_5_1" d="M.7519989 .22024536C.7669983 .22024536 .7969971 .22024536 .7969971 .25024415 .7969971 .28125 .7679901 .28125 .7519989 .28125H.14099121C.12599182 .28125 .09599304 .28125 .09599304 .25123597 .09599304 .22024536 .125 .22024536 .14099121 .22024536H.7519989Z"/>
<path id="font_6_1" d="M.47698976 .22024536H.7859955C.798996 .22024536 .82899478 .22024536 .82899478 .25024415 .82899478 .28125 .7999878 .28125 .7859955 .28125H.47698976V.5908356C.47698976 .6028137 .47698976 .6328125 .44699098 .6328125 .41600038 .6328125 .41600038 .6038208 .41600038 .5908356V.28125H.10699463C.09298706 .28125 .06399536 .28125 .06399536 .25024415 .06399536 .22024536 .09399414 .22024536 .10699463 .22024536H.41600038V-.08984375C.41600038-.10183716 .41600038-.13183594 .44599916-.13183594 .47698976-.13183594 .47698976-.10284424 .47698976-.08984375V.22024536Z"/>
</defs>
<path transform="matrix(1.00003,0,0,-1.00002,52.177125,33.746355)" stroke-width=".3985" stroke-linecap="butt" stroke-miterlimit="10" stroke-linejoin="miter" fill="none" stroke="#000000" d="M0 0"/>
<path transform="matrix(1.00003,0,0,-1.00002,52.177125,33.746355)" stroke-width=".797" stroke-linecap="butt" stroke-miterlimit="10" stroke-linejoin="miter" fill="none" stroke="#000000" d="M-23.81116-31.7478H23.811152V31.74782H-23.81116Z"/>
<path transform="matrix(1.00003,0,0,-1.00002,52.177125,33.746355)" stroke-width=".797" stroke-linecap="butt" stroke-miterlimit="10" stroke-linejoin="miter" fill="none" stroke="#000000" d="M-4.76215 31.7478C-4.76215 29.1177-2.63008 26.98564 0 26.98564 2.63008 26.98564 4.76215 29.1177 4.76215 31.7478"/>
<use data-text="1" xlink:href="#font_1_82" transform="matrix(4.9814498,0,0,-4.9813997,21.453202,11.593908)"/>
<use data-text="2" xlink:href="#font_1_107" transform="matrix(4.9814498,0,0,-4.9813997,21.453202,27.468228)"/>
<use data-text="3" xlink:href="#font_1_106" transform="matrix(4.9814498,0,0,-4.9813997,21.453202,43.287546)"/>
<use data-text="4" xlink:href="#font_1_57" transform="matrix(4.9814498,0,0,-4.9813997,21.453202,59.243867)"/>
<use data-text="5" xlink:href="#font_1_56" transform="matrix(4.9814498,0,0,-4.9813997,79.50894,59.161867)"/>
<use data-text="6" xlink:href="#font_1_101" transform="matrix(4.9814498,0,0,-4.9813997,79.50894,43.287546)"/>
<use data-text="7" xlink:href="#font_1_100" transform="matrix(4.9814498,0,0,-4.9813997,79.50894,27.438227)"/>
<use data-text="8" xlink:href="#font_1_51" transform="matrix(4.9814498,0,0,-4.9813997,79.50894,11.538908)"/>
<use data-text="O" xlink:href="#font_1_80" transform="matrix(4.9814498,0,0,-4.9813997,1.2175903,8.674852)"/>
<use data-text="f" xlink:href="#font_1_122" transform="matrix(4.9814498,0,0,-4.9813997,6.338516,8.674852)"/>
<use data-text="s" xlink:href="#font_1_98" transform="matrix(4.9814498,0,0,-4.9813997,10.697296,8.674852)"/>
<use data-text="e" xlink:href="#font_1_50" transform="matrix(4.9814498,0,0,-4.9813997,13.432114,8.674852)"/>
<use data-text="t" xlink:href="#font_1_105" transform="matrix(4.9814498,0,0,-4.9813997,16.475785,8.674852)"/>
<use data-text="N" xlink:href="#font_1_76" transform="matrix(4.9814498,0,0,-4.9813997,3.8776704,14.652971)"/>
<use data-text="u" xlink:href="#font_1_109" transform="matrix(4.9814498,0,0,-4.9813997,8.764481,14.652971)"/>
<use data-text="l" xlink:href="#font_1_72" transform="matrix(4.9814498,0,0,-4.9813997,12.500565,14.652971)"/>
<use data-text="l" xlink:href="#font_1_72" transform="matrix(4.9814498,0,0,-4.9813997,14.508087,14.652971)"/>
<use data-text="V" xlink:href="#font_2_1" transform="matrix(4.9814498,0,0,-4.9813997,9.15683,26.293204)"/>
<use data-text="&#x2212;" xlink:href="#font_3_1" transform="matrix(4.9814498,0,0,-4.9813997,13.279953,27.898236)"/>
<use data-text="V" xlink:href="#font_2_1" transform="matrix(4.9814498,0,0,-4.9813997,9.433838,42.16752)"/>
<use data-text="+" xlink:href="#font_4_1" transform="matrix(4.9814498,0,0,-4.9813997,13.556961,43.772554)"/>
<use data-text="V" xlink:href="#font_2_1" transform="matrix(4.9814498,0,0,-4.9813997,5.818741,58.04184)"/>
<use data-text="s" xlink:href="#font_2_2" transform="matrix(4.9814498,0,0,-4.9813997,9.941864,59.646875)"/>
<use data-text="&#x2212;" xlink:href="#font_3_1" transform="matrix(4.9814498,0,0,-4.9813997,13.279968,59.646875)"/>
<use data-text="O" xlink:href="#font_1_80" transform="matrix(4.9814498,0,0,-4.9813997,85.178119,56.296808)"/>
<use data-text="f" xlink:href="#font_1_122" transform="matrix(4.9814498,0,0,-4.9813997,90.29904,56.296808)"/>
<use data-text="s" xlink:href="#font_1_98" transform="matrix(4.9814498,0,0,-4.9813997,94.65782,56.296808)"/>
<use data-text="e" xlink:href="#font_1_50" transform="matrix(4.9814498,0,0,-4.9813997,97.39264,56.296808)"/>
<use data-text="t" xlink:href="#font_1_105" transform="matrix(4.9814498,0,0,-4.9813997,100.43631,56.296808)"/>
<use data-text="N" xlink:href="#font_1_76" transform="matrix(4.9814498,0,0,-4.9813997,87.838199,62.274927)"/>
<use data-text="u" xlink:href="#font_1_109" transform="matrix(4.9814498,0,0,-4.9813997,92.725009,62.274927)"/>
<use data-text="l" xlink:href="#font_1_72" transform="matrix(4.9814498,0,0,-4.9813997,96.46109,62.274927)"/>
<use data-text="l" xlink:href="#font_1_72" transform="matrix(4.9814498,0,0,-4.9813997,98.46861,62.274927)"/>
<use data-text="V" xlink:href="#font_2_1" transform="matrix(4.9814498,0,0,-4.9813997,85.178119,42.684534)"/>
<use data-text="o" xlink:href="#font_1_81" transform="matrix(4.9814498,0,0,-4.9813997,89.30124,44.03256)"/>
<use data-text="u" xlink:href="#font_1_109" transform="matrix(4.9814498,0,0,-4.9813997,92.69362,44.03256)"/>
<use data-text="t" xlink:href="#font_1_105" transform="matrix(4.9814498,0,0,-4.9813997,96.4297,44.03256)"/>
<use data-text="V" xlink:href="#font_2_1" transform="matrix(4.9814498,0,0,-4.9813997,85.178119,26.293204)"/>
<use data-text="s" xlink:href="#font_2_2" transform="matrix(4.9814498,0,0,-4.9813997,89.30124,27.898236)"/>
<use data-text="+" xlink:href="#font_4_1" transform="matrix(4.9814498,0,0,-4.9813997,92.63934,27.898236)"/>
<use data-text="N" xlink:href="#font_1_76" transform="matrix(4.9814498,0,0,-4.9813997,86.88916,8.59185)"/>
<use data-text="o" xlink:href="#font_1_81" transform="matrix(4.9814498,0,0,-4.9813997,91.77597,8.59185)"/>
<use data-text="t" xlink:href="#font_1_105" transform="matrix(4.9814498,0,0,-4.9813997,95.16835,8.59185)"/>
<use data-text="U" xlink:href="#font_1_108" transform="matrix(4.9814498,0,0,-4.9813997,85.178119,14.569969)"/>
<use data-text="s" xlink:href="#font_1_98" transform="matrix(4.9814498,0,0,-4.9813997,90.064929,14.569969)"/>
<use data-text="e" xlink:href="#font_1_50" transform="matrix(4.9814498,0,0,-4.9813997,92.79974,14.569969)"/>
<use data-text="d" xlink:href="#font_1_47" transform="matrix(4.9814498,0,0,-4.9813997,95.843418,14.569969)"/>
<path transform="matrix(1.00003,0,0,-1.00002,52.177125,33.746355)" stroke-width=".797" stroke-linecap="butt" stroke-miterlimit="10" stroke-linejoin="miter" fill="none" stroke="#000000" d="M9.44492 0-9.44489 11.11166V-11.11166Z"/>
<path transform="matrix(1.00003,0,0,-1.00002,52.177125,33.746355)" stroke-width=".3985" stroke-linecap="square" stroke-miterlimit="10" stroke-linejoin="miter" fill="none" stroke="#000000" d="M-13.49278 5.55583H-9.44489M-13.49278-5.55583H-9.44489M13.49278 0H9.44489"/>
<use data-text="&#x2212;" xlink:href="#font_5_1" transform="matrix(3.9851597,0,0,-3.9851199,44.05868,29.187064)"/>
<use data-text="+" xlink:href="#font_6_1" transform="matrix(3.9851597,0,0,-3.9851199,44.05868,40.298288)"/>
<path transform="matrix(1.00003,0,0,-1.00002,52.177125,33.746355)" stroke-width=".3985" stroke-linecap="butt" stroke-miterlimit="10" stroke-linejoin="miter" fill="none" stroke="#000000" d="M-23.81116 7.93695H-13.49278V5.55583"/>
<path transform="matrix(1.00003,0,0,-1.00002,52.177125,33.746355)" stroke-width=".3985" stroke-linecap="butt" stroke-miterlimit="10" stroke-linejoin="miter" fill="none" stroke="#000000" d="M-23.81116-7.93695H-13.49278V-5.55583"/>
<path transform="matrix(1.00003,0,0,-1.00002,52.177125,33.746355)" stroke-width=".3985" stroke-linecap="butt" stroke-miterlimit="10" stroke-linejoin="miter" fill="none" stroke="#000000" d="M23.81116-7.93695H13.49278V0"/>
<path transform="matrix(1.00003,0,0,-1.00002,52.177125,33.746355)" stroke-width=".3985" stroke-linecap="butt" stroke-miterlimit="10" stroke-linejoin="miter" fill="none" stroke="#000000" d="M-23.81116-23.81085H-.94453V-6.11145"/>
<path transform="matrix(1.00003,0,0,-1.00002,52.177125,33.746355)" stroke-width=".3985" stroke-linecap="butt" stroke-miterlimit="10" stroke-linejoin="miter" fill="none" stroke="#000000" d="M23.81116 7.93695H-.94453V6.11145"/>
</svg>
