<svg xmlns="http://www.w3.org/2000/svg" xmlns:xlink="http://www.w3.org/1999/xlink" xmlns:inkscape="http://www.inkscape.org/namespaces/inkscape" version="1.1" width="151" height="77" viewBox="0 0 151 77">
<defs>
<path id="font_1_3" d="M.6279907 .5686035C.6769867 .64660647 .71899417 .6496124 .7559967 .6516113 .7679901 .65260317 .7689972 .6696167 .7689972 .6706085 .7689972 .6786041 .7639923 .6826172 .7559967 .6826172 .7299957 .6826172 .70098879 .6796112 .673996 .6796112 .6409912 .6796112 .6069946 .6826172 .57499697 .6826172 .56900027 .6826172 .55599978 .6826172 .55599978 .66360476 .55599978 .65260317 .5649872 .6516113 .57199099 .6516113 .598999 .6496124 .6179962 .63960269 .6179962 .61860659 .6179962 .6036072 .6029968 .581604 .6029968 .5805969L.29599 .092544559 .22799683 .62161257C.22799683 .63861086 .25099183 .6516113 .29699708 .6516113 .31098939 .6516113 .32199098 .6516113 .32199098 .6716156 .32199098 .680603 .31399537 .6826172 .30799867 .6826172 .2679901 .6826172 .22499085 .6796112 .18399048 .6796112 .1659851 .6796112 .14698792 .680603 .1289978 .680603 .11099243 .680603 .09199524 .6826172 .07499695 .6826172 .067993167 .6826172 .055999757 .6826172 .055999757 .66360476 .055999757 .6516113 .06498718 .6516113 .08099365 .6516113 .13699341 .6516113 .13798523 .64260867 .14099121 .6175995L.21998596 .0005340576C.22299195-.019470215 .22698975-.022460938 .23999024-.022460938 .2559967-.022460938 .2599945-.017471314 .2679901-.004470825L.6279907 .5686035Z"/>
<path id="font_2_66" d="M.27398683 0V.035995485C.21598816 .035995485 .20599365 .035995485 .20599365 .07803345V.44140626L.05899048 .43052674V.39453126C.12199402 .39453126 .1309967 .3885193 .1309967 .33952333V.07952881C.1309967 .035995485 .12098694 .035995485 .055999757 .035995485V0C.055999757 0 .12799073 .0039978029 .16799927 .0039978029 .20298767 .0039978029 .23899842 .0029907227 .27398683 0M.21899414 .60214236C.21899414 .6341553 .19400025 .66015627 .1619873 .66015627 .12799073 .66015627 .10499573 .6321411 .10499573 .6031494 .10499573 .57115176 .12998963 .54515078 .1619873 .54515078 .19599915 .54515078 .21899414 .57315066 .21899414 .60214236Z"/>
<path id="font_2_77" d="M.58999636 0V.035995485C.5249939 .035995485 .5149994 .035995485 .5149994 .07904053V.3032837C.5149994 .3903656 .47200013 .44140626 .36499024 .44140626 .2829895 .44140626 .22999573 .39637757 .20199585 .34432984H.20098877V.44140626L.053985597 .43052674V.39453126C.12098694 .39453126 .1289978 .3875122 .1289978 .33843995V.079055789C.1289978 .035995485 .11898804 .035995485 .053985597 .035995485V0C.053985597 0 .12599182 .0039978029 .16799927 .0039978029 .20498657 .0039978029 .27398683 .0009918213 .2829895 0V.035995485C.21798706 .035995485 .20799256 .035995485 .20799256 .079055789V.25932313C.20799256 .36434938 .29100038 .4133911 .35699464 .4133911 .4269867 .4133911 .43598939 .3583374 .43598939 .3072815V.07904053C.43598939 .035995485 .42599488 .035995485 .36099244 .035995485V0C.36099244 0 .43299867 .0039978029 .47499085 .0039978029 .5119934 .0039978029 .58099368 .0009918213 .58999636 0Z"/>
<path id="font_1_1" d="M.37399293 .6046295C.3829956 .64060977 .38598634 .6516113 .47999574 .6516113 .5099945 .6516113 .5179901 .6516113 .5179901 .6706085 .5179901 .6826172 .5069885 .6826172 .5019989 .6826172 .46899415 .6826172 .3869934 .6796112 .35398866 .6796112 .32398988 .6796112 .25099183 .6826172 .22099304 .6826172 .21398926 .6826172 .20199585 .6826172 .20199585 .6626129 .20199585 .6516113 .21099854 .6516113 .22999573 .6516113 .23199463 .6516113 .25099183 .6516113 .2679901 .6496124 .28599549 .6476135 .29499818 .64660647 .29499818 .6336212 .29499818 .6296234 .2939911 .62661746 .29100038 .614624L.15699768 .07795715C.14698792 .038986207 .14498902 .0309906 .06599426 .0309906 .04899597 .0309906 .038986207 .0309906 .038986207 .010986328 .038986207 0 .04798889 0 .06599426 0H.5289917C.5529938 0 .55400088 0 .55999758 .016998291L.6389923 .23286438C.6429901 .24386597 .6429901 .24586487 .6429901 .24685669 .6429901 .2508545 .6399994 .25785829 .6309967 .25785829 .621994 .25785829 .62098696 .2528534 .6139984 .23686219 .5799866 .14492798 .5359955 .0309906 .36299134 .0309906H.2689972C.25498963 .0309906 .25299073 .0309906 .24699402 .03199768 .23699951 .032989503 .23399353 .033996583 .23399353 .041992189 .23399353 .04498291 .23399353 .04698181 .23899842 .064971927L.37399293 .6046295Z"/>
<path id="font_1_2" d="M.375 .6136017C.3809967 .63760378 .38398744 .6476135 .40299989 .65060427 .4119873 .6516113 .44400025 .6516113 .46398927 .6516113 .5349884 .6516113 .6459961 .6516113 .6459961 .5525818 .6459961 .51856997 .6299896 .44955445 .59098818 .41055299 .5649872 .38453675 .5119934 .35253907 .42199708 .35253907H.30999757L.375 .6136017M.5189972 .33953858C.6199951 .3615265 .7389984 .43154908 .7389984 .5325775 .7389984 .61860659 .6489868 .6826172 .5179901 .6826172H.23298645C.21299744 .6826172 .20399475 .6826172 .20399475 .6626129 .20399475 .6516113 .21299744 .6516113 .23199463 .6516113 .23399353 .6516113 .25299073 .6516113 .269989 .6496124 .28799439 .6476135 .29699708 .64660647 .29699708 .63360598 .29699708 .62960818 .29599 .6266022 .29299928 .6145935L.15899658 .07752991C.14898682 .038528444 .14698792 .030532837 .067993167 .030532837 .049987794 .030532837 .040985109 .030532837 .040985109 .010528564 .040985109-.00047302247 .052993776-.00047302247 .054992677-.00047302247 .08299255-.00047302247 .15299988 .002532959 .18099976 .002532959 .20899964 .002532959 .27999879-.00047302247 .30799867-.00047302247 .31599427-.00047302247 .32798768-.00047302247 .32798768 .01953125 .32798768 .030532837 .31900025 .030532837 .2999878 .030532837 .2630005 .030532837 .23498535 .030532837 .23498535 .048538209 .23498535 .054534913 .23699951 .059524537 .23799134 .0655365L.3039856 .3305359H.4229889C.5139923 .3305359 .5319977 .27453614 .5319977 .23953247 .5319977 .22453308 .5239868 .19352722 .5179901 .17053223 .5109863 .14253235 .5019989 .105529788 .5019989 .08552551 .5019989-.022460938 .621994-.022460938 .6349945-.022460938 .7200012-.022460938 .7549896 .07853699 .7549896 .0925293 .7549896 .104537967 .74398806 .104537967 .7429962 .104537967 .73399356 .104537967 .7319946 .09753418 .7299957 .090530399 .7049866 .016525269 .6619873-.00047302247 .6389923-.00047302247 .60598757-.00047302247 .598999 .021530152 .598999 .060531618 .598999 .091537479 .6049957 .14253235 .60899356 .17453003 .61099246 .1885376 .61299136 .20753479 .61299136 .2215271 .61299136 .2985382 .54599 .3295288 .5189972 .33953858Z"/>
<path id="font_2_81" d="M.5289917 .21325684C.5289917 .3382721 .42199708 .44628907 .28399659 .44628907 .1459961 .44628907 .038986207 .3382721 .038986207 .21325684 .038986207 .0892334 .14898682-.009765625 .28399659-.009765625 .4189911-.009765625 .5289917 .0892334 .5289917 .21325684M.43798829 .22225952C.43798829 .17424011 .43499757 .12124634 .4059906 .08023071 .3789978 .042236329 .33299256 .022232056 .28399659 .022232056 .24699402 .022232056 .19299317 .034225465 .1599884 .083236698 .1329956 .12423706 .12998963 .17625427 .12998963 .22225952 .12998963 .2652588 .1309967 .32426454 .1659851 .36727906 .19099427 .39627076 .23298645 .41827394 .28399659 .41827394 .34298707 .41827394 .3849945 .39027406 .40699769 .3592682 .43499757 .32026673 .43798829 .27026368 .43798829 .22225952Z"/>
<path id="font_2_109" d="M.58999636 0V.035995485C.522995 .035995485 .5149994 .042999269 .5149994 .092056278V.44140626L.36099244 .43052674V.39453126C.42799378 .39439393 .43598939 .3874359 .43598939 .33872987V.16749573C.43598939 .079330448 .3789978 .018234253 .30299378 .018234253 .21199036 .018234253 .20799256 .061309816 .20799256 .11239624V.44140626L.053985597 .43052674V.39453126C.1289978 .39453126 .1289978 .39154054 .1289978 .30273438V.15246582C.1289978 .083343509 .1289978-.009765625 .29599-.009765625 .31799317-.009765625 .3909912-.009765625 .43899537 .07432556H.43998719V-.009765625L.58999636 0Z"/>
<path id="font_2_105" d="M.375 .12606812V.1809845H.34098817V.12705994C.34098817 .059173585 .30899049 .022232056 .269989 .022232056 .20098877 .022232056 .20098877 .10609436 .20098877 .124069217V.39465333H.35699464V.43066407H.20098877V.6142578H.16699219C.1659851 .5244446 .125 .42565919 .0289917 .4226532V.39465333H.12199402V.1250763C.12199402 .01322937 .20599365-.009765625 .2619934-.009765625 .32899476-.010009766 .375 .04699707 .375 .12599182V.12606812Z"/>
</defs>
<path transform="matrix(1.00005,0,0,-1.00005,28.177605,74.0441)" stroke-width=".3985" stroke-linecap="butt" stroke-miterlimit="10" stroke-linejoin="miter" fill="none" stroke="#000000" d="M0 0"/>
<path transform="matrix(1.00005,0,0,-1.00005,28.177605,74.0441)" stroke-width=".3985" stroke-linecap="butt" stroke-miterlimit="10" stroke-linejoin="miter" fill="none" stroke="#000000" d="M0 0V16.44109M0 40.25252V56.69362H16.44109M40.25252 56.69362H56.69362V44.221M56.69362 12.47261V0H28.3468M28.3468 0H0"/>
<path transform="matrix(1.00005,0,0,-1.00005,28.177605,74.0441)" stroke-width=".797" stroke-linecap="butt" stroke-miterlimit="10" stroke-linejoin="miter" fill="none" stroke="#000000" d="M-11.90572 28.3468C-11.90572 21.77138-6.57541 16.44109 0 16.44109 6.57541 16.44109 11.90572 21.77138 11.90572 28.3468 11.90572 34.92223 6.57541 40.25252 0 40.25252-6.57541 40.25252-11.90572 34.92223-11.90572 28.3468ZM0 28.3468"/>
<path transform="matrix(1.00005,0,0,-1.00005,28.177605,74.0441)" stroke-width=".797" stroke-linecap="butt" stroke-miterlimit="10" stroke-linejoin="miter" fill="none" stroke="#000000" d="M5.95285 28.3468C4.98253 26.82289 4.0539 25.37038 2.97643 25.37038 1.89896 25.37038 .97032 26.82288 0 28.3468-.9703 29.87071-1.89894 31.32323-2.97643 31.32323-4.05388 31.32323-4.98251 29.87073-5.95285 28.3468"/>
<use data-text="V" xlink:href="#font_1_3" transform="matrix(9.963098,0,0,-9.963098,.50722506,47.84279)"/>
<use data-text="i" xlink:href="#font_2_66" transform="matrix(6.9741489,0,0,-6.9741489,6.318512,49.336866)"/>
<use data-text="n" xlink:href="#font_2_77" transform="matrix(6.9741489,0,0,-6.9741489,8.571167,49.336866)"/>
<path transform="matrix(1.00005,0,0,-1.00005,28.177605,74.0441)" stroke-width=".797" stroke-linecap="butt" stroke-linejoin="bevel" fill="none" stroke="#000000" d="M16.04257 56.53423C16.04257 59.82191 17.67732 62.48708 19.69392 62.48708 21.71053 62.48708 23.34528 59.82191 23.34528 56.53423 23.34528 54.89046 22.67902 53.55795 21.85713 53.55795 21.03526 53.55795 20.369 54.89046 20.369 56.53423 20.369 59.82191 22.00375 62.48708 24.02036 62.48708 26.03696 62.48708 27.67169 59.82191 27.67169 56.53423 27.67169 54.89046 27.00545 53.55795 26.18356 53.55795 25.36168 53.55795 24.69542 54.89046 24.69542 56.53423 24.69542 59.82191 26.33017 62.48708 28.34677 62.48708 30.36337 62.48708 31.99812 59.82191 31.99812 56.53423 31.99812 54.89046 31.33186 53.55795 30.50998 53.55795 29.68811 53.55795 29.02185 54.89046 29.02185 56.53423 29.02185 59.82191 30.65659 62.48708 32.67319 62.48708 34.6898 62.48708 36.32454 59.82191 36.32454 56.53423 36.32454 54.89046 35.65828 53.55795 34.83641 53.55795 34.01453 53.55795 33.34827 54.89046 33.34827 56.53423 33.34827 59.82191 34.98302 62.48708 36.99962 62.48708 39.01622 62.48708 40.65097 59.82191 40.65097 56.53423"/>
<use data-text="L" xlink:href="#font_1_1" transform="matrix(9.963098,0,0,-9.963098,53.135854,7.578781)"/>
<path transform="matrix(1.00005,0,0,-1.00005,28.177605,74.0441)" stroke-width=".797" stroke-linecap="butt" stroke-linejoin="bevel" fill="none" stroke="#000000" d="M56.69362 44.6195 62.64647 41.5753 50.74075 36.28392 62.64647 30.99254 50.74075 25.70116 62.64647 20.40977 50.74075 15.1184 56.69362 12.07419"/>
<path transform="matrix(1.00005,0,0,-1.00005,28.177605,74.0441)" d="M58.28076 56.69362C58.28076 57.57018 57.57018 58.28076 56.69362 58.28076 55.81705 58.28076 55.10646 57.57018 55.10646 56.69362 55.10646 55.81705 55.81705 55.10646 56.69362 55.10646 57.57018 55.10646 58.28076 55.81705 58.28076 56.69362ZM56.69362 56.69362"/>
<path transform="matrix(1.00005,0,0,-1.00005,28.177605,74.0441)" stroke-width=".3985" stroke-linecap="butt" stroke-miterlimit="10" stroke-linejoin="miter" fill="none" stroke="#000000" d="M58.28076 56.69362C58.28076 57.57018 57.57018 58.28076 56.69362 58.28076 55.81705 58.28076 55.10646 57.57018 55.10646 56.69362 55.10646 55.81705 55.81705 55.10646 56.69362 55.10646 57.57018 55.10646 58.28076 55.81705 58.28076 56.69362ZM56.69362 56.69362"/>
<path transform="matrix(1.00005,0,0,-1.00005,28.177605,74.0441)" d="M58.28076 0C58.28076 .87656 57.57018 1.58714 56.69362 1.58714 55.81705 1.58714 55.10646 .87656 55.10646 0 55.10646-.87656 55.81705-1.58714 56.69362-1.58714 57.57018-1.58714 58.28076-.87656 58.28076 0ZM56.69362 0"/>
<path transform="matrix(1.00005,0,0,-1.00005,28.177605,74.0441)" stroke-width=".3985" stroke-linecap="butt" stroke-miterlimit="10" stroke-linejoin="miter" fill="none" stroke="#000000" d="M58.28076 0C58.28076 .87656 57.57018 1.58714 56.69362 1.58714 55.81705 1.58714 55.10646 .87656 55.10646 0 55.10646-.87656 55.81705-1.58714 56.69362-1.58714 57.57018-1.58714 58.28076-.87656 58.28076 0ZM56.69362 0"/>
<use data-text="R" xlink:href="#font_1_2" transform="matrix(9.963098,0,0,-9.963098,69.07365,47.84279)"/>
<path transform="matrix(1.00005,0,0,-1.00005,28.177605,74.0441)" stroke-width=".3985" stroke-linecap="butt" stroke-miterlimit="10" stroke-linejoin="miter" fill="none" stroke="#000000" d="M56.69362 56.69362H85.04042M85.04042 56.69362H113.38724"/>
<path transform="matrix(1.00005,0,0,-1.00005,28.177605,74.0441)" d="M114.97438 56.69362C114.97438 57.57018 114.2638 58.28076 113.38724 58.28076 112.51067 58.28076 111.80008 57.57018 111.80008 56.69362 111.80008 55.81705 112.51067 55.10646 113.38724 55.10646 114.2638 55.10646 114.97438 55.81705 114.97438 56.69362ZM113.38724 56.69362" fill="#ffffff"/>
<path transform="matrix(1.00005,0,0,-1.00005,28.177605,74.0441)" stroke-width=".3985" stroke-linecap="butt" stroke-miterlimit="10" stroke-linejoin="miter" fill="none" stroke="#000000" d="M114.97438 56.69362C114.97438 57.57018 114.2638 58.28076 113.38724 58.28076 112.51067 58.28076 111.80008 57.57018 111.80008 56.69362 111.80008 55.81705 112.51067 55.10646 113.38724 55.10646 114.2638 55.10646 114.97438 55.81705 114.97438 56.69362ZM113.38724 56.69362"/>
<path transform="matrix(1.00005,0,0,-1.00005,28.177605,74.0441)" d="" fill="#ffffff"/>
<path transform="matrix(1.00005,0,0,-1.00005,28.177605,74.0441)" stroke-width=".3985" stroke-linecap="butt" stroke-miterlimit="10" stroke-linejoin="miter" fill="none" stroke="#000000" d=""/>
<path transform="matrix(1.00005,0,0,-1.00005,28.177605,74.0441)" stroke-width=".3985" stroke-linecap="butt" stroke-miterlimit="10" stroke-linejoin="miter" fill="none" stroke="#000000" d="M56.69362 0H85.04042M85.04042 0H113.38724"/>
<path transform="matrix(1.00005,0,0,-1.00005,28.177605,74.0441)" d="M114.97438 0C114.97438 .87656 114.2638 1.58714 113.38724 1.58714 112.51067 1.58714 111.80008 .87656 111.80008 0 111.80008-.87656 112.51067-1.58714 113.38724-1.58714 114.2638-1.58714 114.97438-.87656 114.97438 0ZM113.38724 0" fill="#ffffff"/>
<path transform="matrix(1.00005,0,0,-1.00005,28.177605,74.0441)" stroke-width=".3985" stroke-linecap="butt" stroke-miterlimit="10" stroke-linejoin="miter" fill="none" stroke="#000000" d="M114.97438 0C114.97438 .87656 114.2638 1.58714 113.38724 1.58714 112.51067 1.58714 111.80008 .87656 111.80008 0 111.80008-.87656 112.51067-1.58714 113.38724-1.58714 114.2638-1.58714 114.97438-.87656 114.97438 0ZM113.38724 0"/>
<path transform="matrix(1.00005,0,0,-1.00005,28.177605,74.0441)" d="" fill="#ffffff"/>
<path transform="matrix(1.00005,0,0,-1.00005,28.177605,74.0441)" stroke-width=".3985" stroke-linecap="butt" stroke-miterlimit="10" stroke-linejoin="miter" fill="none" stroke="#000000" d=""/>
<use data-text="V" xlink:href="#font_1_3" transform="matrix(9.963098,0,0,-9.963098,132.67581,48.31781)"/>
<use data-text="o" xlink:href="#font_2_81" transform="matrix(6.9741489,0,0,-6.9741489,138.4871,49.81189)"/>
<use data-text="u" xlink:href="#font_2_109" transform="matrix(6.9741489,0,0,-6.9741489,142.4554,49.81189)"/>
<use data-text="t" xlink:href="#font_2_105" transform="matrix(6.9741489,0,0,-6.9741489,146.85608,49.81189)"/>
</svg>
