<svg xmlns="http://www.w3.org/2000/svg" xmlns:xlink="http://www.w3.org/1999/xlink" xmlns:inkscape="http://www.inkscape.org/namespaces/inkscape" version="1.1" width="212" height="157" viewBox="0 0 212 157">
<defs>
<path id="font_1_2" d="M.6279907 .5686035C.6769867 .64660647 .71899417 .6496124 .7559967 .6516113 .7679901 .65260317 .7689972 .6696167 .7689972 .6706085 .7689972 .6786041 .7639923 .6826172 .7559967 .6826172 .7299957 .6826172 .70098879 .6796112 .673996 .6796112 .6409912 .6796112 .6069946 .6826172 .57499697 .6826172 .56900027 .6826172 .55599978 .6826172 .55599978 .66360476 .55599978 .65260317 .5649872 .6516113 .57199099 .6516113 .598999 .6496124 .6179962 .63960269 .6179962 .61860659 .6179962 .6036072 .6029968 .581604 .6029968 .5805969L.29599 .092544559 .22799683 .62161257C.22799683 .63861086 .25099183 .6516113 .29699708 .6516113 .31098939 .6516113 .32199098 .6516113 .32199098 .6716156 .32199098 .680603 .31399537 .6826172 .30799867 .6826172 .2679901 .6826172 .22499085 .6796112 .18399048 .6796112 .1659851 .6796112 .14698792 .680603 .1289978 .680603 .11099243 .680603 .09199524 .6826172 .07499695 .6826172 .067993167 .6826172 .055999757 .6826172 .055999757 .66360476 .055999757 .6516113 .06498718 .6516113 .08099365 .6516113 .13699341 .6516113 .13798523 .64260867 .14099121 .6175995L.21998596 .0005340576C.22299195-.019470215 .22698975-.022460938 .23999024-.022460938 .2559967-.022460938 .2599945-.017471314 .2679901-.004470825L.6279907 .5686035Z"/>
<path id="font_2_66" d="M.27398683 0V.035995485C.21598816 .035995485 .20599365 .035995485 .20599365 .07803345V.44140626L.05899048 .43052674V.39453126C.12199402 .39453126 .1309967 .3885193 .1309967 .33952333V.07952881C.1309967 .035995485 .12098694 .035995485 .055999757 .035995485V0C.055999757 0 .12799073 .0039978029 .16799927 .0039978029 .20298767 .0039978029 .23899842 .0029907227 .27398683 0M.21899414 .60214236C.21899414 .6341553 .19400025 .66015627 .1619873 .66015627 .12799073 .66015627 .10499573 .6321411 .10499573 .6031494 .10499573 .57115176 .12998963 .54515078 .1619873 .54515078 .19599915 .54515078 .21899414 .57315066 .21899414 .60214236Z"/>
<path id="font_2_77" d="M.58999636 0V.035995485C.5249939 .035995485 .5149994 .035995485 .5149994 .07904053V.3032837C.5149994 .3903656 .47200013 .44140626 .36499024 .44140626 .2829895 .44140626 .22999573 .39637757 .20199585 .34432984H.20098877V.44140626L.053985597 .43052674V.39453126C.12098694 .39453126 .1289978 .3875122 .1289978 .33843995V.079055789C.1289978 .035995485 .11898804 .035995485 .053985597 .035995485V0C.053985597 0 .12599182 .0039978029 .16799927 .0039978029 .20498657 .0039978029 .27398683 .0009918213 .2829895 0V.035995485C.21798706 .035995485 .20799256 .035995485 .20799256 .079055789V.25932313C.20799256 .36434938 .29100038 .4133911 .35699464 .4133911 .4269867 .4133911 .43598939 .3583374 .43598939 .3072815V.07904053C.43598939 .035995485 .42599488 .035995485 .36099244 .035995485V0C.36099244 0 .43299867 .0039978029 .47499085 .0039978029 .5119934 .0039978029 .58099368 .0009918213 .58999636 0Z"/>
<path id="font_1_3" d="M.28399659 .6252594C.28399659 .6452637 .269989 .6612549 .24699402 .6612549 .21998596 .6612549 .19299317 .6352539 .19299317 .6082611 .19299317 .5892639 .20698548 .5722656 .23098755 .5722656 .2539978 .5722656 .28399659 .5952606 .28399659 .6252594M.20799256 .24932862C.21998596 .27833558 .21998596 .28033448 .22999573 .30734254 .23799134 .3273468 .24299622 .34135438 .24299622 .36035157 .24299622 .405365 .21099854 .4423828 .16099549 .4423828 .066986087 .4423828 .0289917 .29733277 .0289917 .28833009 .0289917 .27833558 .038986207 .27833558 .040985109 .27833558 .050994874 .27833558 .051986696 .28033448 .056991579 .29634095 .083999637 .3903656 .12399292 .42037965 .1579895 .42037965 .1659851 .42037965 .18299866 .42037965 .18299866 .3883667 .18299866 .36735536 .17599488 .346344 .17199707 .3363495 .1639862 .31033326 .11898804 .19430542 .102996829 .1512909 .09298706 .12528992 .07998657 .0922699 .07998657 .0712738 .07998657 .024261475 .11399841-.0107421879 .1619873-.0107421879 .2559967-.0107421879 .29299928 .1342926 .29299928 .14329529 .29299928 .1532898 .28399659 .1532898 .2809906 .1532898 .2709961 .1532898 .2709961 .15029907 .2659912 .13528443 .24798584 .072265628 .21499634 .011245728 .1639862 .011245728 .14698792 .011245728 .13999939 .021255494 .13999939 .044265748 .13999939 .0692749 .1459961 .08326721 .16899109 .14428711L.20799256 .24932862Z"/>
<path id="font_3_1" d="M.33499146 .63612368C.33499146 .6630554 .33299256 .6640625 .30499269 .6640625 .24099732 .6014404 .1499939 .6004486 .10899353 .6004486V.5644531C.1329956 .5644531 .19898987 .5644531 .2539978 .592453V.08203125C.2539978 .04899597 .2539978 .035995485 .1539917 .035995485H.115997318V0C.13398743 .0009918213 .25698854 .0039978029 .2939911 .0039978029 .32499696 .0039978029 .45098878 .0009918213 .47299195 0V.035995485H.43499757C.33499146 .035995485 .33499146 .04899597 .33499146 .08203125V.63612368Z"/>
<path id="font_1_1" d="M.15899658 .07795715C.14898682 .038986207 .14698792 .0309906 .067993167 .0309906 .050994874 .0309906 .039993287 .0309906 .039993287 .011993408 .039993287 0 .04899597 0 .067993167 0H.39898683C.6069946 0 .80400088 .21087647 .80400088 .42974855 .80400088 .5706482 .71899417 .6826172 .56900027 .6826172H.23298645C.21398926 .6826172 .20298767 .6826172 .20298767 .66360476 .20298767 .6516113 .21199036 .6516113 .23199463 .6516113 .24499512 .6516113 .2630005 .65060427 .2749939 .6496124 .29100038 .6476135 .29699708 .64460757 .29699708 .6336212 .29699708 .6296234 .29599 .62661746 .29299928 .614624L.15899658 .07795715M.375 .6136322C.38398744 .64860537 .38598634 .6516113 .42900086 .6516113H.5359955C.6339874 .6516113 .71699526 .5986328 .71699526 .46672059 .71699526 .41775514 .69699099 .25386048 .6119995 .1439209 .58299258 .10694885 .5039978 .0309906 .3809967 .0309906H.2679901C.2539978 .0309906 .2519989 .0309906 .24598694 .03199768 .23599243 .032989503 .23298645 .033996583 .23298645 .041992189 .23298645 .04498291 .23298645 .04698181 .23799134 .064971927L.375 .6136322Z"/>
<path id="font_3_3" d="M.272995 .33428956C.35099793 .33428956 .40699769 .2803192 .40699769 .1733551 .40699769 .04940796 .33499146 .012466431 .2769928 .012466431 .23699951 .012466431 .14898682 .0234375 .10699463 .082351688 .1539917 .084350589 .16499329 .11735535 .16499329 .13835144 .16499329 .17034912 .14099121 .19335938 .10998535 .19335938 .08198547 .19335938 .053985597 .17634583 .053985597 .13534546 .053985597 .041412355 .1579895-.01953125 .2789917-.01953125 .41799928-.01953125 .5139923 .07336426 .5139923 .1733551 .5139923 .2513275 .44999696 .32929994 .33999635 .35229493 .44499208 .39024354 .48298646 .4650879 .48298646 .5260773 .48298646 .60505679 .3919983 .6640625 .2809906 .6640625 .16999817 .6640625 .084991458 .61006167 .084991458 .5300751 .084991458 .49606324 .10699463 .47706605 .13699341 .47706605 .16799927 .47706605 .18798828 .5000763 .18798828 .5280762 .18798828 .5570679 .16799927 .57806399 .13699341 .5800781 .17199707 .62405398 .24099732 .63505557 .27799989 .63505557 .32299806 .63505557 .38598634 .6130676 .38598634 .5260773 .38598634 .48406983 .37199403 .43814088 .34599305 .4072113 .31298829 .36927796 .2849884 .3672943 .23498535 .36428834 .20999146 .3623047 .20799256 .3623047 .20298767 .3612976 .20098877 .3612976 .19299317 .3592987 .19299317 .34829713 .19299317 .33428956 .20199585 .33428956 .21899414 .33428956H.272995Z"/>
<path id="font_3_4" d="M.5289917 .1640625V.20005799H.41799928V.64582827C.41799928 .66682437 .41799928 .6738281 .3959961 .6738281 .38398744 .6738281 .37998963 .6738281 .36999513 .65982058L.038986207 .20005799V.1640625H.33299256V.08201599C.33299256 .04800415 .33299256 .035995485 .2519989 .035995485H.22499085V0C.2749939 .0019989014 .33898927 .0039978029 .375 .0039978029 .4119873 .0039978029 .47599793 .0019989014 .526001 0V.035995485H.49899293C.41799928 .035995485 .41799928 .04800415 .41799928 .08201599V.1640625H.5289917M.33999635 .5658722V.20005799H.07598877L.33999635 .5658722Z"/>
<path id="font_3_2" d="M.5049896 .18203736H.47099305C.46798707 .16001892 .45799256 .100997928 .44499208 .09098816 .43699647 .084991458 .3600006 .084991458 .34599305 .084991458H.1619873C.2669983 .17803955 .3019867 .20603943 .3619995 .25306703 .43598939 .312088 .5049896 .374115 .5049896 .46914674 .5049896 .5900879 .39898683 .6640625 .2709961 .6640625 .14698792 .6640625 .06298828 .57710269 .06298828 .4851532 .06298828 .43414308 .10598755 .42915345 .115997318 .42915345 .13999939 .42915345 .16899109 .44615174 .16899109 .48214723 .16899109 .5001526 .1619873 .53515627 .10998535 .53515627 .14099121 .6060791 .20899964 .62805178 .2559967 .62805178 .35598756 .62805178 .4079895 .5501404 .4079895 .46914674 .4079895 .38212586 .34599305 .3130951 .31399537 .27708436L.07299805 .038986207C.06298828 .02999878 .06298828 .027999878 .06298828 0H.47499085L.5049896 .18203736Z"/>
<path id="font_3_5" d="M.15499878 .5588074C.20599365 .5458069 .23599243 .5458069 .2519989 .5458069 .38398744 .5458069 .46199037 .6358032 .46199037 .6508026 .46199037 .6618042 .45498658 .6648102 .44999696 .6648102 .44799806 .6648102 .44599916 .6648102 .44198609 .6618042 .41799928 .6528015 .36499024 .6328125 .29100038 .6328125 .2630005 .6328125 .20999146 .6348114 .14498902 .6598053 .1349945 .6648102 .1329956 .6648102 .13198853 .6648102 .11898804 .6648102 .11898804 .6538086 .11898804 .6378021V.34251405C.11898804 .32548524 .11898804 .3134613 .1349945 .3134613 .14399719 .3134613 .14498902 .3154602 .15499878 .32748414 .19799805 .38259889 .25898744 .390625 .2939911 .390625 .35398866 .390625 .3809967 .34251405 .38598634 .33450318 .4039917 .30143739 .4099884 .26335145 .4099884 .20524597 .4099884 .17524719 .4099884 .116256717 .37998963 .07234192 .35499574 .03640747 .31199647 .012466431 .2630005 .012466431 .19799805 .012466431 .1309967 .04838562 .10598755 .11425781 .14399719 .11125183 .16299439 .13624573 .16299439 .16325379 .16299439 .20625305 .12599182 .21424866 .11299133 .21424866 .11099243 .21424866 .06298828 .21424866 .06298828 .1602478 .06298828 .07034302 .14498902-.01953125 .2649994-.01953125 .3929901-.01953125 .5049896 .07533264 .5049896 .20124817 .5049896 .31445313 .4189911 .41862489 .29499818 .41862489 .25099183 .41862489 .19898987 .4076233 .15499878 .36956788V.5588074Z"/>
<path id="font_4_95" d="M.7319946 .08753967C.7319946 .09353638 .7319946 .104537967 .71899417 .104537967 .70799258 .104537967 .70799258 .09555054 .70700076 .08854675 .70098879 .017532349 .66600039-.00047302247 .6409912-.00047302247 .59199526-.00047302247 .58399966 .05053711 .56999209 .14355469L.5569916 .22355652C.5389862 .28756715 .48999024 .3205719 .43499757 .3395691 .5319977 .36357118 .6100006 .4245758 .6100006 .502594 .6100006 .5986023 .49598695 .6826172 .34899903 .6826172H.034988405V.6516113H.05899048C.13598633 .6516113 .13798523 .64060977 .13798523 .604599V.077545169C.13798523 .04197693 .13598633 .0309906 .05899048 .0309906H.034988405V0C.070999149 .0029907227 .14199829 .0029907227 .18099976 .0029907227 .21998596 .0029907227 .29100038 .0029907227 .32699586 0V.0309906H.30299378C.22599793 .0309906 .22399903 .04197693 .22399903 .077926639V.3305359H.33898927C.35499574 .3305359 .39698792 .3305359 .43199159 .29658509 .46998597 .26063539 .46998597 .22969055 .46998597 .16279602 .46998597 .09788513 .46998597 .05795288 .5109863 .019989014 .5519867-.016464234 .6069946-.022460938 .6369934-.022460938 .71499636-.022460938 .7319946 .059524537 .7319946 .087524417V.08753967M.5069885 .5025635C.5069885 .43354798 .48298646 .35253907 .33499146 .35253907H.22399903V.6116028C.22399903 .6345978 .22399903 .64660647 .24598694 .6496124 .2559967 .6516113 .2849884 .6516113 .30499269 .6516113 .394989 .6516113 .5069885 .6476135 .5069885 .5025635Z"/>
<path id="font_3_6" d="M.1499939 .3274536C.1499939 .40945436 .15699768 .48303224 .19499207 .543869 .22898865 .5978699 .2829895 .63505557 .34700013 .63505557 .3769989 .63505557 .4169922 .62701418 .43699647 .5998688 .4119873 .5978699 .3909912 .5808716 .3909912 .5518799 .3909912 .5268707 .4079895 .5048828 .43798829 .5048828 .46798707 .5048828 .48599244 .5248718 .48599244 .5538788 .48599244 .6119385 .44400025 .6640625 .34498597 .6640625 .20098877 .6640625 .053985597 .5318756 .053985597 .3174591 .053985597 .05845642 .17599488-.01953125 .28599549-.01953125 .4079895-.01953125 .5139923 .07345581 .5139923 .20445252 .5139923 .33145143 .41299439 .42546083 .29599 .42546083 .21598816 .42546083 .17199707 .37245179 .1499939 .3274536M.28599549 .012466431C.23599243 .012466431 .19699097 .04145813 .17599488 .08546448 .16099549 .11546326 .15299988 .16545105 .15299988 .22544861 .15299988 .32244874 .21099854 .39746095 .29100038 .39746095 .33699037 .39746095 .36799623 .37945558 .3929901 .342453 .4169922 .30445863 .41799928 .26245118 .41799928 .20445252 .41799928 .14746094 .41799928 .10545349 .3909912 .066467288 .36698915 .031463624 .33499146 .012466431 .28599549 .012466431Z"/>
</defs>
<path transform="matrix(1.00005,0,0,-1.00002,28.177605,155.23986)" stroke-width=".3985" stroke-linecap="butt" stroke-miterlimit="10" stroke-linejoin="miter" fill="none" stroke="#000000" d="M0 0"/>
<path transform="matrix(1.00005,0,0,-1.00002,28.177605,155.23986)" stroke-width=".3985" stroke-linecap="butt" stroke-miterlimit="10" stroke-linejoin="miter" fill="none" stroke="#000000" d="M0 0V58.96129M0 82.77272V141.73404L56.69362 141.73403M56.69362 141.73403 113.38724 141.73404V134.64734M113.38724 134.64734V127.56064L90.6527 104.8261M79.42816 93.60156 56.69362 70.86702 79.42816 48.13248M90.6527 36.90794 113.38724 14.1734V7.0867M113.38724 7.0867V0H56.69362M56.69362 0H0"/>
<path transform="matrix(1.00005,0,0,-1.00002,28.177605,155.23986)" stroke-width=".797" stroke-linecap="butt" stroke-miterlimit="10" stroke-linejoin="miter" fill="none" stroke="#000000" d="M-11.90572 70.867C-11.90572 64.2916-6.57541 58.96129 0 58.96129 6.57541 58.96129 11.90572 64.2916 11.90572 70.867 11.90572 77.44243 6.57541 82.77272 0 82.77272-6.57541 82.77272-11.90572 77.44243-11.90572 70.867ZM0 70.867"/>
<path transform="matrix(1.00005,0,0,-1.00002,28.177605,155.23986)" stroke-width=".797" stroke-linecap="butt" stroke-miterlimit="10" stroke-linejoin="miter" fill="none" stroke="#000000" d="M5.95285 70.867C4.98253 69.34311 4.0539 67.89058 2.97643 67.89058 1.89896 67.89058 .97032 69.3431 0 70.867-.9703 72.39091-1.89894 73.84343-2.97643 73.84343-4.05388 73.84343-4.98251 72.39093-5.95285 70.867"/>
<use data-text="V" xlink:href="#font_1_2" transform="matrix(9.963098,0,0,-9.962799,.50722506,86.51848)"/>
<use data-text="i" xlink:href="#font_2_66" transform="matrix(6.9741489,0,0,-6.97394,6.318512,88.01251)"/>
<use data-text="n" xlink:href="#font_2_77" transform="matrix(6.9741489,0,0,-6.97394,8.571167,88.01251)"/>
<path transform="matrix(1.00005,0,0,-1.00002,28.177605,155.23986)" d="M54.9574 141.73403V139.74977L59.17393 141.73403 54.9574 143.71828Z"/>
<path transform="matrix(1.00005,0,0,-1.00002,28.177605,155.23986)" stroke-width=".3985" stroke-linecap="butt" stroke-miterlimit="10" stroke-linejoin="miter" fill="none" stroke="#000000" d="M54.9574 141.73403V139.74977L59.17393 141.73403 54.9574 143.71828Z"/>
<use data-text="i" xlink:href="#font_1_3" transform="matrix(9.963098,0,0,-9.962799,80.92324,8.488907)"/>
<use data-text="1" xlink:href="#font_3_1" transform="matrix(6.9741489,0,0,-6.97394,84.355419,9.982941)"/>
<path transform="matrix(1.00005,0,0,-1.00002,28.177605,155.23986)" d="M114.97438 127.56064C114.97438 128.43721 114.2638 129.1478 113.38724 129.1478 112.51067 129.1478 111.80008 128.43721 111.80008 127.56064 111.80008 126.68408 112.51067 125.9735 113.38724 125.9735 114.2638 125.9735 114.97438 126.68408 114.97438 127.56064ZM113.38724 127.56064"/>
<path transform="matrix(1.00005,0,0,-1.00002,28.177605,155.23986)" stroke-width=".3985" stroke-linecap="butt" stroke-miterlimit="10" stroke-linejoin="miter" fill="none" stroke="#000000" d="M114.97438 127.56064C114.97438 128.43721 114.2638 129.1478 113.38724 129.1478 112.51067 129.1478 111.80008 128.43721 111.80008 127.56064 111.80008 126.68408 112.51067 125.9735 113.38724 125.9735 114.2638 125.9735 114.97438 126.68408 114.97438 127.56064ZM113.38724 127.56064"/>
<path transform="matrix(1.00005,0,0,-1.00002,28.177605,155.23986)" stroke-width=".797" stroke-linecap="butt" stroke-miterlimit="10" stroke-linejoin="miter" fill="none" stroke="#000000" d="M90.65271 104.82611 86.4436 86.58612 72.4127 100.61702Z"/>
<path transform="matrix(1.00005,0,0,-1.00002,28.177605,155.23986)" stroke-width=".797" stroke-linecap="butt" stroke-miterlimit="10" stroke-linejoin="miter" fill="none" stroke="#000000" d="M83.63724 111.84155 97.66814 97.81065"/>
<path transform="matrix(1.00005,0,0,-1.00002,28.177605,155.23986)" d="M58.28076 70.86702C58.28076 71.74359 57.57018 72.45418 56.69362 72.45418 55.81705 72.45418 55.10646 71.74359 55.10646 70.86702 55.10646 69.99046 55.81705 69.27988 56.69362 69.27988 57.57018 69.27988 58.28076 69.99046 58.28076 70.86702ZM56.69362 70.86702"/>
<path transform="matrix(1.00005,0,0,-1.00002,28.177605,155.23986)" stroke-width=".3985" stroke-linecap="butt" stroke-miterlimit="10" stroke-linejoin="miter" fill="none" stroke="#000000" d="M58.28076 70.86702C58.28076 71.74359 57.57018 72.45418 56.69362 72.45418 55.81705 72.45418 55.10646 71.74359 55.10646 70.86702 55.10646 69.99046 55.81705 69.27988 56.69362 69.27988 57.57018 69.27988 58.28076 69.99046 58.28076 70.86702ZM56.69362 70.86702"/>
<use data-text="D" xlink:href="#font_1_1" transform="matrix(9.963098,0,0,-9.962799,91.55677,43.10961)"/>
<use data-text="1" xlink:href="#font_3_1" transform="matrix(6.9741489,0,0,-6.97394,99.80518,44.603647)"/>
<path transform="matrix(1.00005,0,0,-1.00002,28.177605,155.23986)" d="M69.28856 83.46198 67.8855 84.86504 66.30702 80.48044 70.69162 82.0589Z"/>
<path transform="matrix(1.00005,0,0,-1.00002,28.177605,155.23986)" stroke-width=".3985" stroke-linecap="butt" stroke-miterlimit="10" stroke-linejoin="miter" fill="none" stroke="#000000" d="M69.28856 83.46198 67.8855 84.86504 66.30702 80.48044 70.69162 82.0589Z"/>
<use data-text="i" xlink:href="#font_1_3" transform="matrix(9.963098,0,0,-9.962799,84.819438,67.990108)"/>
<use data-text="3" xlink:href="#font_3_3" transform="matrix(6.9741489,0,0,-6.97394,88.25161,69.48414)"/>
<use data-text="V" xlink:href="#font_1_2" transform="matrix(9.963098,0,0,-9.962799,71.072757,87.02849)"/>
<use data-text="1" xlink:href="#font_3_1" transform="matrix(6.9741489,0,0,-6.97394,76.88403,88.52252)"/>
<path transform="matrix(1.00005,0,0,-1.00002,28.177605,155.23986)" stroke-width=".797" stroke-linecap="butt" stroke-miterlimit="10" stroke-linejoin="miter" fill="none" stroke="#000000" d="M90.65271 36.90793 86.4436 55.14793 72.4127 41.11702Z"/>
<path transform="matrix(1.00005,0,0,-1.00002,28.177605,155.23986)" stroke-width=".797" stroke-linecap="butt" stroke-miterlimit="10" stroke-linejoin="miter" fill="none" stroke="#000000" d="M83.63724 29.89249 97.66814 43.9234"/>
<path transform="matrix(1.00005,0,0,-1.00002,28.177605,155.23986)" d="M114.97438 14.1734C114.97438 15.04997 114.2638 15.76056 113.38724 15.76056 112.51067 15.76056 111.80008 15.04997 111.80008 14.1734 111.80008 13.29684 112.51067 12.58626 113.38724 12.58626 114.2638 12.58626 114.97438 13.29684 114.97438 14.1734ZM113.38724 14.1734"/>
<path transform="matrix(1.00005,0,0,-1.00002,28.177605,155.23986)" stroke-width=".3985" stroke-linecap="butt" stroke-miterlimit="10" stroke-linejoin="miter" fill="none" stroke="#000000" d="M114.97438 14.1734C114.97438 15.04997 114.2638 15.76056 113.38724 15.76056 112.51067 15.76056 111.80008 15.04997 111.80008 14.1734 111.80008 13.29684 112.51067 12.58626 113.38724 12.58626 114.2638 12.58626 114.97438 13.29684 114.97438 14.1734ZM113.38724 14.1734"/>
<use data-text="D" xlink:href="#font_1_1" transform="matrix(9.963098,0,0,-9.962799,91.55677,130.41536)"/>
<use data-text="3" xlink:href="#font_3_3" transform="matrix(6.9741489,0,0,-6.97394,99.80518,131.9094)"/>
<path transform="matrix(1.00005,0,0,-1.00002,28.177605,155.23986)" d="M100.79227 26.76836 99.3892 25.36528 103.7738 23.78682 102.19534 28.17142Z"/>
<path transform="matrix(1.00005,0,0,-1.00002,28.177605,155.23986)" stroke-width=".3985" stroke-linecap="butt" stroke-miterlimit="10" stroke-linejoin="miter" fill="none" stroke="#000000" d="M100.79227 26.76836 99.3892 25.36528 103.7738 23.78682 102.19534 28.17142Z"/>
<use data-text="i" xlink:href="#font_1_3" transform="matrix(9.963098,0,0,-9.962799,118.78013,139.78955)"/>
<use data-text="4" xlink:href="#font_3_4" transform="matrix(6.9741489,0,0,-6.97394,122.2123,141.28359)"/>
<path transform="matrix(1.00005,0,0,-1.00002,28.177605,155.23986)" stroke-width=".3985" stroke-linecap="butt" stroke-miterlimit="10" stroke-linejoin="miter" fill="none" stroke="#000000" d="M113.38724 127.56064 136.12178 104.8261M147.34632 93.60156 170.08086 70.86702 147.34632 48.13248M136.12178 36.90794 113.38724 14.1734"/>
<path transform="matrix(1.00005,0,0,-1.00002,28.177605,155.23986)" stroke-width=".797" stroke-linecap="butt" stroke-miterlimit="10" stroke-linejoin="miter" fill="none" stroke="#000000" d="M147.34633 93.60155 143.13722 111.84155 129.10633 97.81065Z"/>
<path transform="matrix(1.00005,0,0,-1.00002,28.177605,155.23986)" stroke-width=".797" stroke-linecap="butt" stroke-miterlimit="10" stroke-linejoin="miter" fill="none" stroke="#000000" d="M140.33086 86.58612 154.36176 100.61702"/>
<path transform="matrix(1.00005,0,0,-1.00002,28.177605,155.23986)" d="M171.668 70.86702C171.668 71.74359 170.95742 72.45418 170.08086 72.45418 169.20429 72.45418 168.4937 71.74359 168.4937 70.86702 168.4937 69.99046 169.20429 69.27988 170.08086 69.27988 170.95742 69.27988 171.668 69.99046 171.668 70.86702ZM170.08086 70.86702"/>
<path transform="matrix(1.00005,0,0,-1.00002,28.177605,155.23986)" stroke-width=".3985" stroke-linecap="butt" stroke-miterlimit="10" stroke-linejoin="miter" fill="none" stroke="#000000" d="M171.668 70.86702C171.668 71.74359 170.95742 72.45418 170.08086 72.45418 169.20429 72.45418 168.4937 71.74359 168.4937 70.86702 168.4937 69.99046 169.20429 69.27988 170.08086 69.27988 170.95742 69.27988 171.668 69.99046 171.668 70.86702ZM170.08086 70.86702"/>
<use data-text="D" xlink:href="#font_1_1" transform="matrix(9.963098,0,0,-9.962799,178.86612,43.10961)"/>
<use data-text="2" xlink:href="#font_3_2" transform="matrix(6.9741489,0,0,-6.97394,187.11454,44.603647)"/>
<path transform="matrix(1.00005,0,0,-1.00002,28.177605,155.23986)" d="M157.48589 83.46198 156.08283 82.0589 160.46743 80.48044 158.88896 84.86504Z"/>
<path transform="matrix(1.00005,0,0,-1.00002,28.177605,155.23986)" stroke-width=".3985" stroke-linecap="butt" stroke-miterlimit="10" stroke-linejoin="miter" fill="none" stroke="#000000" d="M157.48589 83.46198 156.08283 82.0589 160.46743 80.48044 158.88896 84.86504Z"/>
<use data-text="i" xlink:href="#font_1_3" transform="matrix(9.963098,0,0,-9.962799,190.4187,67.990108)"/>
<use data-text="2" xlink:href="#font_3_2" transform="matrix(6.9741489,0,0,-6.97394,193.85089,69.48414)"/>
<use data-text="V" xlink:href="#font_1_2" transform="matrix(9.963098,0,0,-9.962799,201.78726,87.02849)"/>
<use data-text="2" xlink:href="#font_3_2" transform="matrix(6.9741489,0,0,-6.97394,207.59856,88.52252)"/>
<path transform="matrix(1.00005,0,0,-1.00002,28.177605,155.23986)" stroke-width=".797" stroke-linecap="butt" stroke-miterlimit="10" stroke-linejoin="miter" fill="none" stroke="#000000" d="M147.34633 48.13249 143.13722 29.89249 129.10633 43.9234Z"/>
<path transform="matrix(1.00005,0,0,-1.00002,28.177605,155.23986)" stroke-width=".797" stroke-linecap="butt" stroke-miterlimit="10" stroke-linejoin="miter" fill="none" stroke="#000000" d="M140.33086 55.14793 154.36176 41.11702"/>
<use data-text="D" xlink:href="#font_1_1" transform="matrix(9.963098,0,0,-9.962799,178.86612,130.41536)"/>
<use data-text="4" xlink:href="#font_3_4" transform="matrix(6.9741489,0,0,-6.97394,187.11454,131.9094)"/>
<path transform="matrix(1.00005,0,0,-1.00002,28.177605,155.23986)" d="M125.98218 26.76836 124.57912 28.17142 123.00064 23.78682 127.38524 25.36528Z"/>
<path transform="matrix(1.00005,0,0,-1.00002,28.177605,155.23986)" stroke-width=".3985" stroke-linecap="butt" stroke-miterlimit="10" stroke-linejoin="miter" fill="none" stroke="#000000" d="M125.98218 26.76836 124.57912 28.17142 123.00064 23.78682 127.38524 25.36528Z"/>
<use data-text="i" xlink:href="#font_1_3" transform="matrix(9.963098,0,0,-9.962799,156.45801,139.78955)"/>
<use data-text="5" xlink:href="#font_3_5" transform="matrix(6.9741489,0,0,-6.97394,159.8902,141.28359)"/>
<path transform="matrix(1.00005,0,0,-1.00002,28.177605,155.23986)" stroke-width=".3985" stroke-linecap="butt" stroke-miterlimit="10" stroke-linejoin="miter" fill="none" stroke="#000000" d="M170.08086 70.86702H129.26143M97.51303 70.86702H56.69362"/>
<path transform="matrix(1.00005,0,0,-1.00002,28.177605,155.23986)" stroke-width=".797" stroke-linecap="butt" stroke-linejoin="bevel" fill="none" stroke="#000000" d="M129.65993 70.86702 126.58252 64.91417 121.2247 76.81987 115.86688 64.91417 110.50908 76.81987 105.15126 64.91417 99.79344 76.81987 97.11453 70.86702"/>
<use data-text="R" xlink:href="#font_4_95" transform="matrix(9.963098,0,0,-9.962799,137.90409,100.898769)"/>
<path transform="matrix(1.00005,0,0,-1.00002,28.177605,155.23986)" d="M78.83954 70.86702V72.85127L74.62299 70.86702 78.83954 68.88277Z"/>
<path transform="matrix(1.00005,0,0,-1.00002,28.177605,155.23986)" stroke-width=".3985" stroke-linecap="butt" stroke-miterlimit="10" stroke-linejoin="miter" fill="none" stroke="#000000" d="M78.83954 70.86702V72.85127L74.62299 70.86702 78.83954 68.88277Z"/>
<use data-text="i" xlink:href="#font_1_3" transform="matrix(9.963098,0,0,-9.962799,101.33326,94.46164)"/>
<use data-text="6" xlink:href="#font_3_6" transform="matrix(6.9741489,0,0,-6.97394,104.765438,95.95567)"/>
</svg>
