<svg xmlns="http://www.w3.org/2000/svg" xmlns:xlink="http://www.w3.org/1999/xlink" xmlns:inkscape="http://www.inkscape.org/namespaces/inkscape" version="1.1" width="164" height="76" viewBox="0 0 164 76">
<defs>
<path id="font_1_1" d="M.7519989 .22024536C.7669983 .22024536 .7969971 .22024536 .7969971 .25024415 .7969971 .28125 .7679901 .28125 .7519989 .28125H.14099121C.12599182 .28125 .09599304 .28125 .09599304 .25123597 .09599304 .22024536 .125 .22024536 .14099121 .22024536H.7519989Z"/>
<path id="font_2_1" d="M.47698976 .22024536H.7859955C.798996 .22024536 .82899478 .22024536 .82899478 .25024415 .82899478 .28125 .7999878 .28125 .7859955 .28125H.47698976V.5908356C.47698976 .6028137 .47698976 .6328125 .44699098 .6328125 .41600038 .6328125 .41600038 .6038208 .41600038 .5908356V.28125H.10699463C.09298706 .28125 .06399536 .28125 .06399536 .25024415 .06399536 .22024536 .09399414 .22024536 .10699463 .22024536H.41600038V-.08984375C.41600038-.10183716 .41600038-.13183594 .44599916-.13183594 .47698976-.13183594 .47698976-.10284424 .47698976-.08984375V.22024536Z"/>
<path id="font_3_1" d="M.6279907 .5686035C.6769867 .64660647 .71899417 .6496124 .7559967 .6516113 .7679901 .65260317 .7689972 .6696167 .7689972 .6706085 .7689972 .6786041 .7639923 .6826172 .7559967 .6826172 .7299957 .6826172 .70098879 .6796112 .673996 .6796112 .6409912 .6796112 .6069946 .6826172 .57499697 .6826172 .56900027 .6826172 .55599978 .6826172 .55599978 .66360476 .55599978 .65260317 .5649872 .6516113 .57199099 .6516113 .598999 .6496124 .6179962 .63960269 .6179962 .61860659 .6179962 .6036072 .6029968 .581604 .6029968 .5805969L.29599 .092544559 .22799683 .62161257C.22799683 .63861086 .25099183 .6516113 .29699708 .6516113 .31098939 .6516113 .32199098 .6516113 .32199098 .6716156 .32199098 .680603 .31399537 .6826172 .30799867 .6826172 .2679901 .6826172 .22499085 .6796112 .18399048 .6796112 .1659851 .6796112 .14698792 .680603 .1289978 .680603 .11099243 .680603 .09199524 .6826172 .07499695 .6826172 .067993167 .6826172 .055999757 .6826172 .055999757 .66360476 .055999757 .6516113 .06498718 .6516113 .08099365 .6516113 .13699341 .6516113 .13798523 .64260867 .14099121 .6175995L.21998596 .0005340576C.22299195-.019470215 .22698975-.022460938 .23999024-.022460938 .2559967-.022460938 .2599945-.017471314 .2679901-.004470825L.6279907 .5686035Z"/>
<path id="font_4_66" d="M.27398683 0V.035995485C.21598816 .035995485 .20599365 .035995485 .20599365 .07803345V.44140626L.05899048 .43052674V.39453126C.12199402 .39453126 .1309967 .3885193 .1309967 .33952333V.07952881C.1309967 .035995485 .12098694 .035995485 .055999757 .035995485V0C.055999757 0 .12799073 .0039978029 .16799927 .0039978029 .20298767 .0039978029 .23899842 .0029907227 .27398683 0M.21899414 .60214236C.21899414 .6341553 .19400025 .66015627 .1619873 .66015627 .12799073 .66015627 .10499573 .6321411 .10499573 .6031494 .10499573 .57115176 .12998963 .54515078 .1619873 .54515078 .19599915 .54515078 .21899414 .57315066 .21899414 .60214236Z"/>
<path id="font_4_77" d="M.58999636 0V.035995485C.5249939 .035995485 .5149994 .035995485 .5149994 .07904053V.3032837C.5149994 .3903656 .47200013 .44140626 .36499024 .44140626 .2829895 .44140626 .22999573 .39637757 .20199585 .34432984H.20098877V.44140626L.053985597 .43052674V.39453126C.12098694 .39453126 .1289978 .3875122 .1289978 .33843995V.079055789C.1289978 .035995485 .11898804 .035995485 .053985597 .035995485V0C.053985597 0 .12599182 .0039978029 .16799927 .0039978029 .20498657 .0039978029 .27398683 .0009918213 .2829895 0V.035995485C.21798706 .035995485 .20799256 .035995485 .20799256 .079055789V.25932313C.20799256 .36434938 .29100038 .4133911 .35699464 .4133911 .4269867 .4133911 .43598939 .3583374 .43598939 .3072815V.07904053C.43598939 .035995485 .42599488 .035995485 .36099244 .035995485V0C.36099244 0 .43299867 .0039978029 .47499085 .0039978029 .5119934 .0039978029 .58099368 .0009918213 .58999636 0Z"/>
<path id="font_4_81" d="M.5289917 .21325684C.5289917 .3382721 .42199708 .44628907 .28399659 .44628907 .1459961 .44628907 .038986207 .3382721 .038986207 .21325684 .038986207 .0892334 .14898682-.009765625 .28399659-.009765625 .4189911-.009765625 .5289917 .0892334 .5289917 .21325684M.43798829 .22225952C.43798829 .17424011 .43499757 .12124634 .4059906 .08023071 .3789978 .042236329 .33299256 .022232056 .28399659 .022232056 .24699402 .022232056 .19299317 .034225465 .1599884 .083236698 .1329956 .12423706 .12998963 .17625427 .12998963 .22225952 .12998963 .2652588 .1309967 .32426454 .1659851 .36727906 .19099427 .39627076 .23298645 .41827394 .28399659 .41827394 .34298707 .41827394 .3849945 .39027406 .40699769 .3592682 .43499757 .32026673 .43798829 .27026368 .43798829 .22225952Z"/>
<path id="font_4_109" d="M.58999636 0V.035995485C.522995 .035995485 .5149994 .042999269 .5149994 .092056278V.44140626L.36099244 .43052674V.39453126C.42799378 .39439393 .43598939 .3874359 .43598939 .33872987V.16749573C.43598939 .079330448 .3789978 .018234253 .30299378 .018234253 .21199036 .018234253 .20799256 .061309816 .20799256 .11239624V.44140626L.053985597 .43052674V.39453126C.1289978 .39453126 .1289978 .39154054 .1289978 .30273438V.15246582C.1289978 .083343509 .1289978-.009765625 .29599-.009765625 .31799317-.009765625 .3909912-.009765625 .43899537 .07432556H.43998719V-.009765625L.58999636 0Z"/>
<path id="font_4_105" d="M.375 .12606812V.1809845H.34098817V.12705994C.34098817 .059173585 .30899049 .022232056 .269989 .022232056 .20098877 .022232056 .20098877 .10609436 .20098877 .124069217V.39465333H.35699464V.43066407H.20098877V.6142578H.16699219C.1659851 .5244446 .125 .42565919 .0289917 .4226532V.39465333H.12199402V.1250763C.12199402 .01322937 .20599365-.009765625 .2619934-.009765625 .32899476-.010009766 .375 .04699707 .375 .12599182V.12606812Z"/>
</defs>
<path transform="matrix(1.00002,0,0,-1.00005,79.7793,29.778689)" stroke-width=".3985" stroke-linecap="butt" stroke-miterlimit="10" stroke-linejoin="miter" fill="none" stroke="#000000" d="M-33.7325 13.88982-47.9059 13.8898M-47.9059 13.8898-62.07932 13.88982M-33.7325-13.88982H-47.9059V-28.0632M33.7325 0H47.9059M47.9059 0H62.07932"/>
<path transform="matrix(1.00002,0,0,-1.00005,79.7793,29.778689)" stroke-width=".797" stroke-linecap="butt" stroke-miterlimit="10" stroke-linejoin="miter" fill="none" stroke="#000000" d="M23.61264 0-23.61263-27.77963V27.77963Z"/>
<path transform="matrix(1.00002,0,0,-1.00005,79.7793,29.778689)" stroke-width=".3985" stroke-linecap="square" stroke-miterlimit="10" stroke-linejoin="miter" fill="none" stroke="#000000" d="M-33.7325-13.88982H-23.61263M-33.7325 13.88982H-23.61263M33.7325 0H23.61263"/>
<use data-text="&#x2212;" xlink:href="#font_1_1" transform="matrix(9.962799,0,0,9.963098,59.483896,41.178258)"/>
<use data-text="+" xlink:href="#font_2_1" transform="matrix(9.962799,0,0,9.963098,59.483896,13.397869)"/>
<path transform="matrix(1.00002,0,0,-1.00005,79.7793,29.778689)" d="M-60.49216 13.88982C-60.49216 14.76637-61.20274 15.47696-62.07932 15.47696-62.95587 15.47696-63.66646 14.76637-63.66646 13.88982-63.66646 13.01324-62.95587 12.30266-62.07932 12.30266-61.20274 12.30266-60.49216 13.01324-60.49216 13.88982ZM-62.07932 13.88982" fill="#ffffff"/>
<path transform="matrix(1.00002,0,0,-1.00005,79.7793,29.778689)" stroke-width=".3985" stroke-linecap="butt" stroke-miterlimit="10" stroke-linejoin="miter" fill="none" stroke="#000000" d="M-60.49216 13.88982C-60.49216 14.76637-61.20274 15.47696-62.07932 15.47696-62.95587 15.47696-63.66646 14.76637-63.66646 13.88982-63.66646 13.01324-62.95587 12.30266-62.07932 12.30266-61.20274 12.30266-60.49216 13.01324-60.49216 13.88982ZM-62.07932 13.88982"/>
<path transform="matrix(1.00002,0,0,-1.00005,79.7793,29.778689)" d="" fill="#ffffff"/>
<path transform="matrix(1.00002,0,0,-1.00005,79.7793,29.778689)" stroke-width=".3985" stroke-linecap="butt" stroke-miterlimit="10" stroke-linejoin="miter" fill="none" stroke="#000000" d=""/>
<use data-text="V" xlink:href="#font_3_1" transform="matrix(9.962799,0,0,-9.963098,1.2157288,18.545128)"/>
<use data-text="i" xlink:href="#font_4_66" transform="matrix(6.97394,0,0,-6.9741489,7.0278475,20.039202)"/>
<use data-text="n" xlink:href="#font_4_77" transform="matrix(6.97394,0,0,-6.9741489,9.280426,20.039202)"/>
<path transform="matrix(1.00002,0,0,-1.00005,79.7793,29.778689)" stroke-width=".3985" stroke-linecap="butt" stroke-miterlimit="10" stroke-linejoin="miter" fill="none" stroke="#000000" d="M-47.9059-28.0632V-39.9688"/>
<path transform="matrix(1.00002,0,0,-1.00005,79.7793,29.778689)" stroke-width=".797" stroke-linecap="butt" stroke-miterlimit="10" stroke-linejoin="miter" fill="none" stroke="#000000" d="M-53.85875-39.9688H-41.95305M-51.87437-41.95303H-43.93742M-50.38622-43.93741H-45.42557"/>
<path transform="matrix(1.00002,0,0,-1.00005,79.7793,29.778689)" d="M63.66646 0C63.66646 .87656 62.95587 1.58714 62.07932 1.58714 61.20274 1.58714 60.49216 .87656 60.49216 0 60.49216-.87656 61.20274-1.58714 62.07932-1.58714 62.95587-1.58714 63.66646-.87656 63.66646 0ZM62.07932 0" fill="#ffffff"/>
<path transform="matrix(1.00002,0,0,-1.00005,79.7793,29.778689)" stroke-width=".3985" stroke-linecap="butt" stroke-miterlimit="10" stroke-linejoin="miter" fill="none" stroke="#000000" d="M63.66646 0C63.66646 .87656 62.95587 1.58714 62.07932 1.58714 61.20274 1.58714 60.49216 .87656 60.49216 0 60.49216-.87656 61.20274-1.58714 62.07932-1.58714 62.95587-1.58714 63.66646-.87656 63.66646 0ZM62.07932 0"/>
<path transform="matrix(1.00002,0,0,-1.00005,79.7793,29.778689)" d="" fill="#ffffff"/>
<path transform="matrix(1.00002,0,0,-1.00005,79.7793,29.778689)" stroke-width=".3985" stroke-linecap="butt" stroke-miterlimit="10" stroke-linejoin="miter" fill="none" stroke="#000000" d=""/>
<use data-text="V" xlink:href="#font_3_1" transform="matrix(9.962799,0,0,-9.963098,145.37961,32.400819)"/>
<use data-text="o" xlink:href="#font_4_81" transform="matrix(6.97394,0,0,-6.9741489,151.19173,33.894895)"/>
<use data-text="u" xlink:href="#font_4_109" transform="matrix(6.97394,0,0,-6.9741489,155.1599,33.894895)"/>
<use data-text="t" xlink:href="#font_4_105" transform="matrix(6.97394,0,0,-6.9741489,159.56046,33.894895)"/>
</svg>
