<svg xmlns="http://www.w3.org/2000/svg" xmlns:xlink="http://www.w3.org/1999/xlink" xmlns:inkscape="http://www.inkscape.org/namespaces/inkscape" version="1.1" width="66" height="75" viewBox="0 0 66 75">
<defs>
<path id="font_1_42" d="M.6839905 .23170471C.6839905 .24171448 .6839905 .25073243 .66999819 .25073243 .6569977 .25073243 .6569977 .24372864 .6559906 .2347107 .647995 .082595828 .5279999 .008529663 .4249878 .008529663 .33999635 .008529663 .15899658 .061569215 .15899658 .34179688 .15899658 .6210327 .34098817 .67407229 .42399598 .67407229 .522995 .67407229 .6279907 .5990143 .6519928 .4368744 .6539917 .4238739 .6549988 .41886903 .66799929 .41886903 .6839905 .41886903 .6839905 .4238739 .6839905 .44488526V.67907717C.6839905 .69607546 .6839905 .7050781 .6719971 .7050781 .6649933 .7050781 .6619873 .70207217 .6559906 .69306948L.6049957 .61802676C.57299807 .64904788 .5159912 .7050781 .4149933 .7050781 .22099304 .7050781 .056991579 .5439606 .056991579 .34179688 .056991579 .13563538 .22299195-.022460938 .4149933-.022460938 .58099368-.022460938 .6839905 .11462402 .6839905 .23170471Z"/>
<path id="font_1_71" d="M.59799197 .25785829H.56999209C.5589905 .15692139 .54499819 .0309906 .3659973 .0309906H.2789917C.23199463 .0309906 .22999573 .037994386 .22999573 .07196045V.6026306C.22999573 .6396179 .23399353 .6516113 .32499696 .6516113H.35699464V.6826172C.32199098 .6796112 .23098755 .6796112 .19099427 .6796112 .14498902 .6796112 .08299255 .6796112 .037994386 .6826172V.6516113H.06098938C.13798523 .6516113 .13999939 .64060977 .13999939 .6036377V.07896423C.13999939 .041992189 .13798523 .0309906 .06098938 .0309906H.037994386V0H.56999209L.59799197 .25785829Z"/>
<path id="font_1_69" d="M.7549896 0V.0309906C.69200137 .0309906 .6779938 .039993287 .6459961 .08595276L.4119873 .41775514 .598999 .5906372C.6619873 .6496124 .723999 .65060427 .7409973 .6516113V.6826172C.71199038 .6796112 .6619873 .6796112 .6519928 .6796112L.5279999 .6826172V.6516113C.55599978 .65060427 .57099917 .637619 .57099917 .6186218 .57099917 .6106262 .56799319 .6026306 .5629883 .5956421L.22999573 .28782655V.6036377C.22999573 .64060977 .23199463 .6516113 .30899049 .6516113H.33198548V.6826172C.2869873 .6796112 .23098755 .6796112 .18499756 .6796112 .13899231 .6796112 .08299255 .6796112 .037994386 .6826172V.6516113H.06098938C.13798523 .6516113 .13999939 .64060977 .13999939 .6036377V.07896423C.13999939 .041992189 .13798523 .0309906 .06098938 .0309906H.037994386V0C.08299255 .0029907227 .13899231 .0029907227 .18499756 .0029907227 .23098755 .0029907227 .2869873 .0029907227 .33198548 0V.0309906H.30899049C.23199463 .0309906 .22999573 .041992189 .22999573 .07896423V.24986267L.35198976 .3627777 .5389862 .096954349C.5469971 .08595276 .55599978 .07096863 .55599978 .05996704 .55599978 .0309906 .5169983 .0309906 .49899293 .0309906V0C.54299929 .0029907227 .59298709 .0029907227 .6380005 .0029907227 .6639862 .0029907227 .70399478 .0029907227 .7549896 0Z"/>
<path id="font_2_2" d="M.4119873-.04144287C.4099884-.05241394 .4099884-.06639099 .4099884-.07836914 .4099884-.12634278 .41799928-.19433594 .49699403-.19433594 .6159973-.19433594 .6669922-.015472412 .6669922-.00047302247 .6669922 .0055389406 .6619873 .011520386 .6539917 .011520386 .6459961 .011520386 .6439972 .0045318605 .6409912-.0024719239 .6179962-.070388797 .55999758-.095336917 .522995-.095336917 .47698976-.095336917 .46199037-.06639099 .45199586 .0045318605 .66999819 .09844971 .7579956 .29560853 .7579956 .43276979 .7579956 .59095767 .6519928 .7050781 .49499513 .7050781 .2709961 .7050781 .049987794 .474823 .049987794 .24655152 .049987794 .082458499 .16299439-.022460938 .31399537-.022460938 .35499574-.022460938 .3959961-.013473511 .41299439-.008468628L.4119873-.04144287M.2539978 .01751709C.20799256 .035507204 .14099121 .08746338 .14099121 .21650696 .14099121 .26957704 .1579895 .43077088 .2659912 .55992129 .31799317 .6210022 .4019928 .677063 .48799134 .677063 .58699038 .677063 .6669922 .6039734 .6669922 .46380616 .6669922 .36369325 .6179962 .13743592 .44599916 .041503908 .43699647 .095458988 .41799928 .1484375 .35398866 .1484375 .2979889 .1484375 .24899292 .097457889 .24899292 .04649353 .24899292 .038497926 .25099183 .024520874 .2539978 .01751709M.4149933 .025512696C.40098573 .019515992 .3619995 .0055389406 .32099916 .0055389406 .30799867 .0055389406 .27398683 .0055389406 .27398683 .04649353 .27398683 .083465579 .31098939 .123428348 .35499574 .123428348 .4139862 .123428348 .4149933 .06947327 .4149933 .025512696Z"/>
<path id="font_2_1" d="M.16099549 .07595825C.1519928 .039993287 .1499939 .0309906 .07499695 .0309906 .055999757 .0309906 .04499817 .0309906 .04499817 .0129852299 .04499817 0 .054992677 0 .07299805 0H.4099884C.6239929 0 .82299807 .21188355 .82299807 .42774964 .82299807 .56466677 .7369995 .6826172 .58099368 .6826172H.23799134C.21998596 .6826172 .20799256 .6826172 .20799256 .6646118 .20799256 .6516113 .21699524 .6516113 .23799134 .6516113 .24198914 .6516113 .2599945 .6516113 .27598573 .6496124 .29299928 .6476135 .2999878 .6456146 .2999878 .63461306 .2999878 .6296234 .29899598 .6256256 .29599 .614624L.16099549 .07595825M.3809967 .6126251C.3899994 .64860537 .3919983 .6516113 .43399049 .6516113H.5469971C.651001 .6516113 .73399356 .5936432 .73399356 .46472169 .73399356 .40675355 .70899966 .24685669 .6309967 .1479187 .58499148 .09095764 .5019989 .0309906 .3919983 .0309906H.27198792C.2579956 .0309906 .2559967 .0309906 .2519989 .03199768 .24198914 .032989503 .23899842 .033996583 .23899842 .040985109 .23899842 .04399109 .23899842 .04598999 .24398804 .063964847L.3809967 .6126251Z"/>
</defs>
<path transform="matrix(1.00003,0,0,-1.00002,32.84545,37.715436)" stroke-width=".3985" stroke-linecap="butt" stroke-miterlimit="10" stroke-linejoin="miter" fill="none" stroke="#000000" d="M0 0"/>
<path transform="matrix(1.00003,0,0,-1.00002,32.84545,37.715436)" stroke-width=".797" stroke-linecap="butt" stroke-miterlimit="10" stroke-linejoin="miter" fill="none" stroke="#000000" d="M-23.81116-35.71718H23.811152V35.71718H-23.81116Z"/>
<path transform="matrix(1.00003,0,0,-1.00002,32.84545,37.715436)" stroke-width=".797" stroke-linecap="butt" stroke-miterlimit="10" stroke-linejoin="miter" fill="none" stroke="#000000" d=""/>
<path transform="matrix(1.00003,0,0,-1.00002,32.84545,37.715436)" stroke-width=".3985" stroke-linecap="butt" stroke-miterlimit="10" stroke-linejoin="miter" fill="none" stroke="#000000" d="M-23.81116-19.04921-19.04893-23.81143-23.81116-28.57364"/>
<use data-text="C" xlink:href="#font_1_42" transform="matrix(8.966669,0,0,-8.966579,16.870965,64.216968)"/>
<use data-text="L" xlink:href="#font_1_71" transform="matrix(8.966669,0,0,-8.966579,23.524239,64.216968)"/>
<use data-text="K" xlink:href="#font_1_69" transform="matrix(8.966669,0,0,-8.966579,29.280838,64.216968)"/>
<path transform="matrix(1.00003,0,0,-1.00002,-71.60969,42.50053)" stroke-width=".3786" stroke-linecap="butt" stroke-miterlimit="10" stroke-linejoin="miter" fill="none" stroke="#000000" d="M117.919-14.264H125.187"/>
<use data-text="Q" xlink:href="#font_2_2" transform="matrix(8.966669,0,0,-8.966579,46.31285,64.216968)"/>
<use data-text="D" xlink:href="#font_2_1" transform="matrix(8.966669,0,0,-8.966579,12.108826,16.594012)"/>
<use data-text="Q" xlink:href="#font_2_2" transform="matrix(8.966669,0,0,-8.966579,46.31285,16.594012)"/>
<path transform="matrix(1.00003,0,0,-1.00002,32.84545,37.715436)" stroke-width=".3985" stroke-linecap="butt" stroke-miterlimit="10" stroke-linejoin="miter" fill="none" stroke="#000000" d="M-23.81116-23.81143H-31.74811"/>
<path transform="matrix(1.00003,0,0,-1.00002,32.84545,37.715436)" stroke-width=".3985" stroke-linecap="butt" stroke-miterlimit="10" stroke-linejoin="miter" fill="none" stroke="#000000" d="M23.81116-23.81143H31.74811"/>
<path transform="matrix(1.00003,0,0,-1.00002,32.84545,37.715436)" stroke-width=".3985" stroke-linecap="butt" stroke-miterlimit="10" stroke-linejoin="miter" fill="none" stroke="#000000" d="M-23.81116 23.81146H-31.74811"/>
<path transform="matrix(1.00003,0,0,-1.00002,32.84545,37.715436)" stroke-width=".3985" stroke-linecap="butt" stroke-miterlimit="10" stroke-linejoin="miter" fill="none" stroke="#000000" d="M23.81116 23.81146H31.74811"/>
<path transform="matrix(1.00003,0,0,-1.00002,32.84545,37.715436)" d="M-23.81116-23.81143C-23.81116-22.46124-24.90567-21.36674-26.25584-21.36674-27.60602-21.36674-28.70053-22.46124-28.70053-23.81143-28.70053-25.1616-27.60602-26.25612-26.25584-26.25612-24.90567-26.25612-23.81116-25.1616-23.81116-23.81143ZM-26.25584-23.81143" fill="#ffffff"/>
<path transform="matrix(1.00003,0,0,-1.00002,32.84545,37.715436)" stroke-width=".797" stroke-linecap="butt" stroke-miterlimit="10" stroke-linejoin="miter" fill="none" stroke="#000000" d="M-23.81116-23.81143C-23.81116-22.46124-24.90567-21.36674-26.25584-21.36674-27.60602-21.36674-28.70053-22.46124-28.70053-23.81143-28.70053-25.1616-27.60602-26.25612-26.25584-26.25612-24.90567-26.25612-23.81116-25.1616-23.81116-23.81143ZM-26.25584-23.81143"/>
<path transform="matrix(1.00003,0,0,-1.00002,32.84545,37.715436)" d="" fill="#ffffff"/>
<path transform="matrix(1.00003,0,0,-1.00002,32.84545,37.715436)" stroke-width=".797" stroke-linecap="butt" stroke-miterlimit="10" stroke-linejoin="miter" fill="none" stroke="#000000" d=""/>
</svg>
