<svg xmlns="http://www.w3.org/2000/svg" xmlns:xlink="http://www.w3.org/1999/xlink" xmlns:inkscape="http://www.inkscape.org/namespaces/inkscape" version="1.1" width="66" height="75" viewBox="0 0 66 75">
<defs>
<path id="font_1_3" d="M.5159912 .41674806 .71899417 .5696564 .73098757 .5766449C.79299929 .6196289 .83099368 .6456146 .8899994 .6516113 .8969879 .65260317 .9079895 .6536102 .9079895 .6696167 .9079895 .6746063 .9049988 .6826172 .8959961 .6826172 .8880005 .6826172 .8819885 .6796112 .82199099 .6796112 .7859955 .6796112 .7489929 .6826172 .71398928 .6826172 .70799258 .6826172 .69499209 .6826172 .69499209 .6646118 .69499209 .65260317 .70599368 .6516113 .70899966 .6516113 .71699526 .65060427 .7369995 .6496124 .7369995 .6336212 .7369995 .6256256 .73098757 .6126251 .71699526 .6006317 .71299746 .5966339 .71199038 .5956421 .70899966 .5936432 .70599368 .5896454 .70399478 .5886383 .69898989 .5846405L.30099488 .28683473 .3809967 .6056366C.3899994 .6436157 .3929901 .6516113 .47099305 .6516113 .4869995 .6516113 .49798585 .6516113 .49798585 .6696167 .49798585 .6786041 .4909973 .6826172 .48298646 .6826172 .46398927 .6826172 .43998719 .680603 .41999818 .680603 .39898683 .6796112 .37599183 .6796112 .35598756 .6796112 .32398988 .6796112 .32199098 .6796112 .2919922 .680603 .27198792 .6816101 .24598694 .6826172 .22698975 .6826172 .22099304 .6826172 .20698548 .6826172 .20698548 .6646118 .20698548 .6516113 .21598816 .6516113 .23699951 .6516113 .24099732 .6516113 .25898744 .6516113 .2749939 .6496124 .2919922 .6476135 .29899598 .6456146 .29899598 .63461306 .29899598 .6296234 .2979889 .6256256 .29499818 .614624L.1599884 .07595825C.15098572 .039993287 .14898682 .0309906 .07398987 .0309906 .054992677 .0309906 .04399109 .0309906 .04399109 .0129852299 .04399109 .0019989014 .051986696 0 .05899048 0 .07798767 0 .102996829 .0009918213 .12199402 .0019989014 .1519928 .0029907227 .1539917 .0029907227 .18598938 .0029907227 .21798706 .0029907227 .21998596 .0029907227 .25 .0019989014 .269989 .0009918213 .29599 0 .31498719 0 .32199098 0 .33499146 0 .33499146 .017990113 .33499146 .0309906 .32499696 .0309906 .3039856 .0309906 .2999878 .0309906 .28199769 .0309906 .2659912 .032989503 .24398804 .035995485 .24299622 .039993287 .24299622 .048980714 .24299622 .05697632 .2519989 .09095764 .2919922 .24885559L.44499208 .3637848 .57299807 .08395386C.5779877 .07096863 .5799866 .06796265 .5799866 .06097412 .5799866 .03199768 .5379944 .0309906 .5299988 .0309906 .5179901 .0309906 .5059967 .0309906 .5059967 .0129852299 .5059967 .0029907227 .5149994 0 .5219879 0 .54100039 0 .5609894 .0019989014 .5799866 .0019989014 .59999087 .0019989014 .62098696 .0029907227 .6409912 .0029907227 .6579895 .0029907227 .68499758 .0029907227 .69200137 .0019989014L.7409973 0C.7449951 0 .7589874 0 .7589874 .017990113 .7589874 .0309906 .746994 .0309906 .7409973 .0309906 .70599368 .03199768 .68899539 .035995485 .6719971 .07296753L.5159912 .41674806Z"/>
<path id="font_1_4" d="M.4119873-.04144287C.4099884-.05241394 .4099884-.06639099 .4099884-.07836914 .4099884-.12634278 .41799928-.19433594 .49699403-.19433594 .6159973-.19433594 .6669922-.015472412 .6669922-.00047302247 .6669922 .0055389406 .6619873 .011520386 .6539917 .011520386 .6459961 .011520386 .6439972 .0045318605 .6409912-.0024719239 .6179962-.070388797 .55999758-.095336917 .522995-.095336917 .47698976-.095336917 .46199037-.06639099 .45199586 .0045318605 .66999819 .09844971 .7579956 .29560853 .7579956 .43276979 .7579956 .59095767 .6519928 .7050781 .49499513 .7050781 .2709961 .7050781 .049987794 .474823 .049987794 .24655152 .049987794 .082458499 .16299439-.022460938 .31399537-.022460938 .35499574-.022460938 .3959961-.013473511 .41299439-.008468628L.4119873-.04144287M.2539978 .01751709C.20799256 .035507204 .14099121 .08746338 .14099121 .21650696 .14099121 .26957704 .1579895 .43077088 .2659912 .55992129 .31799317 .6210022 .4019928 .677063 .48799134 .677063 .58699038 .677063 .6669922 .6039734 .6669922 .46380616 .6669922 .36369325 .6179962 .13743592 .44599916 .041503908 .43699647 .095458988 .41799928 .1484375 .35398866 .1484375 .2979889 .1484375 .24899292 .097457889 .24899292 .04649353 .24899292 .038497926 .25099183 .024520874 .2539978 .01751709M.4149933 .025512696C.40098573 .019515992 .3619995 .0055389406 .32099916 .0055389406 .30799867 .0055389406 .27398683 .0055389406 .27398683 .04649353 .27398683 .083465579 .31098939 .123428348 .35499574 .123428348 .4139862 .123428348 .4149933 .06947327 .4149933 .025512696Z"/>
<path id="font_1_1" d="M.31399537 .33789063H.41600038C.4869995 .33789063 .5019989 .32588197 .5019989 .29289247 .5019989 .28489686 .49899293 .26391603 .49499513 .24790955 .49299623 .24191284 .49198915 .23692322 .49198915 .23391724 .49198915 .23292542 .49198915 .220932 .5049896 .220932 .5169983 .220932 .5179901 .22792053 .5219879 .24291992L.57499697 .45280458C.57899478 .46678163 .57899478 .46878053 .57899478 .47277833 .57899478 .48077394 .57299807 .48576356 .5649872 .48576356 .55400088 .48576356 .5529938 .47976686 .5479889 .46080018 .5279999 .38186646 .49699403 .36888124 .4169922 .36888124H.32199098C.33699037 .43081666 .38398744 .620636 .3889923 .6326294 .394989 .64660647 .4019928 .64860537 .43499757 .64860537H.58200076C.70700076 .64860537 .7350006 .6186371 .7350006 .5377197 .7350006 .5067444 .7299957 .47677613 .7299957 .4697876 .7299957 .461792 .7350006 .45480348 .74398806 .45480348 .7559967 .45480348 .7569885 .461792 .7589874 .47976686L.7799988 .66560366C.7799988 .6796112 .769989 .6796112 .7509918 .6796112H.23599243C.21699524 .6796112 .20599365 .6796112 .20599365 .66160586 .20599365 .64860537 .21598816 .64860537 .23699951 .64860537 .24099732 .64860537 .25898744 .64860537 .2749939 .64660647 .29699708 .6436157 .2979889 .6396179 .2979889 .6306305 .2979889 .6276245 .2979889 .6256256 .29299928 .60765078L.1599884 .07597351C.15098572 .039993287 .14898682 .0309906 .07398987 .0309906 .054992677 .0309906 .04399109 .0309906 .04399109 .0129852299 .04399109 0 .053985597 0 .07199097 0H.59999087C.6179962 0 .6199951 0 .6230011 .0029907227 .6259918 .004989624 .6269989 .005996704 .6329956 .018997193 .644989 .04598999 .7299957 .23591614 .7299957 .24491883 .7299957 .25291444 .723999 .2579193 .71598818 .2579193 .70799258 .2579193 .70700076 .25691224 .69599917 .23391724 .6339874 .09396362 .59298709 .0309906 .4269867 .0309906H.27398683C.2599945 .0309906 .2579956 .0309906 .2539978 .03199768 .24398804 .032989503 .24099732 .033996583 .24099732 .040985109 .24099732 .04399109 .24099732 .04598999 .24598694 .0639801L.31399537 .33789063Z"/>
<path id="font_1_2" d="M.5519867 .6096039C.55999758 .6436157 .56199648 .6516113 .6179962 .6516113 .6299896 .6516113 .6429901 .6516113 .6429901 .6696167 .6429901 .6706085 .6429901 .6826172 .6279907 .6826172 .62098696 .6826172 .5799866 .680603 .57398989 .680603 .5669861 .6796112 .5349884 .6796112 .5149994 .6796112 .4909973 .6796112 .46499635 .680603 .44099427 .680603 .4169922 .680603 .3929901 .6826172 .36999513 .6826172 .3619995 .6826172 .34899903 .6826172 .34899903 .6646118 .34899903 .6516113 .35899354 .6516113 .3829956 .6516113 .3880005 .6516113 .4149933 .6516113 .43998719 .64860537 .46398927 .64660647 .47099305 .64460757 .47099305 .62960818 .47099305 .62260439 .46899415 .61660769 .46798707 .6116028L.35099793 .1465149C.32798768 .055511476 .2599945 .002532959 .20799256 .002532959 .1749878 .002532959 .12599182 .016525269 .11099243 .061523439 .11299133 .060516359 .114990238 .060516359 .12199402 .060516359 .1619873 .060516359 .18699646 .09552002 .18699646 .12451172 .18699646 .1505127 .16699219 .16651917 .14199829 .16651917 .11999512 .16651917 .07598877 .1505127 .07598877 .087509158 .07598877 .022521973 .13198853-.022460938 .20999146-.022460938 .30599977-.022460938 .4099884 .043518068 .43499757 .14251709L.5519867 .6096039Z"/>
</defs>
<path transform="matrix(1.00003,0,0,-1.00002,32.84545,37.715436)" stroke-width=".3985" stroke-linecap="butt" stroke-miterlimit="10" stroke-linejoin="miter" fill="none" stroke="#000000" d="M0 0"/>
<path transform="matrix(1.00003,0,0,-1.00002,32.84545,37.715436)" stroke-width=".797" stroke-linecap="butt" stroke-miterlimit="10" stroke-linejoin="miter" fill="none" stroke="#000000" d="M-23.81116-35.71718H23.811152V35.71718H-23.81116Z"/>
<path transform="matrix(1.00003,0,0,-1.00002,32.84545,37.715436)" stroke-width=".797" stroke-linecap="butt" stroke-miterlimit="10" stroke-linejoin="miter" fill="none" stroke="#000000" d=""/>
<use data-text="K" xlink:href="#font_1_3" transform="matrix(8.966669,0,0,-8.966579,12.108826,64.216968)"/>
<path transform="matrix(1.00003,0,0,-1.00002,-71.60969,42.50053)" stroke-width=".3786" stroke-linecap="butt" stroke-miterlimit="10" stroke-linejoin="miter" fill="none" stroke="#000000" d="M117.919-14.264H125.187"/>
<use data-text="Q" xlink:href="#font_1_4" transform="matrix(8.966669,0,0,-8.966579,46.31285,64.216968)"/>
<use data-text="E" xlink:href="#font_1_1" transform="matrix(8.966669,0,0,-8.966579,12.108826,40.405488)"/>
<use data-text="J" xlink:href="#font_1_2" transform="matrix(8.966669,0,0,-8.966579,12.108826,16.594012)"/>
<use data-text="Q" xlink:href="#font_1_4" transform="matrix(8.966669,0,0,-8.966579,46.31285,16.594012)"/>
<path transform="matrix(1.00003,0,0,-1.00002,32.84545,37.715436)" stroke-width=".3985" stroke-linecap="butt" stroke-miterlimit="10" stroke-linejoin="miter" fill="none" stroke="#000000" d="M-23.81116-23.81143H-31.74811"/>
<path transform="matrix(1.00003,0,0,-1.00002,32.84545,37.715436)" stroke-width=".3985" stroke-linecap="butt" stroke-miterlimit="10" stroke-linejoin="miter" fill="none" stroke="#000000" d="M23.81116-23.81143H31.74811"/>
<path transform="matrix(1.00003,0,0,-1.00002,32.84545,37.715436)" stroke-width=".3985" stroke-linecap="butt" stroke-miterlimit="10" stroke-linejoin="miter" fill="none" stroke="#000000" d="M-23.81116 0H-31.74811"/>
<path transform="matrix(1.00003,0,0,-1.00002,32.84545,37.715436)" stroke-width=".3985" stroke-linecap="butt" stroke-miterlimit="10" stroke-linejoin="miter" fill="none" stroke="#000000" d="M-23.81116 23.81146H-31.74811"/>
<path transform="matrix(1.00003,0,0,-1.00002,32.84545,37.715436)" stroke-width=".3985" stroke-linecap="butt" stroke-miterlimit="10" stroke-linejoin="miter" fill="none" stroke="#000000" d="M23.81116 23.81146H31.74811"/>
</svg>
