<svg xmlns="http://www.w3.org/2000/svg" xmlns:xlink="http://www.w3.org/1999/xlink" xmlns:inkscape="http://www.inkscape.org/namespaces/inkscape" version="1.1" width="66" height="91" viewBox="0 0 66 91">
<defs>
<path id="font_1_2" d="M.31399537 .33789063H.41600038C.4869995 .33789063 .5019989 .32588197 .5019989 .29289247 .5019989 .28489686 .49899293 .26391603 .49499513 .24790955 .49299623 .24191284 .49198915 .23692322 .49198915 .23391724 .49198915 .23292542 .49198915 .220932 .5049896 .220932 .5169983 .220932 .5179901 .22792053 .5219879 .24291992L.57499697 .45280458C.57899478 .46678163 .57899478 .46878053 .57899478 .47277833 .57899478 .48077394 .57299807 .48576356 .5649872 .48576356 .55400088 .48576356 .5529938 .47976686 .5479889 .46080018 .5279999 .38186646 .49699403 .36888124 .4169922 .36888124H.32199098C.33699037 .43081666 .38398744 .620636 .3889923 .6326294 .394989 .64660647 .4019928 .64860537 .43499757 .64860537H.58200076C.70700076 .64860537 .7350006 .6186371 .7350006 .5377197 .7350006 .5067444 .7299957 .47677613 .7299957 .4697876 .7299957 .461792 .7350006 .45480348 .74398806 .45480348 .7559967 .45480348 .7569885 .461792 .7589874 .47976686L.7799988 .66560366C.7799988 .6796112 .769989 .6796112 .7509918 .6796112H.23599243C.21699524 .6796112 .20599365 .6796112 .20599365 .66160586 .20599365 .64860537 .21598816 .64860537 .23699951 .64860537 .24099732 .64860537 .25898744 .64860537 .2749939 .64660647 .29699708 .6436157 .2979889 .6396179 .2979889 .6306305 .2979889 .6276245 .2979889 .6256256 .29299928 .60765078L.1599884 .07597351C.15098572 .039993287 .14898682 .0309906 .07398987 .0309906 .054992677 .0309906 .04399109 .0309906 .04399109 .0129852299 .04399109 0 .053985597 0 .07199097 0H.59999087C.6179962 0 .6199951 0 .6230011 .0029907227 .6259918 .004989624 .6269989 .005996704 .6329956 .018997193 .644989 .04598999 .7299957 .23591614 .7299957 .24491883 .7299957 .25291444 .723999 .2579193 .71598818 .2579193 .70799258 .2579193 .70700076 .25691224 .69599917 .23391724 .6339874 .09396362 .59298709 .0309906 .4269867 .0309906H.27398683C.2599945 .0309906 .2579956 .0309906 .2539978 .03199768 .24398804 .032989503 .24099732 .033996583 .24099732 .040985109 .24099732 .04399109 .24099732 .04598999 .24598694 .0639801L.31399537 .33789063Z"/>
<path id="font_1_3" d="M.4119873-.04144287C.4099884-.05241394 .4099884-.06639099 .4099884-.07836914 .4099884-.12634278 .41799928-.19433594 .49699403-.19433594 .6159973-.19433594 .6669922-.015472412 .6669922-.00047302247 .6669922 .0055389406 .6619873 .011520386 .6539917 .011520386 .6459961 .011520386 .6439972 .0045318605 .6409912-.0024719239 .6179962-.070388797 .55999758-.095336917 .522995-.095336917 .47698976-.095336917 .46199037-.06639099 .45199586 .0045318605 .66999819 .09844971 .7579956 .29560853 .7579956 .43276979 .7579956 .59095767 .6519928 .7050781 .49499513 .7050781 .2709961 .7050781 .049987794 .474823 .049987794 .24655152 .049987794 .082458499 .16299439-.022460938 .31399537-.022460938 .35499574-.022460938 .3959961-.013473511 .41299439-.008468628L.4119873-.04144287M.2539978 .01751709C.20799256 .035507204 .14099121 .08746338 .14099121 .21650696 .14099121 .26957704 .1579895 .43077088 .2659912 .55992129 .31799317 .6210022 .4019928 .677063 .48799134 .677063 .58699038 .677063 .6669922 .6039734 .6669922 .46380616 .6669922 .36369325 .6179962 .13743592 .44599916 .041503908 .43699647 .095458988 .41799928 .1484375 .35398866 .1484375 .2979889 .1484375 .24899292 .097457889 .24899292 .04649353 .24899292 .038497926 .25099183 .024520874 .2539978 .01751709M.4149933 .025512696C.40098573 .019515992 .3619995 .0055389406 .32099916 .0055389406 .30799867 .0055389406 .27398683 .0055389406 .27398683 .04649353 .27398683 .083465579 .31098939 .123428348 .35499574 .123428348 .4139862 .123428348 .4149933 .06947327 .4149933 .025512696Z"/>
<path id="font_1_1" d="M.16099549 .07595825C.1519928 .039993287 .1499939 .0309906 .07499695 .0309906 .055999757 .0309906 .04499817 .0309906 .04499817 .0129852299 .04499817 0 .054992677 0 .07299805 0H.4099884C.6239929 0 .82299807 .21188355 .82299807 .42774964 .82299807 .56466677 .7369995 .6826172 .58099368 .6826172H.23799134C.21998596 .6826172 .20799256 .6826172 .20799256 .6646118 .20799256 .6516113 .21699524 .6516113 .23799134 .6516113 .24198914 .6516113 .2599945 .6516113 .27598573 .6496124 .29299928 .6476135 .2999878 .6456146 .2999878 .63461306 .2999878 .6296234 .29899598 .6256256 .29599 .614624L.16099549 .07595825M.3809967 .6126251C.3899994 .64860537 .3919983 .6516113 .43399049 .6516113H.5469971C.651001 .6516113 .73399356 .5936432 .73399356 .46472169 .73399356 .40675355 .70899966 .24685669 .6309967 .1479187 .58499148 .09095764 .5019989 .0309906 .3919983 .0309906H.27198792C.2579956 .0309906 .2559967 .0309906 .2519989 .03199768 .24198914 .032989503 .23899842 .033996583 .23899842 .040985109 .23899842 .04399109 .23899842 .04598999 .24398804 .063964847L.3809967 .6126251Z"/>
<path id="font_2_83" d="M.48599244 .4252777C.48599244 .52030947 .41099549 .6113281 .2939911 .6113281H.067993167C.051986696 .6113281 .024993897 .6113281 .024993897 .57832339 .024993897 .5453186 .051986696 .5453186 .067993167 .5453186H.09498596V.06599426H.067993167C.051986696 .06599426 .024993897 .06599426 .024993897 .032989503 .024993897 0 .051986696 0 .067993167 0H.19799805C.21398926 0 .24099732 0 .24099732 .032989503 .24099732 .06599426 .21398926 .06599426 .19799805 .06599426H.17098999V.24023438H.2939911C.41299439 .24023438 .48599244 .3332367 .48599244 .4252777M.4099884 .42626954C.4099884 .3732605 .36799623 .30622865 .272995 .30622865H.17098999V.5453186H.272995C.36999513 .5453186 .4099884 .47529603 .4099884 .42626954Z"/>
<path id="font_2_95" d="M.5279999 .09719849C.5279999 .13119507 .49798585 .13119507 .48999024 .13119507 .48199464 .13119507 .45298768 .13119507 .45199586 .09919739 .45199586 .09222412 .44999696 .056228639 .43598939 .056228639 .41099549 .056228639 .41099549 .10223389 .41099549 .15022278 .41099549 .21322632 .41099549 .2202301 .40299989 .24223328 .3929901 .2662201 .3769989 .28822328 .35598756 .30422975 .40098573 .33117677 .43798829 .38220216 .43798829 .44224549 .43798829 .52830508 .3600006 .6113281 .24198914 .6113281H.06399536C.04899597 .6113281 .019989014 .6113281 .019989014 .57832339 .019989014 .5453186 .04899597 .5453186 .06399536 .5453186H.084991458V.06599426H.06399536C.04899597 .06619263 .019989014 .06619263 .019989014 .033203126 .019989014 0 .04899597 0 .06399536 0H.18199158C.19699097 .00019836426 .22599793 .00019836426 .22599793 .033203126 .22599793 .06599426 .19699097 .06599426 .18199158 .06599426H.16099549V.2734375H.23599243C.25698854 .2734375 .28199769 .2734375 .31199647 .24732971 .33499146 .22825623 .33499146 .20518494 .33499146 .16503906 .33499146 .09725952 .33499146 .06222534 .3619995 .02722168 .3849945-.003768921 .41799928-.009765625 .43699647-.009765625 .5009918-.009765625 .5279999 .052230836 .5279999 .09725952V.09719849M.3619995 .44236756C.3619995 .39639283 .31999208 .33943177 .22999573 .33943177H.16099549V.5453186H.22999573C.31999208 .5453186 .3619995 .48835755 .3619995 .44236756Z"/>
<path id="font_2_49" d="M.5079956 .04283142V.13183594C.5079956 .1508789 .5079956 .17492676 .46998597 .17492676 .43199159 .17492676 .43199159 .1508789 .43199159 .13183594V.065826419H.17098999V.28320313H.29699708C.29699708 .24710083 .29699708 .22706604 .33499146 .22706604 .37298585 .22706604 .37298585 .2511139 .37298585 .27015687V.36219789C.37298585 .38121034 .37298585 .40522767 .33499146 .40522767 .29699708 .40522767 .29699708 .3852234 .29699708 .3491974H.17098999V.5453186H.4099884V.4942627C.4099884 .475235 .4099884 .4512024 .44799806 .4512024 .48599244 .4512024 .48599244 .475235 .48599244 .4942627V.5683136C.48599244 .60232546 .47599793 .6113281 .44299317 .6113281H.067993167C.051986696 .6113281 .024993897 .6113281 .024993897 .57832339 .024993897 .5453186 .051986696 .5453186 .067993167 .5453186H.09498596V.065826419H.067993167C.051986696 .065826419 .024993897 .065826419 .024993897 .032821657 .024993897 0 .051986696 0 .067993167 0H.46499635C.49798585 0 .5079956 .0079956059 .5079956 .042999269V.04283142Z"/>
<path id="font_2_42" d="M.4889984 .16918946C.4889984 .20417786 .46099855 .20417786 .45098878 .20417786 .43699647 .20417786 .4149933 .20018006 .41299439 .17720032 .4059906 .06323242 .30499269 .056228639 .2889862 .056228639 .19699097 .056228639 .116989139 .16419983 .116989139 .30516053 .116989139 .45111085 .19999695 .5550842 .28799439 .5550842 .34599305 .5550842 .39898683 .50909426 .4119873 .4341278 .4149933 .41412355 .41799928 .39813233 .45098878 .39813233 .4889984 .39813233 .4889984 .42211915 .4889984 .44111634V.5780792C.4889984 .5930786 .4889984 .62109377 .45599366 .62109377 .43499757 .62109377 .43099977 .6130829 .41099549 .5770874 .36799623 .6090851 .32499696 .62109377 .28399659 .62109377 .1519928 .62109377 .040985109 .48410035 .040985109 .30615235 .040985109 .12721253 .15098572-.009765625 .2849884-.009765625 .39898683-.009765625 .4889984 .07522583 .4889984 .16918946Z"/>
<path id="font_2_71" d="M.49398805 .04283142V.13183594C.49398805 .15284729 .49398805 .17488098 .45599366 .17488098 .41799928 .17488098 .41799928 .15284729 .41799928 .13183594V.065826419H.18299866V.5453186H.23498535C.25 .5453186 .2789917 .5453186 .2789917 .57832339 .2789917 .6113281 .25 .6113281 .23498535 .6113281H.07398987C.05899048 .6113281 .02999878 .6113281 .02999878 .57832339 .02999878 .5453186 .05999756 .5453186 .07398987 .5453186H.10699463V.065826419H.07398987C.05899048 .065826419 .02999878 .065826419 .02999878 .032821657 .02999878 0 .05999756 0 .07398987 0H.45098878C.48399354 0 .49398805 .0079956059 .49398805 .042999269V.04283142Z"/>
</defs>
<path transform="matrix(1.00003,0,0,-1.00003,32.84545,45.453886)" stroke-width=".3985" stroke-linecap="butt" stroke-miterlimit="10" stroke-linejoin="miter" fill="none" stroke="#000000" d="M0 0"/>
<path transform="matrix(1.00003,0,0,-1.00003,32.84545,45.453886)" stroke-width=".797" stroke-linecap="butt" stroke-miterlimit="10" stroke-linejoin="miter" fill="none" stroke="#000000" d="M-23.81116-35.71718H23.811152V35.71718H-23.81116Z"/>
<path transform="matrix(1.00003,0,0,-1.00003,32.84545,45.453886)" stroke-width=".797" stroke-linecap="butt" stroke-miterlimit="10" stroke-linejoin="miter" fill="none" stroke="#000000" d=""/>
<use data-text="E" xlink:href="#font_1_2" transform="matrix(8.966669,0,0,-8.966669,12.108826,71.95568)"/>
<path transform="matrix(1.00003,0,0,-1.00003,-71.60969,42.499795)" stroke-width=".3786" stroke-linecap="butt" stroke-miterlimit="10" stroke-linejoin="miter" fill="none" stroke="#000000" d="M117.919-22.003H125.187"/>
<use data-text="Q" xlink:href="#font_1_3" transform="matrix(8.966669,0,0,-8.966669,46.31285,71.95568)"/>
<use data-text="D" xlink:href="#font_1_1" transform="matrix(8.966669,0,0,-8.966669,12.108826,24.332249)"/>
<use data-text="Q" xlink:href="#font_1_3" transform="matrix(8.966669,0,0,-8.966669,46.31285,24.332249)"/>
<path transform="matrix(1.00003,0,0,-1.00003,-88.32119,-14.738924)" stroke-width=".2419" stroke-linecap="butt" stroke-miterlimit="10" stroke-linejoin="miter" fill="none" stroke="#000000" d="M117.195-25.565H125.13"/>
<use data-text="P" xlink:href="#font_2_83" transform="matrix(4.9814498,0,0,-4.9814498,28.877327,14.716961)"/>
<use data-text="R" xlink:href="#font_2_95" transform="matrix(4.9814498,0,0,-4.9814498,31.522484,14.716961)"/>
<use data-text="E" xlink:href="#font_2_49" transform="matrix(4.9814498,0,0,-4.9814498,34.167634,14.716961)"/>
<path transform="matrix(1.00003,0,0,-1.00003,-88.32119,49.724016)" stroke-width=".2419" stroke-linecap="butt" stroke-miterlimit="10" stroke-linejoin="miter" fill="none" stroke="#000000" d="M117.195-25.515H125.13"/>
<use data-text="C" xlink:href="#font_2_42" transform="matrix(4.9814498,0,0,-4.9814498,28.877327,79.1799)"/>
<use data-text="L" xlink:href="#font_2_71" transform="matrix(4.9814498,0,0,-4.9814498,31.522484,79.1799)"/>
<use data-text="R" xlink:href="#font_2_95" transform="matrix(4.9814498,0,0,-4.9814498,34.167634,79.1799)"/>
<path transform="matrix(1.00003,0,0,-1.00003,32.84545,45.453886)" stroke-width=".3985" stroke-linecap="butt" stroke-miterlimit="10" stroke-linejoin="miter" fill="none" stroke="#000000" d="M-23.81116-23.81143H-31.74811"/>
<path transform="matrix(1.00003,0,0,-1.00003,32.84545,45.453886)" stroke-width=".3985" stroke-linecap="butt" stroke-miterlimit="10" stroke-linejoin="miter" fill="none" stroke="#000000" d="M23.81116-23.81143H31.74811"/>
<path transform="matrix(1.00003,0,0,-1.00003,32.84545,45.453886)" stroke-width=".3985" stroke-linecap="butt" stroke-miterlimit="10" stroke-linejoin="miter" fill="none" stroke="#000000" d="M-23.81116 23.81146H-31.74811"/>
<path transform="matrix(1.00003,0,0,-1.00003,32.84545,45.453886)" stroke-width=".3985" stroke-linecap="butt" stroke-miterlimit="10" stroke-linejoin="miter" fill="none" stroke="#000000" d="M23.81116 23.81146H31.74811"/>
<path transform="matrix(1.00003,0,0,-1.00003,32.84545,45.453886)" stroke-width=".3985" stroke-linecap="butt" stroke-miterlimit="10" stroke-linejoin="miter" fill="none" stroke="#000000" d="M0 35.71718V43.65413"/>
<path transform="matrix(1.00003,0,0,-1.00003,32.84545,45.453886)" stroke-width=".3985" stroke-linecap="butt" stroke-miterlimit="10" stroke-linejoin="miter" fill="none" stroke="#000000" d="M0-35.71718V-43.65413"/>
</svg>
