<svg xmlns="http://www.w3.org/2000/svg" xmlns:xlink="http://www.w3.org/1999/xlink" xmlns:inkscape="http://www.inkscape.org/namespaces/inkscape" version="1.1" width="59" height="13" viewBox="0 0 59 13">
<path transform="matrix(1,0,0,-1.00008,1.0960007,8.028362)" stroke-width=".3985" stroke-linecap="butt" stroke-miterlimit="10" stroke-linejoin="miter" fill="none" stroke="#000000" d="M0 0H16.44109M40.25252 0H56.69362"/>
<path transform="matrix(1,0,0,-1.00008,1.0960007,8.028362)" stroke-width=".797" stroke-linecap="butt" stroke-linejoin="bevel" fill="none" stroke="#000000" d="M16.04257-.15938C16.04257 3.1283 17.67732 5.79346 19.69392 5.79346 21.71053 5.79346 23.34528 3.1283 23.34528-.15938 23.34528-1.80315 22.67902-3.13567 21.85713-3.13567 21.03526-3.13567 20.369-1.80315 20.369-.15938 20.369 3.1283 22.00375 5.79346 24.02036 5.79346 26.03696 5.79346 27.67169 3.1283 27.67169-.15938 27.67169-1.80315 27.00545-3.13567 26.18356-3.13567 25.36168-3.13567 24.69542-1.80315 24.69542-.15938 24.69542 3.1283 26.33017 5.79346 28.34677 5.79346 30.36337 5.79346 31.99812 3.1283 31.99812-.15938 31.99812-1.80315 31.33186-3.13567 30.50998-3.13567 29.68811-3.13567 29.02185-1.80315 29.02185-.15938 29.02185 3.1283 30.65659 5.79346 32.67319 5.79346 34.6898 5.79346 36.32454 3.1283 36.32454-.15938 36.32454-1.80315 35.65828-3.13567 34.83641-3.13567 34.01453-3.13567 33.34827-1.80315 33.34827-.15938 33.34827 3.1283 34.98302 5.79346 36.99962 5.79346 39.01622 5.79346 40.65097 3.1283 40.65097-.15938"/>
</svg>
