<svg xmlns="http://www.w3.org/2000/svg" xmlns:xlink="http://www.w3.org/1999/xlink" xmlns:inkscape="http://www.inkscape.org/namespaces/inkscape" version="1.1" width="31" height="19" viewBox="0 0 31 19">
<path transform="matrix(1.00002,0,0,-1.00003,1.095665,15.973)" stroke-width=".3985" stroke-linecap="butt" stroke-miterlimit="10" stroke-linejoin="miter" fill="none" stroke="#000000" d="M0 0H28.3468"/>
<path transform="matrix(1.00002,0,0,-1.00003,1.095665,15.973)" stroke-width=".3985" stroke-linecap="butt" stroke-miterlimit="10" stroke-linejoin="miter" fill="none" stroke="#000000" d="M14.17339 0 14.17337 7.08669M14.17337 7.08669 14.17339 14.17339"/>
<path transform="matrix(1.00002,0,0,-1.00003,1.095665,15.973)" d="M15.76054 0C15.76054 .87656 15.04996 1.58714 14.17339 1.58714 13.29683 1.58714 12.58624 .87656 12.58624 0 12.58624-.87656 13.29683-1.58714 14.17339-1.58714 15.04996-1.58714 15.76054-.87656 15.76054 0ZM14.17339 0"/>
<path transform="matrix(1.00002,0,0,-1.00003,1.095665,15.973)" stroke-width=".3985" stroke-linecap="butt" stroke-miterlimit="10" stroke-linejoin="miter" fill="none" stroke="#000000" d="M15.76054 0C15.76054 .87656 15.04996 1.58714 14.17339 1.58714 13.29683 1.58714 12.58624 .87656 12.58624 0 12.58624-.87656 13.29683-1.58714 14.17339-1.58714 15.04996-1.58714 15.76054-.87656 15.76054 0ZM14.17339 0"/>
</svg>
