<svg xmlns="http://www.w3.org/2000/svg" xmlns:xlink="http://www.w3.org/1999/xlink" xmlns:inkscape="http://www.inkscape.org/namespaces/inkscape" version="1.1" width="59" height="28" viewBox="0 0 59 28">
<path transform="matrix(1.00003,0,0,-1.00005,1.0964966,13.903894)" stroke-width=".3985" stroke-linecap="butt" stroke-miterlimit="10" stroke-linejoin="miter" fill="none" stroke="#000000" d="M0 0H16.44109M40.25252 0H56.69362"/>
<path transform="matrix(1.00003,0,0,-1.00005,1.0964966,13.903894)" stroke-width=".797" stroke-linecap="butt" stroke-miterlimit="10" stroke-linejoin="miter" fill="none" stroke="#000000" d="M28.3468 11.90572C21.77138 11.90572 16.44109 6.57541 16.44109 0 16.44109-6.57541 21.77138-11.90572 28.3468-11.90572 34.92223-11.90572 40.25252-6.57541 40.25252 0 40.25252 6.57541 34.92223 11.90572 28.3468 11.90572ZM28.3468 0"/>
<path transform="matrix(1.00003,0,0,-1.00005,1.0964966,13.903894)" stroke-width=".797" stroke-linecap="butt" stroke-miterlimit="10" stroke-linejoin="miter" fill="none" stroke="#000000" d="M20.01285 0H36.68076"/>
<path transform="matrix(1.00003,0,0,-1.00005,1.0964966,13.903894)" d="M32.56343 0V-1.98425L36.77998 0 32.56343 1.98425Z"/>
<path transform="matrix(1.00003,0,0,-1.00005,1.0964966,13.903894)" stroke-width=".797" stroke-linecap="butt" stroke-miterlimit="10" stroke-linejoin="miter" fill="none" stroke="#000000" d="M32.56343 0V-1.98425L36.77998 0 32.56343 1.98425Z"/>
</svg>
