<svg xmlns="http://www.w3.org/2000/svg" id="fig-transistor-pnp-block-figure" viewBox="0 0 110 210">
  <defs>
    <clipPath id="fig-transistor-pnp-block-clipPath-0">
      <rect x="5.0" y="5.0" width="100.0" height="200.0"/>
    </clipPath>
    <clipPath id="fig-transistor-pnp-block-clipPath-1">
      <rect x="5.0" y="5.0" width="100.0" height="200.0"/>
    </clipPath>
  </defs>
  <path id="fig-transistor-pnp-block-path-0" d="M 62.1 150.5 L 90.7 150.5 L 90.7 114.1 L 62.1 114.1 Z" stroke="black" stroke-width="1" fill="blue" fill-opacity="0.2"/>
  <path id="fig-transistor-pnp-block-path-1" d="M 62.1 114.1 L 90.7 114.1 L 90.7 95.9 L 62.1 95.9 Z" stroke="none" stroke-width="2" fill="green" fill-opacity="0.2"/>
  <path id="fig-transistor-pnp-block-path-2" d="M 62.1 95.9 L 90.7 95.9 L 90.7 59.5 L 62.1 59.5 Z" stroke="black" stroke-width="1" fill="blue" fill-opacity="0.2"/>
  <path id="fig-transistor-pnp-block-path-3" d="M 62.1 150.5 L 90.7 150.5 L 90.7 59.5 L 62.1 59.5 Z" stroke="black" stroke-width="2" fill="none"/>
  <g id="fig-transistor-pnp-block-label-0" transform="translate(76.4,132.3) translate(-4.4,-5.4)">
    <g id="fig-transistor-pnp-block-g-0">
      <text font-family="sans-serif" font-size="14" x="0.0" y="7.8">p</text>
    </g>
  </g>
  <g id="fig-transistor-pnp-block-label-1" transform="translate(76.4,105.0) translate(-4.4,-3.9)">
    <g id="fig-transistor-pnp-block-g-1">
      <text font-family="sans-serif" font-size="14" x="0.0" y="7.8">n</text>
    </g>
  </g>
  <g id="fig-transistor-pnp-block-label-2" transform="translate(76.4,77.7) translate(-4.4,-5.4)">
    <g id="fig-transistor-pnp-block-g-2">
      <text font-family="sans-serif" font-size="14" x="0.0" y="7.8">p</text>
    </g>
  </g>
  <path id="fig-transistor-pnp-block-path-4" d="M 62.1 105.0 L 33.6 105.0" stroke="black" stroke-width="2" fill="none" clip-path="url(#fig-transistor-pnp-block-clipPath-1)"/>
  <circle id="fig-transistor-pnp-block-circle-0" cx="33.6" cy="105.0" r="4" stroke="black" stroke-width="2" fill="white"/>
  <g id="fig-transistor-pnp-block-label-3" transform="translate(18.6,96.0) rotate(-0.0) translate(-17.0,-10.4)">
    <g id="fig-transistor-pnp-block-g-3">
      <text font-family="sans-serif" font-size="14" x="0.0" y="10.2">Base</text>
    </g>
  </g>
  <path id="fig-transistor-pnp-block-path-5" d="M 76.4 150.5 L 76.4 186.8" stroke="black" stroke-width="2" fill="none" clip-path="url(#fig-transistor-pnp-block-clipPath-1)"/>
  <circle id="fig-transistor-pnp-block-circle-1" cx="76.4" cy="186.8" r="4" stroke="black" stroke-width="2" fill="white"/>
  <g id="fig-transistor-pnp-block-label-4" transform="translate(67.4,186.8) rotate(-0.0) translate(-62.2,-5.4)">
    <g id="fig-transistor-pnp-block-g-4">
      <text font-family="sans-serif" font-size="14" x="0.0" y="10.6">Collector</text>
    </g>
  </g>
  <path id="fig-transistor-pnp-block-path-6" d="M 76.4 59.5 L 76.4 23.2" stroke="black" stroke-width="2" fill="none" clip-path="url(#fig-transistor-pnp-block-clipPath-1)"/>
  <circle id="fig-transistor-pnp-block-circle-2" cx="76.4" cy="23.2" r="4" stroke="black" stroke-width="2" fill="white"/>
  <g id="fig-transistor-pnp-block-label-5" transform="translate(67.4,23.2) rotate(-0.0) translate(-51.7,-5.4)">
    <g id="fig-transistor-pnp-block-g-5">
      <text font-family="sans-serif" font-size="14" x="0.0" y="10.6">Emitter</text>
    </g>
  </g>
</svg>
