<?xml version="1.0" encoding="utf-8" standalone="no"?>
<!DOCTYPE svg PUBLIC "-//W3C//DTD SVG 1.1//EN"
  "http://www.w3.org/Graphics/SVG/1.1/DTD/svg11.dtd">
<svg xmlns:xlink="http://www.w3.org/1999/xlink" width="454.001102pt" height="339.083125pt" viewBox="0 0 454.001102 339.083125" xmlns="http://www.w3.org/2000/svg" version="1.1">
 <metadata>
  <rdf:RDF xmlns:dc="http://purl.org/dc/elements/1.1/" xmlns:cc="http://creativecommons.org/ns#" xmlns:rdf="http://www.w3.org/1999/02/22-rdf-syntax-ns#">
   <cc:Work>
    <dc:type rdf:resource="http://purl.org/dc/dcmitype/StillImage"/>
    <dc:date>2026-02-09T14:58:47.461062</dc:date>
    <dc:format>image/svg+xml</dc:format>
    <dc:creator>
     <cc:Agent>
      <dc:title>Matplotlib v3.10.8, https://matplotlib.org/</dc:title>
     </cc:Agent>
    </dc:creator>
   </cc:Work>
  </rdf:RDF>
 </metadata>
 <defs>
  <style type="text/css">*{stroke-linejoin: round; stroke-linecap: butt}</style>
 </defs>
 <g id="figure_1">
  <g id="patch_1">
   <path d="M 0 339.083125 
L 454.001102 339.083125 
L 454.001102 0 
L 0 0 
z
" style="fill: #ffffff"/>
  </g>
  <g id="axes_1">
   <g id="patch_2">
    <path d="M 48.427188 295.72 
L 446.50488 295.72 
L 446.50488 7.2 
L 48.427188 7.2 
z
" style="fill: #ffffff"/>
   </g>
   <g id="matplotlib.axis_1">
    <g id="xtick_1">
     <g id="line2d_1">
      <defs>
       <path id="m4db85b21c7" d="M 0 0 
L 0 3.5 
" style="stroke: #000000; stroke-width: 0.8"/>
      </defs>
      <g>
       <use xlink:href="#m4db85b21c7" x="56.082528" y="295.72" style="stroke: #000000; stroke-width: 0.8"/>
      </g>
     </g>
     <g id="text_1">
      <!-- 0.0 -->
      <g transform="translate(48.130965 310.318437) scale(0.1 -0.1)">
       <defs>
        <path id="DejaVuSans-30" d="M 2034 4250 
Q 1547 4250 1301 3770 
Q 1056 3291 1056 2328 
Q 1056 1369 1301 889 
Q 1547 409 2034 409 
Q 2525 409 2770 889 
Q 3016 1369 3016 2328 
Q 3016 3291 2770 3770 
Q 2525 4250 2034 4250 
z
M 2034 4750 
Q 2819 4750 3233 4129 
Q 3647 3509 3647 2328 
Q 3647 1150 3233 529 
Q 2819 -91 2034 -91 
Q 1250 -91 836 529 
Q 422 1150 422 2328 
Q 422 3509 836 4129 
Q 1250 4750 2034 4750 
z
" transform="scale(0.015625)"/>
        <path id="DejaVuSans-2e" d="M 684 794 
L 1344 794 
L 1344 0 
L 684 0 
L 684 794 
z
" transform="scale(0.015625)"/>
       </defs>
       <use xlink:href="#DejaVuSans-30"/>
       <use xlink:href="#DejaVuSans-2e" transform="translate(63.623047 0)"/>
       <use xlink:href="#DejaVuSans-30" transform="translate(95.410156 0)"/>
      </g>
     </g>
    </g>
    <g id="xtick_2">
     <g id="line2d_2">
      <g>
       <use xlink:href="#m4db85b21c7" x="132.63593" y="295.72" style="stroke: #000000; stroke-width: 0.8"/>
      </g>
     </g>
     <g id="text_2">
      <!-- 0.2 -->
      <g transform="translate(124.684368 310.318437) scale(0.1 -0.1)">
       <defs>
        <path id="DejaVuSans-32" d="M 1228 531 
L 3431 531 
L 3431 0 
L 469 0 
L 469 531 
Q 828 903 1448 1529 
Q 2069 2156 2228 2338 
Q 2531 2678 2651 2914 
Q 2772 3150 2772 3378 
Q 2772 3750 2511 3984 
Q 2250 4219 1831 4219 
Q 1534 4219 1204 4116 
Q 875 4013 500 3803 
L 500 4441 
Q 881 4594 1212 4672 
Q 1544 4750 1819 4750 
Q 2544 4750 2975 4387 
Q 3406 4025 3406 3419 
Q 3406 3131 3298 2873 
Q 3191 2616 2906 2266 
Q 2828 2175 2409 1742 
Q 1991 1309 1228 531 
z
" transform="scale(0.015625)"/>
       </defs>
       <use xlink:href="#DejaVuSans-30"/>
       <use xlink:href="#DejaVuSans-2e" transform="translate(63.623047 0)"/>
       <use xlink:href="#DejaVuSans-32" transform="translate(95.410156 0)"/>
      </g>
     </g>
    </g>
    <g id="xtick_3">
     <g id="line2d_3">
      <g>
       <use xlink:href="#m4db85b21c7" x="209.189332" y="295.72" style="stroke: #000000; stroke-width: 0.8"/>
      </g>
     </g>
     <g id="text_3">
      <!-- 0.4 -->
      <g transform="translate(201.23777 310.318437) scale(0.1 -0.1)">
       <defs>
        <path id="DejaVuSans-34" d="M 2419 4116 
L 825 1625 
L 2419 1625 
L 2419 4116 
z
M 2253 4666 
L 3047 4666 
L 3047 1625 
L 3713 1625 
L 3713 1100 
L 3047 1100 
L 3047 0 
L 2419 0 
L 2419 1100 
L 313 1100 
L 313 1709 
L 2253 4666 
z
" transform="scale(0.015625)"/>
       </defs>
       <use xlink:href="#DejaVuSans-30"/>
       <use xlink:href="#DejaVuSans-2e" transform="translate(63.623047 0)"/>
       <use xlink:href="#DejaVuSans-34" transform="translate(95.410156 0)"/>
      </g>
     </g>
    </g>
    <g id="xtick_4">
     <g id="line2d_4">
      <g>
       <use xlink:href="#m4db85b21c7" x="285.742735" y="295.72" style="stroke: #000000; stroke-width: 0.8"/>
      </g>
     </g>
     <g id="text_4">
      <!-- 0.6 -->
      <g transform="translate(277.791172 310.318437) scale(0.1 -0.1)">
       <defs>
        <path id="DejaVuSans-36" d="M 2113 2584 
Q 1688 2584 1439 2293 
Q 1191 2003 1191 1497 
Q 1191 994 1439 701 
Q 1688 409 2113 409 
Q 2538 409 2786 701 
Q 3034 994 3034 1497 
Q 3034 2003 2786 2293 
Q 2538 2584 2113 2584 
z
M 3366 4563 
L 3366 3988 
Q 3128 4100 2886 4159 
Q 2644 4219 2406 4219 
Q 1781 4219 1451 3797 
Q 1122 3375 1075 2522 
Q 1259 2794 1537 2939 
Q 1816 3084 2150 3084 
Q 2853 3084 3261 2657 
Q 3669 2231 3669 1497 
Q 3669 778 3244 343 
Q 2819 -91 2113 -91 
Q 1303 -91 875 529 
Q 447 1150 447 2328 
Q 447 3434 972 4092 
Q 1497 4750 2381 4750 
Q 2619 4750 2861 4703 
Q 3103 4656 3366 4563 
z
" transform="scale(0.015625)"/>
       </defs>
       <use xlink:href="#DejaVuSans-30"/>
       <use xlink:href="#DejaVuSans-2e" transform="translate(63.623047 0)"/>
       <use xlink:href="#DejaVuSans-36" transform="translate(95.410156 0)"/>
      </g>
     </g>
    </g>
    <g id="xtick_5">
     <g id="line2d_5">
      <g>
       <use xlink:href="#m4db85b21c7" x="362.296137" y="295.72" style="stroke: #000000; stroke-width: 0.8"/>
      </g>
     </g>
     <g id="text_5">
      <!-- 0.8 -->
      <g transform="translate(354.344575 310.318437) scale(0.1 -0.1)">
       <defs>
        <path id="DejaVuSans-38" d="M 2034 2216 
Q 1584 2216 1326 1975 
Q 1069 1734 1069 1313 
Q 1069 891 1326 650 
Q 1584 409 2034 409 
Q 2484 409 2743 651 
Q 3003 894 3003 1313 
Q 3003 1734 2745 1975 
Q 2488 2216 2034 2216 
z
M 1403 2484 
Q 997 2584 770 2862 
Q 544 3141 544 3541 
Q 544 4100 942 4425 
Q 1341 4750 2034 4750 
Q 2731 4750 3128 4425 
Q 3525 4100 3525 3541 
Q 3525 3141 3298 2862 
Q 3072 2584 2669 2484 
Q 3125 2378 3379 2068 
Q 3634 1759 3634 1313 
Q 3634 634 3220 271 
Q 2806 -91 2034 -91 
Q 1263 -91 848 271 
Q 434 634 434 1313 
Q 434 1759 690 2068 
Q 947 2378 1403 2484 
z
M 1172 3481 
Q 1172 3119 1398 2916 
Q 1625 2713 2034 2713 
Q 2441 2713 2670 2916 
Q 2900 3119 2900 3481 
Q 2900 3844 2670 4047 
Q 2441 4250 2034 4250 
Q 1625 4250 1398 4047 
Q 1172 3844 1172 3481 
z
" transform="scale(0.015625)"/>
       </defs>
       <use xlink:href="#DejaVuSans-30"/>
       <use xlink:href="#DejaVuSans-2e" transform="translate(63.623047 0)"/>
       <use xlink:href="#DejaVuSans-38" transform="translate(95.410156 0)"/>
      </g>
     </g>
    </g>
    <g id="xtick_6">
     <g id="line2d_6">
      <g>
       <use xlink:href="#m4db85b21c7" x="438.84954" y="295.72" style="stroke: #000000; stroke-width: 0.8"/>
      </g>
     </g>
     <g id="text_6">
      <!-- 1.0 -->
      <g transform="translate(430.897977 310.318437) scale(0.1 -0.1)">
       <defs>
        <path id="DejaVuSans-31" d="M 794 531 
L 1825 531 
L 1825 4091 
L 703 3866 
L 703 4441 
L 1819 4666 
L 2450 4666 
L 2450 531 
L 3481 531 
L 3481 0 
L 794 0 
L 794 531 
z
" transform="scale(0.015625)"/>
       </defs>
       <use xlink:href="#DejaVuSans-31"/>
       <use xlink:href="#DejaVuSans-2e" transform="translate(63.623047 0)"/>
       <use xlink:href="#DejaVuSans-30" transform="translate(95.410156 0)"/>
      </g>
     </g>
    </g>
    <g id="xtick_7">
     <g id="line2d_7">
      <defs>
       <path id="m16e6b5c68f" d="M 0 0 
L 0 2 
" style="stroke: #000000; stroke-width: 0.6"/>
      </defs>
      <g>
       <use xlink:href="#m16e6b5c68f" x="75.220878" y="295.72" style="stroke: #000000; stroke-width: 0.6"/>
      </g>
     </g>
    </g>
    <g id="xtick_8">
     <g id="line2d_8">
      <g>
       <use xlink:href="#m16e6b5c68f" x="94.359229" y="295.72" style="stroke: #000000; stroke-width: 0.6"/>
      </g>
     </g>
    </g>
    <g id="xtick_9">
     <g id="line2d_9">
      <g>
       <use xlink:href="#m16e6b5c68f" x="113.49758" y="295.72" style="stroke: #000000; stroke-width: 0.6"/>
      </g>
     </g>
    </g>
    <g id="xtick_10">
     <g id="line2d_10">
      <g>
       <use xlink:href="#m16e6b5c68f" x="151.774281" y="295.72" style="stroke: #000000; stroke-width: 0.6"/>
      </g>
     </g>
    </g>
    <g id="xtick_11">
     <g id="line2d_11">
      <g>
       <use xlink:href="#m16e6b5c68f" x="170.912631" y="295.72" style="stroke: #000000; stroke-width: 0.6"/>
      </g>
     </g>
    </g>
    <g id="xtick_12">
     <g id="line2d_12">
      <g>
       <use xlink:href="#m16e6b5c68f" x="190.050982" y="295.72" style="stroke: #000000; stroke-width: 0.6"/>
      </g>
     </g>
    </g>
    <g id="xtick_13">
     <g id="line2d_13">
      <g>
       <use xlink:href="#m16e6b5c68f" x="228.327683" y="295.72" style="stroke: #000000; stroke-width: 0.6"/>
      </g>
     </g>
    </g>
    <g id="xtick_14">
     <g id="line2d_14">
      <g>
       <use xlink:href="#m16e6b5c68f" x="247.466034" y="295.72" style="stroke: #000000; stroke-width: 0.6"/>
      </g>
     </g>
    </g>
    <g id="xtick_15">
     <g id="line2d_15">
      <g>
       <use xlink:href="#m16e6b5c68f" x="266.604384" y="295.72" style="stroke: #000000; stroke-width: 0.6"/>
      </g>
     </g>
    </g>
    <g id="xtick_16">
     <g id="line2d_16">
      <g>
       <use xlink:href="#m16e6b5c68f" x="304.881085" y="295.72" style="stroke: #000000; stroke-width: 0.6"/>
      </g>
     </g>
    </g>
    <g id="xtick_17">
     <g id="line2d_17">
      <g>
       <use xlink:href="#m16e6b5c68f" x="324.019436" y="295.72" style="stroke: #000000; stroke-width: 0.6"/>
      </g>
     </g>
    </g>
    <g id="xtick_18">
     <g id="line2d_18">
      <g>
       <use xlink:href="#m16e6b5c68f" x="343.157787" y="295.72" style="stroke: #000000; stroke-width: 0.6"/>
      </g>
     </g>
    </g>
    <g id="xtick_19">
     <g id="line2d_19">
      <g>
       <use xlink:href="#m16e6b5c68f" x="381.434488" y="295.72" style="stroke: #000000; stroke-width: 0.6"/>
      </g>
     </g>
    </g>
    <g id="xtick_20">
     <g id="line2d_20">
      <g>
       <use xlink:href="#m16e6b5c68f" x="400.572838" y="295.72" style="stroke: #000000; stroke-width: 0.6"/>
      </g>
     </g>
    </g>
    <g id="xtick_21">
     <g id="line2d_21">
      <g>
       <use xlink:href="#m16e6b5c68f" x="419.711189" y="295.72" style="stroke: #000000; stroke-width: 0.6"/>
      </g>
     </g>
    </g>
    <g id="text_7">
     <!-- Time (s) -->
     <g transform="translate(214.939784 328.555625) scale(0.16 -0.16)">
      <defs>
       <path id="DejaVuSans-54" d="M -19 4666 
L 3928 4666 
L 3928 4134 
L 2272 4134 
L 2272 0 
L 1638 0 
L 1638 4134 
L -19 4134 
L -19 4666 
z
" transform="scale(0.015625)"/>
       <path id="DejaVuSans-69" d="M 603 3500 
L 1178 3500 
L 1178 0 
L 603 0 
L 603 3500 
z
M 603 4863 
L 1178 4863 
L 1178 4134 
L 603 4134 
L 603 4863 
z
" transform="scale(0.015625)"/>
       <path id="DejaVuSans-6d" d="M 3328 2828 
Q 3544 3216 3844 3400 
Q 4144 3584 4550 3584 
Q 5097 3584 5394 3201 
Q 5691 2819 5691 2113 
L 5691 0 
L 5113 0 
L 5113 2094 
Q 5113 2597 4934 2840 
Q 4756 3084 4391 3084 
Q 3944 3084 3684 2787 
Q 3425 2491 3425 1978 
L 3425 0 
L 2847 0 
L 2847 2094 
Q 2847 2600 2669 2842 
Q 2491 3084 2119 3084 
Q 1678 3084 1418 2786 
Q 1159 2488 1159 1978 
L 1159 0 
L 581 0 
L 581 3500 
L 1159 3500 
L 1159 2956 
Q 1356 3278 1631 3431 
Q 1906 3584 2284 3584 
Q 2666 3584 2933 3390 
Q 3200 3197 3328 2828 
z
" transform="scale(0.015625)"/>
       <path id="DejaVuSans-65" d="M 3597 1894 
L 3597 1613 
L 953 1613 
Q 991 1019 1311 708 
Q 1631 397 2203 397 
Q 2534 397 2845 478 
Q 3156 559 3463 722 
L 3463 178 
Q 3153 47 2828 -22 
Q 2503 -91 2169 -91 
Q 1331 -91 842 396 
Q 353 884 353 1716 
Q 353 2575 817 3079 
Q 1281 3584 2069 3584 
Q 2775 3584 3186 3129 
Q 3597 2675 3597 1894 
z
M 3022 2063 
Q 3016 2534 2758 2815 
Q 2500 3097 2075 3097 
Q 1594 3097 1305 2825 
Q 1016 2553 972 2059 
L 3022 2063 
z
" transform="scale(0.015625)"/>
       <path id="DejaVuSans-20" transform="scale(0.015625)"/>
       <path id="DejaVuSans-28" d="M 1984 4856 
Q 1566 4138 1362 3434 
Q 1159 2731 1159 2009 
Q 1159 1288 1364 580 
Q 1569 -128 1984 -844 
L 1484 -844 
Q 1016 -109 783 600 
Q 550 1309 550 2009 
Q 550 2706 781 3412 
Q 1013 4119 1484 4856 
L 1984 4856 
z
" transform="scale(0.015625)"/>
       <path id="DejaVuSans-73" d="M 2834 3397 
L 2834 2853 
Q 2591 2978 2328 3040 
Q 2066 3103 1784 3103 
Q 1356 3103 1142 2972 
Q 928 2841 928 2578 
Q 928 2378 1081 2264 
Q 1234 2150 1697 2047 
L 1894 2003 
Q 2506 1872 2764 1633 
Q 3022 1394 3022 966 
Q 3022 478 2636 193 
Q 2250 -91 1575 -91 
Q 1294 -91 989 -36 
Q 684 19 347 128 
L 347 722 
Q 666 556 975 473 
Q 1284 391 1588 391 
Q 1994 391 2212 530 
Q 2431 669 2431 922 
Q 2431 1156 2273 1281 
Q 2116 1406 1581 1522 
L 1381 1569 
Q 847 1681 609 1914 
Q 372 2147 372 2553 
Q 372 3047 722 3315 
Q 1072 3584 1716 3584 
Q 2034 3584 2315 3537 
Q 2597 3491 2834 3397 
z
" transform="scale(0.015625)"/>
       <path id="DejaVuSans-29" d="M 513 4856 
L 1013 4856 
Q 1481 4119 1714 3412 
Q 1947 2706 1947 2009 
Q 1947 1309 1714 600 
Q 1481 -109 1013 -844 
L 513 -844 
Q 928 -128 1133 580 
Q 1338 1288 1338 2009 
Q 1338 2731 1133 3434 
Q 928 4138 513 4856 
z
" transform="scale(0.015625)"/>
      </defs>
      <use xlink:href="#DejaVuSans-54"/>
      <use xlink:href="#DejaVuSans-69" transform="translate(57.958984 0)"/>
      <use xlink:href="#DejaVuSans-6d" transform="translate(85.742188 0)"/>
      <use xlink:href="#DejaVuSans-65" transform="translate(183.154297 0)"/>
      <use xlink:href="#DejaVuSans-20" transform="translate(244.677734 0)"/>
      <use xlink:href="#DejaVuSans-28" transform="translate(276.464844 0)"/>
      <use xlink:href="#DejaVuSans-73" transform="translate(315.478516 0)"/>
      <use xlink:href="#DejaVuSans-29" transform="translate(367.578125 0)"/>
     </g>
    </g>
   </g>
   <g id="matplotlib.axis_2">
    <g id="ytick_1">
     <g id="line2d_22">
      <defs>
       <path id="m71bb9a5d33" d="M 0 0 
L -3.5 0 
" style="stroke: #000000; stroke-width: 0.8"/>
      </defs>
      <g>
       <use xlink:href="#m71bb9a5d33" x="48.427188" y="262.430317" style="stroke: #000000; stroke-width: 0.8"/>
      </g>
     </g>
     <g id="text_8">
      <!-- −4 -->
      <g transform="translate(26.685 266.229535) scale(0.1 -0.1)">
       <defs>
        <path id="DejaVuSans-2212" d="M 678 2272 
L 4684 2272 
L 4684 1741 
L 678 1741 
L 678 2272 
z
" transform="scale(0.015625)"/>
       </defs>
       <use xlink:href="#DejaVuSans-2212"/>
       <use xlink:href="#DejaVuSans-34" transform="translate(83.789062 0)"/>
      </g>
     </g>
    </g>
    <g id="ytick_2">
     <g id="line2d_23">
      <g>
       <use xlink:href="#m71bb9a5d33" x="48.427188" y="206.945414" style="stroke: #000000; stroke-width: 0.8"/>
      </g>
     </g>
     <g id="text_9">
      <!-- −2 -->
      <g transform="translate(26.685 210.744633) scale(0.1 -0.1)">
       <use xlink:href="#DejaVuSans-2212"/>
       <use xlink:href="#DejaVuSans-32" transform="translate(83.789062 0)"/>
      </g>
     </g>
    </g>
    <g id="ytick_3">
     <g id="line2d_24">
      <g>
       <use xlink:href="#m71bb9a5d33" x="48.427188" y="151.460511" style="stroke: #000000; stroke-width: 0.8"/>
      </g>
     </g>
     <g id="text_10">
      <!-- 0 -->
      <g transform="translate(35.064688 155.25973) scale(0.1 -0.1)">
       <use xlink:href="#DejaVuSans-30"/>
      </g>
     </g>
    </g>
    <g id="ytick_4">
     <g id="line2d_25">
      <g>
       <use xlink:href="#m71bb9a5d33" x="48.427188" y="95.975608" style="stroke: #000000; stroke-width: 0.8"/>
      </g>
     </g>
     <g id="text_11">
      <!-- 2 -->
      <g transform="translate(35.064688 99.774827) scale(0.1 -0.1)">
       <use xlink:href="#DejaVuSans-32"/>
      </g>
     </g>
    </g>
    <g id="ytick_5">
     <g id="line2d_26">
      <g>
       <use xlink:href="#m71bb9a5d33" x="48.427188" y="40.490705" style="stroke: #000000; stroke-width: 0.8"/>
      </g>
     </g>
     <g id="text_12">
      <!-- 4 -->
      <g transform="translate(35.064688 44.289924) scale(0.1 -0.1)">
       <use xlink:href="#DejaVuSans-34"/>
      </g>
     </g>
    </g>
    <g id="ytick_6">
     <g id="line2d_27">
      <defs>
       <path id="m7c8ca2b97d" d="M 0 0 
L -2 0 
" style="stroke: #000000; stroke-width: 0.6"/>
      </defs>
      <g>
       <use xlink:href="#m7c8ca2b97d" x="48.427188" y="290.172768" style="stroke: #000000; stroke-width: 0.6"/>
      </g>
     </g>
    </g>
    <g id="ytick_7">
     <g id="line2d_28">
      <g>
       <use xlink:href="#m7c8ca2b97d" x="48.427188" y="276.301542" style="stroke: #000000; stroke-width: 0.6"/>
      </g>
     </g>
    </g>
    <g id="ytick_8">
     <g id="line2d_29">
      <g>
       <use xlink:href="#m7c8ca2b97d" x="48.427188" y="248.559091" style="stroke: #000000; stroke-width: 0.6"/>
      </g>
     </g>
    </g>
    <g id="ytick_9">
     <g id="line2d_30">
      <g>
       <use xlink:href="#m7c8ca2b97d" x="48.427188" y="234.687865" style="stroke: #000000; stroke-width: 0.6"/>
      </g>
     </g>
    </g>
    <g id="ytick_10">
     <g id="line2d_31">
      <g>
       <use xlink:href="#m7c8ca2b97d" x="48.427188" y="220.81664" style="stroke: #000000; stroke-width: 0.6"/>
      </g>
     </g>
    </g>
    <g id="ytick_11">
     <g id="line2d_32">
      <g>
       <use xlink:href="#m7c8ca2b97d" x="48.427188" y="193.074188" style="stroke: #000000; stroke-width: 0.6"/>
      </g>
     </g>
    </g>
    <g id="ytick_12">
     <g id="line2d_33">
      <g>
       <use xlink:href="#m7c8ca2b97d" x="48.427188" y="179.202962" style="stroke: #000000; stroke-width: 0.6"/>
      </g>
     </g>
    </g>
    <g id="ytick_13">
     <g id="line2d_34">
      <g>
       <use xlink:href="#m7c8ca2b97d" x="48.427188" y="165.331737" style="stroke: #000000; stroke-width: 0.6"/>
      </g>
     </g>
    </g>
    <g id="ytick_14">
     <g id="line2d_35">
      <g>
       <use xlink:href="#m7c8ca2b97d" x="48.427188" y="137.589285" style="stroke: #000000; stroke-width: 0.6"/>
      </g>
     </g>
    </g>
    <g id="ytick_15">
     <g id="line2d_36">
      <g>
       <use xlink:href="#m7c8ca2b97d" x="48.427188" y="123.71806" style="stroke: #000000; stroke-width: 0.6"/>
      </g>
     </g>
    </g>
    <g id="ytick_16">
     <g id="line2d_37">
      <g>
       <use xlink:href="#m7c8ca2b97d" x="48.427188" y="109.846834" style="stroke: #000000; stroke-width: 0.6"/>
      </g>
     </g>
    </g>
    <g id="ytick_17">
     <g id="line2d_38">
      <g>
       <use xlink:href="#m7c8ca2b97d" x="48.427188" y="82.104383" style="stroke: #000000; stroke-width: 0.6"/>
      </g>
     </g>
    </g>
    <g id="ytick_18">
     <g id="line2d_39">
      <g>
       <use xlink:href="#m7c8ca2b97d" x="48.427188" y="68.233157" style="stroke: #000000; stroke-width: 0.6"/>
      </g>
     </g>
    </g>
    <g id="ytick_19">
     <g id="line2d_40">
      <g>
       <use xlink:href="#m7c8ca2b97d" x="48.427188" y="54.361931" style="stroke: #000000; stroke-width: 0.6"/>
      </g>
     </g>
    </g>
    <g id="ytick_20">
     <g id="line2d_41">
      <g>
       <use xlink:href="#m7c8ca2b97d" x="48.427188" y="26.61948" style="stroke: #000000; stroke-width: 0.6"/>
      </g>
     </g>
    </g>
    <g id="ytick_21">
     <g id="line2d_42">
      <g>
       <use xlink:href="#m7c8ca2b97d" x="48.427188" y="12.748254" style="stroke: #000000; stroke-width: 0.6"/>
      </g>
     </g>
    </g>
    <g id="text_13">
     <!-- Voltage (V) -->
     <g transform="translate(19.3575 195.7275) rotate(-90) scale(0.16 -0.16)">
      <defs>
       <path id="DejaVuSans-56" d="M 1831 0 
L 50 4666 
L 709 4666 
L 2188 738 
L 3669 4666 
L 4325 4666 
L 2547 0 
L 1831 0 
z
" transform="scale(0.015625)"/>
       <path id="DejaVuSans-6f" d="M 1959 3097 
Q 1497 3097 1228 2736 
Q 959 2375 959 1747 
Q 959 1119 1226 758 
Q 1494 397 1959 397 
Q 2419 397 2687 759 
Q 2956 1122 2956 1747 
Q 2956 2369 2687 2733 
Q 2419 3097 1959 3097 
z
M 1959 3584 
Q 2709 3584 3137 3096 
Q 3566 2609 3566 1747 
Q 3566 888 3137 398 
Q 2709 -91 1959 -91 
Q 1206 -91 779 398 
Q 353 888 353 1747 
Q 353 2609 779 3096 
Q 1206 3584 1959 3584 
z
" transform="scale(0.015625)"/>
       <path id="DejaVuSans-6c" d="M 603 4863 
L 1178 4863 
L 1178 0 
L 603 0 
L 603 4863 
z
" transform="scale(0.015625)"/>
       <path id="DejaVuSans-74" d="M 1172 4494 
L 1172 3500 
L 2356 3500 
L 2356 3053 
L 1172 3053 
L 1172 1153 
Q 1172 725 1289 603 
Q 1406 481 1766 481 
L 2356 481 
L 2356 0 
L 1766 0 
Q 1100 0 847 248 
Q 594 497 594 1153 
L 594 3053 
L 172 3053 
L 172 3500 
L 594 3500 
L 594 4494 
L 1172 4494 
z
" transform="scale(0.015625)"/>
       <path id="DejaVuSans-61" d="M 2194 1759 
Q 1497 1759 1228 1600 
Q 959 1441 959 1056 
Q 959 750 1161 570 
Q 1363 391 1709 391 
Q 2188 391 2477 730 
Q 2766 1069 2766 1631 
L 2766 1759 
L 2194 1759 
z
M 3341 1997 
L 3341 0 
L 2766 0 
L 2766 531 
Q 2569 213 2275 61 
Q 1981 -91 1556 -91 
Q 1019 -91 701 211 
Q 384 513 384 1019 
Q 384 1609 779 1909 
Q 1175 2209 1959 2209 
L 2766 2209 
L 2766 2266 
Q 2766 2663 2505 2880 
Q 2244 3097 1772 3097 
Q 1472 3097 1187 3025 
Q 903 2953 641 2809 
L 641 3341 
Q 956 3463 1253 3523 
Q 1550 3584 1831 3584 
Q 2591 3584 2966 3190 
Q 3341 2797 3341 1997 
z
" transform="scale(0.015625)"/>
       <path id="DejaVuSans-67" d="M 2906 1791 
Q 2906 2416 2648 2759 
Q 2391 3103 1925 3103 
Q 1463 3103 1205 2759 
Q 947 2416 947 1791 
Q 947 1169 1205 825 
Q 1463 481 1925 481 
Q 2391 481 2648 825 
Q 2906 1169 2906 1791 
z
M 3481 434 
Q 3481 -459 3084 -895 
Q 2688 -1331 1869 -1331 
Q 1566 -1331 1297 -1286 
Q 1028 -1241 775 -1147 
L 775 -588 
Q 1028 -725 1275 -790 
Q 1522 -856 1778 -856 
Q 2344 -856 2625 -561 
Q 2906 -266 2906 331 
L 2906 616 
Q 2728 306 2450 153 
Q 2172 0 1784 0 
Q 1141 0 747 490 
Q 353 981 353 1791 
Q 353 2603 747 3093 
Q 1141 3584 1784 3584 
Q 2172 3584 2450 3431 
Q 2728 3278 2906 2969 
L 2906 3500 
L 3481 3500 
L 3481 434 
z
" transform="scale(0.015625)"/>
      </defs>
      <use xlink:href="#DejaVuSans-56"/>
      <use xlink:href="#DejaVuSans-6f" transform="translate(60.658203 0)"/>
      <use xlink:href="#DejaVuSans-6c" transform="translate(121.839844 0)"/>
      <use xlink:href="#DejaVuSans-74" transform="translate(149.623047 0)"/>
      <use xlink:href="#DejaVuSans-61" transform="translate(188.832031 0)"/>
      <use xlink:href="#DejaVuSans-67" transform="translate(250.111328 0)"/>
      <use xlink:href="#DejaVuSans-65" transform="translate(313.587891 0)"/>
      <use xlink:href="#DejaVuSans-20" transform="translate(375.111328 0)"/>
      <use xlink:href="#DejaVuSans-28" transform="translate(406.898438 0)"/>
      <use xlink:href="#DejaVuSans-56" transform="translate(445.912109 0)"/>
      <use xlink:href="#DejaVuSans-29" transform="translate(514.320312 0)"/>
     </g>
    </g>
   </g>
   <g id="line2d_43">
    <path d="M 56.082528 151.460511 
L 62.219073 107.741844 
L 65.287346 87.287757 
L 68.355618 68.479553 
L 70.656823 55.745641 
L 72.958027 44.393886 
L 74.492164 37.67576 
L 76.0263 31.688386 
L 77.560436 26.470217 
L 79.094573 22.054766 
L 80.628709 18.470389 
L 82.162845 15.740105 
L 82.929913 14.700946 
L 83.696981 13.881451 
L 84.46405 13.282936 
L 85.231118 12.906362 
L 85.998186 12.752334 
L 86.765254 12.8211 
L 87.532322 13.11255 
L 88.29939 13.626214 
L 89.066459 14.361268 
L 89.833527 15.316532 
L 90.600595 16.490471 
L 92.134731 19.486483 
L 93.668868 23.330063 
L 95.203004 27.996528 
L 96.73714 33.455908 
L 98.271277 39.673141 
L 99.805413 46.608299 
L 102.106617 58.258525 
L 104.407822 71.254622 
L 106.709026 85.40892 
L 109.777299 105.727651 
L 113.61264 132.711381 
L 122.817458 198.422306 
L 125.88573 218.65573 
L 128.186935 232.726651 
L 130.488139 245.62406 
L 132.789344 257.161713 
L 134.32348 264.014904 
L 135.857616 270.145244 
L 137.391753 275.513362 
L 138.925889 280.084783 
L 140.460025 283.830149 
L 141.994162 286.725406 
L 142.76123 287.848216 
L 143.528298 288.751959 
L 144.295366 289.435185 
L 145.062434 289.896795 
L 145.829502 290.136048 
L 146.596571 290.152559 
L 147.363639 289.946303 
L 148.130707 289.517611 
L 148.897775 288.86717 
L 149.664843 287.996027 
L 150.431911 286.905579 
L 151.966048 284.074128 
L 153.500184 280.391001 
L 155.03432 275.879851 
L 156.568457 270.569651 
L 158.102593 264.494504 
L 159.636729 257.693425 
L 161.937934 246.227439 
L 164.239138 233.392985 
L 166.540343 219.375395 
L 169.608615 199.196803 
L 173.443956 172.315692 
L 183.415842 101.284331 
L 186.484115 81.283954 
L 188.785319 67.4384 
L 191.086524 54.806156 
L 193.387728 43.569636 
L 194.921865 36.935055 
L 196.456001 31.035983 
L 197.990137 25.910307 
L 199.524274 21.590944 
L 201.05841 18.105634 
L 202.592546 15.47676 
L 203.359614 14.488981 
L 204.126683 13.721206 
L 204.893751 13.174669 
L 205.660819 12.850247 
L 206.427887 12.748462 
L 207.194955 12.869476 
L 207.962023 13.213096 
L 208.729092 13.778769 
L 209.49616 14.565587 
L 210.263228 15.572287 
L 211.030296 16.797251 
L 212.564432 19.893754 
L 214.098569 23.835209 
L 215.632705 28.596305 
L 217.166841 34.146464 
L 218.700978 40.450041 
L 220.235114 47.466554 
L 222.536318 59.228323 
L 224.837523 72.321959 
L 227.138727 86.558384 
L 230.207 106.960626 
L 234.809409 139.532053 
L 242.480091 194.396416 
L 245.548363 214.901628 
L 248.616636 233.779722 
L 250.91784 246.577303 
L 253.219045 258.001364 
L 254.753181 264.771982 
L 256.287317 270.814887 
L 257.821454 276.091269 
L 259.35559 280.567243 
L 260.889726 284.214064 
L 262.423863 287.008309 
L 263.190931 288.079891 
L 263.957999 288.932034 
L 264.725067 289.56337 
L 265.492135 289.972885 
L 266.259204 290.159921 
L 267.026272 290.124176 
L 267.79334 289.86571 
L 268.560408 289.384937 
L 269.327476 288.682629 
L 270.094544 287.759914 
L 270.861613 286.618275 
L 272.395749 283.685905 
L 273.929885 279.904353 
L 275.464021 275.297904 
L 276.998158 269.896142 
L 278.532294 263.733758 
L 280.06643 256.850328 
L 282.367635 245.271124 
L 284.668839 232.337261 
L 286.970044 218.235508 
L 290.038317 197.970479 
L 293.873657 171.025734 
L 303.845543 100.070983 
L 306.913816 80.162369 
L 309.215021 66.404671 
L 311.516225 53.875211 
L 313.817429 42.754918 
L 315.351566 36.204469 
L 316.885702 30.394221 
L 318.419838 25.36149 
L 319.953975 21.138597 
L 321.488111 17.752661 
L 323.022247 15.22543 
L 323.789316 14.289118 
L 324.556384 13.573132 
L 325.323452 13.078621 
L 326.09052 12.80638 
L 326.857588 12.756845 
L 327.624656 12.930097 
L 328.391725 13.325857 
L 329.158793 13.943489 
L 329.925861 14.782002 
L 330.692929 15.840049 
L 331.459997 17.115929 
L 332.994133 20.312649 
L 334.52827 24.351632 
L 336.062406 29.206938 
L 337.596542 34.847385 
L 339.130679 41.236749 
L 341.431883 52.134003 
L 343.733088 64.465567 
L 346.034292 78.05337 
L 349.102565 97.783194 
L 352.937906 124.3186 
L 365.210996 211.087816 
L 368.279269 230.316213 
L 370.580473 243.435398 
L 372.881678 255.226432 
L 375.182882 265.519048 
L 376.717019 271.473984 
L 378.251155 276.658164 
L 379.785291 281.038296 
L 381.319428 284.586248 
L 382.853564 287.279236 
L 383.620632 288.299495 
L 384.3877 289.099963 
L 385.154768 289.679354 
L 385.921837 290.036737 
L 386.688905 290.171538 
L 387.455973 290.083542 
L 388.223041 289.772888 
L 388.990109 289.240077 
L 389.757177 288.485963 
L 390.524245 287.511758 
L 391.291314 286.319028 
L 392.82545 283.285999 
L 394.359586 279.406356 
L 395.893723 274.705015 
L 397.427859 269.212168 
L 398.961995 262.963092 
L 400.496132 255.99792 
L 402.797336 244.30652 
L 405.098541 231.274391 
L 407.399745 217.08972 
L 410.468018 196.740045 
L 414.303358 169.734048 
L 423.508176 104.047451 
L 426.576449 83.845875 
L 428.877653 69.805953 
L 431.178858 56.945153 
L 433.480062 45.449189 
L 435.014199 38.626319 
L 436.548335 32.528097 
L 438.082471 27.193686 
L 438.84954 24.823815 
L 438.84954 24.823815 
" clip-path="url(#pe7ad79885c)" style="fill: none; stroke: #0000ff; stroke-width: 2; stroke-linecap: square"/>
   </g>
   <g id="line2d_44">
    <path d="M 56.082528 151.460511 
L 58.383732 151.460511 
L 62.986141 119.147583 
L 66.054414 99.057211 
L 68.355618 85.125024 
L 70.656823 72.391112 
L 72.958027 61.039357 
L 74.492164 54.321231 
L 76.0263 48.333857 
L 77.560436 43.115688 
L 79.094573 38.700237 
L 80.628709 35.115859 
L 82.162845 32.385576 
L 82.929913 31.346417 
L 83.696981 30.526922 
L 84.46405 29.928407 
L 85.231118 29.551833 
L 85.998186 29.397805 
L 86.765254 29.466571 
L 87.532322 29.75802 
L 88.29939 30.271685 
L 89.066459 31.006739 
L 89.833527 31.962003 
L 90.600595 33.135942 
L 92.134731 36.131954 
L 93.668868 39.975534 
L 95.203004 44.641999 
L 96.73714 50.101379 
L 98.271277 56.318612 
L 99.805413 63.25377 
L 102.106617 74.903996 
L 104.407822 87.900092 
L 106.709026 102.054391 
L 109.777299 122.373122 
L 113.61264 149.356852 
L 114.379708 151.460511 
L 178.046365 151.460511 
L 178.813433 150.173606 
L 183.415842 117.929802 
L 186.484115 97.929425 
L 188.785319 84.083871 
L 191.086524 71.451627 
L 193.387728 60.215107 
L 194.921865 53.580526 
L 196.456001 47.681454 
L 197.990137 42.555778 
L 199.524274 38.236415 
L 201.05841 34.751104 
L 202.592546 32.122231 
L 203.359614 31.134452 
L 204.126683 30.366677 
L 204.893751 29.82014 
L 205.660819 29.495718 
L 206.427887 29.393932 
L 207.194955 29.514947 
L 207.962023 29.858567 
L 208.729092 30.42424 
L 209.49616 31.211058 
L 210.263228 32.217758 
L 211.030296 33.442722 
L 212.564432 36.539225 
L 214.098569 40.48068 
L 215.632705 45.241776 
L 217.166841 50.791934 
L 218.700978 57.095512 
L 220.235114 64.112025 
L 222.536318 75.873794 
L 224.837523 88.96743 
L 227.138727 103.203855 
L 230.207 123.606097 
L 234.042341 150.649571 
L 234.809409 151.460511 
L 298.476066 151.460511 
L 299.243134 148.881483 
L 303.845543 116.716454 
L 306.913816 96.807839 
L 309.215021 83.050142 
L 311.516225 70.520682 
L 313.817429 59.400389 
L 315.351566 52.84994 
L 316.885702 47.039692 
L 318.419838 42.006961 
L 319.953975 37.784067 
L 321.488111 34.398132 
L 323.022247 31.8709 
L 323.789316 30.934589 
L 324.556384 30.218603 
L 325.323452 29.724092 
L 326.09052 29.45185 
L 326.857588 29.402316 
L 327.624656 29.575568 
L 328.391725 29.971328 
L 329.158793 30.58896 
L 329.925861 31.427473 
L 330.692929 32.48552 
L 331.459997 33.7614 
L 332.994133 36.95812 
L 334.52827 40.997103 
L 336.062406 45.852409 
L 337.596542 51.492856 
L 339.130679 57.88222 
L 341.431883 68.779474 
L 343.733088 81.111038 
L 346.034292 94.698841 
L 349.102565 114.428664 
L 352.937906 140.964071 
L 354.472042 151.460511 
L 418.905767 151.460511 
L 419.672836 147.591058 
L 424.275245 115.507647 
L 427.343517 95.692554 
L 429.644722 82.023929 
L 431.945926 69.59836 
L 434.247131 58.595276 
L 435.781267 52.129538 
L 437.315403 46.408627 
L 438.84954 41.469286 
L 438.84954 41.469286 
" clip-path="url(#pe7ad79885c)" style="fill: none; stroke-dasharray: 12.8,3.2,2,3.2; stroke-dashoffset: 0; stroke: #ff0000; stroke-width: 2"/>
   </g>
   <g id="line2d_45">
    <path d="M 56.082528 151.460511 
L 58.383732 134.821843 
L 71.423891 134.81504 
L 113.61264 134.81504 
L 114.379708 138.233553 
L 122.817458 198.422306 
L 125.88573 218.65573 
L 128.186935 232.726651 
L 130.488139 245.62406 
L 132.789344 257.161713 
L 134.32348 264.014904 
L 135.857616 270.145244 
L 137.391753 275.513362 
L 138.925889 280.084783 
L 140.460025 283.830149 
L 141.994162 286.725406 
L 142.76123 287.848216 
L 143.528298 288.751959 
L 144.295366 289.435185 
L 145.062434 289.896795 
L 145.829502 290.136048 
L 146.596571 290.152559 
L 147.363639 289.946303 
L 148.130707 289.517611 
L 148.897775 288.86717 
L 149.664843 287.996027 
L 150.431911 286.905579 
L 151.966048 284.074128 
L 153.500184 280.391001 
L 155.03432 275.879851 
L 156.568457 270.569651 
L 158.102593 264.494504 
L 159.636729 257.693425 
L 161.937934 246.227439 
L 164.239138 233.392985 
L 166.540343 219.375395 
L 169.608615 199.196803 
L 173.443956 172.315692 
L 178.046365 139.054017 
L 178.813433 134.81504 
L 234.042341 134.81504 
L 234.809409 139.532053 
L 242.480091 194.396416 
L 245.548363 214.901628 
L 248.616636 233.779722 
L 250.91784 246.577303 
L 253.219045 258.001364 
L 254.753181 264.771982 
L 256.287317 270.814887 
L 257.821454 276.091269 
L 259.35559 280.567243 
L 260.889726 284.214064 
L 262.423863 287.008309 
L 263.190931 288.079891 
L 263.957999 288.932034 
L 264.725067 289.56337 
L 265.492135 289.972885 
L 266.259204 290.159921 
L 267.026272 290.124176 
L 267.79334 289.86571 
L 268.560408 289.384937 
L 269.327476 288.682629 
L 270.094544 287.759914 
L 270.861613 286.618275 
L 272.395749 283.685905 
L 273.929885 279.904353 
L 275.464021 275.297904 
L 276.998158 269.896142 
L 278.532294 263.733758 
L 280.06643 256.850328 
L 282.367635 245.271124 
L 284.668839 232.337261 
L 286.970044 218.235508 
L 290.038317 197.970479 
L 293.873657 171.025734 
L 298.476066 137.755933 
L 299.243134 134.81504 
L 353.704974 134.81504 
L 354.472042 135.298363 
L 362.909792 195.634343 
L 365.978064 216.058323 
L 369.046337 234.825518 
L 371.347541 247.522142 
L 373.648746 258.831602 
L 375.182882 265.519048 
L 376.717019 271.473984 
L 378.251155 276.658164 
L 379.785291 281.038296 
L 381.319428 284.586248 
L 382.853564 287.279236 
L 383.620632 288.299495 
L 384.3877 289.099963 
L 385.154768 289.679354 
L 385.921837 290.036737 
L 386.688905 290.171538 
L 387.455973 290.083542 
L 388.223041 289.772888 
L 388.990109 289.240077 
L 389.757177 288.485963 
L 390.524245 287.511758 
L 391.291314 286.319028 
L 392.82545 283.285999 
L 394.359586 279.406356 
L 395.893723 274.705015 
L 397.427859 269.212168 
L 398.961995 262.963092 
L 400.496132 255.99792 
L 402.797336 244.30652 
L 405.098541 231.274391 
L 407.399745 217.08972 
L 410.468018 196.740045 
L 414.303358 169.734048 
L 418.905767 136.459061 
L 419.672836 134.81504 
L 438.84954 134.81504 
L 438.84954 134.81504 
" clip-path="url(#pe7ad79885c)" style="fill: none; stroke-dasharray: 7.4,3.2; stroke-dashoffset: 0; stroke: #000000; stroke-width: 2"/>
   </g>
   <g id="patch_3">
    <path d="M 48.427188 295.72 
L 48.427188 7.2 
" style="fill: none; stroke: #000000; stroke-width: 0.8; stroke-linejoin: miter; stroke-linecap: square"/>
   </g>
   <g id="patch_4">
    <path d="M 446.50488 295.72 
L 446.50488 7.2 
" style="fill: none; stroke: #000000; stroke-width: 0.8; stroke-linejoin: miter; stroke-linecap: square"/>
   </g>
   <g id="patch_5">
    <path d="M 48.427188 295.72 
L 446.50488 295.72 
" style="fill: none; stroke: #000000; stroke-width: 0.8; stroke-linejoin: miter; stroke-linecap: square"/>
   </g>
   <g id="patch_6">
    <path d="M 48.427188 7.2 
L 446.50488 7.2 
" style="fill: none; stroke: #000000; stroke-width: 0.8; stroke-linejoin: miter; stroke-linecap: square"/>
   </g>
   <g id="legend_1">
    <g id="patch_7">
     <path d="M 339.06488 83.495 
L 440.50488 83.495 
L 440.50488 17.2 
L 339.06488 17.2 
z
" style="fill: #4d4d4d; opacity: 0.5; stroke: #4d4d4d; stroke-linejoin: miter"/>
    </g>
    <g id="patch_8">
     <path d="M 337.06488 81.495 
L 438.50488 81.495 
L 438.50488 15.2 
L 337.06488 15.2 
z
" style="fill: #ffffff; stroke: #cccccc; stroke-linejoin: miter"/>
    </g>
    <g id="line2d_46">
     <path d="M 351.46488 31.3575 
L 389.86488 31.3575 
" style="fill: none; stroke: #0000ff; stroke-width: 2; stroke-linecap: square"/>
    </g>
    <g id="text_14">
     <!-- $V_{in}$ -->
     <g transform="translate(402.66488 36.9575) scale(0.16 -0.16)">
      <defs>
       <path id="Cmmi10-56" d="M 1409 -72 
L 897 4006 
Q 850 4147 416 4147 
Q 353 4147 353 4231 
Q 366 4300 384 4336 
Q 403 4372 459 4372 
L 2022 4372 
Q 2056 4372 2072 4347 
Q 2088 4322 2088 4288 
Q 2063 4147 2003 4147 
Q 1503 4147 1472 3975 
L 1894 628 
L 3866 3775 
Q 3922 3881 3922 3944 
Q 3922 4056 3820 4101 
Q 3719 4147 3584 4147 
Q 3519 4147 3519 4231 
Q 3531 4281 3540 4309 
Q 3550 4338 3569 4355 
Q 3588 4372 3628 4372 
L 4863 4372 
Q 4922 4372 4922 4288 
Q 4897 4147 4838 4147 
Q 4356 4147 4084 3725 
Q 4072 3713 4063 3713 
L 1703 -72 
Q 1656 -141 1581 -141 
L 1491 -141 
Q 1419 -141 1409 -72 
z
" transform="scale(0.015625)"/>
       <path id="Cmmi10-69" d="M 500 459 
Q 500 578 550 709 
L 1069 2088 
Q 1153 2322 1153 2472 
Q 1153 2663 1013 2663 
Q 759 2663 595 2402 
Q 431 2141 353 1819 
Q 341 1778 300 1778 
L 225 1778 
Q 172 1778 172 1838 
L 172 1856 
Q 275 2238 487 2533 
Q 700 2828 1025 2828 
Q 1253 2828 1411 2678 
Q 1569 2528 1569 2297 
Q 1569 2178 1516 2047 
L 997 672 
Q 909 459 909 288 
Q 909 97 1056 97 
Q 1306 97 1473 364 
Q 1641 631 1709 941 
Q 1722 978 1759 978 
L 1838 978 
Q 1863 978 1878 961 
Q 1894 944 1894 922 
Q 1894 916 1888 903 
Q 1800 541 1583 234 
Q 1366 -72 1044 -72 
Q 819 -72 659 83 
Q 500 238 500 459 
z
M 1222 3878 
Q 1222 4013 1334 4122 
Q 1447 4231 1581 4231 
Q 1691 4231 1761 4164 
Q 1831 4097 1831 3994 
Q 1831 3850 1717 3742 
Q 1603 3634 1466 3634 
Q 1363 3634 1292 3704 
Q 1222 3775 1222 3878 
z
" transform="scale(0.015625)"/>
       <path id="Cmmi10-6e" d="M 494 109 
Q 494 147 500 166 
L 978 2075 
Q 1025 2253 1025 2388 
Q 1025 2663 838 2663 
Q 638 2663 541 2423 
Q 444 2184 353 1819 
Q 353 1800 334 1789 
Q 316 1778 300 1778 
L 225 1778 
Q 203 1778 187 1801 
Q 172 1825 172 1844 
Q 241 2122 305 2315 
Q 369 2509 505 2668 
Q 641 2828 844 2828 
Q 1084 2828 1268 2676 
Q 1453 2525 1453 2291 
Q 1644 2541 1900 2684 
Q 2156 2828 2444 2828 
Q 2672 2828 2837 2750 
Q 3003 2672 3095 2514 
Q 3188 2356 3188 2138 
Q 3188 1875 3070 1503 
Q 2953 1131 2778 672 
Q 2688 463 2688 288 
Q 2688 97 2834 97 
Q 3084 97 3251 365 
Q 3419 634 3488 941 
Q 3500 978 3541 978 
L 3616 978 
Q 3641 978 3658 962 
Q 3675 947 3675 922 
Q 3675 916 3669 903 
Q 3581 541 3364 234 
Q 3147 -72 2822 -72 
Q 2597 -72 2437 83 
Q 2278 238 2278 459 
Q 2278 578 2328 709 
Q 2409 919 2514 1209 
Q 2619 1500 2686 1765 
Q 2753 2031 2753 2234 
Q 2753 2413 2679 2538 
Q 2606 2663 2431 2663 
Q 2197 2663 2000 2559 
Q 1803 2456 1656 2286 
Q 1509 2116 1388 1881 
L 953 141 
Q 931 53 854 -9 
Q 778 -72 684 -72 
Q 606 -72 550 -22 
Q 494 28 494 109 
z
" transform="scale(0.015625)"/>
      </defs>
      <use xlink:href="#Cmmi10-56" transform="translate(0 0.6875)"/>
      <use xlink:href="#Cmmi10-69" transform="translate(58.300781 -16.31875) scale(0.7)"/>
      <use xlink:href="#Cmmi10-6e" transform="translate(82.397461 -16.31875) scale(0.7)"/>
     </g>
    </g>
    <g id="line2d_47">
     <path d="M 351.46488 47.1625 
L 389.86488 47.1625 
" style="fill: none; stroke-dasharray: 12.8,3.2,2,3.2; stroke-dashoffset: 0; stroke: #ff0000; stroke-width: 2"/>
    </g>
    <g id="text_15">
     <!-- $V_{out}$ -->
     <g transform="translate(402.66488 52.7625) scale(0.16 -0.16)">
      <defs>
       <path id="Cmmi10-6f" d="M 1288 -72 
Q 984 -72 748 72 
Q 513 216 384 459 
Q 256 703 256 1013 
Q 256 1447 498 1872 
Q 741 2297 1142 2562 
Q 1544 2828 1984 2828 
Q 2222 2828 2408 2747 
Q 2594 2666 2731 2519 
Q 2869 2372 2942 2175 
Q 3016 1978 3016 1747 
Q 3016 1413 2875 1089 
Q 2734 766 2489 502 
Q 2244 238 1928 83 
Q 1613 -72 1288 -72 
z
M 1300 97 
Q 1584 97 1820 290 
Q 2056 484 2207 779 
Q 2359 1075 2440 1403 
Q 2522 1731 2522 1997 
Q 2522 2275 2383 2469 
Q 2244 2663 1972 2663 
Q 1597 2663 1315 2342 
Q 1034 2022 892 1576 
Q 750 1131 750 763 
Q 750 484 892 290 
Q 1034 97 1300 97 
z
" transform="scale(0.015625)"/>
       <path id="Cmmi10-75" d="M 678 697 
Q 678 906 734 1126 
Q 791 1347 892 1617 
Q 994 1888 1069 2088 
Q 1153 2322 1153 2472 
Q 1153 2663 1013 2663 
Q 759 2663 595 2402 
Q 431 2141 353 1819 
Q 341 1778 300 1778 
L 225 1778 
Q 172 1778 172 1838 
L 172 1856 
Q 275 2238 487 2533 
Q 700 2828 1025 2828 
Q 1253 2828 1411 2678 
Q 1569 2528 1569 2297 
Q 1569 2178 1516 2047 
Q 1488 1969 1388 1706 
Q 1288 1444 1234 1272 
Q 1181 1100 1147 934 
Q 1113 769 1113 603 
Q 1113 391 1203 244 
Q 1294 97 1497 97 
Q 1906 97 2216 603 
Q 2222 628 2226 651 
Q 2231 675 2234 697 
L 2694 2553 
Q 2716 2638 2794 2698 
Q 2872 2759 2963 2759 
Q 3041 2759 3098 2709 
Q 3156 2659 3156 2578 
Q 3156 2541 3150 2528 
L 2688 684 
Q 2644 494 2644 372 
Q 2644 97 2828 97 
Q 3034 97 3136 351 
Q 3238 606 3309 941 
Q 3322 978 3359 978 
L 3438 978 
Q 3463 978 3478 956 
Q 3494 934 3494 916 
Q 3425 641 3361 444 
Q 3297 247 3159 87 
Q 3022 -72 2816 -72 
Q 2613 -72 2452 39 
Q 2291 150 2234 341 
Q 2088 153 1894 40 
Q 1700 -72 1484 -72 
Q 1116 -72 897 129 
Q 678 331 678 697 
z
" transform="scale(0.015625)"/>
       <path id="Cmmi10-74" d="M 397 519 
Q 397 613 416 697 
L 878 2534 
L 206 2534 
Q 141 2534 141 2619 
Q 166 2759 225 2759 
L 934 2759 
L 1191 3803 
Q 1216 3888 1291 3947 
Q 1366 4006 1459 4006 
Q 1541 4006 1595 3957 
Q 1650 3909 1650 3828 
Q 1650 3809 1648 3798 
Q 1647 3788 1644 3775 
L 1388 2759 
L 2047 2759 
Q 2113 2759 2113 2675 
Q 2109 2659 2100 2621 
Q 2091 2584 2075 2559 
Q 2059 2534 2028 2534 
L 1331 2534 
L 872 684 
Q 825 503 825 372 
Q 825 97 1013 97 
Q 1294 97 1511 361 
Q 1728 625 1844 941 
Q 1869 978 1894 978 
L 1972 978 
Q 1997 978 2012 961 
Q 2028 944 2028 922 
Q 2028 909 2022 903 
Q 1881 516 1612 222 
Q 1344 -72 997 -72 
Q 744 -72 570 93 
Q 397 259 397 519 
z
" transform="scale(0.015625)"/>
      </defs>
      <use xlink:href="#Cmmi10-56" transform="translate(0 0.6875)"/>
      <use xlink:href="#Cmmi10-6f" transform="translate(58.300781 -16.31875) scale(0.7)"/>
      <use xlink:href="#Cmmi10-75" transform="translate(92.172852 -16.31875) scale(0.7)"/>
      <use xlink:href="#Cmmi10-74" transform="translate(132.197266 -16.31875) scale(0.7)"/>
     </g>
    </g>
    <g id="line2d_48">
     <path d="M 351.46488 62.9675 
L 389.86488 62.9675 
" style="fill: none; stroke-dasharray: 7.4,3.2; stroke-dashoffset: 0; stroke: #000000; stroke-width: 2"/>
    </g>
    <g id="text_16">
     <!-- $V_D$ -->
     <g transform="translate(402.66488 68.5675) scale(0.16 -0.16)">
      <defs>
       <path id="Cmmi10-44" d="M 313 0 
Q 250 0 250 84 
Q 253 100 262 139 
Q 272 178 289 201 
Q 306 225 331 225 
Q 722 225 878 269 
Q 959 297 997 441 
L 1875 3956 
Q 1888 4019 1888 4044 
Q 1888 4113 1813 4122 
Q 1691 4147 1350 4147 
Q 1288 4147 1288 4231 
Q 1291 4247 1300 4286 
Q 1309 4325 1326 4348 
Q 1344 4372 1369 4372 
L 3669 4372 
Q 4116 4372 4450 4155 
Q 4784 3938 4962 3570 
Q 5141 3203 5141 2759 
Q 5141 2269 4937 1778 
Q 4734 1288 4368 881 
Q 4003 475 3534 237 
Q 3066 0 2572 0 
L 313 0 
z
M 1509 275 
Q 1509 225 1728 225 
L 2472 225 
Q 2828 225 3159 372 
Q 3491 519 3750 775 
Q 3991 1016 4175 1406 
Q 4359 1797 4461 2222 
Q 4563 2647 4563 3003 
Q 4563 3263 4486 3472 
Q 4409 3681 4270 3831 
Q 4131 3981 3922 4064 
Q 3713 4147 3450 4147 
L 2747 4147 
Q 2572 4147 2515 4117 
Q 2459 4088 2413 3928 
L 1538 416 
Q 1509 338 1509 275 
z
" transform="scale(0.015625)"/>
      </defs>
      <use xlink:href="#Cmmi10-56" transform="translate(0 0.6875)"/>
      <use xlink:href="#Cmmi10-44" transform="translate(58.300781 -16.31875) scale(0.7)"/>
     </g>
    </g>
   </g>
  </g>
 </g>
 <defs>
  <clipPath id="pe7ad79885c">
   <rect x="48.427188" y="7.2" width="398.077692" height="288.52"/>
  </clipPath>
 </defs>
</svg>
