<svg xmlns="http://www.w3.org/2000/svg" xmlns:xlink="http://www.w3.org/1999/xlink" xmlns:inkscape="http://www.inkscape.org/namespaces/inkscape" version="1.1" width="143" height="197" viewBox="0 0 143 197">
<defs>
<path id="font_1_1" d="M.6279907 .5686035C.6769867 .64660647 .71899417 .6496124 .7559967 .6516113 .7679901 .65260317 .7689972 .6696167 .7689972 .6706085 .7689972 .6786041 .7639923 .6826172 .7559967 .6826172 .7299957 .6826172 .70098879 .6796112 .673996 .6796112 .6409912 .6796112 .6069946 .6826172 .57499697 .6826172 .56900027 .6826172 .55599978 .6826172 .55599978 .66360476 .55599978 .65260317 .5649872 .6516113 .57199099 .6516113 .598999 .6496124 .6179962 .63960269 .6179962 .61860659 .6179962 .6036072 .6029968 .581604 .6029968 .5805969L.29599 .092544559 .22799683 .62161257C.22799683 .63861086 .25099183 .6516113 .29699708 .6516113 .31098939 .6516113 .32199098 .6516113 .32199098 .6716156 .32199098 .680603 .31399537 .6826172 .30799867 .6826172 .2679901 .6826172 .22499085 .6796112 .18399048 .6796112 .1659851 .6796112 .14698792 .680603 .1289978 .680603 .11099243 .680603 .09199524 .6826172 .07499695 .6826172 .067993167 .6826172 .055999757 .6826172 .055999757 .66360476 .055999757 .6516113 .06498718 .6516113 .08099365 .6516113 .13699341 .6516113 .13798523 .64260867 .14099121 .6175995L.21998596 .0005340576C.22299195-.019470215 .22698975-.022460938 .23999024-.022460938 .2559967-.022460938 .2599945-.017471314 .2679901-.004470825L.6279907 .5686035Z"/>
<path id="font_2_66" d="M.27398683 0V.035995485C.21598816 .035995485 .20599365 .035995485 .20599365 .07803345V.44140626L.05899048 .43052674V.39453126C.12199402 .39453126 .1309967 .3885193 .1309967 .33952333V.07952881C.1309967 .035995485 .12098694 .035995485 .055999757 .035995485V0C.055999757 0 .12799073 .0039978029 .16799927 .0039978029 .20298767 .0039978029 .23899842 .0029907227 .27398683 0M.21899414 .60214236C.21899414 .6341553 .19400025 .66015627 .1619873 .66015627 .12799073 .66015627 .10499573 .6321411 .10499573 .6031494 .10499573 .57115176 .12998963 .54515078 .1619873 .54515078 .19599915 .54515078 .21899414 .57315066 .21899414 .60214236Z"/>
<path id="font_2_77" d="M.58999636 0V.035995485C.5249939 .035995485 .5149994 .035995485 .5149994 .07904053V.3032837C.5149994 .3903656 .47200013 .44140626 .36499024 .44140626 .2829895 .44140626 .22999573 .39637757 .20199585 .34432984H.20098877V.44140626L.053985597 .43052674V.39453126C.12098694 .39453126 .1289978 .3875122 .1289978 .33843995V.079055789C.1289978 .035995485 .11898804 .035995485 .053985597 .035995485V0C.053985597 0 .12599182 .0039978029 .16799927 .0039978029 .20498657 .0039978029 .27398683 .0009918213 .2829895 0V.035995485C.21798706 .035995485 .20799256 .035995485 .20799256 .079055789V.25932313C.20799256 .36434938 .29100038 .4133911 .35699464 .4133911 .4269867 .4133911 .43598939 .3583374 .43598939 .3072815V.07904053C.43598939 .035995485 .42599488 .035995485 .36099244 .035995485V0C.36099244 0 .43299867 .0039978029 .47499085 .0039978029 .5119934 .0039978029 .58099368 .0009918213 .58999636 0Z"/>
<path id="font_3_4" d="M.2939911 .16503906V.07800293C.2939911 .041992189 .2919922 .0309906 .21798706 .0309906H.19699097V0C.23799134 .0029907227 .2899933 .0029907227 .33198548 .0029907227 .37399293 .0029907227 .4269867 .0029907227 .46798707 0V.0309906H.44699098C.37298585 .0309906 .37098695 .041992189 .37098695 .07800293V.16503906H.47099305V.19602967H.37098695V.65075686C.37098695 .67074587 .37098695 .6767578 .35499574 .6767578 .34599305 .6767578 .34298707 .6767578 .33499146 .66474917L.027999878 .19602967V.16503906H.2939911M.2999878 .19602967H.055999757L.2999878 .5688019V.19602967Z"/>
<path id="font_3_8" d="M.10998535 .34429933V.076034549C.10998535 .0309906 .09899902 .0309906 .03199768 .0309906V0C.066986087 .0009918213 .117996219 .0029907227 .14498902 .0029907227 .17098999 .0029907227 .22299195 .0009918213 .25698854 0V.0309906C.18998719 .0309906 .1789856 .0309906 .1789856 .076034549V.2602234C.1789856 .36431886 .25 .42037965 .31399537 .42037965 .3769989 .42037965 .3880005 .36631776 .3880005 .30926515V.076034549C.3880005 .0309906 .3769989 .0309906 .30999757 .0309906V0C.34498597 .0009918213 .3959961 .0029907227 .4229889 .0029907227 .44898988 .0029907227 .5009918 .0009918213 .5349884 0V.0309906C.46798707 .0309906 .45700074 .0309906 .45700074 .076034549V.2602234C.45700074 .36431886 .5279999 .42037965 .59199526 .42037965 .6549988 .42037965 .66600039 .36631776 .66600039 .30926515V.076034549C.66600039 .0309906 .6549988 .0309906 .58799746 .0309906V0C.6230011 .0009918213 .673996 .0029907227 .70098879 .0029907227 .72698977 .0029907227 .7789917 .0009918213 .8129883 0V.0309906C.7609863 .0309906 .73599246 .0309906 .7350006 .061019899V.25221253C.7350006 .3383026 .7350006 .36932374 .70399478 .405365 .6899872 .42237855 .6569977 .4423828 .598999 .4423828 .5149994 .4423828 .47099305 .38233949 .45399476 .34429933 .43998719 .43138124 .3659973 .4423828 .32099916 .4423828 .24798584 .4423828 .20098877 .39935304 .17298889 .33729554V.4423828L.03199768 .43138124V.40037538C.101989749 .4003601 .10998535 .39335633 .10998535 .34429933Z"/>
<path id="font_3_7" d="M.61299136 .6046448C.61299136 .640625 .61499026 .6516113 .69200137 .6516113H.71598818V.6826172C.68099978 .6796112 .6069946 .6796112 .56900027 .6796112 .5309906 .6796112 .45599366 .6796112 .42099 .6826172V.6516113H.44499208C.5219879 .6516113 .5239868 .640625 .5239868 .6046448V.37083436H.22499085V.6046448C.22499085 .640625 .22698975 .6516113 .3039856 .6516113H.32798768V.6826172C.29299928 .6796112 .21899414 .6796112 .18099976 .6796112 .14299011 .6796112 .067993167 .6796112 .032989503 .6826172V.6516113H.056991579C.13398743 .6516113 .13598633 .640625 .13598633 .6046448V.07797241C.13598633 .041992189 .13398743 .0309906 .056991579 .0309906H.032989503V0C.067993167 .0029907227 .14199829 .0029907227 .17999268 .0029907227 .21798706 .0029907227 .29299928 .0029907227 .32798768 0V.0309906H.3039856C.22698975 .0309906 .22499085 .041992189 .22499085 .07797241V.33984376H.5239868V.07797241C.5239868 .041992189 .5219879 .0309906 .44499208 .0309906H.42099V0C.45599366 .0029907227 .5299988 .0029907227 .56799319 .0029907227 .60598757 .0029907227 .68099978 .0029907227 .71598818 0V.0309906H.69200137C.61499026 .0309906 .61299136 .041992189 .61299136 .07797241V.6046448Z"/>
<path id="font_3_3" d="M.2939911 .64004519C.2939911 .66400149 .2939911 .6660156 .2709961 .6660156 .20899964 .60227969 .12098694 .60227969 .08898926 .60227969V.57128909C.10899353 .57128909 .16799927 .57128909 .21998596 .5972748V.07902527C.21998596 .042999269 .21699524 .0309906 .1269989 .0309906H.09498596V0C.12998963 .0029907227 .21699524 .0029907227 .25698854 .0029907227 .29699708 .0029907227 .38398744 .0029907227 .4189911 0V.0309906H.3869934C.29699708 .0309906 .2939911 .041992189 .2939911 .07902527V.64004519Z"/>
<path id="font_3_2" d="M.45999146 .31976319C.45999146 .39982606 .45498658 .47988893 .41999818 .5539398 .37399293 .65000918 .2919922 .6660156 .25 .6660156 .18998719 .6660156 .116989139 .64001467 .07598877 .54693606 .04399109 .47789 .038986207 .39982606 .038986207 .31976319 .038986207 .24472046 .042999269 .15464783 .083999637 .07859802 .1269989-.0024719239 .19999695-.022460938 .24899292-.022460938 .30299378-.022460938 .3789978-.0014648438 .4229889 .09359741 .45498658 .16265869 .45999146 .2407074 .45999146 .31976319M.24899292-.00047302247C.20999146-.00047302247 .15098572 .024551392 .1329956 .12062073 .12199402 .18066406 .12199402 .2727356 .12199402 .3317871 .12199402 .39582826 .12199402 .46188355 .12998963 .5159149 .14898682 .63500979 .22399903 .64401248 .24899292 .64401248 .28199769 .64401248 .34799195 .6259918 .36698915 .52693179 .3769989 .47088624 .3769989 .39482118 .3769989 .3317871 .3769989 .25672914 .3769989 .18867493 .3659973 .12461853 .35099793 .029556275 .2939911-.00047302247 .24899292-.00047302247Z"/>
<path id="font_3_9" d="M.10998535 .34429933V.076034549C.10998535 .0309906 .09899902 .0309906 .03199768 .0309906V0C.066986087 .0009918213 .117996219 .0029907227 .14498902 .0029907227 .17098999 .0029907227 .22299195 .0009918213 .25698854 0V.0309906C.18998719 .0309906 .1789856 .0309906 .1789856 .076034549V.2602234C.1789856 .36431886 .25 .42037965 .31399537 .42037965 .3769989 .42037965 .3880005 .36631776 .3880005 .30926515V.076034549C.3880005 .0309906 .3769989 .0309906 .30999757 .0309906V0C.34498597 .0009918213 .3959961 .0029907227 .4229889 .0029907227 .44898988 .0029907227 .5009918 .0009918213 .5349884 0V.0309906C.48298646 .0309906 .45799256 .0309906 .45700074 .061019899V.25221253C.45700074 .3383026 .45700074 .36932374 .42599488 .405365 .4119873 .42237855 .3789978 .4423828 .32099916 .4423828 .24798584 .4423828 .20098877 .39935304 .17298889 .33729554V.4423828L.03199768 .43138124V.40037538C.101989749 .4003601 .10998535 .39335633 .10998535 .34429933Z"/>
<path id="font_3_6" d="M.58200076 .6796112H.032989503V.64860537H.056991579C.13398743 .64860537 .13598633 .63760378 .13598633 .601593V.07791138C.13598633 .04197693 .13398743 .0309906 .056991579 .0309906H.032989503V0C.067993167 .0029907227 .1459961 .0029907227 .18499756 .0029907227 .22599793 .0029907227 .31698609 .0029907227 .35299684 0V.0309906H.31999208C.22499085 .0309906 .22499085 .04397583 .22499085 .0789032V.3244629H.31098939C.40699769 .3244629 .4169922 .29252626 .4169922 .20767212H.44198609V.47251893H.4169922C.4169922 .3884735 .40699769 .35546876 .31098939 .35546876H.22499085V.6085968C.22499085 .64160159 .22698975 .64860537 .27398683 .64860537H.3939972C.5439911 .64860537 .56900027 .5925751 .58499148 .45451356H.6100006L.58200076 .6796112Z"/>
<path id="font_3_5" d="M.44898988 .20022583C.44898988 .3193512 .36698915 .41944886 .25898744 .41944886 .21099854 .41944886 .16799927 .40345765 .13198853 .36842347V.5637665C.1519928 .5577698 .18499756 .55078127 .21699524 .55078127 .33999635 .55078127 .4099884 .6417694 .4099884 .6547699 .4099884 .6607666 .40699769 .6657715 .3999939 .6657715 .39898683 .6657715 .39698792 .6657715 .3919983 .66278079 .37199403 .6537781 .32299806 .6337738 .2559967 .6337738 .21598816 .6337738 .16999817 .6407776 .12298584 .6617737 .114990238 .66477969 .11299133 .66477969 .11099243 .66477969 .100997928 .66477969 .100997928 .6567688 .100997928 .6407776V.34439088C.100997928 .32637025 .100997928 .31835938 .114990238 .31835938 .12199402 .31835938 .12399292 .32136537 .12799073 .32736207 .13899231 .3433838 .17599488 .39746095 .25698854 .39746095 .30899049 .39746095 .33399964 .35139466 .34199525 .33337403 .35798646 .29632569 .3600006 .25727845 .3600006 .20722962 .3600006 .17222595 .3600006 .11222839 .33599855 .07035828 .31199647 .031463624 .2749939 .0055389406 .22898865 .0055389406 .1559906 .0055389406 .09899902 .058380128 .08198547 .11723328 .084991458 .1162262 .08799744 .115234378 .09899902 .115234378 .13198853 .115234378 .14898682 .14022827 .14898682 .16423035 .14898682 .18823242 .13198853 .21322632 .09899902 .21322632 .084991458 .21322632 .049987794 .20622254 .049987794 .16023255 .049987794 .07434082 .11898804-.022460938 .23098755-.022460938 .34700013-.022460938 .44898988 .073349 .44898988 .20022583Z"/>
<path id="font_3_1" d="M.6769867 .16200257H.6519928C.6469879 .13600159 .6429901 .11299133 .6339874 .08898926 .6289978 .07299805 .6259918 .06498718 .56799319 .06498718H.48799134C.5009918 .1210022 .5319977 .16900635 .57699587 .23501587 .6239929 .306015 .6649933 .37503053 .6649933 .45404054 .6649933 .59306338 .5299988 .7050781 .36099244 .7050781 .18899536 .7050781 .055999757 .5910492 .055999757 .45404054 .055999757 .37503053 .09700012 .306015 .14399719 .23501587 .18798828 .16900635 .21998596 .1210022 .23298645 .06498718H.15299988C.09498596 .06498718 .09199524 .07299805 .08699036 .08799744 .07899475 .11099243 .07398987 .13700867 .068984989 .16200257H.04399109L.07699585 0H.23699951C.25898744 0 .2619934 0 .2619934 .020996094 .2619934 .09098816 .23098755 .17900086 .20799256 .24301148 .18699646 .3010254 .15899658 .3800354 .15899658 .45503236 .15899658 .6150665 .2689972 .68307498 .3600006 .68307498 .45599366 .68307498 .56199648 .61105349 .56199648 .45503236 .56199648 .3800354 .5349884 .3040161 .5059967 .22201538 .4909973 .18000794 .45899964 .08999634 .45899964 .020996094 .45899964 0 .46199037 0 .4850006 0H.6439972L.6769867 .16200257Z"/>
</defs>
<path transform="matrix(1.00008,0,0,-1,28.178978,176.994)" stroke-width=".3985" stroke-linecap="butt" stroke-miterlimit="10" stroke-linejoin="miter" fill="none" stroke="#000000" d="M0 0"/>
<path transform="matrix(1.00008,0,0,-1,28.178978,176.994)" stroke-width=".3985" stroke-linecap="butt" stroke-miterlimit="10" stroke-linejoin="miter" fill="none" stroke="#000000" d="M0 0V73.1347M0 96.94614V170.08086H28.3468M28.3468 170.08086H56.69362V153.63976M56.69362 129.82833V113.38724 89.0089M56.69362 81.07195V56.69362 44.221M56.69362 12.47261V0H70.86702M70.86702 0H85.04045 42.52022M42.52022 0H0"/>
<path transform="matrix(1.00008,0,0,-1,28.178978,176.994)" stroke-width=".797" stroke-linecap="butt" stroke-miterlimit="10" stroke-linejoin="miter" fill="none" stroke="#000000" d="M-11.90572 85.04042C-11.90572 78.465-6.57541 73.1347 0 73.1347 6.57541 73.1347 11.90572 78.465 11.90572 85.04042 11.90572 91.61584 6.57541 96.94614 0 96.94614-6.57541 96.94614-11.90572 91.61584-11.90572 85.04042ZM0 85.04042"/>
<path transform="matrix(1.00008,0,0,-1,28.178978,176.994)" stroke-width=".797" stroke-linecap="butt" stroke-miterlimit="10" stroke-linejoin="miter" fill="none" stroke="#000000" d="M5.95285 85.04042C4.98253 83.51651 4.0539 82.064 2.97643 82.064 1.89896 82.064 .97032 83.5165 0 85.04042-.9703 86.56433-1.89894 88.01685-2.97643 88.01685-4.05388 88.01685-4.98251 86.56435-5.95285 85.04042"/>
<use data-text="V" xlink:href="#font_1_1" transform="matrix(9.963397,0,0,-9.9626,.5077667,94.101009)"/>
<use data-text="i" xlink:href="#font_2_66" transform="matrix(6.974358,0,0,-6.9738,6.319229,95.59501)"/>
<use data-text="n" xlink:href="#font_2_77" transform="matrix(6.974358,0,0,-6.9738,8.571953,95.59501)"/>
<path transform="matrix(1.00008,0,0,-1,28.178978,176.994)" d="M58.28076 170.08086C58.28076 170.95742 57.57018 171.668 56.69362 171.668 55.81705 171.668 55.10646 170.95742 55.10646 170.08086 55.10646 169.20429 55.81705 168.4937 56.69362 168.4937 57.57018 168.4937 58.28076 169.20429 58.28076 170.08086ZM56.69362 170.08086"/>
<path transform="matrix(1.00008,0,0,-1,28.178978,176.994)" stroke-width=".3985" stroke-linecap="butt" stroke-miterlimit="10" stroke-linejoin="miter" fill="none" stroke="#000000" d="M58.28076 170.08086C58.28076 170.95742 57.57018 171.668 56.69362 171.668 55.81705 171.668 55.10646 170.95742 55.10646 170.08086 55.10646 169.20429 55.81705 168.4937 56.69362 168.4937 57.57018 168.4937 58.28076 169.20429 58.28076 170.08086ZM56.69362 170.08086"/>
<path transform="matrix(1.00008,0,0,-1,28.178978,176.994)" stroke-width=".797" stroke-linecap="butt" stroke-linejoin="bevel" fill="none" stroke="#000000" d="M56.53423 154.03827C59.82191 154.03827 62.48708 152.40352 62.48708 150.38692 62.48708 148.37032 59.82191 146.73557 56.53423 146.73557 54.89046 146.73557 53.55795 147.40183 53.55795 148.22371 53.55795 149.04558 54.89046 149.71184 56.53423 149.71184 59.82191 149.71184 62.48708 148.0771 62.48708 146.0605 62.48708 144.04389 59.82191 142.40915 56.53423 142.40915 54.89046 142.40915 53.55795 143.07541 53.55795 143.89728 53.55795 144.71916 54.89046 145.38542 56.53423 145.38542 59.82191 145.38542 62.48708 143.75067 62.48708 141.73407 62.48708 139.71747 59.82191 138.08272 56.53423 138.08272 54.89046 138.08272 53.55795 138.74898 53.55795 139.57086 53.55795 140.39275 54.89046 141.05899 56.53423 141.05899 59.82191 141.05899 62.48708 139.42426 62.48708 137.40766 62.48708 135.39105 59.82191 133.7563 56.53423 133.7563 54.89046 133.7563 53.55795 134.42256 53.55795 135.24445 53.55795 136.06632 54.89046 136.73258 56.53423 136.73258 59.82191 136.73258 62.48708 135.09783 62.48708 133.08123 62.48708 131.06462 59.82191 129.42989 56.53423 129.42989"/>
<path transform="matrix(1.00008,0,0,-1,28.178978,176.994)" d="M58.28076 170.08086C58.28076 170.95742 57.57018 171.668 56.69362 171.668 55.81705 171.668 55.10646 170.95742 55.10646 170.08086 55.10646 169.20429 55.81705 168.4937 56.69362 168.4937 57.57018 168.4937 58.28076 169.20429 58.28076 170.08086ZM56.69362 170.08086"/>
<path transform="matrix(1.00008,0,0,-1,28.178978,176.994)" stroke-width=".3985" stroke-linecap="butt" stroke-miterlimit="10" stroke-linejoin="miter" fill="none" stroke="#000000" d="M58.28076 170.08086C58.28076 170.95742 57.57018 171.668 56.69362 171.668 55.81705 171.668 55.10646 170.95742 55.10646 170.08086 55.10646 169.20429 55.81705 168.4937 56.69362 168.4937 57.57018 168.4937 58.28076 169.20429 58.28076 170.08086ZM56.69362 170.08086"/>
<use data-text="4" xlink:href="#font_3_4" transform="matrix(9.963397,0,0,-9.9626,57.57433,37.406999)"/>
<use data-text="m" xlink:href="#font_3_8" transform="matrix(9.963397,0,0,-9.9626,64.20996,37.406999)"/>
<use data-text="H" xlink:href="#font_3_7" transform="matrix(9.963397,0,0,-9.9626,72.50946,37.406999)"/>
<path transform="matrix(1.00008,0,0,-1,28.178978,176.994)" stroke-width=".797" stroke-linecap="butt" stroke-miterlimit="10" stroke-linejoin="miter" fill="none" stroke="#000000" d="M68.59933 89.0089H44.78789M68.59933 81.07195H44.78789"/>
<path transform="matrix(1.00008,0,0,-1,28.178978,176.994)" d="M58.28076 113.38724C58.28076 114.2638 57.57018 114.97438 56.69362 114.97438 55.81705 114.97438 55.10646 114.2638 55.10646 113.38724 55.10646 112.51067 55.81705 111.80008 56.69362 111.80008 57.57018 111.80008 58.28076 112.51067 58.28076 113.38724ZM56.69362 113.38724"/>
<path transform="matrix(1.00008,0,0,-1,28.178978,176.994)" stroke-width=".3985" stroke-linecap="butt" stroke-miterlimit="10" stroke-linejoin="miter" fill="none" stroke="#000000" d="M58.28076 113.38724C58.28076 114.2638 57.57018 114.97438 56.69362 114.97438 55.81705 114.97438 55.10646 114.2638 55.10646 113.38724 55.10646 112.51067 55.81705 111.80008 56.69362 111.80008 57.57018 111.80008 58.28076 112.51067 58.28076 113.38724ZM56.69362 113.38724"/>
<use data-text="1" xlink:href="#font_3_3" transform="matrix(9.963397,0,0,-9.9626,41.524049,94.101009)"/>
<use data-text="0" xlink:href="#font_3_2" transform="matrix(9.963397,0,0,-9.9626,46.505746,94.101009)"/>
<use data-text="0" xlink:href="#font_3_2" transform="matrix(9.963397,0,0,-9.9626,51.48745,94.101009)"/>
<use data-text="n" xlink:href="#font_3_9" transform="matrix(9.963397,0,0,-9.9626,58.12307,94.101009)"/>
<use data-text="F" xlink:href="#font_3_6" transform="matrix(9.963397,0,0,-9.9626,63.65275,94.101009)"/>
<path transform="matrix(1.00008,0,0,-1,28.178978,176.994)" stroke-width=".797" stroke-linecap="butt" stroke-linejoin="bevel" fill="none" stroke="#000000" d="M56.69362 44.6195 62.64647 41.54208 50.74075 36.18428 62.64647 30.82646 50.74075 25.46864 62.64647 20.11082 50.74075 14.753 56.69362 12.0741"/>
<path transform="matrix(1.00008,0,0,-1,28.178978,176.994)" d="M58.28076 56.69362C58.28076 57.57018 57.57018 58.28076 56.69362 58.28076 55.81705 58.28076 55.10646 57.57018 55.10646 56.69362 55.10646 55.81705 55.81705 55.10646 56.69362 55.10646 57.57018 55.10646 58.28076 55.81705 58.28076 56.69362ZM56.69362 56.69362"/>
<path transform="matrix(1.00008,0,0,-1,28.178978,176.994)" stroke-width=".3985" stroke-linecap="butt" stroke-miterlimit="10" stroke-linejoin="miter" fill="none" stroke="#000000" d="M58.28076 56.69362C58.28076 57.57018 57.57018 58.28076 56.69362 58.28076 55.81705 58.28076 55.10646 57.57018 55.10646 56.69362 55.10646 55.81705 55.81705 55.10646 56.69362 55.10646 57.57018 55.10646 58.28076 55.81705 58.28076 56.69362ZM56.69362 56.69362"/>
<use data-text="5" xlink:href="#font_3_5" transform="matrix(9.963397,0,0,-9.9626,57.897356,150.794)"/>
<use data-text="0" xlink:href="#font_3_2" transform="matrix(9.963397,0,0,-9.9626,62.87905,150.794)"/>
<use data-text="&#x2126;" xlink:href="#font_3_1" transform="matrix(9.963397,0,0,-9.9626,69.51468,150.794)"/>
<path transform="matrix(1.00008,0,0,-1,28.178978,176.994)" d="M86.6276 0C86.6276 .87656 85.917 1.58714 85.04045 1.58714 84.1639 1.58714 83.45331 .87656 83.45331 0 83.45331-.87656 84.1639-1.58714 85.04045-1.58714 85.917-1.58714 86.6276-.87656 86.6276 0ZM85.04045 0"/>
<path transform="matrix(1.00008,0,0,-1,28.178978,176.994)" stroke-width=".3985" stroke-linecap="butt" stroke-miterlimit="10" stroke-linejoin="miter" fill="none" stroke="#000000" d="M86.6276 0C86.6276 .87656 85.917 1.58714 85.04045 1.58714 84.1639 1.58714 83.45331 .87656 83.45331 0 83.45331-.87656 84.1639-1.58714 85.04045-1.58714 85.917-1.58714 86.6276-.87656 86.6276 0ZM85.04045 0"/>
<path transform="matrix(1.00008,0,0,-1,28.178978,176.994)" stroke-width=".3985" stroke-linecap="butt" stroke-miterlimit="10" stroke-linejoin="miter" fill="none" stroke="#000000" d="M85.04042 0"/>
<path transform="matrix(1.00008,0,0,-1,28.178978,176.994)" stroke-width=".3985" stroke-linecap="butt" stroke-miterlimit="10" stroke-linejoin="miter" fill="none" stroke="#000000" d="M85.04042 0V-9.92134"/>
<path transform="matrix(1.00008,0,0,-1,28.178978,176.994)" stroke-width=".797" stroke-linecap="butt" stroke-miterlimit="10" stroke-linejoin="miter" fill="none" stroke="#000000" d="M79.08757-9.92134H90.99327L85.04042-17.85843Z"/>
<path transform="matrix(1.00008,0,0,-1,28.178978,176.994)" stroke-width=".3985" stroke-linecap="butt" stroke-miterlimit="10" stroke-linejoin="miter" fill="none" stroke="#000000" d="M56.69362 170.08086H99.41309"/>
<path transform="matrix(1.00008,0,0,-1,127.60002,6.913147)" d="M13.1526 0C11.53743 .38713 4.43752 2.58084 0 4.96811V-4.96811C4.43752-2.58084 11.53743-.38713 13.1526 0Z"/>
<path transform="matrix(1.00008,0,0,-1,127.60002,6.913147)" stroke-width=".3985" stroke-linecap="butt" stroke-miterlimit="10" stroke-linejoin="miter" fill="none" stroke="#000000" d="M13.1526 0C11.53743 .38713 4.43752 2.58084 0 4.96811V-4.96811C4.43752-2.58084 11.53743-.38713 13.1526 0Z"/>
</svg>
