<svg xmlns="http://www.w3.org/2000/svg" xmlns:xlink="http://www.w3.org/1999/xlink" xmlns:inkscape="http://www.inkscape.org/namespaces/inkscape" version="1.1" width="112" height="174" viewBox="0 0 112 174">
<path transform="matrix(1.00006,0,0,-1.00003,13.201706,171.88268)" stroke-width=".3985" stroke-linecap="butt" stroke-miterlimit="10" stroke-linejoin="miter" fill="none" stroke="#000000" d="M0 0"/>
<path transform="matrix(1.00006,0,0,-1.00003,13.201706,171.88268)" stroke-width=".3985" stroke-linecap="butt" stroke-miterlimit="10" stroke-linejoin="miter" fill="none" stroke="#000000" d="M0 0V79.08757M0 90.99327V170.08086H42.5202M42.5202 170.08086H85.04042L85.0404 143.43483M85.0404 111.68643 85.04042 85.04042 85.0404 48.47305M85.0404 36.56735 85.04042 0H42.5202M42.5202 0H0"/>
<path transform="matrix(1.00006,0,0,-1.00003,13.201706,171.88268)" stroke-width=".797" stroke-linecap="butt" stroke-miterlimit="10" stroke-linejoin="miter" fill="none" stroke="#000000" d="M-11.90572 90.99327H11.90572M-5.95285 87.0247H5.95285M-11.90572 83.05614H11.90572M-5.95285 79.08757H5.95285"/>
<path transform="matrix(1.00006,0,0,-1.00003,13.201706,171.88268)" stroke-width=".797" stroke-linecap="butt" stroke-linejoin="bevel" fill="none" stroke="#000000" d="M85.0404 143.83333 90.99326 140.75592 79.08755 135.3981 90.99326 130.04029 79.08755 124.68246 90.99326 119.32465 79.08755 113.96684 85.0404 111.28793"/>
<path transform="matrix(1.00006,0,0,-1.00003,13.201706,171.88268)" stroke-width=".797" stroke-linecap="butt" stroke-miterlimit="10" stroke-linejoin="miter" fill="none" stroke="#000000" d="M96.94612 48.47305H73.13469M90.99326 44.50449H79.08755M96.94612 40.53592H73.13469M90.99326 36.56735H79.08755"/>
</svg>
