<svg xmlns="http://www.w3.org/2000/svg" xmlns:xlink="http://www.w3.org/1999/xlink" xmlns:inkscape="http://www.inkscape.org/namespaces/inkscape" version="1.1" width="113" height="112" viewBox="0 0 113 112">
<defs>
<path id="font_1_1" d="M.41600038 .6529541 .3999939 .66796877C.3999939 .66696169 .3619995 .6199646 .31799317 .6199646 .29499818 .6199646 .269989 .634964 .25299073 .6449585 .22599793 .66096499 .20799256 .66796877 .19099427 .66796877 .15299988 .66796877 .13398743 .6459656 .08299255 .5899658L.09899902 .57496646C.09899902 .57595828 .13699341 .6229553 .18099976 .6229553 .20399475 .6229553 .22898865 .60795596 .24598694 .5979614 .272995 .58195498 .29100038 .57496646 .30799867 .57496646 .34599305 .57496646 .36499024 .59695437 .41600038 .6529541Z"/>
<path id="font_2_1" d="M.37399293 .6056366C.3829956 .6416168 .38598634 .6516113 .46499635 .6516113 .4889984 .6516113 .49699403 .6516113 .49699403 .6706085 .49699403 .6826172 .48599244 .6826172 .48199464 .6826172 .45298768 .6826172 .3789978 .6796112 .34999085 .6796112 .31999208 .6796112 .24699402 .6826172 .21699524 .6826172 .20999146 .6826172 .19699097 .6826172 .19699097 .6626129 .19699097 .6516113 .20599365 .6516113 .22499085 .6516113 .2669983 .6516113 .2939911 .6516113 .2939911 .63261416 .2939911 .6276245 .2939911 .6256256 .2919922 .6166229L.15699768 .07795715C.147995 .040985109 .14498902 .0309906 .06599426 .0309906 .042999269 .0309906 .033996583 .0309906 .033996583 .010986328 .033996583 0 .04598999 0 .04899597 0 .07798767 0 .15098572 .0029907227 .17999268 .0029907227 .20999146 .0029907227 .28399659 0 .31399537 0 .32199098 0 .33399964 0 .33399964 .018997193 .33399964 .0309906 .32598878 .0309906 .3039856 .0309906 .28599549 .0309906 .2809906 .0309906 .26098634 .032989503 .23999024 .034988405 .23599243 .038986207 .23599243 .049987794 .23599243 .05796814 .23799134 .065963748 .23999024 .07296753L.37399293 .6056366Z"/>
<path id="font_2_3" d="M.7200012 .6586151C.72099307 .6626129 .72299197 .66760256 .72299197 .6736145 .72299197 .6826172 .71798709 .6826172 .69799807 .6826172H.27598573C.2519989 .6826172 .25099183 .6816101 .24499512 .6626129L.18998719 .4827118C.18798828 .47772218 .18699646 .47071839 .18699646 .46871949 .18699646 .46772767 .18699646 .45773316 .19898987 .45773316 .20799256 .45773316 .20999146 .46472169 .21199036 .46772767 .25 .5856476 .3019867 .6516113 .45799256 .6516113H.62098696L.06199646 .026992798C.06199646 .025985718 .057998659 .011993408 .057998659 .008987427 .057998659 0 .06498718 0 .08299255 0H.5179901C.5419922 0 .54299929 .0009918213 .548996 .019989014L.6199951 .24085999C.62098696 .24485779 .6239929 .25186158 .6239929 .25585938 .6239929 .260849 .6199951 .2668457 .61099246 .2668457 .60198977 .2668457 .6009979 .2628479 .59399417 .24186707 .5499878 .10594177 .5019989 .033996583 .33198548 .033996583H.16099549L.7200012 .6586151Z"/>
<path id="font_2_2" d="M.6279907 .5686035C.6769867 .64660647 .71899417 .6496124 .7559967 .6516113 .7679901 .65260317 .7689972 .6696167 .7689972 .6706085 .7689972 .6786041 .7639923 .6826172 .7559967 .6826172 .7299957 .6826172 .70098879 .6796112 .673996 .6796112 .6409912 .6796112 .6069946 .6826172 .57499697 .6826172 .56900027 .6826172 .55599978 .6826172 .55599978 .66360476 .55599978 .65260317 .5649872 .6516113 .57199099 .6516113 .598999 .6496124 .6179962 .63960269 .6179962 .61860659 .6179962 .6036072 .6029968 .581604 .6029968 .5805969L.29599 .092544559 .22799683 .62161257C.22799683 .63861086 .25099183 .6516113 .29699708 .6516113 .31098939 .6516113 .32199098 .6516113 .32199098 .6716156 .32199098 .680603 .31399537 .6826172 .30799867 .6826172 .2679901 .6826172 .22499085 .6796112 .18399048 .6796112 .1659851 .6796112 .14698792 .680603 .1289978 .680603 .11099243 .680603 .09199524 .6826172 .07499695 .6826172 .067993167 .6826172 .055999757 .6826172 .055999757 .66360476 .055999757 .6516113 .06498718 .6516113 .08099365 .6516113 .13699341 .6516113 .13798523 .64260867 .14099121 .6175995L.21998596 .0005340576C.22299195-.019470215 .22698975-.022460938 .23999024-.022460938 .2559967-.022460938 .2599945-.017471314 .2679901-.004470825L.6279907 .5686035Z"/>
</defs>
<path transform="matrix(1.00005,0,0,-1.00002,5.2305147,98.663738)" stroke-width=".3985" stroke-linecap="butt" stroke-miterlimit="10" stroke-linejoin="miter" fill="none" stroke="#000000" d="M0 85.04042"/>
<path transform="matrix(1.00005,0,0,-1.00002,5.2305147,98.663738)" stroke-width=".3985" stroke-linecap="butt" stroke-miterlimit="10" stroke-linejoin="miter" fill="none" stroke="#000000" d="M0 85.043 31.89206 85.04816M31.89206 85.04816 63.7803 85.043"/>
<path transform="matrix(1.00005,0,0,-1.00002,5.2305147,98.663738)" d="M1.58714 85.043C1.58714 85.91957 .87656 86.63016 0 86.63016-.87656 86.63016-1.58714 85.91957-1.58714 85.043-1.58714 84.16644-.87656 83.45586 0 83.45586 .87656 83.45586 1.58714 84.16644 1.58714 85.043ZM0 85.043" fill="#ffffff"/>
<path transform="matrix(1.00005,0,0,-1.00002,5.2305147,98.663738)" stroke-width=".3985" stroke-linecap="butt" stroke-miterlimit="10" stroke-linejoin="miter" fill="none" stroke="#000000" d="M1.58714 85.043C1.58714 85.91957 .87656 86.63016 0 86.63016-.87656 86.63016-1.58714 85.91957-1.58714 85.043-1.58714 84.16644-.87656 83.45586 0 83.45586 .87656 83.45586 1.58714 84.16644 1.58714 85.043ZM0 85.043"/>
<path transform="matrix(1.00005,0,0,-1.00002,5.2305147,98.663738)" d="" fill="#ffffff"/>
<path transform="matrix(1.00005,0,0,-1.00002,5.2305147,98.663738)" stroke-width=".3985" stroke-linecap="butt" stroke-miterlimit="10" stroke-linejoin="miter" fill="none" stroke="#000000" d=""/>
<path transform="matrix(1.00005,0,0,-1.00002,5.2305147,98.663738)" d="M30.15587 85.04817V83.06392L34.3724 85.04817 30.15587 87.03242Z"/>
<path transform="matrix(1.00005,0,0,-1.00002,5.2305147,98.663738)" stroke-width=".3985" stroke-linecap="butt" stroke-miterlimit="10" stroke-linejoin="miter" fill="none" stroke="#000000" d="M30.15587 85.04817V83.06392L34.3724 85.04817 30.15587 87.03242Z"/>
<use data-text="&#x02dc;" xlink:href="#font_1_1" transform="matrix(9.963098,0,0,-9.962799,35.74104,7.5719149)"/>
<use data-text="I" xlink:href="#font_2_1" transform="matrix(9.963098,0,0,-9.962799,34.54398,10.090958)"/>
<path transform="matrix(1.00005,0,0,-1.00002,5.2305147,98.663738)" stroke-width=".3985" stroke-linecap="butt" stroke-miterlimit="10" stroke-linejoin="miter" fill="none" stroke="#000000" d="M63.78223 95.67563V-10.62486H106.30246V95.67563H63.78223"/>
<path transform="matrix(1.00005,0,0,-1.00002,5.2305147,98.663738)" stroke-width=".3985" stroke-linecap="butt" stroke-miterlimit="10" stroke-linejoin="miter" fill="none" stroke="#000000" d="M85.04234 42.52538"/>
<use data-text="Z" xlink:href="#font_2_3" transform="matrix(9.963098,0,0,-9.962799,86.52058,59.541955)"/>
<path transform="matrix(1.00005,0,0,-1.00002,5.2305147,98.663738)" stroke-width=".3985" stroke-linecap="butt" stroke-miterlimit="10" stroke-linejoin="miter" fill="none" stroke="#000000" d="M0 42.52278"/>
<use data-text="&#x02dc;" xlink:href="#font_1_1" transform="matrix(9.963098,0,0,-9.962799,2.7393876,58.206926)"/>
<use data-text="V" xlink:href="#font_2_2" transform="matrix(9.963098,0,0,-9.962799,1.217308,60.725969)"/>
<path transform="matrix(1.00005,0,0,-1.00002,5.2305147,98.663738)" stroke-width=".3985" stroke-linecap="butt" stroke-miterlimit="10" stroke-linejoin="miter" fill="none" stroke="#000000" d="M0 .00255H31.89206M31.89206 .00255H63.7803"/>
<path transform="matrix(1.00005,0,0,-1.00002,5.2305147,98.663738)" d="M1.58714 .00255C1.58714 .8791 .87656 1.58969 0 1.58969-.87656 1.58969-1.58714 .8791-1.58714 .00255-1.58714-.874-.87656-1.58458 0-1.58458 .87656-1.58458 1.58714-.874 1.58714 .00255ZM0 .00255" fill="#ffffff"/>
<path transform="matrix(1.00005,0,0,-1.00002,5.2305147,98.663738)" stroke-width=".3985" stroke-linecap="butt" stroke-miterlimit="10" stroke-linejoin="miter" fill="none" stroke="#000000" d="M1.58714 .00255C1.58714 .8791 .87656 1.58969 0 1.58969-.87656 1.58969-1.58714 .8791-1.58714 .00255-1.58714-.874-.87656-1.58458 0-1.58458 .87656-1.58458 1.58714-.874 1.58714 .00255ZM0 .00255"/>
<path transform="matrix(1.00005,0,0,-1.00002,5.2305147,98.663738)" d="" fill="#ffffff"/>
<path transform="matrix(1.00005,0,0,-1.00002,5.2305147,98.663738)" stroke-width=".3985" stroke-linecap="butt" stroke-miterlimit="10" stroke-linejoin="miter" fill="none" stroke="#000000" d=""/>
<path transform="matrix(1.00005,0,0,-1.00002,5.2305147,98.663738)" d="M33.62831 .00255V1.9868L29.41176 .00255 33.62831-1.98169Z"/>
<path transform="matrix(1.00005,0,0,-1.00002,5.2305147,98.663738)" stroke-width=".3985" stroke-linecap="butt" stroke-miterlimit="10" stroke-linejoin="miter" fill="none" stroke="#000000" d="M33.62831 .00255V1.9868L29.41176 .00255 33.62831-1.98169Z"/>
<use data-text="&#x02dc;" xlink:href="#font_1_1" transform="matrix(9.963098,0,0,-9.962799,35.74104,108.83394)"/>
<use data-text="I" xlink:href="#font_2_1" transform="matrix(9.963098,0,0,-9.962799,34.54398,111.35298)"/>
</svg>
