<svg xmlns="http://www.w3.org/2000/svg" xmlns:xlink="http://www.w3.org/1999/xlink" xmlns:inkscape="http://www.inkscape.org/namespaces/inkscape" version="1.1" width="157" height="127" viewBox="0 0 157 127">
<defs>
<path id="font_1_4" d="M.44898988 .20022583C.44898988 .3193512 .36698915 .41944886 .25898744 .41944886 .21099854 .41944886 .16799927 .40345765 .13198853 .36842347V.5637665C.1519928 .5577698 .18499756 .55078127 .21699524 .55078127 .33999635 .55078127 .4099884 .6417694 .4099884 .6547699 .4099884 .6607666 .40699769 .6657715 .3999939 .6657715 .39898683 .6657715 .39698792 .6657715 .3919983 .66278079 .37199403 .6537781 .32299806 .6337738 .2559967 .6337738 .21598816 .6337738 .16999817 .6407776 .12298584 .6617737 .114990238 .66477969 .11299133 .66477969 .11099243 .66477969 .100997928 .66477969 .100997928 .6567688 .100997928 .6407776V.34439088C.100997928 .32637025 .100997928 .31835938 .114990238 .31835938 .12199402 .31835938 .12399292 .32136537 .12799073 .32736207 .13899231 .3433838 .17599488 .39746095 .25698854 .39746095 .30899049 .39746095 .33399964 .35139466 .34199525 .33337403 .35798646 .29632569 .3600006 .25727845 .3600006 .20722962 .3600006 .17222595 .3600006 .11222839 .33599855 .07035828 .31199647 .031463624 .2749939 .0055389406 .22898865 .0055389406 .1559906 .0055389406 .09899902 .058380128 .08198547 .11723328 .084991458 .1162262 .08799744 .115234378 .09899902 .115234378 .13198853 .115234378 .14898682 .14022827 .14898682 .16423035 .14898682 .18823242 .13198853 .21322632 .09899902 .21322632 .084991458 .21322632 .049987794 .20622254 .049987794 .16023255 .049987794 .07434082 .11898804-.022460938 .23098755-.022460938 .34700013-.022460938 .44898988 .073349 .44898988 .20022583Z"/>
<path id="font_1_5" d="M.62098696 .58461C.6349945 .62161257 .6619873 .65060427 .7299957 .6516113V.6826172C.69898989 .680603 .6589966 .6796112 .6329956 .6796112 .6029968 .6796112 .54499819 .6816101 .5189972 .6826172V.6516113C.57099917 .65060427 .59199526 .6246033 .59199526 .6016083 .59199526 .5935974 .58898928 .5876007 .58699038 .581604L.4039917 .09954834 .21299744 .604599C.20698548 .61860659 .20698548 .62060549 .20698548 .62260439 .20698548 .6516113 .2639923 .6516113 .2889862 .6516113V.6826172C.25299073 .6796112 .18399048 .6796112 .1459961 .6796112 .09799194 .6796112 .054992677 .6816101 .018997193 .6826172V.6516113C.083999637 .6516113 .102996829 .6516113 .116989139 .6136017L.34899903-.00047302247C.35598756-.019470215 .36099244-.022460938 .37399293-.022460938 .3909912-.022460938 .3929901-.017471314 .397995-.0034637452L.62098696 .58461Z"/>
<path id="font_1_3" d="M.2939911 .64004519C.2939911 .66400149 .2939911 .6660156 .2709961 .6660156 .20899964 .60227969 .12098694 .60227969 .08898926 .60227969V.57128909C.10899353 .57128909 .16799927 .57128909 .21998596 .5972748V.07902527C.21998596 .042999269 .21699524 .0309906 .1269989 .0309906H.09498596V0C.12998963 .0029907227 .21699524 .0029907227 .25698854 .0029907227 .29699708 .0029907227 .38398744 .0029907227 .4189911 0V.0309906H.3869934C.29699708 .0309906 .2939911 .041992189 .2939911 .07902527V.64004519Z"/>
<path id="font_1_2" d="M.45999146 .31976319C.45999146 .39982606 .45498658 .47988893 .41999818 .5539398 .37399293 .65000918 .2919922 .6660156 .25 .6660156 .18998719 .6660156 .116989139 .64001467 .07598877 .54693606 .04399109 .47789 .038986207 .39982606 .038986207 .31976319 .038986207 .24472046 .042999269 .15464783 .083999637 .07859802 .1269989-.0024719239 .19999695-.022460938 .24899292-.022460938 .30299378-.022460938 .3789978-.0014648438 .4229889 .09359741 .45498658 .16265869 .45999146 .2407074 .45999146 .31976319M.24899292-.00047302247C.20999146-.00047302247 .15098572 .024551392 .1329956 .12062073 .12199402 .18066406 .12199402 .2727356 .12199402 .3317871 .12199402 .39582826 .12199402 .46188355 .12998963 .5159149 .14898682 .63500979 .22399903 .64401248 .24899292 .64401248 .28199769 .64401248 .34799195 .6259918 .36698915 .52693179 .3769989 .47088624 .3769989 .39482118 .3769989 .3317871 .3769989 .25672914 .3769989 .18867493 .3659973 .12461853 .35099793 .029556275 .2939911-.00047302247 .24899292-.00047302247Z"/>
<path id="font_1_6" d="M.10598755 .07595825C.10598755 .0309906 .09498596 .0309906 .027999878 .0309906V0C.06098938 .0009918213 .10798645 .0029907227 .13699341 .0029907227 .16699219 .0029907227 .20698548 .0019989014 .24699402 0V.0309906C.17999268 .0309906 .16899109 .0309906 .16899109 .07595825V.17886353L.23298645 .23381043C.30999757 .12789917 .35198976 .07196045 .35198976 .053970338 .35198976 .034988405 .33499146 .0309906 .31599427 .0309906V0C.34399415 .0009918213 .40299989 .0029907227 .42399598 .0029907227 .45298768 .0029907227 .48199464 .0019989014 .5109863 0V.0309906C.47399903 .0309906 .45199586 .0309906 .4139862 .0839386L.2869873 .26278688C.28599549 .26478578 .2809906 .2707672 .2809906 .2737732 .2809906 .277771 .35198976 .33770753 .3619995 .34570313 .4249878 .39666749 .46699525 .39865113 .48799134 .3996582V.43066407C.45899964 .42765809 .44599916 .42765809 .41799928 .42765809 .38198854 .42765809 .31999208 .42965699 .30599977 .43066407V.3996582C.32499696 .39865113 .33499146 .3876648 .33499146 .37467958 .33499146 .3547058 .32099916 .3427124 .31298829 .33570863L.17199707 .21382141V.69433596L.027999878 .68333438V.6523285C.09799194 .6523285 .10598755 .64530947 .10598755 .5961609V.07595825Z"/>
<path id="font_1_1" d="M.6769867 .16200257H.6519928C.6469879 .13600159 .6429901 .11299133 .6339874 .08898926 .6289978 .07299805 .6259918 .06498718 .56799319 .06498718H.48799134C.5009918 .1210022 .5319977 .16900635 .57699587 .23501587 .6239929 .306015 .6649933 .37503053 .6649933 .45404054 .6649933 .59306338 .5299988 .7050781 .36099244 .7050781 .18899536 .7050781 .055999757 .5910492 .055999757 .45404054 .055999757 .37503053 .09700012 .306015 .14399719 .23501587 .18798828 .16900635 .21998596 .1210022 .23298645 .06498718H.15299988C.09498596 .06498718 .09199524 .07299805 .08699036 .08799744 .07899475 .11099243 .07398987 .13700867 .068984989 .16200257H.04399109L.07699585 0H.23699951C.25898744 0 .2619934 0 .2619934 .020996094 .2619934 .09098816 .23098755 .17900086 .20799256 .24301148 .18699646 .3010254 .15899658 .3800354 .15899658 .45503236 .15899658 .6150665 .2689972 .68307498 .3600006 .68307498 .45599366 .68307498 .56199648 .61105349 .56199648 .45503236 .56199648 .3800354 .5349884 .3040161 .5059967 .22201538 .4909973 .18000794 .45899964 .08999634 .45899964 .020996094 .45899964 0 .46199037 0 .4850006 0H.6439972L.6769867 .16200257Z"/>
<path id="font_2_84" d="M.5209961 .21636963C.5209961 .34336854 .42399598 .4423828 .31199647 .4423828 .23399353 .4423828 .19198609 .39837647 .17199707 .3763733V.4423828L.027999878 .43066407V.3996582C.09899902 .3996582 .10598755 .3936615 .10598755 .34973146V-.117996219C.10598755-.16308594 .09498596-.16308594 .027999878-.16308594V-.1940918L.13999939-.19110108 .25299073-.1940918V-.16308594C.18598938-.16308594 .1749878-.16308594 .1749878-.117996219V.050186159 .059173585C.17999268 .04319763 .22200012-.0107421879 .2979889-.0107421879 .4169922-.0107421879 .5209961 .087127689 .5209961 .21594239V.21636963M.43798829 .21594239C.43798829 .09512329 .36799623 .011245728 .2939911 .011245728 .2539978 .011245728 .21598816 .031219483 .18899536 .07215881 .1749878 .09312439 .1749878 .09411621 .1749878 .114089969V.33674623C.20399475 .38838197 .25299073 .41737367 .3039856 .41737367 .3769989 .41737367 .43798829 .32937623 .43798829 .21636963V.21594239Z"/>
<path id="font_2_81" d="M.47099305 .21424866C.47099305 .34223939 .37098695 .4482422 .25 .4482422 .125 .4482422 .027999878 .3392334 .027999878 .21424866 .027999878 .085250858 .13198853-.0107421879 .24899292-.0107421879 .36999513-.0107421879 .47099305 .087249759 .47099305 .21424866M.3880005 .22224427C.3880005 .18624878 .3880005 .13224793 .3659973 .08824158 .34399415 .04324341 .2999878 .014251709 .25 .014251709 .20698548 .014251709 .16299439 .035247804 .13598633 .08125305 .11099243 .12524414 .11099243 .18624878 .11099243 .22224427 .11099243 .26124574 .11099243 .31523133 .1349945 .35923768 .1619873 .40522767 .20899964 .426239 .24899292 .426239 .29299928 .426239 .33599855 .40423585 .3619995 .36123658 .3880005 .3182373 .3880005 .26023866 .3880005 .22224427Z"/>
<path id="font_2_105" d="M.33198548 .12385559V.18066406H.30699159V.12585449C.30699159 .052108766 .2769928 .014251709 .23999024 .014251709 .17298889 .014251709 .17298889 .10491943 .17298889 .12187195V.3996582H.31599427V.43066407H.17298889V.6142578H.147995C.14698792 .5324249 .116989139 .42565919 .018997193 .42166139V.3996582H.10398865V.12408447C.10398865 .0012512207 .19699097-.0107421879 .23298645-.0107421879 .3039856-.0107421879 .33198548 .060180665 .33198548 .12408447V.12385559Z"/>
<path id="font_3_1" d="M.6279907 .5686035C.6769867 .64660647 .71899417 .6496124 .7559967 .6516113 .7679901 .65260317 .7689972 .6696167 .7689972 .6706085 .7689972 .6786041 .7639923 .6826172 .7559967 .6826172 .7299957 .6826172 .70098879 .6796112 .673996 .6796112 .6409912 .6796112 .6069946 .6826172 .57499697 .6826172 .56900027 .6826172 .55599978 .6826172 .55599978 .66360476 .55599978 .65260317 .5649872 .6516113 .57199099 .6516113 .598999 .6496124 .6179962 .63960269 .6179962 .61860659 .6179962 .6036072 .6029968 .581604 .6029968 .5805969L.29599 .092544559 .22799683 .62161257C.22799683 .63861086 .25099183 .6516113 .29699708 .6516113 .31098939 .6516113 .32199098 .6516113 .32199098 .6716156 .32199098 .680603 .31399537 .6826172 .30799867 .6826172 .2679901 .6826172 .22499085 .6796112 .18399048 .6796112 .1659851 .6796112 .14698792 .680603 .1289978 .680603 .11099243 .680603 .09199524 .6826172 .07499695 .6826172 .067993167 .6826172 .055999757 .6826172 .055999757 .66360476 .055999757 .6516113 .06498718 .6516113 .08099365 .6516113 .13699341 .6516113 .13798523 .64260867 .14099121 .6175995L.21998596 .0005340576C.22299195-.019470215 .22698975-.022460938 .23999024-.022460938 .2559967-.022460938 .2599945-.017471314 .2679901-.004470825L.6279907 .5686035Z"/>
<path id="font_4_81" d="M.5289917 .21325684C.5289917 .3382721 .42199708 .44628907 .28399659 .44628907 .1459961 .44628907 .038986207 .3382721 .038986207 .21325684 .038986207 .0892334 .14898682-.009765625 .28399659-.009765625 .4189911-.009765625 .5289917 .0892334 .5289917 .21325684M.43798829 .22225952C.43798829 .17424011 .43499757 .12124634 .4059906 .08023071 .3789978 .042236329 .33299256 .022232056 .28399659 .022232056 .24699402 .022232056 .19299317 .034225465 .1599884 .083236698 .1329956 .12423706 .12998963 .17625427 .12998963 .22225952 .12998963 .2652588 .1309967 .32426454 .1659851 .36727906 .19099427 .39627076 .23298645 .41827394 .28399659 .41827394 .34298707 .41827394 .3849945 .39027406 .40699769 .3592682 .43499757 .32026673 .43798829 .27026368 .43798829 .22225952Z"/>
<path id="font_4_109" d="M.58999636 0V.035995485C.522995 .035995485 .5149994 .042999269 .5149994 .092056278V.44140626L.36099244 .43052674V.39453126C.42799378 .39439393 .43598939 .3874359 .43598939 .33872987V.16749573C.43598939 .079330448 .3789978 .018234253 .30299378 .018234253 .21199036 .018234253 .20799256 .061309816 .20799256 .11239624V.44140626L.053985597 .43052674V.39453126C.1289978 .39453126 .1289978 .39154054 .1289978 .30273438V.15246582C.1289978 .083343509 .1289978-.009765625 .29599-.009765625 .31799317-.009765625 .3909912-.009765625 .43899537 .07432556H.43998719V-.009765625L.58999636 0Z"/>
<path id="font_4_105" d="M.375 .12606812V.1809845H.34098817V.12705994C.34098817 .059173585 .30899049 .022232056 .269989 .022232056 .20098877 .022232056 .20098877 .10609436 .20098877 .124069217V.39465333H.35699464V.43066407H.20098877V.6142578H.16699219C.1659851 .5244446 .125 .42565919 .0289917 .4226532V.39465333H.12199402V.1250763C.12199402 .01322937 .20599365-.009765625 .2619934-.009765625 .32899476-.010009766 .375 .04699707 .375 .12599182V.12606812Z"/>
</defs>
<path transform="matrix(1.00008,0,0,-1,29.469086,1.7989998)" stroke-width=".3985" stroke-linecap="butt" stroke-miterlimit="10" stroke-linejoin="miter" fill="none" stroke="#000000" d="M0 0"/>
<path transform="matrix(1.00008,0,0,-1,29.469086,1.7989998)" stroke-width=".3985" stroke-linecap="butt" stroke-miterlimit="10" stroke-linejoin="miter" fill="none" stroke="#000000" d="M0 0V-50.74075M0-62.64647V-113.38724"/>
<path transform="matrix(1.00008,0,0,-1,29.469086,1.7989998)" stroke-width=".797" stroke-linecap="butt" stroke-miterlimit="10" stroke-linejoin="miter" fill="none" stroke="#000000" d="M11.90572-50.74075H-11.90572M5.95285-54.70934H-5.95285M11.90572-58.6779H-11.90572M5.95285-62.64647H-5.95285"/>
<use data-text="5" xlink:href="#font_1_4" transform="matrix(9.963397,0,0,-9.9626,.5077667,60.640005)"/>
<use data-text="V" xlink:href="#font_1_5" transform="matrix(9.963397,0,0,-9.9626,7.143387,60.640005)"/>
<path transform="matrix(1.00008,0,0,-1,29.469086,1.7989998)" stroke-width=".3985" stroke-linecap="butt" stroke-miterlimit="10" stroke-linejoin="miter" fill="none" stroke="#000000" d="M56.69363-113.38728"/>
<path transform="matrix(1.00008,0,0,-1,29.469086,1.7989998)" stroke-width=".3985" stroke-linecap="butt" stroke-miterlimit="10" stroke-linejoin="miter" fill="none" stroke="#000000" d="M73.56003-104.45813H64.28345M73.56003-122.31642H64.28345M39.82722-113.38728H49.1038"/>
<path transform="matrix(1.00008,0,0,-1,29.469086,1.7989998)" d="M65.87059-104.45813C65.87059-103.58157 65.16-102.87099 64.28345-102.87099 63.40688-102.87099 62.69629-103.58157 62.69629-104.45813 62.69629-105.3347 63.40688-106.04529 64.28345-106.04529 65.16-106.04529 65.87059-105.3347 65.87059-104.45813ZM64.28345-104.45813" fill="#ffffff"/>
<path transform="matrix(1.00008,0,0,-1,29.469086,1.7989998)" stroke-width=".3985" stroke-linecap="butt" stroke-miterlimit="10" stroke-linejoin="miter" fill="none" stroke="#000000" d="M65.87059-104.45813C65.87059-103.58157 65.16-102.87099 64.28345-102.87099 63.40688-102.87099 62.69629-103.58157 62.69629-104.45813 62.69629-105.3347 63.40688-106.04529 64.28345-106.04529 65.16-106.04529 65.87059-105.3347 65.87059-104.45813ZM64.28345-104.45813"/>
<path transform="matrix(1.00008,0,0,-1,29.469086,1.7989998)" d="" fill="#ffffff"/>
<path transform="matrix(1.00008,0,0,-1,29.469086,1.7989998)" stroke-width=".3985" stroke-linecap="butt" stroke-miterlimit="10" stroke-linejoin="miter" fill="none" stroke="#000000" d=""/>
<path transform="matrix(1.00008,0,0,-1,29.469086,1.7989998)" d="M65.87059-122.31642C65.87059-121.43985 65.16-120.72926 64.28345-120.72926 63.40688-120.72926 62.69629-121.43985 62.69629-122.31642 62.69629-123.19298 63.40688-123.90356 64.28345-123.90356 65.16-123.90356 65.87059-123.19298 65.87059-122.31642ZM64.28345-122.31642" fill="#ffffff"/>
<path transform="matrix(1.00008,0,0,-1,29.469086,1.7989998)" stroke-width=".3985" stroke-linecap="butt" stroke-miterlimit="10" stroke-linejoin="miter" fill="none" stroke="#000000" d="M65.87059-122.31642C65.87059-121.43985 65.16-120.72926 64.28345-120.72926 63.40688-120.72926 62.69629-121.43985 62.69629-122.31642 62.69629-123.19298 63.40688-123.90356 64.28345-123.90356 65.16-123.90356 65.87059-123.19298 65.87059-122.31642ZM64.28345-122.31642"/>
<path transform="matrix(1.00008,0,0,-1,29.469086,1.7989998)" d="" fill="#ffffff"/>
<path transform="matrix(1.00008,0,0,-1,29.469086,1.7989998)" stroke-width=".3985" stroke-linecap="butt" stroke-miterlimit="10" stroke-linejoin="miter" fill="none" stroke="#000000" d=""/>
<path transform="matrix(1.00008,0,0,-1,29.469086,1.7989998)" d="M50.69096-113.38728C50.69096-112.51071 49.98038-111.80013 49.1038-111.80013 48.22725-111.80013 47.51666-112.51071 47.51666-113.38728 47.51666-114.26384 48.22725-114.97443 49.1038-114.97443 49.98038-114.97443 50.69096-114.26384 50.69096-113.38728ZM49.1038-113.38728" fill="#ffffff"/>
<path transform="matrix(1.00008,0,0,-1,29.469086,1.7989998)" stroke-width=".3985" stroke-linecap="butt" stroke-miterlimit="10" stroke-linejoin="miter" fill="none" stroke="#000000" d="M50.69096-113.38728C50.69096-112.51071 49.98038-111.80013 49.1038-111.80013 48.22725-111.80013 47.51666-112.51071 47.51666-113.38728 47.51666-114.26384 48.22725-114.97443 49.1038-114.97443 49.98038-114.97443 50.69096-114.26384 50.69096-113.38728ZM49.1038-113.38728"/>
<path transform="matrix(1.00008,0,0,-1,29.469086,1.7989998)" d="" fill="#ffffff"/>
<path transform="matrix(1.00008,0,0,-1,29.469086,1.7989998)" stroke-width=".3985" stroke-linecap="butt" stroke-miterlimit="10" stroke-linejoin="miter" fill="none" stroke="#000000" d=""/>
<path transform="matrix(1.00008,0,0,-1,29.469086,1.7989998)" stroke-width=".797" stroke-linecap="butt" stroke-miterlimit="10" stroke-linejoin="miter" fill="none" stroke="#000000" d="M50.69096-113.38728 63.83696-106.49176"/>
<path transform="matrix(1.00008,0,0,-1,29.469086,1.7989998)" stroke-width=".3985" stroke-linecap="butt" stroke-miterlimit="10" stroke-linejoin="miter" fill="none" stroke="#000000" d="M0-113.38724 39.82722-113.38728"/>
<path transform="matrix(1.00008,0,0,-1,29.469086,1.7989998)" stroke-width=".3985" stroke-linecap="butt" stroke-miterlimit="10" stroke-linejoin="miter" fill="none" stroke="#000000" d="M73.56003-104.45813V-91.98552M73.56003-60.23714V-47.76451"/>
<path transform="matrix(1.00008,0,0,-1,29.469086,1.7989998)" stroke-width=".797" stroke-linecap="butt" stroke-linejoin="bevel" fill="none" stroke="#000000" d="M73.56003-92.38403 79.51288-89.30661 67.60718-83.94879 79.51288-78.59099 67.60718-73.23317 79.51288-67.87535 67.60718-62.51753 73.56003-59.83862"/>
<path transform="matrix(1.00008,0,0,-1,29.469086,1.7989998)" stroke-width=".797" stroke-linecap="butt" stroke-linejoin="bevel" fill="none" stroke="#000000" d="M89.43422-76.11133H82.6212"/>
<path transform="matrix(-1.00008,-0,0,1,112.09689,77.910327)" d="M3.1083 0C1.81317 .25902-.51805 .77707-2.0722 1.94269-.77707 .51805-.77707-.51805-2.0722-1.94269-.51805-.77707 1.81317-.25902 3.1083 0Z"/>
<use data-text="1" xlink:href="#font_1_3" transform="matrix(9.963397,0,0,-9.9626,68.80323,73.98)"/>
<use data-text="0" xlink:href="#font_1_2" transform="matrix(9.963397,0,0,-9.9626,73.78493,73.98)"/>
<use data-text="k" xlink:href="#font_1_6" transform="matrix(9.963397,0,0,-9.9626,80.42055,73.98)"/>
<use data-text="&#x2126;" xlink:href="#font_1_1" transform="matrix(9.963397,0,0,-9.9626,85.67127,73.98)"/>
<use data-text="p" xlink:href="#font_2_84" transform="matrix(9.963397,0,0,-9.9626,68.80323,85.935009)"/>
<use data-text="o" xlink:href="#font_2_81" transform="matrix(9.963397,0,0,-9.9626,74.62186,85.935009)"/>
<use data-text="t" xlink:href="#font_2_105" transform="matrix(9.963397,0,0,-9.9626,79.60355,85.935009)"/>
<path transform="matrix(1.00008,0,0,-1,29.469086,1.7989998)" stroke-width=".3985" stroke-linecap="butt" stroke-miterlimit="10" stroke-linejoin="miter" fill="none" stroke="#000000" d="M89.43422-76.11133 89.4342-53.92984M89.4342-22.18146 89.43422 0H0"/>
<path transform="matrix(1.00008,0,0,-1,29.469086,1.7989998)" stroke-width=".797" stroke-linecap="butt" stroke-linejoin="bevel" fill="none" stroke="#000000" d="M89.4342-54.32835 83.48135-51.25095 95.38705-45.89313 83.48135-40.53531 95.38705-35.17749 83.48135-29.81967 95.38705-24.46185 89.4342-21.78296"/>
<use data-text="1" xlink:href="#font_1_3" transform="matrix(9.963397,0,0,-9.9626,127.06989,42.002)"/>
<use data-text="k" xlink:href="#font_1_6" transform="matrix(9.963397,0,0,-9.9626,133.7055,42.002)"/>
<use data-text="&#x2126;" xlink:href="#font_1_1" transform="matrix(9.963397,0,0,-9.9626,138.95623,42.002)"/>
<path transform="matrix(1.00008,0,0,-1,29.469086,1.7989998)" stroke-width=".3985" stroke-linecap="butt" stroke-miterlimit="10" stroke-linejoin="miter" fill="none" stroke="#000000" d="M89.43422-76.11133 103.60762-76.11131M103.60762-76.11131 117.78104-76.11133"/>
<path transform="matrix(1.00008,0,0,-1,29.469086,1.7989998)" d="M91.02136-76.11133C91.02136-75.23477 90.31078-74.52419 89.43422-74.52419 88.55766-74.52419 87.84708-75.23477 87.84708-76.11133 87.84708-76.98788 88.55766-77.69847 89.43422-77.69847 90.31078-77.69847 91.02136-76.98788 91.02136-76.11133ZM89.43422-76.11133"/>
<path transform="matrix(1.00008,0,0,-1,29.469086,1.7989998)" stroke-width=".3985" stroke-linecap="butt" stroke-miterlimit="10" stroke-linejoin="miter" fill="none" stroke="#000000" d="M91.02136-76.11133C91.02136-75.23477 90.31078-74.52419 89.43422-74.52419 88.55766-74.52419 87.84708-75.23477 87.84708-76.11133 87.84708-76.98788 88.55766-77.69847 89.43422-77.69847 90.31078-77.69847 91.02136-76.98788 91.02136-76.11133ZM89.43422-76.11133"/>
<path transform="matrix(1.00008,0,0,-1,29.469086,1.7989998)" d="M119.36818-76.11133C119.36818-75.23477 118.6576-74.52419 117.78104-74.52419 116.90446-74.52419 116.19388-75.23477 116.19388-76.11133 116.19388-76.98788 116.90446-77.69847 117.78104-77.69847 118.6576-77.69847 119.36818-76.98788 119.36818-76.11133ZM117.78104-76.11133" fill="#ffffff"/>
<path transform="matrix(1.00008,0,0,-1,29.469086,1.7989998)" stroke-width=".3985" stroke-linecap="butt" stroke-miterlimit="10" stroke-linejoin="miter" fill="none" stroke="#000000" d="M119.36818-76.11133C119.36818-75.23477 118.6576-74.52419 117.78104-74.52419 116.90446-74.52419 116.19388-75.23477 116.19388-76.11133 116.19388-76.98788 116.90446-77.69847 117.78104-77.69847 118.6576-77.69847 119.36818-76.98788 119.36818-76.11133ZM117.78104-76.11133"/>
<path transform="matrix(1.00008,0,0,-1,29.469086,1.7989998)" d="" fill="#ffffff"/>
<path transform="matrix(1.00008,0,0,-1,29.469086,1.7989998)" stroke-width=".3985" stroke-linecap="butt" stroke-miterlimit="10" stroke-linejoin="miter" fill="none" stroke="#000000" d=""/>
<path transform="matrix(1.00008,0,0,-1,29.469086,1.7989998)" stroke-width=".3985" stroke-linecap="butt" stroke-miterlimit="10" stroke-linejoin="miter" fill="none" stroke="#000000" d="M73.56003-104.45813H95.67053M95.67053-104.45813H117.78104"/>
<path transform="matrix(1.00008,0,0,-1,29.469086,1.7989998)" d="M75.14717-104.45813C75.14717-103.58157 74.43658-102.87099 73.56003-102.87099 72.68346-102.87099 71.97287-103.58157 71.97287-104.45813 71.97287-105.3347 72.68346-106.04529 73.56003-106.04529 74.43658-106.04529 75.14717-105.3347 75.14717-104.45813ZM73.56003-104.45813"/>
<path transform="matrix(1.00008,0,0,-1,29.469086,1.7989998)" stroke-width=".3985" stroke-linecap="butt" stroke-miterlimit="10" stroke-linejoin="miter" fill="none" stroke="#000000" d="M75.14717-104.45813C75.14717-103.58157 74.43658-102.87099 73.56003-102.87099 72.68346-102.87099 71.97287-103.58157 71.97287-104.45813 71.97287-105.3347 72.68346-106.04529 73.56003-106.04529 74.43658-106.04529 75.14717-105.3347 75.14717-104.45813ZM73.56003-104.45813"/>
<path transform="matrix(1.00008,0,0,-1,29.469086,1.7989998)" d="M119.36818-104.45813C119.36818-103.58157 118.6576-102.87099 117.78104-102.87099 116.90446-102.87099 116.19388-103.58157 116.19388-104.45813 116.19388-105.3347 116.90446-106.04529 117.78104-106.04529 118.6576-106.04529 119.36818-105.3347 119.36818-104.45813ZM117.78104-104.45813" fill="#ffffff"/>
<path transform="matrix(1.00008,0,0,-1,29.469086,1.7989998)" stroke-width=".3985" stroke-linecap="butt" stroke-miterlimit="10" stroke-linejoin="miter" fill="none" stroke="#000000" d="M119.36818-104.45813C119.36818-103.58157 118.6576-102.87099 117.78104-102.87099 116.90446-102.87099 116.19388-103.58157 116.19388-104.45813 116.19388-105.3347 116.90446-106.04529 117.78104-106.04529 118.6576-106.04529 119.36818-105.3347 119.36818-104.45813ZM117.78104-104.45813"/>
<path transform="matrix(1.00008,0,0,-1,29.469086,1.7989998)" d="" fill="#ffffff"/>
<path transform="matrix(1.00008,0,0,-1,29.469086,1.7989998)" stroke-width=".3985" stroke-linecap="butt" stroke-miterlimit="10" stroke-linejoin="miter" fill="none" stroke="#000000" d=""/>
<path transform="matrix(1.00008,0,0,-1,29.469086,1.7989998)" stroke-width=".3985" stroke-linecap="butt" stroke-miterlimit="10" stroke-linejoin="miter" fill="none" stroke="#000000" d="M117.78104-90.28473"/>
<use data-text="V" xlink:href="#font_3_1" transform="matrix(9.963397,0,0,-9.9626,138.3648,94.70599)"/>
<use data-text="o" xlink:href="#font_4_81" transform="matrix(6.974358,0,0,-6.9738,144.17627,96.201)"/>
<use data-text="u" xlink:href="#font_4_109" transform="matrix(6.974358,0,0,-6.9738,148.14467,96.201)"/>
<use data-text="t" xlink:href="#font_4_105" transform="matrix(6.974358,0,0,-6.9738,152.54549,96.201)"/>
</svg>
