<svg xmlns="http://www.w3.org/2000/svg" xmlns:xlink="http://www.w3.org/1999/xlink" xmlns:inkscape="http://www.inkscape.org/namespaces/inkscape" version="1.1" width="264" height="125" viewBox="0 0 264 125">
<defs>
<path id="font_1_4" d="M.6279907 .5686035C.6769867 .64660647 .71899417 .6496124 .7559967 .6516113 .7679901 .65260317 .7689972 .6696167 .7689972 .6706085 .7689972 .6786041 .7639923 .6826172 .7559967 .6826172 .7299957 .6826172 .70098879 .6796112 .673996 .6796112 .6409912 .6796112 .6069946 .6826172 .57499697 .6826172 .56900027 .6826172 .55599978 .6826172 .55599978 .66360476 .55599978 .65260317 .5649872 .6516113 .57199099 .6516113 .598999 .6496124 .6179962 .63960269 .6179962 .61860659 .6179962 .6036072 .6029968 .581604 .6029968 .5805969L.29599 .092544559 .22799683 .62161257C.22799683 .63861086 .25099183 .6516113 .29699708 .6516113 .31098939 .6516113 .32199098 .6516113 .32199098 .6716156 .32199098 .680603 .31399537 .6826172 .30799867 .6826172 .2679901 .6826172 .22499085 .6796112 .18399048 .6796112 .1659851 .6796112 .14698792 .680603 .1289978 .680603 .11099243 .680603 .09199524 .6826172 .07499695 .6826172 .067993167 .6826172 .055999757 .6826172 .055999757 .66360476 .055999757 .6516113 .06498718 .6516113 .08099365 .6516113 .13699341 .6516113 .13798523 .64260867 .14099121 .6175995L.21998596 .0005340576C.22299195-.019470215 .22698975-.022460938 .23999024-.022460938 .2559967-.022460938 .2599945-.017471314 .2679901-.004470825L.6279907 .5686035Z"/>
<path id="font_2_66" d="M.27398683 0V.035995485C.21598816 .035995485 .20599365 .035995485 .20599365 .07803345V.44140626L.05899048 .43052674V.39453126C.12199402 .39453126 .1309967 .3885193 .1309967 .33952333V.07952881C.1309967 .035995485 .12098694 .035995485 .055999757 .035995485V0C.055999757 0 .12799073 .0039978029 .16799927 .0039978029 .20298767 .0039978029 .23899842 .0029907227 .27398683 0M.21899414 .60214236C.21899414 .6341553 .19400025 .66015627 .1619873 .66015627 .12799073 .66015627 .10499573 .6321411 .10499573 .6031494 .10499573 .57115176 .12998963 .54515078 .1619873 .54515078 .19599915 .54515078 .21899414 .57315066 .21899414 .60214236Z"/>
<path id="font_2_77" d="M.58999636 0V.035995485C.5249939 .035995485 .5149994 .035995485 .5149994 .07904053V.3032837C.5149994 .3903656 .47200013 .44140626 .36499024 .44140626 .2829895 .44140626 .22999573 .39637757 .20199585 .34432984H.20098877V.44140626L.053985597 .43052674V.39453126C.12098694 .39453126 .1289978 .3875122 .1289978 .33843995V.079055789C.1289978 .035995485 .11898804 .035995485 .053985597 .035995485V0C.053985597 0 .12599182 .0039978029 .16799927 .0039978029 .20498657 .0039978029 .27398683 .0009918213 .2829895 0V.035995485C.21798706 .035995485 .20799256 .035995485 .20799256 .079055789V.25932313C.20799256 .36434938 .29100038 .4133911 .35699464 .4133911 .4269867 .4133911 .43598939 .3583374 .43598939 .3072815V.07904053C.43598939 .035995485 .42599488 .035995485 .36099244 .035995485V0C.36099244 0 .43299867 .0039978029 .47499085 .0039978029 .5119934 .0039978029 .58099368 .0009918213 .58999636 0Z"/>
<path id="font_1_5" d="M.7200012 .6586151C.72099307 .6626129 .72299197 .66760256 .72299197 .6736145 .72299197 .6826172 .71798709 .6826172 .69799807 .6826172H.27598573C.2519989 .6826172 .25099183 .6816101 .24499512 .6626129L.18998719 .4827118C.18798828 .47772218 .18699646 .47071839 .18699646 .46871949 .18699646 .46772767 .18699646 .45773316 .19898987 .45773316 .20799256 .45773316 .20999146 .46472169 .21199036 .46772767 .25 .5856476 .3019867 .6516113 .45799256 .6516113H.62098696L.06199646 .026992798C.06199646 .025985718 .057998659 .011993408 .057998659 .008987427 .057998659 0 .06498718 0 .08299255 0H.5179901C.5419922 0 .54299929 .0009918213 .548996 .019989014L.6199951 .24085999C.62098696 .24485779 .6239929 .25186158 .6239929 .25585938 .6239929 .260849 .6199951 .2668457 .61099246 .2668457 .60198977 .2668457 .6009979 .2628479 .59399417 .24186707 .5499878 .10594177 .5019989 .033996583 .33198548 .033996583H.16099549L.7200012 .6586151Z"/>
<path id="font_3_1" d="M.33499146 .63612368C.33499146 .6630554 .33299256 .6640625 .30499269 .6640625 .24099732 .6014404 .1499939 .6004486 .10899353 .6004486V.5644531C.1329956 .5644531 .19898987 .5644531 .2539978 .592453V.08203125C.2539978 .04899597 .2539978 .035995485 .1539917 .035995485H.115997318V0C.13398743 .0009918213 .25698854 .0039978029 .2939911 .0039978029 .32499696 .0039978029 .45098878 .0009918213 .47299195 0V.035995485H.43499757C.33499146 .035995485 .33499146 .04899597 .33499146 .08203125V.63612368Z"/>
<path id="font_1_3" d="M.375 .6136017C.3809967 .63760378 .38398744 .6476135 .40299989 .65060427 .4119873 .6516113 .44400025 .6516113 .46398927 .6516113 .5349884 .6516113 .6459961 .6516113 .6459961 .5525818 .6459961 .51856997 .6299896 .44955445 .59098818 .41055299 .5649872 .38453675 .5119934 .35253907 .42199708 .35253907H.30999757L.375 .6136017M.5189972 .33953858C.6199951 .3615265 .7389984 .43154908 .7389984 .5325775 .7389984 .61860659 .6489868 .6826172 .5179901 .6826172H.23298645C.21299744 .6826172 .20399475 .6826172 .20399475 .6626129 .20399475 .6516113 .21299744 .6516113 .23199463 .6516113 .23399353 .6516113 .25299073 .6516113 .269989 .6496124 .28799439 .6476135 .29699708 .64660647 .29699708 .63360598 .29699708 .62960818 .29599 .6266022 .29299928 .6145935L.15899658 .07752991C.14898682 .038528444 .14698792 .030532837 .067993167 .030532837 .049987794 .030532837 .040985109 .030532837 .040985109 .010528564 .040985109-.00047302247 .052993776-.00047302247 .054992677-.00047302247 .08299255-.00047302247 .15299988 .002532959 .18099976 .002532959 .20899964 .002532959 .27999879-.00047302247 .30799867-.00047302247 .31599427-.00047302247 .32798768-.00047302247 .32798768 .01953125 .32798768 .030532837 .31900025 .030532837 .2999878 .030532837 .2630005 .030532837 .23498535 .030532837 .23498535 .048538209 .23498535 .054534913 .23699951 .059524537 .23799134 .0655365L.3039856 .3305359H.4229889C.5139923 .3305359 .5319977 .27453614 .5319977 .23953247 .5319977 .22453308 .5239868 .19352722 .5179901 .17053223 .5109863 .14253235 .5019989 .105529788 .5019989 .08552551 .5019989-.022460938 .621994-.022460938 .6349945-.022460938 .7200012-.022460938 .7549896 .07853699 .7549896 .0925293 .7549896 .104537967 .74398806 .104537967 .7429962 .104537967 .73399356 .104537967 .7319946 .09753418 .7299957 .090530399 .7049866 .016525269 .6619873-.00047302247 .6389923-.00047302247 .60598757-.00047302247 .598999 .021530152 .598999 .060531618 .598999 .091537479 .6049957 .14253235 .60899356 .17453003 .61099246 .1885376 .61299136 .20753479 .61299136 .2215271 .61299136 .2985382 .54599 .3295288 .5189972 .33953858Z"/>
<path id="font_1_2" d="M.37399293 .6046295C.3829956 .64060977 .38598634 .6516113 .47999574 .6516113 .5099945 .6516113 .5179901 .6516113 .5179901 .6706085 .5179901 .6826172 .5069885 .6826172 .5019989 .6826172 .46899415 .6826172 .3869934 .6796112 .35398866 .6796112 .32398988 .6796112 .25099183 .6826172 .22099304 .6826172 .21398926 .6826172 .20199585 .6826172 .20199585 .6626129 .20199585 .6516113 .21099854 .6516113 .22999573 .6516113 .23199463 .6516113 .25099183 .6516113 .2679901 .6496124 .28599549 .6476135 .29499818 .64660647 .29499818 .6336212 .29499818 .6296234 .2939911 .62661746 .29100038 .614624L.15699768 .07795715C.14698792 .038986207 .14498902 .0309906 .06599426 .0309906 .04899597 .0309906 .038986207 .0309906 .038986207 .010986328 .038986207 0 .04798889 0 .06599426 0H.5289917C.5529938 0 .55400088 0 .55999758 .016998291L.6389923 .23286438C.6429901 .24386597 .6429901 .24586487 .6429901 .24685669 .6429901 .2508545 .6399994 .25785829 .6309967 .25785829 .621994 .25785829 .62098696 .2528534 .6139984 .23686219 .5799866 .14492798 .5359955 .0309906 .36299134 .0309906H.2689972C.25498963 .0309906 .25299073 .0309906 .24699402 .03199768 .23699951 .032989503 .23399353 .033996583 .23399353 .041992189 .23399353 .04498291 .23399353 .04698181 .23899842 .064971927L.37399293 .6046295Z"/>
<path id="font_3_2" d="M.5049896 .18203736H.47099305C.46798707 .16001892 .45799256 .100997928 .44499208 .09098816 .43699647 .084991458 .3600006 .084991458 .34599305 .084991458H.1619873C.2669983 .17803955 .3019867 .20603943 .3619995 .25306703 .43598939 .312088 .5049896 .374115 .5049896 .46914674 .5049896 .5900879 .39898683 .6640625 .2709961 .6640625 .14698792 .6640625 .06298828 .57710269 .06298828 .4851532 .06298828 .43414308 .10598755 .42915345 .115997318 .42915345 .13999939 .42915345 .16899109 .44615174 .16899109 .48214723 .16899109 .5001526 .1619873 .53515627 .10998535 .53515627 .14099121 .6060791 .20899964 .62805178 .2559967 .62805178 .35598756 .62805178 .4079895 .5501404 .4079895 .46914674 .4079895 .38212586 .34599305 .3130951 .31399537 .27708436L.07299805 .038986207C.06298828 .02999878 .06298828 .027999878 .06298828 0H.47499085L.5049896 .18203736Z"/>
<path id="font_1_1" d="M.7599945 .69506838C.7599945 .69807437 .7579956 .7050781 .7489929 .7050781 .74598696 .7050781 .7449951 .70407107 .73399356 .69306948L.6639862 .61602786C.6549988 .6300354 .60899356 .7050781 .49798585 .7050781 .2749939 .7050781 .049987794 .48391725 .049987794 .25172425 .049987794 .08659363 .16799927-.022460938 .32099916-.022460938 .4079895-.022460938 .48399354 .017532349 .5369873 .063583377 .6299896 .14564514 .6469879 .2367096 .6469879 .23971558 .6469879 .24972534 .6369934 .24972534 .6349945 .24972534 .6289978 .24972534 .6239929 .24772644 .621994 .23971558 .61299136 .21069336 .58999636 .13963318 .5209961 .081588748 .45199586 .025543213 .3889923 .008529663 .33699037 .008529663 .24699402 .008529663 .14099121 .060577394 .14099121 .21670532 .14099121 .27374269 .1619873 .43588258 .2619934 .55296328 .32299806 .62402346 .4169922 .67407229 .5059967 .67407229 .60798647 .67407229 .6669922 .5970001 .6669922 .48091126 .6669922 .44088746 .6639862 .43988038 .6639862 .4298706 .6639862 .41986085 .6749878 .41986085 .67900088 .41986085 .69200137 .41986085 .69200137 .42185975 .69699099 .43988038L.7599945 .69506838Z"/>
<path id="font_2_81" d="M.5289917 .21325684C.5289917 .3382721 .42199708 .44628907 .28399659 .44628907 .1459961 .44628907 .038986207 .3382721 .038986207 .21325684 .038986207 .0892334 .14898682-.009765625 .28399659-.009765625 .4189911-.009765625 .5289917 .0892334 .5289917 .21325684M.43798829 .22225952C.43798829 .17424011 .43499757 .12124634 .4059906 .08023071 .3789978 .042236329 .33299256 .022232056 .28399659 .022232056 .24699402 .022232056 .19299317 .034225465 .1599884 .083236698 .1329956 .12423706 .12998963 .17625427 .12998963 .22225952 .12998963 .2652588 .1309967 .32426454 .1659851 .36727906 .19099427 .39627076 .23298645 .41827394 .28399659 .41827394 .34298707 .41827394 .3849945 .39027406 .40699769 .3592682 .43499757 .32026673 .43798829 .27026368 .43798829 .22225952Z"/>
<path id="font_2_109" d="M.58999636 0V.035995485C.522995 .035995485 .5149994 .042999269 .5149994 .092056278V.44140626L.36099244 .43052674V.39453126C.42799378 .39439393 .43598939 .3874359 .43598939 .33872987V.16749573C.43598939 .079330448 .3789978 .018234253 .30299378 .018234253 .21199036 .018234253 .20799256 .061309816 .20799256 .11239624V.44140626L.053985597 .43052674V.39453126C.1289978 .39453126 .1289978 .39154054 .1289978 .30273438V.15246582C.1289978 .083343509 .1289978-.009765625 .29599-.009765625 .31799317-.009765625 .3909912-.009765625 .43899537 .07432556H.43998719V-.009765625L.58999636 0Z"/>
<path id="font_2_105" d="M.375 .12606812V.1809845H.34098817V.12705994C.34098817 .059173585 .30899049 .022232056 .269989 .022232056 .20098877 .022232056 .20098877 .10609436 .20098877 .124069217V.39465333H.35699464V.43066407H.20098877V.6142578H.16699219C.1659851 .5244446 .125 .42565919 .0289917 .4226532V.39465333H.12199402V.1250763C.12199402 .01322937 .20599365-.009765625 .2619934-.009765625 .32899476-.010009766 .375 .04699707 .375 .12599182V.12606812Z"/>
</defs>
<path transform="matrix(1.00009,0,0,-1.00002,28.179093,121.33911)" stroke-width=".3985" stroke-linecap="butt" stroke-miterlimit="10" stroke-linejoin="miter" fill="none" stroke="#000000" d="M0 0"/>
<path transform="matrix(1.00009,0,0,-1.00002,28.179093,121.33911)" stroke-width=".3985" stroke-linecap="butt" stroke-miterlimit="10" stroke-linejoin="miter" fill="none" stroke="#000000" d="M0 0V44.78789M0 68.59933V113.38724H26.64601M58.3944 113.38724H85.04042L85.0404 100.91461M85.0404 69.16623 85.04042 56.69362 85.0404 40.25252M85.0404 16.44109 85.04042 0H42.5202M42.5202 0H0"/>
<path transform="matrix(1.00009,0,0,-1.00002,28.179093,121.33911)" stroke-width=".797" stroke-linecap="butt" stroke-miterlimit="10" stroke-linejoin="miter" fill="none" stroke="#000000" d="M-11.90572 56.69362C-11.90572 50.1182-6.57541 44.78789 0 44.78789 6.57541 44.78789 11.90572 50.1182 11.90572 56.69362 11.90572 63.26903 6.57541 68.59933 0 68.59933-6.57541 68.59933-11.90572 63.26903-11.90572 56.69362ZM0 56.69362"/>
<path transform="matrix(1.00009,0,0,-1.00002,28.179093,121.33911)" stroke-width=".797" stroke-linecap="butt" stroke-miterlimit="10" stroke-linejoin="miter" fill="none" stroke="#000000" d="M5.95285 56.69362C4.98253 55.16971 4.0539 53.7172 2.97643 53.7172 1.89896 53.7172 .97032 55.1697 0 56.69362-.9703 58.21751-1.89894 59.67004-2.97643 59.67004-4.05388 59.67004-4.98251 58.21753-5.95285 56.69362"/>
<use data-text="V" xlink:href="#font_1_4" transform="matrix(9.963496,0,0,-9.962799,.5075989,66.791019)"/>
<use data-text="i" xlink:href="#font_2_66" transform="matrix(6.9744279,0,0,-6.97394,6.3191225,68.28505)"/>
<use data-text="n" xlink:href="#font_2_77" transform="matrix(6.9744279,0,0,-6.97394,8.571861,68.28505)"/>
<path transform="matrix(1.00009,0,0,-1.00002,28.179093,121.33911)" stroke-width=".797" stroke-linecap="butt" stroke-miterlimit="10" stroke-linejoin="miter" fill="none" stroke="#000000" d="M26.64601 119.34009H58.39439V107.43439H26.64601Z"/>
<use data-text="Z" xlink:href="#font_1_5" transform="matrix(9.963496,0,0,-9.962799,65.06741,24.477173)"/>
<use data-text="1" xlink:href="#font_3_1" transform="matrix(6.9744279,0,0,-6.97394,71.86903,25.971199)"/>
<path transform="matrix(1.00009,0,0,-1.00002,28.179093,121.33911)" stroke-width=".797" stroke-linecap="butt" stroke-linejoin="bevel" fill="none" stroke="#000000" d="M85.0404 101.31313 90.99326 98.2357 79.08755 92.8779 90.99326 87.52008 79.08755 82.16226 90.99326 76.80444 79.08755 71.44662 85.0404 68.76772"/>
<path transform="matrix(1.00009,0,0,-1.00002,28.179093,121.33911)" d="M86.62756 113.38724C86.62756 114.2638 85.91698 114.97438 85.04042 114.97438 84.16386 114.97438 83.45328 114.2638 83.45328 113.38724 83.45328 112.51067 84.16386 111.80008 85.04042 111.80008 85.91698 111.80008 86.62756 112.51067 86.62756 113.38724ZM85.04042 113.38724"/>
<path transform="matrix(1.00009,0,0,-1.00002,28.179093,121.33911)" stroke-width=".3985" stroke-linecap="butt" stroke-miterlimit="10" stroke-linejoin="miter" fill="none" stroke="#000000" d="M86.62756 113.38724C86.62756 114.2638 85.91698 114.97438 85.04042 114.97438 84.16386 114.97438 83.45328 114.2638 83.45328 113.38724 83.45328 112.51067 84.16386 111.80008 85.04042 111.80008 85.91698 111.80008 86.62756 112.51067 86.62756 113.38724ZM85.04042 113.38724"/>
<use data-text="R" xlink:href="#font_1_3" transform="matrix(9.963496,0,0,-9.962799,97.42532,38.44445)"/>
<path transform="matrix(1.00009,0,0,-1.00002,28.179093,121.33911)" stroke-width=".797" stroke-linecap="butt" stroke-linejoin="bevel" fill="none" stroke="#000000" d="M84.88101 40.65103C88.16872 40.65103 90.83386 39.01628 90.83386 36.99968 90.83386 34.98308 88.16872 33.34833 84.88101 33.34833 83.23726 33.34833 81.90474 34.01459 81.90474 34.83647 81.90474 35.65834 83.23726 36.3246 84.88101 36.3246 88.16872 36.3246 90.83386 34.68987 90.83386 32.67325 90.83386 30.65665 88.16872 29.02191 84.88101 29.02191 83.23726 29.02191 81.90474 29.68817 81.90474 30.51004 81.90474 31.33192 83.23726 31.99818 84.88101 31.99818 88.16872 31.99818 90.83386 30.36343 90.83386 28.34683 90.83386 26.33023 88.16872 24.69548 84.88101 24.69548 83.23726 24.69548 81.90474 25.36174 81.90474 26.18362 81.90474 27.00551 83.23726 27.67175 84.88101 27.67175 88.16872 27.67175 90.83386 26.03702 90.83386 24.02042 90.83386 22.00381 88.16872 20.36906 84.88101 20.36906 83.23726 20.36906 81.90474 21.03532 81.90474 21.8572 81.90474 22.67908 83.23726 23.34534 84.88101 23.34534 88.16872 23.34534 90.83386 21.71059 90.83386 19.69398 90.83386 17.67738 88.16872 16.04263 84.88101 16.04263"/>
<path transform="matrix(1.00009,0,0,-1.00002,28.179093,121.33911)" d="M86.62756 0C86.62756 .87656 85.91698 1.58714 85.04042 1.58714 84.16386 1.58714 83.45328 .87656 83.45328 0 83.45328-.87656 84.16386-1.58714 85.04042-1.58714 85.91698-1.58714 86.62756-.87656 86.62756 0ZM85.04042 0"/>
<path transform="matrix(1.00009,0,0,-1.00002,28.179093,121.33911)" stroke-width=".3985" stroke-linecap="butt" stroke-miterlimit="10" stroke-linejoin="miter" fill="none" stroke="#000000" d="M86.62756 0C86.62756 .87656 85.91698 1.58714 85.04042 1.58714 84.16386 1.58714 83.45328 .87656 83.45328 0 83.45328-.87656 84.16386-1.58714 85.04042-1.58714 85.91698-1.58714 86.62756-.87656 86.62756 0ZM85.04042 0"/>
<use data-text="L" xlink:href="#font_1_2" transform="matrix(9.963496,0,0,-9.962799,97.09229,95.13859)"/>
<use data-text="1" xlink:href="#font_3_1" transform="matrix(6.9744279,0,0,-6.97394,103.8729,96.632617)"/>
<path transform="matrix(1.00009,0,0,-1.00002,28.179093,121.33911)" stroke-width=".3985" stroke-linecap="butt" stroke-miterlimit="10" stroke-linejoin="miter" fill="none" stroke="#000000" d="M85.04042 113.38724H115.6549M139.46636 113.38724H170.08086V60.6621M170.08086 52.72513V0H127.56062M127.56062 0H85.04042"/>
<path transform="matrix(1.00009,0,0,-1.00002,28.179093,121.33911)" stroke-width=".797" stroke-linecap="butt" stroke-linejoin="bevel" fill="none" stroke="#000000" d="M115.25641 113.22784C115.25641 116.51553 116.89114 119.1807 118.90776 119.1807 120.92436 119.1807 122.5591 116.51553 122.5591 113.22784 122.5591 111.58408 121.89284 110.25157 121.07097 110.25157 120.24908 110.25157 119.58282 111.58408 119.58282 113.22784 119.58282 116.51553 121.21758 119.1807 123.23418 119.1807 125.25078 119.1807 126.88553 116.51553 126.88553 113.22784 126.88553 111.58408 126.21927 110.25157 125.39738 110.25157 124.5755 110.25157 123.90926 111.58408 123.90926 113.22784 123.90926 116.51553 125.54399 119.1807 127.5606 119.1807 129.57721 119.1807 131.21195 116.51553 131.21195 113.22784 131.21195 111.58408 130.54569 110.25157 129.72382 110.25157 128.90193 110.25157 128.23567 111.58408 128.23567 113.22784 128.23567 116.51553 129.87042 119.1807 131.88703 119.1807 133.90363 119.1807 135.53838 116.51553 135.53838 113.22784 135.53838 111.58408 134.87212 110.25157 134.05023 110.25157 133.22835 110.25157 132.56209 111.58408 132.56209 113.22784 132.56209 116.51553 134.19684 119.1807 136.21344 119.1807 138.23004 119.1807 139.86479 116.51553 139.86479 113.22784"/>
<path transform="matrix(1.00009,0,0,-1.00002,28.179093,121.33911)" d="M171.668 113.38724C171.668 114.2638 170.95742 114.97438 170.08086 114.97438 169.20429 114.97438 168.4937 114.2638 168.4937 113.38724 168.4937 112.51067 169.20429 111.80008 170.08086 111.80008 170.95742 111.80008 171.668 112.51067 171.668 113.38724ZM170.08086 113.38724"/>
<path transform="matrix(1.00009,0,0,-1.00002,28.179093,121.33911)" stroke-width=".3985" stroke-linecap="butt" stroke-miterlimit="10" stroke-linejoin="miter" fill="none" stroke="#000000" d="M171.668 113.38724C171.668 114.2638 170.95742 114.97438 170.08086 114.97438 169.20429 114.97438 168.4937 114.2638 168.4937 113.38724 168.4937 112.51067 169.20429 111.80008 170.08086 111.80008 170.95742 111.80008 171.668 112.51067 171.668 113.38724ZM170.08086 113.38724"/>
<use data-text="L" xlink:href="#font_1_2" transform="matrix(9.963496,0,0,-9.962799,150.12607,21.203103)"/>
<use data-text="2" xlink:href="#font_3_2" transform="matrix(6.9744279,0,0,-6.97394,156.90668,22.697129)"/>
<path transform="matrix(1.00009,0,0,-1.00002,28.179093,121.33911)" stroke-width=".797" stroke-linecap="butt" stroke-miterlimit="10" stroke-linejoin="miter" fill="none" stroke="#000000" d="M181.98657 60.6621H158.17514M181.98657 52.72513H158.17514"/>
<use data-text="C" xlink:href="#font_1_1" transform="matrix(9.963496,0,0,-9.962799,175.73337,66.791019)"/>
<path transform="matrix(1.00009,0,0,-1.00002,28.179093,121.33911)" d="M171.668 0C171.668 .87656 170.95742 1.58714 170.08086 1.58714 169.20429 1.58714 168.4937 .87656 168.4937 0 168.4937-.87656 169.20429-1.58714 170.08086-1.58714 170.95742-1.58714 171.668-.87656 171.668 0ZM170.08086 0"/>
<path transform="matrix(1.00009,0,0,-1.00002,28.179093,121.33911)" stroke-width=".3985" stroke-linecap="butt" stroke-miterlimit="10" stroke-linejoin="miter" fill="none" stroke="#000000" d="M171.668 0C171.668 .87656 170.95742 1.58714 170.08086 1.58714 169.20429 1.58714 168.4937 .87656 168.4937 0 168.4937-.87656 169.20429-1.58714 170.08086-1.58714 170.95742-1.58714 171.668-.87656 171.668 0ZM170.08086 0"/>
<path transform="matrix(1.00009,0,0,-1.00002,28.179093,121.33911)" stroke-width=".3985" stroke-linecap="butt" stroke-miterlimit="10" stroke-linejoin="miter" fill="none" stroke="#000000" d="M170.08086 113.38724H198.42766M198.42766 113.38724H226.77448"/>
<path transform="matrix(1.00009,0,0,-1.00002,28.179093,121.33911)" d="M228.36162 113.38724C228.36162 114.2638 227.65103 114.97438 226.77448 114.97438 225.8979 114.97438 225.18732 114.2638 225.18732 113.38724 225.18732 112.51067 225.8979 111.80008 226.77448 111.80008 227.65103 111.80008 228.36162 112.51067 228.36162 113.38724ZM226.77448 113.38724" fill="#ffffff"/>
<path transform="matrix(1.00009,0,0,-1.00002,28.179093,121.33911)" stroke-width=".3985" stroke-linecap="butt" stroke-miterlimit="10" stroke-linejoin="miter" fill="none" stroke="#000000" d="M228.36162 113.38724C228.36162 114.2638 227.65103 114.97438 226.77448 114.97438 225.8979 114.97438 225.18732 114.2638 225.18732 113.38724 225.18732 112.51067 225.8979 111.80008 226.77448 111.80008 227.65103 111.80008 228.36162 112.51067 228.36162 113.38724ZM226.77448 113.38724"/>
<path transform="matrix(1.00009,0,0,-1.00002,28.179093,121.33911)" d="" fill="#ffffff"/>
<path transform="matrix(1.00009,0,0,-1.00002,28.179093,121.33911)" stroke-width=".3985" stroke-linecap="butt" stroke-miterlimit="10" stroke-linejoin="miter" fill="none" stroke="#000000" d=""/>
<path transform="matrix(1.00009,0,0,-1.00002,28.179093,121.33911)" stroke-width=".3985" stroke-linecap="butt" stroke-miterlimit="10" stroke-linejoin="miter" fill="none" stroke="#000000" d="M170.08086 0H198.42766M198.42766 0H226.77448"/>
<path transform="matrix(1.00009,0,0,-1.00002,28.179093,121.33911)" d="M228.36162 0C228.36162 .87656 227.65103 1.58714 226.77448 1.58714 225.8979 1.58714 225.18732 .87656 225.18732 0 225.18732-.87656 225.8979-1.58714 226.77448-1.58714 227.65103-1.58714 228.36162-.87656 228.36162 0ZM226.77448 0" fill="#ffffff"/>
<path transform="matrix(1.00009,0,0,-1.00002,28.179093,121.33911)" stroke-width=".3985" stroke-linecap="butt" stroke-miterlimit="10" stroke-linejoin="miter" fill="none" stroke="#000000" d="M228.36162 0C228.36162 .87656 227.65103 1.58714 226.77448 1.58714 225.8979 1.58714 225.18732 .87656 225.18732 0 225.18732-.87656 225.8979-1.58714 226.77448-1.58714 227.65103-1.58714 228.36162-.87656 228.36162 0ZM226.77448 0"/>
<path transform="matrix(1.00009,0,0,-1.00002,28.179093,121.33911)" d="" fill="#ffffff"/>
<path transform="matrix(1.00009,0,0,-1.00002,28.179093,121.33911)" stroke-width=".3985" stroke-linecap="butt" stroke-miterlimit="10" stroke-linejoin="miter" fill="none" stroke="#000000" d=""/>
<use data-text="V" xlink:href="#font_1_4" transform="matrix(9.963496,0,0,-9.962799,246.0787,67.26603)"/>
<use data-text="o" xlink:href="#font_2_81" transform="matrix(6.9744279,0,0,-6.97394,251.89023,68.760059)"/>
<use data-text="u" xlink:href="#font_2_109" transform="matrix(6.9744279,0,0,-6.97394,255.85868,68.760059)"/>
<use data-text="t" xlink:href="#font_2_105" transform="matrix(6.9744279,0,0,-6.97394,260.25956,68.760059)"/>
</svg>
