<svg xmlns="http://www.w3.org/2000/svg" xmlns:xlink="http://www.w3.org/1999/xlink" xmlns:inkscape="http://www.inkscape.org/namespaces/inkscape" version="1.1" width="179" height="71" viewBox="0 0 179 71">
<defs>
<path id="font_1_3" d="M.6279907 .5686035C.6769867 .64660647 .71899417 .6496124 .7559967 .6516113 .7679901 .65260317 .7689972 .6696167 .7689972 .6706085 .7689972 .6786041 .7639923 .6826172 .7559967 .6826172 .7299957 .6826172 .70098879 .6796112 .673996 .6796112 .6409912 .6796112 .6069946 .6826172 .57499697 .6826172 .56900027 .6826172 .55599978 .6826172 .55599978 .66360476 .55599978 .65260317 .5649872 .6516113 .57199099 .6516113 .598999 .6496124 .6179962 .63960269 .6179962 .61860659 .6179962 .6036072 .6029968 .581604 .6029968 .5805969L.29599 .092544559 .22799683 .62161257C.22799683 .63861086 .25099183 .6516113 .29699708 .6516113 .31098939 .6516113 .32199098 .6516113 .32199098 .6716156 .32199098 .680603 .31399537 .6826172 .30799867 .6826172 .2679901 .6826172 .22499085 .6796112 .18399048 .6796112 .1659851 .6796112 .14698792 .680603 .1289978 .680603 .11099243 .680603 .09199524 .6826172 .07499695 .6826172 .067993167 .6826172 .055999757 .6826172 .055999757 .66360476 .055999757 .6516113 .06498718 .6516113 .08099365 .6516113 .13699341 .6516113 .13798523 .64260867 .14099121 .6175995L.21998596 .0005340576C.22299195-.019470215 .22698975-.022460938 .23999024-.022460938 .2559967-.022460938 .2599945-.017471314 .2679901-.004470825L.6279907 .5686035Z"/>
<path id="font_2_66" d="M.27398683 0V.035995485C.21598816 .035995485 .20599365 .035995485 .20599365 .07803345V.44140626L.05899048 .43052674V.39453126C.12199402 .39453126 .1309967 .3885193 .1309967 .33952333V.07952881C.1309967 .035995485 .12098694 .035995485 .055999757 .035995485V0C.055999757 0 .12799073 .0039978029 .16799927 .0039978029 .20298767 .0039978029 .23899842 .0029907227 .27398683 0M.21899414 .60214236C.21899414 .6341553 .19400025 .66015627 .1619873 .66015627 .12799073 .66015627 .10499573 .6321411 .10499573 .6031494 .10499573 .57115176 .12998963 .54515078 .1619873 .54515078 .19599915 .54515078 .21899414 .57315066 .21899414 .60214236Z"/>
<path id="font_2_77" d="M.58999636 0V.035995485C.5249939 .035995485 .5149994 .035995485 .5149994 .07904053V.3032837C.5149994 .3903656 .47200013 .44140626 .36499024 .44140626 .2829895 .44140626 .22999573 .39637757 .20199585 .34432984H.20098877V.44140626L.053985597 .43052674V.39453126C.12098694 .39453126 .1289978 .3875122 .1289978 .33843995V.079055789C.1289978 .035995485 .11898804 .035995485 .053985597 .035995485V0C.053985597 0 .12599182 .0039978029 .16799927 .0039978029 .20498657 .0039978029 .27398683 .0009918213 .2829895 0V.035995485C.21798706 .035995485 .20799256 .035995485 .20799256 .079055789V.25932313C.20799256 .36434938 .29100038 .4133911 .35699464 .4133911 .4269867 .4133911 .43598939 .3583374 .43598939 .3072815V.07904053C.43598939 .035995485 .42599488 .035995485 .36099244 .035995485V0C.36099244 0 .43299867 .0039978029 .47499085 .0039978029 .5119934 .0039978029 .58099368 .0009918213 .58999636 0Z"/>
<path id="font_1_4" d="M.7200012 .6586151C.72099307 .6626129 .72299197 .66760256 .72299197 .6736145 .72299197 .6826172 .71798709 .6826172 .69799807 .6826172H.27598573C.2519989 .6826172 .25099183 .6816101 .24499512 .6626129L.18998719 .4827118C.18798828 .47772218 .18699646 .47071839 .18699646 .46871949 .18699646 .46772767 .18699646 .45773316 .19898987 .45773316 .20799256 .45773316 .20999146 .46472169 .21199036 .46772767 .25 .5856476 .3019867 .6516113 .45799256 .6516113H.62098696L.06199646 .026992798C.06199646 .025985718 .057998659 .011993408 .057998659 .008987427 .057998659 0 .06498718 0 .08299255 0H.5179901C.5419922 0 .54299929 .0009918213 .548996 .019989014L.6199951 .24085999C.62098696 .24485779 .6239929 .25186158 .6239929 .25585938 .6239929 .260849 .6199951 .2668457 .61099246 .2668457 .60198977 .2668457 .6009979 .2628479 .59399417 .24186707 .5499878 .10594177 .5019989 .033996583 .33198548 .033996583H.16099549L.7200012 .6586151Z"/>
<path id="font_3_1" d="M.33499146 .63612368C.33499146 .6630554 .33299256 .6640625 .30499269 .6640625 .24099732 .6014404 .1499939 .6004486 .10899353 .6004486V.5644531C.1329956 .5644531 .19898987 .5644531 .2539978 .592453V.08203125C.2539978 .04899597 .2539978 .035995485 .1539917 .035995485H.115997318V0C.13398743 .0009918213 .25698854 .0039978029 .2939911 .0039978029 .32499696 .0039978029 .45098878 .0009918213 .47299195 0V.035995485H.43499757C.33499146 .035995485 .33499146 .04899597 .33499146 .08203125V.63612368Z"/>
<path id="font_1_1" d="M.37399293 .6056366C.3829956 .6416168 .38598634 .6516113 .46499635 .6516113 .4889984 .6516113 .49699403 .6516113 .49699403 .6706085 .49699403 .6826172 .48599244 .6826172 .48199464 .6826172 .45298768 .6826172 .3789978 .6796112 .34999085 .6796112 .31999208 .6796112 .24699402 .6826172 .21699524 .6826172 .20999146 .6826172 .19699097 .6826172 .19699097 .6626129 .19699097 .6516113 .20599365 .6516113 .22499085 .6516113 .2669983 .6516113 .2939911 .6516113 .2939911 .63261416 .2939911 .6276245 .2939911 .6256256 .2919922 .6166229L.15699768 .07795715C.147995 .040985109 .14498902 .0309906 .06599426 .0309906 .042999269 .0309906 .033996583 .0309906 .033996583 .010986328 .033996583 0 .04598999 0 .04899597 0 .07798767 0 .15098572 .0029907227 .17999268 .0029907227 .20999146 .0029907227 .28399659 0 .31399537 0 .32199098 0 .33399964 0 .33399964 .018997193 .33399964 .0309906 .32598878 .0309906 .3039856 .0309906 .28599549 .0309906 .2809906 .0309906 .26098634 .032989503 .23999024 .034988405 .23599243 .038986207 .23599243 .049987794 .23599243 .05796814 .23799134 .065963748 .23999024 .07296753L.37399293 .6056366Z"/>
<path id="font_1_2" d="M.375 .6136017C.3809967 .63760378 .38398744 .6476135 .40299989 .65060427 .4119873 .6516113 .44400025 .6516113 .46398927 .6516113 .5349884 .6516113 .6459961 .6516113 .6459961 .5525818 .6459961 .51856997 .6299896 .44955445 .59098818 .41055299 .5649872 .38453675 .5119934 .35253907 .42199708 .35253907H.30999757L.375 .6136017M.5189972 .33953858C.6199951 .3615265 .7389984 .43154908 .7389984 .5325775 .7389984 .61860659 .6489868 .6826172 .5179901 .6826172H.23298645C.21299744 .6826172 .20399475 .6826172 .20399475 .6626129 .20399475 .6516113 .21299744 .6516113 .23199463 .6516113 .23399353 .6516113 .25299073 .6516113 .269989 .6496124 .28799439 .6476135 .29699708 .64660647 .29699708 .63360598 .29699708 .62960818 .29599 .6266022 .29299928 .6145935L.15899658 .07752991C.14898682 .038528444 .14698792 .030532837 .067993167 .030532837 .049987794 .030532837 .040985109 .030532837 .040985109 .010528564 .040985109-.00047302247 .052993776-.00047302247 .054992677-.00047302247 .08299255-.00047302247 .15299988 .002532959 .18099976 .002532959 .20899964 .002532959 .27999879-.00047302247 .30799867-.00047302247 .31599427-.00047302247 .32798768-.00047302247 .32798768 .01953125 .32798768 .030532837 .31900025 .030532837 .2999878 .030532837 .2630005 .030532837 .23498535 .030532837 .23498535 .048538209 .23498535 .054534913 .23699951 .059524537 .23799134 .0655365L.3039856 .3305359H.4229889C.5139923 .3305359 .5319977 .27453614 .5319977 .23953247 .5319977 .22453308 .5239868 .19352722 .5179901 .17053223 .5109863 .14253235 .5019989 .105529788 .5019989 .08552551 .5019989-.022460938 .621994-.022460938 .6349945-.022460938 .7200012-.022460938 .7549896 .07853699 .7549896 .0925293 .7549896 .104537967 .74398806 .104537967 .7429962 .104537967 .73399356 .104537967 .7319946 .09753418 .7299957 .090530399 .7049866 .016525269 .6619873-.00047302247 .6389923-.00047302247 .60598757-.00047302247 .598999 .021530152 .598999 .060531618 .598999 .091537479 .6049957 .14253235 .60899356 .17453003 .61099246 .1885376 .61299136 .20753479 .61299136 .2215271 .61299136 .2985382 .54599 .3295288 .5189972 .33953858Z"/>
<path id="font_2_81" d="M.5289917 .21325684C.5289917 .3382721 .42199708 .44628907 .28399659 .44628907 .1459961 .44628907 .038986207 .3382721 .038986207 .21325684 .038986207 .0892334 .14898682-.009765625 .28399659-.009765625 .4189911-.009765625 .5289917 .0892334 .5289917 .21325684M.43798829 .22225952C.43798829 .17424011 .43499757 .12124634 .4059906 .08023071 .3789978 .042236329 .33299256 .022232056 .28399659 .022232056 .24699402 .022232056 .19299317 .034225465 .1599884 .083236698 .1329956 .12423706 .12998963 .17625427 .12998963 .22225952 .12998963 .2652588 .1309967 .32426454 .1659851 .36727906 .19099427 .39627076 .23298645 .41827394 .28399659 .41827394 .34298707 .41827394 .3849945 .39027406 .40699769 .3592682 .43499757 .32026673 .43798829 .27026368 .43798829 .22225952Z"/>
<path id="font_2_109" d="M.58999636 0V.035995485C.522995 .035995485 .5149994 .042999269 .5149994 .092056278V.44140626L.36099244 .43052674V.39453126C.42799378 .39439393 .43598939 .3874359 .43598939 .33872987V.16749573C.43598939 .079330448 .3789978 .018234253 .30299378 .018234253 .21199036 .018234253 .20799256 .061309816 .20799256 .11239624V.44140626L.053985597 .43052674V.39453126C.1289978 .39453126 .1289978 .39154054 .1289978 .30273438V.15246582C.1289978 .083343509 .1289978-.009765625 .29599-.009765625 .31799317-.009765625 .3909912-.009765625 .43899537 .07432556H.43998719V-.009765625L.58999636 0Z"/>
<path id="font_2_105" d="M.375 .12606812V.1809845H.34098817V.12705994C.34098817 .059173585 .30899049 .022232056 .269989 .022232056 .20098877 .022232056 .20098877 .10609436 .20098877 .124069217V.39465333H.35699464V.43066407H.20098877V.6142578H.16699219C.1659851 .5244446 .125 .42565919 .0289917 .4226532V.39465333H.12199402V.1250763C.12199402 .01322937 .20599365-.009765625 .2619934-.009765625 .32899476-.010009766 .375 .04699707 .375 .12599182V.12606812Z"/>
</defs>
<path transform="matrix(1.00005,0,0,-1.00009,28.177605,67.94804)" stroke-width=".3985" stroke-linecap="butt" stroke-miterlimit="10" stroke-linejoin="miter" fill="none" stroke="#000000" d="M0 0"/>
<path transform="matrix(1.00005,0,0,-1.00009,28.177605,67.94804)" stroke-width=".3985" stroke-linecap="butt" stroke-miterlimit="10" stroke-linejoin="miter" fill="none" stroke="#000000" d="M0 0V16.44109M0 40.25252V56.69362H26.64601M58.3944 56.69362H85.04042L85.0404 44.221M85.0404 12.47261 85.04042 0H42.5202M42.5202 0H0"/>
<path transform="matrix(1.00005,0,0,-1.00009,28.177605,67.94804)" stroke-width=".797" stroke-linecap="butt" stroke-miterlimit="10" stroke-linejoin="miter" fill="none" stroke="#000000" d="M-11.90572 28.3468C-11.90572 21.77138-6.57541 16.44109 0 16.44109 6.57541 16.44109 11.90572 21.77138 11.90572 28.3468 11.90572 34.92223 6.57541 40.25252 0 40.25252-6.57541 40.25252-11.90572 34.92223-11.90572 28.3468ZM0 28.3468"/>
<path transform="matrix(1.00005,0,0,-1.00009,28.177605,67.94804)" stroke-width=".797" stroke-linecap="butt" stroke-miterlimit="10" stroke-linejoin="miter" fill="none" stroke="#000000" d="M5.95285 28.3468C4.98253 26.82289 4.0539 25.37038 2.97643 25.37038 1.89896 25.37038 .97032 26.82288 0 28.3468-.9703 29.87071-1.89894 31.32323-2.97643 31.32323-4.05388 31.32323-4.98251 29.87073-5.95285 28.3468"/>
<use data-text="V" xlink:href="#font_1_3" transform="matrix(9.963098,0,0,-9.963496,.50722506,41.745679)"/>
<use data-text="i" xlink:href="#font_2_66" transform="matrix(6.9741489,0,0,-6.9744279,6.318512,43.23981)"/>
<use data-text="n" xlink:href="#font_2_77" transform="matrix(6.9741489,0,0,-6.9744279,8.571167,43.23981)"/>
<path transform="matrix(1.00005,0,0,-1.00009,28.177605,67.94804)" stroke-width=".797" stroke-linecap="butt" stroke-miterlimit="10" stroke-linejoin="miter" fill="none" stroke="#000000" d="M26.64601 62.64647H58.39439V50.74077H26.64601Z"/>
<use data-text="Z" xlink:href="#font_1_4" transform="matrix(9.963098,0,0,-9.963496,65.064449,27.77742)"/>
<use data-text="1" xlink:href="#font_3_1" transform="matrix(6.9741489,0,0,-6.9744279,71.86579,29.271553)"/>
<path transform="matrix(1.00005,0,0,-1.00009,28.177605,67.94804)" d="M69.98117 56.69362V54.70937L74.19772 56.69362 69.98117 58.67787Z"/>
<path transform="matrix(1.00005,0,0,-1.00009,28.177605,67.94804)" stroke-width=".3985" stroke-linecap="butt" stroke-miterlimit="10" stroke-linejoin="miter" fill="none" stroke="#000000" d="M69.98117 56.69362V54.70937L74.19772 56.69362 69.98117 58.67787Z"/>
<use data-text="I" xlink:href="#font_1_1" transform="matrix(9.963098,0,0,-9.963496,97.31806,7.7296144)"/>
<path transform="matrix(1.00005,0,0,-1.00009,28.177605,67.94804)" stroke-width=".797" stroke-linecap="butt" stroke-linejoin="bevel" fill="none" stroke="#000000" d="M85.0404 44.6195 90.99326 41.54208 79.08755 36.18428 90.99326 30.82646 79.08755 25.46864 90.99326 20.11082 79.08755 14.753 85.0404 12.0741"/>
<path transform="matrix(1.00005,0,0,-1.00009,28.177605,67.94804)" d="M86.62756 56.69362C86.62756 57.57018 85.91698 58.28076 85.04042 58.28076 84.16386 58.28076 83.45328 57.57018 83.45328 56.69362 83.45328 55.81705 84.16386 55.10646 85.04042 55.10646 85.91698 55.10646 86.62756 55.81705 86.62756 56.69362ZM85.04042 56.69362"/>
<path transform="matrix(1.00005,0,0,-1.00009,28.177605,67.94804)" stroke-width=".3985" stroke-linecap="butt" stroke-miterlimit="10" stroke-linejoin="miter" fill="none" stroke="#000000" d="M86.62756 56.69362C86.62756 57.57018 85.91698 58.28076 85.04042 58.28076 84.16386 58.28076 83.45328 57.57018 83.45328 56.69362 83.45328 55.81705 84.16386 55.10646 85.04042 55.10646 85.91698 55.10646 86.62756 55.81705 86.62756 56.69362ZM85.04042 56.69362"/>
<use data-text="R" xlink:href="#font_1_2" transform="matrix(9.963098,0,0,-9.963496,97.42106,41.745679)"/>
<path transform="matrix(1.00005,0,0,-1.00009,28.177605,67.94804)" stroke-width=".3985" stroke-linecap="butt" stroke-miterlimit="10" stroke-linejoin="miter" fill="none" stroke="#000000" d="M85.04042 56.69362H113.38722M113.38722 56.69362H141.73404"/>
<path transform="matrix(1.00005,0,0,-1.00009,28.177605,67.94804)" d="M143.32118 56.69362C143.32118 57.57018 142.6106 58.28076 141.73404 58.28076 140.85749 58.28076 140.1469 57.57018 140.1469 56.69362 140.1469 55.81705 140.85749 55.10646 141.73404 55.10646 142.6106 55.10646 143.32118 55.81705 143.32118 56.69362ZM141.73404 56.69362" fill="#ffffff"/>
<path transform="matrix(1.00005,0,0,-1.00009,28.177605,67.94804)" stroke-width=".3985" stroke-linecap="butt" stroke-miterlimit="10" stroke-linejoin="miter" fill="none" stroke="#000000" d="M143.32118 56.69362C143.32118 57.57018 142.6106 58.28076 141.73404 58.28076 140.85749 58.28076 140.1469 57.57018 140.1469 56.69362 140.1469 55.81705 140.85749 55.10646 141.73404 55.10646 142.6106 55.10646 143.32118 55.81705 143.32118 56.69362ZM141.73404 56.69362"/>
<path transform="matrix(1.00005,0,0,-1.00009,28.177605,67.94804)" d="" fill="#ffffff"/>
<path transform="matrix(1.00005,0,0,-1.00009,28.177605,67.94804)" stroke-width=".3985" stroke-linecap="butt" stroke-miterlimit="10" stroke-linejoin="miter" fill="none" stroke="#000000" d=""/>
<path transform="matrix(1.00005,0,0,-1.00009,28.177605,67.94804)" stroke-width=".3985" stroke-linecap="butt" stroke-miterlimit="10" stroke-linejoin="miter" fill="none" stroke="#000000" d="M85.04042 0H113.38722M113.38722 0H141.73404"/>
<path transform="matrix(1.00005,0,0,-1.00009,28.177605,67.94804)" d="M143.32118 0C143.32118 .87656 142.6106 1.58714 141.73404 1.58714 140.85749 1.58714 140.1469 .87656 140.1469 0 140.1469-.87656 140.85749-1.58714 141.73404-1.58714 142.6106-1.58714 143.32118-.87656 143.32118 0ZM141.73404 0" fill="#ffffff"/>
<path transform="matrix(1.00005,0,0,-1.00009,28.177605,67.94804)" stroke-width=".3985" stroke-linecap="butt" stroke-miterlimit="10" stroke-linejoin="miter" fill="none" stroke="#000000" d="M143.32118 0C143.32118 .87656 142.6106 1.58714 141.73404 1.58714 140.85749 1.58714 140.1469 .87656 140.1469 0 140.1469-.87656 140.85749-1.58714 141.73404-1.58714 142.6106-1.58714 143.32118-.87656 143.32118 0ZM141.73404 0"/>
<path transform="matrix(1.00005,0,0,-1.00009,28.177605,67.94804)" d="" fill="#ffffff"/>
<path transform="matrix(1.00005,0,0,-1.00009,28.177605,67.94804)" stroke-width=".3985" stroke-linecap="butt" stroke-miterlimit="10" stroke-linejoin="miter" fill="none" stroke="#000000" d=""/>
<use data-text="V" xlink:href="#font_1_3" transform="matrix(9.963098,0,0,-9.963496,161.02423,42.22072)"/>
<use data-text="o" xlink:href="#font_2_81" transform="matrix(6.9741489,0,0,-6.9744279,166.83553,43.71485)"/>
<use data-text="u" xlink:href="#font_2_109" transform="matrix(6.9741489,0,0,-6.9744279,170.80382,43.71485)"/>
<use data-text="t" xlink:href="#font_2_105" transform="matrix(6.9741489,0,0,-6.9744279,175.2045,43.71485)"/>
</svg>
