<svg xmlns="http://www.w3.org/2000/svg" xmlns:xlink="http://www.w3.org/1999/xlink" xmlns:inkscape="http://www.inkscape.org/namespaces/inkscape" version="1.1" width="93" height="175" viewBox="0 0 93 175">
<defs>
<path id="font_1_1" d="M.6279907 .5686035C.6769867 .64660647 .71899417 .6496124 .7559967 .6516113 .7679901 .65260317 .7689972 .6696167 .7689972 .6706085 .7689972 .6786041 .7639923 .6826172 .7559967 .6826172 .7299957 .6826172 .70098879 .6796112 .673996 .6796112 .6409912 .6796112 .6069946 .6826172 .57499697 .6826172 .56900027 .6826172 .55599978 .6826172 .55599978 .66360476 .55599978 .65260317 .5649872 .6516113 .57199099 .6516113 .598999 .6496124 .6179962 .63960269 .6179962 .61860659 .6179962 .6036072 .6029968 .581604 .6029968 .5805969L.29599 .092544559 .22799683 .62161257C.22799683 .63861086 .25099183 .6516113 .29699708 .6516113 .31098939 .6516113 .32199098 .6516113 .32199098 .6716156 .32199098 .680603 .31399537 .6826172 .30799867 .6826172 .2679901 .6826172 .22499085 .6796112 .18399048 .6796112 .1659851 .6796112 .14698792 .680603 .1289978 .680603 .11099243 .680603 .09199524 .6826172 .07499695 .6826172 .067993167 .6826172 .055999757 .6826172 .055999757 .66360476 .055999757 .6516113 .06498718 .6516113 .08099365 .6516113 .13699341 .6516113 .13798523 .64260867 .14099121 .6175995L.21998596 .0005340576C.22299195-.019470215 .22698975-.022460938 .23999024-.022460938 .2559967-.022460938 .2599945-.017471314 .2679901-.004470825L.6279907 .5686035Z"/>
<path id="font_2_66" d="M.27398683 0V.035995485C.21598816 .035995485 .20599365 .035995485 .20599365 .07803345V.44140626L.05899048 .43052674V.39453126C.12199402 .39453126 .1309967 .3885193 .1309967 .33952333V.07952881C.1309967 .035995485 .12098694 .035995485 .055999757 .035995485V0C.055999757 0 .12799073 .0039978029 .16799927 .0039978029 .20298767 .0039978029 .23899842 .0029907227 .27398683 0M.21899414 .60214236C.21899414 .6341553 .19400025 .66015627 .1619873 .66015627 .12799073 .66015627 .10499573 .6321411 .10499573 .6031494 .10499573 .57115176 .12998963 .54515078 .1619873 .54515078 .19599915 .54515078 .21899414 .57315066 .21899414 .60214236Z"/>
<path id="font_2_77" d="M.58999636 0V.035995485C.5249939 .035995485 .5149994 .035995485 .5149994 .07904053V.3032837C.5149994 .3903656 .47200013 .44140626 .36499024 .44140626 .2829895 .44140626 .22999573 .39637757 .20199585 .34432984H.20098877V.44140626L.053985597 .43052674V.39453126C.12098694 .39453126 .1289978 .3875122 .1289978 .33843995V.079055789C.1289978 .035995485 .11898804 .035995485 .053985597 .035995485V0C.053985597 0 .12599182 .0039978029 .16799927 .0039978029 .20498657 .0039978029 .27398683 .0009918213 .2829895 0V.035995485C.21798706 .035995485 .20799256 .035995485 .20799256 .079055789V.25932313C.20799256 .36434938 .29100038 .4133911 .35699464 .4133911 .4269867 .4133911 .43598939 .3583374 .43598939 .3072815V.07904053C.43598939 .035995485 .42599488 .035995485 .36099244 .035995485V0C.36099244 0 .43299867 .0039978029 .47499085 .0039978029 .5119934 .0039978029 .58099368 .0009918213 .58999636 0Z"/>
<path id="font_3_1" d="M.2939911 .16503906V.07800293C.2939911 .041992189 .2919922 .0309906 .21798706 .0309906H.19699097V0C.23799134 .0029907227 .2899933 .0029907227 .33198548 .0029907227 .37399293 .0029907227 .4269867 .0029907227 .46798707 0V.0309906H.44699098C.37298585 .0309906 .37098695 .041992189 .37098695 .07800293V.16503906H.47099305V.19602967H.37098695V.65075686C.37098695 .67074587 .37098695 .6767578 .35499574 .6767578 .34599305 .6767578 .34298707 .6767578 .33499146 .66474917L.027999878 .19602967V.16503906H.2939911M.2999878 .19602967H.055999757L.2999878 .5688019V.19602967Z"/>
<path id="font_3_3" d="M.10998535 .34429933V.076034549C.10998535 .0309906 .09899902 .0309906 .03199768 .0309906V0C.066986087 .0009918213 .117996219 .0029907227 .14498902 .0029907227 .17098999 .0029907227 .22299195 .0009918213 .25698854 0V.0309906C.18998719 .0309906 .1789856 .0309906 .1789856 .076034549V.2602234C.1789856 .36431886 .25 .42037965 .31399537 .42037965 .3769989 .42037965 .3880005 .36631776 .3880005 .30926515V.076034549C.3880005 .0309906 .3769989 .0309906 .30999757 .0309906V0C.34498597 .0009918213 .3959961 .0029907227 .4229889 .0029907227 .44898988 .0029907227 .5009918 .0009918213 .5349884 0V.0309906C.46798707 .0309906 .45700074 .0309906 .45700074 .076034549V.2602234C.45700074 .36431886 .5279999 .42037965 .59199526 .42037965 .6549988 .42037965 .66600039 .36631776 .66600039 .30926515V.076034549C.66600039 .0309906 .6549988 .0309906 .58799746 .0309906V0C.6230011 .0009918213 .673996 .0029907227 .70098879 .0029907227 .72698977 .0029907227 .7789917 .0009918213 .8129883 0V.0309906C.7609863 .0309906 .73599246 .0309906 .7350006 .061019899V.25221253C.7350006 .3383026 .7350006 .36932374 .70399478 .405365 .6899872 .42237855 .6569977 .4423828 .598999 .4423828 .5149994 .4423828 .47099305 .38233949 .45399476 .34429933 .43998719 .43138124 .3659973 .4423828 .32099916 .4423828 .24798584 .4423828 .20098877 .39935304 .17298889 .33729554V.4423828L.03199768 .43138124V.40037538C.101989749 .4003601 .10998535 .39335633 .10998535 .34429933Z"/>
<path id="font_3_2" d="M.61299136 .6046448C.61299136 .640625 .61499026 .6516113 .69200137 .6516113H.71598818V.6826172C.68099978 .6796112 .6069946 .6796112 .56900027 .6796112 .5309906 .6796112 .45599366 .6796112 .42099 .6826172V.6516113H.44499208C.5219879 .6516113 .5239868 .640625 .5239868 .6046448V.37083436H.22499085V.6046448C.22499085 .640625 .22698975 .6516113 .3039856 .6516113H.32798768V.6826172C.29299928 .6796112 .21899414 .6796112 .18099976 .6796112 .14299011 .6796112 .067993167 .6796112 .032989503 .6826172V.6516113H.056991579C.13398743 .6516113 .13598633 .640625 .13598633 .6046448V.07797241C.13598633 .041992189 .13398743 .0309906 .056991579 .0309906H.032989503V0C.067993167 .0029907227 .14199829 .0029907227 .17999268 .0029907227 .21798706 .0029907227 .29299928 .0029907227 .32798768 0V.0309906H.3039856C.22698975 .0309906 .22499085 .041992189 .22499085 .07797241V.33984376H.5239868V.07797241C.5239868 .041992189 .5219879 .0309906 .44499208 .0309906H.42099V0C.45599366 .0029907227 .5299988 .0029907227 .56799319 .0029907227 .60598757 .0029907227 .68099978 .0029907227 .71598818 0V.0309906H.69200137C.61499026 .0309906 .61299136 .041992189 .61299136 .07797241V.6046448Z"/>
</defs>
<path transform="matrix(1.00005,0,0,-1.00003,28.177605,173.46973)" stroke-width=".3985" stroke-linecap="butt" stroke-miterlimit="10" stroke-linejoin="miter" fill="none" stroke="#000000" d="M0 0"/>
<path transform="matrix(1.00005,0,0,-1.00003,28.177605,173.46973)" stroke-width=".3985" stroke-linecap="butt" stroke-miterlimit="10" stroke-linejoin="miter" fill="none" stroke="#000000" d="M0 0V73.1347M0 96.94614V170.08086H28.3468M28.3468 170.08086H56.69362V153.63976M56.69362 129.82833V113.38724"/>
<path transform="matrix(1.00005,0,0,-1.00003,28.177605,173.46973)" stroke-width=".797" stroke-linecap="butt" stroke-miterlimit="10" stroke-linejoin="miter" fill="none" stroke="#000000" d="M-11.90572 85.04042C-11.90572 78.465-6.57541 73.1347 0 73.1347 6.57541 73.1347 11.90572 78.465 11.90572 85.04042 11.90572 91.61584 6.57541 96.94614 0 96.94614-6.57541 96.94614-11.90572 91.61584-11.90572 85.04042ZM0 85.04042"/>
<path transform="matrix(1.00005,0,0,-1.00003,28.177605,173.46973)" stroke-width=".797" stroke-linecap="butt" stroke-miterlimit="10" stroke-linejoin="miter" fill="none" stroke="#000000" d="M5.95285 85.04042C4.98253 83.51651 4.0539 82.064 2.97643 82.064 1.89896 82.064 .97032 83.5165 0 85.04042-.9703 86.56433-1.89894 88.01685-2.97643 88.01685-4.05388 88.01685-4.98251 86.56435-5.95285 85.04042"/>
<use data-text="V" xlink:href="#font_1_1" transform="matrix(9.963098,0,0,-9.962899,.50722506,90.57424)"/>
<use data-text="i" xlink:href="#font_2_66" transform="matrix(6.9741489,0,0,-6.9740097,6.318512,92.06928)"/>
<use data-text="n" xlink:href="#font_2_77" transform="matrix(6.9741489,0,0,-6.9740097,8.571167,92.06928)"/>
<path transform="matrix(1.00005,0,0,-1.00003,28.177605,173.46973)" d="M58.28076 170.08086C58.28076 170.95742 57.57018 171.668 56.69362 171.668 55.81705 171.668 55.10646 170.95742 55.10646 170.08086 55.10646 169.20429 55.81705 168.4937 56.69362 168.4937 57.57018 168.4937 58.28076 169.20429 58.28076 170.08086ZM56.69362 170.08086"/>
<path transform="matrix(1.00005,0,0,-1.00003,28.177605,173.46973)" stroke-width=".3985" stroke-linecap="butt" stroke-miterlimit="10" stroke-linejoin="miter" fill="none" stroke="#000000" d="M58.28076 170.08086C58.28076 170.95742 57.57018 171.668 56.69362 171.668 55.81705 171.668 55.10646 170.95742 55.10646 170.08086 55.10646 169.20429 55.81705 168.4937 56.69362 168.4937 57.57018 168.4937 58.28076 169.20429 58.28076 170.08086ZM56.69362 170.08086"/>
<path transform="matrix(1.00005,0,0,-1.00003,28.177605,173.46973)" stroke-width=".797" stroke-linecap="butt" stroke-linejoin="bevel" fill="none" stroke="#000000" d="M56.53423 154.03827C59.82191 154.03827 62.48708 152.40352 62.48708 150.38692 62.48708 148.37032 59.82191 146.73557 56.53423 146.73557 54.89046 146.73557 53.55795 147.40183 53.55795 148.22371 53.55795 149.04558 54.89046 149.71184 56.53423 149.71184 59.82191 149.71184 62.48708 148.0771 62.48708 146.0605 62.48708 144.04389 59.82191 142.40915 56.53423 142.40915 54.89046 142.40915 53.55795 143.07541 53.55795 143.89728 53.55795 144.71916 54.89046 145.38542 56.53423 145.38542 59.82191 145.38542 62.48708 143.75067 62.48708 141.73407 62.48708 139.71747 59.82191 138.08272 56.53423 138.08272 54.89046 138.08272 53.55795 138.74898 53.55795 139.57086 53.55795 140.39275 54.89046 141.05899 56.53423 141.05899 59.82191 141.05899 62.48708 139.42426 62.48708 137.40766 62.48708 135.39105 59.82191 133.7563 56.53423 133.7563 54.89046 133.7563 53.55795 134.42256 53.55795 135.24445 53.55795 136.06632 54.89046 136.73258 56.53423 136.73258 59.82191 136.73258 62.48708 135.09783 62.48708 133.08123 62.48708 131.06462 59.82191 129.42989 56.53423 129.42989"/>
<use data-text="4" xlink:href="#font_3_1" transform="matrix(9.963098,0,0,-9.962899,57.572076,33.878526)"/>
<use data-text="m" xlink:href="#font_3_3" transform="matrix(9.963098,0,0,-9.962899,64.207508,33.878526)"/>
<use data-text="H" xlink:href="#font_3_2" transform="matrix(9.963098,0,0,-9.962899,72.50676,33.878526)"/>
</svg>
