<svg xmlns="http://www.w3.org/2000/svg" xmlns:xlink="http://www.w3.org/1999/xlink" xmlns:inkscape="http://www.inkscape.org/namespaces/inkscape" version="1.1" width="227" height="91" viewBox="0 0 227 91">
<defs>
<path id="font_1_4" d="M.1269989 .07699585 .23298645 .18003845C.3889923 .31811524 .44898988 .3721466 .44898988 .47216798 .44898988 .5860901 .35899354 .6660156 .23699951 .6660156 .12399292 .6660156 .049987794 .57411196 .049987794 .48516847 .049987794 .4291687 .099990848 .4291687 .102996829 .4291687 .11999512 .4291687 .15499878 .44117738 .15499878 .48217774 .15499878 .5081787 .13699341 .5341797 .101989749 .5341797 .09399414 .5341797 .09199524 .5341797 .08898926 .5331726 .11199951 .59806826 .1659851 .63500979 .22399903 .63500979 .31498719 .63500979 .35798646 .5541382 .35798646 .47216798 .35798646 .39215089 .30799867 .31311036 .25299073 .25108338L.06098938 .036987306C.049987794 .025985718 .049987794 .023986817 .049987794 0H.42099L.44898988 .17404175H.42399598C.4189911 .14402771 .4119873 .1000061 .4019928 .084991458 .394989 .07699585 .32899476 .07699585 .30699159 .07699585H.1269989Z"/>
<path id="font_1_2" d="M.45999146 .31976319C.45999146 .39982606 .45498658 .47988893 .41999818 .5539398 .37399293 .65000918 .2919922 .6660156 .25 .6660156 .18998719 .6660156 .116989139 .64001467 .07598877 .54693606 .04399109 .47789 .038986207 .39982606 .038986207 .31976319 .038986207 .24472046 .042999269 .15464783 .083999637 .07859802 .1269989-.0024719239 .19999695-.022460938 .24899292-.022460938 .30299378-.022460938 .3789978-.0014648438 .4229889 .09359741 .45498658 .16265869 .45999146 .2407074 .45999146 .31976319M.24899292-.00047302247C.20999146-.00047302247 .15098572 .024551392 .1329956 .12062073 .12199402 .18066406 .12199402 .2727356 .12199402 .3317871 .12199402 .39582826 .12199402 .46188355 .12998963 .5159149 .14898682 .63500979 .22399903 .64401248 .24899292 .64401248 .28199769 .64401248 .34799195 .6259918 .36698915 .52693179 .3769989 .47088624 .3769989 .39482118 .3769989 .3317871 .3769989 .25672914 .3769989 .18867493 .3659973 .12461853 .35099793 .029556275 .2939911-.00047302247 .24899292-.00047302247Z"/>
<path id="font_1_9" d="M.10598755 .07595825C.10598755 .0309906 .09498596 .0309906 .027999878 .0309906V0C.06098938 .0009918213 .10798645 .0029907227 .13699341 .0029907227 .16699219 .0029907227 .20698548 .0019989014 .24699402 0V.0309906C.17999268 .0309906 .16899109 .0309906 .16899109 .07595825V.17886353L.23298645 .23381043C.30999757 .12789917 .35198976 .07196045 .35198976 .053970338 .35198976 .034988405 .33499146 .0309906 .31599427 .0309906V0C.34399415 .0009918213 .40299989 .0029907227 .42399598 .0029907227 .45298768 .0029907227 .48199464 .0019989014 .5109863 0V.0309906C.47399903 .0309906 .45199586 .0309906 .4139862 .0839386L.2869873 .26278688C.28599549 .26478578 .2809906 .2707672 .2809906 .2737732 .2809906 .277771 .35198976 .33770753 .3619995 .34570313 .4249878 .39666749 .46699525 .39865113 .48799134 .3996582V.43066407C.45899964 .42765809 .44599916 .42765809 .41799928 .42765809 .38198854 .42765809 .31999208 .42965699 .30599977 .43066407V.3996582C.32499696 .39865113 .33499146 .3876648 .33499146 .37467958 .33499146 .3547058 .32099916 .3427124 .31298829 .33570863L.17199707 .21382141V.69433596L.027999878 .68333438V.6523285C.09799194 .6523285 .10598755 .64530947 .10598755 .5961609V.07595825Z"/>
<path id="font_1_1" d="M.6769867 .16200257H.6519928C.6469879 .13600159 .6429901 .11299133 .6339874 .08898926 .6289978 .07299805 .6259918 .06498718 .56799319 .06498718H.48799134C.5009918 .1210022 .5319977 .16900635 .57699587 .23501587 .6239929 .306015 .6649933 .37503053 .6649933 .45404054 .6649933 .59306338 .5299988 .7050781 .36099244 .7050781 .18899536 .7050781 .055999757 .5910492 .055999757 .45404054 .055999757 .37503053 .09700012 .306015 .14399719 .23501587 .18798828 .16900635 .21998596 .1210022 .23298645 .06498718H.15299988C.09498596 .06498718 .09199524 .07299805 .08699036 .08799744 .07899475 .11099243 .07398987 .13700867 .068984989 .16200257H.04399109L.07699585 0H.23699951C.25898744 0 .2619934 0 .2619934 .020996094 .2619934 .09098816 .23098755 .17900086 .20799256 .24301148 .18699646 .3010254 .15899658 .3800354 .15899658 .45503236 .15899658 .6150665 .2689972 .68307498 .3600006 .68307498 .45599366 .68307498 .56199648 .61105349 .56199648 .45503236 .56199648 .3800354 .5349884 .3040161 .5059967 .22201538 .4909973 .18000794 .45899964 .08999634 .45899964 .020996094 .45899964 0 .46199037 0 .4850006 0H.6439972L.6769867 .16200257Z"/>
<path id="font_1_5" d="M.44898988 .20022583C.44898988 .3193512 .36698915 .41944886 .25898744 .41944886 .21099854 .41944886 .16799927 .40345765 .13198853 .36842347V.5637665C.1519928 .5577698 .18499756 .55078127 .21699524 .55078127 .33999635 .55078127 .4099884 .6417694 .4099884 .6547699 .4099884 .6607666 .40699769 .6657715 .3999939 .6657715 .39898683 .6657715 .39698792 .6657715 .3919983 .66278079 .37199403 .6537781 .32299806 .6337738 .2559967 .6337738 .21598816 .6337738 .16999817 .6407776 .12298584 .6617737 .114990238 .66477969 .11299133 .66477969 .11099243 .66477969 .100997928 .66477969 .100997928 .6567688 .100997928 .6407776V.34439088C.100997928 .32637025 .100997928 .31835938 .114990238 .31835938 .12199402 .31835938 .12399292 .32136537 .12799073 .32736207 .13899231 .3433838 .17599488 .39746095 .25698854 .39746095 .30899049 .39746095 .33399964 .35139466 .34199525 .33337403 .35798646 .29632569 .3600006 .25727845 .3600006 .20722962 .3600006 .17222595 .3600006 .11222839 .33599855 .07035828 .31199647 .031463624 .2749939 .0055389406 .22898865 .0055389406 .1559906 .0055389406 .09899902 .058380128 .08198547 .11723328 .084991458 .1162262 .08799744 .115234378 .09899902 .115234378 .13198853 .115234378 .14898682 .14022827 .14898682 .16423035 .14898682 .18823242 .13198853 .21322632 .09899902 .21322632 .084991458 .21322632 .049987794 .20622254 .049987794 .16023255 .049987794 .07434082 .11898804-.022460938 .23098755-.022460938 .34700013-.022460938 .44898988 .073349 .44898988 .20022583Z"/>
<path id="font_2_402" d="M.5339966 .00024414063V.03126526C.46299745 .03126526 .45599366 .038253786 .45599366 .089279178V.44140626L.30799867 .43040467V.3993988C.3789978 .3993988 .38598634 .39239503 .38598634 .3413849V.16731262C.38598634 .07926941 .33999635 .011245728 .2659912 .011245728 .18299866 .011245728 .17999268 .059265138 .17999268 .11128235V.44140626L.03199768 .43040467V.3993988C.102996829 .3993988 .10998535 .39239503 .10998535 .3413849V-.115982059C.10998535-.16308594 .100997928-.16308594 .03199768-.16308594V-.1940918L.14498902-.19110108 .2579956-.1940918V-.16308594C.18899536-.16308594 .17999268-.16308594 .17999268-.115982059V.002243042C.19499207-.003753662 .22299195-.0107421879 .26098634-.0107421879 .31599427-.0107421879 .3600006 .01625061 .3880005 .07527161H.3889923V-.0107421879L.5339966 .00024414063Z"/>
<path id="font_1_7" d="M.58200076 .6796112H.032989503V.64860537H.056991579C.13398743 .64860537 .13598633 .63760378 .13598633 .601593V.07791138C.13598633 .04197693 .13398743 .0309906 .056991579 .0309906H.032989503V0C.067993167 .0029907227 .1459961 .0029907227 .18499756 .0029907227 .22599793 .0029907227 .31698609 .0029907227 .35299684 0V.0309906H.31999208C.22499085 .0309906 .22499085 .04397583 .22499085 .0789032V.3244629H.31098939C.40699769 .3244629 .4169922 .29252626 .4169922 .20767212H.44198609V.47251893H.4169922C.4169922 .3884735 .40699769 .35546876 .31098939 .35546876H.22499085V.6085968C.22499085 .64160159 .22698975 .64860537 .27398683 .64860537H.3939972C.5439911 .64860537 .56900027 .5925751 .58499148 .45451356H.6100006L.58200076 .6796112Z"/>
<path id="font_2_117" d="M.73799136 .6516113V.6826172C.70700076 .680603 .6669922 .6796112 .6399994 .6796112L.5249939 .6826172V.6516113C.56599429 .6516113 .58200076 .63261416 .58200076 .6126251 .58200076 .6016388 .57598879 .5886383 .57199099 .5826416L.40699769 .31481935 .22599793 .6096344C.21899414 .6196289 .21899414 .6216278 .21899414 .62661746 .21899414 .6476135 .24398804 .6516113 .2889862 .6516113V.6826172C.25299073 .6796112 .17999268 .6796112 .14099121 .6796112L.010986328 .6826172V.6516113H.0289917C.09700012 .6516113 .10499573 .64060977 .12098694 .614624L.33099366 .2728424V.07795715C.33099366 .041992189 .32899476 .0309906 .2519989 .0309906H.22799683V0C.2639923 .0029907227 .33499146 .0029907227 .37399293 .0029907227 .41299439 .0029907227 .48399354 .0029907227 .519989 0V.0309906H.49699403C.41999818 .0309906 .4169922 .040985109 .4169922 .079956058V.2728424L.6100006 .5866394C.6469879 .6476135 .70599368 .6516113 .73799136 .6516113Z"/>
<path id="font_1_6" d="M.16299439 .4569702C.116989139 .486969 .11299133 .52098086 .11299133 .5379791 .11299133 .598999 .17799378 .64100649 .24899292 .64100649 .32199098 .64100649 .38598634 .58898928 .38598634 .51698306 .38598634 .45996095 .34700013 .4119568 .2869873 .37695313L.16299439 .4569702M.30899049 .36193849C.3809967 .3989563 .42999269 .45095826 .42999269 .51698306 .42999269 .6090088 .34098817 .6660156 .25 .6660156 .1499939 .6660156 .068984989 .59199526 .068984989 .49897767 .068984989 .4809723 .070999149 .43595887 .11299133 .38894654 .12399292 .37695313 .16099549 .35194398 .18598938 .33494569 .12799073 .30592347 .041992189 .24984741 .041992189 .15072632 .041992189 .04458618 .14399719-.022460938 .24899292-.022460938 .3619995-.022460938 .45700074 .06060791 .45700074 .16773987 .45700074 .20379639 .44599916 .24885559 .4079895 .2909088 .3889923 .31193543 .37298585 .3219452 .30899049 .36193849M.20899964 .3199463 .33198548 .24183655C.3600006 .2228241 .40699769 .19277954 .40699769 .13169861 .40699769 .05760193 .33198548 .0055389406 .25 .0055389406 .1639862 .0055389406 .09199524 .067611698 .09199524 .15072632 .09199524 .20880127 .12399292 .27288819 .20899964 .3199463Z"/>
<path id="font_2_115" d="M.7259979 0V.0309906H.70700076C.6549988 .0309906 .6339874 .035995485 .61299136 .066970828L.4019928 .3857727 .5389862 .5866394C.5609894 .6186218 .59498599 .65060427 .6839905 .6516113V.6826172L.57299807 .6796112C.5329895 .6796112 .4850006 .6796112 .44499208 .6826172V.6516113C.4850006 .65060427 .5069885 .62861636 .5069885 .6056366 .5069885 .5956421 .5049896 .5936432 .49798585 .5826416L.38398744 .41375733 .25498963 .6066284C.25299073 .6096344 .24798584 .61763 .24798584 .6216278 .24798584 .6336212 .269989 .65060427 .31298829 .6516113V.6826172C.27799989 .6796112 .20498657 .6796112 .16699219 .6796112L.036987306 .6826172V.6516113H.055999757C.11099243 .6516113 .12998963 .64460757 .14898682 .6166229L.33299256 .33880616 .16899109 .096954349C.15499878 .07696533 .125 .0309906 .023986817 .0309906V0L.1349945 .0029907227C.17199707 .0029907227 .22698975 .0029907227 .2630005 0V.0309906C.21699524 .03199768 .19999695 .05897522 .19999695 .07696533 .19999695 .08595276 .20298767 .08995056 .20999146 .10095215L.35198976 .31082154 .5099945 .07196045C.5119934 .06796265 .5149994 .063964847 .5149994 .06097412 .5149994 .048980714 .49299623 .03199768 .44999696 .0309906V0C.4850006 .0029907227 .55799868 .0029907227 .59599307 .0029907227L.7259979 0Z"/>
<path id="font_1_3" d="M.2939911 .64004519C.2939911 .66400149 .2939911 .6660156 .2709961 .6660156 .20899964 .60227969 .12098694 .60227969 .08898926 .60227969V.57128909C.10899353 .57128909 .16799927 .57128909 .21998596 .5972748V.07902527C.21998596 .042999269 .21699524 .0309906 .1269989 .0309906H.09498596V0C.12998963 .0029907227 .21699524 .0029907227 .25698854 .0029907227 .29699708 .0029907227 .38398744 .0029907227 .4189911 0V.0309906H.3869934C.29699708 .0309906 .2939911 .041992189 .2939911 .07902527V.64004519Z"/>
<path id="font_1_8" d="M.62098696 .58461C.6349945 .62161257 .6619873 .65060427 .7299957 .6516113V.6826172C.69898989 .680603 .6589966 .6796112 .6329956 .6796112 .6029968 .6796112 .54499819 .6816101 .5189972 .6826172V.6516113C.57099917 .65060427 .59199526 .6246033 .59199526 .6016083 .59199526 .5935974 .58898928 .5876007 .58699038 .581604L.4039917 .09954834 .21299744 .604599C.20698548 .61860659 .20698548 .62060549 .20698548 .62260439 .20698548 .6516113 .2639923 .6516113 .2889862 .6516113V.6826172C.25299073 .6796112 .18399048 .6796112 .1459961 .6796112 .09799194 .6796112 .054992677 .6816101 .018997193 .6826172V.6516113C.083999637 .6516113 .102996829 .6516113 .116989139 .6136017L.34899903-.00047302247C.35598756-.019470215 .36099244-.022460938 .37399293-.022460938 .3909912-.022460938 .3929901-.017471314 .397995-.0034637452L.62098696 .58461Z"/>
<path id="font_2_27" d="M.71699526 0V.0309906H.69898989C.6389923 .0309906 .625 .037979127 .6139984 .07095337L.397995 .6958008C.3929901 .7088165 .3909912 .7158203 .375 .7158203 .35899354 .7158203 .35598756 .70980837 .35099793 .6958008L.14399719 .09791565C.12599182 .04698181 .085998538 .03199768 .03199768 .0309906V0L.13398743 .0029907227 .24899292 0V.0309906C.19898987 .0309906 .17399597 .05596924 .17399597 .0819397 .17399597 .08493042 .1749878 .09492493 .17599488 .09692383L.22200012 .2277832H.46899415L.5219879 .07495117C.522995 .07095337 .5249939 .064956668 .5249939 .060958864 .5249939 .0309906 .46899415 .0309906 .44198609 .0309906V0C.47799684 .0029907227 .5479889 .0029907227 .58599856 .0029907227L.71699526 0M.45799256 .25878907H.23298645L.34498597 .58380129 .45799256 .25878907Z"/>
<path id="font_2_34" d="M.651001 .18289185C.651001 .26983644 .56900027 .34480287 .45799256 .35679627 .5549927 .3757782 .6239929 .43974305 .6239929 .51368716 .6239929 .6006317 .5319977 .6826172 .4019928 .6826172H.035995485V.6516113H.05999756C.13699341 .6516113 .13899231 .64060977 .13899231 .6046295V.07795715C.13899231 .041992189 .13699341 .0309906 .05999756 .0309906H.035995485V0H.42799378C.5609894-.0002593994 .651001 .08874512 .651001 .18273926V.18289185M.5269928 .5136719C.5269928 .44970704 .47799684 .36573792 .36698915 .36573792H.22200012V.6116333C.22200012 .64460757 .22399903 .6516113 .2709961 .6516113H.394989C.49198915 .65174868 .5269928 .56674197 .5269928 .51374819V.5136719M.5509949 .18386841C.5509949 .1129303 .49899293 .0309906 .3959961 .0309906H.2709961C.22399903 .0309906 .22200012 .037994386 .22200012 .07095337V.34375H.4099884C.5089874 .34399415 .5509949 .25099183 .5509949 .18399048V.18386841Z"/>
<path id="font_3_1" d="M.6279907 .5686035C.6769867 .64660647 .71899417 .6496124 .7559967 .6516113 .7679901 .65260317 .7689972 .6696167 .7689972 .6706085 .7689972 .6786041 .7639923 .6826172 .7559967 .6826172 .7299957 .6826172 .70098879 .6796112 .673996 .6796112 .6409912 .6796112 .6069946 .6826172 .57499697 .6826172 .56900027 .6826172 .55599978 .6826172 .55599978 .66360476 .55599978 .65260317 .5649872 .6516113 .57199099 .6516113 .598999 .6496124 .6179962 .63960269 .6179962 .61860659 .6179962 .6036072 .6029968 .581604 .6029968 .5805969L.29599 .092544559 .22799683 .62161257C.22799683 .63861086 .25099183 .6516113 .29699708 .6516113 .31098939 .6516113 .32199098 .6516113 .32199098 .6716156 .32199098 .680603 .31399537 .6826172 .30799867 .6826172 .2679901 .6826172 .22499085 .6796112 .18399048 .6796112 .1659851 .6796112 .14698792 .680603 .1289978 .680603 .11099243 .680603 .09199524 .6826172 .07499695 .6826172 .067993167 .6826172 .055999757 .6826172 .055999757 .66360476 .055999757 .6516113 .06498718 .6516113 .08099365 .6516113 .13699341 .6516113 .13798523 .64260867 .14099121 .6175995L.21998596 .0005340576C.22299195-.019470215 .22698975-.022460938 .23999024-.022460938 .2559967-.022460938 .2599945-.017471314 .2679901-.004470825L.6279907 .5686035Z"/>
<path id="font_4_81" d="M.5289917 .21325684C.5289917 .3382721 .42199708 .44628907 .28399659 .44628907 .1459961 .44628907 .038986207 .3382721 .038986207 .21325684 .038986207 .0892334 .14898682-.009765625 .28399659-.009765625 .4189911-.009765625 .5289917 .0892334 .5289917 .21325684M.43798829 .22225952C.43798829 .17424011 .43499757 .12124634 .4059906 .08023071 .3789978 .042236329 .33299256 .022232056 .28399659 .022232056 .24699402 .022232056 .19299317 .034225465 .1599884 .083236698 .1329956 .12423706 .12998963 .17625427 .12998963 .22225952 .12998963 .2652588 .1309967 .32426454 .1659851 .36727906 .19099427 .39627076 .23298645 .41827394 .28399659 .41827394 .34298707 .41827394 .3849945 .39027406 .40699769 .3592682 .43499757 .32026673 .43798829 .27026368 .43798829 .22225952Z"/>
<path id="font_4_109" d="M.58999636 0V.035995485C.522995 .035995485 .5149994 .042999269 .5149994 .092056278V.44140626L.36099244 .43052674V.39453126C.42799378 .39439393 .43598939 .3874359 .43598939 .33872987V.16749573C.43598939 .079330448 .3789978 .018234253 .30299378 .018234253 .21199036 .018234253 .20799256 .061309816 .20799256 .11239624V.44140626L.053985597 .43052674V.39453126C.1289978 .39453126 .1289978 .39154054 .1289978 .30273438V.15246582C.1289978 .083343509 .1289978-.009765625 .29599-.009765625 .31799317-.009765625 .3909912-.009765625 .43899537 .07432556H.43998719V-.009765625L.58999636 0Z"/>
<path id="font_4_105" d="M.375 .12606812V.1809845H.34098817V.12705994C.34098817 .059173585 .30899049 .022232056 .269989 .022232056 .20098877 .022232056 .20098877 .10609436 .20098877 .124069217V.39465333H.35699464V.43066407H.20098877V.6142578H.16699219C.1659851 .5244446 .125 .42565919 .0289917 .4226532V.39465333H.12199402V.1250763C.12199402 .01322937 .20599365-.009765625 .2619934-.009765625 .32899476-.010009766 .375 .04699707 .375 .12599182V.12606812Z"/>
</defs>
<path transform="matrix(1.00006,0,0,-1.00005,34.449106,23.151558)" stroke-width=".3985" stroke-linecap="butt" stroke-miterlimit="10" stroke-linejoin="miter" fill="none" stroke="#000000" d="M0 0"/>
<path transform="matrix(1.00006,0,0,-1.00005,34.449106,23.151558)" stroke-width=".3985" stroke-linecap="butt" stroke-miterlimit="10" stroke-linejoin="miter" fill="none" stroke="#000000" d="M56.69363 0"/>
<path transform="matrix(1.00006,0,0,-1.00005,34.449106,23.151558)" stroke-width="3.17429" stroke-linecap="round" stroke-miterlimit="10" stroke-linejoin="miter" fill="none" stroke="#000000" d="M65.12682 0 48.26044 9.525"/>
<path transform="matrix(1.00006,0,0,-1.00005,34.449106,23.151558)" stroke-width=".797" stroke-linecap="butt" stroke-miterlimit="10" stroke-linejoin="miter" fill="none" stroke="#000000" d="M60.80028 11.88695C54.23523 9.49744 50.85036 2.2385 53.23985-4.32654 53.64267-5.43324 54.19652-6.4737 54.88171-7.41975"/>
<path transform="matrix(.61928716,.78516927,.7851771,-.61928096,89.52324,30.40169)" d="M3.1083 0C1.81317 .25902-.51805 .77707-2.0722 1.94269-.77707 .51805-.77707-.51805-2.0722-1.94269-.51805-.77707 1.81317-.25902 3.1083 0Z"/>
<path transform="matrix(1.00006,0,0,-1.00005,34.449106,23.151558)" d="M46.6733 11.90572C46.6733 12.78227 47.38388 13.49286 48.26044 13.49286 49.137 13.49286 49.84758 12.78227 49.84758 11.90572 49.84758 11.02914 49.137 10.31856 48.26044 10.31856 47.38388 10.31856 46.6733 11.02914 46.6733 11.90572ZM48.26044 11.90572" fill="#ffffff"/>
<path transform="matrix(1.00006,0,0,-1.00005,34.449106,23.151558)" stroke-width=".3985" stroke-linecap="butt" stroke-miterlimit="10" stroke-linejoin="miter" fill="none" stroke="#000000" d="M46.6733 11.90572C46.6733 12.78227 47.38388 13.49286 48.26044 13.49286 49.137 13.49286 49.84758 12.78227 49.84758 11.90572 49.84758 11.02914 49.137 10.31856 48.26044 10.31856 47.38388 10.31856 46.6733 11.02914 46.6733 11.90572ZM48.26044 11.90572"/>
<path transform="matrix(1.00006,0,0,-1.00005,34.449106,23.151558)" d="" fill="#ffffff"/>
<path transform="matrix(1.00006,0,0,-1.00005,34.449106,23.151558)" stroke-width=".3985" stroke-linecap="butt" stroke-miterlimit="10" stroke-linejoin="miter" fill="none" stroke="#000000" d=""/>
<path transform="matrix(1.00006,0,0,-1.00005,34.449106,23.151558)" d="M46.6733-11.90572C46.6733-11.02914 47.38388-10.31856 48.26044-10.31856 49.137-10.31856 49.84758-11.02914 49.84758-11.90572 49.84758-12.78227 49.137-13.49286 48.26044-13.49286 47.38388-13.49286 46.6733-12.78227 46.6733-11.90572ZM48.26044-11.90572" fill="#ffffff"/>
<path transform="matrix(1.00006,0,0,-1.00005,34.449106,23.151558)" stroke-width=".3985" stroke-linecap="butt" stroke-miterlimit="10" stroke-linejoin="miter" fill="none" stroke="#000000" d="M46.6733-11.90572C46.6733-11.02914 47.38388-10.31856 48.26044-10.31856 49.137-10.31856 49.84758-11.02914 49.84758-11.90572 49.84758-12.78227 49.137-13.49286 48.26044-13.49286 47.38388-13.49286 46.6733-12.78227 46.6733-11.90572ZM48.26044-11.90572"/>
<path transform="matrix(1.00006,0,0,-1.00005,34.449106,23.151558)" d="" fill="#ffffff"/>
<path transform="matrix(1.00006,0,0,-1.00005,34.449106,23.151558)" stroke-width=".3985" stroke-linecap="butt" stroke-miterlimit="10" stroke-linejoin="miter" fill="none" stroke="#000000" d=""/>
<path transform="matrix(1.00006,0,0,-1.00005,34.449106,23.151558)" d="M63.53967 0C63.53967 .87656 64.25026 1.58714 65.12682 1.58714 66.00337 1.58714 66.71396 .87656 66.71396 0 66.71396-.87656 66.00337-1.58714 65.12682-1.58714 64.25026-1.58714 63.53967-.87656 63.53967 0ZM65.12682 0" fill="#ffffff"/>
<path transform="matrix(1.00006,0,0,-1.00005,34.449106,23.151558)" stroke-width=".3985" stroke-linecap="butt" stroke-miterlimit="10" stroke-linejoin="miter" fill="none" stroke="#000000" d="M63.53967 0C63.53967 .87656 64.25026 1.58714 65.12682 1.58714 66.00337 1.58714 66.71396 .87656 66.71396 0 66.71396-.87656 66.00337-1.58714 65.12682-1.58714 64.25026-1.58714 63.53967-.87656 63.53967 0ZM65.12682 0"/>
<path transform="matrix(1.00006,0,0,-1.00005,34.449106,23.151558)" d="" fill="#ffffff"/>
<path transform="matrix(1.00006,0,0,-1.00005,34.449106,23.151558)" stroke-width=".3985" stroke-linecap="butt" stroke-miterlimit="10" stroke-linejoin="miter" fill="none" stroke="#000000" d=""/>
<path transform="matrix(1.00006,0,0,-1.00005,34.449106,23.151558)" stroke-width=".3985" stroke-linecap="butt" stroke-miterlimit="10" stroke-linejoin="miter" fill="none" stroke="#000000" d="M66.71396 0H79.18658M110.93497 0H123.4076V-24.37833M123.4076-32.31528V-56.69362H61.7038M61.7038-56.69362H0"/>
<path transform="matrix(1.00006,0,0,-1.00005,34.449106,23.151558)" stroke-width=".797" stroke-linecap="butt" stroke-linejoin="bevel" fill="none" stroke="#000000" d="M78.78807 0 81.8655 5.95285 87.2233-5.95285 92.58112 5.95285 97.93893-5.95285 103.29675 5.95285 108.65457-5.95285 111.33348 0"/>
<use data-text="2" xlink:href="#font_1_4" transform="matrix(9.963197,0,0,-9.963098,117.47609,13.38207)"/>
<use data-text="0" xlink:href="#font_1_2" transform="matrix(9.963197,0,0,-9.963098,122.45769,13.38207)"/>
<use data-text="k" xlink:href="#font_1_9" transform="matrix(9.963197,0,0,-9.963098,129.09317,13.38207)"/>
<use data-text="&#x2126;" xlink:href="#font_1_1" transform="matrix(9.963197,0,0,-9.963098,134.34378,13.38207)"/>
<path transform="matrix(1.00006,0,0,-1.00005,34.449106,23.151558)" stroke-width=".797" stroke-linecap="butt" stroke-miterlimit="10" stroke-linejoin="miter" fill="none" stroke="#000000" d="M135.31331-24.37833H111.50186M135.31331-32.31528H111.50186"/>
<path transform="matrix(1.00006,0,0,-1.00005,34.449106,23.151558)" d="M124.99474 0C124.99474 .87656 124.28415 1.58714 123.4076 1.58714 122.53102 1.58714 121.82043 .87656 121.82043 0 121.82043-.87656 122.53102-1.58714 123.4076-1.58714 124.28415-1.58714 124.99474-.87656 124.99474 0ZM123.4076 0"/>
<path transform="matrix(1.00006,0,0,-1.00005,34.449106,23.151558)" stroke-width=".3985" stroke-linecap="butt" stroke-miterlimit="10" stroke-linejoin="miter" fill="none" stroke="#000000" d="M124.99474 0C124.99474 .87656 124.28415 1.58714 123.4076 1.58714 122.53102 1.58714 121.82043 .87656 121.82043 0 121.82043-.87656 122.53102-1.58714 123.4076-1.58714 124.28415-1.58714 124.99474-.87656 124.99474 0ZM123.4076 0"/>
<path transform="matrix(1.00006,0,0,-1.00005,34.449106,23.151558)" d="M124.99474-56.69362C124.99474-55.81705 124.28415-55.10646 123.4076-55.10646 122.53102-55.10646 121.82043-55.81705 121.82043-56.69362 121.82043-57.57018 122.53102-58.28076 123.4076-58.28076 124.28415-58.28076 124.99474-57.57018 124.99474-56.69362ZM123.4076-56.69362"/>
<path transform="matrix(1.00006,0,0,-1.00005,34.449106,23.151558)" stroke-width=".3985" stroke-linecap="butt" stroke-miterlimit="10" stroke-linejoin="miter" fill="none" stroke="#000000" d="M124.99474-56.69362C124.99474-55.81705 124.28415-55.10646 123.4076-55.10646 122.53102-55.10646 121.82043-55.81705 121.82043-56.69362 121.82043-57.57018 122.53102-58.28076 123.4076-58.28076 124.28415-58.28076 124.99474-57.57018 124.99474-56.69362ZM123.4076-56.69362"/>
<use data-text="5" xlink:href="#font_1_5" transform="matrix(9.963197,0,0,-9.963098,172.57138,53.64708)"/>
<use data-text="&#x00b5;" xlink:href="#font_2_402" transform="matrix(9.963197,0,0,-9.963098,179.21378,53.64708)"/>
<use data-text="F" xlink:href="#font_1_7" transform="matrix(9.963197,0,0,-9.963098,184.75312,53.64708)"/>
<path transform="matrix(1.00006,0,0,-1.00005,34.449106,23.151558)" stroke-width=".3985" stroke-linecap="butt" stroke-miterlimit="10" stroke-linejoin="miter" fill="none" stroke="#000000" d="M46.6733-11.90572V-18.42546M46.6733-50.17384V-56.69362"/>
<use data-text="Y" xlink:href="#font_2_117" transform="matrix(9.963197,0,0,-9.963098,70.13225,31.537976)"/>
<path transform="matrix(1.00006,0,0,-1.00005,34.449106,23.151558)" stroke-width=".797" stroke-linecap="butt" stroke-linejoin="bevel" fill="none" stroke="#000000" d="M46.6733-18.02695 52.62614-21.10437 40.72044-26.46219 52.62614-31.81999 40.72044-37.17781 52.62614-42.53563 40.72044-47.89345 46.6733-50.57236"/>
<path transform="matrix(1.00006,0,0,-1.00005,34.449106,23.151558)" d="M48.26044-56.69362C48.26044-55.81705 47.54985-55.10646 46.6733-55.10646 45.79672-55.10646 45.08614-55.81705 45.08614-56.69362 45.08614-57.57018 45.79672-58.28076 46.6733-58.28076 47.54985-58.28076 48.26044-57.57018 48.26044-56.69362ZM46.6733-56.69362"/>
<path transform="matrix(1.00006,0,0,-1.00005,34.449106,23.151558)" stroke-width=".3985" stroke-linecap="butt" stroke-miterlimit="10" stroke-linejoin="miter" fill="none" stroke="#000000" d="M48.26044-56.69362C48.26044-55.81705 47.54985-55.10646 46.6733-55.10646 45.79672-55.10646 45.08614-55.81705 45.08614-56.69362 45.08614-57.57018 45.79672-58.28076 46.6733-58.28076 47.54985-58.28076 48.26044-57.57018 48.26044-56.69362ZM46.6733-56.69362"/>
<use data-text="8" xlink:href="#font_1_6" transform="matrix(9.963197,0,0,-9.963098,89.28439,59.600378)"/>
<use data-text="0" xlink:href="#font_1_2" transform="matrix(9.963197,0,0,-9.963098,94.26599,59.600378)"/>
<use data-text="k" xlink:href="#font_1_9" transform="matrix(9.963197,0,0,-9.963098,100.901477,59.600378)"/>
<use data-text="&#x2126;" xlink:href="#font_1_1" transform="matrix(9.963197,0,0,-9.963098,106.152088,59.600378)"/>
<path transform="matrix(1.00006,0,0,-1.00005,34.449106,23.151558)" stroke-width=".3985" stroke-linecap="butt" stroke-miterlimit="10" stroke-linejoin="miter" fill="none" stroke="#000000" d="M46.6733 11.90572 23.33664 11.9057M23.33664 11.9057 0 11.90572"/>
<use data-text="X" xlink:href="#font_2_115" transform="matrix(9.963197,0,0,-9.963098,84.64511,7.7247879)"/>
<path transform="matrix(1.00006,0,0,-1.00005,34.449106,23.151558)" stroke-width=".3985" stroke-linecap="butt" stroke-miterlimit="10" stroke-linejoin="miter" fill="none" stroke="#000000" d="M0 11.90572V-16.4411M0-28.3468V-56.69362"/>
<path transform="matrix(1.00006,0,0,-1.00005,34.449106,23.151558)" stroke-width=".797" stroke-linecap="butt" stroke-miterlimit="10" stroke-linejoin="miter" fill="none" stroke="#000000" d="M11.90572-16.4411H-11.90572M5.95285-20.40967H-5.95285M11.90572-24.37823H-11.90572M5.95285-28.3468H-5.95285"/>
<use data-text="1" xlink:href="#font_1_3" transform="matrix(9.963197,0,0,-9.963098,.50606539,47.693784)"/>
<use data-text="0" xlink:href="#font_1_2" transform="matrix(9.963197,0,0,-9.963098,5.4876635,47.693784)"/>
<use data-text="V" xlink:href="#font_1_8" transform="matrix(9.963197,0,0,-9.963098,12.123146,47.693784)"/>
<path transform="matrix(1.00006,0,0,-1.00005,34.449106,23.151558)" stroke-width=".3985" stroke-linecap="butt" stroke-miterlimit="10" stroke-linejoin="miter" fill="none" stroke="#000000" d="M123.4076 0H151.7544M151.7544 0H180.10121"/>
<path transform="matrix(1.00006,0,0,-1.00005,34.449106,23.151558)" d="M124.99474 0C124.99474 .87656 124.28415 1.58714 123.4076 1.58714 122.53102 1.58714 121.82043 .87656 121.82043 0 121.82043-.87656 122.53102-1.58714 123.4076-1.58714 124.28415-1.58714 124.99474-.87656 124.99474 0ZM123.4076 0"/>
<path transform="matrix(1.00006,0,0,-1.00005,34.449106,23.151558)" stroke-width=".3985" stroke-linecap="butt" stroke-miterlimit="10" stroke-linejoin="miter" fill="none" stroke="#000000" d="M124.99474 0C124.99474 .87656 124.28415 1.58714 123.4076 1.58714 122.53102 1.58714 121.82043 .87656 121.82043 0 121.82043-.87656 122.53102-1.58714 123.4076-1.58714 124.28415-1.58714 124.99474-.87656 124.99474 0ZM123.4076 0"/>
<path transform="matrix(1.00006,0,0,-1.00005,34.449106,23.151558)" d="M181.68836 0C181.68836 .87656 180.97777 1.58714 180.10121 1.58714 179.22464 1.58714 178.51406 .87656 178.51406 0 178.51406-.87656 179.22464-1.58714 180.10121-1.58714 180.97777-1.58714 181.68836-.87656 181.68836 0ZM180.10121 0" fill="#ffffff"/>
<path transform="matrix(1.00006,0,0,-1.00005,34.449106,23.151558)" stroke-width=".3985" stroke-linecap="butt" stroke-miterlimit="10" stroke-linejoin="miter" fill="none" stroke="#000000" d="M181.68836 0C181.68836 .87656 180.97777 1.58714 180.10121 1.58714 179.22464 1.58714 178.51406 .87656 178.51406 0 178.51406-.87656 179.22464-1.58714 180.10121-1.58714 180.97777-1.58714 181.68836-.87656 181.68836 0ZM180.10121 0"/>
<path transform="matrix(1.00006,0,0,-1.00005,34.449106,23.151558)" d="" fill="#ffffff"/>
<path transform="matrix(1.00006,0,0,-1.00005,34.449106,23.151558)" stroke-width=".3985" stroke-linecap="butt" stroke-miterlimit="10" stroke-linejoin="miter" fill="none" stroke="#000000" d=""/>
<use data-text="A" xlink:href="#font_2_27" transform="matrix(9.963197,0,0,-9.963098,218.08112,19.631382)"/>
<path transform="matrix(1.00006,0,0,-1.00005,34.449106,23.151558)" stroke-width=".3985" stroke-linecap="butt" stroke-miterlimit="10" stroke-linejoin="miter" fill="none" stroke="#000000" d="M123.4076-56.69362H151.7544M151.7544-56.69362H180.10121"/>
<path transform="matrix(1.00006,0,0,-1.00005,34.449106,23.151558)" d="M124.99474-56.69362C124.99474-55.81705 124.28415-55.10646 123.4076-55.10646 122.53102-55.10646 121.82043-55.81705 121.82043-56.69362 121.82043-57.57018 122.53102-58.28076 123.4076-58.28076 124.28415-58.28076 124.99474-57.57018 124.99474-56.69362ZM123.4076-56.69362"/>
<path transform="matrix(1.00006,0,0,-1.00005,34.449106,23.151558)" stroke-width=".3985" stroke-linecap="butt" stroke-miterlimit="10" stroke-linejoin="miter" fill="none" stroke="#000000" d="M124.99474-56.69362C124.99474-55.81705 124.28415-55.10646 123.4076-55.10646 122.53102-55.10646 121.82043-55.81705 121.82043-56.69362 121.82043-57.57018 122.53102-58.28076 123.4076-58.28076 124.28415-58.28076 124.99474-57.57018 124.99474-56.69362ZM123.4076-56.69362"/>
<path transform="matrix(1.00006,0,0,-1.00005,34.449106,23.151558)" d="M181.68836-56.69362C181.68836-55.81705 180.97777-55.10646 180.10121-55.10646 179.22464-55.10646 178.51406-55.81705 178.51406-56.69362 178.51406-57.57018 179.22464-58.28076 180.10121-58.28076 180.97777-58.28076 181.68836-57.57018 181.68836-56.69362ZM180.10121-56.69362" fill="#ffffff"/>
<path transform="matrix(1.00006,0,0,-1.00005,34.449106,23.151558)" stroke-width=".3985" stroke-linecap="butt" stroke-miterlimit="10" stroke-linejoin="miter" fill="none" stroke="#000000" d="M181.68836-56.69362C181.68836-55.81705 180.97777-55.10646 180.10121-55.10646 179.22464-55.10646 178.51406-55.81705 178.51406-56.69362 178.51406-57.57018 179.22464-58.28076 180.10121-58.28076 180.97777-58.28076 181.68836-57.57018 181.68836-56.69362ZM180.10121-56.69362"/>
<path transform="matrix(1.00006,0,0,-1.00005,34.449106,23.151558)" d="" fill="#ffffff"/>
<path transform="matrix(1.00006,0,0,-1.00005,34.449106,23.151558)" stroke-width=".3985" stroke-linecap="butt" stroke-miterlimit="10" stroke-linejoin="miter" fill="none" stroke="#000000" d=""/>
<use data-text="B" xlink:href="#font_2_34" transform="matrix(9.963197,0,0,-9.963098,218.08112,90.172908)"/>
<use data-text="V" xlink:href="#font_3_1" transform="matrix(9.963197,0,0,-9.963098,205.66638,54.122106)"/>
<use data-text="o" xlink:href="#font_4_81" transform="matrix(6.9742186,0,0,-6.9741489,211.47873,55.61618)"/>
<use data-text="u" xlink:href="#font_4_109" transform="matrix(6.9742186,0,0,-6.9741489,215.44705,55.61618)"/>
<use data-text="t" xlink:href="#font_4_105" transform="matrix(6.9742186,0,0,-6.9741489,219.84778,55.61618)"/>
</svg>
