<svg xmlns="http://www.w3.org/2000/svg" xmlns:xlink="http://www.w3.org/1999/xlink" xmlns:inkscape="http://www.inkscape.org/namespaces/inkscape" version="1.1" width="182" height="77" viewBox="0 0 182 77">
<defs>
<path id="font_1_3" d="M.6279907 .5686035C.6769867 .64660647 .71899417 .6496124 .7559967 .6516113 .7679901 .65260317 .7689972 .6696167 .7689972 .6706085 .7689972 .6786041 .7639923 .6826172 .7559967 .6826172 .7299957 .6826172 .70098879 .6796112 .673996 .6796112 .6409912 .6796112 .6069946 .6826172 .57499697 .6826172 .56900027 .6826172 .55599978 .6826172 .55599978 .66360476 .55599978 .65260317 .5649872 .6516113 .57199099 .6516113 .598999 .6496124 .6179962 .63960269 .6179962 .61860659 .6179962 .6036072 .6029968 .581604 .6029968 .5805969L.29599 .092544559 .22799683 .62161257C.22799683 .63861086 .25099183 .6516113 .29699708 .6516113 .31098939 .6516113 .32199098 .6516113 .32199098 .6716156 .32199098 .680603 .31399537 .6826172 .30799867 .6826172 .2679901 .6826172 .22499085 .6796112 .18399048 .6796112 .1659851 .6796112 .14698792 .680603 .1289978 .680603 .11099243 .680603 .09199524 .6826172 .07499695 .6826172 .067993167 .6826172 .055999757 .6826172 .055999757 .66360476 .055999757 .6516113 .06498718 .6516113 .08099365 .6516113 .13699341 .6516113 .13798523 .64260867 .14099121 .6175995L.21998596 .0005340576C.22299195-.019470215 .22698975-.022460938 .23999024-.022460938 .2559967-.022460938 .2599945-.017471314 .2679901-.004470825L.6279907 .5686035Z"/>
<path id="font_2_2" d="M.2639923 .66430667C.2649994 .66630557 .2679901 .67930606 .2679901 .68029788 .2679901 .68530276 .2639923 .6943054 .2519989 .6943054 .23199463 .6943054 .14898682 .6863098 .12399292 .6843109 .115997318 .68330386 .101989749 .682312 .101989749 .66130068 .101989749 .64730837 .115997318 .64730837 .12799073 .64730837 .17599488 .64730837 .17599488 .64030459 .17599488 .63230898 .17599488 .62532046 .1659851 .58532717 .1599884 .5623474L.13699341 .4703827C.12799073 .43640138 .07299805 .21731568 .070999149 .20431519 .06599426 .18029785 .06599426 .16729737 .06599426 .1552887 .06599426 .054244996 .12998963-.009765625 .21299744-.009765625 .33799745-.009765625 .47099305 .12626648 .47099305 .27433778 .47099305 .39138795 .3899994 .44140626 .32099916 .44140626 .2689972 .44140626 .22499085 .4123993 .19499207 .38638307L.2639923 .66430667M.21398926 .018234253C.16499329 .018234253 .13699341 .06124878 .13699341 .120269779 .13699341 .1572876 .1459961 .19129944 .17399597 .3043518 .17999268 .32336427 .17999268 .32536317 .19898987 .34736634 .23699951 .39138795 .28199769 .4133911 .31799317 .4133911 .35699464 .4133911 .3909912 .38438417 .3909912 .31636048 .3909912 .27534486 .36898805 .17329407 .33898927 .11526489 .31498719 .06625366 .2649994 .018234253 .21398926 .018234253Z"/>
<path id="font_3_3" d="M.1269989 .07699585 .23298645 .18003845C.3889923 .31811524 .44898988 .3721466 .44898988 .47216798 .44898988 .5860901 .35899354 .6660156 .23699951 .6660156 .12399292 .6660156 .049987794 .57411196 .049987794 .48516847 .049987794 .4291687 .099990848 .4291687 .102996829 .4291687 .11999512 .4291687 .15499878 .44117738 .15499878 .48217774 .15499878 .5081787 .13699341 .5341797 .101989749 .5341797 .09399414 .5341797 .09199524 .5341797 .08898926 .5331726 .11199951 .59806826 .1659851 .63500979 .22399903 .63500979 .31498719 .63500979 .35798646 .5541382 .35798646 .47216798 .35798646 .39215089 .30799867 .31311036 .25299073 .25108338L.06098938 .036987306C.049987794 .025985718 .049987794 .023986817 .049987794 0H.42099L.44898988 .17404175H.42399598C.4189911 .14402771 .4119873 .1000061 .4019928 .084991458 .394989 .07699585 .32899476 .07699585 .30699159 .07699585H.1269989Z"/>
<path id="font_1_1" d="M.19198609 .052993776C.19198609 .08198547 .16799927 .10598755 .13899231 .10598755 .10998535 .10598755 .085998538 .08198547 .085998538 .052993776 .085998538 .023986817 .10998535 0 .13899231 0 .16799927 0 .19198609 .023986817 .19198609 .052993776Z"/>
<path id="font_3_5" d="M.16299439 .4569702C.116989139 .486969 .11299133 .52098086 .11299133 .5379791 .11299133 .598999 .17799378 .64100649 .24899292 .64100649 .32199098 .64100649 .38598634 .58898928 .38598634 .51698306 .38598634 .45996095 .34700013 .4119568 .2869873 .37695313L.16299439 .4569702M.30899049 .36193849C.3809967 .3989563 .42999269 .45095826 .42999269 .51698306 .42999269 .6090088 .34098817 .6660156 .25 .6660156 .1499939 .6660156 .068984989 .59199526 .068984989 .49897767 .068984989 .4809723 .070999149 .43595887 .11299133 .38894654 .12399292 .37695313 .16099549 .35194398 .18598938 .33494569 .12799073 .30592347 .041992189 .24984741 .041992189 .15072632 .041992189 .04458618 .14399719-.022460938 .24899292-.022460938 .3619995-.022460938 .45700074 .06060791 .45700074 .16773987 .45700074 .20379639 .44599916 .24885559 .4079895 .2909088 .3889923 .31193543 .37298585 .3219452 .30899049 .36193849M.20899964 .3199463 .33198548 .24183655C.3600006 .2228241 .40699769 .19277954 .40699769 .13169861 .40699769 .05760193 .33198548 .0055389406 .25 .0055389406 .1639862 .0055389406 .09199524 .067611698 .09199524 .15072632 .09199524 .20880127 .12399292 .27288819 .20899964 .3199463Z"/>
<path id="font_3_6" d="M.10598755 .07595825C.10598755 .0309906 .09498596 .0309906 .027999878 .0309906V0C.06098938 .0009918213 .10798645 .0029907227 .13699341 .0029907227 .16699219 .0029907227 .20698548 .0019989014 .24699402 0V.0309906C.17999268 .0309906 .16899109 .0309906 .16899109 .07595825V.17886353L.23298645 .23381043C.30999757 .12789917 .35198976 .07196045 .35198976 .053970338 .35198976 .034988405 .33499146 .0309906 .31599427 .0309906V0C.34399415 .0009918213 .40299989 .0029907227 .42399598 .0029907227 .45298768 .0029907227 .48199464 .0019989014 .5109863 0V.0309906C.47399903 .0309906 .45199586 .0309906 .4139862 .0839386L.2869873 .26278688C.28599549 .26478578 .2809906 .2707672 .2809906 .2737732 .2809906 .277771 .35198976 .33770753 .3619995 .34570313 .4249878 .39666749 .46699525 .39865113 .48799134 .3996582V.43066407C.45899964 .42765809 .44599916 .42765809 .41799928 .42765809 .38198854 .42765809 .31999208 .42965699 .30599977 .43066407V.3996582C.32499696 .39865113 .33499146 .3876648 .33499146 .37467958 .33499146 .3547058 .32099916 .3427124 .31298829 .33570863L.17199707 .21382141V.69433596L.027999878 .68333438V.6523285C.09799194 .6523285 .10598755 .64530947 .10598755 .5961609V.07595825Z"/>
<path id="font_3_1" d="M.6769867 .16200257H.6519928C.6469879 .13600159 .6429901 .11299133 .6339874 .08898926 .6289978 .07299805 .6259918 .06498718 .56799319 .06498718H.48799134C.5009918 .1210022 .5319977 .16900635 .57699587 .23501587 .6239929 .306015 .6649933 .37503053 .6649933 .45404054 .6649933 .59306338 .5299988 .7050781 .36099244 .7050781 .18899536 .7050781 .055999757 .5910492 .055999757 .45404054 .055999757 .37503053 .09700012 .306015 .14399719 .23501587 .18798828 .16900635 .21998596 .1210022 .23298645 .06498718H.15299988C.09498596 .06498718 .09199524 .07299805 .08699036 .08799744 .07899475 .11099243 .07398987 .13700867 .068984989 .16200257H.04399109L.07699585 0H.23699951C.25898744 0 .2619934 0 .2619934 .020996094 .2619934 .09098816 .23098755 .17900086 .20799256 .24301148 .18699646 .3010254 .15899658 .3800354 .15899658 .45503236 .15899658 .6150665 .2689972 .68307498 .3600006 .68307498 .45599366 .68307498 .56199648 .61105349 .56199648 .45503236 .56199648 .3800354 .5349884 .3040161 .5059967 .22201538 .4909973 .18000794 .45899964 .08999634 .45899964 .020996094 .45899964 0 .46199037 0 .4850006 0H.6439972L.6769867 .16200257Z"/>
<path id="font_1_2" d="M.37399293 .6056366C.3829956 .6416168 .38598634 .6516113 .46499635 .6516113 .4889984 .6516113 .49699403 .6516113 .49699403 .6706085 .49699403 .6826172 .48599244 .6826172 .48199464 .6826172 .45298768 .6826172 .3789978 .6796112 .34999085 .6796112 .31999208 .6796112 .24699402 .6826172 .21699524 .6826172 .20999146 .6826172 .19699097 .6826172 .19699097 .6626129 .19699097 .6516113 .20599365 .6516113 .22499085 .6516113 .2669983 .6516113 .2939911 .6516113 .2939911 .63261416 .2939911 .6276245 .2939911 .6256256 .2919922 .6166229L.15699768 .07795715C.147995 .040985109 .14498902 .0309906 .06599426 .0309906 .042999269 .0309906 .033996583 .0309906 .033996583 .010986328 .033996583 0 .04598999 0 .04899597 0 .07798767 0 .15098572 .0029907227 .17999268 .0029907227 .20999146 .0029907227 .28399659 0 .31399537 0 .32199098 0 .33399964 0 .33399964 .018997193 .33399964 .0309906 .32598878 .0309906 .3039856 .0309906 .28599549 .0309906 .2809906 .0309906 .26098634 .032989503 .23999024 .034988405 .23599243 .038986207 .23599243 .049987794 .23599243 .05796814 .23799134 .065963748 .23999024 .07296753L.37399293 .6056366Z"/>
<path id="font_4_1" d="M.33499146 .63612368C.33499146 .6630554 .33299256 .6640625 .30499269 .6640625 .24099732 .6014404 .1499939 .6004486 .10899353 .6004486V.5644531C.1329956 .5644531 .19898987 .5644531 .2539978 .592453V.08203125C.2539978 .04899597 .2539978 .035995485 .1539917 .035995485H.115997318V0C.13398743 .0009918213 .25698854 .0039978029 .2939911 .0039978029 .32499696 .0039978029 .45098878 .0009918213 .47299195 0V.035995485H.43499757C.33499146 .035995485 .33499146 .04899597 .33499146 .08203125V.63612368Z"/>
<path id="font_3_4" d="M.47599793 .609375C.4850006 .6213684 .4850006 .62338259 .4850006 .64437869H.24198914C.11999512 .64437869 .117996219 .65737918 .11399841 .67637637H.08898926L.055999757 .4702301H.08099365C.083999637 .48625184 .09298706 .5493469 .10598755 .56137087 .11299133 .5673828 .19099427 .5673828 .20399475 .5673828H.41099549C.3999939 .5513611 .32099916 .4421997 .29899598 .40914918 .20899964 .27394105 .17599488 .1347351 .17599488 .032577516 .17599488 .022567749 .17599488-.022460938 .22200012-.022460938 .2679901-.022460938 .2679901 .022567749 .2679901 .032577516V.08366394C.2679901 .13873291 .2709961 .19381714 .2789917 .24790955 .2829895 .27093507 .29699708 .35707093 .34098817 .41915895L.47599793 .609375Z"/>
<path id="font_3_2" d="M.45999146 .31976319C.45999146 .39982606 .45498658 .47988893 .41999818 .5539398 .37399293 .65000918 .2919922 .6660156 .25 .6660156 .18998719 .6660156 .116989139 .64001467 .07598877 .54693606 .04399109 .47789 .038986207 .39982606 .038986207 .31976319 .038986207 .24472046 .042999269 .15464783 .083999637 .07859802 .1269989-.0024719239 .19999695-.022460938 .24899292-.022460938 .30299378-.022460938 .3789978-.0014648438 .4229889 .09359741 .45498658 .16265869 .45999146 .2407074 .45999146 .31976319M.24899292-.00047302247C.20999146-.00047302247 .15098572 .024551392 .1329956 .12062073 .12199402 .18066406 .12199402 .2727356 .12199402 .3317871 .12199402 .39582826 .12199402 .46188355 .12998963 .5159149 .14898682 .63500979 .22399903 .64401248 .24899292 .64401248 .28199769 .64401248 .34799195 .6259918 .36698915 .52693179 .3769989 .47088624 .3769989 .39482118 .3769989 .3317871 .3769989 .25672914 .3769989 .18867493 .3659973 .12461853 .35099793 .029556275 .2939911-.00047302247 .24899292-.00047302247Z"/>
<path id="font_4_2" d="M.5049896 .18203736H.47099305C.46798707 .16001892 .45799256 .100997928 .44499208 .09098816 .43699647 .084991458 .3600006 .084991458 .34599305 .084991458H.1619873C.2669983 .17803955 .3019867 .20603943 .3619995 .25306703 .43598939 .312088 .5049896 .374115 .5049896 .46914674 .5049896 .5900879 .39898683 .6640625 .2709961 .6640625 .14698792 .6640625 .06298828 .57710269 .06298828 .4851532 .06298828 .43414308 .10598755 .42915345 .115997318 .42915345 .13999939 .42915345 .16899109 .44615174 .16899109 .48214723 .16899109 .5001526 .1619873 .53515627 .10998535 .53515627 .14099121 .6060791 .20899964 .62805178 .2559967 .62805178 .35598756 .62805178 .4079895 .5501404 .4079895 .46914674 .4079895 .38212586 .34599305 .3130951 .31399537 .27708436L.07299805 .038986207C.06298828 .02999878 .06298828 .027999878 .06298828 0H.47499085L.5049896 .18203736Z"/>
<path id="font_2_1" d="M.18899536 .07797241C.18099976 .04399109 .1789856 .035995485 .100997928 .035995485 .08299255 .035995485 .070999149 .035995485 .070999149 .01399231 .070999149 0 .08299255 0 .100997928 0H.45799256C.6799927 0 .8929901 .20388794 .8929901 .42175294 .8929901 .5676575 .7919922 .6826172 .6289978 .6826172H.2649994C.24499512 .6826172 .23298645 .6826172 .23298645 .660614 .23298645 .64660647 .24398804 .64660647 .2659912 .64660647 .28199769 .64660647 .28599549 .64660647 .3039856 .64460757 .32398988 .64260867 .32598878 .64060977 .32598878 .63061526 .32598878 .62861636 .32598878 .6236267 .32199098 .6086426L.18899536 .07797241M.41299439 .6126251C.42099 .6436157 .42199708 .64660647 .46398927 .64660647H.59199526C.70399478 .64660647 .7979889 .59065249 .7979889 .45472718 .7979889 .43174745 .7879944 .2588501 .6879883 .14492798 .6489868 .09994507 .5629883 .035995485 .43998719 .035995485H.3039856C.272995 .035995485 .27198792 .036987306 .27198792 .04598999 .27198792 .04698181 .27198792 .051986696 .27598573 .066970828L.41299439 .6126251Z"/>
</defs>
<path transform="matrix(1.00005,0,0,-1.00005,25.02745,74.0441)" stroke-width=".3985" stroke-linecap="butt" stroke-miterlimit="10" stroke-linejoin="miter" fill="none" stroke="#000000" d="M0 0"/>
<path transform="matrix(1.00005,0,0,-1.00005,25.02745,74.0441)" stroke-width=".3985" stroke-linecap="butt" stroke-miterlimit="10" stroke-linejoin="miter" fill="none" stroke="#000000" d="M0 0V22.39395M0 34.29965V56.69362H26.64601M58.3944 56.69362H85.04042L85.0404 44.221M85.0404 12.47261 85.04042 0"/>
<path transform="matrix(1.00005,0,0,-1.00005,25.02745,74.0441)" stroke-width=".797" stroke-linecap="butt" stroke-miterlimit="10" stroke-linejoin="miter" fill="none" stroke="#000000" d="M-11.90572 34.29965H11.90572M-5.95285 30.33109H5.95285M-11.90572 26.36252H11.90572M-5.95285 22.39395H5.95285"/>
<use data-text="V" xlink:href="#font_1_3" transform="matrix(9.963098,0,0,-9.963098,.5062256,47.84279)"/>
<use data-text="b" xlink:href="#font_2_2" transform="matrix(6.9741489,0,0,-6.9741489,6.318512,49.336866)"/>
<path transform="matrix(1.00005,0,0,-1.00005,25.02745,74.0441)" stroke-width=".797" stroke-linecap="butt" stroke-linejoin="bevel" fill="none" stroke="#000000" d="M26.2475 56.69362 29.3249 62.64647 34.68272 50.74075 40.04054 62.64647 45.39836 50.74075 50.75618 62.64647 56.114 50.74075 58.7929 56.69362"/>
<path transform="matrix(1.00005,0,0,-1.00005,25.02745,74.0441)" d="M86.62756 56.69362C86.62756 57.57018 85.91698 58.28076 85.04042 58.28076 84.16386 58.28076 83.45328 57.57018 83.45328 56.69362 83.45328 55.81705 84.16386 55.10646 85.04042 55.10646 85.91698 55.10646 86.62756 55.81705 86.62756 56.69362ZM85.04042 56.69362"/>
<path transform="matrix(1.00005,0,0,-1.00005,25.02745,74.0441)" stroke-width=".3985" stroke-linecap="butt" stroke-miterlimit="10" stroke-linejoin="miter" fill="none" stroke="#000000" d="M86.62756 56.69362C86.62756 57.57018 85.91698 58.28076 85.04042 58.28076 84.16386 58.28076 83.45328 57.57018 83.45328 56.69362 83.45328 55.81705 84.16386 55.10646 85.04042 55.10646 85.91698 55.10646 86.62756 55.81705 86.62756 56.69362ZM85.04042 56.69362"/>
<use data-text="2" xlink:href="#font_3_3" transform="matrix(9.963098,0,0,-9.963098,54.126905,7.578781)"/>
<use data-text="." xlink:href="#font_1_1" transform="matrix(9.963098,0,0,-9.963098,59.10915,7.578781)"/>
<use data-text="8" xlink:href="#font_3_5" transform="matrix(9.963098,0,0,-9.963098,61.876295,7.578781)"/>
<use data-text="k" xlink:href="#font_3_6" transform="matrix(9.963098,0,0,-9.963098,68.51172,7.578781)"/>
<use data-text="&#x2126;" xlink:href="#font_3_1" transform="matrix(9.963098,0,0,-9.963098,73.76227,7.578781)"/>
<path transform="matrix(1.00005,0,0,-1.00005,25.02745,74.0441)" d="M69.98117 56.69362V54.70937L74.19772 56.69362 69.98117 58.67787Z"/>
<path transform="matrix(1.00005,0,0,-1.00005,25.02745,74.0441)" stroke-width=".3985" stroke-linecap="butt" stroke-miterlimit="10" stroke-linejoin="miter" fill="none" stroke="#000000" d="M69.98117 56.69362V54.70937L74.19772 56.69362 69.98117 58.67787Z"/>
<use data-text="I" xlink:href="#font_1_2" transform="matrix(9.963098,0,0,-9.963098,92.323818,12.333015)"/>
<use data-text="1" xlink:href="#font_4_1" transform="matrix(6.9741489,0,0,-6.9741489,96.704029,13.827091)"/>
<path transform="matrix(1.00005,0,0,-1.00005,25.02745,74.0441)" stroke-width=".797" stroke-linecap="butt" stroke-linejoin="bevel" fill="none" stroke="#000000" d="M85.0404 44.6195 90.99326 41.54208 79.08755 36.18428 90.99326 30.82646 79.08755 25.46864 90.99326 20.11082 79.08755 14.753 85.0404 12.0741"/>
<path transform="matrix(1.00005,0,0,-1.00005,25.02745,74.0441)" d="M86.62756 0C86.62756 .87656 85.91698 1.58714 85.04042 1.58714 84.16386 1.58714 83.45328 .87656 83.45328 0 83.45328-.87656 84.16386-1.58714 85.04042-1.58714 85.91698-1.58714 86.62756-.87656 86.62756 0ZM85.04042 0"/>
<path transform="matrix(1.00005,0,0,-1.00005,25.02745,74.0441)" stroke-width=".3985" stroke-linecap="butt" stroke-miterlimit="10" stroke-linejoin="miter" fill="none" stroke="#000000" d="M86.62756 0C86.62756 .87656 85.91698 1.58714 85.04042 1.58714 84.16386 1.58714 83.45328 .87656 83.45328 0 83.45328-.87656 84.16386-1.58714 85.04042-1.58714 85.91698-1.58714 86.62756-.87656 86.62756 0ZM85.04042 0"/>
<use data-text="7" xlink:href="#font_3_4" transform="matrix(9.963098,0,0,-9.963098,118.2311,47.84279)"/>
<use data-text="0" xlink:href="#font_3_2" transform="matrix(9.963098,0,0,-9.963098,123.21265,47.84279)"/>
<use data-text="0" xlink:href="#font_3_2" transform="matrix(9.963098,0,0,-9.963098,128.1942,47.84279)"/>
<use data-text="&#x2126;" xlink:href="#font_3_1" transform="matrix(9.963098,0,0,-9.963098,134.82962,47.84279)"/>
<path transform="matrix(1.00005,0,0,-1.00005,25.02745,74.0441)" d="M85.0404 7.97252H83.05615L85.0404 3.75598 87.02466 7.97252Z"/>
<path transform="matrix(1.00005,0,0,-1.00005,25.02745,74.0441)" stroke-width=".3985" stroke-linecap="butt" stroke-miterlimit="10" stroke-linejoin="miter" fill="none" stroke="#000000" d="M85.0404 7.97252H83.05615L85.0404 3.75598 87.02466 7.97252Z"/>
<use data-text="I" xlink:href="#font_1_2" transform="matrix(9.963098,0,0,-9.963098,113.59187,70.46392)"/>
<use data-text="2" xlink:href="#font_4_2" transform="matrix(6.9741489,0,0,-6.9741489,117.972087,71.95799)"/>
<path transform="matrix(1.00005,0,0,-1.00005,25.02745,74.0441)" stroke-width=".3985" stroke-linecap="butt" stroke-miterlimit="10" stroke-linejoin="miter" fill="none" stroke="#000000" d="M85.04042 56.69362H113.38722M113.38722 56.69362H141.73404L141.73403 36.28375M141.73403 20.40985 141.73404 0H70.867M70.867 0H0"/>
<path transform="matrix(1.00005,0,0,-1.00005,25.02745,74.0441)" stroke-width=".797" stroke-linecap="butt" stroke-miterlimit="10" stroke-linejoin="miter" fill="none" stroke="#000000" d="M141.73403 20.40985 151.65537 36.28375H131.81269Z"/>
<path transform="matrix(1.00005,0,0,-1.00005,25.02745,74.0441)" stroke-width=".797" stroke-linecap="butt" stroke-miterlimit="10" stroke-linejoin="miter" fill="none" stroke="#000000" d="M131.81269 20.40985H151.65537"/>
<path transform="matrix(1.00005,0,0,-1.00005,25.02745,74.0441)" d="M141.73403 11.94113H139.74977L141.73403 7.7246 143.71828 11.94113Z"/>
<path transform="matrix(1.00005,0,0,-1.00005,25.02745,74.0441)" stroke-width=".3985" stroke-linecap="butt" stroke-miterlimit="10" stroke-linejoin="miter" fill="none" stroke="#000000" d="M141.73403 11.94113H139.74977L141.73403 7.7246 143.71828 11.94113Z"/>
<use data-text="I" xlink:href="#font_1_2" transform="matrix(9.963098,0,0,-9.963098,170.2887,66.49572)"/>
<use data-text="D" xlink:href="#font_2_1" transform="matrix(6.9741489,0,0,-6.9741489,174.66892,67.9898)"/>
</svg>
