<svg xmlns="http://www.w3.org/2000/svg" xmlns:xlink="http://www.w3.org/1999/xlink" xmlns:inkscape="http://www.inkscape.org/namespaces/inkscape" version="1.1" width="208" height="134" viewBox="0 0 208 134">
<defs>
<path id="font_1_4" d="M.6279907 .5686035C.6769867 .64660647 .71899417 .6496124 .7559967 .6516113 .7679901 .65260317 .7689972 .6696167 .7689972 .6706085 .7689972 .6786041 .7639923 .6826172 .7559967 .6826172 .7299957 .6826172 .70098879 .6796112 .673996 .6796112 .6409912 .6796112 .6069946 .6826172 .57499697 .6826172 .56900027 .6826172 .55599978 .6826172 .55599978 .66360476 .55599978 .65260317 .5649872 .6516113 .57199099 .6516113 .598999 .6496124 .6179962 .63960269 .6179962 .61860659 .6179962 .6036072 .6029968 .581604 .6029968 .5805969L.29599 .092544559 .22799683 .62161257C.22799683 .63861086 .25099183 .6516113 .29699708 .6516113 .31098939 .6516113 .32199098 .6516113 .32199098 .6716156 .32199098 .680603 .31399537 .6826172 .30799867 .6826172 .2679901 .6826172 .22499085 .6796112 .18399048 .6796112 .1659851 .6796112 .14698792 .680603 .1289978 .680603 .11099243 .680603 .09199524 .6826172 .07499695 .6826172 .067993167 .6826172 .055999757 .6826172 .055999757 .66360476 .055999757 .6516113 .06498718 .6516113 .08099365 .6516113 .13699341 .6516113 .13798523 .64260867 .14099121 .6175995L.21998596 .0005340576C.22299195-.019470215 .22698975-.022460938 .23999024-.022460938 .2559967-.022460938 .2599945-.017471314 .2679901-.004470825L.6279907 .5686035Z"/>
<path id="font_2_66" d="M.27398683 0V.035995485C.21598816 .035995485 .20599365 .035995485 .20599365 .07803345V.44140626L.05899048 .43052674V.39453126C.12199402 .39453126 .1309967 .3885193 .1309967 .33952333V.07952881C.1309967 .035995485 .12098694 .035995485 .055999757 .035995485V0C.055999757 0 .12799073 .0039978029 .16799927 .0039978029 .20298767 .0039978029 .23899842 .0029907227 .27398683 0M.21899414 .60214236C.21899414 .6341553 .19400025 .66015627 .1619873 .66015627 .12799073 .66015627 .10499573 .6321411 .10499573 .6031494 .10499573 .57115176 .12998963 .54515078 .1619873 .54515078 .19599915 .54515078 .21899414 .57315066 .21899414 .60214236Z"/>
<path id="font_2_77" d="M.58999636 0V.035995485C.5249939 .035995485 .5149994 .035995485 .5149994 .07904053V.3032837C.5149994 .3903656 .47200013 .44140626 .36499024 .44140626 .2829895 .44140626 .22999573 .39637757 .20199585 .34432984H.20098877V.44140626L.053985597 .43052674V.39453126C.12098694 .39453126 .1289978 .3875122 .1289978 .33843995V.079055789C.1289978 .035995485 .11898804 .035995485 .053985597 .035995485V0C.053985597 0 .12599182 .0039978029 .16799927 .0039978029 .20498657 .0039978029 .27398683 .0009918213 .2829895 0V.035995485C.21798706 .035995485 .20799256 .035995485 .20799256 .079055789V.25932313C.20799256 .36434938 .29100038 .4133911 .35699464 .4133911 .4269867 .4133911 .43598939 .3583374 .43598939 .3072815V.07904053C.43598939 .035995485 .42599488 .035995485 .36099244 .035995485V0C.36099244 0 .43299867 .0039978029 .47499085 .0039978029 .5119934 .0039978029 .58099368 .0009918213 .58999636 0Z"/>
<path id="font_1_3" d="M.375 .6136017C.3809967 .63760378 .38398744 .6476135 .40299989 .65060427 .4119873 .6516113 .44400025 .6516113 .46398927 .6516113 .5349884 .6516113 .6459961 .6516113 .6459961 .5525818 .6459961 .51856997 .6299896 .44955445 .59098818 .41055299 .5649872 .38453675 .5119934 .35253907 .42199708 .35253907H.30999757L.375 .6136017M.5189972 .33953858C.6199951 .3615265 .7389984 .43154908 .7389984 .5325775 .7389984 .61860659 .6489868 .6826172 .5179901 .6826172H.23298645C.21299744 .6826172 .20399475 .6826172 .20399475 .6626129 .20399475 .6516113 .21299744 .6516113 .23199463 .6516113 .23399353 .6516113 .25299073 .6516113 .269989 .6496124 .28799439 .6476135 .29699708 .64660647 .29699708 .63360598 .29699708 .62960818 .29599 .6266022 .29299928 .6145935L.15899658 .07752991C.14898682 .038528444 .14698792 .030532837 .067993167 .030532837 .049987794 .030532837 .040985109 .030532837 .040985109 .010528564 .040985109-.00047302247 .052993776-.00047302247 .054992677-.00047302247 .08299255-.00047302247 .15299988 .002532959 .18099976 .002532959 .20899964 .002532959 .27999879-.00047302247 .30799867-.00047302247 .31599427-.00047302247 .32798768-.00047302247 .32798768 .01953125 .32798768 .030532837 .31900025 .030532837 .2999878 .030532837 .2630005 .030532837 .23498535 .030532837 .23498535 .048538209 .23498535 .054534913 .23699951 .059524537 .23799134 .0655365L.3039856 .3305359H.4229889C.5139923 .3305359 .5319977 .27453614 .5319977 .23953247 .5319977 .22453308 .5239868 .19352722 .5179901 .17053223 .5109863 .14253235 .5019989 .105529788 .5019989 .08552551 .5019989-.022460938 .621994-.022460938 .6349945-.022460938 .7200012-.022460938 .7549896 .07853699 .7549896 .0925293 .7549896 .104537967 .74398806 .104537967 .7429962 .104537967 .73399356 .104537967 .7319946 .09753418 .7299957 .090530399 .7049866 .016525269 .6619873-.00047302247 .6389923-.00047302247 .60598757-.00047302247 .598999 .021530152 .598999 .060531618 .598999 .091537479 .6049957 .14253235 .60899356 .17453003 .61099246 .1885376 .61299136 .20753479 .61299136 .2215271 .61299136 .2985382 .54599 .3295288 .5189972 .33953858Z"/>
<path id="font_3_1" d="M.33499146 .63612368C.33499146 .6630554 .33299256 .6640625 .30499269 .6640625 .24099732 .6014404 .1499939 .6004486 .10899353 .6004486V.5644531C.1329956 .5644531 .19898987 .5644531 .2539978 .592453V.08203125C.2539978 .04899597 .2539978 .035995485 .1539917 .035995485H.115997318V0C.13398743 .0009918213 .25698854 .0039978029 .2939911 .0039978029 .32499696 .0039978029 .45098878 .0009918213 .47299195 0V.035995485H.43499757C.33499146 .035995485 .33499146 .04899597 .33499146 .08203125V.63612368Z"/>
<path id="font_1_2" d="M.37399293 .6056366C.3829956 .6416168 .38598634 .6516113 .46499635 .6516113 .4889984 .6516113 .49699403 .6516113 .49699403 .6706085 .49699403 .6826172 .48599244 .6826172 .48199464 .6826172 .45298768 .6826172 .3789978 .6796112 .34999085 .6796112 .31999208 .6796112 .24699402 .6826172 .21699524 .6826172 .20999146 .6826172 .19699097 .6826172 .19699097 .6626129 .19699097 .6516113 .20599365 .6516113 .22499085 .6516113 .2669983 .6516113 .2939911 .6516113 .2939911 .63261416 .2939911 .6276245 .2939911 .6256256 .2919922 .6166229L.15699768 .07795715C.147995 .040985109 .14498902 .0309906 .06599426 .0309906 .042999269 .0309906 .033996583 .0309906 .033996583 .010986328 .033996583 0 .04598999 0 .04899597 0 .07798767 0 .15098572 .0029907227 .17999268 .0029907227 .20999146 .0029907227 .28399659 0 .31399537 0 .32199098 0 .33399964 0 .33399964 .018997193 .33399964 .0309906 .32598878 .0309906 .3039856 .0309906 .28599549 .0309906 .2809906 .0309906 .26098634 .032989503 .23999024 .034988405 .23599243 .038986207 .23599243 .049987794 .23599243 .05796814 .23799134 .065963748 .23999024 .07296753L.37399293 .6056366Z"/>
<path id="font_3_2" d="M.5049896 .18203736H.47099305C.46798707 .16001892 .45799256 .100997928 .44499208 .09098816 .43699647 .084991458 .3600006 .084991458 .34599305 .084991458H.1619873C.2669983 .17803955 .3019867 .20603943 .3619995 .25306703 .43598939 .312088 .5049896 .374115 .5049896 .46914674 .5049896 .5900879 .39898683 .6640625 .2709961 .6640625 .14698792 .6640625 .06298828 .57710269 .06298828 .4851532 .06298828 .43414308 .10598755 .42915345 .115997318 .42915345 .13999939 .42915345 .16899109 .44615174 .16899109 .48214723 .16899109 .5001526 .1619873 .53515627 .10998535 .53515627 .14099121 .6060791 .20899964 .62805178 .2559967 .62805178 .35598756 .62805178 .4079895 .5501404 .4079895 .46914674 .4079895 .38212586 .34599305 .3130951 .31399537 .27708436L.07299805 .038986207C.06298828 .02999878 .06298828 .027999878 .06298828 0H.47499085L.5049896 .18203736Z"/>
<path id="font_1_1" d="M.15899658 .07795715C.14898682 .038986207 .14698792 .0309906 .067993167 .0309906 .050994874 .0309906 .039993287 .0309906 .039993287 .011993408 .039993287 0 .04899597 0 .067993167 0H.39898683C.6069946 0 .80400088 .21087647 .80400088 .42974855 .80400088 .5706482 .71899417 .6826172 .56900027 .6826172H.23298645C.21398926 .6826172 .20298767 .6826172 .20298767 .66360476 .20298767 .6516113 .21199036 .6516113 .23199463 .6516113 .24499512 .6516113 .2630005 .65060427 .2749939 .6496124 .29100038 .6476135 .29699708 .64460757 .29699708 .6336212 .29699708 .6296234 .29599 .62661746 .29299928 .614624L.15899658 .07795715M.375 .6136322C.38398744 .64860537 .38598634 .6516113 .42900086 .6516113H.5359955C.6339874 .6516113 .71699526 .5986328 .71699526 .46672059 .71699526 .41775514 .69699099 .25386048 .6119995 .1439209 .58299258 .10694885 .5039978 .0309906 .3809967 .0309906H.2679901C.2539978 .0309906 .2519989 .0309906 .24598694 .03199768 .23599243 .032989503 .23298645 .033996583 .23298645 .041992189 .23298645 .04498291 .23298645 .04698181 .23799134 .064971927L.375 .6136322Z"/>
<path id="font_4_1" d="M.2939911 .64004519C.2939911 .66400149 .2939911 .6660156 .2709961 .6660156 .20899964 .60227969 .12098694 .60227969 .08898926 .60227969V.57128909C.10899353 .57128909 .16799927 .57128909 .21998596 .5972748V.07902527C.21998596 .042999269 .21699524 .0309906 .1269989 .0309906H.09498596V0C.12998963 .0029907227 .21699524 .0029907227 .25698854 .0029907227 .29699708 .0029907227 .38398744 .0029907227 .4189911 0V.0309906H.3869934C.29699708 .0309906 .2939911 .041992189 .2939911 .07902527V.64004519Z"/>
<path id="font_2_81" d="M.5289917 .21325684C.5289917 .3382721 .42199708 .44628907 .28399659 .44628907 .1459961 .44628907 .038986207 .3382721 .038986207 .21325684 .038986207 .0892334 .14898682-.009765625 .28399659-.009765625 .4189911-.009765625 .5289917 .0892334 .5289917 .21325684M.43798829 .22225952C.43798829 .17424011 .43499757 .12124634 .4059906 .08023071 .3789978 .042236329 .33299256 .022232056 .28399659 .022232056 .24699402 .022232056 .19299317 .034225465 .1599884 .083236698 .1329956 .12423706 .12998963 .17625427 .12998963 .22225952 .12998963 .2652588 .1309967 .32426454 .1659851 .36727906 .19099427 .39627076 .23298645 .41827394 .28399659 .41827394 .34298707 .41827394 .3849945 .39027406 .40699769 .3592682 .43499757 .32026673 .43798829 .27026368 .43798829 .22225952Z"/>
<path id="font_2_109" d="M.58999636 0V.035995485C.522995 .035995485 .5149994 .042999269 .5149994 .092056278V.44140626L.36099244 .43052674V.39453126C.42799378 .39439393 .43598939 .3874359 .43598939 .33872987V.16749573C.43598939 .079330448 .3789978 .018234253 .30299378 .018234253 .21199036 .018234253 .20799256 .061309816 .20799256 .11239624V.44140626L.053985597 .43052674V.39453126C.1289978 .39453126 .1289978 .39154054 .1289978 .30273438V.15246582C.1289978 .083343509 .1289978-.009765625 .29599-.009765625 .31799317-.009765625 .3909912-.009765625 .43899537 .07432556H.43998719V-.009765625L.58999636 0Z"/>
<path id="font_2_105" d="M.375 .12606812V.1809845H.34098817V.12705994C.34098817 .059173585 .30899049 .022232056 .269989 .022232056 .20098877 .022232056 .20098877 .10609436 .20098877 .124069217V.39465333H.35699464V.43066407H.20098877V.6142578H.16699219C.1659851 .5244446 .125 .42565919 .0289917 .4226532V.39465333H.12199402V.1250763C.12199402 .01322937 .20599365-.009765625 .2619934-.009765625 .32899476-.010009766 .375 .04699707 .375 .12599182V.12606812Z"/>
</defs>
<path transform="matrix(1.00005,0,0,-1.00002,28.177605,130.73538)" stroke-width=".3985" stroke-linecap="butt" stroke-miterlimit="10" stroke-linejoin="miter" fill="none" stroke="#000000" d="M0 0"/>
<path transform="matrix(1.00005,0,0,-1.00002,28.177605,130.73538)" stroke-width=".3985" stroke-linecap="butt" stroke-miterlimit="10" stroke-linejoin="miter" fill="none" stroke="#000000" d="M0 0V44.78789M0 68.59933V113.38724H40.81941M72.56781 113.38724H113.38724V100.91461M113.38724 69.16623V56.69362 36.28375M113.38724 20.40985V0H56.69362M56.69362 0H0"/>
<path transform="matrix(1.00005,0,0,-1.00002,28.177605,130.73538)" stroke-width=".797" stroke-linecap="butt" stroke-miterlimit="10" stroke-linejoin="miter" fill="none" stroke="#000000" d="M-11.90572 56.69362C-11.90572 50.1182-6.57541 44.78789 0 44.78789 6.57541 44.78789 11.90572 50.1182 11.90572 56.69362 11.90572 63.26903 6.57541 68.59933 0 68.59933-6.57541 68.59933-11.90572 63.26903-11.90572 56.69362ZM0 56.69362"/>
<path transform="matrix(1.00005,0,0,-1.00002,28.177605,130.73538)" stroke-width=".797" stroke-linecap="butt" stroke-miterlimit="10" stroke-linejoin="miter" fill="none" stroke="#000000" d="M5.95285 56.69362C4.98253 55.16971 4.0539 53.7172 2.97643 53.7172 1.89896 53.7172 .97032 55.1697 0 56.69362-.9703 58.21751-1.89894 59.67004-2.97643 59.67004-4.05388 59.67004-4.98251 58.21753-5.95285 56.69362"/>
<use data-text="V" xlink:href="#font_1_4" transform="matrix(9.963098,0,0,-9.962799,.50722506,76.18729)"/>
<use data-text="i" xlink:href="#font_2_66" transform="matrix(6.9741489,0,0,-6.97394,6.318512,77.68132)"/>
<use data-text="n" xlink:href="#font_2_77" transform="matrix(6.9741489,0,0,-6.97394,8.571167,77.68132)"/>
<path transform="matrix(1.00005,0,0,-1.00002,28.177605,130.73538)" stroke-width=".797" stroke-linecap="butt" stroke-linejoin="bevel" fill="none" stroke="#000000" d="M40.42091 113.38724 43.49832 119.34009 48.85614 107.43439 54.21396 119.34009 59.57178 107.43439 64.92958 119.34009 70.2874 107.43439 72.96631 113.38724"/>
<path transform="matrix(1.00005,0,0,-1.00002,28.177605,130.73538)" d="M114.97438 113.38724C114.97438 114.2638 114.2638 114.97438 113.38724 114.97438 112.51067 114.97438 111.80008 114.2638 111.80008 113.38724 111.80008 112.51067 112.51067 111.80008 113.38724 111.80008 114.2638 111.80008 114.97438 112.51067 114.97438 113.38724ZM113.38724 113.38724"/>
<path transform="matrix(1.00005,0,0,-1.00002,28.177605,130.73538)" stroke-width=".3985" stroke-linecap="butt" stroke-miterlimit="10" stroke-linejoin="miter" fill="none" stroke="#000000" d="M114.97438 113.38724C114.97438 114.2638 114.2638 114.97438 113.38724 114.97438 112.51067 114.97438 111.80008 114.2638 111.80008 113.38724 111.80008 112.51067 112.51067 111.80008 113.38724 111.80008 114.2638 111.80008 114.97438 112.51067 114.97438 113.38724ZM113.38724 113.38724"/>
<use data-text="R" xlink:href="#font_1_3" transform="matrix(9.963098,0,0,-9.962799,78.85713,7.5769197)"/>
<use data-text="1" xlink:href="#font_3_1" transform="matrix(6.9741489,0,0,-6.97394,86.421527,9.070953)"/>
<path transform="matrix(1.00005,0,0,-1.00002,28.177605,130.73538)" d="M91.24129 113.38724V111.40298L95.45784 113.38724 91.24129 115.37149Z"/>
<path transform="matrix(1.00005,0,0,-1.00002,28.177605,130.73538)" stroke-width=".3985" stroke-linecap="butt" stroke-miterlimit="10" stroke-linejoin="miter" fill="none" stroke="#000000" d="M91.24129 113.38724V111.40298L95.45784 113.38724 91.24129 115.37149Z"/>
<use data-text="I" xlink:href="#font_1_2" transform="matrix(9.963098,0,0,-9.962799,118.579128,13.826042)"/>
<path transform="matrix(1.00005,0,0,-1.00002,28.177605,130.73538)" stroke-width=".797" stroke-linecap="butt" stroke-linejoin="bevel" fill="none" stroke="#000000" d="M113.38724 101.31313 119.34009 98.2357 107.43439 92.8779 119.34009 87.52008 107.43439 82.16226 119.34009 76.80444 107.43439 71.44662 113.38724 68.76772"/>
<use data-text="R" xlink:href="#font_1_3" transform="matrix(9.963098,0,0,-9.962799,149.72968,47.84072)"/>
<use data-text="2" xlink:href="#font_3_2" transform="matrix(6.9741489,0,0,-6.97394,157.29407,49.334756)"/>
<path transform="matrix(1.00005,0,0,-1.00002,28.177605,130.73538)" stroke-width=".797" stroke-linecap="butt" stroke-miterlimit="10" stroke-linejoin="miter" fill="none" stroke="#000000" d="M113.38724 20.40985 123.30858 36.28375H103.46588Z"/>
<path transform="matrix(1.00005,0,0,-1.00002,28.177605,130.73538)" stroke-width=".797" stroke-linecap="butt" stroke-miterlimit="10" stroke-linejoin="miter" fill="none" stroke="#000000" d="M103.46588 20.40985H123.30858"/>
<path transform="matrix(1.00005,0,0,-1.00002,28.177605,130.73538)" d="M114.97438 0C114.97438 .87656 114.2638 1.58714 113.38724 1.58714 112.51067 1.58714 111.80008 .87656 111.80008 0 111.80008-.87656 112.51067-1.58714 113.38724-1.58714 114.2638-1.58714 114.97438-.87656 114.97438 0ZM113.38724 0"/>
<path transform="matrix(1.00005,0,0,-1.00002,28.177605,130.73538)" stroke-width=".3985" stroke-linecap="butt" stroke-miterlimit="10" stroke-linejoin="miter" fill="none" stroke="#000000" d="M114.97438 0C114.97438 .87656 114.2638 1.58714 113.38724 1.58714 112.51067 1.58714 111.80008 .87656 111.80008 0 111.80008-.87656 112.51067-1.58714 113.38724-1.58714 114.2638-1.58714 114.97438-.87656 114.97438 0ZM113.38724 0"/>
<use data-text="D" xlink:href="#font_1_1" transform="matrix(9.963098,0,0,-9.962799,154.0949,104.53486)"/>
<use data-text="1" xlink:href="#font_4_1" transform="matrix(9.963098,0,0,-9.962799,162.62033,104.53486)"/>
<path transform="matrix(1.00005,0,0,-1.00002,28.177605,130.73538)" stroke-width=".3985" stroke-linecap="butt" stroke-miterlimit="10" stroke-linejoin="miter" fill="none" stroke="#000000" d="M113.38724 113.38724H141.73404M141.73404 113.38724H170.08086"/>
<path transform="matrix(1.00005,0,0,-1.00002,28.177605,130.73538)" d="M171.668 113.38724C171.668 114.2638 170.95742 114.97438 170.08086 114.97438 169.20429 114.97438 168.4937 114.2638 168.4937 113.38724 168.4937 112.51067 169.20429 111.80008 170.08086 111.80008 170.95742 111.80008 171.668 112.51067 171.668 113.38724ZM170.08086 113.38724" fill="#ffffff"/>
<path transform="matrix(1.00005,0,0,-1.00002,28.177605,130.73538)" stroke-width=".3985" stroke-linecap="butt" stroke-miterlimit="10" stroke-linejoin="miter" fill="none" stroke="#000000" d="M171.668 113.38724C171.668 114.2638 170.95742 114.97438 170.08086 114.97438 169.20429 114.97438 168.4937 114.2638 168.4937 113.38724 168.4937 112.51067 169.20429 111.80008 170.08086 111.80008 170.95742 111.80008 171.668 112.51067 171.668 113.38724ZM170.08086 113.38724"/>
<path transform="matrix(1.00005,0,0,-1.00002,28.177605,130.73538)" d="" fill="#ffffff"/>
<path transform="matrix(1.00005,0,0,-1.00002,28.177605,130.73538)" stroke-width=".3985" stroke-linecap="butt" stroke-miterlimit="10" stroke-linejoin="miter" fill="none" stroke="#000000" d=""/>
<path transform="matrix(1.00005,0,0,-1.00002,28.177605,130.73538)" stroke-width=".3985" stroke-linecap="butt" stroke-miterlimit="10" stroke-linejoin="miter" fill="none" stroke="#000000" d="M113.38724 0H141.73404M141.73404 0H170.08086"/>
<path transform="matrix(1.00005,0,0,-1.00002,28.177605,130.73538)" d="M171.668 0C171.668 .87656 170.95742 1.58714 170.08086 1.58714 169.20429 1.58714 168.4937 .87656 168.4937 0 168.4937-.87656 169.20429-1.58714 170.08086-1.58714 170.95742-1.58714 171.668-.87656 171.668 0ZM170.08086 0" fill="#ffffff"/>
<path transform="matrix(1.00005,0,0,-1.00002,28.177605,130.73538)" stroke-width=".3985" stroke-linecap="butt" stroke-miterlimit="10" stroke-linejoin="miter" fill="none" stroke="#000000" d="M171.668 0C171.668 .87656 170.95742 1.58714 170.08086 1.58714 169.20429 1.58714 168.4937 .87656 168.4937 0 168.4937-.87656 169.20429-1.58714 170.08086-1.58714 170.95742-1.58714 171.668-.87656 171.668 0ZM170.08086 0"/>
<path transform="matrix(1.00005,0,0,-1.00002,28.177605,130.73538)" d="" fill="#ffffff"/>
<path transform="matrix(1.00005,0,0,-1.00002,28.177605,130.73538)" stroke-width=".3985" stroke-linecap="butt" stroke-miterlimit="10" stroke-linejoin="miter" fill="none" stroke="#000000" d=""/>
<path transform="matrix(1.00005,0,0,-1.00002,28.177605,130.73538)" stroke-width=".3985" stroke-linecap="butt" stroke-miterlimit="10" stroke-linejoin="miter" fill="none" stroke="#000000" d="M170.08086 56.6936"/>
<use data-text="V" xlink:href="#font_1_4" transform="matrix(9.963098,0,0,-9.962799,189.37168,76.6623)"/>
<use data-text="o" xlink:href="#font_2_81" transform="matrix(6.9741489,0,0,-6.97394,195.18296,78.156337)"/>
<use data-text="u" xlink:href="#font_2_109" transform="matrix(6.9741489,0,0,-6.97394,199.15125,78.156337)"/>
<use data-text="t" xlink:href="#font_2_105" transform="matrix(6.9741489,0,0,-6.97394,203.55194,78.156337)"/>
</svg>
