<svg xmlns="http://www.w3.org/2000/svg" xmlns:xlink="http://www.w3.org/1999/xlink" xmlns:inkscape="http://www.inkscape.org/namespaces/inkscape" version="1.1" width="233" height="170" viewBox="0 0 233 170">
<defs>
<path id="font_1_3" d="M.6049957 .37234498C.6049957 .4173584 .58699038 .4423523 .5649872 .4423523 .5389862 .4423523 .5119934 .41835023 .5119934 .39533998 .5119934 .38534547 .5169983 .37434388 .5269928 .3653412 .5439911 .35032655 .56199648 .32331849 .56199648 .28131105 .56199648 .24130249 .54299929 .1842804 .5119934 .13827515 .48199464 .09526062 .44499208 .06124878 .397995 .06124878 .34098817 .06124878 .30999757 .09725952 .30099488 .15127564 .31199647 .17727661 .33499146 .24130249 .33499146 .26930238 .33499146 .28131105 .32998658 .2913208 .31698609 .2913208 .30899049 .2913208 .2979889 .2893219 .2899933 .27430726 .2789917 .25430299 .2669983 .18928528 .2669983 .15327454 .23399353 .10626221 .19400025 .06124878 .1309967 .06124878 .06498718 .06124878 .04399109 .120269779 .04399109 .17628479 .04399109 .3013153 .1459961 .40634156 .1459961 .4193573 .1459961 .4303589 .13798523 .4383545 .1269989 .4383545 .11399841 .4383545 .10699463 .425354 .100997928 .41635133 .049987794 .34233094 .011993408 .22329712 .011993408 .13226319 .011993408 .06324768 .034988405-.0107421879 .116989139-.0107421879 .18798828-.0107421879 .23498535 .039245607 .2709961 .09425354 .27999879 .036254884 .31900025-.0107421879 .3809967-.0107421879 .45899964-.0107421879 .5069885 .050247194 .54299929 .12527466 .5669861 .17428589 .6049957 .310318 .6049957 .37234498Z"/>
<path id="font_2_1" d="M.5159912 .31925965C.5159912 .42918397 .5029907 .50813296 .45700074 .5780945 .42599488 .62405398 .3639984 .6640625 .28399659 .6640625 .051986696 .6640625 .051986696 .39120484 .051986696 .31925965 .051986696 .2472992 .051986696-.01953125 .28399659-.01953125 .5159912-.01953125 .5159912 .2472992 .5159912 .31925965M.28399659 .008468628C.23799134 .008468628 .1769867 .035446168 .15699768 .117385867 .14299011 .17634583 .14299011 .25830079 .14299011 .33224488 .14299011 .40519715 .14299011 .4811554 .1579895 .53611758 .1789856 .6150665 .24299622 .63604739 .28399659 .63604739 .33799745 .63604739 .3899994 .6030731 .4079895 .545105 .42399598 .4911499 .4249878 .41918946 .4249878 .33224488 .4249878 .25830079 .4249878 .18434143 .4119873 .12138367 .3919983 .030441285 .32398988 .008468628 .28399659 .008468628Z"/>
<path id="font_3_1" d="M.6589966 .23046875C.6759949 .23046875 .69400027 .23046875 .69400027 .25045777 .69400027 .27046205 .6759949 .27046205 .6589966 .27046205H.117996219C.100997928 .27046205 .08299255 .27046205 .08299255 .25045777 .08299255 .23046875 .100997928 .23046875 .117996219 .23046875H.6589966Z"/>
<path id="font_1_1" d="M.2649994 .37265016H.37799073C.34498597 .22489929 .33599855 .18196106 .33599855 .11508179 .33599855 .100097659 .33599855 .073150638 .34399415 .03919983 .35398866-.0047454836 .36499024-.0107421879 .37998963-.0107421879 .3999939-.0107421879 .42099 .007247925 .42099 .02722168 .42099 .033218385 .42099 .035202028 .4149933 .049179079 .38598634 .12106323 .38598634 .18595886 .38598634 .21391297 .38598634 .26683045 .3929901 .32073976 .4039917 .37265016H.5179901C.5309906 .37265016 .5669861 .37265016 .5669861 .406662 .5669861 .43066407 .54599 .43066407 .5269928 .43066407H.19198609C.16999817 .43066407 .13198853 .43066407 .08799744 .38365174 .052993776 .34469605 .026992798 .29878236 .026992798 .29379273 .026992798 .29278565 .026992798 .28379823 .038986207 .28379823 .04699707 .28379823 .04899597 .28779603 .054992677 .29577638 .10398865 .37265016 .1619873 .37265016 .18199158 .37265016H.23899842C.20698548 .25186158 .15299988 .13105774 .11099243 .04020691 .102996829 .025222779 .102996829 .023223877 .102996829 .016235352 .102996829-.002746582 .11898804-.0107421879 .13198853-.0107421879 .1619873-.0107421879 .16999817 .017242432 .18199158 .05418396 .19599915 .100097659 .19599915 .10209656 .20899964 .15202332L.2649994 .37265016Z"/>
<path id="font_1_4" d="M.43899537 .71199038C.44400025 .72499087 .44400025 .72898867 .44400025 .7299957 .44400025 .7409973 .43499757 .75 .42399598 .75 .4169922 .75 .4099884 .746994 .40699769 .7409973L.05999756-.21200562C.054992677-.2250061 .054992677-.2290039 .054992677-.23001099 .054992677-.24101258 .06399536-.25 .07499695-.25 .08799744-.25 .09098816-.24301148 .09700012-.22601319L.43899537 .71199038Z"/>
<path id="font_4_3" d="M.1269989 .07699585 .23298645 .18003845C.3889923 .31811524 .44898988 .3721466 .44898988 .47216798 .44898988 .5860901 .35899354 .6660156 .23699951 .6660156 .12399292 .6660156 .049987794 .57411196 .049987794 .48516847 .049987794 .4291687 .099990848 .4291687 .102996829 .4291687 .11999512 .4291687 .15499878 .44117738 .15499878 .48217774 .15499878 .5081787 .13699341 .5341797 .101989749 .5341797 .09399414 .5341797 .09199524 .5341797 .08898926 .5331726 .11199951 .59806826 .1659851 .63500979 .22399903 .63500979 .31498719 .63500979 .35798646 .5541382 .35798646 .47216798 .35798646 .39215089 .30799867 .31311036 .25299073 .25108338L.06098938 .036987306C.049987794 .025985718 .049987794 .023986817 .049987794 0H.42099L.44898988 .17404175H.42399598C.4189911 .14402771 .4119873 .1000061 .4019928 .084991458 .394989 .07699585 .32899476 .07699585 .30699159 .07699585H.1269989Z"/>
<clipPath id="clip_5">
<path transform="matrix(1.00002,0,0,-1.00002,27.727288,168.29811)" d="M0 0H194.27048V161.39575H0Z"/>
</clipPath>
<path id="font_1_2" d="M.43699647 .67033389C.43699647 .67233279 .43998719 .68333438 .43998719 .6843262 .43998719 .68533328 .43998719 .69433596 .42799378 .69433596 .41799928 .69433596 .4169922 .69132998 .41299439 .67433169L.35499574 .44337464C.19599915 .43836976 .04899597 .30532838 .04899597 .169281 .04899597 .07424927 .11898804-.004776001 .24099732-.011779785 .23298645-.04283142 .22599793-.07489014 .21798706-.10594177 .20599365-.1530304 .19599915-.19108582 .19599915-.1940918 .19599915-.2040863 .20298767-.20507813 .20799256-.20507813 .21299744-.20507813 .21499634-.2040863 .21798706-.20108032 .21998596-.19908142 .22599793-.17506409 .22898865-.16104126L.2669983-.011779785C.42799378-.0067749025 .57299807 .12826538 .57299807 .26231385 .57299807 .3413391 .519989 .43338014 .3809967 .44337464L.43699647 .67033389M.24598694 .010223389C.18598938 .01322937 .11399841 .048233034 .11399841 .14826966 .11399841 .2683258 .19999695 .40837098 .34899903 .42137147L.24598694 .010223389M.375 .42137147C.45098878 .41737367 .5079956 .37135316 .5079956 .2833252 .5079956 .1652832 .42199708 .022232056 .27198792 .010223389L.375 .42137147Z"/>
<path id="font_4_1" d="M.33099366-.2400055C.33099366-.23701477 .33099366-.23500061 .31399537-.21800232 .18899536-.0920105 .15699768 .09700012 .15699768 .25 .15699768 .42399598 .19499207 .59799197 .31799317 .72299197 .33099366 .73498538 .33099366 .7369995 .33099366 .73999026 .33099366 .746994 .32699586 .75 .32099916 .75 .31098939 .75 .22099304 .6819916 .1619873 .5549927 .11099243 .44499208 .09899902 .33399964 .09899902 .25 .09899902 .17199707 .10998535 .050994874 .16499329-.06201172 .22499085-.18501282 .31098939-.25 .32099916-.25 .32699586-.25 .33099366-.24700928 .33099366-.2400055Z"/>
<path id="font_4_2" d="M.2889862 .25C.2889862 .32798768 .27799989 .44898988 .22299195 .56199648 .16299439 .68499758 .07699585 .75 .066986087 .75 .06098938 .75 .056991579 .74598696 .056991579 .73999026 .056991579 .7369995 .056991579 .73498538 .07598877 .71699526 .17399597 .6179962 .23098755 .45899964 .23098755 .25 .23098755 .07899475 .19400025-.09700012 .069992069-.2230072 .056991579-.23500061 .056991579-.23701477 .056991579-.2400055 .056991579-.2460022 .06098938-.25 .066986087-.25 .07699585-.25 .16699219-.18200684 .22599793-.055007936 .2769928 .054992677 .2889862 .16600037 .2889862 .25Z"/>
</defs>
<path transform="matrix(1.00002,0,0,-1.00002,27.727288,168.29811)" stroke-width="1.19553" stroke-linecap="butt" stroke-miterlimit="10" stroke-linejoin="miter" fill="none" stroke="#000000" d="M52.12134 68.38014V78.34323"/>
<path transform="matrix(1.00002,0,0,-1.00002,27.727288,168.29811)" stroke-width="1.19553" stroke-linecap="butt" stroke-miterlimit="10" stroke-linejoin="miter" fill="none" stroke="#000000" d="M-.2431 7.33617H9.71971M-.2431 139.38724H9.71971"/>
<path transform="matrix(1.00002,0,0,-1.00002,27.727288,168.29811)" stroke-width=".3985" stroke-linecap="butt" stroke-miterlimit="10" stroke-linejoin="miter" fill="none" stroke="#000000" d="M0 73.3617H192.27796"/>
<path transform="matrix(1.00002,0,0,-1.00002,220.0091,94.93494)" d="M1.99252 0-1.19551 1.59401 0 0-1.19551-1.59401"/>
<path transform="matrix(1.00002,0,0,-1.00002,27.727288,168.29811)" stroke-width=".3985" stroke-linecap="butt" stroke-miterlimit="10" stroke-linejoin="miter" fill="none" stroke="#000000" d="M4.7383 0V159.40323"/>
<path transform="matrix(0,-1.00002,-1.00002,-0,32.465684,8.891693)" d="M1.99252 0-1.19551 1.59401 0 0-1.19551-1.59401"/>
<use data-text="&#x03c9;" xlink:href="#font_1_3" transform="matrix(9.962799,0,0,-9.962799,74.51422,107.7259)"/>
<use data-text="0" xlink:href="#font_2_1" transform="matrix(6.97394,0,0,-6.97394,80.71535,109.220928)"/>
<use data-text="&#x2212;" xlink:href="#font_3_1" transform="matrix(9.962799,0,0,-9.962799,.21574402,163.45302)"/>
<use data-text="&#x03c0;" xlink:href="#font_1_1" transform="matrix(9.962799,0,0,-9.962799,7.9648897,163.45302)"/>
<use data-text="/" xlink:href="#font_1_4" transform="matrix(9.962799,0,0,-9.962799,13.992386,163.45302)"/>
<use data-text="2" xlink:href="#font_4_3" transform="matrix(9.962799,0,0,-9.962799,18.983109,163.45302)"/>
<use data-text="&#x03c0;" xlink:href="#font_1_1" transform="matrix(9.962799,0,0,-9.962799,7.9648897,31.398362)"/>
<use data-text="/" xlink:href="#font_1_4" transform="matrix(9.962799,0,0,-9.962799,13.992386,31.398362)"/>
<use data-text="2" xlink:href="#font_4_3" transform="matrix(9.962799,0,0,-9.962799,18.983109,31.398362)"/>
<g clip-path="url(#clip_5)">
<path transform="matrix(1.00002,0,0,-1.00002,27.727288,168.29811)" stroke-width=".3985" stroke-linecap="butt" stroke-miterlimit="10" stroke-linejoin="miter" fill="none" stroke="#0000ff" d="M4.7383 139.38724H4.7857 4.83315 4.88057 4.92802 4.97545 5.02287 5.07031 5.11774 5.16515 5.2126 5.26003 5.30746 5.35489 5.40231 5.44975 5.49718 5.54462 5.59204 5.63947 5.6869 5.73433 5.78175 5.8292 5.87662 5.92406 5.97148 6.0189 6.06635 6.11377 6.16121 6.20863 6.25606 6.3035 6.35092 6.39835 6.44579 6.49321 6.54065 6.58807 6.6355 6.68294 6.73036 6.7778 6.82523L6.87265 139.38472H6.92009 6.96751 7.01494 7.06238L7.1098 139.38388H7.15724 7.20467 7.25209L7.29953 139.38346H7.34695 7.3944 7.44183L7.48926 139.38303H7.53668 7.5841 7.63153 7.67897L7.7264 139.38219H7.77385 7.82127L7.8687 139.38135H7.91612 7.96355 8.01099L8.05843 139.38092H8.10585 8.15329L8.20071 139.3801H8.24814 8.29558L8.34299 139.37967H8.39044 8.43787L8.48529 139.37883H8.53273 8.58015L8.6276 139.3784H8.67502 8.72244L8.76988 139.37757H8.8173 8.86473L8.91217 139.37714H8.9596L9.00703 139.37631H9.05446 9.10188L9.14932 139.3759H9.19675L9.24417 139.37505H9.29161 9.33904L9.38647 139.37462H9.4339L9.48132 139.37378H9.52876L9.57619 139.37294H9.62363 9.67105L9.71848 139.37253H9.76591L9.81334 139.37169H9.86076L9.9082 139.37126H9.95563L10.00307 139.37042H10.05049L10.09792 139.37H10.14536L10.19278 139.36916H10.24023L10.28764 139.36873H10.33507L10.3825 139.3679H10.42993L10.47737 139.3675H10.5248L10.57224 139.36664H10.61966L10.6671 139.36621 10.71451 139.36537H10.76195L10.80937 139.36495H10.85681L10.90425 139.36412H10.95168L10.9991 139.36371 11.04654 139.36286H11.09395L11.14139 139.362H11.18883L11.23625 139.36159 11.28369 139.36075H11.3311L11.37856 139.36034H11.42598L11.47342 139.3595 11.52084 139.35909H11.56825L11.6157 139.35823 11.66313 139.3578H11.71056L11.758 139.35697 11.80542 139.35654H11.85286L11.90028 139.35572 11.9477 139.3553H11.99515L12.04257 139.35445 12.09001 139.35359 12.13744 139.35318H12.18486L12.2323 139.35276 12.27972 139.35193H12.32715L12.37459 139.35152 12.42201 139.35068 12.46945 139.34983H12.51688L12.5643 139.3494 12.61174 139.34856 12.65916 139.34813 12.7066 139.3473H12.75403L12.80145 139.3469 12.84889 139.34604 12.89632 139.34561H12.94374L12.99118 139.34519 13.0386 139.34435 13.08604 139.34352 13.13347 139.34311 13.1809 139.34227H13.22833L13.27576 139.34185 13.32318 139.34099 13.37062 139.34056 13.41806 139.33974 13.46548 139.33933 13.51291 139.33849 13.56033 139.33806H13.60777L13.6552 139.3372 13.70264 139.33679 13.75008 139.33594 13.7975 139.33512 13.84494 139.3347 13.89235 139.33386 13.93977 139.33344 13.98721 139.33258 14.03465 139.33216 14.08208 139.33133 14.12952 139.33092 14.17693 139.33008 14.22438 139.32965 14.27179 139.3288 14.31923 139.32839 14.36667 139.32755 14.41408 139.32714 14.46153 139.3263 14.50896 139.32587 14.55638 139.32503 14.60382 139.32418 14.65125 139.32375 14.69867 139.32292 14.74611 139.32251 14.79353 139.32167 14.84097 139.32125 14.8884 139.32039 14.93584 139.31996 14.98326 139.31914 15.03069 139.31873 15.07813 139.31789 15.12553 139.31746 15.17297 139.31662 15.22041 139.31536 15.26784 139.31494 15.31528 139.3141 15.3627 139.31368 15.41013 139.31284 15.45757 139.31198 15.50499 139.31156 15.55243 139.31032 15.59985 139.30948 15.64728 139.30905 15.69472 139.30821 15.74214 139.30779 15.78957 139.30654 15.837 139.3057 15.88443 139.30527 15.93187 139.30443 15.9793 139.304 16.02672 139.30275 16.07416 139.30191 16.12158 139.30149 16.16902 139.30065 16.21645 139.29938 16.26387 139.29897 16.31131 139.29813 16.35873 139.29686 16.40616 139.29602 16.4536 139.2956 16.50102 139.29434 16.54846 139.2935 16.59589 139.29309 16.64331 139.29183 16.69075 139.29097 16.73817 139.29056 16.78561 139.2893 16.83304 139.28847 16.88048 139.28762 16.9279 139.28636 16.97534 139.28594 17.02275 139.28469 17.07019 139.28383 17.11761 139.28342 17.16505 139.28215 17.2125 139.28131 17.2599 139.28006 17.30736 139.27964 17.35478 139.27796 17.4022 139.27754 17.44963 139.27628 17.49706 139.27542 17.5445 139.27417 17.59193 139.27376 17.63934 139.27249 17.6868 139.27165 17.73422 139.27039 17.78166 139.26998 17.82909 139.2687 17.8765 139.26787 17.92395 139.2666 17.97136 139.26535 18.0188 139.26493 18.06624 139.26367 18.11366 139.26282 18.1611 139.26157 18.20853 139.2603 18.25595 139.25946 18.30339 139.25821 18.35081 139.25695 18.39825 139.25652 18.44568 139.25527 18.4931 139.254 18.54054 139.25316 18.58797 139.25189 18.63539 139.25063 18.68283 139.24938 18.73026 139.24854 18.7777 139.24727 18.82512 139.24602 18.87254 139.24475 18.91998 139.24433 18.9674 139.24306 19.01485 139.2418 19.06227 139.24011 19.1097 139.23928 19.15714 139.23761 19.20456 139.23719 19.25198 139.23592 19.29942 139.23465 19.34685 139.2334 19.39429 139.2317 19.44171 139.23087 19.48914 139.22962 19.53658 139.22835 19.584 139.22708 19.63144 139.22542 19.67886 139.22414 19.7263 139.22373 19.77373 139.22162 19.82115 139.2212 19.86858 139.21909 19.91602 139.21784 19.96346 139.21659 20.01088 139.21532 20.05832 139.21405 20.10573 139.2128 20.15318 139.21154 20.20059 139.21027 20.24803 139.20903 20.29546 139.20775 20.34288 139.20648 20.39034 139.20523 20.43776 139.20313 20.48517 139.20186 20.53262 139.20063 20.58005 139.19934 20.62747 139.19808 20.67491 139.19684 20.72232 139.19472 20.76978 139.19347 20.81718 139.19222 20.86464 139.19052 20.91206 139.18926 20.95949 139.18759 21.00693 139.18631 21.05434 139.18465 21.10178 139.18338 21.14922 139.18212 21.19664 139.18003 21.24408 139.17876 21.2915 139.17707 21.33893 139.1754 21.38637 139.17414 21.43378 139.17246 21.48122 139.1712 21.52866 139.16909 21.57608 139.16783 21.62352 139.16614 21.67094 139.16446 21.71837 139.1628 21.76581 139.16152 21.81323 139.15943 21.86067 139.15816 21.9081 139.15607 21.95552 139.15439 22.00296 139.1531 22.05038 139.15102 22.09781 139.14933 22.14525 139.14807 22.19267 139.14597 22.24011 139.14429 22.28754 139.14304 22.33496 139.14092 22.3824 139.13925 22.42982 139.13715 22.47726 139.13588 22.52469 139.13379 22.57211 139.1321 22.61955 139.13 22.66698 139.12831 22.7144 139.12665 22.76184 139.12496 22.80927 139.12287 22.8567 139.12117 22.90414 139.11908 22.95155 139.11739 22.999 139.1153 23.04642 139.11319 23.09386 139.1115 23.14128 139.10982 23.1887 139.10771 23.23616 139.10562 23.28358 139.10393 23.33101 139.10184 23.37843 139.09973 23.42586 139.09722 23.4733 139.09552 23.52074 139.09343 23.56815 139.09175 23.6156 139.08965 23.66301 139.08754 23.71046 139.08502 23.75789 139.08335 23.8053 139.08124 23.85275 139.0787 23.90016 139.07662 23.9476 139.07494 23.99504 139.07242 24.04247 139.07032 24.0899 139.06864 24.13733 139.06612 24.18474 139.06401 24.2322 139.0615 24.27962 139.05939 24.32706 139.05687 24.37448 139.05519 24.4219 139.05225 24.46935 139.05057 24.51677 139.04805 24.5642 139.04552 24.61162 139.04343 24.65906 139.0409 24.7065 139.03838 24.75392 139.03627 24.80135 139.03417 24.84879 139.03124 24.89621 139.0287 24.94365 139.02661 24.99107 139.02408 25.0385 139.02156 25.08594 139.01905 25.13336 139.01653 25.18079 139.01399 25.22823 139.01148 25.27565 139.00896 25.32309 139.00643 25.37051 139.0039 25.41794 139.00098 25.46538 138.99845 25.5128 138.99593 25.56023 138.9934 25.60767 138.99088 25.65509 138.98838 25.70253 138.98499 25.74995 138.98247 25.79738 138.97997 25.84482 138.97742 25.89224 138.97406 25.93968 138.97156H25.9871L26.03453 138.96692H26.08197L26.12941 138.96273 26.17682 138.95851 26.22426 138.95432H26.27168L26.31912 138.95053 26.36656 138.9459H26.41397L26.46143 138.94213 26.50883 138.9375H26.55627L26.6037 138.93372 26.65112 138.9291 26.69858 138.92488H26.74599L26.79343 138.92069 26.84087 138.91649 26.88829 138.9127H26.93573L26.98314 138.90808 27.03056 138.9043 27.07802 138.89966H27.12544L27.17288 138.89589 27.2203 138.89125 27.26773 138.88706 27.31517 138.88285H27.36258L27.41002 138.87865 27.45744 138.87487 27.50488 138.87026 27.55232 138.86646 27.59975 138.86185H27.64717L27.69461 138.85808 27.74203 138.85346 27.78947 138.84925 27.8369 138.84505 27.88432 138.84084 27.93176 138.83707H27.97919L28.02661 138.83245 28.07405 138.82866 28.12148 138.82404 28.16891 138.82025 28.21634 138.81563 28.26376 138.81143 28.3112 138.80722 28.35863 138.80303 28.40607 138.79924 28.45349 138.79462H28.50093L28.54836 138.79084 28.59578 138.78621 28.6432 138.78243 28.69064 138.7778 28.73807 138.77402 28.7855 138.7694 28.83293 138.76519 28.88036 138.76099 28.9278 138.75678 28.97522 138.753 29.02266 138.74839 29.07008 138.7446 29.11751 138.73998 29.16495 138.73619 29.21239 138.73157 29.2598 138.72737 29.30725 138.71897 29.35466 138.71518 29.4021 138.71056 29.44954 138.70677 29.49695 138.70217 29.5444 138.69838 29.59181 138.69376 29.63925 138.68956 29.68669 138.68535 29.7341 138.68115 29.78154 138.67275 29.82896 138.66898 29.8764 138.66436 29.92384 138.66057 29.97125 138.65595 30.0187 138.65174 30.06613 138.64334 30.11356 138.63956 30.161 138.63494 30.2084 138.63115 30.25584 138.62653 30.30327 138.61812 30.35071 138.6139 30.39815 138.60971 30.44557 138.6055 30.493 138.59709 30.54042 138.5933 30.58786 138.58869 30.6353 138.5803 30.68272 138.5761 30.73015 138.5719 30.77759 138.56392 30.82501 138.5593 30.87244 138.55551 30.91988 138.5471 30.9673 138.54248 31.01474 138.53829 31.06216 138.52988 31.10959 138.52568 31.15703 138.5177 31.20445 138.51308 31.25189 138.5093 31.29932 138.50046 31.34674 138.49626 31.39418 138.48786 31.4416 138.48366 31.48903 138.47525 31.53647 138.47148 31.5839 138.46265 31.63133 138.45845 31.67876 138.45006 31.72618 138.44585 31.77362 138.43746 31.82104 138.43367 31.86848 138.42485 31.91591 138.41645 31.96333 138.41225 32.01077 138.40427 32.05821 138.39965 32.10562 138.39124 32.15306 138.38285 32.20049 138.37863 32.24792 138.37024 32.29535 138.36183 32.34277 138.35805 32.39023 138.34923 32.43764 138.34084 32.48509 138.33243 32.5325 138.32865 32.57993 138.31983 32.62737 138.31142 32.67479 138.30301 32.72223 138.29462 32.76967 138.29042 32.8171 138.28203 32.86453 138.27362 32.91194 138.26522 32.95937 138.25682 33.00682 138.24842 33.05423 138.24002 33.10168 138.23162 33.1491 138.2232 33.19653 138.21482 33.24397 138.20684 33.2914 138.19802 33.33882 138.1896 33.38625 138.1812 33.43369 138.1728 33.48112 138.1644 33.52855 138.156 33.57597 138.14763 33.62341 138.13922 33.67084 138.13124 33.71826 138.12242 33.7657 138.10984 33.81313 138.10143 33.86057 138.09345 33.90799 138.08461 33.95541 138.07202 34.00285 138.06363 34.05028 138.05522 34.0977 138.04683 34.14514 138.03423 34.19257 138.02584 34.24 138.01744 34.28743 138.00484 34.33485 137.99645 34.3823 137.98386 34.42972 137.97545 34.47716 137.96288 34.52458 137.95447 34.572 137.94187 34.61945 137.93347 34.66687 137.92089 34.71431 137.91248 34.76173 137.89989 34.80916 137.8873 34.8566 137.87889 34.90402 137.8663 34.95145 137.8537 34.99889 137.84532 35.04631 137.83272 35.09375 137.8197 35.14117 137.80753 35.1886 137.79496 35.23605 137.78655 35.28346 137.77396 35.3309 137.76137 35.37833 137.74877 35.42575 137.73618 35.47319 137.72359 35.52061 137.711 35.56804 137.69843 35.6155 137.68584 35.6629 137.67324 35.71034 137.66066 35.75777 137.64386 35.80519 137.63127 35.85265 137.6187 35.90005 137.6061 35.94751 137.5935 35.99492 137.57672 36.04236 137.56414 36.08978 137.54695 36.1372 137.53479 36.18465 137.5222 36.23207 137.50542 36.27951 137.49283 36.32695 137.47605 36.37437 137.46347 36.4218 137.44669 36.46922 137.4299 36.51665 137.41732 36.5641 137.40055 36.61153 137.38378 36.65895 137.367 36.70639 137.35443 36.75381 137.33766 36.80124 137.32047 36.84868 137.30411 36.8961 137.28733 36.94353 137.27056 36.99097 137.25337 37.03839 137.2366 37.08583 137.22026 37.13326 137.19889 37.1807 137.18253 37.22812 137.16576 37.27554 137.14899 37.32298 137.12802 37.3704 137.11127 37.41783 137.0903 37.46527 137.07357 37.5127 137.0526 37.56013 137.03583 37.60756 137.01488 37.65498 136.99394 37.70242 136.97718 37.74985 136.95624 37.79727 136.93488 37.84471 136.91436 37.89214 136.89342 37.93958 136.87247 37.98701 136.8511 38.03442 136.83016 38.08186 136.80963 38.12929 136.7887 38.17673 136.76735 38.22415 136.74265 38.27158 136.72171 38.31902 136.6966 38.36644 136.67566 38.41388 136.65055 38.4613 136.62961 38.50873 136.6041 38.55617 136.579 38.60359 136.55429 38.65102 136.53296 38.69847 136.50827 38.74588 136.48276 38.79333 136.45766 38.84074 136.42839 38.88817 136.40372 38.93562 136.37862 38.98303 136.3531 39.03047 136.32382 39.0779 136.29875 39.12534 136.26949 39.17278 136.24022 39.2202 136.21558 39.26761 136.1859 39.31505 136.15665 39.36249 136.12738 39.40993 136.09813 39.45734 136.0685 39.50478 136.03925 39.55222 136.00626 39.59964 135.97702 39.64706 135.94403 39.69449 135.91439 39.74193 135.88059 39.78935 135.84761 39.83679 135.81839 39.88422 135.78542 39.93166 135.7512 39.97908 135.71367 40.02652 135.68073 40.07394 135.64694 40.12137 135.60942 40.16881 135.57648 40.21623 135.53896 40.26366 135.50147 40.3111 135.4677 40.35852 135.4302 40.40596 135.38895 40.45338 135.35147 40.50081 135.314 40.54825 135.27194 40.59567 135.23447 40.64311 135.19329 40.69054 135.15125 40.73796 135.11005 40.7854 135.06806 40.83282 135.02689 40.88025 134.98073 40.92769 134.93917 40.97511 134.89344 41.02255 134.8519 41.06998 134.8062 41.1174 134.75595 41.16484 134.71068 41.21227 134.66503 41.2597 134.61563 41.30713 134.57 41.35455 134.51982 41.402 134.47005 41.44942 134.41616 41.49684 134.36602 41.5443 134.31671 41.5917 134.26247 41.63914 134.20864 41.68657 134.15523 41.734 134.10144 41.78143 134.04355 41.82886 133.98523 41.8763 133.93192 41.92372 133.87363 41.97116 133.8121 42.01859 133.75388 42.06601 133.69239 42.11343 133.63008 42.16087 133.56822 42.20831 133.50679 42.25575 133.44046 42.30318 133.37454 42.3506 133.30869 42.39804 133.24285 42.44545 133.17293 42.49289 133.10713 42.54031 133.03318 42.58775 132.96376 42.63518 132.88988 42.68262 132.81972 42.73004 132.74222 42.77748 132.66846 42.8249 132.59024 42.87233 132.51206 42.91977 132.43476 42.9672 132.353 43.01463 132.27129 43.06206 132.18964 43.10948 132.10396 43.15692 132.01795 43.20435 131.9328 43.25179 131.84282 43.29921 131.75334 43.34663 131.6639 43.39407 131.5705 43.4415 131.47716 43.48894 131.37985 43.53636 131.28264 43.58379 131.18592 43.63123 131.08481 43.67865 130.98343 43.72607 130.87812 43.77351 130.7737 43.82094 130.66497 43.86838 130.55635 43.9158 130.44344 43.96323 130.33147 44.01067 130.21881 44.05809 130.1027 44.10553 129.98273 44.15295 129.86292 44.20038 129.73967 44.24782 129.6154 44.29524 129.48892 44.34267 129.35707 44.3901 129.2266 44.43753 129.09198 44.48497 128.95719 44.5324 128.81946 44.57982 128.67765 44.62726 128.53604 44.67468 128.38687 44.72214 128.23798 44.76955 128.0886 44.81697 127.93286 44.86441 127.77707 44.91183 127.61734 44.95926 127.45485 45.0067 127.2881 45.05412 127.11865 45.10158 126.94884 45.149 126.77254 45.19641 126.59593 45.24385 126.41292 45.29128 126.22966 45.33873 126.03972 45.38614 125.84653 45.43358 125.65393 45.481 125.45406 45.52844 125.25146 45.57587 125.04617 45.62329 124.83344 45.67073 124.61812 45.71815 124.39992 45.7656 124.17888 45.81302 123.95103 45.86046 123.71758 45.90788 123.48439 45.9553 123.24174 46.00273 122.99626 46.05017 122.74876 46.09761 122.49179 46.14503 122.23259 46.19246 121.97124 46.2399 121.70082 46.28732 121.42499 46.33476 121.14696 46.38219 120.86067 46.4296 120.5694 46.47705 120.27357 46.52448 119.97203 46.5719 119.66696 46.61934 119.3538 46.66676 119.03284 46.7142 118.70822 46.76163 118.37625 46.80905 118.041 46.85649 117.69566 46.90392 117.34755 46.95135 116.99023 46.99878 116.62723 47.0462 116.25908 47.09364 115.88217 47.14107 115.50047 47.18849 115.11134 47.23593 114.7155 47.28336 114.31305 47.3308 113.9044 47.37822 113.48717 47.42564 113.06444 47.4731 112.63443 47.52051 112.19717 47.56795 111.75404 47.61537 111.30168 47.6628 110.8449 47.71024 110.38026 47.75766 109.9097 47.80508 109.43344 47.85252 108.94743 47.89995 108.45686 47.9474 107.96107 47.99481 107.45576 48.04224 106.94684 48.08968 106.43065 48.1371 105.91383 48.18456 105.38664 48.23196 104.85399 48.2794 104.31699 48.32683 103.77364 48.37425 103.22652 48.42169 102.67502 48.46912 102.1192 48.51656 101.55914 48.56398 100.99567 48.61142 100.42943 48.65884 99.86055 48.70628 99.28777 48.7537 98.71394 48.80113 98.13814 48.84857 97.56078 48.896 96.98222 48.94342 96.40422 48.99086 95.82506 49.03828 95.2464 49.08572 94.66939 49.13315 94.09225 49.18057 93.51807 49.22801 92.9443 49.27542 92.37448 49.32288 91.80737 49.3703 91.2431 49.41774 90.68248 49.46516 90.12703 49.51259 89.57614 49.56003 89.02989 49.60745 88.48874 49.65488 87.95416 49.70232 87.4255 49.74974 86.90353 49.79718 86.38864 49.8446 85.8804 49.89203 85.3804 49.93947 84.88814 49.9869 84.40479 50.03432 83.92906 50.08176 83.46207 50.12918 83.00368 50.17662 82.55574 50.22404 82.11655 50.27147 81.68712 50.31891 81.26811 50.36633 80.85849 50.41377 80.45886 50.4612 80.0698 50.50862 79.6911 50.55606 79.32329 50.60349 78.96573 50.65091 78.61977 50.69835 78.28343 50.74577 77.95934 50.79321 77.6451 50.84064 77.34288 50.88806 77.0511 50.9355 76.77023 50.98293 76.50117 51.03038 76.24275 51.07779 75.99539 51.12521 75.75958 51.17265 75.53453 51.22008 75.3211 51.2675 75.11848 51.31494 74.92795 51.36238 74.74786 51.4098 74.57863 51.45724 74.42068 51.50467 74.27408 51.5521 74.13837 51.59952 74.014 51.64696 73.89969 51.6944 73.79713 51.74182 73.70549 51.78926 73.62482 51.83669 73.55504 51.88411 73.49577 51.93153 73.44743 51.97897 73.4096 52.0264 73.3827 52.07384 73.36673 52.12125 73.3617"/>
<path transform="matrix(1.00002,0,0,-1.00002,27.727288,168.29811)" stroke-width=".3985" stroke-linecap="butt" stroke-miterlimit="10" stroke-linejoin="miter" fill="none" stroke="#0000ff" d="M52.12134 73.3617 52.26363 73.31378 52.40591 73.1713 52.5482 72.93382 52.69049 72.6035 52.8328 72.18129 52.97507 71.66699 53.11737 71.06267 53.25967 70.3698 53.40196 69.5897 53.54425 68.72502 53.68654 67.77707 53.82883 66.75113 53.97112 65.6481 54.1134 64.47414 54.2557 63.23357 54.398 61.93306 54.54028 60.5792 54.68257 59.17725 54.82486 57.73651 54.96715 56.26375 55.10945 54.7685 55.25175 53.2583 55.39403 51.7427 55.53633 50.22774 55.67862 48.72319 55.82089 47.2352 55.9632 45.77094 56.10548 44.33524 56.24779 42.93393 56.39008 41.56989 56.53236 40.25285 56.67465 38.97356 56.81694 37.74078 56.95924 36.55223 57.10153 35.41393 57.24382 34.32205 57.38611 33.27844 57.5284 32.28062 57.67068 31.32426 57.81297 30.41602 57.95528 29.54836 58.09756 28.72055 58.23985 27.93344 58.38216 27.18332 58.52443 26.47083 58.66673 25.7901 58.80902 25.14499 58.95132 24.5262 59.09361 23.93846 59.2359 23.38074 59.37819 22.84883 59.52048 22.33824 59.66277 21.85312 59.80507 21.39284 59.94736 20.95244 60.08965 20.52795 60.23193 20.12746 60.37422 19.7434 60.51651 19.37303 60.6588 19.02408 60.80112 18.68517 60.94339 18.36397 61.0857 18.05795 61.22798 17.75829 61.37025 17.47696 61.51256 17.20305 61.65483 16.94426 61.79715 16.69267 61.93944 16.45247 62.08173 16.21928 62.22401 15.99841 62.3663 15.78436 62.50859 15.57832 62.6509 15.38 62.79318 15.18497 62.93547 15.00217 63.07776 14.82358 63.22005 14.65247 63.36234 14.48886 63.50462 14.32993 63.64693 14.17448 63.78922 14.02705 63.93152 13.88315 64.07379 13.74362 64.2161 13.60803 64.35838 13.47643 64.50069 13.35254 64.64297 13.22935 64.78526 13.11351 64.92755 12.9984 65.06984 12.8869 65.21213 12.77908 65.35442 12.6757 65.49672 12.5727 65.639 12.47708 65.7813 12.3818 65.92358 12.28648 66.06587 12.19528 66.20816 12.10776 66.35046 12.02473 66.49277 11.94211 66.63504 11.86319 66.77734 11.78421 66.91962 11.70941 67.06192 11.63454 67.20421 11.56381 67.3465 11.49266 67.4888 11.4223 67.63107 11.35942 67.77338 11.29318 67.91568 11.23026 68.05794 11.16817 68.20024 11.10939 68.34254 11.051 68.48483 10.99303 68.62714 10.93797 68.76941 10.88412 68.9117 10.82986 69.05399 10.776 69.19629 10.7255 69.3386 10.67955 69.48087 10.629 69.62317 10.58345 69.76544 10.53749 69.90775 10.49152 70.05003 10.44553 70.19232 10.40332 70.33463 10.36192 70.4769 10.31967 70.6192 10.28204 70.76149 10.24062 70.90378 10.20299 71.04607 10.16533 71.18835 10.12766 71.33066 10.09 71.47296 10.0561 71.61523 10.02303 71.75754 9.98535 71.89981 9.95143 72.04211 9.9221 72.18442 9.88863 72.32669 9.85931 72.469 9.82622 72.61127 9.79689 72.75356 9.76714 72.89586 9.73782 73.03816 9.70851 73.18045 9.67917 73.32272 9.65402 73.46503 9.6293 73.60732 9.59996 73.7496 9.5744 73.89189 9.54924 74.03418 9.5245 74.17648 9.49895 74.31877 9.47379 74.46106 9.45282 74.60336 9.42767 74.74562 9.40671 74.88794 9.38155 75.03024 9.36058 75.17252 9.33961 75.31482 9.31863 75.45709 9.29765 75.59938 9.2767 75.74168 9.25572 75.88399 9.23895 76.02628 9.21797 76.16855 9.19699 76.31085 9.18022 76.45314 9.15924 76.59543 9.14247 76.73773 9.12569 76.88 9.10469 77.02231 9.08792 77.16461 9.07114 77.30688 9.05476 77.44919 9.03755 77.59146 9.02077 77.73376 9.00398 77.87607 8.9914 78.01834 8.97462 78.16064 8.95782 78.30292 8.94524 78.44522 8.92844 78.58751 8.91586 78.7298 8.89905 78.8721 8.88646 79.01437 8.86967 79.15668 8.85707 79.29898 8.84448 79.44125 8.8319 79.58356 8.81511 79.72585 8.8025 79.86813 8.78992 80.01044 8.77733 80.15271 8.76472 80.295 8.75212 80.43729 8.73953 80.5796 8.73112 80.7219 8.71854 80.86417 8.70593 81.00647 8.69334 81.14874 8.68495 81.29105 8.67236 81.43335 8.65976 81.57562 8.65137 81.71793 8.63878 81.8602 8.62994 82.0025 8.61777 82.1448 8.60936 82.28706 8.59677 82.42938 8.58836 82.57167 8.57576 82.71396 8.56737 82.85626 8.55898 82.99854 8.54637 83.14082 8.53796 83.28311 8.52957 83.42542 8.52118 83.56772 8.51279 83.70999 8.50018 83.8523 8.49178 83.99457 8.48337 84.13687 8.47498 84.27917 8.46657 84.42145 8.45818 84.56375 8.44977 84.70602 8.44136 84.84833 8.43297 84.99062 8.42456 85.1329 8.41615 85.2752 8.41196 85.41748 8.40355 85.55978 8.39474 85.70209 8.38675 85.84436 8.37836 85.98666 8.36996 86.12894 8.36534 86.27124 8.35693 86.41354 8.34895 86.55582 8.34476 86.69812 8.33635 86.8404 8.32753 86.98268 8.32375 87.125 8.31534 87.26729 8.30695 87.40958 8.30275 87.55185 8.29434 87.69415 8.2897 87.83644 8.2813 87.97873 8.27753 88.12103 8.26912 88.2633 8.26492 88.40561 8.25652 88.5479 8.2519 88.69019 8.24352 88.83249 8.23972 88.97478 8.23553 89.11707 8.22713 89.25937 8.22293 89.40164 8.21872 89.54395 8.21031 89.68622 8.20569 89.8285 8.2019 89.97083 8.19351 90.11311 8.1893 90.2554 8.1851 90.39767 8.17628 90.53998 8.1725 90.68227 8.16788 90.82455 8.1641 90.96686 8.1557 91.10913 8.15149 91.25143 8.1473 91.39374 8.14308 91.53601 8.13846 91.67831 8.13469 91.8206 8.12628 91.96289 8.12166 92.1052 8.11787 92.24747 8.11366 92.38977 8.10947 92.53204 8.10526 92.67435 8.10065 92.81665 8.09685 92.95892 8.09224 93.10123 8.08846 93.2435 8.08383 93.3858 8.08005 93.5281 8.07585 93.6704 8.07166 93.81268 8.06744 93.95497 8.06282 94.09726 8.05904 94.23956 8.05441 94.38184 8.05064 94.52412 8.04602 94.66643 8.04224 94.80873 8.03804 94.95102 8.03383 95.09329 8.02963 95.2356 8.02501 95.37787 8.02122 95.52017 8.01662 95.66248 8.01283 95.80475 8.00821H95.94705L96.08932 8.00443 96.23163 8.00023 96.37393 7.99602 96.5162 7.9918 96.65851 7.98718H96.8008L96.94308 7.9834 97.08539 7.97878 97.22766 7.97499 97.36995 7.97037 97.51225 7.9666H97.65456L97.79684 7.96239 97.93912 7.95819 98.08142 7.95398H98.2237L98.366 7.94937 98.5083 7.94559 98.65057 7.94096H98.79288L98.93515 7.93718 99.07745 7.93256 99.21976 7.92877H99.36205L99.50433 7.92415 99.64662 7.92036H99.78891L99.93121 7.91617 100.07349 7.91196H100.21579L100.35808 7.90776 100.50037 7.90314H100.64267L100.78496 7.89935 100.92725 7.89473H101.06952L101.21184 7.89095 101.35413 7.88632H101.49641L101.6387 7.88255 101.78098 7.87834H101.92328L102.06558 7.87415H102.20787L102.35017 7.86993 102.49245 7.86531H102.63474L102.77704 7.86154H102.91931L103.06161 7.85692H103.2039L103.3462 7.85313 103.4885 7.84851H103.63077L103.77307 7.84473H103.91534L104.05766 7.84053H104.19997L104.34224 7.83632H104.48453L104.62682 7.83212 104.7691 7.82748H104.9114L105.0537 7.82372H105.19598L105.33827 7.81909H105.48056L105.62286 7.81529H105.76514L105.90746 7.81068H106.04973L106.19203 7.80688H106.33432L106.4766 7.8027H106.6189L106.76117 7.79851H106.90349L107.04579 7.7943H107.18805L107.33035 7.78967H107.47264 107.61493L107.75723 7.78589H107.89952L108.04181 7.78127H108.1841L108.3264 7.77748H108.46869L108.61096 7.77286H108.75328 108.89555L109.03786 7.76907H109.18015L109.32242 7.76488H109.46472L109.607 7.76067H109.74931 109.89162L110.03389 7.75647H110.17618L110.31847 7.75183H110.46075 110.60306L110.74535 7.75058 110.88765 7.74933 111.02992 7.74721 111.17221 7.74554 111.31451 7.74385 111.45679 7.74217 111.5991 7.74092 111.74138 7.7388 111.88368 7.73755 112.02597 7.73544 112.16824 7.7346 112.31055 7.73251 112.45282 7.73125 112.59514 7.72998 112.73743 7.72789 112.87971 7.72704 113.022 7.72495 113.16428 7.72368 113.30658 7.72241 113.4489 7.72032 113.59117 7.71906 113.73347 7.71779 113.87575 7.71654 114.01804 7.71443 114.16034 7.71317 114.30261 7.71191 114.44493 7.71065 114.5872 7.70938 114.72949 7.70729 114.8718 7.70602 115.01408 7.70477 115.15637 7.7035 115.29865 7.70224 115.44096 7.70097 115.58325 7.69931 115.72554 7.69762 115.86783 7.69676 116.0101 7.6951 116.1524 7.69383 116.29472 7.69257 116.437 7.69131 116.5793 7.69005 116.72157 7.68878 116.86386 7.68753 117.00616 7.68628 117.14844 7.685 117.29076 7.68375 117.43303 7.6825 117.57533 7.68121 117.71762 7.67996 117.85991 7.67871 118.0022 7.67744 118.14449 7.67618 118.28679 7.67534 118.4291 7.67409 118.57137 7.6728 118.71365 7.67155 118.85593 7.6703 118.99823 7.66904 119.14055 7.66779 119.28282 7.66693 119.42513 7.66568 119.5674 7.6644 119.70969 7.66316 119.85199 7.6619 119.99426 7.66147 120.13658 7.65979 120.27885 7.65895 120.42116 7.65727 120.56345 7.65685 120.70572 7.6556 120.84802 7.65433 120.99031 7.65349 121.13261 7.65222 121.27492 7.65097 121.41719 7.65054 121.55948 7.64929 121.70177 7.64801 121.84406 7.64719 121.98637 7.64592 122.12865 7.64467 122.27094 7.64381 122.41322 7.64299 122.55553 7.64215 122.69781 7.64088 122.8401 7.6396 122.9824 7.63878 123.12468 7.63753 123.26698 7.6371 123.40927 7.63583 123.55154 7.635 123.69385 7.63374 123.83614 7.6329 123.97844 7.63162 124.12074 7.63039 124.26302 7.62996 124.4053 7.6287 124.54759 7.62785 124.68988 7.6266 124.8322 7.62617 124.97447 7.62534 125.11678 7.62407 125.25905 7.62364 125.40134 7.62198 125.54364 7.62155 125.68593 7.62029 125.82823 7.61945 125.9705 7.6182 126.11281 7.61777 126.2551 7.61693 126.39737 7.61566 126.53967 7.61523 126.68196 7.61441 126.82426 7.61314 126.96655 7.61272 127.10884 7.61147 127.25113 7.61063 127.3934 7.6102 127.5357 7.60852 127.67802 7.6081 127.8203 7.60725 127.9626 7.606 128.10488 7.60558 128.24716 7.60515 128.38947 7.60431 128.53176 7.60304 128.67406 7.60222 128.81633 7.60179 128.95862 7.60052 129.10092 7.59969 129.24321 7.59927 129.3855 7.59843 129.52779 7.59717 129.67009 7.59674 129.81238 7.5959 129.95467 7.59506 130.09697 7.59381 130.23923 7.59338 130.38155 7.59254 130.52385 7.59212 130.66613 7.59128 130.80843 7.59003 130.9507 7.5896 131.09299 7.58876 131.23529 7.58835 131.37758 7.5875 131.51988 7.58708 131.66216 7.58583 131.80446 7.58498 131.94675 7.58414 132.08904 7.58371 132.23133 7.58287 132.37361 7.58246 132.51592 7.58162 132.6582 7.58035 132.80049 7.57994 132.94278 7.57909 133.08506 7.57867 133.22737 7.57784 133.36968 7.57742 133.51195 7.57657 133.65425 7.57573 133.79653 7.5753 133.93883 7.57489 134.08112 7.57364 134.2234 7.57278 134.3657 7.57237 134.50798 7.57153 134.65029 7.57068 134.79257 7.57027 134.93485 7.56943 135.07717 7.569 135.21944 7.56816 135.36174 7.56775 135.50405 7.56732 135.64632 7.56648 135.7886 7.56566 135.9309 7.56523 136.0732 7.56438 136.2155 7.56396 136.35778 7.56311 136.50006 7.5627 136.64235 7.56187 136.78466 7.56145 136.92694 7.5606 137.06923 7.56018 137.21154 7.55934 137.3538 7.55891 137.49611 7.55807 137.6384 7.55725 137.78067 7.55682 137.92299 7.55597 138.06526 7.55556 138.20757 7.5547 138.34987 7.55429H138.49214L138.63443 7.55347 138.77672 7.55304 138.91902 7.55219 139.06133 7.55177 139.2036 7.55093 139.34589 7.5505 139.48818 7.54967 139.63047 7.54926 139.77277 7.54842 139.91506 7.54799H140.05736L140.19963 7.54715 140.34194 7.54631 140.48423 7.54588 140.62651 7.54506 140.76882 7.54463 140.91109 7.54378 141.05339 7.54337H141.19568L141.33797 7.54253 141.48026 7.5421 141.62255 7.54128 141.76485 7.54085 141.90715 7.54001 142.04943 7.53958H142.19173L142.334 7.53874 142.47629 7.5379 142.6186 7.53748 142.76088 7.53708 142.90319 7.53622H143.04546L143.18776 7.5358 143.33005 7.53496 143.47234 7.53412H143.61464L143.75691 7.53369 143.89922 7.53287 144.0415 7.53246 144.18379 7.5316H144.3261L144.46836 7.53117 144.61067 7.53033 144.75298 7.5299 144.89525 7.5295H145.03755L145.17983 7.52867 145.32212 7.52782 145.46443 7.52739H145.6067L145.74901 7.52655 145.89128 7.52614 146.03359 7.5253H146.17588L146.31816 7.52489 146.46047 7.52405 146.60274 7.52362H146.74504L146.88735 7.52277 147.02962 7.52235 147.1719 7.52151H147.31421L147.4565 7.52109 147.5988 7.52026H147.74108L147.88338 7.51941 148.02565 7.51898 148.16796 7.51814H148.31026L148.45253 7.51773 148.59484 7.5169H148.7371L148.87941 7.51648 149.0217 7.51564H149.16397L149.30629 7.51521 149.44857 7.51436H149.59087L149.73317 7.51395 149.87545 7.5131H150.01773L150.16004 7.5127 150.30233 7.51186H150.44463L150.5869 7.51143 150.72919 7.51059H150.87148L151.01378 7.51016 151.15608 7.50932H151.29836L151.44066 7.5085 151.58293 7.50807H151.72524L151.86754 7.50723 152.0098 7.5068H152.15212L152.2944 7.50597H152.43669L152.579 7.50554 152.72127 7.50471H152.86356L153.00586 7.5043 153.14815 7.50345H153.29045L153.43273 7.50302H153.57501L153.7173 7.50218 153.8596 7.50175H154.0019L154.14418 7.50092H154.28649L154.42876 7.50009 154.57106 7.49966H154.71335L154.85565 7.49925H154.99794L155.14022 7.4984 155.28252 7.49797H155.42482L155.5671 7.49713H155.70938L155.85169 7.4963H155.99398L156.13628 7.49588 156.27855 7.49504H156.42086L156.56313 7.49461H156.70542L156.84774 7.49377H156.99L157.13231 7.49335 157.27458 7.49251H157.41689L157.55918 7.4921H157.70148L157.84377 7.49168H157.98604L158.12834 7.49084H158.27063L158.41292 7.48999H158.55522L158.6975 7.48956 158.8398 7.48872H158.9821L159.12438 7.48831H159.26668L159.40895 7.48747H159.55126L159.69356 7.48706H159.83583L159.97814 7.4862H160.1204L160.26271 7.48578H160.405L160.5473 7.48494H160.68959L160.83187 7.48412H160.97417L161.11646 7.48369H161.25875L161.40103 7.48328H161.54334L161.68563 7.48242H161.82793L161.9702 7.48158H162.1125L162.25478 7.48116H162.39708L162.53939 7.48032H162.68166L162.82396 7.4799H162.96623L163.10854 7.47906H163.25083L163.39313 7.47864H163.53542L163.67769 7.4778H163.81999L163.9623 7.47737H164.10457L164.24686 7.47653H164.38916 164.53145L164.67375 7.47612H164.81603L164.95833 7.47528H165.1006L165.24292 7.47485H165.38521L165.52748 7.47401H165.66979L165.81206 7.4736H165.95436L166.09667 7.47275H166.23894 166.38124L166.52353 7.47191H166.66582L166.80812 7.4715H166.9504L167.0927 7.47066H167.23499 167.37728L167.51958 7.47023H167.66185L167.80414 7.46939H167.94643L168.08875 7.46896H168.23104 168.3733L168.51561 7.46811H168.65789L168.80019 7.46771H168.94248L169.08477 7.46687H169.22707 169.36934L169.51165 7.46645H169.65395L169.79622 7.4656H169.93852L170.08081 7.46518H170.2231 170.3654L170.50768 7.46434H170.64998L170.79225 7.46391H170.93456 171.07686L171.21913 7.46309H171.36144L171.50371 7.46225H171.64601 171.78832L171.9306 7.46182H172.07289L172.21517 7.4614H172.35747 172.49976L172.64205 7.46056H172.78437 172.92662L173.06893 7.45972H173.21123L173.3535 7.4593H173.4958 173.63808L173.78038 7.45847H173.92269L174.06497 7.45804H174.20726 174.34954L174.49184 7.4572H174.63414 174.77643L174.91872 7.45677H175.06099 175.2033L175.3456 7.45593H175.48787L175.63019 7.45552H175.77245 175.91475L176.05706 7.45468H176.19933 176.34163L176.4839 7.45384H176.62622 176.76851L176.91078 7.45341H177.05309L177.19536 7.453H177.33766 177.47997L177.62226 7.45215H177.76454 177.90682L178.04912 7.45172H178.19142 178.3337L178.476 7.4509H178.61829 178.76058L178.90288 7.45047H179.04515 179.18746L179.32975 7.44963H179.47205 179.61434L179.7566 7.44922H179.89891 180.04119L180.18349 7.44836H180.3258 180.46807L180.61037 7.44795H180.75266 180.89495L181.03725 7.44711H181.17952 181.32183L181.46411 7.44627H181.6064 181.7487L181.89098 7.44585H182.03328 182.17557L182.31787 7.44543H182.46016 182.60243 182.74474L182.88701 7.4446H183.02931 183.17162L183.3139 7.44374H183.45619 183.59848L183.74077 7.44333H183.88307 184.02536L184.16765 7.44249H184.30994 184.45223 184.59453L184.7368 7.44208H184.8791 185.0214L185.1637 7.44124H185.30599 185.44826L185.59056 7.44081H185.73284 185.87514 186.01744L186.15973 7.43996H186.30202 186.44429L186.5866 7.43954H186.7289 186.87119 187.01349L187.15576 7.4387H187.29805 187.44036L187.58263 7.4383H187.72493 187.86722 188.0095L188.15181 7.43745H188.2941 188.43639L188.57866 7.43703H188.72097 188.86327 189.00556L189.14785 7.43619H189.29012 189.43242L189.57472 7.43576H189.71701 189.85932 190.00159L190.14388 7.43492H190.28618 190.42845 190.57076L190.71305 7.43408H190.85533 190.99764 191.13991L191.28221 7.43367H191.42449 191.5668L191.70909 7.43283H191.85138 191.99367 192.13594L192.27825 7.4324H192.42055 192.56284 192.70513L192.84741 7.43155H192.9897 193.132 193.27428L193.41658 7.43115H193.55887 193.70117 193.84346L193.98574 7.4303H194.12804 194.27031"/>
</g>
<use data-text="&#x03c9;" xlink:href="#font_1_3" transform="matrix(9.962799,0,0,-9.962799,225.52124,97.07968)"/>
<use data-text="&#x03d5;" xlink:href="#font_1_2" transform="matrix(9.962799,0,0,-9.962799,35.98545,9.389923)"/>
<use data-text="(" xlink:href="#font_4_1" transform="matrix(9.962799,0,0,-9.962799,41.921579,9.389923)"/>
<use data-text="&#x03c9;" xlink:href="#font_1_3" transform="matrix(9.962799,0,0,-9.962799,45.796655,9.389923)"/>
<use data-text=")" xlink:href="#font_4_2" transform="matrix(9.962799,0,0,-9.962799,52.354776,9.389923)"/>
</svg>
