<svg xmlns="http://www.w3.org/2000/svg" xmlns:xlink="http://www.w3.org/1999/xlink" xmlns:inkscape="http://www.inkscape.org/namespaces/inkscape" version="1.1" width="143" height="121" viewBox="0 0 143 121">
<defs>
<path id="font_1_1" d="M.40899659 .23046875H.6879883C.70199587 .23046875 .72099307 .23046875 .72099307 .25045777 .72099307 .27046205 .70199587 .27046205 .6879883 .27046205H.40899659V.5500183C.40899659 .56399539 .40899659 .5830078 .3889923 .5830078 .36898805 .5830078 .36898805 .56399539 .36898805 .5500183V.27046205H.08898926C.07499695 .27046205 .055999757 .27046205 .055999757 .25045777 .055999757 .23046875 .07499695 .23046875 .08898926 .23046875H.36898805V-.05000305C.36898805-.06401062 .36898805-.08300781 .3889923-.08300781 .40899659-.08300781 .40899659-.06401062 .40899659-.05000305V.23046875Z"/>
<path id="font_2_1" d="M.6589966 .23046875C.6759949 .23046875 .69400027 .23046875 .69400027 .25045777 .69400027 .27046205 .6759949 .27046205 .6589966 .27046205H.117996219C.100997928 .27046205 .08299255 .27046205 .08299255 .25045777 .08299255 .23046875 .100997928 .23046875 .117996219 .23046875H.6589966Z"/>
<path id="font_1_2" d="M.2939911 .64004519C.2939911 .66400149 .2939911 .6660156 .2709961 .6660156 .20899964 .60227969 .12098694 .60227969 .08898926 .60227969V.57128909C.10899353 .57128909 .16799927 .57128909 .21998596 .5972748V.07902527C.21998596 .042999269 .21699524 .0309906 .1269989 .0309906H.09498596V0C.12998963 .0029907227 .21699524 .0029907227 .25698854 .0029907227 .29699708 .0029907227 .38398744 .0029907227 .4189911 0V.0309906H.3869934C.29699708 .0309906 .2939911 .041992189 .2939911 .07902527V.64004519Z"/>
<path id="font_1_3" d="M.1269989 .07699585 .23298645 .18003845C.3889923 .31811524 .44898988 .3721466 .44898988 .47216798 .44898988 .5860901 .35899354 .6660156 .23699951 .6660156 .12399292 .6660156 .049987794 .57411196 .049987794 .48516847 .049987794 .4291687 .099990848 .4291687 .102996829 .4291687 .11999512 .4291687 .15499878 .44117738 .15499878 .48217774 .15499878 .5081787 .13699341 .5341797 .101989749 .5341797 .09399414 .5341797 .09199524 .5341797 .08898926 .5331726 .11199951 .59806826 .1659851 .63500979 .22399903 .63500979 .31498719 .63500979 .35798646 .5541382 .35798646 .47216798 .35798646 .39215089 .30799867 .31311036 .25299073 .25108338L.06098938 .036987306C.049987794 .025985718 .049987794 .023986817 .049987794 0H.42099L.44898988 .17404175H.42399598C.4189911 .14402771 .4119873 .1000061 .4019928 .084991458 .394989 .07699585 .32899476 .07699585 .30699159 .07699585H.1269989Z"/>
<path id="font_1_4" d="M.62098696 .58461C.6349945 .62161257 .6619873 .65060427 .7299957 .6516113V.6826172C.69898989 .680603 .6589966 .6796112 .6329956 .6796112 .6029968 .6796112 .54499819 .6816101 .5189972 .6826172V.6516113C.57099917 .65060427 .59199526 .6246033 .59199526 .6016083 .59199526 .5935974 .58898928 .5876007 .58699038 .581604L.4039917 .09954834 .21299744 .604599C.20698548 .61860659 .20698548 .62060549 .20698548 .62260439 .20698548 .6516113 .2639923 .6516113 .2889862 .6516113V.6826172C.25299073 .6796112 .18399048 .6796112 .1459961 .6796112 .09799194 .6796112 .054992677 .6816101 .018997193 .6826172V.6516113C.083999637 .6516113 .102996829 .6516113 .116989139 .6136017L.34899903-.00047302247C.35598756-.019470215 .36099244-.022460938 .37399293-.022460938 .3909912-.022460938 .3929901-.017471314 .397995-.0034637452L.62098696 .58461Z"/>
<path id="font_3_1" d="M.375 .6136017C.3809967 .63760378 .38398744 .6476135 .40299989 .65060427 .4119873 .6516113 .44400025 .6516113 .46398927 .6516113 .5349884 .6516113 .6459961 .6516113 .6459961 .5525818 .6459961 .51856997 .6299896 .44955445 .59098818 .41055299 .5649872 .38453675 .5119934 .35253907 .42199708 .35253907H.30999757L.375 .6136017M.5189972 .33953858C.6199951 .3615265 .7389984 .43154908 .7389984 .5325775 .7389984 .61860659 .6489868 .6826172 .5179901 .6826172H.23298645C.21299744 .6826172 .20399475 .6826172 .20399475 .6626129 .20399475 .6516113 .21299744 .6516113 .23199463 .6516113 .23399353 .6516113 .25299073 .6516113 .269989 .6496124 .28799439 .6476135 .29699708 .64660647 .29699708 .63360598 .29699708 .62960818 .29599 .6266022 .29299928 .6145935L.15899658 .07752991C.14898682 .038528444 .14698792 .030532837 .067993167 .030532837 .049987794 .030532837 .040985109 .030532837 .040985109 .010528564 .040985109-.00047302247 .052993776-.00047302247 .054992677-.00047302247 .08299255-.00047302247 .15299988 .002532959 .18099976 .002532959 .20899964 .002532959 .27999879-.00047302247 .30799867-.00047302247 .31599427-.00047302247 .32798768-.00047302247 .32798768 .01953125 .32798768 .030532837 .31900025 .030532837 .2999878 .030532837 .2630005 .030532837 .23498535 .030532837 .23498535 .048538209 .23498535 .054534913 .23699951 .059524537 .23799134 .0655365L.3039856 .3305359H.4229889C.5139923 .3305359 .5319977 .27453614 .5319977 .23953247 .5319977 .22453308 .5239868 .19352722 .5179901 .17053223 .5109863 .14253235 .5019989 .105529788 .5019989 .08552551 .5019989-.022460938 .621994-.022460938 .6349945-.022460938 .7200012-.022460938 .7549896 .07853699 .7549896 .0925293 .7549896 .104537967 .74398806 .104537967 .7429962 .104537967 .73399356 .104537967 .7319946 .09753418 .7299957 .090530399 .7049866 .016525269 .6619873-.00047302247 .6389923-.00047302247 .60598757-.00047302247 .598999 .021530152 .598999 .060531618 .598999 .091537479 .6049957 .14253235 .60899356 .17453003 .61099246 .1885376 .61299136 .20753479 .61299136 .2215271 .61299136 .2985382 .54599 .3295288 .5189972 .33953858Z"/>
<path id="font_4_27" d="M.71699526 0V.0309906H.69898989C.6389923 .0309906 .625 .037979127 .6139984 .07095337L.397995 .6958008C.3929901 .7088165 .3909912 .7158203 .375 .7158203 .35899354 .7158203 .35598756 .70980837 .35099793 .6958008L.14399719 .09791565C.12599182 .04698181 .085998538 .03199768 .03199768 .0309906V0L.13398743 .0029907227 .24899292 0V.0309906C.19898987 .0309906 .17399597 .05596924 .17399597 .0819397 .17399597 .08493042 .1749878 .09492493 .17599488 .09692383L.22200012 .2277832H.46899415L.5219879 .07495117C.522995 .07095337 .5249939 .064956668 .5249939 .060958864 .5249939 .0309906 .46899415 .0309906 .44198609 .0309906V0C.47799684 .0029907227 .5479889 .0029907227 .58599856 .0029907227L.71699526 0M.45799256 .25878907H.23298645L.34498597 .58380129 .45799256 .25878907Z"/>
<path id="font_4_34" d="M.651001 .18289185C.651001 .26983644 .56900027 .34480287 .45799256 .35679627 .5549927 .3757782 .6239929 .43974305 .6239929 .51368716 .6239929 .6006317 .5319977 .6826172 .4019928 .6826172H.035995485V.6516113H.05999756C.13699341 .6516113 .13899231 .64060977 .13899231 .6046295V.07795715C.13899231 .041992189 .13699341 .0309906 .05999756 .0309906H.035995485V0H.42799378C.5609894-.0002593994 .651001 .08874512 .651001 .18273926V.18289185M.5269928 .5136719C.5269928 .44970704 .47799684 .36573792 .36698915 .36573792H.22200012V.6116333C.22200012 .64460757 .22399903 .6516113 .2709961 .6516113H.394989C.49198915 .65174868 .5269928 .56674197 .5269928 .51374819V.5136719M.5509949 .18386841C.5509949 .1129303 .49899293 .0309906 .3959961 .0309906H.2709961C.22399903 .0309906 .22200012 .037994386 .22200012 .07095337V.34375H.4099884C.5089874 .34399415 .5509949 .25099183 .5509949 .18399048V.18386841Z"/>
<path id="font_4_42" d="M.6649933 .23271179C.6649933 .24272156 .6649933 .24972534 .6519928 .24972534 .6409912 .24972534 .6409912 .24372864 .6399994 .23371887 .6319885 .09059143 .5249939 .008529663 .41600038 .008529663 .35499574 .008529663 .15899658 .042556764 .15899658 .34080506 .15899658 .64004519 .35398866 .67407229 .4149933 .67407229 .5239868 .67407229 .61299136 .58299258 .6329956 .4368744 .6349945 .42286683 .6349945 .41986085 .6489868 .41986085 .6649933 .41986085 .6649933 .42286683 .6649933 .44387818V.68107607C.6649933 .69807437 .6649933 .7050781 .6539917 .7050781 .6499939 .7050781 .6459961 .7050781 .6380005 .69306948L.58799746 .61901858C.5509949 .6550598 .5 .7050781 .4039917 .7050781 .21699524 .7050781 .055999757 .5459595 .055999757 .34179688 .055999757 .1346283 .21798706-.022460938 .4039917-.022460938 .5669861-.022460938 .6649933 .116622928 .6649933 .23271179Z"/>
</defs>
<path transform="matrix(1.00009,0,0,-1,40.57821,102.387)" stroke-width=".3985" stroke-linecap="butt" stroke-miterlimit="10" stroke-linejoin="miter" fill="none" stroke="#000000" d="M0 85.04042"/>
<path transform="matrix(1.00009,0,0,-1,40.57821,102.387)" stroke-width=".3985" stroke-linecap="butt" stroke-miterlimit="10" stroke-linejoin="miter" fill="none" stroke="#000000" d="M0 85.04042V48.47305M0 36.56735V0H26.64601M58.3944 0H85.04042L85.0404 26.64601M85.0404 58.3944 85.04042 85.04042 58.3944 85.0404M26.64601 85.0404 0 85.04042"/>
<path transform="matrix(1.00009,0,0,-1,40.57821,102.387)" stroke-width=".797" stroke-linecap="butt" stroke-miterlimit="10" stroke-linejoin="miter" fill="none" stroke="#000000" d="M11.90572 48.47305H-11.90572M5.95285 44.50449H-5.95285M11.90572 40.53592H-11.90572M5.95285 36.56735H-5.95285"/>
<use data-text="+" xlink:href="#font_1_1" transform="matrix(9.963496,0,0,-9.9626,20.823433,53.190004)"/>
<use data-text="&#x2212;" xlink:href="#font_2_1" transform="matrix(9.963496,0,0,-9.9626,20.823433,71.525)"/>
<use data-text="1" xlink:href="#font_1_2" transform="matrix(9.963496,0,0,-9.9626,.8896408,63.271)"/>
<use data-text="2" xlink:href="#font_1_3" transform="matrix(9.963496,0,0,-9.9626,5.8713839,63.271)"/>
<use data-text="V" xlink:href="#font_1_4" transform="matrix(9.963496,0,0,-9.9626,12.507065,63.271)"/>
<path transform="matrix(1.00009,0,0,-1,40.57821,102.387)" stroke-width=".797" stroke-linecap="butt" stroke-linejoin="bevel" fill="none" stroke="#000000" d="M26.2475 0 29.3249 5.95285 34.68272-5.95285 40.04054 5.95285 45.39836-5.95285 50.75618 5.95285 56.114-5.95285 58.7929 0"/>
<path transform="matrix(1.00009,0,0,-1,40.57821,102.387)" d="M86.62756 0C86.62756 .87656 85.91698 1.58714 85.04042 1.58714 84.16386 1.58714 83.45328 .87656 83.45328 0 83.45328-.87656 84.16386-1.58714 85.04042-1.58714 85.91698-1.58714 86.62756-.87656 86.62756 0ZM85.04042 0"/>
<path transform="matrix(1.00009,0,0,-1,40.57821,102.387)" stroke-width=".3985" stroke-linecap="butt" stroke-miterlimit="10" stroke-linejoin="miter" fill="none" stroke="#000000" d="M86.62756 0C86.62756 .87656 85.91698 1.58714 85.04042 1.58714 84.16386 1.58714 83.45328 .87656 83.45328 0 83.45328-.87656 84.16386-1.58714 85.04042-1.58714 85.91698-1.58714 86.62756-.87656 86.62756 0ZM85.04042 0"/>
<use data-text="R" xlink:href="#font_3_1" transform="matrix(9.963496,0,0,-9.9626,79.28069,118.914)"/>
<path transform="matrix(1.00009,0,0,-1,40.57821,102.387)" stroke-width=".797" stroke-linecap="butt" stroke-linejoin="bevel" fill="none" stroke="#000000" d="M85.0404 26.2475 79.08755 29.3249 90.99326 34.68272 79.08755 40.04054 90.99326 45.39836 79.08755 50.75618 90.99326 56.114 85.0404 58.7929"/>
<path transform="matrix(1.00009,0,0,-1,40.57821,102.387)" d="M86.62756 85.04042C86.62756 85.91698 85.91698 86.62756 85.04042 86.62756 84.16386 86.62756 83.45328 85.91698 83.45328 85.04042 83.45328 84.16386 84.16386 83.45328 85.04042 83.45328 85.91698 83.45328 86.62756 84.16386 86.62756 85.04042ZM85.04042 85.04042"/>
<path transform="matrix(1.00009,0,0,-1,40.57821,102.387)" stroke-width=".3985" stroke-linecap="butt" stroke-miterlimit="10" stroke-linejoin="miter" fill="none" stroke="#000000" d="M86.62756 85.04042C86.62756 85.91698 85.91698 86.62756 85.04042 86.62756 84.16386 86.62756 83.45328 85.91698 83.45328 85.04042 83.45328 84.16386 84.16386 83.45328 85.04042 83.45328 85.91698 83.45328 86.62756 84.16386 86.62756 85.04042ZM85.04042 85.04042"/>
<use data-text="R" xlink:href="#font_3_1" transform="matrix(9.963496,0,0,-9.9626,133.78559,62.014)"/>
<path transform="matrix(1.00009,0,0,-1,40.57821,102.387)" stroke-width=".797" stroke-linecap="butt" stroke-linejoin="bevel" fill="none" stroke="#000000" d="M58.7929 85.0404 55.71548 79.08755 50.35767 90.99326 44.99986 79.08755 39.64204 90.99326 34.28423 79.08755 28.9264 90.99326 26.2475 85.0404"/>
<path transform="matrix(1.00009,0,0,-1,40.57821,102.387)" d="M1.58714 85.04042C1.58714 85.91698 .87656 86.62756 0 86.62756-.87656 86.62756-1.58714 85.91698-1.58714 85.04042-1.58714 84.16386-.87656 83.45328 0 83.45328 .87656 83.45328 1.58714 84.16386 1.58714 85.04042ZM0 85.04042"/>
<path transform="matrix(1.00009,0,0,-1,40.57821,102.387)" stroke-width=".3985" stroke-linecap="butt" stroke-miterlimit="10" stroke-linejoin="miter" fill="none" stroke="#000000" d="M1.58714 85.04042C1.58714 85.91698 .87656 86.62756 0 86.62756-.87656 86.62756-1.58714 85.91698-1.58714 85.04042-1.58714 84.16386-.87656 83.45328 0 83.45328 .87656 83.45328 1.58714 84.16386 1.58714 85.04042ZM0 85.04042"/>
<use data-text="R" xlink:href="#font_3_1" transform="matrix(9.963496,0,0,-9.9626,79.28069,7.578003)"/>
<path transform="matrix(1.00009,0,0,-1,40.57821,102.387)" stroke-width=".3985" stroke-linecap="butt" stroke-miterlimit="10" stroke-linejoin="miter" fill="none" stroke="#000000" d="M0 85.04042"/>
<use data-text="A" xlink:href="#font_4_27" transform="matrix(9.963496,0,0,-9.9626,29.58522,13.8270039)"/>
<path transform="matrix(1.00009,0,0,-1,40.57821,102.387)" stroke-width=".3985" stroke-linecap="butt" stroke-miterlimit="10" stroke-linejoin="miter" fill="none" stroke="#000000" d="M85.04042 85.04042"/>
<use data-text="B" xlink:href="#font_4_34" transform="matrix(9.963496,0,0,-9.9626,129.14618,13.8270039)"/>
<path transform="matrix(1.00009,0,0,-1,40.57821,102.387)" stroke-width=".3985" stroke-linecap="butt" stroke-miterlimit="10" stroke-linejoin="miter" fill="none" stroke="#000000" d="M85.04042 0"/>
<use data-text="C" xlink:href="#font_4_42" transform="matrix(9.963496,0,0,-9.9626,129.14618,112.931)"/>
</svg>
