<svg xmlns="http://www.w3.org/2000/svg" xmlns:xlink="http://www.w3.org/1999/xlink" xmlns:inkscape="http://www.inkscape.org/namespaces/inkscape" version="1.1" width="112" height="117" viewBox="0 0 112 117">
<path transform="matrix(1.00006,0,0,-1,13.201706,115.185)" stroke-width=".3985" stroke-linecap="butt" stroke-miterlimit="10" stroke-linejoin="miter" fill="none" stroke="#000000" d="M0 0"/>
<path transform="matrix(1.00006,0,0,-1,13.201706,115.185)" stroke-width=".3985" stroke-linecap="butt" stroke-miterlimit="10" stroke-linejoin="miter" fill="none" stroke="#000000" d="M0 0V50.74075M0 62.64647V113.38724H42.5202M42.5202 113.38724H85.04042L85.0404 100.91461M85.0404 69.16623 85.04042 56.69362 85.0404 34.29965M85.0404 22.39395 85.04042 0H42.5202M42.5202 0H0"/>
<path transform="matrix(1.00006,0,0,-1,13.201706,115.185)" stroke-width=".797" stroke-linecap="butt" stroke-miterlimit="10" stroke-linejoin="miter" fill="none" stroke="#000000" d="M-11.90572 62.64647H11.90572M-5.95285 58.6779H5.95285M-11.90572 54.70934H11.90572M-5.95285 50.74075H5.95285"/>
<path transform="matrix(1.00006,0,0,-1,13.201706,115.185)" stroke-width=".797" stroke-linecap="butt" stroke-linejoin="bevel" fill="none" stroke="#000000" d="M85.0404 101.31313 90.99326 98.2357 79.08755 92.8779 90.99326 87.52008 79.08755 82.16226 90.99326 76.80444 79.08755 71.44662 85.0404 68.76772"/>
<path transform="matrix(1.00006,0,0,-1,13.201706,115.185)" stroke-width=".797" stroke-linecap="butt" stroke-miterlimit="10" stroke-linejoin="miter" fill="none" stroke="#000000" d="M96.94612 34.29965H73.13469M90.99326 30.33109H79.08755M96.94612 26.36252H73.13469M90.99326 22.39395H79.08755"/>
</svg>
