<svg xmlns="http://www.w3.org/2000/svg" xmlns:xlink="http://www.w3.org/1999/xlink" xmlns:inkscape="http://www.inkscape.org/namespaces/inkscape" version="1.1" width="177" height="100" viewBox="0 0 177 100">
<defs>
<path id="font_1_1" d="M.375 .6136017C.3809967 .63760378 .38398744 .6476135 .40299989 .65060427 .4119873 .6516113 .44400025 .6516113 .46398927 .6516113 .5349884 .6516113 .6459961 .6516113 .6459961 .5525818 .6459961 .51856997 .6299896 .44955445 .59098818 .41055299 .5649872 .38453675 .5119934 .35253907 .42199708 .35253907H.30999757L.375 .6136017M.5189972 .33953858C.6199951 .3615265 .7389984 .43154908 .7389984 .5325775 .7389984 .61860659 .6489868 .6826172 .5179901 .6826172H.23298645C.21299744 .6826172 .20399475 .6826172 .20399475 .6626129 .20399475 .6516113 .21299744 .6516113 .23199463 .6516113 .23399353 .6516113 .25299073 .6516113 .269989 .6496124 .28799439 .6476135 .29699708 .64660647 .29699708 .63360598 .29699708 .62960818 .29599 .6266022 .29299928 .6145935L.15899658 .07752991C.14898682 .038528444 .14698792 .030532837 .067993167 .030532837 .049987794 .030532837 .040985109 .030532837 .040985109 .010528564 .040985109-.00047302247 .052993776-.00047302247 .054992677-.00047302247 .08299255-.00047302247 .15299988 .002532959 .18099976 .002532959 .20899964 .002532959 .27999879-.00047302247 .30799867-.00047302247 .31599427-.00047302247 .32798768-.00047302247 .32798768 .01953125 .32798768 .030532837 .31900025 .030532837 .2999878 .030532837 .2630005 .030532837 .23498535 .030532837 .23498535 .048538209 .23498535 .054534913 .23699951 .059524537 .23799134 .0655365L.3039856 .3305359H.4229889C.5139923 .3305359 .5319977 .27453614 .5319977 .23953247 .5319977 .22453308 .5239868 .19352722 .5179901 .17053223 .5109863 .14253235 .5019989 .105529788 .5019989 .08552551 .5019989-.022460938 .621994-.022460938 .6349945-.022460938 .7200012-.022460938 .7549896 .07853699 .7549896 .0925293 .7549896 .104537967 .74398806 .104537967 .7429962 .104537967 .73399356 .104537967 .7319946 .09753418 .7299957 .090530399 .7049866 .016525269 .6619873-.00047302247 .6389923-.00047302247 .60598757-.00047302247 .598999 .021530152 .598999 .060531618 .598999 .091537479 .6049957 .14253235 .60899356 .17453003 .61099246 .1885376 .61299136 .20753479 .61299136 .2215271 .61299136 .2985382 .54599 .3295288 .5189972 .33953858Z"/>
</defs>
<path transform="matrix(1.00005,0,0,-1.00002,3.6832276,96.960628)" stroke-width=".3985" stroke-linecap="butt" stroke-miterlimit="10" stroke-linejoin="miter" fill="none" stroke="#000000" d="M0 0"/>
<path transform="matrix(1.00005,0,0,-1.00002,3.6832276,96.960628)" stroke-width=".3985" stroke-linecap="butt" stroke-miterlimit="10" stroke-linejoin="miter" fill="none" stroke="#000000" d="M0 0H42.5202M42.5202 0H85.04042 127.56062M127.56062 0H170.08086"/>
<path transform="matrix(1.00005,0,0,-1.00002,3.6832276,96.960628)" d="M1.58714 0C1.58714 .87656 .87656 1.58714 0 1.58714-.87656 1.58714-1.58714 .87656-1.58714 0-1.58714-.87656-.87656-1.58714 0-1.58714 .87656-1.58714 1.58714-.87656 1.58714 0ZM0 0" fill="#ffffff"/>
<path transform="matrix(1.00005,0,0,-1.00002,3.6832276,96.960628)" stroke-width=".3985" stroke-linecap="butt" stroke-miterlimit="10" stroke-linejoin="miter" fill="none" stroke="#000000" d="M1.58714 0C1.58714 .87656 .87656 1.58714 0 1.58714-.87656 1.58714-1.58714 .87656-1.58714 0-1.58714-.87656-.87656-1.58714 0-1.58714 .87656-1.58714 1.58714-.87656 1.58714 0ZM0 0"/>
<path transform="matrix(1.00005,0,0,-1.00002,3.6832276,96.960628)" d="" fill="#ffffff"/>
<path transform="matrix(1.00005,0,0,-1.00002,3.6832276,96.960628)" stroke-width=".3985" stroke-linecap="butt" stroke-miterlimit="10" stroke-linejoin="miter" fill="none" stroke="#000000" d=""/>
<path transform="matrix(1.00005,0,0,-1.00002,3.6832276,96.960628)" d="M86.62756 0C86.62756 .87656 85.91698 1.58714 85.04042 1.58714 84.16386 1.58714 83.45328 .87656 83.45328 0 83.45328-.87656 84.16386-1.58714 85.04042-1.58714 85.91698-1.58714 86.62756-.87656 86.62756 0ZM85.04042 0"/>
<path transform="matrix(1.00005,0,0,-1.00002,3.6832276,96.960628)" stroke-width=".3985" stroke-linecap="butt" stroke-miterlimit="10" stroke-linejoin="miter" fill="none" stroke="#000000" d="M86.62756 0C86.62756 .87656 85.91698 1.58714 85.04042 1.58714 84.16386 1.58714 83.45328 .87656 83.45328 0 83.45328-.87656 84.16386-1.58714 85.04042-1.58714 85.91698-1.58714 86.62756-.87656 86.62756 0ZM85.04042 0"/>
<path transform="matrix(1.00005,0,0,-1.00002,3.6832276,96.960628)" d="M171.668 0C171.668 .87656 170.95742 1.58714 170.08086 1.58714 169.20429 1.58714 168.4937 .87656 168.4937 0 168.4937-.87656 169.20429-1.58714 170.08086-1.58714 170.95742-1.58714 171.668-.87656 171.668 0ZM170.08086 0" fill="#ffffff"/>
<path transform="matrix(1.00005,0,0,-1.00002,3.6832276,96.960628)" stroke-width=".3985" stroke-linecap="butt" stroke-miterlimit="10" stroke-linejoin="miter" fill="none" stroke="#000000" d="M171.668 0C171.668 .87656 170.95742 1.58714 170.08086 1.58714 169.20429 1.58714 168.4937 .87656 168.4937 0 168.4937-.87656 169.20429-1.58714 170.08086-1.58714 170.95742-1.58714 171.668-.87656 171.668 0ZM170.08086 0"/>
<path transform="matrix(1.00005,0,0,-1.00002,3.6832276,96.960628)" d="" fill="#ffffff"/>
<path transform="matrix(1.00005,0,0,-1.00002,3.6832276,96.960628)" stroke-width=".3985" stroke-linecap="butt" stroke-miterlimit="10" stroke-linejoin="miter" fill="none" stroke="#000000" d=""/>
<path transform="matrix(1.00005,0,0,-1.00002,3.6832276,96.960628)" stroke-width=".3985" stroke-linecap="butt" stroke-miterlimit="10" stroke-linejoin="miter" fill="none" stroke="#000000" d="M0 85.04045 34.58325 85.04044M50.45715 85.04044 85.04042 85.04045 127.56062 85.04044M127.56062 85.04044 170.08086 85.04045"/>
<path transform="matrix(1.00005,0,0,-1.00002,3.6832276,96.960628)" stroke-width=".797" stroke-linecap="butt" stroke-miterlimit="10" stroke-linejoin="miter" fill="none" stroke="#000000" d="M50.45715 85.04044 34.58325 94.96178V75.1191Z"/>
<path transform="matrix(1.00005,0,0,-1.00002,3.6832276,96.960628)" stroke-width=".797" stroke-linecap="butt" stroke-miterlimit="10" stroke-linejoin="miter" fill="none" stroke="#000000" d="M50.45715 75.1191V94.96178"/>
<path transform="matrix(1.00005,0,0,-1.00002,3.6832276,96.960628)" d="M1.58714 85.04045C1.58714 85.917 .87656 86.6276 0 86.6276-.87656 86.6276-1.58714 85.917-1.58714 85.04045-1.58714 84.1639-.87656 83.45331 0 83.45331 .87656 83.45331 1.58714 84.1639 1.58714 85.04045ZM0 85.04045" fill="#ffffff"/>
<path transform="matrix(1.00005,0,0,-1.00002,3.6832276,96.960628)" stroke-width=".3985" stroke-linecap="butt" stroke-miterlimit="10" stroke-linejoin="miter" fill="none" stroke="#000000" d="M1.58714 85.04045C1.58714 85.917 .87656 86.6276 0 86.6276-.87656 86.6276-1.58714 85.917-1.58714 85.04045-1.58714 84.1639-.87656 83.45331 0 83.45331 .87656 83.45331 1.58714 84.1639 1.58714 85.04045ZM0 85.04045"/>
<path transform="matrix(1.00005,0,0,-1.00002,3.6832276,96.960628)" d="" fill="#ffffff"/>
<path transform="matrix(1.00005,0,0,-1.00002,3.6832276,96.960628)" stroke-width=".3985" stroke-linecap="butt" stroke-miterlimit="10" stroke-linejoin="miter" fill="none" stroke="#000000" d=""/>
<path transform="matrix(1.00005,0,0,-1.00002,3.6832276,96.960628)" d="M86.62756 85.04045C86.62756 85.917 85.91698 86.6276 85.04042 86.6276 84.16386 86.6276 83.45328 85.917 83.45328 85.04045 83.45328 84.1639 84.16386 83.45331 85.04042 83.45331 85.91698 83.45331 86.62756 84.1639 86.62756 85.04045ZM85.04042 85.04045"/>
<path transform="matrix(1.00005,0,0,-1.00002,3.6832276,96.960628)" stroke-width=".3985" stroke-linecap="butt" stroke-miterlimit="10" stroke-linejoin="miter" fill="none" stroke="#000000" d="M86.62756 85.04045C86.62756 85.917 85.91698 86.6276 85.04042 86.6276 84.16386 86.6276 83.45328 85.917 83.45328 85.04045 83.45328 84.1639 84.16386 83.45331 85.04042 83.45331 85.91698 83.45331 86.62756 84.1639 86.62756 85.04045ZM85.04042 85.04045"/>
<path transform="matrix(1.00005,0,0,-1.00002,3.6832276,96.960628)" d="M171.668 85.04045C171.668 85.917 170.95742 86.6276 170.08086 86.6276 169.20429 86.6276 168.4937 85.917 168.4937 85.04045 168.4937 84.1639 169.20429 83.45331 170.08086 83.45331 170.95742 83.45331 171.668 84.1639 171.668 85.04045ZM170.08086 85.04045" fill="#ffffff"/>
<path transform="matrix(1.00005,0,0,-1.00002,3.6832276,96.960628)" stroke-width=".3985" stroke-linecap="butt" stroke-miterlimit="10" stroke-linejoin="miter" fill="none" stroke="#000000" d="M171.668 85.04045C171.668 85.917 170.95742 86.6276 170.08086 86.6276 169.20429 86.6276 168.4937 85.917 168.4937 85.04045 168.4937 84.1639 169.20429 83.45331 170.08086 83.45331 170.95742 83.45331 171.668 84.1639 171.668 85.04045ZM170.08086 85.04045"/>
<path transform="matrix(1.00005,0,0,-1.00002,3.6832276,96.960628)" d="" fill="#ffffff"/>
<path transform="matrix(1.00005,0,0,-1.00002,3.6832276,96.960628)" stroke-width=".3985" stroke-linecap="butt" stroke-miterlimit="10" stroke-linejoin="miter" fill="none" stroke="#000000" d=""/>
<path transform="matrix(1.00005,0,0,-1.00002,3.6832276,96.960628)" stroke-width=".3985" stroke-linecap="butt" stroke-miterlimit="10" stroke-linejoin="miter" fill="none" stroke="#000000" d="M85.04042 0 85.0404 26.64603M85.0404 58.39441 85.04042 85.04045"/>
<path transform="matrix(1.00005,0,0,-1.00002,3.6832276,96.960628)" stroke-width=".797" stroke-linecap="butt" stroke-linejoin="bevel" fill="none" stroke="#000000" d="M85.0404 26.24751 79.08755 29.32492 90.99326 34.68274 79.08755 40.04056 90.99326 45.39838 79.08755 50.7562 90.99326 56.11401 85.0404 58.79291"/>
<use data-text="R" xlink:href="#font_1_1" transform="matrix(9.963098,0,0,-9.962799,72.92668,56.586816)"/>
</svg>
