<svg xmlns="http://www.w3.org/2000/svg" xmlns:xlink="http://www.w3.org/1999/xlink" xmlns:inkscape="http://www.inkscape.org/namespaces/inkscape" version="1.1" width="194" height="161" viewBox="0 0 194 161">
<defs>
<path id="font_1_2" d="M.40899659 .23046875H.6879883C.70199587 .23046875 .72099307 .23046875 .72099307 .25045777 .72099307 .27046205 .70199587 .27046205 .6879883 .27046205H.40899659V.5500183C.40899659 .56399539 .40899659 .5830078 .3889923 .5830078 .36898805 .5830078 .36898805 .56399539 .36898805 .5500183V.27046205H.08898926C.07499695 .27046205 .055999757 .27046205 .055999757 .25045777 .055999757 .23046875 .07499695 .23046875 .08898926 .23046875H.36898805V-.05000305C.36898805-.06401062 .36898805-.08300781 .3889923-.08300781 .40899659-.08300781 .40899659-.06401062 .40899659-.05000305V.23046875Z"/>
<path id="font_2_1" d="M.6589966 .23046875C.6759949 .23046875 .69400027 .23046875 .69400027 .25045777 .69400027 .27046205 .6759949 .27046205 .6589966 .27046205H.117996219C.100997928 .27046205 .08299255 .27046205 .08299255 .25045777 .08299255 .23046875 .100997928 .23046875 .117996219 .23046875H.6589966Z"/>
<path id="font_1_5" d="M.13198853 .327713V.35173036C.13198853 .6047821 .2559967 .64100649 .30699159 .64100649 .33099366 .64100649 .37298585 .634964 .394989 .6007538 .37998963 .6007538 .33999635 .6007538 .33999635 .5557556 .33999635 .524765 .3639984 .5097656 .38598634 .5097656 .4019928 .5097656 .43199159 .51875308 .43199159 .5577545 .43199159 .6178589 .3880005 .6660156 .30499269 .6660156 .1769867 .6660156 .041992189 .5367584 .041992189 .31570436 .041992189 .048553468 .1579895-.022460938 .25099183-.022460938 .3619995-.022460938 .45700074 .07156372 .45700074 .2036438 .45700074 .33070375 .36799623 .4267578 .25698854 .4267578 .18899536 .4267578 .1519928 .37573243 .13198853 .327713M.25099183 .0055389406C.18798828 .0055389406 .1579895 .06556702 .1519928 .080566409 .13398743 .127594 .13398743 .2076416 .13398743 .22564698 .13398743 .30369569 .1659851 .40374757 .2559967 .40374757 .27198792 .40374757 .31799317 .40374757 .34899903 .34172059 .36698915 .30470277 .36698915 .2536621 .36698915 .20463562 .36698915 .15661621 .36698915 .10658264 .34999085 .0705719 .31999208 .010528564 .27398683 .0055389406 .25099183 .0055389406Z"/>
<path id="font_1_6" d="M.62098696 .58461C.6349945 .62161257 .6619873 .65060427 .7299957 .6516113V.6826172C.69898989 .680603 .6589966 .6796112 .6329956 .6796112 .6029968 .6796112 .54499819 .6816101 .5189972 .6826172V.6516113C.57099917 .65060427 .59199526 .6246033 .59199526 .6016083 .59199526 .5935974 .58898928 .5876007 .58699038 .581604L.4039917 .09954834 .21299744 .604599C.20698548 .61860659 .20698548 .62060549 .20698548 .62260439 .20698548 .6516113 .2639923 .6516113 .2889862 .6516113V.6826172C.25299073 .6796112 .18399048 .6796112 .1459961 .6796112 .09799194 .6796112 .054992677 .6816101 .018997193 .6826172V.6516113C.083999637 .6516113 .102996829 .6516113 .116989139 .6136017L.34899903-.00047302247C.35598756-.019470215 .36099244-.022460938 .37399293-.022460938 .3909912-.022460938 .3929901-.017471314 .397995-.0034637452L.62098696 .58461Z"/>
<path id="font_1_4" d="M.2939911 .64004519C.2939911 .66400149 .2939911 .6660156 .2709961 .6660156 .20899964 .60227969 .12098694 .60227969 .08898926 .60227969V.57128909C.10899353 .57128909 .16799927 .57128909 .21998596 .5972748V.07902527C.21998596 .042999269 .21699524 .0309906 .1269989 .0309906H.09498596V0C.12998963 .0029907227 .21699524 .0029907227 .25698854 .0029907227 .29699708 .0029907227 .38398744 .0029907227 .4189911 0V.0309906H.3869934C.29699708 .0309906 .2939911 .041992189 .2939911 .07902527V.64004519Z"/>
<path id="font_1_3" d="M.45999146 .31976319C.45999146 .39982606 .45498658 .47988893 .41999818 .5539398 .37399293 .65000918 .2919922 .6660156 .25 .6660156 .18998719 .6660156 .116989139 .64001467 .07598877 .54693606 .04399109 .47789 .038986207 .39982606 .038986207 .31976319 .038986207 .24472046 .042999269 .15464783 .083999637 .07859802 .1269989-.0024719239 .19999695-.022460938 .24899292-.022460938 .30299378-.022460938 .3789978-.0014648438 .4229889 .09359741 .45498658 .16265869 .45999146 .2407074 .45999146 .31976319M.24899292-.00047302247C.20999146-.00047302247 .15098572 .024551392 .1329956 .12062073 .12199402 .18066406 .12199402 .2727356 .12199402 .3317871 .12199402 .39582826 .12199402 .46188355 .12998963 .5159149 .14898682 .63500979 .22399903 .64401248 .24899292 .64401248 .28199769 .64401248 .34799195 .6259918 .36698915 .52693179 .3769989 .47088624 .3769989 .39482118 .3769989 .3317871 .3769989 .25672914 .3769989 .18867493 .3659973 .12461853 .35099793 .029556275 .2939911-.00047302247 .24899292-.00047302247Z"/>
<path id="font_1_7" d="M.10598755 .07595825C.10598755 .0309906 .09498596 .0309906 .027999878 .0309906V0C.06098938 .0009918213 .10798645 .0029907227 .13699341 .0029907227 .16699219 .0029907227 .20698548 .0019989014 .24699402 0V.0309906C.17999268 .0309906 .16899109 .0309906 .16899109 .07595825V.17886353L.23298645 .23381043C.30999757 .12789917 .35198976 .07196045 .35198976 .053970338 .35198976 .034988405 .33499146 .0309906 .31599427 .0309906V0C.34399415 .0009918213 .40299989 .0029907227 .42399598 .0029907227 .45298768 .0029907227 .48199464 .0019989014 .5109863 0V.0309906C.47399903 .0309906 .45199586 .0309906 .4139862 .0839386L.2869873 .26278688C.28599549 .26478578 .2809906 .2707672 .2809906 .2737732 .2809906 .277771 .35198976 .33770753 .3619995 .34570313 .4249878 .39666749 .46699525 .39865113 .48799134 .3996582V.43066407C.45899964 .42765809 .44599916 .42765809 .41799928 .42765809 .38198854 .42765809 .31999208 .42965699 .30599977 .43066407V.3996582C.32499696 .39865113 .33499146 .3876648 .33499146 .37467958 .33499146 .3547058 .32099916 .3427124 .31298829 .33570863L.17199707 .21382141V.69433596L.027999878 .68333438V.6523285C.09799194 .6523285 .10598755 .64530947 .10598755 .5961609V.07595825Z"/>
<path id="font_1_1" d="M.6769867 .16200257H.6519928C.6469879 .13600159 .6429901 .11299133 .6339874 .08898926 .6289978 .07299805 .6259918 .06498718 .56799319 .06498718H.48799134C.5009918 .1210022 .5319977 .16900635 .57699587 .23501587 .6239929 .306015 .6649933 .37503053 .6649933 .45404054 .6649933 .59306338 .5299988 .7050781 .36099244 .7050781 .18899536 .7050781 .055999757 .5910492 .055999757 .45404054 .055999757 .37503053 .09700012 .306015 .14399719 .23501587 .18798828 .16900635 .21998596 .1210022 .23298645 .06498718H.15299988C.09498596 .06498718 .09199524 .07299805 .08699036 .08799744 .07899475 .11099243 .07398987 .13700867 .068984989 .16200257H.04399109L.07699585 0H.23699951C.25898744 0 .2619934 0 .2619934 .020996094 .2619934 .09098816 .23098755 .17900086 .20799256 .24301148 .18699646 .3010254 .15899658 .3800354 .15899658 .45503236 .15899658 .6150665 .2689972 .68307498 .3600006 .68307498 .45599366 .68307498 .56199648 .61105349 .56199648 .45503236 .56199648 .3800354 .5349884 .3040161 .5059967 .22201538 .4909973 .18000794 .45899964 .08999634 .45899964 .020996094 .45899964 0 .46199037 0 .4850006 0H.6439972L.6769867 .16200257Z"/>
<path id="font_3_27" d="M.71699526 0V.0309906H.69898989C.6389923 .0309906 .625 .037979127 .6139984 .07095337L.397995 .6958008C.3929901 .7088165 .3909912 .7158203 .375 .7158203 .35899354 .7158203 .35598756 .70980837 .35099793 .6958008L.14399719 .09791565C.12599182 .04698181 .085998538 .03199768 .03199768 .0309906V0L.13398743 .0029907227 .24899292 0V.0309906C.19898987 .0309906 .17399597 .05596924 .17399597 .0819397 .17399597 .08493042 .1749878 .09492493 .17599488 .09692383L.22200012 .2277832H.46899415L.5219879 .07495117C.522995 .07095337 .5249939 .064956668 .5249939 .060958864 .5249939 .0309906 .46899415 .0309906 .44198609 .0309906V0C.47799684 .0029907227 .5479889 .0029907227 .58599856 .0029907227L.71699526 0M.45799256 .25878907H.23298645L.34498597 .58380129 .45799256 .25878907Z"/>
<path id="font_3_34" d="M.651001 .18289185C.651001 .26983644 .56900027 .34480287 .45799256 .35679627 .5549927 .3757782 .6239929 .43974305 .6239929 .51368716 .6239929 .6006317 .5319977 .6826172 .4019928 .6826172H.035995485V.6516113H.05999756C.13699341 .6516113 .13899231 .64060977 .13899231 .6046295V.07795715C.13899231 .041992189 .13699341 .0309906 .05999756 .0309906H.035995485V0H.42799378C.5609894-.0002593994 .651001 .08874512 .651001 .18273926V.18289185M.5269928 .5136719C.5269928 .44970704 .47799684 .36573792 .36698915 .36573792H.22200012V.6116333C.22200012 .64460757 .22399903 .6516113 .2709961 .6516113H.394989C.49198915 .65174868 .5269928 .56674197 .5269928 .51374819V.5136719M.5509949 .18386841C.5509949 .1129303 .49899293 .0309906 .3959961 .0309906H.2709961C.22399903 .0309906 .22200012 .037994386 .22200012 .07095337V.34375H.4099884C.5089874 .34399415 .5509949 .25099183 .5509949 .18399048V.18386841Z"/>
<path id="font_3_42" d="M.6649933 .23271179C.6649933 .24272156 .6649933 .24972534 .6519928 .24972534 .6409912 .24972534 .6409912 .24372864 .6399994 .23371887 .6319885 .09059143 .5249939 .008529663 .41600038 .008529663 .35499574 .008529663 .15899658 .042556764 .15899658 .34080506 .15899658 .64004519 .35398866 .67407229 .4149933 .67407229 .5239868 .67407229 .61299136 .58299258 .6329956 .4368744 .6349945 .42286683 .6349945 .41986085 .6489868 .41986085 .6649933 .41986085 .6649933 .42286683 .6649933 .44387818V.68107607C.6649933 .69807437 .6649933 .7050781 .6539917 .7050781 .6499939 .7050781 .6459961 .7050781 .6380005 .69306948L.58799746 .61901858C.5509949 .6550598 .5 .7050781 .4039917 .7050781 .21699524 .7050781 .055999757 .5459595 .055999757 .34179688 .055999757 .1346283 .21798706-.022460938 .4039917-.022460938 .5669861-.022460938 .6649933 .116622928 .6649933 .23271179Z"/>
</defs>
<path transform="matrix(1,0,0,-1.00005,12.209,142.2444)" stroke-width=".3985" stroke-linecap="butt" stroke-miterlimit="10" stroke-linejoin="miter" fill="none" stroke="#000000" d="M170.08086 113.38724"/>
<path transform="matrix(1,0,0,-1.00005,12.209,142.2444)" stroke-width=".3985" stroke-linecap="butt" stroke-miterlimit="10" stroke-linejoin="miter" fill="none" stroke="#000000" d="M170.08086 113.38724H90.99327M79.08757 113.38724H0V56.69362M0 56.69362V0H69.16623M100.91461 0H170.08086V56.69362M170.08086 56.69362V113.38724"/>
<path transform="matrix(1,0,0,-1.00005,12.209,142.2444)" stroke-width=".797" stroke-linecap="butt" stroke-miterlimit="10" stroke-linejoin="miter" fill="none" stroke="#000000" d="M90.99327 101.4815V125.29295M87.0247 107.43439V119.34009M83.05614 101.4815V125.29295M79.08757 107.43439V119.34009"/>
<use data-text="+" xlink:href="#font_1_2" transform="matrix(9.9626,0,0,-9.963098,102.542,15.463066)"/>
<use data-text="&#x2212;" xlink:href="#font_2_1" transform="matrix(9.9626,0,0,-9.963098,84.208,15.463066)"/>
<use data-text="6" xlink:href="#font_1_5" transform="matrix(9.9626,0,0,-9.963098,90.123,8.398712)"/>
<use data-text="V" xlink:href="#font_1_6" transform="matrix(9.9626,0,0,-9.963098,96.758098,8.398712)"/>
<path transform="matrix(1,0,0,-1.00005,12.209,142.2444)" stroke-width=".797" stroke-linecap="butt" stroke-linejoin="bevel" fill="none" stroke="#000000" d="M68.76772 0 71.84514 5.95285 77.20296-5.95285 82.56076 5.95285 87.91858-5.95285 93.2764 5.95285 98.63422-5.95285 101.31313 0"/>
<use data-text="1" xlink:href="#font_1_4" transform="matrix(9.9626,0,0,-9.963098,85.211,158.77223)"/>
<use data-text="0" xlink:href="#font_1_3" transform="matrix(9.9626,0,0,-9.963098,90.1923,158.77223)"/>
<use data-text="k" xlink:href="#font_1_7" transform="matrix(9.9626,0,0,-9.963098,96.82739,158.77223)"/>
<use data-text="&#x2126;" xlink:href="#font_1_1" transform="matrix(9.9626,0,0,-9.963098,102.07768,158.77223)"/>
<path transform="matrix(1,0,0,-1.00005,12.209,142.2444)" stroke-width=".3985" stroke-linecap="butt" stroke-miterlimit="10" stroke-linejoin="miter" fill="none" stroke="#000000" d="M0 56.69362H26.64601M58.3944 56.69362H85.04042 111.68643M143.43483 56.69362H170.08086"/>
<path transform="matrix(1,0,0,-1.00005,12.209,142.2444)" stroke-width=".797" stroke-linecap="butt" stroke-linejoin="bevel" fill="none" stroke="#000000" d="M26.2475 56.69362 29.3249 62.64647 34.68272 50.74075 40.04054 62.64647 45.39836 50.74075 50.75618 62.64647 56.114 50.74075 58.7929 56.69362"/>
<path transform="matrix(1,0,0,-1.00005,12.209,142.2444)" d="M1.58714 56.69362C1.58714 57.57018 .87656 58.28076 0 58.28076-.87656 58.28076-1.58714 57.57018-1.58714 56.69362-1.58714 55.81705-.87656 55.10646 0 55.10646 .87656 55.10646 1.58714 55.81705 1.58714 56.69362ZM0 56.69362"/>
<path transform="matrix(1,0,0,-1.00005,12.209,142.2444)" stroke-width=".3985" stroke-linecap="butt" stroke-miterlimit="10" stroke-linejoin="miter" fill="none" stroke="#000000" d="M1.58714 56.69362C1.58714 57.57018 .87656 58.28076 0 58.28076-.87656 58.28076-1.58714 57.57018-1.58714 56.69362-1.58714 55.81705-.87656 55.10646 0 55.10646 .87656 55.10646 1.58714 55.81705 1.58714 56.69362ZM0 56.69362"/>
<path transform="matrix(1,0,0,-1.00005,12.209,142.2444)" d="M86.62756 56.69362C86.62756 57.57018 85.91698 58.28076 85.04042 58.28076 84.16386 58.28076 83.45328 57.57018 83.45328 56.69362 83.45328 55.81705 84.16386 55.10646 85.04042 55.10646 85.91698 55.10646 86.62756 55.81705 86.62756 56.69362ZM85.04042 56.69362"/>
<path transform="matrix(1,0,0,-1.00005,12.209,142.2444)" stroke-width=".3985" stroke-linecap="butt" stroke-miterlimit="10" stroke-linejoin="miter" fill="none" stroke="#000000" d="M86.62756 56.69362C86.62756 57.57018 85.91698 58.28076 85.04042 58.28076 84.16386 58.28076 83.45328 57.57018 83.45328 56.69362 83.45328 55.81705 84.16386 55.10646 85.04042 55.10646 85.91698 55.10646 86.62756 55.81705 86.62756 56.69362ZM85.04042 56.69362"/>
<use data-text="1" xlink:href="#font_1_4" transform="matrix(9.9626,0,0,-9.963098,45.181,75.77908)"/>
<use data-text="k" xlink:href="#font_1_7" transform="matrix(9.9626,0,0,-9.963098,51.816095,75.77908)"/>
<use data-text="&#x2126;" xlink:href="#font_1_1" transform="matrix(9.9626,0,0,-9.963098,57.066385,75.77908)"/>
<path transform="matrix(1,0,0,-1.00005,12.209,142.2444)" stroke-width=".797" stroke-linecap="butt" stroke-linejoin="bevel" fill="none" stroke="#000000" d="M111.28793 56.69362 114.36534 62.64647 119.72316 50.74075 125.08098 62.64647 130.43878 50.74075 135.7966 62.64647 141.15442 50.74075 143.83333 56.69362"/>
<path transform="matrix(1,0,0,-1.00005,12.209,142.2444)" d="M86.62756 56.69362C86.62756 57.57018 85.91698 58.28076 85.04042 58.28076 84.16386 58.28076 83.45328 57.57018 83.45328 56.69362 83.45328 55.81705 84.16386 55.10646 85.04042 55.10646 85.91698 55.10646 86.62756 55.81705 86.62756 56.69362ZM85.04042 56.69362"/>
<path transform="matrix(1,0,0,-1.00005,12.209,142.2444)" stroke-width=".3985" stroke-linecap="butt" stroke-miterlimit="10" stroke-linejoin="miter" fill="none" stroke="#000000" d="M86.62756 56.69362C86.62756 57.57018 85.91698 58.28076 85.04042 58.28076 84.16386 58.28076 83.45328 57.57018 83.45328 56.69362 83.45328 55.81705 84.16386 55.10646 85.04042 55.10646 85.91698 55.10646 86.62756 55.81705 86.62756 56.69362ZM85.04042 56.69362"/>
<path transform="matrix(1,0,0,-1.00005,12.209,142.2444)" d="M171.668 56.69362C171.668 57.57018 170.95742 58.28076 170.08086 58.28076 169.20429 58.28076 168.4937 57.57018 168.4937 56.69362 168.4937 55.81705 169.20429 55.10646 170.08086 55.10646 170.95742 55.10646 171.668 55.81705 171.668 56.69362ZM170.08086 56.69362"/>
<path transform="matrix(1,0,0,-1.00005,12.209,142.2444)" stroke-width=".3985" stroke-linecap="butt" stroke-miterlimit="10" stroke-linejoin="miter" fill="none" stroke="#000000" d="M171.668 56.69362C171.668 57.57018 170.95742 58.28076 170.08086 58.28076 169.20429 58.28076 168.4937 57.57018 168.4937 56.69362 168.4937 55.81705 169.20429 55.10646 170.08086 55.10646 170.95742 55.10646 171.668 55.81705 171.668 56.69362ZM170.08086 56.69362"/>
<use data-text="1" xlink:href="#font_1_4" transform="matrix(9.9626,0,0,-9.963098,130.222,75.77908)"/>
<use data-text="k" xlink:href="#font_1_7" transform="matrix(9.9626,0,0,-9.963098,136.85709,75.77908)"/>
<use data-text="&#x2126;" xlink:href="#font_1_1" transform="matrix(9.9626,0,0,-9.963098,142.10739,75.77908)"/>
<path transform="matrix(1,0,0,-1.00005,12.209,142.2444)" stroke-width=".3985" stroke-linecap="butt" stroke-miterlimit="10" stroke-linejoin="miter" fill="none" stroke="#000000" d="M85.04042 56.69362"/>
<path transform="matrix(1,0,0,-1.00005,12.209,142.2444)" stroke-width=".3985" stroke-linecap="butt" stroke-miterlimit="10" stroke-linejoin="miter" fill="none" stroke="#000000" d="M85.04042 56.69362V46.77226"/>
<path transform="matrix(1,0,0,-1.00005,12.209,142.2444)" stroke-width=".797" stroke-linecap="butt" stroke-miterlimit="10" stroke-linejoin="miter" fill="none" stroke="#000000" d="M79.08757 46.77226H90.99327L85.04042 38.83517Z"/>
<path transform="matrix(1,0,0,-1.00005,12.209,142.2444)" stroke-width=".3985" stroke-linecap="butt" stroke-miterlimit="10" stroke-linejoin="miter" fill="none" stroke="#000000" d="M0 56.69362"/>
<use data-text="A" xlink:href="#font_3_27" transform="matrix(9.9626,0,0,-9.963098,1.2170029,82.0284)"/>
<path transform="matrix(1,0,0,-1.00005,12.209,142.2444)" stroke-width=".3985" stroke-linecap="butt" stroke-miterlimit="10" stroke-linejoin="miter" fill="none" stroke="#000000" d="M85.04042 56.69362"/>
<use data-text="B" xlink:href="#font_3_34" transform="matrix(9.9626,0,0,-9.963098,93.723,82.0284)"/>
<path transform="matrix(1,0,0,-1.00005,12.209,142.2444)" stroke-width=".3985" stroke-linecap="butt" stroke-miterlimit="10" stroke-linejoin="miter" fill="none" stroke="#000000" d="M170.08086 56.69362"/>
<use data-text="C" xlink:href="#font_3_42" transform="matrix(9.9626,0,0,-9.963098,185.81,81.80838)"/>
</svg>
