<svg xmlns="http://www.w3.org/2000/svg" xmlns:xlink="http://www.w3.org/1999/xlink" xmlns:inkscape="http://www.inkscape.org/namespaces/inkscape" version="1.1" width="135" height="132" viewBox="0 0 135 132">
<defs>
<path id="font_1_2" d="M.6279907 .5686035C.6769867 .64660647 .71899417 .6496124 .7559967 .6516113 .7679901 .65260317 .7689972 .6696167 .7689972 .6706085 .7689972 .6786041 .7639923 .6826172 .7559967 .6826172 .7299957 .6826172 .70098879 .6796112 .673996 .6796112 .6409912 .6796112 .6069946 .6826172 .57499697 .6826172 .56900027 .6826172 .55599978 .6826172 .55599978 .66360476 .55599978 .65260317 .5649872 .6516113 .57199099 .6516113 .598999 .6496124 .6179962 .63960269 .6179962 .61860659 .6179962 .6036072 .6029968 .581604 .6029968 .5805969L.29599 .092544559 .22799683 .62161257C.22799683 .63861086 .25099183 .6516113 .29699708 .6516113 .31098939 .6516113 .32199098 .6516113 .32199098 .6716156 .32199098 .680603 .31399537 .6826172 .30799867 .6826172 .2679901 .6826172 .22499085 .6796112 .18399048 .6796112 .1659851 .6796112 .14698792 .680603 .1289978 .680603 .11099243 .680603 .09199524 .6826172 .07499695 .6826172 .067993167 .6826172 .055999757 .6826172 .055999757 .66360476 .055999757 .6516113 .06498718 .6516113 .08099365 .6516113 .13699341 .6516113 .13798523 .64260867 .14099121 .6175995L.21998596 .0005340576C.22299195-.019470215 .22698975-.022460938 .23999024-.022460938 .2559967-.022460938 .2599945-.017471314 .2679901-.004470825L.6279907 .5686035Z"/>
<path id="font_2_105" d="M.375 .12606812V.1809845H.34098817V.12705994C.34098817 .059173585 .30899049 .022232056 .269989 .022232056 .20098877 .022232056 .20098877 .10609436 .20098877 .124069217V.39465333H.35699464V.43066407H.20098877V.6142578H.16699219C.1659851 .5244446 .125 .42565919 .0289917 .4226532V.39465333H.12199402V.1250763C.12199402 .01322937 .20599365-.009765625 .2619934-.009765625 .32899476-.010009766 .375 .04699707 .375 .12599182V.12606812Z"/>
<path id="font_2_63" d="M.58999636 0V.035995485C.5249939 .035995485 .5149994 .035995485 .5149994 .0790863V.3035736C.5149994 .39045716 .47200013 .44140626 .36499024 .44140626 .27598573 .44140626 .22698975 .3884735 .20498657 .35058595H.20399475V.69433596L.053985597 .6826172V.64660647C.12098694 .64660647 .1289978 .6396179 .1289978 .59065249V.07896423C.1289978 .035995485 .11898804 .035995485 .053985597 .035995485V0C.053985597 0 .12599182 .0039978029 .16799927 .0039978029 .20498657 .0039978029 .27398683 .0009918213 .2829895 0V.035995485C.21798706 .035995485 .20799256 .035995485 .20799256 .07904053V.25923158C.20799256 .36434938 .29100038 .4133911 .35699464 .4133911 .4269867 .4133911 .43598939 .3583374 .43598939 .3072815V.07904053C.43598939 .035995485 .42599488 .035995485 .36099244 .035995485V0C.36099244 0 .43299867 .0039978029 .47499085 .0039978029 .5119934 .0039978029 .58099368 .0009918213 .58999636 0Z"/>
<path id="font_1_1" d="M.375 .6136017C.3809967 .63760378 .38398744 .6476135 .40299989 .65060427 .4119873 .6516113 .44400025 .6516113 .46398927 .6516113 .5349884 .6516113 .6459961 .6516113 .6459961 .5525818 .6459961 .51856997 .6299896 .44955445 .59098818 .41055299 .5649872 .38453675 .5119934 .35253907 .42199708 .35253907H.30999757L.375 .6136017M.5189972 .33953858C.6199951 .3615265 .7389984 .43154908 .7389984 .5325775 .7389984 .61860659 .6489868 .6826172 .5179901 .6826172H.23298645C.21299744 .6826172 .20399475 .6826172 .20399475 .6626129 .20399475 .6516113 .21299744 .6516113 .23199463 .6516113 .23399353 .6516113 .25299073 .6516113 .269989 .6496124 .28799439 .6476135 .29699708 .64660647 .29699708 .63360598 .29699708 .62960818 .29599 .6266022 .29299928 .6145935L.15899658 .07752991C.14898682 .038528444 .14698792 .030532837 .067993167 .030532837 .049987794 .030532837 .040985109 .030532837 .040985109 .010528564 .040985109-.00047302247 .052993776-.00047302247 .054992677-.00047302247 .08299255-.00047302247 .15299988 .002532959 .18099976 .002532959 .20899964 .002532959 .27999879-.00047302247 .30799867-.00047302247 .31599427-.00047302247 .32798768-.00047302247 .32798768 .01953125 .32798768 .030532837 .31900025 .030532837 .2999878 .030532837 .2630005 .030532837 .23498535 .030532837 .23498535 .048538209 .23498535 .054534913 .23699951 .059524537 .23799134 .0655365L.3039856 .3305359H.4229889C.5139923 .3305359 .5319977 .27453614 .5319977 .23953247 .5319977 .22453308 .5239868 .19352722 .5179901 .17053223 .5109863 .14253235 .5019989 .105529788 .5019989 .08552551 .5019989-.022460938 .621994-.022460938 .6349945-.022460938 .7200012-.022460938 .7549896 .07853699 .7549896 .0925293 .7549896 .104537967 .74398806 .104537967 .7429962 .104537967 .73399356 .104537967 .7319946 .09753418 .7299957 .090530399 .7049866 .016525269 .6619873-.00047302247 .6389923-.00047302247 .60598757-.00047302247 .598999 .021530152 .598999 .060531618 .598999 .091537479 .6049957 .14253235 .60899356 .17453003 .61099246 .1885376 .61299136 .20753479 .61299136 .2215271 .61299136 .2985382 .54599 .3295288 .5189972 .33953858Z"/>
<path id="font_3_71" d="M.58200076 .2578125H.5569916C.54599 .15588379 .5319977 .0309906 .35598756 .0309906H.27398683C.22698975 .03060913 .22499085 .037612916 .22499085 .07060242V.6036072C.22499085 .63760378 .22499085 .6516113 .31999208 .6516113H.35299684V.6826172C.31698609 .6796112 .22599793 .6796112 .18499756 .6796112 .1459961 .6796112 .067993167 .6796112 .032989503 .6826172V.6516113H.056991579C.13398743 .6518097 .13598633 .6408081 .13598633 .6048126V.07795715C.13598633 .04197693 .13398743 .0309906 .056991579 .0309906H.032989503V0H.55400088L.58200076 .2578125Z"/>
<path id="font_3_49" d="M.6519928 .2579193H.6269989C.60198977 .10397339 .57899478 .0309906 .40699769 .0309906H.27398683C.22698975 .0309906 .22499085 .037994386 .22499085 .07098389V.33789063H.31498719C.4119873 .33789063 .4229889 .30589295 .4229889 .220932H.44799806V.48606874H.4229889C.4229889 .39994813 .4119873 .36888124 .31498719 .36888124H.22499085V.6087799C.22499085 .6416931 .22698975 .64868167 .27398683 .64868167H.40299989C.55599978 .64868167 .58299258 .59381106 .598999 .45507813H.6239929L.59599307 .6796875H.032989503V.64868167H.056991579C.13398743 .64868167 .13598633 .6377106 .13598633 .6017914V.07797241C.13598633 .041992189 .13398743 .0309906 .056991579 .0309906H.032989503V0H.6100006L.6519928 .2579193Z"/>
<path id="font_3_46" d="M.70700076 .33580018C.70700076 .52568057 .57199099 .6826172 .40098573 .6826172H.034988405V.6516113H.05899048C.13598633 .6516113 .13798523 .64060977 .13798523 .6046295V.07795715C.13798523 .041992189 .13598633 .0309906 .05899048 .0309906H.034988405V0H.40098573C.56900027 0 .70700076 .1479187 .70700076 .33580018M.6069946 .33580018C.6069946 .22486878 .58799746 .16490174 .5519867 .11593628 .5319977 .08895874 .47499085 .0309906 .37399293 .0309906H.272995C.22599793 .0309906 .22399903 .037994386 .22399903 .07096863V.6116333C.22399903 .64460757 .22599793 .6516113 .272995 .6516113H.37298585C.43499757 .6516113 .5039978 .6296234 .5549927 .55867007 .59799197 .49969483 .6069946 .41375733 .6069946 .33580018Z"/>
</defs>
<path transform="matrix(1.00006,0,0,-1.00003,29.035775,130.73657)" stroke-width=".3985" stroke-linecap="butt" stroke-miterlimit="10" stroke-linejoin="miter" fill="none" stroke="#000000" d="M0 0"/>
<path transform="matrix(1.00006,0,0,-1.00003,29.035775,130.73657)" stroke-width=".3985" stroke-linecap="butt" stroke-miterlimit="10" stroke-linejoin="miter" fill="none" stroke="#000000" d="M0 0V50.74075M0 62.64647V113.38724H26.64601M58.3944 113.38724H85.04042L85.0404 64.63057M85.0404 48.75665 85.04042 0H42.5202M42.5202 0H0"/>
<path transform="matrix(1.00006,0,0,-1.00003,29.035775,130.73657)" stroke-width=".797" stroke-linecap="butt" stroke-miterlimit="10" stroke-linejoin="miter" fill="none" stroke="#000000" d="M-11.90572 62.64647H11.90572M-5.95285 58.6779H5.95285M-11.90572 54.70934H11.90572M-5.95285 50.74075H5.95285"/>
<use data-text="V" xlink:href="#font_1_2" transform="matrix(9.963197,0,0,-9.962899,.5070648,76.18793)"/>
<use data-text="t" xlink:href="#font_2_105" transform="matrix(6.9742186,0,0,-6.9740097,6.318413,77.68198)"/>
<use data-text="h" xlink:href="#font_2_63" transform="matrix(6.9742186,0,0,-6.9740097,9.428909,77.68198)"/>
<path transform="matrix(1.00006,0,0,-1.00003,29.035775,130.73657)" stroke-width=".797" stroke-linecap="butt" stroke-linejoin="bevel" fill="none" stroke="#000000" d="M26.2475 113.38724 29.3249 119.34009 34.68272 107.43439 40.04054 119.34009 45.39836 107.43439 50.75618 119.34009 56.114 107.43439 58.7929 113.38724"/>
<use data-text="R" xlink:href="#font_1_1" transform="matrix(9.963197,0,0,-9.962899,63.77086,7.576874)"/>
<use data-text="t" xlink:href="#font_2_105" transform="matrix(6.9742186,0,0,-6.9740097,71.33532,9.070915)"/>
<use data-text="h" xlink:href="#font_2_63" transform="matrix(6.9742186,0,0,-6.9740097,74.445819,9.070915)"/>
<path transform="matrix(1.00006,0,0,-1.00003,29.035775,130.73657)" stroke-width=".797" stroke-linecap="butt" stroke-miterlimit="10" stroke-linejoin="miter" fill="none" stroke="#000000" d="M85.0404 48.75665 94.96175 64.63057H75.11906Z"/>
<path transform="matrix(1.00006,0,0,-1.00003,29.035775,130.73657)" stroke-width=".797" stroke-linecap="butt" stroke-miterlimit="10" stroke-linejoin="miter" fill="none" stroke="#000000" d="M75.11906 48.75665H94.96175"/>
<path transform="matrix(1.00006,0,0,-1.00003,29.035775,130.73657)" stroke-width=".3985" stroke-linecap="butt" stroke-miterlimit="10" stroke-linejoin="miter" fill="none" stroke="#000000" d="M94.96175 59.86833 103.01614 53.42494"/>
<path transform="matrix(.78086689,.6246688,.62468746,-.7808435,132.05808,77.31003)" d="M2.39102 0C1.39476 .19925-.3985 .59775-1.59401 1.49438-.59775 .3985-.59775-.3985-1.59401-1.49438-.3985-.59775 1.39476-.19925 2.39102 0Z"/>
<path transform="matrix(1.00006,0,0,-1.00003,29.035775,130.73657)" stroke-width=".3985" stroke-linecap="butt" stroke-miterlimit="10" stroke-linejoin="miter" fill="none" stroke="#000000" d="M92.9775 55.10625 101.03189 48.66284"/>
<path transform="matrix(.78086689,.6246688,.62468746,-.7808435,130.07372,82.072269)" d="M2.39102 0C1.39476 .19925-.3985 .59775-1.59401 1.49438-.59775 .3985-.59775-.3985-1.59401-1.49438-.3985-.59775 1.39476-.19925 2.39102 0Z"/>
<use data-text="L" xlink:href="#font_3_71" transform="matrix(9.963197,0,0,-9.962899,80.93289,76.18793)"/>
<use data-text="E" xlink:href="#font_3_49" transform="matrix(9.963197,0,0,-9.962899,87.15988,76.18793)"/>
<use data-text="D" xlink:href="#font_3_46" transform="matrix(9.963197,0,0,-9.962899,93.944828,76.18793)"/>
</svg>
