<svg xmlns="http://www.w3.org/2000/svg" xmlns:xlink="http://www.w3.org/1999/xlink" xmlns:inkscape="http://www.inkscape.org/namespaces/inkscape" version="1.1" width="217" height="145" viewBox="0 0 217 145">
<defs>
<path id="font_1_2" d="M.375 .6136017C.3809967 .63760378 .38398744 .6476135 .40299989 .65060427 .4119873 .6516113 .44400025 .6516113 .46398927 .6516113 .5349884 .6516113 .6459961 .6516113 .6459961 .5525818 .6459961 .51856997 .6299896 .44955445 .59098818 .41055299 .5649872 .38453675 .5119934 .35253907 .42199708 .35253907H.30999757L.375 .6136017M.5189972 .33953858C.6199951 .3615265 .7389984 .43154908 .7389984 .5325775 .7389984 .61860659 .6489868 .6826172 .5179901 .6826172H.23298645C.21299744 .6826172 .20399475 .6826172 .20399475 .6626129 .20399475 .6516113 .21299744 .6516113 .23199463 .6516113 .23399353 .6516113 .25299073 .6516113 .269989 .6496124 .28799439 .6476135 .29699708 .64660647 .29699708 .63360598 .29699708 .62960818 .29599 .6266022 .29299928 .6145935L.15899658 .07752991C.14898682 .038528444 .14698792 .030532837 .067993167 .030532837 .049987794 .030532837 .040985109 .030532837 .040985109 .010528564 .040985109-.00047302247 .052993776-.00047302247 .054992677-.00047302247 .08299255-.00047302247 .15299988 .002532959 .18099976 .002532959 .20899964 .002532959 .27999879-.00047302247 .30799867-.00047302247 .31599427-.00047302247 .32798768-.00047302247 .32798768 .01953125 .32798768 .030532837 .31900025 .030532837 .2999878 .030532837 .2630005 .030532837 .23498535 .030532837 .23498535 .048538209 .23498535 .054534913 .23699951 .059524537 .23799134 .0655365L.3039856 .3305359H.4229889C.5139923 .3305359 .5319977 .27453614 .5319977 .23953247 .5319977 .22453308 .5239868 .19352722 .5179901 .17053223 .5109863 .14253235 .5019989 .105529788 .5019989 .08552551 .5019989-.022460938 .621994-.022460938 .6349945-.022460938 .7200012-.022460938 .7549896 .07853699 .7549896 .0925293 .7549896 .104537967 .74398806 .104537967 .7429962 .104537967 .73399356 .104537967 .7319946 .09753418 .7299957 .090530399 .7049866 .016525269 .6619873-.00047302247 .6389923-.00047302247 .60598757-.00047302247 .598999 .021530152 .598999 .060531618 .598999 .091537479 .6049957 .14253235 .60899356 .17453003 .61099246 .1885376 .61299136 .20753479 .61299136 .2215271 .61299136 .2985382 .54599 .3295288 .5189972 .33953858Z"/>
<path id="font_1_1" d="M.37399293 .6056366C.3829956 .6416168 .38598634 .6516113 .46499635 .6516113 .4889984 .6516113 .49699403 .6516113 .49699403 .6706085 .49699403 .6826172 .48599244 .6826172 .48199464 .6826172 .45298768 .6826172 .3789978 .6796112 .34999085 .6796112 .31999208 .6796112 .24699402 .6826172 .21699524 .6826172 .20999146 .6826172 .19699097 .6826172 .19699097 .6626129 .19699097 .6516113 .20599365 .6516113 .22499085 .6516113 .2669983 .6516113 .2939911 .6516113 .2939911 .63261416 .2939911 .6276245 .2939911 .6256256 .2919922 .6166229L.15699768 .07795715C.147995 .040985109 .14498902 .0309906 .06599426 .0309906 .042999269 .0309906 .033996583 .0309906 .033996583 .010986328 .033996583 0 .04598999 0 .04899597 0 .07798767 0 .15098572 .0029907227 .17999268 .0029907227 .20999146 .0029907227 .28399659 0 .31399537 0 .32199098 0 .33399964 0 .33399964 .018997193 .33399964 .0309906 .32598878 .0309906 .3039856 .0309906 .28599549 .0309906 .2809906 .0309906 .26098634 .032989503 .23999024 .034988405 .23599243 .038986207 .23599243 .049987794 .23599243 .05796814 .23799134 .065963748 .23999024 .07296753L.37399293 .6056366Z"/>
<path id="font_2_3" d="M.43099977 .37594605C.40499879 .36994935 .3889923 .348938 .3889923 .32894898 .3889923 .30593873 .40899659 .2969513 .42199708 .2969513 .43199159 .2969513 .46998597 .302948 .46998597 .35394288 .46998597 .41940309 .397995 .44140626 .33699037 .44140626 .18099976 .44140626 .15299988 .325943 .15299988 .2949524 .15299988 .25804139 .17399597 .23410034 .18798828 .22212219 .21398926 .20217896 .23199463 .19818115 .30099488 .18621826 .32199098 .18222046 .38598634 .17025757 .38598634 .120285037 .38598634 .10328674 .375 .06529236 .33299256 .040252687 .2939911 .018234253 .24499512 .018234253 .23298645 .018234253 .19299317 .018234253 .13598633 .027236939 .11299133 .060287477 .1459961 .06428528 .16799927 .08929443 .16799927 .11729431 .16799927 .14228821 .1499939 .15429688 .1289978 .15429688 .099990848 .15429688 .070999149 .13128662 .070999149 .08729553 .070999149 .027236939 .1349945-.009765625 .23199463-.009765625 .41600038-.009765625 .44999696 .11628723 .44999696 .1552887 .44999696 .24707031 .34899903 .26501466 .31199647 .27200318 .30299378 .27400209 .27799989 .27798463 .27198792 .27998353 .23498535 .28697206 .21699524 .30795289 .21699524 .3299408 .21699524 .35295106 .23498535 .37998963 .25698854 .39416505 .28399659 .41137696 .31900025 .4133911 .33599855 .4133911 .35699464 .4133911 .40899659 .4103546 .43099977 .37594605Z"/>
<path id="font_1_3" d="M.6279907 .5686035C.6769867 .64660647 .71899417 .6496124 .7559967 .6516113 .7679901 .65260317 .7689972 .6696167 .7689972 .6706085 .7689972 .6786041 .7639923 .6826172 .7559967 .6826172 .7299957 .6826172 .70098879 .6796112 .673996 .6796112 .6409912 .6796112 .6069946 .6826172 .57499697 .6826172 .56900027 .6826172 .55599978 .6826172 .55599978 .66360476 .55599978 .65260317 .5649872 .6516113 .57199099 .6516113 .598999 .6496124 .6179962 .63960269 .6179962 .61860659 .6179962 .6036072 .6029968 .581604 .6029968 .5805969L.29599 .092544559 .22799683 .62161257C.22799683 .63861086 .25099183 .6516113 .29699708 .6516113 .31098939 .6516113 .32199098 .6516113 .32199098 .6716156 .32199098 .680603 .31399537 .6826172 .30799867 .6826172 .2679901 .6826172 .22499085 .6796112 .18399048 .6796112 .1659851 .6796112 .14698792 .680603 .1289978 .680603 .11099243 .680603 .09199524 .6826172 .07499695 .6826172 .067993167 .6826172 .055999757 .6826172 .055999757 .66360476 .055999757 .6516113 .06498718 .6516113 .08099365 .6516113 .13699341 .6516113 .13798523 .64260867 .14099121 .6175995L.21998596 .0005340576C.22299195-.019470215 .22698975-.022460938 .23999024-.022460938 .2559967-.022460938 .2599945-.017471314 .2679901-.004470825L.6279907 .5686035Z"/>
<path id="font_1_4" d="M.28399659 .6252594C.28399659 .6452637 .269989 .6612549 .24699402 .6612549 .21998596 .6612549 .19299317 .6352539 .19299317 .6082611 .19299317 .5892639 .20698548 .5722656 .23098755 .5722656 .2539978 .5722656 .28399659 .5952606 .28399659 .6252594M.20799256 .24932862C.21998596 .27833558 .21998596 .28033448 .22999573 .30734254 .23799134 .3273468 .24299622 .34135438 .24299622 .36035157 .24299622 .405365 .21099854 .4423828 .16099549 .4423828 .066986087 .4423828 .0289917 .29733277 .0289917 .28833009 .0289917 .27833558 .038986207 .27833558 .040985109 .27833558 .050994874 .27833558 .051986696 .28033448 .056991579 .29634095 .083999637 .3903656 .12399292 .42037965 .1579895 .42037965 .1659851 .42037965 .18299866 .42037965 .18299866 .3883667 .18299866 .36735536 .17599488 .346344 .17199707 .3363495 .1639862 .31033326 .11898804 .19430542 .102996829 .1512909 .09298706 .12528992 .07998657 .0922699 .07998657 .0712738 .07998657 .024261475 .11399841-.0107421879 .1619873-.0107421879 .2559967-.0107421879 .29299928 .1342926 .29299928 .14329529 .29299928 .1532898 .28399659 .1532898 .2809906 .1532898 .2709961 .1532898 .2709961 .15029907 .2659912 .13528443 .24798584 .072265628 .21499634 .011245728 .1639862 .011245728 .14698792 .011245728 .13999939 .021255494 .13999939 .044265748 .13999939 .0692749 .1459961 .08326721 .16899109 .14428711L.20799256 .24932862Z"/>
<path id="font_3_50" d="M.46798707 .12036133C.46798707 .12435913 .46598817 .13438416 .45098878 .13438416 .43798829 .13438416 .43598939 .12837219 .43299867 .11836243 .4019928 .037246705 .32598878 .022232056 .2899933 .022232056 .24299622 .022232056 .19799805 .043258668 .16799927 .08131409 .1309967 .12837219 .12998963 .18945313 .12998963 .22851563H.43998719C.46099855 .22851563 .46798707 .22851563 .46798707 .25050355 .46798707 .33839417 .4189911 .44628907 .269989 .44628907 .13899231 .44628907 .038986207 .34239198 .038986207 .21949768 .038986207 .092315677 .1499939-.009765625 .2829895-.009765625 .41799928-.009765625 .46798707 .09832764 .46798707 .12036133M.397995 .25450135H.1309967C.14199829 .39530946 .23199463 .41827394 .269989 .41827394 .3929901 .41827394 .39698792 .27947999 .397995 .25450135Z"/>
<path id="font_3_116" d="M.57398989 0V.035995485C.5069885 .035995485 .49899293 .04197693 .47599793 .06793213L.33898927 .22369385 .33099366 .23371887C.33099366 .23672486 .39698792 .3078308 .4059906 .31684876 .44099427 .35588075 .47599793 .3936615 .5549927 .39465333V.43066407C.5269928 .4286499 .49798585 .426651 .47099305 .426651 .44099427 .426651 .4019928 .42765809 .37199403 .43066407V.39465333C.3889923 .39169313 .3919983 .3808136 .3919983 .3718872 .3919983 .3718872 .3919983 .35488893 .3769989 .33789063L.30699159 .25875855 .22399903 .35388185C.21398926 .36488343 .21299744 .3698883 .21299744 .3738861 .21299744 .38871766 .22698975 .39465333 .23999024 .39465333V.43066407C.20298767 .42765809 .16499329 .426651 .12799073 .426651 .09799194 .426651 .05999756 .42765809 .0309906 .43066407V.39465333C.07699585 .39465333 .102996829 .39465333 .1289978 .36488343L.2539978 .22070313 .2619934 .21069336C.2619934 .20770264 .18699646 .12580872 .1769867 .11483765 .13999939 .074920658 .10598755 .037994386 .025985718 .035995485V0C.055999757 .0019989014 .07798767 .0039978029 .10899353 .0039978029 .13899231 .0039978029 .1789856 .0029907227 .20899964 0V.035995485C.19699097 .037994386 .18899536 .04496765 .18899536 .058944704 .18899536 .07791138 .19999695 .09088135 .21598816 .10784912L.28599549 .18469239 .37298585 .08589172C.3919983 .064941409 .3919983 .062942508 .3919983 .0569458 .3919983 .036987306 .36898805 .035995485 .36499024 .035995485V0C.37399293 .0009918213 .44599916 .0039978029 .47799684 .0039978029 .5099945 .0039978029 .5419922 .0029907227 .57398989 0Z"/>
<path id="font_3_105" d="M.375 .12606812V.1809845H.34098817V.12705994C.34098817 .059173585 .30899049 .022232056 .269989 .022232056 .20098877 .022232056 .20098877 .10609436 .20098877 .124069217V.39465333H.35699464V.43066407H.20098877V.6142578H.16699219C.1659851 .5244446 .125 .42565919 .0289917 .4226532V.39465333H.12199402V.1250763C.12199402 .01322937 .20599365-.009765625 .2619934-.009765625 .32899476-.010009766 .375 .04699707 .375 .12599182V.12606812Z"/>
<path id="font_2_1" d="M.20599365 .11984253C.17098999 .06594849 .13899231 .039978029 .07998657 .035995485 .069992069 .034988405 .056991579 .034988405 .056991579 .01499939 .056991579 .0039978029 .06599426 0 .070999149 0 .09700012 0 .12998963 .0039978029 .15699768 .0039978029 .18899536 .0039978029 .22999573 0 .2599945 0 .2649994 0 .27999879 0 .27999879 .021987915 .27999879 .034988405 .2669983 .035995485 .2630005 .035995485 .25498963 .036987306 .21899414 .038986207 .21899414 .06594849 .21899414 .077926639 .22898865 .09489441 .23399353 .103881839L.31399537 .22766114H.59999087L.6239929 .061950685C.6199951 .051971437 .6139984 .035995485 .5549927 .035995485 .54299929 .035995485 .5289917 .035995485 .5289917 .01399231 .5289917 .009994507 .5319977 0 .54499819 0 .57398989 0 .644989 .0039978029 .673996 .0039978029 .69200137 .0039978029 .71499636 .0029907227 .73298647 .0029907227 .7509918 .0019989014 .7719879 0 .7899933 0 .8029938 0 .80999758 .0079956059 .80999758 .020996094 .80999758 .035995485 .7979889 .035995485 .7819977 .035995485 .723999 .035995485 .7220001 .04397583 .71899417 .06793213L.6309967 .6848755C.6279907 .70588687 .6259918 .7128906 .6069946 .7128906 .58799746 .7128906 .58200076 .70388796 .57299807 .6898804L.20599365 .11984253M.33799745 .26367188 .5479889 .5908356 .59498599 .26367188H.33799745Z"/>
<path id="font_2_2" d="M.18998719 .07797241C.18099976 .04399109 .1789856 .035995485 .101989749 .035995485 .084991458 .035995485 .07199097 .035995485 .07199097 .01499939 .07199097 0 .083999637 0 .101989749 0H.4889984C.6569977 0 .7859955 .11494446 .7859955 .21388245 .7859955 .28485108 .72099307 .34580995 .61499026 .35681153 .73599246 .37879945 .83699038 .4547577 .83699038 .54067996 .83699038 .6166382 .7599945 .6826172 .6299896 .6826172H.2659912C.24699402 .6826172 .23399353 .6826172 .23399353 .660614 .23399353 .64660647 .24598694 .64660647 .2659912 .64660647 .2669983 .64660647 .28599549 .64660647 .3039856 .64460757 .32499696 .64260867 .32699586 .64060977 .32699586 .63061526 .32699586 .62861636 .32699586 .6236267 .32299806 .6086426L.18998719 .07797241M.34999085 .3688202 .41099549 .6126404C.4189911 .6436157 .41999818 .64660647 .46199037 .64660647H.6139984C.71598818 .64660647 .7389984 .57966616 .7389984 .541687 .7389984 .46073915 .647995 .3688202 .5139923 .3688202H.34999085M.3019867 .035995485C.2709961 .035995485 .269989 .036987306 .269989 .04598999 .269989 .04698181 .269989 .051986696 .27398683 .066970828L.34298707 .3408203H.5549927C.6489868 .3408203 .68499758 .27885438 .68499758 .22088623 .68499758 .12194824 .58399966 .035995485 .46299745 .035995485H.3019867Z"/>
<path id="font_4_1" d="M.44198609 .69781497C.43499757 .7108154 .43299867 .7158203 .41600038 .7158203 .39898683 .7158203 .39698792 .7108154 .3899994 .69781497L.051986696 .019989014C.04699707 .010986328 .04699707 .008987427 .04699707 .0079956059 .04699707 0 .052993776 0 .068984989 0H.7630005C.7789917 0 .7849884 0 .7849884 .0079956059 .7849884 .008987427 .7849884 .010986328 .7799988 .019989014L.44198609 .69781497M.38398744 .61582949 .6529999 .07598877H.11399841L.38398744 .61582949Z"/>
<path id="font_1_5" d="M.46798707 .37236024C.46798707 .42637635 .44198609 .4423828 .42399598 .4423828 .39898683 .4423828 .375 .41636659 .375 .3943634 .375 .38136292 .37998963 .3753662 .3909912 .36434938 .4119873 .3443451 .4249878 .31834413 .4249878 .28233338 .4249878 .24032593 .3639984 .011245728 .24699402 .011245728 .19599915 .011245728 .17298889 .04626465 .17298889 .09828186 .17298889 .15429688 .19999695 .22731018 .23098755 .31033326 .23799134 .3273468 .24299622 .34135438 .24299622 .36035157 .24299622 .405365 .21099854 .4423828 .16099549 .4423828 .066986087 .4423828 .0289917 .29733277 .0289917 .28833009 .0289917 .27833558 .038986207 .27833558 .040985109 .27833558 .050994874 .27833558 .051986696 .28033448 .056991579 .29634095 .085998538 .39736939 .1289978 .42037965 .1579895 .42037965 .1659851 .42037965 .18299866 .42037965 .18299866 .3883667 .18299866 .36335755 .17298889 .3363495 .1659851 .31834413 .12199402 .20230103 .10899353 .15629578 .10899353 .11328125 .10899353 .0052490236 .19699097-.0107421879 .24299622-.0107421879 .41099549-.0107421879 .46798707 .32034303 .46798707 .37236024Z"/>
</defs>
<path transform="matrix(1,0,0,-1.00005,2.0960007,143.53838)" stroke-width=".3985" stroke-linecap="butt" stroke-miterlimit="10" stroke-linejoin="miter" fill="none" stroke="#000000" d="M0 0"/>
<path transform="matrix(1,0,0,-1.00005,2.0960007,143.53838)" stroke-width=".3985" stroke-linecap="butt" stroke-miterlimit="10" stroke-linejoin="miter" fill="none" stroke="#000000" d="M0 0V141.73404H141.73404V0ZM141.73404 141.73404"/>
<path transform="matrix(1,0,0,-1.00005,2.0960007,143.53838)" stroke-width=".3985" stroke-linecap="butt" stroke-miterlimit="10" stroke-linejoin="miter" fill="none" stroke="#000000" d="M28.3468 113.38728 54.99281 113.38727M86.74121 113.38727 113.38724 113.38728"/>
<path transform="matrix(1,0,0,-1.00005,2.0960007,143.53838)" stroke-width=".797" stroke-linecap="butt" stroke-linejoin="bevel" fill="none" stroke="#000000" d="M54.59431 113.38727 57.67172 119.34012 63.02954 107.43442 68.38736 119.34012 73.74516 107.43442 79.10298 119.34012 84.4608 107.43442 87.13971 113.38727"/>
<use data-text="R" xlink:href="#font_1_2" transform="matrix(9.9626,0,0,-9.963098,69.142,20.376229)"/>
<path transform="matrix(1,0,0,-1.00005,2.0960007,143.53838)" stroke-width=".3985" stroke-linecap="butt" stroke-miterlimit="10" stroke-linejoin="miter" fill="none" stroke="#000000" d="M42.52022 14.17339 42.5202 44.78787M42.5202 68.59932 42.52022 99.21382"/>
<path transform="matrix(1,0,0,-1.00005,2.0960007,143.53838)" stroke-width=".797" stroke-linecap="butt" stroke-miterlimit="10" stroke-linejoin="miter" fill="none" stroke="#000000" d="M30.61449 56.6936C30.61449 50.11818 35.94478 44.78787 42.5202 44.78787 49.09561 44.78787 54.42592 50.11818 54.42592 56.6936 54.42592 63.26901 49.09561 68.59932 42.5202 68.59932 35.94478 68.59932 30.61449 63.26901 30.61449 56.6936ZM42.5202 56.6936"/>
<path transform="matrix(1,0,0,-1.00005,2.0960007,143.53838)" stroke-width=".797" stroke-linecap="butt" stroke-miterlimit="10" stroke-linejoin="miter" fill="none" stroke="#000000" d="M42.5202 48.35965V65.02754"/>
<path transform="matrix(1,0,0,-1.00005,2.0960007,143.53838)" d="M42.5202 60.91023H44.50446L42.5202 65.12677 40.53595 60.91023Z"/>
<path transform="matrix(1,0,0,-1.00005,2.0960007,143.53838)" stroke-width=".797" stroke-linecap="butt" stroke-miterlimit="10" stroke-linejoin="miter" fill="none" stroke="#000000" d="M42.5202 60.91023H44.50446L42.5202 65.12677 40.53595 60.91023Z"/>
<use data-text="I" xlink:href="#font_1_1" transform="matrix(9.9626,0,0,-9.963098,21.272004,88.98865)"/>
<use data-text="s" xlink:href="#font_2_3" transform="matrix(6.9738,0,0,-6.9741489,25.651001,90.48271)"/>
<path transform="matrix(1,0,0,-1.00005,2.0960007,143.53838)" stroke-width=".3985" stroke-linecap="butt" stroke-miterlimit="10" stroke-linejoin="miter" fill="none" stroke="#000000" d="M99.21387 99.21387 99.21385 62.6465M99.21385 50.74078 99.21387 14.17343"/>
<path transform="matrix(1,0,0,-1.00005,2.0960007,143.53838)" stroke-width=".797" stroke-linecap="butt" stroke-miterlimit="10" stroke-linejoin="miter" fill="none" stroke="#000000" d="M111.11957 62.6465H87.30814M105.1667 58.67793H93.261M111.11957 54.70937H87.30814M105.1667 50.74078H93.261"/>
<use data-text="V" xlink:href="#font_1_3" transform="matrix(9.9626,0,0,-9.963098,116.016,88.98865)"/>
<use data-text="s" xlink:href="#font_2_3" transform="matrix(6.9738,0,0,-6.9741489,121.826999,90.48271)"/>
<path transform="matrix(1,0,0,-1.00005,2.0960007,143.53838)" stroke-width=".3985" stroke-linecap="butt" stroke-miterlimit="10" stroke-linejoin="miter" fill="none" stroke="#000000" d="M141.73404 113.38724H170.08084M170.08084 113.38724H198.42766"/>
<path transform="matrix(1,0,0,-1.00005,2.0960007,143.53838)" d="M200.01482 113.38724C200.01482 114.2638 199.30423 114.97438 198.42766 114.97438 197.5511 114.97438 196.84052 114.2638 196.84052 113.38724 196.84052 112.51067 197.5511 111.80008 198.42766 111.80008 199.30423 111.80008 200.01482 112.51067 200.01482 113.38724ZM198.42766 113.38724" fill="#ffffff"/>
<path transform="matrix(1,0,0,-1.00005,2.0960007,143.53838)" stroke-width=".3985" stroke-linecap="butt" stroke-miterlimit="10" stroke-linejoin="miter" fill="none" stroke="#000000" d="M200.01482 113.38724C200.01482 114.2638 199.30423 114.97438 198.42766 114.97438 197.5511 114.97438 196.84052 114.2638 196.84052 113.38724 196.84052 112.51067 197.5511 111.80008 198.42766 111.80008 199.30423 111.80008 200.01482 112.51067 200.01482 113.38724ZM198.42766 113.38724"/>
<path transform="matrix(1,0,0,-1.00005,2.0960007,143.53838)" d="" fill="#ffffff"/>
<path transform="matrix(1,0,0,-1.00005,2.0960007,143.53838)" stroke-width=".3985" stroke-linecap="butt" stroke-miterlimit="10" stroke-linejoin="miter" fill="none" stroke="#000000" d=""/>
<path transform="matrix(1,0,0,-1.00005,2.0960007,143.53838)" d="M168.34462 113.38724V111.40298L172.56116 113.38724 168.34462 115.37149Z"/>
<path transform="matrix(1,0,0,-1.00005,2.0960007,143.53838)" stroke-width=".3985" stroke-linecap="butt" stroke-miterlimit="10" stroke-linejoin="miter" fill="none" stroke="#000000" d="M168.34462 113.38724V111.40298L172.56116 113.38724 168.34462 115.37149Z"/>
<use data-text="i" xlink:href="#font_1_4" transform="matrix(9.9626,0,0,-9.963098,164.793,25.061455)"/>
<use data-text="e" xlink:href="#font_3_50" transform="matrix(6.9738,0,0,-6.9741489,168.225,26.55552)"/>
<use data-text="x" xlink:href="#font_3_116" transform="matrix(6.9738,0,0,-6.9741489,171.7677,26.55552)"/>
<use data-text="t" xlink:href="#font_3_105" transform="matrix(6.9738,0,0,-6.9741489,175.95198,26.55552)"/>
<path transform="matrix(1,0,0,-1.00005,2.0960007,143.53838)" stroke-width=".3985" stroke-linecap="butt" stroke-miterlimit="10" stroke-linejoin="miter" fill="none" stroke="#000000" d="M141.73404 28.34676H170.08084M170.08084 28.34676H198.42766"/>
<path transform="matrix(1,0,0,-1.00005,2.0960007,143.53838)" d="M200.01482 28.34676C200.01482 29.22331 199.30423 29.9339 198.42766 29.9339 197.5511 29.9339 196.84052 29.22331 196.84052 28.34676 196.84052 27.4702 197.5511 26.75961 198.42766 26.75961 199.30423 26.75961 200.01482 27.4702 200.01482 28.34676ZM198.42766 28.34676" fill="#ffffff"/>
<path transform="matrix(1,0,0,-1.00005,2.0960007,143.53838)" stroke-width=".3985" stroke-linecap="butt" stroke-miterlimit="10" stroke-linejoin="miter" fill="none" stroke="#000000" d="M200.01482 28.34676C200.01482 29.22331 199.30423 29.9339 198.42766 29.9339 197.5511 29.9339 196.84052 29.22331 196.84052 28.34676 196.84052 27.4702 197.5511 26.75961 198.42766 26.75961 199.30423 26.75961 200.01482 27.4702 200.01482 28.34676ZM198.42766 28.34676"/>
<path transform="matrix(1,0,0,-1.00005,2.0960007,143.53838)" d="" fill="#ffffff"/>
<path transform="matrix(1,0,0,-1.00005,2.0960007,143.53838)" stroke-width=".3985" stroke-linecap="butt" stroke-miterlimit="10" stroke-linejoin="miter" fill="none" stroke="#000000" d=""/>
<path transform="matrix(1,0,0,-1.00005,2.0960007,143.53838)" stroke-width=".3985" stroke-linecap="butt" stroke-miterlimit="10" stroke-linejoin="miter" fill="none" stroke="#000000" d="M198.42766 113.38724"/>
<use data-text="V" xlink:href="#font_1_3" transform="matrix(9.9626,0,0,-9.963098,204.043,32.80284)"/>
<use data-text="A" xlink:href="#font_2_1" transform="matrix(6.9738,0,0,-6.9741489,209.854,34.296907)"/>
<path transform="matrix(1,0,0,-1.00005,2.0960007,143.53838)" stroke-width=".3985" stroke-linecap="butt" stroke-miterlimit="10" stroke-linejoin="miter" fill="none" stroke="#000000" d="M198.42766 28.34676"/>
<use data-text="V" xlink:href="#font_1_3" transform="matrix(9.9626,0,0,-9.963098,204.043,117.84709)"/>
<use data-text="B" xlink:href="#font_2_2" transform="matrix(6.9738,0,0,-6.9741489,209.854,119.341159)"/>
<path transform="matrix(1,0,0,-1.00005,2.0960007,143.53838)" stroke-width=".3985" stroke-linecap="butt" stroke-miterlimit="10" stroke-linejoin="miter" fill="none" stroke="#000000" d="M198.42766 70.867"/>
<use data-text="&#x2206;" xlink:href="#font_4_1" transform="matrix(9.9626,0,0,-9.963098,188.29001,75.28996)"/>
<use data-text="v" xlink:href="#font_1_5" transform="matrix(9.9626,0,0,-9.963098,196.59201,75.28996)"/>
<use data-text="e" xlink:href="#font_3_50" transform="matrix(6.9738,0,0,-6.9741489,201.421,76.78403)"/>
<use data-text="x" xlink:href="#font_3_116" transform="matrix(6.9738,0,0,-6.9741489,204.9637,76.78403)"/>
<use data-text="t" xlink:href="#font_3_105" transform="matrix(6.9738,0,0,-6.9741489,209.14798,76.78403)"/>
</svg>
