<svg xmlns="http://www.w3.org/2000/svg" xmlns:xlink="http://www.w3.org/1999/xlink" xmlns:inkscape="http://www.inkscape.org/namespaces/inkscape" version="1.1" width="236" height="96" viewBox="0 0 236 96">
<defs>
<path id="font_1_5" d="M.6279907 .5686035C.6769867 .64660647 .71899417 .6496124 .7559967 .6516113 .7679901 .65260317 .7689972 .6696167 .7689972 .6706085 .7689972 .6786041 .7639923 .6826172 .7559967 .6826172 .7299957 .6826172 .70098879 .6796112 .673996 .6796112 .6409912 .6796112 .6069946 .6826172 .57499697 .6826172 .56900027 .6826172 .55599978 .6826172 .55599978 .66360476 .55599978 .65260317 .5649872 .6516113 .57199099 .6516113 .598999 .6496124 .6179962 .63960269 .6179962 .61860659 .6179962 .6036072 .6029968 .581604 .6029968 .5805969L.29599 .092544559 .22799683 .62161257C.22799683 .63861086 .25099183 .6516113 .29699708 .6516113 .31098939 .6516113 .32199098 .6516113 .32199098 .6716156 .32199098 .680603 .31399537 .6826172 .30799867 .6826172 .2679901 .6826172 .22499085 .6796112 .18399048 .6796112 .1659851 .6796112 .14698792 .680603 .1289978 .680603 .11099243 .680603 .09199524 .6826172 .07499695 .6826172 .067993167 .6826172 .055999757 .6826172 .055999757 .66360476 .055999757 .6516113 .06498718 .6516113 .08099365 .6516113 .13699341 .6516113 .13798523 .64260867 .14099121 .6175995L.21998596 .0005340576C.22299195-.019470215 .22698975-.022460938 .23999024-.022460938 .2559967-.022460938 .2599945-.017471314 .2679901-.004470825L.6279907 .5686035Z"/>
<path id="font_2_66" d="M.27398683 0V.035995485C.21598816 .035995485 .20599365 .035995485 .20599365 .07803345V.44140626L.05899048 .43052674V.39453126C.12199402 .39453126 .1309967 .3885193 .1309967 .33952333V.07952881C.1309967 .035995485 .12098694 .035995485 .055999757 .035995485V0C.055999757 0 .12799073 .0039978029 .16799927 .0039978029 .20298767 .0039978029 .23899842 .0029907227 .27398683 0M.21899414 .60214236C.21899414 .6341553 .19400025 .66015627 .1619873 .66015627 .12799073 .66015627 .10499573 .6321411 .10499573 .6031494 .10499573 .57115176 .12998963 .54515078 .1619873 .54515078 .19599915 .54515078 .21899414 .57315066 .21899414 .60214236Z"/>
<path id="font_2_77" d="M.58999636 0V.035995485C.5249939 .035995485 .5149994 .035995485 .5149994 .07904053V.3032837C.5149994 .3903656 .47200013 .44140626 .36499024 .44140626 .2829895 .44140626 .22999573 .39637757 .20199585 .34432984H.20098877V.44140626L.053985597 .43052674V.39453126C.12098694 .39453126 .1289978 .3875122 .1289978 .33843995V.079055789C.1289978 .035995485 .11898804 .035995485 .053985597 .035995485V0C.053985597 0 .12599182 .0039978029 .16799927 .0039978029 .20498657 .0039978029 .27398683 .0009918213 .2829895 0V.035995485C.21798706 .035995485 .20799256 .035995485 .20799256 .079055789V.25932313C.20799256 .36434938 .29100038 .4133911 .35699464 .4133911 .4269867 .4133911 .43598939 .3583374 .43598939 .3072815V.07904053C.43598939 .035995485 .42599488 .035995485 .36099244 .035995485V0C.36099244 0 .43299867 .0039978029 .47499085 .0039978029 .5119934 .0039978029 .58099368 .0009918213 .58999636 0Z"/>
<path id="font_1_4" d="M.375 .6136017C.3809967 .63760378 .38398744 .6476135 .40299989 .65060427 .4119873 .6516113 .44400025 .6516113 .46398927 .6516113 .5349884 .6516113 .6459961 .6516113 .6459961 .5525818 .6459961 .51856997 .6299896 .44955445 .59098818 .41055299 .5649872 .38453675 .5119934 .35253907 .42199708 .35253907H.30999757L.375 .6136017M.5189972 .33953858C.6199951 .3615265 .7389984 .43154908 .7389984 .5325775 .7389984 .61860659 .6489868 .6826172 .5179901 .6826172H.23298645C.21299744 .6826172 .20399475 .6826172 .20399475 .6626129 .20399475 .6516113 .21299744 .6516113 .23199463 .6516113 .23399353 .6516113 .25299073 .6516113 .269989 .6496124 .28799439 .6476135 .29699708 .64660647 .29699708 .63360598 .29699708 .62960818 .29599 .6266022 .29299928 .6145935L.15899658 .07752991C.14898682 .038528444 .14698792 .030532837 .067993167 .030532837 .049987794 .030532837 .040985109 .030532837 .040985109 .010528564 .040985109-.00047302247 .052993776-.00047302247 .054992677-.00047302247 .08299255-.00047302247 .15299988 .002532959 .18099976 .002532959 .20899964 .002532959 .27999879-.00047302247 .30799867-.00047302247 .31599427-.00047302247 .32798768-.00047302247 .32798768 .01953125 .32798768 .030532837 .31900025 .030532837 .2999878 .030532837 .2630005 .030532837 .23498535 .030532837 .23498535 .048538209 .23498535 .054534913 .23699951 .059524537 .23799134 .0655365L.3039856 .3305359H.4229889C.5139923 .3305359 .5319977 .27453614 .5319977 .23953247 .5319977 .22453308 .5239868 .19352722 .5179901 .17053223 .5109863 .14253235 .5019989 .105529788 .5019989 .08552551 .5019989-.022460938 .621994-.022460938 .6349945-.022460938 .7200012-.022460938 .7549896 .07853699 .7549896 .0925293 .7549896 .104537967 .74398806 .104537967 .7429962 .104537967 .73399356 .104537967 .7319946 .09753418 .7299957 .090530399 .7049866 .016525269 .6619873-.00047302247 .6389923-.00047302247 .60598757-.00047302247 .598999 .021530152 .598999 .060531618 .598999 .091537479 .6049957 .14253235 .60899356 .17453003 .61099246 .1885376 .61299136 .20753479 .61299136 .2215271 .61299136 .2985382 .54599 .3295288 .5189972 .33953858Z"/>
<path id="font_1_2" d="M.37399293 .6056366C.3829956 .6416168 .38598634 .6516113 .46499635 .6516113 .4889984 .6516113 .49699403 .6516113 .49699403 .6706085 .49699403 .6826172 .48599244 .6826172 .48199464 .6826172 .45298768 .6826172 .3789978 .6796112 .34999085 .6796112 .31999208 .6796112 .24699402 .6826172 .21699524 .6826172 .20999146 .6826172 .19699097 .6826172 .19699097 .6626129 .19699097 .6516113 .20599365 .6516113 .22499085 .6516113 .2669983 .6516113 .2939911 .6516113 .2939911 .63261416 .2939911 .6276245 .2939911 .6256256 .2919922 .6166229L.15699768 .07795715C.147995 .040985109 .14498902 .0309906 .06599426 .0309906 .042999269 .0309906 .033996583 .0309906 .033996583 .010986328 .033996583 0 .04598999 0 .04899597 0 .07798767 0 .15098572 .0029907227 .17999268 .0029907227 .20999146 .0029907227 .28399659 0 .31399537 0 .32199098 0 .33399964 0 .33399964 .018997193 .33399964 .0309906 .32598878 .0309906 .3039856 .0309906 .28599549 .0309906 .2809906 .0309906 .26098634 .032989503 .23999024 .034988405 .23599243 .038986207 .23599243 .049987794 .23599243 .05796814 .23799134 .065963748 .23999024 .07296753L.37399293 .6056366Z"/>
<path id="font_3_1" d="M.33499146 .63612368C.33499146 .6630554 .33299256 .6640625 .30499269 .6640625 .24099732 .6014404 .1499939 .6004486 .10899353 .6004486V.5644531C.1329956 .5644531 .19898987 .5644531 .2539978 .592453V.08203125C.2539978 .04899597 .2539978 .035995485 .1539917 .035995485H.115997318V0C.13398743 .0009918213 .25698854 .0039978029 .2939911 .0039978029 .32499696 .0039978029 .45098878 .0009918213 .47299195 0V.035995485H.43499757C.33499146 .035995485 .33499146 .04899597 .33499146 .08203125V.63612368Z"/>
<path id="font_1_1" d="M.7599945 .69506838C.7599945 .69807437 .7579956 .7050781 .7489929 .7050781 .74598696 .7050781 .7449951 .70407107 .73399356 .69306948L.6639862 .61602786C.6549988 .6300354 .60899356 .7050781 .49798585 .7050781 .2749939 .7050781 .049987794 .48391725 .049987794 .25172425 .049987794 .08659363 .16799927-.022460938 .32099916-.022460938 .4079895-.022460938 .48399354 .017532349 .5369873 .063583377 .6299896 .14564514 .6469879 .2367096 .6469879 .23971558 .6469879 .24972534 .6369934 .24972534 .6349945 .24972534 .6289978 .24972534 .6239929 .24772644 .621994 .23971558 .61299136 .21069336 .58999636 .13963318 .5209961 .081588748 .45199586 .025543213 .3889923 .008529663 .33699037 .008529663 .24699402 .008529663 .14099121 .060577394 .14099121 .21670532 .14099121 .27374269 .1619873 .43588258 .2619934 .55296328 .32299806 .62402346 .4169922 .67407229 .5059967 .67407229 .60798647 .67407229 .6669922 .5970001 .6669922 .48091126 .6669922 .44088746 .6639862 .43988038 .6639862 .4298706 .6639862 .41986085 .6749878 .41986085 .67900088 .41986085 .69200137 .41986085 .69200137 .42185975 .69699099 .43988038L.7599945 .69506838Z"/>
<path id="font_3_2" d="M.5049896 .18203736H.47099305C.46798707 .16001892 .45799256 .100997928 .44499208 .09098816 .43699647 .084991458 .3600006 .084991458 .34599305 .084991458H.1619873C.2669983 .17803955 .3019867 .20603943 .3619995 .25306703 .43598939 .312088 .5049896 .374115 .5049896 .46914674 .5049896 .5900879 .39898683 .6640625 .2709961 .6640625 .14698792 .6640625 .06298828 .57710269 .06298828 .4851532 .06298828 .43414308 .10598755 .42915345 .115997318 .42915345 .13999939 .42915345 .16899109 .44615174 .16899109 .48214723 .16899109 .5001526 .1619873 .53515627 .10998535 .53515627 .14099121 .6060791 .20899964 .62805178 .2559967 .62805178 .35598756 .62805178 .4079895 .5501404 .4079895 .46914674 .4079895 .38212586 .34599305 .3130951 .31399537 .27708436L.07299805 .038986207C.06298828 .02999878 .06298828 .027999878 .06298828 0H.47499085L.5049896 .18203736Z"/>
<path id="font_1_3" d="M.37399293 .6046295C.3829956 .64060977 .38598634 .6516113 .47999574 .6516113 .5099945 .6516113 .5179901 .6516113 .5179901 .6706085 .5179901 .6826172 .5069885 .6826172 .5019989 .6826172 .46899415 .6826172 .3869934 .6796112 .35398866 .6796112 .32398988 .6796112 .25099183 .6826172 .22099304 .6826172 .21398926 .6826172 .20199585 .6826172 .20199585 .6626129 .20199585 .6516113 .21099854 .6516113 .22999573 .6516113 .23199463 .6516113 .25099183 .6516113 .2679901 .6496124 .28599549 .6476135 .29499818 .64660647 .29499818 .6336212 .29499818 .6296234 .2939911 .62661746 .29100038 .614624L.15699768 .07795715C.14698792 .038986207 .14498902 .0309906 .06599426 .0309906 .04899597 .0309906 .038986207 .0309906 .038986207 .010986328 .038986207 0 .04798889 0 .06599426 0H.5289917C.5529938 0 .55400088 0 .55999758 .016998291L.6389923 .23286438C.6429901 .24386597 .6429901 .24586487 .6429901 .24685669 .6429901 .2508545 .6399994 .25785829 .6309967 .25785829 .621994 .25785829 .62098696 .2528534 .6139984 .23686219 .5799866 .14492798 .5359955 .0309906 .36299134 .0309906H.2689972C.25498963 .0309906 .25299073 .0309906 .24699402 .03199768 .23699951 .032989503 .23399353 .033996583 .23399353 .041992189 .23399353 .04498291 .23399353 .04698181 .23899842 .064971927L.37399293 .6046295Z"/>
<path id="font_3_3" d="M.272995 .33428956C.35099793 .33428956 .40699769 .2803192 .40699769 .1733551 .40699769 .04940796 .33499146 .012466431 .2769928 .012466431 .23699951 .012466431 .14898682 .0234375 .10699463 .082351688 .1539917 .084350589 .16499329 .11735535 .16499329 .13835144 .16499329 .17034912 .14099121 .19335938 .10998535 .19335938 .08198547 .19335938 .053985597 .17634583 .053985597 .13534546 .053985597 .041412355 .1579895-.01953125 .2789917-.01953125 .41799928-.01953125 .5139923 .07336426 .5139923 .1733551 .5139923 .2513275 .44999696 .32929994 .33999635 .35229493 .44499208 .39024354 .48298646 .4650879 .48298646 .5260773 .48298646 .60505679 .3919983 .6640625 .2809906 .6640625 .16999817 .6640625 .084991458 .61006167 .084991458 .5300751 .084991458 .49606324 .10699463 .47706605 .13699341 .47706605 .16799927 .47706605 .18798828 .5000763 .18798828 .5280762 .18798828 .5570679 .16799927 .57806399 .13699341 .5800781 .17199707 .62405398 .24099732 .63505557 .27799989 .63505557 .32299806 .63505557 .38598634 .6130676 .38598634 .5260773 .38598634 .48406983 .37199403 .43814088 .34599305 .4072113 .31298829 .36927796 .2849884 .3672943 .23498535 .36428834 .20999146 .3623047 .20799256 .3623047 .20298767 .3612976 .20098877 .3612976 .19299317 .3592987 .19299317 .34829713 .19299317 .33428956 .20199585 .33428956 .21899414 .33428956H.272995Z"/>
<path id="font_2_81" d="M.5289917 .21325684C.5289917 .3382721 .42199708 .44628907 .28399659 .44628907 .1459961 .44628907 .038986207 .3382721 .038986207 .21325684 .038986207 .0892334 .14898682-.009765625 .28399659-.009765625 .4189911-.009765625 .5289917 .0892334 .5289917 .21325684M.43798829 .22225952C.43798829 .17424011 .43499757 .12124634 .4059906 .08023071 .3789978 .042236329 .33299256 .022232056 .28399659 .022232056 .24699402 .022232056 .19299317 .034225465 .1599884 .083236698 .1329956 .12423706 .12998963 .17625427 .12998963 .22225952 .12998963 .2652588 .1309967 .32426454 .1659851 .36727906 .19099427 .39627076 .23298645 .41827394 .28399659 .41827394 .34298707 .41827394 .3849945 .39027406 .40699769 .3592682 .43499757 .32026673 .43798829 .27026368 .43798829 .22225952Z"/>
<path id="font_2_109" d="M.58999636 0V.035995485C.522995 .035995485 .5149994 .042999269 .5149994 .092056278V.44140626L.36099244 .43052674V.39453126C.42799378 .39439393 .43598939 .3874359 .43598939 .33872987V.16749573C.43598939 .079330448 .3789978 .018234253 .30299378 .018234253 .21199036 .018234253 .20799256 .061309816 .20799256 .11239624V.44140626L.053985597 .43052674V.39453126C.1289978 .39453126 .1289978 .39154054 .1289978 .30273438V.15246582C.1289978 .083343509 .1289978-.009765625 .29599-.009765625 .31799317-.009765625 .3909912-.009765625 .43899537 .07432556H.43998719V-.009765625L.58999636 0Z"/>
<path id="font_2_105" d="M.375 .12606812V.1809845H.34098817V.12705994C.34098817 .059173585 .30899049 .022232056 .269989 .022232056 .20098877 .022232056 .20098877 .10609436 .20098877 .124069217V.39465333H.35699464V.43066407H.20098877V.6142578H.16699219C.1659851 .5244446 .125 .42565919 .0289917 .4226532V.39465333H.12199402V.1250763C.12199402 .01322937 .20599365-.009765625 .2619934-.009765625 .32899476-.010009766 .375 .04699707 .375 .12599182V.12606812Z"/>
</defs>
<path transform="matrix(1.00003,0,0,-1.00003,28.177376,92.99331)" stroke-width=".3985" stroke-linecap="butt" stroke-miterlimit="10" stroke-linejoin="miter" fill="none" stroke="#000000" d="M0 0V30.61449M0 54.42592V85.04042L26.64601 85.0404M58.3944 85.0404 85.04042 85.04042 85.0404 46.48868M85.0404 38.55173 85.04042 0H42.5202M42.5202 0H0"/>
<path transform="matrix(1.00003,0,0,-1.00003,28.177376,92.99331)" stroke-width=".797" stroke-linecap="butt" stroke-miterlimit="10" stroke-linejoin="miter" fill="none" stroke="#000000" d="M-11.90572 42.5202C-11.90572 35.94478-6.57541 30.61449 0 30.61449 6.57541 30.61449 11.90572 35.94478 11.90572 42.5202 11.90572 49.09561 6.57541 54.42592 0 54.42592-6.57541 54.42592-11.90572 49.09561-11.90572 42.5202ZM0 42.5202"/>
<path transform="matrix(1.00003,0,0,-1.00003,28.177376,92.99331)" stroke-width=".797" stroke-linecap="butt" stroke-miterlimit="10" stroke-linejoin="miter" fill="none" stroke="#000000" d="M5.95285 42.5202C4.98253 40.99629 4.0539 39.54378 2.97643 39.54378 1.89896 39.54378 .97032 40.99628 0 42.5202-.9703 44.04411-1.89894 45.49663-2.97643 45.49663-4.05388 45.49663-4.98251 44.04413-5.95285 42.5202"/>
<use data-text="V" xlink:href="#font_1_5" transform="matrix(9.962899,0,0,-9.962899,.5075455,52.619096)"/>
<use data-text="i" xlink:href="#font_2_66" transform="matrix(6.9740097,0,0,-6.9740097,6.318718,54.114145)"/>
<use data-text="n" xlink:href="#font_2_77" transform="matrix(6.9740097,0,0,-6.9740097,8.57132,54.114145)"/>
<path transform="matrix(1.00003,0,0,-1.00003,28.177376,92.99331)" stroke-width=".797" stroke-linecap="butt" stroke-linejoin="bevel" fill="none" stroke="#000000" d="M26.2475 85.0404 29.3249 90.99326 34.68272 79.08755 40.04054 90.99326 45.39836 79.08755 50.75618 90.99326 56.114 79.08755 58.7929 85.0404"/>
<use data-text="R" xlink:href="#font_1_4" transform="matrix(9.962899,0,0,-9.962899,66.87754,24.478249)"/>
<path transform="matrix(1.00003,0,0,-1.00003,28.177376,92.99331)" d="M11.58678 85.0404V83.05615L15.80331 85.0404 11.58678 87.02466Z"/>
<path transform="matrix(1.00003,0,0,-1.00003,28.177376,92.99331)" stroke-width=".3985" stroke-linecap="butt" stroke-miterlimit="10" stroke-linejoin="miter" fill="none" stroke="#000000" d="M11.58678 85.0404V83.05615L15.80331 85.0404 11.58678 87.02466Z"/>
<use data-text="I" xlink:href="#font_1_2" transform="matrix(9.962899,0,0,-9.962899,37.076646,18.278069)"/>
<use data-text="1" xlink:href="#font_3_1" transform="matrix(6.9740097,0,0,-6.9740097,41.455774,19.773118)"/>
<path transform="matrix(1.00003,0,0,-1.00003,28.177376,92.99331)" stroke-width=".797" stroke-linecap="butt" stroke-miterlimit="10" stroke-linejoin="miter" fill="none" stroke="#000000" d="M96.94612 46.48868H73.13469M96.94612 38.55173H73.13469"/>
<use data-text="C" xlink:href="#font_1_1" transform="matrix(9.962899,0,0,-9.962899,90.68025,52.619096)"/>
<path transform="matrix(1.00003,0,0,-1.00003,28.177376,92.99331)" d="M85.0404 67.50076H83.05615L85.0404 63.28421 87.02466 67.50076Z"/>
<path transform="matrix(1.00003,0,0,-1.00003,28.177376,92.99331)" stroke-width=".3985" stroke-linecap="butt" stroke-miterlimit="10" stroke-linejoin="miter" fill="none" stroke="#000000" d="M85.0404 67.50076H83.05615L85.0404 63.28421 87.02466 67.50076Z"/>
<use data-text="I" xlink:href="#font_1_2" transform="matrix(9.962899,0,0,-9.962899,100.851558,29.883412)"/>
<use data-text="2" xlink:href="#font_3_2" transform="matrix(6.9740097,0,0,-6.9740097,105.23068,31.37846)"/>
<path transform="matrix(1.00003,0,0,-1.00003,28.177376,92.99331)" stroke-width=".3985" stroke-linecap="butt" stroke-miterlimit="10" stroke-linejoin="miter" fill="none" stroke="#000000" d="M85.04042 85.04042 113.38722 85.0404M113.38722 85.0404 141.73404 85.04042 141.73403 54.42592M141.73403 30.61449 141.73404 0H113.38722M113.38722 0H85.04042"/>
<path transform="matrix(1.00003,0,0,-1.00003,28.177376,92.99331)" d="M86.62756 85.04042C86.62756 85.91698 85.91698 86.62756 85.04042 86.62756 84.16386 86.62756 83.45328 85.91698 83.45328 85.04042 83.45328 84.16386 84.16386 83.45328 85.04042 83.45328 85.91698 83.45328 86.62756 84.16386 86.62756 85.04042ZM85.04042 85.04042"/>
<path transform="matrix(1.00003,0,0,-1.00003,28.177376,92.99331)" stroke-width=".3985" stroke-linecap="butt" stroke-miterlimit="10" stroke-linejoin="miter" fill="none" stroke="#000000" d="M86.62756 85.04042C86.62756 85.91698 85.91698 86.62756 85.04042 86.62756 84.16386 86.62756 83.45328 85.91698 83.45328 85.04042 83.45328 84.16386 84.16386 83.45328 85.04042 83.45328 85.91698 83.45328 86.62756 84.16386 86.62756 85.04042ZM85.04042 85.04042"/>
<path transform="matrix(1.00003,0,0,-1.00003,28.177376,92.99331)" d="M143.32118 85.04042C143.32118 85.91698 142.6106 86.62756 141.73404 86.62756 140.85749 86.62756 140.1469 85.91698 140.1469 85.04042 140.1469 84.16386 140.85749 83.45328 141.73404 83.45328 142.6106 83.45328 143.32118 84.16386 143.32118 85.04042ZM141.73404 85.04042"/>
<path transform="matrix(1.00003,0,0,-1.00003,28.177376,92.99331)" stroke-width=".3985" stroke-linecap="butt" stroke-miterlimit="10" stroke-linejoin="miter" fill="none" stroke="#000000" d="M143.32118 85.04042C143.32118 85.91698 142.6106 86.62756 141.73404 86.62756 140.85749 86.62756 140.1469 85.91698 140.1469 85.04042 140.1469 84.16386 140.85749 83.45328 141.73404 83.45328 142.6106 83.45328 143.32118 84.16386 143.32118 85.04042ZM141.73404 85.04042"/>
<path transform="matrix(1.00003,0,0,-1.00003,28.177376,92.99331)" stroke-width=".797" stroke-linecap="butt" stroke-linejoin="bevel" fill="none" stroke="#000000" d="M141.57463 54.82442C144.86234 54.82442 147.52748 53.18968 147.52748 51.17308 147.52748 49.15646 144.86234 47.52173 141.57463 47.52173 139.93088 47.52173 138.59836 48.18799 138.59836 49.00986 138.59836 49.83174 139.93088 50.498 141.57463 50.498 144.86234 50.498 147.52748 48.86325 147.52748 46.84665 147.52748 44.83005 144.86234 43.1953 141.57463 43.1953 139.93088 43.1953 138.59836 43.86156 138.59836 44.68344 138.59836 45.50533 139.93088 46.17159 141.57463 46.17159 144.86234 46.17159 147.52748 44.53683 147.52748 42.52023 147.52748 40.50363 144.86234 38.86888 141.57463 38.86888 139.93088 38.86888 138.59836 39.53514 138.59836 40.35703 138.59836 41.1789 139.93088 41.84515 141.57463 41.84515 144.86234 41.84515 147.52748 40.2104 147.52748 38.1938 147.52748 36.1772 144.86234 34.54247 141.57463 34.54247 139.93088 34.54247 138.59836 35.20871 138.59836 36.0306 138.59836 36.85248 139.93088 37.51874 141.57463 37.51874 144.86234 37.51874 147.52748 35.88399 147.52748 33.86739 147.52748 31.85078 144.86234 30.21603 141.57463 30.21603"/>
<use data-text="L" xlink:href="#font_1_3" transform="matrix(9.962899,0,0,-9.962899,158.25128,52.619096)"/>
<path transform="matrix(1.00003,0,0,-1.00003,28.177376,92.99331)" d="M141.73403 71.46938H139.74977L141.73403 67.25282 143.71828 71.46938Z"/>
<path transform="matrix(1.00003,0,0,-1.00003,28.177376,92.99331)" stroke-width=".3985" stroke-linecap="butt" stroke-miterlimit="10" stroke-linejoin="miter" fill="none" stroke="#000000" d="M141.73403 71.46938H139.74977L141.73403 67.25282 143.71828 71.46938Z"/>
<use data-text="I" xlink:href="#font_1_2" transform="matrix(9.962899,0,0,-9.962899,157.54627,25.915299)"/>
<use data-text="3" xlink:href="#font_3_3" transform="matrix(6.9740097,0,0,-6.9740097,161.9254,27.410347)"/>
<path transform="matrix(1.00003,0,0,-1.00003,28.177376,92.99331)" d="M143.32118 0C143.32118 .87656 142.6106 1.58714 141.73404 1.58714 140.85749 1.58714 140.1469 .87656 140.1469 0 140.1469-.87656 140.85749-1.58714 141.73404-1.58714 142.6106-1.58714 143.32118-.87656 143.32118 0ZM141.73404 0"/>
<path transform="matrix(1.00003,0,0,-1.00003,28.177376,92.99331)" stroke-width=".3985" stroke-linecap="butt" stroke-miterlimit="10" stroke-linejoin="miter" fill="none" stroke="#000000" d="M143.32118 0C143.32118 .87656 142.6106 1.58714 141.73404 1.58714 140.85749 1.58714 140.1469 .87656 140.1469 0 140.1469-.87656 140.85749-1.58714 141.73404-1.58714 142.6106-1.58714 143.32118-.87656 143.32118 0ZM141.73404 0"/>
<path transform="matrix(1.00003,0,0,-1.00003,28.177376,92.99331)" d="M86.62756 0C86.62756 .87656 85.91698 1.58714 85.04042 1.58714 84.16386 1.58714 83.45328 .87656 83.45328 0 83.45328-.87656 84.16386-1.58714 85.04042-1.58714 85.91698-1.58714 86.62756-.87656 86.62756 0ZM85.04042 0"/>
<path transform="matrix(1.00003,0,0,-1.00003,28.177376,92.99331)" stroke-width=".3985" stroke-linecap="butt" stroke-miterlimit="10" stroke-linejoin="miter" fill="none" stroke="#000000" d="M86.62756 0C86.62756 .87656 85.91698 1.58714 85.04042 1.58714 84.16386 1.58714 83.45328 .87656 83.45328 0 83.45328-.87656 84.16386-1.58714 85.04042-1.58714 85.91698-1.58714 86.62756-.87656 86.62756 0ZM85.04042 0"/>
<path transform="matrix(1.00003,0,0,-1.00003,28.177376,92.99331)" stroke-width=".3985" stroke-linecap="butt" stroke-miterlimit="10" stroke-linejoin="miter" fill="none" stroke="#000000" d="M141.73404 85.04042 170.08084 85.0404M170.08084 85.0404 198.42766 85.04042"/>
<path transform="matrix(1.00003,0,0,-1.00003,28.177376,92.99331)" d="M200.01482 85.04042C200.01482 85.91698 199.30423 86.62756 198.42766 86.62756 197.5511 86.62756 196.84052 85.91698 196.84052 85.04042 196.84052 84.16386 197.5511 83.45328 198.42766 83.45328 199.30423 83.45328 200.01482 84.16386 200.01482 85.04042ZM198.42766 85.04042" fill="#ffffff"/>
<path transform="matrix(1.00003,0,0,-1.00003,28.177376,92.99331)" stroke-width=".3985" stroke-linecap="butt" stroke-miterlimit="10" stroke-linejoin="miter" fill="none" stroke="#000000" d="M200.01482 85.04042C200.01482 85.91698 199.30423 86.62756 198.42766 86.62756 197.5511 86.62756 196.84052 85.91698 196.84052 85.04042 196.84052 84.16386 197.5511 83.45328 198.42766 83.45328 199.30423 83.45328 200.01482 84.16386 200.01482 85.04042ZM198.42766 85.04042"/>
<path transform="matrix(1.00003,0,0,-1.00003,28.177376,92.99331)" d="" fill="#ffffff"/>
<path transform="matrix(1.00003,0,0,-1.00003,28.177376,92.99331)" stroke-width=".3985" stroke-linecap="butt" stroke-miterlimit="10" stroke-linejoin="miter" fill="none" stroke="#000000" d=""/>
<path transform="matrix(1.00003,0,0,-1.00003,28.177376,92.99331)" stroke-width=".3985" stroke-linecap="butt" stroke-miterlimit="10" stroke-linejoin="miter" fill="none" stroke="#000000" d="M141.73404 0H170.08084M170.08084 0H198.42766"/>
<path transform="matrix(1.00003,0,0,-1.00003,28.177376,92.99331)" d="M200.01482 0C200.01482 .87656 199.30423 1.58714 198.42766 1.58714 197.5511 1.58714 196.84052 .87656 196.84052 0 196.84052-.87656 197.5511-1.58714 198.42766-1.58714 199.30423-1.58714 200.01482-.87656 200.01482 0ZM198.42766 0" fill="#ffffff"/>
<path transform="matrix(1.00003,0,0,-1.00003,28.177376,92.99331)" stroke-width=".3985" stroke-linecap="butt" stroke-miterlimit="10" stroke-linejoin="miter" fill="none" stroke="#000000" d="M200.01482 0C200.01482 .87656 199.30423 1.58714 198.42766 1.58714 197.5511 1.58714 196.84052 .87656 196.84052 0 196.84052-.87656 197.5511-1.58714 198.42766-1.58714 199.30423-1.58714 200.01482-.87656 200.01482 0ZM198.42766 0"/>
<path transform="matrix(1.00003,0,0,-1.00003,28.177376,92.99331)" d="" fill="#ffffff"/>
<path transform="matrix(1.00003,0,0,-1.00003,28.177376,92.99331)" stroke-width=".3985" stroke-linecap="butt" stroke-miterlimit="10" stroke-linejoin="miter" fill="none" stroke="#000000" d=""/>
<path transform="matrix(1.00003,0,0,-1.00003,28.177376,92.99331)" stroke-width=".3985" stroke-linecap="butt" stroke-miterlimit="10" stroke-linejoin="miter" fill="none" stroke="#000000" d="M198.42768 42.52022"/>
<use data-text="V" xlink:href="#font_1_5" transform="matrix(9.962899,0,0,-9.962899,217.71607,53.094114)"/>
<use data-text="o" xlink:href="#font_2_81" transform="matrix(6.9740097,0,0,-6.9740097,223.52725,54.58916)"/>
<use data-text="u" xlink:href="#font_2_109" transform="matrix(6.9740097,0,0,-6.9740097,227.49546,54.58916)"/>
<use data-text="t" xlink:href="#font_2_105" transform="matrix(6.9740097,0,0,-6.9740097,231.89606,54.58916)"/>
</svg>
