<svg xmlns="http://www.w3.org/2000/svg" xmlns:xlink="http://www.w3.org/1999/xlink" xmlns:inkscape="http://www.inkscape.org/namespaces/inkscape" version="1.1" width="411" height="183" viewBox="0 0 411 183">
<defs>
<path id="font_1_4" d="M.6279907 .5686035C.6769867 .64660647 .71899417 .6496124 .7559967 .6516113 .7679901 .65260317 .7689972 .6696167 .7689972 .6706085 .7689972 .6786041 .7639923 .6826172 .7559967 .6826172 .7299957 .6826172 .70098879 .6796112 .673996 .6796112 .6409912 .6796112 .6069946 .6826172 .57499697 .6826172 .56900027 .6826172 .55599978 .6826172 .55599978 .66360476 .55599978 .65260317 .5649872 .6516113 .57199099 .6516113 .598999 .6496124 .6179962 .63960269 .6179962 .61860659 .6179962 .6036072 .6029968 .581604 .6029968 .5805969L.29599 .092544559 .22799683 .62161257C.22799683 .63861086 .25099183 .6516113 .29699708 .6516113 .31098939 .6516113 .32199098 .6516113 .32199098 .6716156 .32199098 .680603 .31399537 .6826172 .30799867 .6826172 .2679901 .6826172 .22499085 .6796112 .18399048 .6796112 .1659851 .6796112 .14698792 .680603 .1289978 .680603 .11099243 .680603 .09199524 .6826172 .07499695 .6826172 .067993167 .6826172 .055999757 .6826172 .055999757 .66360476 .055999757 .6516113 .06498718 .6516113 .08099365 .6516113 .13699341 .6516113 .13798523 .64260867 .14099121 .6175995L.21998596 .0005340576C.22299195-.019470215 .22698975-.022460938 .23999024-.022460938 .2559967-.022460938 .2599945-.017471314 .2679901-.004470825L.6279907 .5686035Z"/>
<path id="font_2_66" d="M.27398683 0V.035995485C.21598816 .035995485 .20599365 .035995485 .20599365 .07803345V.44140626L.05899048 .43052674V.39453126C.12199402 .39453126 .1309967 .3885193 .1309967 .33952333V.07952881C.1309967 .035995485 .12098694 .035995485 .055999757 .035995485V0C.055999757 0 .12799073 .0039978029 .16799927 .0039978029 .20298767 .0039978029 .23899842 .0029907227 .27398683 0M.21899414 .60214236C.21899414 .6341553 .19400025 .66015627 .1619873 .66015627 .12799073 .66015627 .10499573 .6321411 .10499573 .6031494 .10499573 .57115176 .12998963 .54515078 .1619873 .54515078 .19599915 .54515078 .21899414 .57315066 .21899414 .60214236Z"/>
<path id="font_2_77" d="M.58999636 0V.035995485C.5249939 .035995485 .5149994 .035995485 .5149994 .07904053V.3032837C.5149994 .3903656 .47200013 .44140626 .36499024 .44140626 .2829895 .44140626 .22999573 .39637757 .20199585 .34432984H.20098877V.44140626L.053985597 .43052674V.39453126C.12098694 .39453126 .1289978 .3875122 .1289978 .33843995V.079055789C.1289978 .035995485 .11898804 .035995485 .053985597 .035995485V0C.053985597 0 .12599182 .0039978029 .16799927 .0039978029 .20498657 .0039978029 .27398683 .0009918213 .2829895 0V.035995485C.21798706 .035995485 .20799256 .035995485 .20799256 .079055789V.25932313C.20799256 .36434938 .29100038 .4133911 .35699464 .4133911 .4269867 .4133911 .43598939 .3583374 .43598939 .3072815V.07904053C.43598939 .035995485 .42599488 .035995485 .36099244 .035995485V0C.36099244 0 .43299867 .0039978029 .47499085 .0039978029 .5119934 .0039978029 .58099368 .0009918213 .58999636 0Z"/>
<path id="font_3_3" d="M.2939911 .64004519C.2939911 .66400149 .2939911 .6660156 .2709961 .6660156 .20899964 .60227969 .12098694 .60227969 .08898926 .60227969V.57128909C.10899353 .57128909 .16799927 .57128909 .21998596 .5972748V.07902527C.21998596 .042999269 .21699524 .0309906 .1269989 .0309906H.09498596V0C.12998963 .0029907227 .21699524 .0029907227 .25698854 .0029907227 .29699708 .0029907227 .38398744 .0029907227 .4189911 0V.0309906H.3869934C.29699708 .0309906 .2939911 .041992189 .2939911 .07902527V.64004519Z"/>
<path id="font_1_3" d="M.7559967 .577652C.7659912 .61763 .7839966 .64860537 .8639984 .6516113 .86898806 .6516113 .8809967 .65260317 .8809967 .6716156 .8809967 .6726074 .8809967 .6826172 .8679962 .6826172 .83499148 .6826172 .7999878 .6796112 .7669983 .6796112 .73298647 .6796112 .69799807 .6826172 .6649933 .6826172 .6589966 .6826172 .6469879 .6826172 .6469879 .6626129 .6469879 .6516113 .6569977 .6516113 .6649933 .6516113 .7220001 .65060427 .73298647 .6296234 .73298647 .6076355 .73298647 .6046295 .73098757 .5896454 .7299957 .5866394L.6179962 .141922 .39698792 .66360476C.3889923 .6816101 .3880005 .6826172 .36499024 .6826172H.23098755C.21099854 .6826172 .20199585 .6826172 .20199585 .6626129 .20199585 .6516113 .21099854 .6516113 .22999573 .6516113 .23498535 .6516113 .2979889 .6516113 .2979889 .64260867L.1639862 .10594177C.1539917 .065963748 .13699341 .033996583 .055999757 .0309906 .049987794 .0309906 .038986207 .02999878 .038986207 .010986328 .038986207 .0039978029 .04399109 0 .051986696 0 .083999637 0 .11898804 .0029907227 .1519928 .0029907227 .18598938 .0029907227 .22200012 0 .25498963 0 .2599945 0 .272995 0 .272995 .019989014 .272995 .02999878 .2639923 .0309906 .25299073 .0309906 .19499207 .032989503 .18699646 .054977418 .18699646 .07496643 .18699646 .081954959 .18798828 .08695984 .19099427 .09794617L.32299806 .6256256C.32699586 .6196289 .32699586 .61763 .33198548 .6076355L.58099368 .018997193C.58799746 .0019989014 .59098818 0 .59999087 0 .61099246 0 .61099246 .0029907227 .6159973 .020996094L.7559967 .577652Z"/>
<path id="font_3_5" d="M.2939911 .16503906V.07800293C.2939911 .041992189 .2919922 .0309906 .21798706 .0309906H.19699097V0C.23799134 .0029907227 .2899933 .0029907227 .33198548 .0029907227 .37399293 .0029907227 .4269867 .0029907227 .46798707 0V.0309906H.44699098C.37298585 .0309906 .37098695 .041992189 .37098695 .07800293V.16503906H.47099305V.19602967H.37098695V.65075686C.37098695 .67074587 .37098695 .6767578 .35499574 .6767578 .34599305 .6767578 .34298707 .6767578 .33499146 .66474917L.027999878 .19602967V.16503906H.2939911M.2999878 .19602967H.055999757L.2999878 .5688019V.19602967Z"/>
<path id="font_3_2" d="M.45999146 .31976319C.45999146 .39982606 .45498658 .47988893 .41999818 .5539398 .37399293 .65000918 .2919922 .6660156 .25 .6660156 .18998719 .6660156 .116989139 .64001467 .07598877 .54693606 .04399109 .47789 .038986207 .39982606 .038986207 .31976319 .038986207 .24472046 .042999269 .15464783 .083999637 .07859802 .1269989-.0024719239 .19999695-.022460938 .24899292-.022460938 .30299378-.022460938 .3789978-.0014648438 .4229889 .09359741 .45498658 .16265869 .45999146 .2407074 .45999146 .31976319M.24899292-.00047302247C.20999146-.00047302247 .15098572 .024551392 .1329956 .12062073 .12199402 .18066406 .12199402 .2727356 .12199402 .3317871 .12199402 .39582826 .12199402 .46188355 .12998963 .5159149 .14898682 .63500979 .22399903 .64401248 .24899292 .64401248 .28199769 .64401248 .34799195 .6259918 .36698915 .52693179 .3769989 .47088624 .3769989 .39482118 .3769989 .3317871 .3769989 .25672914 .3769989 .18867493 .3659973 .12461853 .35099793 .029556275 .2939911-.00047302247 .24899292-.00047302247Z"/>
<path id="font_4_2" d="M.5049896 .18203736H.47099305C.46798707 .16001892 .45799256 .100997928 .44499208 .09098816 .43699647 .084991458 .3600006 .084991458 .34599305 .084991458H.1619873C.2669983 .17803955 .3019867 .20603943 .3619995 .25306703 .43598939 .312088 .5049896 .374115 .5049896 .46914674 .5049896 .5900879 .39898683 .6640625 .2709961 .6640625 .14698792 .6640625 .06298828 .57710269 .06298828 .4851532 .06298828 .43414308 .10598755 .42915345 .115997318 .42915345 .13999939 .42915345 .16899109 .44615174 .16899109 .48214723 .16899109 .5001526 .1619873 .53515627 .10998535 .53515627 .14099121 .6060791 .20899964 .62805178 .2559967 .62805178 .35598756 .62805178 .4079895 .5501404 .4079895 .46914674 .4079895 .38212586 .34599305 .3130951 .31399537 .27708436L.07299805 .038986207C.06298828 .02999878 .06298828 .027999878 .06298828 0H.47499085L.5049896 .18203736Z"/>
<path id="font_4_1" d="M.33499146 .63612368C.33499146 .6630554 .33299256 .6640625 .30499269 .6640625 .24099732 .6014404 .1499939 .6004486 .10899353 .6004486V.5644531C.1329956 .5644531 .19898987 .5644531 .2539978 .592453V.08203125C.2539978 .04899597 .2539978 .035995485 .1539917 .035995485H.115997318V0C.13398743 .0009918213 .25698854 .0039978029 .2939911 .0039978029 .32499696 .0039978029 .45098878 .0009918213 .47299195 0V.035995485H.43499757C.33499146 .035995485 .33499146 .04899597 .33499146 .08203125V.63612368Z"/>
<path id="font_3_4" d="M.2899933 .35191346C.37199403 .37893678 .42999269 .4490509 .42999269 .52809146 .42999269 .6100464 .34199525 .6660156 .24598694 .6660156 .14498902 .6660156 .068984989 .60606387 .068984989 .53009036 .068984989 .49710084 .09098816 .47808839 .11999512 .47808839 .15098572 .47808839 .17098999 .50009158 .17098999 .5290985 .17098999 .57910159 .12399292 .57910159 .10899353 .57910159 .13999939 .62802127 .20599365 .64100649 .24198914 .64100649 .2829895 .64100649 .33799745 .6190338 .33799745 .5290985 .33799745 .51708987 .33599855 .45906068 .30999757 .4149933 .27999879 .36691285 .24598694 .36390687 .22099304 .36291505 .21299744 .36190797 .18899536 .35990907 .18199158 .35990907 .17399597 .35890199 .16699219 .35791017 .16699219 .3479004 .16699219 .33691407 .17399597 .33691407 .19099427 .33691407H.23498535C.31698609 .33691407 .35398866 .2686615 .35398866 .17037964 .35398866 .034469606 .2849884 .0055389406 .24099732 .0055389406 .19799805 .0055389406 .12298584 .022491456 .08799744 .08137512 .12298584 .07637024 .1539917 .09837341 .1539917 .1363678 .1539917 .17237854 .1269989 .19238281 .09799194 .19238281 .07398987 .19238281 .041992189 .17837525 .041992189 .1343689 .041992189 .043441774 .1349945-.022460938 .24398804-.022460938 .3659973-.022460938 .45700074 .06838989 .45700074 .17037964 .45700074 .252594 .3939972 .33088685 .2899933 .35191346Z"/>
<path id="font_1_1" d="M.19198609 .052993776C.19198609 .08198547 .16799927 .10598755 .13899231 .10598755 .10998535 .10598755 .085998538 .08198547 .085998538 .052993776 .085998538 .023986817 .10998535 0 .13899231 0 .16799927 0 .19198609 .023986817 .19198609 .052993776Z"/>
<path id="font_3_6" d="M.10598755 .07595825C.10598755 .0309906 .09498596 .0309906 .027999878 .0309906V0C.06098938 .0009918213 .10798645 .0029907227 .13699341 .0029907227 .16699219 .0029907227 .20698548 .0019989014 .24699402 0V.0309906C.17999268 .0309906 .16899109 .0309906 .16899109 .07595825V.17886353L.23298645 .23381043C.30999757 .12789917 .35198976 .07196045 .35198976 .053970338 .35198976 .034988405 .33499146 .0309906 .31599427 .0309906V0C.34399415 .0009918213 .40299989 .0029907227 .42399598 .0029907227 .45298768 .0029907227 .48199464 .0019989014 .5109863 0V.0309906C.47399903 .0309906 .45199586 .0309906 .4139862 .0839386L.2869873 .26278688C.28599549 .26478578 .2809906 .2707672 .2809906 .2737732 .2809906 .277771 .35198976 .33770753 .3619995 .34570313 .4249878 .39666749 .46699525 .39865113 .48799134 .3996582V.43066407C.45899964 .42765809 .44599916 .42765809 .41799928 .42765809 .38198854 .42765809 .31999208 .42965699 .30599977 .43066407V.3996582C.32499696 .39865113 .33499146 .3876648 .33499146 .37467958 .33499146 .3547058 .32099916 .3427124 .31298829 .33570863L.17199707 .21382141V.69433596L.027999878 .68333438V.6523285C.09799194 .6523285 .10598755 .64530947 .10598755 .5961609V.07595825Z"/>
<path id="font_3_1" d="M.6769867 .16200257H.6519928C.6469879 .13600159 .6429901 .11299133 .6339874 .08898926 .6289978 .07299805 .6259918 .06498718 .56799319 .06498718H.48799134C.5009918 .1210022 .5319977 .16900635 .57699587 .23501587 .6239929 .306015 .6649933 .37503053 .6649933 .45404054 .6649933 .59306338 .5299988 .7050781 .36099244 .7050781 .18899536 .7050781 .055999757 .5910492 .055999757 .45404054 .055999757 .37503053 .09700012 .306015 .14399719 .23501587 .18798828 .16900635 .21998596 .1210022 .23298645 .06498718H.15299988C.09498596 .06498718 .09199524 .07299805 .08699036 .08799744 .07899475 .11099243 .07398987 .13700867 .068984989 .16200257H.04399109L.07699585 0H.23699951C.25898744 0 .2619934 0 .2619934 .020996094 .2619934 .09098816 .23098755 .17900086 .20799256 .24301148 .18699646 .3010254 .15899658 .3800354 .15899658 .45503236 .15899658 .6150665 .2689972 .68307498 .3600006 .68307498 .45599366 .68307498 .56199648 .61105349 .56199648 .45503236 .56199648 .3800354 .5349884 .3040161 .5059967 .22201538 .4909973 .18000794 .45899964 .08999634 .45899964 .020996094 .45899964 0 .46199037 0 .4850006 0H.6439972L.6769867 .16200257Z"/>
<path id="font_1_2" d="M.7599945 .69506838C.7599945 .69807437 .7579956 .7050781 .7489929 .7050781 .74598696 .7050781 .7449951 .70407107 .73399356 .69306948L.6639862 .61602786C.6549988 .6300354 .60899356 .7050781 .49798585 .7050781 .2749939 .7050781 .049987794 .48391725 .049987794 .25172425 .049987794 .08659363 .16799927-.022460938 .32099916-.022460938 .4079895-.022460938 .48399354 .017532349 .5369873 .063583377 .6299896 .14564514 .6469879 .2367096 .6469879 .23971558 .6469879 .24972534 .6369934 .24972534 .6349945 .24972534 .6289978 .24972534 .6239929 .24772644 .621994 .23971558 .61299136 .21069336 .58999636 .13963318 .5209961 .081588748 .45199586 .025543213 .3889923 .008529663 .33699037 .008529663 .24699402 .008529663 .14099121 .060577394 .14099121 .21670532 .14099121 .27374269 .1619873 .43588258 .2619934 .55296328 .32299806 .62402346 .4169922 .67407229 .5059967 .67407229 .60798647 .67407229 .6669922 .5970001 .6669922 .48091126 .6669922 .44088746 .6639862 .43988038 .6639862 .4298706 .6639862 .41986085 .6749878 .41986085 .67900088 .41986085 .69200137 .41986085 .69200137 .42185975 .69699099 .43988038L.7599945 .69506838Z"/>
<path id="font_2_81" d="M.5289917 .21325684C.5289917 .3382721 .42199708 .44628907 .28399659 .44628907 .1459961 .44628907 .038986207 .3382721 .038986207 .21325684 .038986207 .0892334 .14898682-.009765625 .28399659-.009765625 .4189911-.009765625 .5289917 .0892334 .5289917 .21325684M.43798829 .22225952C.43798829 .17424011 .43499757 .12124634 .4059906 .08023071 .3789978 .042236329 .33299256 .022232056 .28399659 .022232056 .24699402 .022232056 .19299317 .034225465 .1599884 .083236698 .1329956 .12423706 .12998963 .17625427 .12998963 .22225952 .12998963 .2652588 .1309967 .32426454 .1659851 .36727906 .19099427 .39627076 .23298645 .41827394 .28399659 .41827394 .34298707 .41827394 .3849945 .39027406 .40699769 .3592682 .43499757 .32026673 .43798829 .27026368 .43798829 .22225952Z"/>
<path id="font_2_109" d="M.58999636 0V.035995485C.522995 .035995485 .5149994 .042999269 .5149994 .092056278V.44140626L.36099244 .43052674V.39453126C.42799378 .39439393 .43598939 .3874359 .43598939 .33872987V.16749573C.43598939 .079330448 .3789978 .018234253 .30299378 .018234253 .21199036 .018234253 .20799256 .061309816 .20799256 .11239624V.44140626L.053985597 .43052674V.39453126C.1289978 .39453126 .1289978 .39154054 .1289978 .30273438V.15246582C.1289978 .083343509 .1289978-.009765625 .29599-.009765625 .31799317-.009765625 .3909912-.009765625 .43899537 .07432556H.43998719V-.009765625L.58999636 0Z"/>
<path id="font_2_105" d="M.375 .12606812V.1809845H.34098817V.12705994C.34098817 .059173585 .30899049 .022232056 .269989 .022232056 .20098877 .022232056 .20098877 .10609436 .20098877 .124069217V.39465333H.35699464V.43066407H.20098877V.6142578H.16699219C.1659851 .5244446 .125 .42565919 .0289917 .4226532V.39465333H.12199402V.1250763C.12199402 .01322937 .20599365-.009765625 .2619934-.009765625 .32899476-.010009766 .375 .04699707 .375 .12599182V.12606812Z"/>
</defs>
<path transform="matrix(1.00002,0,0,-1.00005,28.176247,143.53838)" stroke-width=".3985" stroke-linecap="butt" stroke-miterlimit="10" stroke-linejoin="miter" fill="none" stroke="#000000" d="M0 0"/>
<path transform="matrix(1.00002,0,0,-1.00005,28.176247,143.53838)" stroke-width=".3985" stroke-linecap="butt" stroke-miterlimit="10" stroke-linejoin="miter" fill="none" stroke="#000000" d="M0 0V58.96129M0 82.77272V141.73404L70.867 141.73403M70.867 141.73403 141.73404 141.73404 141.73403 134.64734M141.73403 134.64734 141.73404 127.56064 118.99948 104.8261M107.77495 93.60156 85.04042 70.86702 107.77495 48.13248M118.99948 36.90794 141.73404 14.1734 141.73403 7.0867M141.73403 7.0867 141.73404 0H70.867M70.867 0H0"/>
<path transform="matrix(1.00002,0,0,-1.00005,28.176247,143.53838)" stroke-width=".797" stroke-linecap="butt" stroke-miterlimit="10" stroke-linejoin="miter" fill="none" stroke="#000000" d="M-11.90572 70.867C-11.90572 64.2916-6.57541 58.96129 0 58.96129 6.57541 58.96129 11.90572 64.2916 11.90572 70.867 11.90572 77.44243 6.57541 82.77272 0 82.77272-6.57541 82.77272-11.90572 77.44243-11.90572 70.867ZM0 70.867"/>
<path transform="matrix(1.00002,0,0,-1.00005,28.176247,143.53838)" stroke-width=".797" stroke-linecap="butt" stroke-miterlimit="10" stroke-linejoin="miter" fill="none" stroke="#000000" d="M5.95285 70.867C4.98253 69.34311 4.0539 67.89058 2.97643 67.89058 1.89896 67.89058 .97032 69.3431 0 70.867-.9703 72.39091-1.89894 73.84343-2.97643 73.84343-4.05388 73.84343-4.98251 72.39093-5.95285 70.867"/>
<use data-text="V" xlink:href="#font_1_4" transform="matrix(9.962799,0,0,-9.963098,.506691,74.81494)"/>
<use data-text="i" xlink:href="#font_2_66" transform="matrix(6.97394,0,0,-6.9741489,6.31781,76.309009)"/>
<use data-text="n" xlink:href="#font_2_77" transform="matrix(6.97394,0,0,-6.9741489,8.570396,76.309009)"/>
<path transform="matrix(1.00002,0,0,-1.00005,28.176247,143.53838)" d="M143.32118 127.56064C143.32118 128.43721 142.6106 129.1478 141.73404 129.1478 140.85749 129.1478 140.1469 128.43721 140.1469 127.56064 140.1469 126.68408 140.85749 125.9735 141.73404 125.9735 142.6106 125.9735 143.32118 126.68408 143.32118 127.56064ZM141.73404 127.56064"/>
<path transform="matrix(1.00002,0,0,-1.00005,28.176247,143.53838)" stroke-width=".3985" stroke-linecap="butt" stroke-miterlimit="10" stroke-linejoin="miter" fill="none" stroke="#000000" d="M143.32118 127.56064C143.32118 128.43721 142.6106 129.1478 141.73404 129.1478 140.85749 129.1478 140.1469 128.43721 140.1469 127.56064 140.1469 126.68408 140.85749 125.9735 141.73404 125.9735 142.6106 125.9735 143.32118 126.68408 143.32118 127.56064ZM141.73404 127.56064"/>
<path transform="matrix(1.00002,0,0,-1.00005,28.176247,143.53838)" stroke-width=".797" stroke-linecap="butt" stroke-miterlimit="10" stroke-linejoin="miter" fill="none" stroke="#000000" d="M118.9995 104.82611 114.7904 86.58612 100.75949 100.61702Z"/>
<path transform="matrix(1.00002,0,0,-1.00005,28.176247,143.53838)" stroke-width=".797" stroke-linecap="butt" stroke-miterlimit="10" stroke-linejoin="miter" fill="none" stroke="#000000" d="M111.98402 111.84155 126.01494 97.81065"/>
<path transform="matrix(1.00002,0,0,-1.00005,28.176247,143.53838)" d="M86.62756 70.86702C86.62756 71.74359 85.91698 72.45418 85.04042 72.45418 84.16386 72.45418 83.45328 71.74359 83.45328 70.86702 83.45328 69.99046 84.16386 69.27988 85.04042 69.27988 85.91698 69.27988 86.62756 69.99046 86.62756 70.86702ZM85.04042 70.86702"/>
<path transform="matrix(1.00002,0,0,-1.00005,28.176247,143.53838)" stroke-width=".3985" stroke-linecap="butt" stroke-miterlimit="10" stroke-linejoin="miter" fill="none" stroke="#000000" d="M86.62756 70.86702C86.62756 71.74359 85.91698 72.45418 85.04042 72.45418 84.16386 72.45418 83.45328 71.74359 83.45328 70.86702 83.45328 69.99046 84.16386 69.27988 85.04042 69.27988 85.91698 69.27988 86.62756 69.99046 86.62756 70.86702ZM85.04042 70.86702"/>
<use data-text="1" xlink:href="#font_3_3" transform="matrix(9.962799,0,0,-9.963098,109.26087,31.404778)"/>
<use data-text="N" xlink:href="#font_1_3" transform="matrix(9.962799,0,0,-9.963098,114.24198,31.404778)"/>
<use data-text="4" xlink:href="#font_3_5" transform="matrix(9.962799,0,0,-9.963098,123.33315,31.404778)"/>
<use data-text="0" xlink:href="#font_3_2" transform="matrix(9.962799,0,0,-9.963098,128.31455,31.404778)"/>
<use data-text="0" xlink:href="#font_3_2" transform="matrix(9.962799,0,0,-9.963098,133.29595,31.404778)"/>
<use data-text="1" xlink:href="#font_3_3" transform="matrix(9.962799,0,0,-9.963098,138.27733,31.404778)"/>
<path transform="matrix(1.00002,0,0,-1.00005,28.176247,143.53838)" stroke-width=".797" stroke-linecap="butt" stroke-miterlimit="10" stroke-linejoin="miter" fill="none" stroke="#000000" d="M118.9995 36.90793 114.7904 55.14793 100.75949 41.11702Z"/>
<path transform="matrix(1.00002,0,0,-1.00005,28.176247,143.53838)" stroke-width=".797" stroke-linecap="butt" stroke-miterlimit="10" stroke-linejoin="miter" fill="none" stroke="#000000" d="M111.98402 29.89249 126.01494 43.9234"/>
<path transform="matrix(1.00002,0,0,-1.00005,28.176247,143.53838)" d="M143.32118 14.1734C143.32118 15.04997 142.6106 15.76056 141.73404 15.76056 140.85749 15.76056 140.1469 15.04997 140.1469 14.1734 140.1469 13.29684 140.85749 12.58626 141.73404 12.58626 142.6106 12.58626 143.32118 13.29684 143.32118 14.1734ZM141.73404 14.1734"/>
<path transform="matrix(1.00002,0,0,-1.00005,28.176247,143.53838)" stroke-width=".3985" stroke-linecap="butt" stroke-miterlimit="10" stroke-linejoin="miter" fill="none" stroke="#000000" d="M143.32118 14.1734C143.32118 15.04997 142.6106 15.76056 141.73404 15.76056 140.85749 15.76056 140.1469 15.04997 140.1469 14.1734 140.1469 13.29684 140.85749 12.58626 141.73404 12.58626 142.6106 12.58626 143.32118 13.29684 143.32118 14.1734ZM141.73404 14.1734"/>
<use data-text="1" xlink:href="#font_3_3" transform="matrix(9.962799,0,0,-9.963098,109.26087,118.713138)"/>
<use data-text="N" xlink:href="#font_1_3" transform="matrix(9.962799,0,0,-9.963098,114.24198,118.713138)"/>
<use data-text="4" xlink:href="#font_3_5" transform="matrix(9.962799,0,0,-9.963098,123.33315,118.713138)"/>
<use data-text="0" xlink:href="#font_3_2" transform="matrix(9.962799,0,0,-9.963098,128.31455,118.713138)"/>
<use data-text="0" xlink:href="#font_3_2" transform="matrix(9.962799,0,0,-9.963098,133.29595,118.713138)"/>
<use data-text="1" xlink:href="#font_3_3" transform="matrix(9.962799,0,0,-9.963098,138.27733,118.713138)"/>
<path transform="matrix(1.00002,0,0,-1.00005,28.176247,143.53838)" stroke-width=".3985" stroke-linecap="butt" stroke-miterlimit="10" stroke-linejoin="miter" fill="none" stroke="#000000" d="M141.73404 127.56064 164.46857 104.8261M175.6931 93.60156 198.42766 70.86702 175.6931 48.13248M164.46857 36.90794 141.73404 14.1734"/>
<path transform="matrix(1.00002,0,0,-1.00005,28.176247,143.53838)" stroke-width=".797" stroke-linecap="butt" stroke-miterlimit="10" stroke-linejoin="miter" fill="none" stroke="#000000" d="M175.69312 93.60155 171.48403 111.84155 157.45311 97.81065Z"/>
<path transform="matrix(1.00002,0,0,-1.00005,28.176247,143.53838)" stroke-width=".797" stroke-linecap="butt" stroke-miterlimit="10" stroke-linejoin="miter" fill="none" stroke="#000000" d="M168.67765 86.58612 182.70856 100.61702"/>
<path transform="matrix(1.00002,0,0,-1.00005,28.176247,143.53838)" d="M200.01482 70.86702C200.01482 71.74359 199.30423 72.45418 198.42766 72.45418 197.5511 72.45418 196.84052 71.74359 196.84052 70.86702 196.84052 69.99046 197.5511 69.27988 198.42766 69.27988 199.30423 69.27988 200.01482 69.99046 200.01482 70.86702ZM198.42766 70.86702"/>
<path transform="matrix(1.00002,0,0,-1.00005,28.176247,143.53838)" stroke-width=".3985" stroke-linecap="butt" stroke-miterlimit="10" stroke-linejoin="miter" fill="none" stroke="#000000" d="M200.01482 70.86702C200.01482 71.74359 199.30423 72.45418 198.42766 72.45418 197.5511 72.45418 196.84052 71.74359 196.84052 70.86702 196.84052 69.99046 197.5511 69.27988 198.42766 69.27988 199.30423 69.27988 200.01482 69.99046 200.01482 70.86702ZM198.42766 70.86702"/>
<use data-text="1" xlink:href="#font_3_3" transform="matrix(9.962799,0,0,-9.963098,196.56662,31.404778)"/>
<use data-text="N" xlink:href="#font_1_3" transform="matrix(9.962799,0,0,-9.963098,201.54773,31.404778)"/>
<use data-text="4" xlink:href="#font_3_5" transform="matrix(9.962799,0,0,-9.963098,210.63889,31.404778)"/>
<use data-text="0" xlink:href="#font_3_2" transform="matrix(9.962799,0,0,-9.963098,215.62029,31.404778)"/>
<use data-text="0" xlink:href="#font_3_2" transform="matrix(9.962799,0,0,-9.963098,220.60169,31.404778)"/>
<use data-text="1" xlink:href="#font_3_3" transform="matrix(9.962799,0,0,-9.963098,225.58307,31.404778)"/>
<path transform="matrix(1.00002,0,0,-1.00005,28.176247,143.53838)" stroke-width=".797" stroke-linecap="butt" stroke-miterlimit="10" stroke-linejoin="miter" fill="none" stroke="#000000" d="M175.69312 48.13249 171.48403 29.89249 157.45311 43.9234Z"/>
<path transform="matrix(1.00002,0,0,-1.00005,28.176247,143.53838)" stroke-width=".797" stroke-linecap="butt" stroke-miterlimit="10" stroke-linejoin="miter" fill="none" stroke="#000000" d="M168.67765 55.14793 182.70856 41.11702"/>
<use data-text="1" xlink:href="#font_3_3" transform="matrix(9.962799,0,0,-9.963098,196.56662,118.713138)"/>
<use data-text="N" xlink:href="#font_1_3" transform="matrix(9.962799,0,0,-9.963098,201.54773,118.713138)"/>
<use data-text="4" xlink:href="#font_3_5" transform="matrix(9.962799,0,0,-9.963098,210.63889,118.713138)"/>
<use data-text="0" xlink:href="#font_3_2" transform="matrix(9.962799,0,0,-9.963098,215.62029,118.713138)"/>
<use data-text="0" xlink:href="#font_3_2" transform="matrix(9.962799,0,0,-9.963098,220.60169,118.713138)"/>
<use data-text="1" xlink:href="#font_3_3" transform="matrix(9.962799,0,0,-9.963098,225.58307,118.713138)"/>
<path transform="matrix(1.00002,0,0,-1.00005,28.176247,143.53838)" stroke-width=".3985" stroke-linecap="butt" stroke-miterlimit="10" stroke-linejoin="miter" fill="none" stroke="#000000" d="M198.42766 70.86702H226.77446M226.77446 70.86702H255.12128 311.81489M311.81489 70.86702H368.5085"/>
<path transform="matrix(1.00002,0,0,-1.00005,28.176247,143.53838)" d="M370.09568 70.86702C370.09568 71.74359 369.3851 72.45418 368.5085 72.45418 367.63197 72.45418 366.92137 71.74359 366.92137 70.86702 366.92137 69.99046 367.63197 69.27988 368.5085 69.27988 369.3851 69.27988 370.09568 69.99046 370.09568 70.86702ZM368.5085 70.86702" fill="#ffffff"/>
<path transform="matrix(1.00002,0,0,-1.00005,28.176247,143.53838)" stroke-width=".3985" stroke-linecap="butt" stroke-miterlimit="10" stroke-linejoin="miter" fill="none" stroke="#000000" d="M370.09568 70.86702C370.09568 71.74359 369.3851 72.45418 368.5085 72.45418 367.63197 72.45418 366.92137 71.74359 366.92137 70.86702 366.92137 69.99046 367.63197 69.27988 368.5085 69.27988 369.3851 69.27988 370.09568 69.99046 370.09568 70.86702ZM368.5085 70.86702"/>
<path transform="matrix(1.00002,0,0,-1.00005,28.176247,143.53838)" d="" fill="#ffffff"/>
<path transform="matrix(1.00002,0,0,-1.00005,28.176247,143.53838)" stroke-width=".3985" stroke-linecap="butt" stroke-miterlimit="10" stroke-linejoin="miter" fill="none" stroke="#000000" d=""/>
<use data-text="V" xlink:href="#font_1_4" transform="matrix(9.962799,0,0,-9.963098,400.2117,67.65359)"/>
<use data-text="2" xlink:href="#font_4_2" transform="matrix(6.97394,0,0,-6.9741489,406.02284,69.14765)"/>
<path transform="matrix(1.00002,0,0,-1.00005,28.176247,143.53838)" stroke-width=".3985" stroke-linecap="butt" stroke-linejoin="bevel" fill="none" stroke="#000000" d="M85.04042 11.90543V4.76207C87.67047 4.76207 89.8025 2.63004 89.8025 0 89.8025-2.63004 87.67047-4.76207 85.04042-4.76207V-11.90543M96.94585 0H90.99313M88.61205 0H73.135"/>
<path transform="matrix(1.00002,0,0,-1.00005,28.176247,143.53838)" stroke-width=".3985" stroke-linecap="butt" stroke-miterlimit="10" stroke-linejoin="miter" fill="none" stroke="#000000" d="M85.04042 11.90543 85.0404 41.38623M85.0404 41.38623 85.04042 70.86702"/>
<path transform="matrix(1.00002,0,0,-1.00005,28.176247,143.53838)" stroke-width=".3985" stroke-linecap="butt" stroke-miterlimit="10" stroke-linejoin="miter" fill="none" stroke="#000000" d="M85.04042-11.90543 85.0404-18.99211M85.0404-18.99211 85.04042-26.07881 226.77446-26.0788M226.77446-26.0788 368.5085-26.07881"/>
<path transform="matrix(1.00002,0,0,-1.00005,28.176247,143.53838)" d="M370.09568-26.07881C370.09568-25.20226 369.3851-24.49167 368.5085-24.49167 367.63197-24.49167 366.92137-25.20226 366.92137-26.07881 366.92137-26.95538 367.63197-27.66597 368.5085-27.66597 369.3851-27.66597 370.09568-26.95538 370.09568-26.07881ZM368.5085-26.07881" fill="#ffffff"/>
<path transform="matrix(1.00002,0,0,-1.00005,28.176247,143.53838)" stroke-width=".3985" stroke-linecap="butt" stroke-miterlimit="10" stroke-linejoin="miter" fill="none" stroke="#000000" d="M370.09568-26.07881C370.09568-25.20226 369.3851-24.49167 368.5085-24.49167 367.63197-24.49167 366.92137-25.20226 366.92137-26.07881 366.92137-26.95538 367.63197-27.66597 368.5085-27.66597 369.3851-27.66597 370.09568-26.95538 370.09568-26.07881ZM368.5085-26.07881"/>
<path transform="matrix(1.00002,0,0,-1.00005,28.176247,143.53838)" d="" fill="#ffffff"/>
<path transform="matrix(1.00002,0,0,-1.00005,28.176247,143.53838)" stroke-width=".3985" stroke-linecap="butt" stroke-miterlimit="10" stroke-linejoin="miter" fill="none" stroke="#000000" d=""/>
<use data-text="V" xlink:href="#font_1_4" transform="matrix(9.962799,0,0,-9.963098,400.2117,179.9472)"/>
<use data-text="1" xlink:href="#font_4_1" transform="matrix(6.97394,0,0,-6.9741489,406.02284,181.44126)"/>
<path transform="matrix(1.00002,0,0,-1.00005,28.176247,143.53838)" stroke-width=".3985" stroke-linecap="butt" stroke-miterlimit="10" stroke-linejoin="miter" fill="none" stroke="#000000" d="M269.29466 70.86702V38.2683M269.29466 6.51991V-26.07881"/>
<path transform="matrix(1.00002,0,0,-1.00005,28.176247,143.53838)" d="M270.88179 70.86702C270.88179 71.74359 270.1712 72.45418 269.29466 72.45418 268.4181 72.45418 267.7075 71.74359 267.7075 70.86702 267.7075 69.99046 268.4181 69.27988 269.29466 69.27988 270.1712 69.27988 270.88179 69.99046 270.88179 70.86702ZM269.29466 70.86702"/>
<path transform="matrix(1.00002,0,0,-1.00005,28.176247,143.53838)" stroke-width=".3985" stroke-linecap="butt" stroke-miterlimit="10" stroke-linejoin="miter" fill="none" stroke="#000000" d="M270.88179 70.86702C270.88179 71.74359 270.1712 72.45418 269.29466 72.45418 268.4181 72.45418 267.7075 71.74359 267.7075 70.86702 267.7075 69.99046 268.4181 69.27988 269.29466 69.27988 270.1712 69.27988 270.88179 69.99046 270.88179 70.86702ZM269.29466 70.86702"/>
<path transform="matrix(1.00002,0,0,-1.00005,28.176247,143.53838)" stroke-width=".797" stroke-linecap="butt" stroke-linejoin="bevel" fill="none" stroke="#000000" d="M269.29466 38.66681 275.2475 35.58939 263.3418 30.23157 275.2475 24.87376 263.3418 19.51595 275.2475 14.15813 263.3418 8.80031 269.29466 6.1214"/>
<use data-text="3" xlink:href="#font_3_4" transform="matrix(9.962799,0,0,-9.963098,262.47297,123.29037)"/>
<use data-text="." xlink:href="#font_1_1" transform="matrix(9.962799,0,0,-9.963098,267.45408,123.29037)"/>
<use data-text="3" xlink:href="#font_3_4" transform="matrix(9.962799,0,0,-9.963098,270.2221,123.29037)"/>
<use data-text="k" xlink:href="#font_3_6" transform="matrix(9.962799,0,0,-9.963098,276.85734,123.29037)"/>
<use data-text="&#x2126;" xlink:href="#font_3_1" transform="matrix(9.962799,0,0,-9.963098,282.10774,123.29037)"/>
<path transform="matrix(1.00002,0,0,-1.00005,28.176247,143.53838)" stroke-width=".3985" stroke-linecap="butt" stroke-miterlimit="10" stroke-linejoin="miter" fill="none" stroke="#000000" d="M333.075 70.86702V26.36258M333.075 18.42563V-26.07881"/>
<path transform="matrix(1.00002,0,0,-1.00005,28.176247,143.53838)" d="M334.66218 70.86702C334.66218 71.74359 333.95158 72.45418 333.075 72.45418 332.19844 72.45418 331.48786 71.74359 331.48786 70.86702 331.48786 69.99046 332.19844 69.27988 333.075 69.27988 333.95158 69.27988 334.66218 69.99046 334.66218 70.86702ZM333.075 70.86702"/>
<path transform="matrix(1.00002,0,0,-1.00005,28.176247,143.53838)" stroke-width=".3985" stroke-linecap="butt" stroke-miterlimit="10" stroke-linejoin="miter" fill="none" stroke="#000000" d="M334.66218 70.86702C334.66218 71.74359 333.95158 72.45418 333.075 72.45418 332.19844 72.45418 331.48786 71.74359 331.48786 70.86702 331.48786 69.99046 332.19844 69.27988 333.075 69.27988 333.95158 69.27988 334.66218 69.99046 334.66218 70.86702ZM333.075 70.86702"/>
<path transform="matrix(1.00002,0,0,-1.00005,28.176247,143.53838)" stroke-width=".797" stroke-linecap="butt" stroke-miterlimit="10" stroke-linejoin="miter" fill="none" stroke="#000000" d="M344.98075 26.36258H321.16929M344.98075 18.42563H321.16929"/>
<use data-text="C" xlink:href="#font_1_2" transform="matrix(9.962799,0,0,-9.963098,338.71748,123.29037)"/>
<use data-text="V" xlink:href="#font_1_4" transform="matrix(9.962799,0,0,-9.963098,387.79747,123.76539)"/>
<use data-text="o" xlink:href="#font_2_81" transform="matrix(6.97394,0,0,-6.9741489,393.60859,125.25945)"/>
<use data-text="u" xlink:href="#font_2_109" transform="matrix(6.97394,0,0,-6.9741489,397.57673,125.25945)"/>
<use data-text="t" xlink:href="#font_2_105" transform="matrix(6.97394,0,0,-6.9741489,401.9773,125.25945)"/>
</svg>
