<svg xmlns="http://www.w3.org/2000/svg" xmlns:xlink="http://www.w3.org/1999/xlink" xmlns:inkscape="http://www.inkscape.org/namespaces/inkscape" version="1.1" width="223" height="139" viewBox="0 0 223 139">
<defs>
<path id="font_1_2" d="M.2939911 .64004519C.2939911 .66400149 .2939911 .6660156 .2709961 .6660156 .20899964 .60227969 .12098694 .60227969 .08898926 .60227969V.57128909C.10899353 .57128909 .16799927 .57128909 .21998596 .5972748V.07902527C.21998596 .042999269 .21699524 .0309906 .1269989 .0309906H.09498596V0C.12998963 .0029907227 .21699524 .0029907227 .25698854 .0029907227 .29699708 .0029907227 .38398744 .0029907227 .4189911 0V.0309906H.3869934C.29699708 .0309906 .2939911 .041992189 .2939911 .07902527V.64004519Z"/>
<path id="font_1_3" d="M.1269989 .07699585 .23298645 .18003845C.3889923 .31811524 .44898988 .3721466 .44898988 .47216798 .44898988 .5860901 .35899354 .6660156 .23699951 .6660156 .12399292 .6660156 .049987794 .57411196 .049987794 .48516847 .049987794 .4291687 .099990848 .4291687 .102996829 .4291687 .11999512 .4291687 .15499878 .44117738 .15499878 .48217774 .15499878 .5081787 .13699341 .5341797 .101989749 .5341797 .09399414 .5341797 .09199524 .5341797 .08898926 .5331726 .11199951 .59806826 .1659851 .63500979 .22399903 .63500979 .31498719 .63500979 .35798646 .5541382 .35798646 .47216798 .35798646 .39215089 .30799867 .31311036 .25299073 .25108338L.06098938 .036987306C.049987794 .025985718 .049987794 .023986817 .049987794 0H.42099L.44898988 .17404175H.42399598C.4189911 .14402771 .4119873 .1000061 .4019928 .084991458 .394989 .07699585 .32899476 .07699585 .30699159 .07699585H.1269989Z"/>
<path id="font_1_4" d="M.2899933 .35191346C.37199403 .37893678 .42999269 .4490509 .42999269 .52809146 .42999269 .6100464 .34199525 .6660156 .24598694 .6660156 .14498902 .6660156 .068984989 .60606387 .068984989 .53009036 .068984989 .49710084 .09098816 .47808839 .11999512 .47808839 .15098572 .47808839 .17098999 .50009158 .17098999 .5290985 .17098999 .57910159 .12399292 .57910159 .10899353 .57910159 .13999939 .62802127 .20599365 .64100649 .24198914 .64100649 .2829895 .64100649 .33799745 .6190338 .33799745 .5290985 .33799745 .51708987 .33599855 .45906068 .30999757 .4149933 .27999879 .36691285 .24598694 .36390687 .22099304 .36291505 .21299744 .36190797 .18899536 .35990907 .18199158 .35990907 .17399597 .35890199 .16699219 .35791017 .16699219 .3479004 .16699219 .33691407 .17399597 .33691407 .19099427 .33691407H.23498535C.31698609 .33691407 .35398866 .2686615 .35398866 .17037964 .35398866 .034469606 .2849884 .0055389406 .24099732 .0055389406 .19799805 .0055389406 .12298584 .022491456 .08799744 .08137512 .12298584 .07637024 .1539917 .09837341 .1539917 .1363678 .1539917 .17237854 .1269989 .19238281 .09799194 .19238281 .07398987 .19238281 .041992189 .17837525 .041992189 .1343689 .041992189 .043441774 .1349945-.022460938 .24398804-.022460938 .3659973-.022460938 .45700074 .06838989 .45700074 .17037964 .45700074 .252594 .3939972 .33088685 .2899933 .35191346Z"/>
<path id="font_1_5" d="M.2939911 .16503906V.07800293C.2939911 .041992189 .2919922 .0309906 .21798706 .0309906H.19699097V0C.23799134 .0029907227 .2899933 .0029907227 .33198548 .0029907227 .37399293 .0029907227 .4269867 .0029907227 .46798707 0V.0309906H.44699098C.37298585 .0309906 .37098695 .041992189 .37098695 .07800293V.16503906H.47099305V.19602967H.37098695V.65075686C.37098695 .67074587 .37098695 .6767578 .35499574 .6767578 .34599305 .6767578 .34298707 .6767578 .33499146 .66474917L.027999878 .19602967V.16503906H.2939911M.2999878 .19602967H.055999757L.2999878 .5688019V.19602967Z"/>
<path id="font_2_1" d="M.6589966 .23046875C.6759949 .23046875 .69400027 .23046875 .69400027 .25045777 .69400027 .27046205 .6759949 .27046205 .6589966 .27046205H.117996219C.100997928 .27046205 .08299255 .27046205 .08299255 .25045777 .08299255 .23046875 .100997928 .23046875 .117996219 .23046875H.6589966Z"/>
<path id="font_3_1" d="M.6279907 .5686035C.6769867 .64660647 .71899417 .6496124 .7559967 .6516113 .7679901 .65260317 .7689972 .6696167 .7689972 .6706085 .7689972 .6786041 .7639923 .6826172 .7559967 .6826172 .7299957 .6826172 .70098879 .6796112 .673996 .6796112 .6409912 .6796112 .6069946 .6826172 .57499697 .6826172 .56900027 .6826172 .55599978 .6826172 .55599978 .66360476 .55599978 .65260317 .5649872 .6516113 .57199099 .6516113 .598999 .6496124 .6179962 .63960269 .6179962 .61860659 .6179962 .6036072 .6029968 .581604 .6029968 .5805969L.29599 .092544559 .22799683 .62161257C.22799683 .63861086 .25099183 .6516113 .29699708 .6516113 .31098939 .6516113 .32199098 .6516113 .32199098 .6716156 .32199098 .680603 .31399537 .6826172 .30799867 .6826172 .2679901 .6826172 .22499085 .6796112 .18399048 .6796112 .1659851 .6796112 .14698792 .680603 .1289978 .680603 .11099243 .680603 .09199524 .6826172 .07499695 .6826172 .067993167 .6826172 .055999757 .6826172 .055999757 .66360476 .055999757 .6516113 .06498718 .6516113 .08099365 .6516113 .13699341 .6516113 .13798523 .64260867 .14099121 .6175995L.21998596 .0005340576C.22299195-.019470215 .22698975-.022460938 .23999024-.022460938 .2559967-.022460938 .2599945-.017471314 .2679901-.004470825L.6279907 .5686035Z"/>
<path id="font_1_1" d="M.40899659 .23046875H.6879883C.70199587 .23046875 .72099307 .23046875 .72099307 .25045777 .72099307 .27046205 .70199587 .27046205 .6879883 .27046205H.40899659V.5500183C.40899659 .56399539 .40899659 .5830078 .3889923 .5830078 .36898805 .5830078 .36898805 .56399539 .36898805 .5500183V.27046205H.08898926C.07499695 .27046205 .055999757 .27046205 .055999757 .25045777 .055999757 .23046875 .07499695 .23046875 .08898926 .23046875H.36898805V-.05000305C.36898805-.06401062 .36898805-.08300781 .3889923-.08300781 .40899659-.08300781 .40899659-.06401062 .40899659-.05000305V.23046875Z"/>
</defs>
<path transform="matrix(1.00005,0,0,-1,25.88269,134.538)" stroke-width=".3985" stroke-linecap="butt" stroke-miterlimit="10" stroke-linejoin="miter" fill="none" stroke="#000000" d="M0 0"/>
<path transform="matrix(1.00005,0,0,-1,25.88269,134.538)" d="M2.83484 0C2.83484 1.56564 1.56564 2.83484 0 2.83484-1.56564 2.83484-2.83484 1.56564-2.83484 0-2.83484-1.56564-1.56564-2.83484 0-2.83484 1.56564-2.83484 2.83484-1.56564 2.83484 0ZM0 0"/>
<path transform="matrix(1.00005,0,0,-1,25.88269,134.538)" stroke-width=".3985" stroke-linecap="butt" stroke-miterlimit="10" stroke-linejoin="miter" fill="none" stroke="#000000" d="M0 28.3468"/>
<path transform="matrix(1.00005,0,0,-1,25.88269,134.538)" d="M2.83484 28.3468C2.83484 29.91246 1.56564 31.18166 0 31.18166-1.56564 31.18166-2.83484 29.91246-2.83484 28.3468-2.83484 26.78114-1.56564 25.51195 0 25.51195 1.56564 25.51195 2.83484 26.78114 2.83484 28.3468ZM0 28.3468"/>
<path transform="matrix(1.00005,0,0,-1,25.88269,134.538)" stroke-width=".3985" stroke-linecap="butt" stroke-miterlimit="10" stroke-linejoin="miter" fill="none" stroke="#000000" d="M0 56.69362"/>
<path transform="matrix(1.00005,0,0,-1,25.88269,134.538)" d="M2.83484 56.69362C2.83484 58.25926 1.56564 59.52846 0 59.52846-1.56564 59.52846-2.83484 58.25926-2.83484 56.69362-2.83484 55.12796-1.56564 53.85876 0 53.85876 1.56564 53.85876 2.83484 55.12796 2.83484 56.69362ZM0 56.69362"/>
<path transform="matrix(1.00005,0,0,-1,25.88269,134.538)" stroke-width=".3985" stroke-linecap="butt" stroke-miterlimit="10" stroke-linejoin="miter" fill="none" stroke="#000000" d="M0 85.04042"/>
<path transform="matrix(1.00005,0,0,-1,25.88269,134.538)" d="M2.83484 85.04042C2.83484 86.60608 1.56564 87.87527 0 87.87527-1.56564 87.87527-2.83484 86.60608-2.83484 85.04042-2.83484 83.47478-1.56564 82.20557 0 82.20557 1.56564 82.20557 2.83484 83.47478 2.83484 85.04042ZM0 85.04042"/>
<path transform="matrix(1.00005,0,0,-1,25.88269,134.538)" stroke-width=".3985" stroke-linecap="butt" stroke-miterlimit="10" stroke-linejoin="miter" fill="none" stroke="#000000" d="M0 113.38724"/>
<path transform="matrix(1.00005,0,0,-1,25.88269,134.538)" d="M2.83484 113.38724C2.83484 114.95288 1.56564 116.22208 0 116.22208-1.56564 116.22208-2.83484 114.95288-2.83484 113.38724-2.83484 111.82158-1.56564 110.55238 0 110.55238 1.56564 110.55238 2.83484 111.82158 2.83484 113.38724ZM0 113.38724"/>
<path transform="matrix(1.00005,0,0,-1,25.88269,134.538)" stroke-width=".3985" stroke-linecap="butt" stroke-miterlimit="10" stroke-linejoin="miter" fill="none" stroke="#000000" d="M28.3468 0"/>
<path transform="matrix(1.00005,0,0,-1,25.88269,134.538)" d="M31.18166 0C31.18166 1.56564 29.91246 2.83484 28.3468 2.83484 26.78114 2.83484 25.51195 1.56564 25.51195 0 25.51195-1.56564 26.78114-2.83484 28.3468-2.83484 29.91246-2.83484 31.18166-1.56564 31.18166 0ZM28.3468 0"/>
<path transform="matrix(1.00005,0,0,-1,25.88269,134.538)" stroke-width=".3985" stroke-linecap="butt" stroke-miterlimit="10" stroke-linejoin="miter" fill="none" stroke="#000000" d="M28.3468 28.3468"/>
<path transform="matrix(1.00005,0,0,-1,25.88269,134.538)" d="M31.18166 28.3468C31.18166 29.91246 29.91246 31.18166 28.3468 31.18166 26.78114 31.18166 25.51195 29.91246 25.51195 28.3468 25.51195 26.78114 26.78114 25.51195 28.3468 25.51195 29.91246 25.51195 31.18166 26.78114 31.18166 28.3468ZM28.3468 28.3468"/>
<path transform="matrix(1.00005,0,0,-1,25.88269,134.538)" stroke-width=".3985" stroke-linecap="butt" stroke-miterlimit="10" stroke-linejoin="miter" fill="none" stroke="#000000" d="M28.3468 56.69362"/>
<path transform="matrix(1.00005,0,0,-1,25.88269,134.538)" d="M31.18166 56.69362C31.18166 58.25926 29.91246 59.52846 28.3468 59.52846 26.78114 59.52846 25.51195 58.25926 25.51195 56.69362 25.51195 55.12796 26.78114 53.85876 28.3468 53.85876 29.91246 53.85876 31.18166 55.12796 31.18166 56.69362ZM28.3468 56.69362"/>
<path transform="matrix(1.00005,0,0,-1,25.88269,134.538)" stroke-width=".3985" stroke-linecap="butt" stroke-miterlimit="10" stroke-linejoin="miter" fill="none" stroke="#000000" d="M28.3468 85.04042"/>
<path transform="matrix(1.00005,0,0,-1,25.88269,134.538)" d="M31.18166 85.04042C31.18166 86.60608 29.91246 87.87527 28.3468 87.87527 26.78114 87.87527 25.51195 86.60608 25.51195 85.04042 25.51195 83.47478 26.78114 82.20557 28.3468 82.20557 29.91246 82.20557 31.18166 83.47478 31.18166 85.04042ZM28.3468 85.04042"/>
<path transform="matrix(1.00005,0,0,-1,25.88269,134.538)" stroke-width=".3985" stroke-linecap="butt" stroke-miterlimit="10" stroke-linejoin="miter" fill="none" stroke="#000000" d="M28.3468 113.38724"/>
<path transform="matrix(1.00005,0,0,-1,25.88269,134.538)" d="M31.18166 113.38724C31.18166 114.95288 29.91246 116.22208 28.3468 116.22208 26.78114 116.22208 25.51195 114.95288 25.51195 113.38724 25.51195 111.82158 26.78114 110.55238 28.3468 110.55238 29.91246 110.55238 31.18166 111.82158 31.18166 113.38724ZM28.3468 113.38724"/>
<path transform="matrix(1.00005,0,0,-1,25.88269,134.538)" stroke-width=".3985" stroke-linecap="butt" stroke-miterlimit="10" stroke-linejoin="miter" fill="none" stroke="#000000" d="M56.69362 0"/>
<path transform="matrix(1.00005,0,0,-1,25.88269,134.538)" d="M59.52846 0C59.52846 1.56564 58.25926 2.83484 56.69362 2.83484 55.12796 2.83484 53.85876 1.56564 53.85876 0 53.85876-1.56564 55.12796-2.83484 56.69362-2.83484 58.25926-2.83484 59.52846-1.56564 59.52846 0ZM56.69362 0"/>
<path transform="matrix(1.00005,0,0,-1,25.88269,134.538)" stroke-width=".3985" stroke-linecap="butt" stroke-miterlimit="10" stroke-linejoin="miter" fill="none" stroke="#000000" d="M56.69362 28.3468"/>
<path transform="matrix(1.00005,0,0,-1,25.88269,134.538)" d="M59.52846 28.3468C59.52846 29.91246 58.25926 31.18166 56.69362 31.18166 55.12796 31.18166 53.85876 29.91246 53.85876 28.3468 53.85876 26.78114 55.12796 25.51195 56.69362 25.51195 58.25926 25.51195 59.52846 26.78114 59.52846 28.3468ZM56.69362 28.3468"/>
<path transform="matrix(1.00005,0,0,-1,25.88269,134.538)" stroke-width=".3985" stroke-linecap="butt" stroke-miterlimit="10" stroke-linejoin="miter" fill="none" stroke="#000000" d="M56.69362 56.69362"/>
<path transform="matrix(1.00005,0,0,-1,25.88269,134.538)" d="M59.52846 56.69362C59.52846 58.25926 58.25926 59.52846 56.69362 59.52846 55.12796 59.52846 53.85876 58.25926 53.85876 56.69362 53.85876 55.12796 55.12796 53.85876 56.69362 53.85876 58.25926 53.85876 59.52846 55.12796 59.52846 56.69362ZM56.69362 56.69362"/>
<path transform="matrix(1.00005,0,0,-1,25.88269,134.538)" stroke-width=".3985" stroke-linecap="butt" stroke-miterlimit="10" stroke-linejoin="miter" fill="none" stroke="#000000" d="M56.69362 85.04042"/>
<path transform="matrix(1.00005,0,0,-1,25.88269,134.538)" d="M59.52846 85.04042C59.52846 86.60608 58.25926 87.87527 56.69362 87.87527 55.12796 87.87527 53.85876 86.60608 53.85876 85.04042 53.85876 83.47478 55.12796 82.20557 56.69362 82.20557 58.25926 82.20557 59.52846 83.47478 59.52846 85.04042ZM56.69362 85.04042"/>
<path transform="matrix(1.00005,0,0,-1,25.88269,134.538)" stroke-width=".3985" stroke-linecap="butt" stroke-miterlimit="10" stroke-linejoin="miter" fill="none" stroke="#000000" d="M56.69362 113.38724"/>
<path transform="matrix(1.00005,0,0,-1,25.88269,134.538)" d="M59.52846 113.38724C59.52846 114.95288 58.25926 116.22208 56.69362 116.22208 55.12796 116.22208 53.85876 114.95288 53.85876 113.38724 53.85876 111.82158 55.12796 110.55238 56.69362 110.55238 58.25926 110.55238 59.52846 111.82158 59.52846 113.38724ZM56.69362 113.38724"/>
<path transform="matrix(1.00005,0,0,-1,25.88269,134.538)" stroke-width=".3985" stroke-linecap="butt" stroke-miterlimit="10" stroke-linejoin="miter" fill="none" stroke="#000000" d="M85.04042 0"/>
<path transform="matrix(1.00005,0,0,-1,25.88269,134.538)" d="M87.87527 0C87.87527 1.56564 86.60608 2.83484 85.04042 2.83484 83.47478 2.83484 82.20557 1.56564 82.20557 0 82.20557-1.56564 83.47478-2.83484 85.04042-2.83484 86.60608-2.83484 87.87527-1.56564 87.87527 0ZM85.04042 0"/>
<path transform="matrix(1.00005,0,0,-1,25.88269,134.538)" stroke-width=".3985" stroke-linecap="butt" stroke-miterlimit="10" stroke-linejoin="miter" fill="none" stroke="#000000" d="M85.04042 28.3468"/>
<path transform="matrix(1.00005,0,0,-1,25.88269,134.538)" d="M87.87527 28.3468C87.87527 29.91246 86.60608 31.18166 85.04042 31.18166 83.47478 31.18166 82.20557 29.91246 82.20557 28.3468 82.20557 26.78114 83.47478 25.51195 85.04042 25.51195 86.60608 25.51195 87.87527 26.78114 87.87527 28.3468ZM85.04042 28.3468"/>
<path transform="matrix(1.00005,0,0,-1,25.88269,134.538)" stroke-width=".3985" stroke-linecap="butt" stroke-miterlimit="10" stroke-linejoin="miter" fill="none" stroke="#000000" d="M85.04042 56.69362"/>
<path transform="matrix(1.00005,0,0,-1,25.88269,134.538)" d="M87.87527 56.69362C87.87527 58.25926 86.60608 59.52846 85.04042 59.52846 83.47478 59.52846 82.20557 58.25926 82.20557 56.69362 82.20557 55.12796 83.47478 53.85876 85.04042 53.85876 86.60608 53.85876 87.87527 55.12796 87.87527 56.69362ZM85.04042 56.69362"/>
<path transform="matrix(1.00005,0,0,-1,25.88269,134.538)" stroke-width=".3985" stroke-linecap="butt" stroke-miterlimit="10" stroke-linejoin="miter" fill="none" stroke="#000000" d="M85.04042 85.04042"/>
<path transform="matrix(1.00005,0,0,-1,25.88269,134.538)" d="M87.87527 85.04042C87.87527 86.60608 86.60608 87.87527 85.04042 87.87527 83.47478 87.87527 82.20557 86.60608 82.20557 85.04042 82.20557 83.47478 83.47478 82.20557 85.04042 82.20557 86.60608 82.20557 87.87527 83.47478 87.87527 85.04042ZM85.04042 85.04042"/>
<path transform="matrix(1.00005,0,0,-1,25.88269,134.538)" stroke-width=".3985" stroke-linecap="butt" stroke-miterlimit="10" stroke-linejoin="miter" fill="none" stroke="#000000" d="M85.04042 113.38724"/>
<path transform="matrix(1.00005,0,0,-1,25.88269,134.538)" d="M87.87527 113.38724C87.87527 114.95288 86.60608 116.22208 85.04042 116.22208 83.47478 116.22208 82.20557 114.95288 82.20557 113.38724 82.20557 111.82158 83.47478 110.55238 85.04042 110.55238 86.60608 110.55238 87.87527 111.82158 87.87527 113.38724ZM85.04042 113.38724"/>
<path transform="matrix(1.00005,0,0,-1,25.88269,134.538)" stroke-width=".3985" stroke-linecap="butt" stroke-miterlimit="10" stroke-linejoin="miter" fill="none" stroke="#000000" d="M113.38724 0"/>
<path transform="matrix(1.00005,0,0,-1,25.88269,134.538)" d="M116.22208 0C116.22208 1.56564 114.95288 2.83484 113.38724 2.83484 111.82158 2.83484 110.55238 1.56564 110.55238 0 110.55238-1.56564 111.82158-2.83484 113.38724-2.83484 114.95288-2.83484 116.22208-1.56564 116.22208 0ZM113.38724 0"/>
<path transform="matrix(1.00005,0,0,-1,25.88269,134.538)" stroke-width=".3985" stroke-linecap="butt" stroke-miterlimit="10" stroke-linejoin="miter" fill="none" stroke="#000000" d="M113.38724 28.3468"/>
<path transform="matrix(1.00005,0,0,-1,25.88269,134.538)" d="M116.22208 28.3468C116.22208 29.91246 114.95288 31.18166 113.38724 31.18166 111.82158 31.18166 110.55238 29.91246 110.55238 28.3468 110.55238 26.78114 111.82158 25.51195 113.38724 25.51195 114.95288 25.51195 116.22208 26.78114 116.22208 28.3468ZM113.38724 28.3468"/>
<path transform="matrix(1.00005,0,0,-1,25.88269,134.538)" stroke-width=".3985" stroke-linecap="butt" stroke-miterlimit="10" stroke-linejoin="miter" fill="none" stroke="#000000" d="M113.38724 56.69362"/>
<path transform="matrix(1.00005,0,0,-1,25.88269,134.538)" d="M116.22208 56.69362C116.22208 58.25926 114.95288 59.52846 113.38724 59.52846 111.82158 59.52846 110.55238 58.25926 110.55238 56.69362 110.55238 55.12796 111.82158 53.85876 113.38724 53.85876 114.95288 53.85876 116.22208 55.12796 116.22208 56.69362ZM113.38724 56.69362"/>
<path transform="matrix(1.00005,0,0,-1,25.88269,134.538)" stroke-width=".3985" stroke-linecap="butt" stroke-miterlimit="10" stroke-linejoin="miter" fill="none" stroke="#000000" d="M113.38724 85.04042"/>
<path transform="matrix(1.00005,0,0,-1,25.88269,134.538)" d="M116.22208 85.04042C116.22208 86.60608 114.95288 87.87527 113.38724 87.87527 111.82158 87.87527 110.55238 86.60608 110.55238 85.04042 110.55238 83.47478 111.82158 82.20557 113.38724 82.20557 114.95288 82.20557 116.22208 83.47478 116.22208 85.04042ZM113.38724 85.04042"/>
<path transform="matrix(1.00005,0,0,-1,25.88269,134.538)" stroke-width=".3985" stroke-linecap="butt" stroke-miterlimit="10" stroke-linejoin="miter" fill="none" stroke="#000000" d="M113.38724 113.38724"/>
<path transform="matrix(1.00005,0,0,-1,25.88269,134.538)" d="M116.22208 113.38724C116.22208 114.95288 114.95288 116.22208 113.38724 116.22208 111.82158 116.22208 110.55238 114.95288 110.55238 113.38724 110.55238 111.82158 111.82158 110.55238 113.38724 110.55238 114.95288 110.55238 116.22208 111.82158 116.22208 113.38724ZM113.38724 113.38724"/>
<path transform="matrix(1.00005,0,0,-1,25.88269,134.538)" stroke-width=".3985" stroke-linecap="butt" stroke-miterlimit="10" stroke-linejoin="miter" fill="none" stroke="#000000" d="M141.73404 0"/>
<path transform="matrix(1.00005,0,0,-1,25.88269,134.538)" d="M144.5689 0C144.5689 1.56564 143.2997 2.83484 141.73404 2.83484 140.1684 2.83484 138.89919 1.56564 138.89919 0 138.89919-1.56564 140.1684-2.83484 141.73404-2.83484 143.2997-2.83484 144.5689-1.56564 144.5689 0ZM141.73404 0"/>
<path transform="matrix(1.00005,0,0,-1,25.88269,134.538)" stroke-width=".3985" stroke-linecap="butt" stroke-miterlimit="10" stroke-linejoin="miter" fill="none" stroke="#000000" d="M141.73404 28.3468"/>
<path transform="matrix(1.00005,0,0,-1,25.88269,134.538)" d="M144.5689 28.3468C144.5689 29.91246 143.2997 31.18166 141.73404 31.18166 140.1684 31.18166 138.89919 29.91246 138.89919 28.3468 138.89919 26.78114 140.1684 25.51195 141.73404 25.51195 143.2997 25.51195 144.5689 26.78114 144.5689 28.3468ZM141.73404 28.3468"/>
<path transform="matrix(1.00005,0,0,-1,25.88269,134.538)" stroke-width=".3985" stroke-linecap="butt" stroke-miterlimit="10" stroke-linejoin="miter" fill="none" stroke="#000000" d="M141.73404 56.69362"/>
<path transform="matrix(1.00005,0,0,-1,25.88269,134.538)" stroke-width="1.59404" stroke-linecap="butt" stroke-miterlimit="10" stroke-linejoin="miter" fill="none" stroke="#0000ff" d="M144.5689 56.69362C144.5689 58.25926 143.2997 59.52846 141.73404 59.52846 140.1684 59.52846 138.89919 58.25926 138.89919 56.69362 138.89919 55.12796 140.1684 53.85876 141.73404 53.85876 143.2997 53.85876 144.5689 55.12796 144.5689 56.69362ZM141.73404 56.69362"/>
<path transform="matrix(1.00005,0,0,-1,25.88269,134.538)" stroke-width=".3985" stroke-linecap="butt" stroke-miterlimit="10" stroke-linejoin="miter" fill="none" stroke="#000000" d="M141.73404 85.04042"/>
<path transform="matrix(1.00005,0,0,-1,25.88269,134.538)" d="M144.5689 85.04042C144.5689 86.60608 143.2997 87.87527 141.73404 87.87527 140.1684 87.87527 138.89919 86.60608 138.89919 85.04042 138.89919 83.47478 140.1684 82.20557 141.73404 82.20557 143.2997 82.20557 144.5689 83.47478 144.5689 85.04042ZM141.73404 85.04042"/>
<path transform="matrix(1.00005,0,0,-1,25.88269,134.538)" stroke-width=".3985" stroke-linecap="butt" stroke-miterlimit="10" stroke-linejoin="miter" fill="none" stroke="#000000" d="M141.73404 113.38724"/>
<path transform="matrix(1.00005,0,0,-1,25.88269,134.538)" d="M144.5689 113.38724C144.5689 114.95288 143.2997 116.22208 141.73404 116.22208 140.1684 116.22208 138.89919 114.95288 138.89919 113.38724 138.89919 111.82158 140.1684 110.55238 141.73404 110.55238 143.2997 110.55238 144.5689 111.82158 144.5689 113.38724ZM141.73404 113.38724"/>
<path transform="matrix(1.00005,0,0,-1,25.88269,134.538)" stroke-width=".3985" stroke-linecap="butt" stroke-miterlimit="10" stroke-linejoin="miter" fill="none" stroke="#000000" d="M170.08086 0"/>
<path transform="matrix(1.00005,0,0,-1,25.88269,134.538)" d="M172.9157 0C172.9157 1.56564 171.6465 2.83484 170.08086 2.83484 168.5152 2.83484 167.246 1.56564 167.246 0 167.246-1.56564 168.5152-2.83484 170.08086-2.83484 171.6465-2.83484 172.9157-1.56564 172.9157 0ZM170.08086 0"/>
<path transform="matrix(1.00005,0,0,-1,25.88269,134.538)" stroke-width=".3985" stroke-linecap="butt" stroke-miterlimit="10" stroke-linejoin="miter" fill="none" stroke="#000000" d="M170.08086 28.3468"/>
<path transform="matrix(1.00005,0,0,-1,25.88269,134.538)" d="M172.9157 28.3468C172.9157 29.91246 171.6465 31.18166 170.08086 31.18166 168.5152 31.18166 167.246 29.91246 167.246 28.3468 167.246 26.78114 168.5152 25.51195 170.08086 25.51195 171.6465 25.51195 172.9157 26.78114 172.9157 28.3468ZM170.08086 28.3468"/>
<path transform="matrix(1.00005,0,0,-1,25.88269,134.538)" stroke-width=".3985" stroke-linecap="butt" stroke-miterlimit="10" stroke-linejoin="miter" fill="none" stroke="#000000" d="M170.08086 56.69362"/>
<path transform="matrix(1.00005,0,0,-1,25.88269,134.538)" d="M172.9157 56.69362C172.9157 58.25926 171.6465 59.52846 170.08086 59.52846 168.5152 59.52846 167.246 58.25926 167.246 56.69362 167.246 55.12796 168.5152 53.85876 170.08086 53.85876 171.6465 53.85876 172.9157 55.12796 172.9157 56.69362ZM170.08086 56.69362"/>
<path transform="matrix(1.00005,0,0,-1,25.88269,134.538)" stroke-width=".3985" stroke-linecap="butt" stroke-miterlimit="10" stroke-linejoin="miter" fill="none" stroke="#000000" d="M170.08086 85.04042"/>
<path transform="matrix(1.00005,0,0,-1,25.88269,134.538)" d="M172.9157 85.04042C172.9157 86.60608 171.6465 87.87527 170.08086 87.87527 168.5152 87.87527 167.246 86.60608 167.246 85.04042 167.246 83.47478 168.5152 82.20557 170.08086 82.20557 171.6465 82.20557 172.9157 83.47478 172.9157 85.04042ZM170.08086 85.04042"/>
<path transform="matrix(1.00005,0,0,-1,25.88269,134.538)" stroke-width=".3985" stroke-linecap="butt" stroke-miterlimit="10" stroke-linejoin="miter" fill="none" stroke="#000000" d="M170.08086 113.38724"/>
<path transform="matrix(1.00005,0,0,-1,25.88269,134.538)" d="M172.9157 113.38724C172.9157 114.95288 171.6465 116.22208 170.08086 116.22208 168.5152 116.22208 167.246 114.95288 167.246 113.38724 167.246 111.82158 168.5152 110.55238 170.08086 110.55238 171.6465 110.55238 172.9157 111.82158 172.9157 113.38724ZM170.08086 113.38724"/>
<path transform="matrix(1.00005,0,0,-1,25.88269,134.538)" stroke-width="1.59404" stroke-linecap="butt" stroke-miterlimit="10" stroke-linejoin="miter" fill="none" stroke="#ff0000" d="M113.38724 60.94588C116.06454 68.30168 124.19778 72.09424 131.55358 69.41692 133.31645 68.77527 134.91191 67.7989 136.26506 66.56271"/>
<path transform="matrix(.5782889,.8158,.8158408,-.57826,161.97356,68.03288)" d="M6.81448 0C4.79533 .37857 1.51433 1.51433-.75716 2.83936V-2.83936C1.51433-1.51433 4.79533-.37857 6.81448 0" fill="#ff0000"/>
<use data-text="1" xlink:href="#font_1_2" transform="matrix(9.963098,0,0,-9.9626,150.10388,74.80399)" fill="#ff0000"/>
<path transform="matrix(1.00005,0,0,-1,25.88269,134.538)" stroke-width="1.59404" stroke-linecap="butt" stroke-miterlimit="10" stroke-linejoin="miter" fill="none" stroke="#ff0000" d="M85.04042 52.44133C87.71773 45.08554 95.85097 41.29297 103.20677 43.97029 104.9697 44.61194 106.5652 45.58832 107.91837 46.82454"/>
<path transform="matrix(.5782789,-.8158,-.8158408,-.57825,133.62545,87.65588)" d="M6.81448 0C4.79533 .37857 1.51433 1.51433-.75716 2.83936V-2.83936C1.51433-1.51433 4.79533-.37857 6.81448 0" fill="#ff0000"/>
<use data-text="2" xlink:href="#font_1_3" transform="matrix(9.963098,0,0,-9.9626,121.75548,87.30499)" fill="#ff0000"/>
<path transform="matrix(1.00005,0,0,-1,25.88269,134.538)" stroke-width="1.59404" stroke-linecap="butt" stroke-miterlimit="10" stroke-linejoin="miter" fill="none" stroke="#ff0000" d="M56.69362 60.94588C59.37093 68.30168 67.50417 72.09424 74.85995 69.41692 76.62283 68.77527 78.21829 67.7989 79.57143 66.56271"/>
<path transform="matrix(.5782889,.8158,.8158408,-.57826,105.277118,68.03288)" d="M6.81448 0C4.79533 .37857 1.51433 1.51433-.75716 2.83936V-2.83936C1.51433-1.51433 4.79533-.37857 6.81448 0" fill="#ff0000"/>
<use data-text="3" xlink:href="#font_1_4" transform="matrix(9.963098,0,0,-9.9626,93.408069,74.80399)" fill="#ff0000"/>
<path transform="matrix(1.00005,0,0,-1,25.88269,134.538)" stroke-width="1.59404" stroke-linecap="butt" stroke-miterlimit="10" stroke-linejoin="miter" fill="none" stroke="#ff0000" d="M28.3468 52.44133C31.02411 45.08554 39.15735 41.29297 46.51315 43.97029 48.27608 44.61194 49.87158 45.58832 51.22475 46.82454"/>
<path transform="matrix(.5782789,-.8158,-.8158408,-.57825,76.928989,87.65588)" d="M6.81448 0C4.79533 .37857 1.51433 1.51433-.75716 2.83936V-2.83936C1.51433-1.51433 4.79533-.37857 6.81448 0" fill="#ff0000"/>
<use data-text="4" xlink:href="#font_1_5" transform="matrix(9.963098,0,0,-9.9626,65.05965,87.30499)" fill="#ff0000"/>
<path transform="matrix(1.00005,0,0,-1,25.88269,134.538)" stroke-width=".3985" stroke-linecap="butt" stroke-miterlimit="10" stroke-linejoin="miter" fill="none" stroke="#000000" d="M-14.17339-2.83484V116.22208"/>
<use data-text="&#x2212;" xlink:href="#font_2_1" transform="matrix(14.944646,0,0,-14.943899,-.12312317,11.790985)"/>
<use data-text="V" xlink:href="#font_3_1" transform="matrix(14.944646,0,0,-14.943899,11.500961,11.790985)"/>
<path transform="matrix(1.00005,0,0,-1,25.88269,134.538)" stroke-width=".3985" stroke-linecap="butt" stroke-miterlimit="10" stroke-linejoin="miter" fill="none" stroke="#000000" d="M184.25424-2.83484V116.22208"/>
<use data-text="+" xlink:href="#font_1_1" transform="matrix(14.944646,0,0,-14.943899,198.31479,11.790985)"/>
<use data-text="V" xlink:href="#font_3_1" transform="matrix(14.944646,0,0,-14.943899,209.93888,11.790985)"/>
</svg>
