<svg xmlns="http://www.w3.org/2000/svg" xmlns:xlink="http://www.w3.org/1999/xlink" xmlns:inkscape="http://www.inkscape.org/namespaces/inkscape" version="1.1" width="250" height="272" viewBox="0 0 250 272">
<defs>
<path id="font_1_4" d="M.28399659 .6252594C.28399659 .6452637 .269989 .6612549 .24699402 .6612549 .21998596 .6612549 .19299317 .6352539 .19299317 .6082611 .19299317 .5892639 .20698548 .5722656 .23098755 .5722656 .2539978 .5722656 .28399659 .5952606 .28399659 .6252594M.20799256 .24932862C.21998596 .27833558 .21998596 .28033448 .22999573 .30734254 .23799134 .3273468 .24299622 .34135438 .24299622 .36035157 .24299622 .405365 .21099854 .4423828 .16099549 .4423828 .066986087 .4423828 .0289917 .29733277 .0289917 .28833009 .0289917 .27833558 .038986207 .27833558 .040985109 .27833558 .050994874 .27833558 .051986696 .28033448 .056991579 .29634095 .083999637 .3903656 .12399292 .42037965 .1579895 .42037965 .1659851 .42037965 .18299866 .42037965 .18299866 .3883667 .18299866 .36735536 .17599488 .346344 .17199707 .3363495 .1639862 .31033326 .11898804 .19430542 .102996829 .1512909 .09298706 .12528992 .07998657 .0922699 .07998657 .0712738 .07998657 .024261475 .11399841-.0107421879 .1619873-.0107421879 .2559967-.0107421879 .29299928 .1342926 .29299928 .14329529 .29299928 .1532898 .28399659 .1532898 .2809906 .1532898 .2709961 .1532898 .2709961 .15029907 .2659912 .13528443 .24798584 .072265628 .21499634 .011245728 .1639862 .011245728 .14698792 .011245728 .13999939 .021255494 .13999939 .044265748 .13999939 .0692749 .1459961 .08326721 .16899109 .14428711L.20799256 .24932862Z"/>
<path id="font_2_50" d="M.46798707 .12036133C.46798707 .12435913 .46598817 .13438416 .45098878 .13438416 .43798829 .13438416 .43598939 .12837219 .43299867 .11836243 .4019928 .037246705 .32598878 .022232056 .2899933 .022232056 .24299622 .022232056 .19799805 .043258668 .16799927 .08131409 .1309967 .12837219 .12998963 .18945313 .12998963 .22851563H.43998719C.46099855 .22851563 .46798707 .22851563 .46798707 .25050355 .46798707 .33839417 .4189911 .44628907 .269989 .44628907 .13899231 .44628907 .038986207 .34239198 .038986207 .21949768 .038986207 .092315677 .1499939-.009765625 .2829895-.009765625 .41799928-.009765625 .46798707 .09832764 .46798707 .12036133M.397995 .25450135H.1309967C.14199829 .39530946 .23199463 .41827394 .269989 .41827394 .3929901 .41827394 .39698792 .27947999 .397995 .25450135Z"/>
<path id="font_2_116" d="M.57398989 0V.035995485C.5069885 .035995485 .49899293 .04197693 .47599793 .06793213L.33898927 .22369385 .33099366 .23371887C.33099366 .23672486 .39698792 .3078308 .4059906 .31684876 .44099427 .35588075 .47599793 .3936615 .5549927 .39465333V.43066407C.5269928 .4286499 .49798585 .426651 .47099305 .426651 .44099427 .426651 .4019928 .42765809 .37199403 .43066407V.39465333C.3889923 .39169313 .3919983 .3808136 .3919983 .3718872 .3919983 .3718872 .3919983 .35488893 .3769989 .33789063L.30699159 .25875855 .22399903 .35388185C.21398926 .36488343 .21299744 .3698883 .21299744 .3738861 .21299744 .38871766 .22698975 .39465333 .23999024 .39465333V.43066407C.20298767 .42765809 .16499329 .426651 .12799073 .426651 .09799194 .426651 .05999756 .42765809 .0309906 .43066407V.39465333C.07699585 .39465333 .102996829 .39465333 .1289978 .36488343L.2539978 .22070313 .2619934 .21069336C.2619934 .20770264 .18699646 .12580872 .1769867 .11483765 .13999939 .074920658 .10598755 .037994386 .025985718 .035995485V0C.055999757 .0019989014 .07798767 .0039978029 .10899353 .0039978029 .13899231 .0039978029 .1789856 .0029907227 .20899964 0V.035995485C.19699097 .037994386 .18899536 .04496765 .18899536 .058944704 .18899536 .07791138 .19999695 .09088135 .21598816 .10784912L.28599549 .18469239 .37298585 .08589172C.3919983 .064941409 .3919983 .062942508 .3919983 .0569458 .3919983 .036987306 .36898805 .035995485 .36499024 .035995485V0C.37399293 .0009918213 .44599916 .0039978029 .47799684 .0039978029 .5099945 .0039978029 .5419922 .0029907227 .57398989 0Z"/>
<path id="font_2_105" d="M.375 .12606812V.1809845H.34098817V.12705994C.34098817 .059173585 .30899049 .022232056 .269989 .022232056 .20098877 .022232056 .20098877 .10609436 .20098877 .124069217V.39465333H.35699464V.43066407H.20098877V.6142578H.16699219C.1659851 .5244446 .125 .42565919 .0289917 .4226532V.39465333H.12199402V.1250763C.12199402 .01322937 .20599365-.009765625 .2619934-.009765625 .32899476-.010009766 .375 .04699707 .375 .12599182V.12606812Z"/>
<path id="font_1_3" d="M.6279907 .5686035C.6769867 .64660647 .71899417 .6496124 .7559967 .6516113 .7679901 .65260317 .7689972 .6696167 .7689972 .6706085 .7689972 .6786041 .7639923 .6826172 .7559967 .6826172 .7299957 .6826172 .70098879 .6796112 .673996 .6796112 .6409912 .6796112 .6069946 .6826172 .57499697 .6826172 .56900027 .6826172 .55599978 .6826172 .55599978 .66360476 .55599978 .65260317 .5649872 .6516113 .57199099 .6516113 .598999 .6496124 .6179962 .63960269 .6179962 .61860659 .6179962 .6036072 .6029968 .581604 .6029968 .5805969L.29599 .092544559 .22799683 .62161257C.22799683 .63861086 .25099183 .6516113 .29699708 .6516113 .31098939 .6516113 .32199098 .6516113 .32199098 .6716156 .32199098 .680603 .31399537 .6826172 .30799867 .6826172 .2679901 .6826172 .22499085 .6796112 .18399048 .6796112 .1659851 .6796112 .14698792 .680603 .1289978 .680603 .11099243 .680603 .09199524 .6826172 .07499695 .6826172 .067993167 .6826172 .055999757 .6826172 .055999757 .66360476 .055999757 .6516113 .06498718 .6516113 .08099365 .6516113 .13699341 .6516113 .13798523 .64260867 .14099121 .6175995L.21998596 .0005340576C.22299195-.019470215 .22698975-.022460938 .23999024-.022460938 .2559967-.022460938 .2599945-.017471314 .2679901-.004470825L.6279907 .5686035Z"/>
<path id="font_3_2" d="M.18998719 .07797241C.18099976 .04399109 .1789856 .035995485 .101989749 .035995485 .084991458 .035995485 .07199097 .035995485 .07199097 .01499939 .07199097 0 .083999637 0 .101989749 0H.4889984C.6569977 0 .7859955 .11494446 .7859955 .21388245 .7859955 .28485108 .72099307 .34580995 .61499026 .35681153 .73599246 .37879945 .83699038 .4547577 .83699038 .54067996 .83699038 .6166382 .7599945 .6826172 .6299896 .6826172H.2659912C.24699402 .6826172 .23399353 .6826172 .23399353 .660614 .23399353 .64660647 .24598694 .64660647 .2659912 .64660647 .2669983 .64660647 .28599549 .64660647 .3039856 .64460757 .32499696 .64260867 .32699586 .64060977 .32699586 .63061526 .32699586 .62861636 .32699586 .6236267 .32299806 .6086426L.18998719 .07797241M.34999085 .3688202 .41099549 .6126404C.4189911 .6436157 .41999818 .64660647 .46199037 .64660647H.6139984C.71598818 .64660647 .7389984 .57966616 .7389984 .541687 .7389984 .46073915 .647995 .3688202 .5139923 .3688202H.34999085M.3019867 .035995485C.2709961 .035995485 .269989 .036987306 .269989 .04598999 .269989 .04698181 .269989 .051986696 .27398683 .066970828L.34298707 .3408203H.5549927C.6489868 .3408203 .68499758 .27885438 .68499758 .22088623 .68499758 .12194824 .58399966 .035995485 .46299745 .035995485H.3019867Z"/>
<path id="font_3_1" d="M.20599365 .11984253C.17098999 .06594849 .13899231 .039978029 .07998657 .035995485 .069992069 .034988405 .056991579 .034988405 .056991579 .01499939 .056991579 .0039978029 .06599426 0 .070999149 0 .09700012 0 .12998963 .0039978029 .15699768 .0039978029 .18899536 .0039978029 .22999573 0 .2599945 0 .2649994 0 .27999879 0 .27999879 .021987915 .27999879 .034988405 .2669983 .035995485 .2630005 .035995485 .25498963 .036987306 .21899414 .038986207 .21899414 .06594849 .21899414 .077926639 .22898865 .09489441 .23399353 .103881839L.31399537 .22766114H.59999087L.6239929 .061950685C.6199951 .051971437 .6139984 .035995485 .5549927 .035995485 .54299929 .035995485 .5289917 .035995485 .5289917 .01399231 .5289917 .009994507 .5319977 0 .54499819 0 .57398989 0 .644989 .0039978029 .673996 .0039978029 .69200137 .0039978029 .71499636 .0029907227 .73298647 .0029907227 .7509918 .0019989014 .7719879 0 .7899933 0 .8029938 0 .80999758 .0079956059 .80999758 .020996094 .80999758 .035995485 .7979889 .035995485 .7819977 .035995485 .723999 .035995485 .7220001 .04397583 .71899417 .06793213L.6309967 .6848755C.6279907 .70588687 .6259918 .7128906 .6069946 .7128906 .58799746 .7128906 .58200076 .70388796 .57299807 .6898804L.20599365 .11984253M.33799745 .26367188 .5479889 .5908356 .59498599 .26367188H.33799745Z"/>
<path id="font_4_1" d="M.44198609 .69781497C.43499757 .7108154 .43299867 .7158203 .41600038 .7158203 .39898683 .7158203 .39698792 .7108154 .3899994 .69781497L.051986696 .019989014C.04699707 .010986328 .04699707 .008987427 .04699707 .0079956059 .04699707 0 .052993776 0 .068984989 0H.7630005C.7789917 0 .7849884 0 .7849884 .0079956059 .7849884 .008987427 .7849884 .010986328 .7799988 .019989014L.44198609 .69781497M.38398744 .61582949 .6529999 .07598877H.11399841L.38398744 .61582949Z"/>
<path id="font_1_5" d="M.46798707 .37236024C.46798707 .42637635 .44198609 .4423828 .42399598 .4423828 .39898683 .4423828 .375 .41636659 .375 .3943634 .375 .38136292 .37998963 .3753662 .3909912 .36434938 .4119873 .3443451 .4249878 .31834413 .4249878 .28233338 .4249878 .24032593 .3639984 .011245728 .24699402 .011245728 .19599915 .011245728 .17298889 .04626465 .17298889 .09828186 .17298889 .15429688 .19999695 .22731018 .23098755 .31033326 .23799134 .3273468 .24299622 .34135438 .24299622 .36035157 .24299622 .405365 .21099854 .4423828 .16099549 .4423828 .066986087 .4423828 .0289917 .29733277 .0289917 .28833009 .0289917 .27833558 .038986207 .27833558 .040985109 .27833558 .050994874 .27833558 .051986696 .28033448 .056991579 .29634095 .085998538 .39736939 .1289978 .42037965 .1579895 .42037965 .1659851 .42037965 .18299866 .42037965 .18299866 .3883667 .18299866 .36335755 .17298889 .3363495 .1659851 .31834413 .12199402 .20230103 .10899353 .15629578 .10899353 .11328125 .10899353 .0052490236 .19699097-.0107421879 .24299622-.0107421879 .41099549-.0107421879 .46798707 .32034303 .46798707 .37236024Z"/>
<path id="font_5_50" d="M.46998597 .10824585C.46998597 .13031006 .45298768 .139328 .43199159 .139328 .4149933 .139328 .40499879 .13832093 .394989 .11627197 .375 .071136478 .32598878 .06111145 .2939911 .06111145 .22099304 .06111145 .147995 .10925293 .13198853 .18847656H.4269867C.44599916 .18847656 .46998597 .18847656 .46998597 .22647095 .46998597 .3464508 .4019928 .43945313 .272995 .43945313 .1499939 .43945313 .052993776 .33944703 .052993776 .21746826 .052993776 .098220828 .15299988-.0048828127 .2889862-.0048828127 .42599488-.0048828127 .46998597 .08317566 .46998597 .10824585M.3919983 .25346376H.1329956C.147995 .3234558 .20698548 .3734436 .272995 .3734436 .36299134 .3734436 .38598634 .3034668 .3919983 .25346376Z"/>
<path id="font_5_116" d="M.49899293 .032989503C.49899293 .06599426 .46899415 .06599426 .45498658 .06599426H.4169922L.29299928 .22181702 .4039917 .36465455H.44099427C.45498658 .36465455 .4850006 .36465455 .4850006 .3976593 .4850006 .43066407 .45498658 .43066407 .44099427 .43066407H.32499696C.30999757 .43066407 .28199769 .43066407 .28199769 .3976593 .28199769 .36465455 .30899049 .36465455 .32899476 .36465455L.2619934 .27474977 .19400025 .36465455C.21099854 .36465455 .23899842 .36465455 .23899842 .3976593 .23899842 .43066407 .21099854 .43066407 .19599915 .43066407H.07998657C.06599426 .43066407 .035995485 .43066407 .035995485 .3976593 .035995485 .36465455 .06599426 .36465455 .07998657 .36465455H.117996219L.23199463 .22181702 .11099243 .06599426H.07398987C.05899048 .06599426 .02999878 .06599426 .02999878 .032989503 .02999878 0 .05999756 0 .07398987 0H.18899536C.20399475 0 .23298645 0 .23298645 .032989503 .23298645 .06599426 .20498657 .06599426 .18299866 .06599426L.2619934 .1798706 .34399415 .06599426C.32299806 .06599426 .29599 .06599426 .29599 .032989503 .29599 0 .32398988 0 .33898927 0H.45498658C.46899415 0 .49899293 0 .49899293 .032989503Z"/>
<path id="font_5_105" d="M.45399476 .12998963C.45399476 .1639862 .4249878 .1639862 .41600038 .1639862 .3899994 .1639862 .3789978 .1539917 .37799073 .1289978 .37599183 .08807373 .33999635 .06111145 .3019867 .06111145 .22799683 .06111145 .22799683 .11602783 .22799683 .13899231V.36465455H.3880005C.40299989 .36465455 .43099977 .36465455 .43099977 .3976593 .43099977 .43066407 .40299989 .43066407 .3880005 .43066407H.22799683V.51068118C.22799683 .5296936 .22799683 .55371096 .18998719 .55371096 .1519928 .55371096 .1519928 .5286865 .1519928 .51068118V.43066407H.068984989C.053985597 .43066407 .024993897 .43066407 .024993897 .3976593 .024993897 .36465455 .052993776 .36465455 .067993167 .36465455H.1519928V.13699341C.1519928 .02911377 .22799683-.0048828127 .2979889-.0048828127 .3880005-.005004883 .45399476 .057998659 .45399476 .12998963Z"/>
<path id="font_6_42" d="M.48399354 .16821289C.48399354 .20118714 .45999146 .20118714 .44898988 .20118714 .43998719 .20118714 .4169922 .20118714 .4149933 .1722107 .4079895 .07423401 .32699586 .050247194 .28599549 .050247194 .19499207 .050247194 .10899353 .15620423 .10899353 .30615235 .10899353 .45509339 .19599915 .5610657 .2849884 .5610657 .34498597 .5610657 .3999939 .5150757 .4139862 .43411256 .4169922 .41711427 .4189911 .40112306 .44898988 .40112306 .48399354 .40112306 .48399354 .42211915 .48399354 .44210816V.58106997C.48399354 .59706118 .48399354 .6220703 .45399476 .6220703 .43598939 .6220703 .43099977 .61206057 .42599488 .60505679 .42399598 .60105898 .42399598 .59906008 .41099549 .57406619 .37799073 .60206606 .33198548 .6220703 .2809906 .6220703 .1519928 .6220703 .039993287 .4880829 .039993287 .30615235 .039993287 .12322998 .1519928-.0107421879 .28199769-.0107421879 .397995-.0107421879 .48399354 .07824707 .48399354 .16821289Z"/>
<path id="font_6_81" d="M.46699525 .21627808C.46699525 .3413849 .37399293 .4404297 .2619934 .4404297 .1499939 .4404297 .056991579 .3413849 .056991579 .21627808 .056991579 .089157108 .1519928-.005859375 .2619934-.005859375 .37199403-.005859375 .46699525 .090164188 .46699525 .21627808M.397995 .22328186C.397995 .13020325 .33599855 .055130006 .2619934 .055130006 .18798828 .055130006 .12599182 .13020325 .12599182 .22328186 .12599182 .31436158 .19099427 .37942506 .2619934 .37942506 .33399964 .37942506 .397995 .31436158 .397995 .22328186Z"/>
<path id="font_6_75" d="M.5159912 .02999878C.5159912 .06098938 .49499513 .06098938 .45899964 .06098938V.30262757C.45899964 .32260133 .45899964 .43652345 .36999513 .43652345 .33999635 .43652345 .29899598 .42352296 .2709961 .38452149 .2559967 .41851808 .22799683 .43652345 .19499207 .43652345 .16299439 .43652345 .1329956 .42251588 .10899353 .4005127 .10699463 .43066407 .08699036 .43066407 .068984989 .43066407H.036987306C.021987915 .43066407-.0040130617 .43066407-.0040130617 .40065003-.0040130617 .36965943 .016998291 .36965943 .052993776 .36965943V.06098938C.016998291 .06098938-.0040130617 .06098938-.0040130617 .02999878-.0040130617 0 .022994996 0 .036987306 0H.125C.13999939 0 .1659851 0 .1659851 .02999878 .1659851 .06098938 .14498902 .06098938 .10899353 .06098938V.23979187C.10899353 .32858277 .1499939 .3755188 .19099427 .3755188 .21398926 .3755188 .22799683 .35853578 .22799683 .29364015V.06098938C.20899964 .06098938 .18399048 .06098938 .18399048 .02999878 .18399048 0 .21099854 0 .22499085 0H.2999878C.31498719 0 .34098817 0 .34098817 .02999878 .34098817 .06098938 .31999208 .06098938 .28399659 .06098938V.23971558C.28399659 .32858277 .32499696 .3755188 .3659973 .3755188 .3889923 .3755188 .40299989 .35853578 .40299989 .29364015V.06098938C.38398744 .06098938 .35899354 .06098938 .35899354 .02999878 .35899354 0 .38598634 0 .3999939 0H.47499085C.48999024 0 .5159912 0 .5159912 .02999878Z"/>
<path id="font_6_84" d="M.48799134 .21551514C.48799134 .33851625 .39898683 .43652345 .29299928 .43652345 .24499512 .43652345 .19999695 .41851808 .1659851 .3875122 .1659851 .4166565 .1639862 .43066407 .12599182 .43066407H.052993776C.036987306 .43066407 .011993408 .43066407 .011993408 .3996582 .011993408 .36965943 .037994386 .36965943 .051986696 .36965943H.09700012V-.16069031H.052993776C.036987306-.16069031 .011993408-.16069031 .011993408-.19168091 .011993408-.22167969 .037994386-.22167969 .051986696-.22167969H.21099854C.22499085-.22167969 .25099183-.22167969 .25099183-.19168091 .25099183-.16069031 .22599793-.16069031 .20999146-.16069031H.1659851V.045135499C.20698548 .0031280518 .25-.005859375 .28199769-.005859375 .3909912-.005859375 .48799134 .08908081 .48799134 .21588135V.21551514M.4189911 .21588135C.4189911 .12004089 .34899903 .055130006 .2789917 .055130006 .20098877 .055130006 .1659851 .14300537 .1659851 .19093323V.2638092C.1659851 .32250978 .22399903 .3755188 .2869873 .3755188 .36099244 .3755188 .4189911 .30252076 .4189911 .21551514V.21588135Z"/>
<path id="font_6_72" d="M.46699525 .02999878C.46699525 .06098938 .44299317 .06098938 .4269867 .06098938H.29699708V.57032778C.29699708 .60131838 .29100038 .6113281 .25698854 .6113281H.09899902C.08299255 .6113281 .057998659 .6113281 .057998659 .58032229 .057998659 .5503235 .083999637 .5503235 .09799194 .5503235H.22799683V.06098938H.09899902C.08299255 .06098938 .057998659 .06098938 .057998659 .02999878 .057998659 0 .083999637 0 .09799194 0H.4269867C.44198609 0 .46699525 0 .46699525 .02999878Z"/>
<path id="font_6_50" d="M.46398927 .10922241C.46398927 .13728333 .43499757 .13728333 .42900086 .13728333 .41099549 .13728333 .40299989 .13427735 .3959961 .115234378 .37399293 .06422424 .31999208 .055221559 .2919922 .055221559 .21699524 .055221559 .14199829 .10522461 .12599182 .19140625H.42399598C.44499208 .19140625 .46398927 .19140625 .46398927 .22839356 .46398927 .3424225 .3999939 .4404297 .269989 .4404297 .15098572 .4404297 .054992677 .34040834 .054992677 .21739197 .054992677 .095214847 .1559906-.005859375 .2849884-.005859375 .4169922-.005859375 .46398927 .08418274 .46398927 .10923767V.10922241M.3929901 .2514038H.1269989C.14099121 .3244171 .19999695 .37942506 .269989 .37942506 .32199098 .37942506 .38398744 .3544159 .3929901 .2514038Z"/>
<path id="font_6_116" d="M.49598695 .02999878C.49598695 .06098938 .46998597 .06098938 .45498658 .06098938H.4149933L.2869873 .22181702 .40098573 .36965943H.44099427C.45498658 .36965943 .48199464 .36965943 .48199464 .3996582 .48199464 .43066407 .45599366 .43066407 .44099427 .43066407H.32398988C.30899049 .43066407 .28399659 .43066407 .28399659 .40065003 .28399659 .36965943 .30599977 .36965943 .33299256 .36965943L.25898744 .2687683 .18299866 .36965943C.20899964 .36965943 .23098755 .36965943 .23098755 .40065003 .23098755 .43066407 .20599365 .43066407 .19099427 .43066407H.07398987C.05899048 .43066407 .032989503 .43066407 .032989503 .3996582 .032989503 .36965943 .05999756 .36965943 .07398987 .36965943H.11399841L.23199463 .22181702 .10798645 .06098938H.067993167C.052993776 .06098938 .026992798 .06098938 .026992798 .02999878 .026992798 0 .053985597 0 .067993167 0H.18499756C.19999695 0 .22499085 0 .22499085 .02999878 .22499085 .06098938 .20399475 .06098938 .17298889 .06098938L.25898744 .18399048 .34799195 .06098938C.31999208 .06098938 .2979889 .06098938 .2979889 .02999878 .2979889 0 .32299806 0 .33799745 0H.45498658C.46899415 0 .49598695 0 .49598695 .02999878Z"/>
<path id="font_6_66" d="M.45498658 .02999878C.45498658 .06098938 .42900086 .06098938 .4139862 .06098938H.30899049V.3896637C.30899049 .4206543 .30299378 .43066407 .2689972 .43066407H.1269989C.11199951 .43066407 .085998538 .43066407 .085998538 .40065003 .085998538 .36965943 .11199951 .36965943 .1269989 .36965943H.23999024V.06098938H.11898804C.102996829 .06098938 .07798767 .06098938 .07798767 .02999878 .07798767 0 .10398865 0 .11898804 0H.4139862C.42900086 0 .45498658 0 .45498658 .02999878M.31298829 .55448916C.31298829 .582489 .29100038 .6044922 .2630005 .6044922 .23498535 .6044922 .21299744 .582489 .21299744 .55448916 .21299744 .52648928 .23498535 .5044861 .2630005 .5044861 .29100038 .5044861 .31298829 .52648928 .31298829 .55448916Z"/>
<path id="font_6_96" d="M.4869995 .37451173C.4869995 .394516 .47499085 .43652345 .3919983 .43652345 .34098817 .43652345 .2769928 .41851808 .22200012 .35551454V.3895111C.22200012 .4206543 .21598816 .43066407 .18199158 .43066407H.07199097C.056991579 .43066407 .03199768 .43066407 .03199768 .40065003 .03199768 .36965943 .055999757 .36965943 .07199097 .36965943H.15299988V.06098938H.07199097C.056991579 .06098938 .03199768 .06098938 .03199768 .0309906 .03199768 0 .055999757 0 .07199097 0H.33299256C.34799195 0 .37399293 0 .37399293 .02999878 .37399293 .06098938 .34799195 .06098938 .33299256 .06098938H.22200012V.18585205C.22200012 .2795105 .2809906 .3755188 .4019928 .3755188 .40299989 .35151673 .41999818 .33151246 .44499208 .33151246 .46699525 .33151246 .4869995 .34751893 .4869995 .37451173Z"/>
<path id="font_6_43" d="M.46598817 .109176639C.46598817 .13720703 .43699647 .13720703 .43099977 .13720703 .4149933 .13720703 .40499879 .13520813 .397995 .1151886 .3919983 .10217285 .37298585 .055130006 .29899598 .055130006 .21398926 .055130006 .14199829 .12519837 .14199829 .21627808 .14199829 .264328 .16999817 .37942506 .30499269 .37942506 .32598878 .37942506 .36499024 .37942506 .36499024 .37042237 .3659973 .33538819 .3849945 .32136537 .40899659 .32136537 .43299867 .32136537 .45399476 .33839417 .45399476 .36741639 .45399476 .4404297 .34999085 .4404297 .30499269 .4404297 .1329956 .4404297 .07299805 .3043518 .07299805 .21627808 .07299805 .09617615 .16699219-.005859375 .29299928-.005859375 .43199159-.005859375 .46598817 .092163089 .46598817 .109176639Z"/>
<path id="font_6_109" d="M.5119934 .0309906C.5119934 .06098938 .48599244 .06098938 .47200013 .06098938H.4269867V.3896637C.4269867 .4206543 .42099 .43066407 .3869934 .43066407H.31399537C.2979889 .43066407 .272995 .43066407 .272995 .3996582 .272995 .36965943 .29899598 .36965943 .31298829 .36965943H.35798646V.15689087C.35798646 .067108158 .2769928 .055130006 .24499512 .055130006 .1659851 .055130006 .1659851 .08808899 .1659851 .12004089V.3896637C.1659851 .4206543 .1599884 .43066407 .12599182 .43066407H.052993776C.036987306 .43066407 .011993408 .43066407 .011993408 .3996582 .011993408 .36965943 .037994386 .36965943 .051986696 .36965943H.09700012V.11404419C.09700012 .018127442 .1659851-.005859375 .23899842-.005859375 .27999879-.005859375 .32099916 .004135132 .35798646 .03213501 .35899354 0 .37998963 0 .397995 0H.47099305C.4869995 0 .5119934 0 .5119934 .0309906Z"/>
<path id="font_6_105" d="M.44898988 .12602234C.44898988 .14399719 .44898988 .16496277 .4139862 .16496277 .3809967 .16496277 .37998963 .14399719 .37998963 .12702942 .3789978 .06512451 .32199098 .055130006 .29899598 .055130006 .22200012 .055130006 .22200012 .107055667 .22200012 .13201905V.36965943H.38598634C.40098573 .36965943 .42599488 .36965943 .42599488 .3996582 .42599488 .43066407 .4019928 .43066407 .38598634 .43066407H.22200012V.51264956C.22200012 .531662 .22200012 .5536499 .18798828 .5536499 .15299988 .5536499 .15299988 .5326538 .15299988 .51264956V.43066407H.06599426C.049987794 .43066407 .024993897 .43066407 .024993897 .3996582 .024993897 .36965943 .049987794 .36965943 .06498718 .36965943H.15299988V.12602234C.15299988 .030136109 .22099304-.005859375 .2939911-.005859375 .36799623-.005859375 .44898988 .037139894 .44898988 .12602234Z"/>
<path id="font_3_5" d="M.24598694 .39465333H.34799195C.36698915 .39465333 .37998963 .39465333 .37998963 .4166565 .37998963 .43066407 .36698915 .43066407 .34999085 .43066407H.25498963L.2919922 .57850649C.29299928 .58351138 .29499818 .588501 .29499818 .5924988 .29499818 .6104889 .2809906 .6244812 .26098634 .6244812 .23599243 .6244812 .22099304 .6074829 .21398926 .58151248 .20698548 .5565338 .21998596 .6044922 .17599488 .43066407H.07398987C.054992677 .43066407 .041992189 .43066407 .041992189 .4086609 .041992189 .39465333 .053985597 .39465333 .07199097 .39465333H.16699219L.10798645 .15901184C.101989749 .13404846 .09298706 .098098758 .09298706 .085128787 .09298706 .0262146 .14299011-.009765625 .19999695-.009765625 .31098939-.009765625 .37399293 .13005066 .37399293 .14303589 .37399293 .15602112 .36099244 .15602112 .35798646 .15602112 .34599305 .15602112 .34498597 .15402222 .33699037 .13703919 .30899049 .074142459 .2579956 .018234253 .20298767 .018234253 .18199158 .018234253 .16799927 .031204224 .16799927 .06715393 .16799927 .07713318 .17199707 .098098758 .17399597 .10809326L.24598694 .39465333Z"/>
<path id="font_3_3" d="M.31298829 .66430667C.31399537 .66630557 .31698609 .67930606 .31698609 .68029788 .31698609 .68530276 .31298829 .6943054 .30099488 .6943054 .2809906 .6943054 .19799805 .6863098 .17298889 .6843109 .16499329 .68330386 .15098572 .682312 .15098572 .66130068 .15098572 .64730837 .16499329 .64730837 .1769867 .64730837 .22499085 .64730837 .22499085 .64030459 .22499085 .63230898 .22499085 .62532046 .22299195 .61932376 .22099304 .61032107L.07998657 .04423523C.07499695 .026229859 .07499695 .024230957 .07499695 .022232056 .07499695 .007232666 .08699036-.009765625 .10899353-.009765625 .11999512-.009765625 .13899231-.004776001 .1499939 .016220093 .15299988 .022232056 .1619873 .058242799 .16699219 .07925415L.18998719 .16828919C.19299317 .18330384 .20298767 .22131348 .20599365 .23632813 .21598816 .27433778 .21598816 .27534486 .23599243 .3073578 .2679901 .35636903 .31799317 .4133911 .3959961 .4133911 .45199586 .4133911 .45498658 .36738587 .45498658 .34336854 .45498658 .28334046 .4119873 .17228699 .3959961 .13027954 .3849945 .102264408 .3809967 .09326172 .3809967 .07624817 .3809967 .023223877 .4249878-.009765625 .47599793-.009765625 .57598879-.009765625 .6199951 .12828064 .6199951 .14328003 .6199951 .15628052 .6069946 .15628052 .60398867 .15628052 .58999636 .15628052 .58898928 .15028382 .58499148 .13928223 .56199648 .059249879 .5179901 .018234253 .47898866 .018234253 .45799256 .018234253 .45399476 .032226564 .45399476 .053237916 .45399476 .07624817 .45899964 .089263919 .47698976 .13427735 .4889984 .1652832 .5299988 .2713318 .5299988 .32736207 .5299988 .34336854 .5299988 .38539125 .49299623 .4143982 .47599793 .42739869 .44699098 .44140626 .3999939 .44140626 .32699586 .44140626 .27398683 .4013977 .23699951 .35836793L.31298829 .66430667Z"/>
<path id="font_1_2" d="M.375 .6136017C.3809967 .63760378 .38398744 .6476135 .40299989 .65060427 .4119873 .6516113 .44400025 .6516113 .46398927 .6516113 .5349884 .6516113 .6459961 .6516113 .6459961 .5525818 .6459961 .51856997 .6299896 .44955445 .59098818 .41055299 .5649872 .38453675 .5119934 .35253907 .42199708 .35253907H.30999757L.375 .6136017M.5189972 .33953858C.6199951 .3615265 .7389984 .43154908 .7389984 .5325775 .7389984 .61860659 .6489868 .6826172 .5179901 .6826172H.23298645C.21299744 .6826172 .20399475 .6826172 .20399475 .6626129 .20399475 .6516113 .21299744 .6516113 .23199463 .6516113 .23399353 .6516113 .25299073 .6516113 .269989 .6496124 .28799439 .6476135 .29699708 .64660647 .29699708 .63360598 .29699708 .62960818 .29599 .6266022 .29299928 .6145935L.15899658 .07752991C.14898682 .038528444 .14698792 .030532837 .067993167 .030532837 .049987794 .030532837 .040985109 .030532837 .040985109 .010528564 .040985109-.00047302247 .052993776-.00047302247 .054992677-.00047302247 .08299255-.00047302247 .15299988 .002532959 .18099976 .002532959 .20899964 .002532959 .27999879-.00047302247 .30799867-.00047302247 .31599427-.00047302247 .32798768-.00047302247 .32798768 .01953125 .32798768 .030532837 .31900025 .030532837 .2999878 .030532837 .2630005 .030532837 .23498535 .030532837 .23498535 .048538209 .23498535 .054534913 .23699951 .059524537 .23799134 .0655365L.3039856 .3305359H.4229889C.5139923 .3305359 .5319977 .27453614 .5319977 .23953247 .5319977 .22453308 .5239868 .19352722 .5179901 .17053223 .5109863 .14253235 .5019989 .105529788 .5019989 .08552551 .5019989-.022460938 .621994-.022460938 .6349945-.022460938 .7200012-.022460938 .7549896 .07853699 .7549896 .0925293 .7549896 .104537967 .74398806 .104537967 .7429962 .104537967 .73399356 .104537967 .7319946 .09753418 .7299957 .090530399 .7049866 .016525269 .6619873-.00047302247 .6389923-.00047302247 .60598757-.00047302247 .598999 .021530152 .598999 .060531618 .598999 .091537479 .6049957 .14253235 .60899356 .17453003 .61099246 .1885376 .61299136 .20753479 .61299136 .2215271 .61299136 .2985382 .54599 .3295288 .5189972 .33953858Z"/>
<path id="font_6_104" d="M.49798585 .49728395V.57032778C.49798585 .60131838 .49198915 .6113281 .45799256 .6113281H.066986087C.033996583 .6113281 .025985718 .60331729 .025985718 .57032778V.49728395C.025985718 .47827149 .025985718 .45625306 .05999756 .45625306 .09498596 .45625306 .09498596 .47727967 .09498596 .49728395V.5503235H.22799683V.06098938H.17599488C.16099549 .06098938 .13598633 .06098938 .13598633 .0309906 .13598633 0 .1599884 0 .17599488 0H.34899903C.3639984 0 .3889923 0 .3889923 .02999878 .3889923 .06098938 .36499024 .06098938 .34899903 .06098938H.29699708V.5503235H.42900086V.49728395C.42900086 .47827149 .42900086 .45625306 .46299745 .45625306 .49798585 .45625306 .49798585 .47727967 .49798585 .49728395Z"/>
<path id="font_6_63" d="M.5119934 .02999878C.5119934 .06098938 .4869995 .06098938 .47099305 .06098938H.4269867V.29263307C.4269867 .3935089 .37599183 .43652345 .29699708 .43652345 .22999573 .43652345 .18499756 .4025116 .1659851 .3835144V.57032778C.1659851 .60131838 .1599884 .6113281 .12599182 .6113281H.052993776C.036987306 .6113281 .011993408 .6113281 .011993408 .58032229 .011993408 .5503235 .037994386 .5503235 .051986696 .5503235H.09700012V.06098938H.052993776C.036987306 .06098938 .011993408 .06098938 .011993408 .02999878 .011993408 0 .037994386 0 .051986696 0H.21099854C.22499085 0 .25099183 0 .25099183 .02999878 .25099183 .06098938 .22599793 .06098938 .20999146 .06098938H.1659851V.23771668C.1659851 .3375702 .23999024 .3755188 .29100038 .3755188 .34399415 .3755188 .35798646 .34754945 .35798646 .28764344V.06098938H.31900025C.30299378 .06098938 .27799989 .06098938 .27799989 .02999878 .27799989 0 .30499269 0 .31900025 0H.47200013C.48599244 0 .5119934 0 .5119934 .02999878Z"/>
<path id="font_6_112" d="M.5 .3996582C.5 .43066407 .47599793 .43066407 .45999146 .43066407H.34298707C.32798768 .43066407 .30299378 .43066407 .30299378 .40065003 .30299378 .36965943 .32699586 .36965943 .34298707 .36965943H.37098695L.2619934 .04801941 .15299988 .36965943H.18099976C.19599915 .36965943 .22099304 .36965943 .22099304 .3996582 .22099304 .43066407 .19699097 .43066407 .18099976 .43066407H.06399536C.04798889 .43066407 .023986817 .43066407 .023986817 .3996582 .023986817 .36965943 .04899597 .36965943 .06399536 .36965943H.09399414L.20899964 .030044556C.22099304-.00390625 .24099732-.00390625 .2619934-.00390625 .2809906-.00390625 .3039856-.00390625 .31498719 .029052735L.42999269 .36965943H.45999146C.47499085 .36965943 .5 .36965943 .5 .3996582Z"/>
<path id="font_6_77" d="M.5119934 .02999878C.5119934 .06098938 .4869995 .06098938 .47099305 .06098938H.4269867V.29263307C.4269867 .3935089 .37599183 .43652345 .29699708 .43652345 .22999573 .43652345 .18499756 .4025116 .1659851 .3835144 .1659851 .4156494 .1659851 .43066407 .12599182 .43066407H.052993776C.036987306 .43066407 .011993408 .43066407 .011993408 .3996582 .011993408 .36965943 .037994386 .36965943 .051986696 .36965943H.09700012V.06098938H.052993776C.036987306 .06098938 .011993408 .06098938 .011993408 .02999878 .011993408 0 .037994386 0 .051986696 0H.21099854C.22499085 0 .25099183 0 .25099183 .02999878 .25099183 .06098938 .22599793 .06098938 .20999146 .06098938H.1659851V.23779297C.1659851 .3375702 .23999024 .3755188 .29100038 .3755188 .34399415 .3755188 .35798646 .34754945 .35798646 .28764344V.06098938H.31900025C.30299378 .06098938 .27799989 .06098938 .27799989 .02999878 .27799989 0 .30499269 0 .31900025 0H.47200013C.48599244 0 .5119934 0 .5119934 .02999878Z"/>
<path id="font_6_49" d="M.5019989 .040985109V.1300354C.5019989 .14904785 .5019989 .17105103 .46798707 .17105103 .43299867 .17105103 .43299867 .15003968 .43299867 .1300354V.06098938H.1659851V.2861328H.29699708C.29699708 .24510193 .29699708 .22909546 .33198548 .22909546 .3659973 .22909546 .3659973 .25109864 .3659973 .27011109V.36314393C.3659973 .38215638 .3659973 .4041748 .33198548 .4041748 .29699708 .4041748 .29699708 .38816834 .29699708 .3471222H.1659851V.5503235H.41099549V.49728395C.41099549 .47827149 .41099549 .45625306 .44499208 .45625306 .47999574 .45625306 .47999574 .47727967 .47999574 .49728395V.57032778C.47999574 .60131838 .47399903 .6113281 .43998719 .6113281H.066986087C.051986696 .6113281 .025985718 .6113281 .025985718 .5813141 .025985718 .5503235 .051986696 .5503235 .066986087 .5503235H.09700012V.06098938H.066986087C.050994874 .06098938 .025985718 .06098938 .025985718 .02999878 .025985718 0 .051986696 0 .066986087 0H.46199037C.49499513 0 .5019989 .008987427 .5019989 .040985109Z"/>
<path id="font_6_91" d="M.5369873-.19168091C.5369873-.16069031 .5130005-.16069031 .49699403-.16069031H.44799806V.39552308C.44799806 .41452027 .44799806 .43652345 .4139862 .43652345 .3789978 .43652345 .3789978 .4195099 .3789978 .3815155 .35198976 .41052247 .31098939 .43652345 .2539978 .43652345 .14199829 .43652345 .039993287 .34158326 .039993287 .21482849 .039993287 .09106445 .13398743-.005859375 .24398804-.005859375 .31199647-.005859375 .35798646 .03112793 .3789978 .054138185V-.16069031H.32998658C.31498719-.16069031 .2899933-.16069031 .2899933-.19068909 .2899933-.22167969 .31399537-.22167969 .32998658-.22167969H.49699403C.5119934-.22167969 .5369873-.22167969 .5369873-.19168091M.3789978 .19386292C.3789978 .13697815 .32998658 .055130006 .24798584 .055130006 .17399597 .055130006 .10899353 .125 .10899353 .21482849 .10899353 .30665589 .1789856 .3755188 .25898744 .3755188 .33399964 .3755188 .3789978 .29866029 .3789978 .23278809V.19386292Z"/>
<path id="font_6_28" d="M.5189972 .0309906C.5189972 .06098938 .49398805 .06098938 .47898866 .06098938 .43699647 .06098938 .4269867 .06599426 .4189911 .069000247V.28529359C.4189911 .35638429 .36499024 .4404297 .22099304 .4404297 .17799378 .4404297 .07598877 .4404297 .07598877 .36740113 .07598877 .33735658 .09700012 .32133485 .12098694 .32133485 .13598633 .32133485 .1639862 .33035279 .16499329 .36740113 .16499329 .375412 .1659851 .37641908 .18598938 .37841798 .19999695 .37942506 .21299744 .37942506 .22200012 .37942506 .2979889 .37942506 .34999085 .3483734 .34999085 .2772827 .17298889 .27427674 .049987794 .22421265 .049987794 .12808228 .049987794 .059127809 .11299133-.005859375 .21499634-.005859375 .2519989-.005859375 .31399537 .0011291504 .36099244 .03213501 .3829956 .0009918213 .43099977 0 .46899415 0 .49699403 0 .5189972 0 .5189972 .0309906M.34999085 .13398743C.34999085 .11099243 .34999085 .08999634 .31098939 .07199097 .2749939 .055130006 .22999573 .055130006 .22200012 .055130006 .1599884 .055130006 .11898804 .08912659 .11898804 .12812805 .11898804 .17713928 .20498657 .21412659 .34999085 .21813965V.13398743Z"/>
<path id="font_1_1" d="M.37399293 .6056366C.3829956 .6416168 .38598634 .6516113 .46499635 .6516113 .4889984 .6516113 .49699403 .6516113 .49699403 .6706085 .49699403 .6826172 .48599244 .6826172 .48199464 .6826172 .45298768 .6826172 .3789978 .6796112 .34999085 .6796112 .31999208 .6796112 .24699402 .6826172 .21699524 .6826172 .20999146 .6826172 .19699097 .6826172 .19699097 .6626129 .19699097 .6516113 .20599365 .6516113 .22499085 .6516113 .2669983 .6516113 .2939911 .6516113 .2939911 .63261416 .2939911 .6276245 .2939911 .6256256 .2919922 .6166229L.15699768 .07795715C.147995 .040985109 .14498902 .0309906 .06599426 .0309906 .042999269 .0309906 .033996583 .0309906 .033996583 .010986328 .033996583 0 .04598999 0 .04899597 0 .07798767 0 .15098572 .0029907227 .17999268 .0029907227 .20999146 .0029907227 .28399659 0 .31399537 0 .32199098 0 .33399964 0 .33399964 .018997193 .33399964 .0309906 .32598878 .0309906 .3039856 .0309906 .28599549 .0309906 .2809906 .0309906 .26098634 .032989503 .23999024 .034988405 .23599243 .038986207 .23599243 .049987794 .23599243 .05796814 .23799134 .065963748 .23999024 .07296753L.37399293 .6056366Z"/>
<path id="font_3_4" d="M.12199402 .06324768C.117996219 .050247194 .11199951 .025222779 .11199951 .022232056 .11199951 .00022888184 .12998963-.009765625 .1459961-.009765625 .1639862-.009765625 .17999268 .0032196046 .18499756 .01222229 .18998719 .021224976 .19799805 .053237916 .20298767 .07424927 .20799256 .09326172 .21899414 .13928223 .22499085 .16429138 .23098755 .18629456 .23699951 .20831299 .24198914 .23132324 .25299073 .27233888 .25498963 .28033448 .28399659 .32136537 .31199647 .3613739 .35899354 .4133911 .43399049 .4133911 .49198915 .4133911 .49299623 .36238099 .49299623 .34336854 .49299623 .28334046 .44999696 .17228699 .43399049 .13027954 .4229889 .102264408 .4189911 .09326172 .4189911 .07624817 .4189911 .023223877 .46299745-.009765625 .5139923-.009765625 .6139984-.009765625 .6579895 .12828064 .6579895 .14328003 .6579895 .15628052 .644989 .15628052 .6419983 .15628052 .6279907 .15628052 .6269989 .15028382 .6230011 .13928223 .59999087 .059249879 .5569916 .018234253 .5169983 .018234253 .49598695 .018234253 .49198915 .032226564 .49198915 .053237916 .49198915 .07624817 .49699403 .089263919 .5149994 .13427735 .5269928 .1652832 .56799319 .2713318 .56799319 .32736207 .56799319 .4243927 .4909973 .44140626 .43798829 .44140626 .35499574 .44140626 .29899598 .39038087 .2689972 .3503723 .2619934 .41940309 .20298767 .44140626 .1619873 .44140626 .11898804 .44140626 .09599304 .4104004 .08299255 .38739015 .06098938 .3503723 .04699707 .29335023 .04699707 .28834535 .04699707 .27534486 .06098938 .27534486 .06399536 .27534486 .07798767 .27534486 .07899475 .27833558 .085998538 .3053589 .100997928 .36437989 .11999512 .4133911 .15899658 .4133911 .18499756 .4133911 .19198609 .39138795 .19198609 .36437989 .19198609 .34536744 .18299866 .3083496 .17599488 .28134156 .16899109 .2543335 .15899658 .21331787 .1539917 .19129944L.12199402 .06324768Z"/>
<path id="font_6_76" d="M.49598695 .58032229C.49598695 .6113281 .47200013 .6113281 .45599366 .6113281H.34999085C.33399964 .6113281 .30999757 .6113281 .30999757 .58032229 .30999757 .5503235 .33499146 .5503235 .34999085 .5503235H.375V.07499695H.37399293L.18998719 .5753174C.17799378 .60832217 .16299439 .6113281 .13598633 .6113281H.067993167C.052993776 .6113281 .027999878 .6113281 .027999878 .5813141 .027999878 .5503235 .051986696 .5503235 .067993167 .5503235H.09298706V.06098938H.067993167C.052993776 .06098938 .027999878 .06098938 .027999878 .0309906 .027999878 0 .051986696 0 .067993167 0H.17399597C.18899536 0 .21398926 0 .21398926 .02999878 .21398926 .06098938 .18998719 .06098938 .17399597 .06098938H.14898682V.5363159H.1499939L.33399964 .035995485C.34700013 .0009918213 .36299134 0 .3889923 0 .4189911 0 .43099977 .0029907227 .43099977 .040985109V.5503235H.45599366C.47099305 .5503235 .49598695 .5503235 .49598695 .58032229Z"/>
</defs>
<path transform="matrix(1.00008,0,0,-1.00006,94.059238,173.36643)" stroke-width=".3985" stroke-linecap="butt" stroke-miterlimit="10" stroke-linejoin="miter" fill="none" stroke="#000000" d="M127.56062 31.89014"/>
<path transform="matrix(1.00008,0,0,-1.00006,94.059238,173.36643)" stroke-width=".3985" stroke-linecap="butt" stroke-miterlimit="10" stroke-linejoin="miter" fill="none" stroke="#000000" d="M127.5645 31.8911 111.55531 31.89302M79.805 31.89302 63.78418 31.8911 63.78806 47.90999M63.78806 79.6603 63.78418 95.67142 31.89594 95.67723M31.89594 95.67723 .00388 95.67142V111.69417M.00388 143.44449V159.45175"/>
<path transform="matrix(1.00008,0,0,-1.00006,94.059238,173.36643)" stroke-width=".797" stroke-linecap="butt" stroke-linejoin="bevel" fill="none" stroke="#000000" d="M111.94704 31.8911 108.86963 25.93825 103.51181 37.84395 98.15399 25.93825 92.79619 37.84395 87.43837 25.93825 82.08055 37.84395 79.40164 31.8911"/>
<path transform="matrix(1.00008,0,0,-1.00006,94.059238,173.36643)" d="M129.15166 31.8911C129.15166 32.76765 128.44107 33.47824 127.5645 33.47824 126.68794 33.47824 125.97736 32.76765 125.97736 31.8911 125.97736 31.01454 126.68794 30.30396 127.5645 30.30396 128.44107 30.30396 129.15166 31.01454 129.15166 31.8911ZM127.5645 31.8911" fill="#ffffff"/>
<path transform="matrix(1.00008,0,0,-1.00006,94.059238,173.36643)" stroke-width=".3985" stroke-linecap="butt" stroke-miterlimit="10" stroke-linejoin="miter" fill="none" stroke="#000000" d="M129.15166 31.8911C129.15166 32.76765 128.44107 33.47824 127.5645 33.47824 126.68794 33.47824 125.97736 32.76765 125.97736 31.8911 125.97736 31.01454 126.68794 30.30396 127.5645 30.30396 128.44107 30.30396 129.15166 31.01454 129.15166 31.8911ZM127.5645 31.8911"/>
<path transform="matrix(1.00008,0,0,-1.00006,94.059238,173.36643)" d="" fill="#ffffff"/>
<path transform="matrix(1.00008,0,0,-1.00006,94.059238,173.36643)" stroke-width=".3985" stroke-linecap="butt" stroke-miterlimit="10" stroke-linejoin="miter" fill="none" stroke="#000000" d=""/>
<path transform="matrix(1.00008,0,0,-1.00006,94.059238,173.36643)" d="M65.37132 31.8911C65.37132 32.76765 64.66074 33.47824 63.78418 33.47824 62.90762 33.47824 62.19704 32.76765 62.19704 31.8911 62.19704 31.01454 62.90762 30.30396 63.78418 30.30396 64.66074 30.30396 65.37132 31.01454 65.37132 31.8911ZM63.78418 31.8911"/>
<path transform="matrix(1.00008,0,0,-1.00006,94.059238,173.36643)" stroke-width=".3985" stroke-linecap="butt" stroke-miterlimit="10" stroke-linejoin="miter" fill="none" stroke="#000000" d="M65.37132 31.8911C65.37132 32.76765 64.66074 33.47824 63.78418 33.47824 62.90762 33.47824 62.19704 32.76765 62.19704 31.8911 62.19704 31.01454 62.90762 30.30396 63.78418 30.30396 64.66074 30.30396 65.37132 31.01454 65.37132 31.8911ZM63.78418 31.8911"/>
<path transform="matrix(1.00008,0,0,-1.00006,94.059238,173.36643)" stroke-width=".797" stroke-linecap="butt" stroke-linejoin="bevel" fill="none" stroke="#000000" d="M63.78418 47.50856 57.83133 50.58597 69.73703 55.94379 57.83133 61.3016 69.73703 66.65942 57.83133 72.01724 69.73703 77.37505 63.78418 80.05396"/>
<path transform="matrix(1.00008,0,0,-1.00006,94.059238,173.36643)" d="M65.37132 31.8911C65.37132 32.76765 64.66074 33.47824 63.78418 33.47824 62.90762 33.47824 62.19704 32.76765 62.19704 31.8911 62.19704 31.01454 62.90762 30.30396 63.78418 30.30396 64.66074 30.30396 65.37132 31.01454 65.37132 31.8911ZM63.78418 31.8911"/>
<path transform="matrix(1.00008,0,0,-1.00006,94.059238,173.36643)" stroke-width=".3985" stroke-linecap="butt" stroke-miterlimit="10" stroke-linejoin="miter" fill="none" stroke="#000000" d="M65.37132 31.8911C65.37132 32.76765 64.66074 33.47824 63.78418 33.47824 62.90762 33.47824 62.19704 32.76765 62.19704 31.8911 62.19704 31.01454 62.90762 30.30396 63.78418 30.30396 64.66074 30.30396 65.37132 31.01454 65.37132 31.8911ZM63.78418 31.8911"/>
<path transform="matrix(1.00008,0,0,-1.00006,94.059238,173.36643)" d="M65.37132 95.67142C65.37132 96.54799 64.66074 97.25858 63.78418 97.25858 62.90762 97.25858 62.19704 96.54799 62.19704 95.67142 62.19704 94.79486 62.90762 94.08427 63.78418 94.08427 64.66074 94.08427 65.37132 94.79486 65.37132 95.67142ZM63.78418 95.67142"/>
<path transform="matrix(1.00008,0,0,-1.00006,94.059238,173.36643)" stroke-width=".3985" stroke-linecap="butt" stroke-miterlimit="10" stroke-linejoin="miter" fill="none" stroke="#000000" d="M65.37132 95.67142C65.37132 96.54799 64.66074 97.25858 63.78418 97.25858 62.90762 97.25858 62.19704 96.54799 62.19704 95.67142 62.19704 94.79486 62.90762 94.08427 63.78418 94.08427 64.66074 94.08427 65.37132 94.79486 65.37132 95.67142ZM63.78418 95.67142"/>
<path transform="matrix(1.00008,0,0,-1.00006,94.059238,173.36643)" stroke-width=".797" stroke-linecap="butt" stroke-linejoin="bevel" fill="none" stroke="#000000" d="M.00388 111.28888-5.94897 114.36629 5.95673 119.7241-5.94897 125.08191 5.95673 130.43973-5.94897 135.79755 5.95673 141.15537 .00388 143.83428"/>
<path transform="matrix(1.00008,0,0,-1.00006,94.059238,173.36643)" d="M1.59102 95.67142C1.59102 96.54799 .88043 97.25858 .00388 97.25858-.87268 97.25858-1.58327 96.54799-1.58327 95.67142-1.58327 94.79486-.87268 94.08427 .00388 94.08427 .88043 94.08427 1.59102 94.79486 1.59102 95.67142ZM.00388 95.67142"/>
<path transform="matrix(1.00008,0,0,-1.00006,94.059238,173.36643)" stroke-width=".3985" stroke-linecap="butt" stroke-miterlimit="10" stroke-linejoin="miter" fill="none" stroke="#000000" d="M1.59102 95.67142C1.59102 96.54799 .88043 97.25858 .00388 97.25858-.87268 97.25858-1.58327 96.54799-1.58327 95.67142-1.58327 94.79486-.87268 94.08427 .00388 94.08427 .88043 94.08427 1.59102 94.79486 1.59102 95.67142ZM.00388 95.67142"/>
<path transform="matrix(1.00008,0,0,-1.00006,94.059238,173.36643)" d="M1.59102 159.45175C1.59102 160.32831 .88043 161.0389 .00388 161.0389-.87268 161.0389-1.58327 160.32831-1.58327 159.45175-1.58327 158.5752-.87268 157.86461 .00388 157.86461 .88043 157.86461 1.59102 158.5752 1.59102 159.45175ZM.00388 159.45175"/>
<path transform="matrix(1.00008,0,0,-1.00006,94.059238,173.36643)" stroke-width=".3985" stroke-linecap="butt" stroke-miterlimit="10" stroke-linejoin="miter" fill="none" stroke="#000000" d="M1.59102 159.45175C1.59102 160.32831 .88043 161.0389 .00388 161.0389-.87268 161.0389-1.58327 160.32831-1.58327 159.45175-1.58327 158.5752-.87268 157.86461 .00388 157.86461 .88043 157.86461 1.59102 158.5752 1.59102 159.45175ZM.00388 159.45175"/>
<path transform="matrix(1.00008,0,0,-1.00006,94.059238,173.36643)" stroke-width=".3985" stroke-linecap="butt" stroke-miterlimit="10" stroke-linejoin="miter" fill="none" stroke="#000000" d="M63.78612 31.89206 37.85107 31.89397M25.94466 31.89397 .00578 31.89206V47.91095M.00578 79.66125V95.67238"/>
<path transform="matrix(1.00008,0,0,-1.00006,94.059238,173.36643)" stroke-width=".797" stroke-linecap="butt" stroke-miterlimit="10" stroke-linejoin="miter" fill="none" stroke="#000000" d="M37.8488 19.98634V43.79778M33.88023 25.93921V37.84491M29.91167 19.98634V43.79778M25.9431 25.93921V37.84491"/>
<path transform="matrix(1.00008,0,0,-1.00006,94.059238,173.36643)" stroke-width=".797" stroke-linecap="butt" stroke-linejoin="bevel" fill="none" stroke="#000000" d="M.00578 47.50952-5.94705 50.58693 5.95863 55.94475-5.94705 61.30257 5.95863 66.66039-5.94705 72.01819 5.95863 77.376 .00578 80.05492"/>
<path transform="matrix(1.00008,0,0,-1.00006,94.059238,173.36643)" d="M1.59293 31.89206C1.59293 32.76862 .88234 33.4792 .00578 33.4792-.87076 33.4792-1.58134 32.76862-1.58134 31.89206-1.58134 31.01549-.87076 30.3049 .00578 30.3049 .88234 30.3049 1.59293 31.01549 1.59293 31.89206ZM.00578 31.89206"/>
<path transform="matrix(1.00008,0,0,-1.00006,94.059238,173.36643)" stroke-width=".3985" stroke-linecap="butt" stroke-miterlimit="10" stroke-linejoin="miter" fill="none" stroke="#000000" d="M1.59293 31.89206C1.59293 32.76862 .88234 33.4792 .00578 33.4792-.87076 33.4792-1.58134 32.76862-1.58134 31.89206-1.58134 31.01549-.87076 30.3049 .00578 30.3049 .88234 30.3049 1.59293 31.01549 1.59293 31.89206ZM.00578 31.89206"/>
<path transform="matrix(1.00008,0,0,-1.00006,94.059238,173.36643)" d="M1.59293 95.67238C1.59293 96.54895 .88234 97.25952 .00578 97.25952-.87076 97.25952-1.58134 96.54895-1.58134 95.67238-1.58134 94.79582-.87076 94.08524 .00578 94.08524 .88234 94.08524 1.59293 94.79582 1.59293 95.67238ZM.00578 95.67238"/>
<path transform="matrix(1.00008,0,0,-1.00006,94.059238,173.36643)" stroke-width=".3985" stroke-linecap="butt" stroke-miterlimit="10" stroke-linejoin="miter" fill="none" stroke="#000000" d="M1.59293 95.67238C1.59293 96.54895 .88234 97.25952 .00578 97.25952-.87076 97.25952-1.58134 96.54895-1.58134 95.67238-1.58134 94.79582-.87076 94.08524 .00578 94.08524 .88234 94.08524 1.59293 94.79582 1.59293 95.67238ZM.00578 95.67238"/>
<path transform="matrix(1.00008,0,0,-1.00006,94.059238,173.36643)" stroke-width=".3985" stroke-linecap="butt" stroke-miterlimit="10" stroke-linejoin="miter" fill="none" stroke="#000000" d="M.00578 31.89302 23.47893 55.36842M40.3168 72.20667 63.78612 95.67433"/>
<path transform="matrix(1.00008,0,0,-1.00006,94.059238,173.36643)" stroke-width=".797" stroke-linecap="butt" stroke-miterlimit="10" stroke-linejoin="miter" fill="none" stroke="#000000" d="M23.47734 72.2021C18.82791 67.55258 18.82799 60.01448 23.47752 55.36507 28.12704 50.71565 35.66515 50.71573 40.31456 55.36525 44.96397 60.01477 44.9639 67.55287 40.31438 72.20229 35.66486 76.85172 28.12675 76.85164 23.47734 72.2021ZM31.89595 63.78368"/>
<path transform="matrix(1.00008,0,0,-1.00006,94.059238,173.36643)" stroke-width=".797" stroke-linecap="butt" stroke-miterlimit="10" stroke-linejoin="miter" fill="none" stroke="#000000" d="M26.00308 57.89069 37.78882 69.67667"/>
<path transform="matrix(1.00008,0,0,-1.00006,94.059238,173.36643)" d="M34.8775 66.7653 36.28056 65.36227 37.85896 69.74684 33.47443 68.16833Z"/>
<path transform="matrix(1.00008,0,0,-1.00006,94.059238,173.36643)" stroke-width=".797" stroke-linecap="butt" stroke-miterlimit="10" stroke-linejoin="miter" fill="none" stroke="#000000" d="M34.8775 66.7653 36.28056 65.36227 37.85896 69.74684 33.47443 68.16833Z"/>
<path transform="matrix(1.00008,0,0,-1.00006,94.059238,173.36643)" stroke-width=".3985" stroke-linecap="butt" stroke-miterlimit="10" stroke-linejoin="miter" fill="none" stroke="#000000" d="M.00578 31.89302-16.01111 31.89493M-47.76143 31.89493-63.7745 31.89302-63.77838 83.77272M-63.77838 107.5856-63.7745 159.45366-37.83948 159.46338M-25.93304 159.46338 .00578 159.45366 16.02269 159.46338M47.77301 159.46338 63.7861 159.45366"/>
<path transform="matrix(1.00008,0,0,-1.00006,94.059238,173.36643)" stroke-width=".797" stroke-linecap="butt" stroke-linejoin="bevel" fill="none" stroke="#000000" d="M-15.61165 31.89302-18.68906 25.94016-24.04688 37.84587-29.4047 25.94016-34.76251 37.84587-40.12033 25.94016-45.47813 37.84587-48.15704 31.89302"/>
<path transform="matrix(1.00008,0,0,-1.00006,94.059238,173.36643)" stroke-width=".797" stroke-linecap="butt" stroke-miterlimit="10" stroke-linejoin="miter" fill="none" stroke="#000000" d="M-75.68024 95.67334C-75.68024 89.09792-70.34993 83.76762-63.7745 83.76762-57.1991 83.76762-51.86879 89.09792-51.86879 95.67334-51.86879 102.24876-57.1991 107.57906-63.7745 107.57906-70.34993 107.57906-75.68024 102.24876-75.68024 95.67334ZM-63.7745 95.67334"/>
<path transform="matrix(1.00008,0,0,-1.00006,94.059238,173.36643)" stroke-width=".797" stroke-linecap="butt" stroke-miterlimit="10" stroke-linejoin="miter" fill="none" stroke="#000000" d="M-63.7745 87.33939V104.0073"/>
<path transform="matrix(1.00008,0,0,-1.00006,94.059238,173.36643)" d="M-63.7745 99.88997H-61.79025L-63.7745 104.10652-65.75876 99.88997Z"/>
<path transform="matrix(1.00008,0,0,-1.00006,94.059238,173.36643)" stroke-width=".797" stroke-linecap="butt" stroke-miterlimit="10" stroke-linejoin="miter" fill="none" stroke="#000000" d="M-63.7745 99.88997H-61.79025L-63.7745 104.10652-65.75876 99.88997Z"/>
<path transform="matrix(1.00008,0,0,-1.00006,94.059238,173.36643)" stroke-width=".797" stroke-linecap="butt" stroke-miterlimit="10" stroke-linejoin="miter" fill="none" stroke="#000000" d="M-37.8372 171.35939V147.54795M-33.86864 165.40651V153.50081M-29.90007 171.35939V147.54795M-25.9315 165.40651V153.50081"/>
<path transform="matrix(1.00008,0,0,-1.00006,94.059238,173.36643)" stroke-width=".797" stroke-linecap="butt" stroke-linejoin="bevel" fill="none" stroke="#000000" d="M15.62323 159.45366 18.70064 165.40651 24.05846 153.50081 29.41628 165.40651 34.7741 153.50081 40.13191 165.40651 45.48973 153.50081 48.16862 159.45366"/>
<path transform="matrix(1.00008,0,0,-1.00006,94.059238,173.36643)" d="M1.59293 159.45366C1.59293 160.33023 .88234 161.04082 .00578 161.04082-.87076 161.04082-1.58134 160.33023-1.58134 159.45366-1.58134 158.5771-.87076 157.86652 .00578 157.86652 .88234 157.86652 1.59293 158.5771 1.59293 159.45366ZM.00578 159.45366"/>
<path transform="matrix(1.00008,0,0,-1.00006,94.059238,173.36643)" stroke-width=".3985" stroke-linecap="butt" stroke-miterlimit="10" stroke-linejoin="miter" fill="none" stroke="#000000" d="M1.59293 159.45366C1.59293 160.33023 .88234 161.04082 .00578 161.04082-.87076 161.04082-1.58134 160.33023-1.58134 159.45366-1.58134 158.5771-.87076 157.86652 .00578 157.86652 .88234 157.86652 1.59293 158.5771 1.59293 159.45366ZM.00578 159.45366"/>
<path transform="matrix(1.00008,0,0,-1.00006,94.059238,173.36643)" stroke-width=".3985" stroke-linecap="butt" stroke-miterlimit="10" stroke-linejoin="miter" fill="none" stroke="#000000" d="M63.78802 159.45851 63.7919 133.52935M63.7919 121.62291 63.78802 95.67819 95.68402 95.68402M95.68402 95.68402 127.56834 95.67819"/>
<path transform="matrix(1.00008,0,0,-1.00006,94.059238,173.36643)" stroke-width=".797" stroke-linecap="butt" stroke-miterlimit="10" stroke-linejoin="miter" fill="none" stroke="#000000" d="M75.69374 133.52121H51.88231M69.74088 129.55265H57.83517M75.69374 125.58406H51.88231M69.74088 121.6155H57.83517"/>
<path transform="matrix(1.00008,0,0,-1.00006,94.059238,173.36643)" d="M65.37517 95.67819C65.37517 96.55475 64.66458 97.26534 63.78802 97.26534 62.91147 97.26534 62.20088 96.55475 62.20088 95.67819 62.20088 94.80162 62.91147 94.09103 63.78802 94.09103 64.66458 94.09103 65.37517 94.80162 65.37517 95.67819ZM63.78802 95.67819"/>
<path transform="matrix(1.00008,0,0,-1.00006,94.059238,173.36643)" stroke-width=".3985" stroke-linecap="butt" stroke-miterlimit="10" stroke-linejoin="miter" fill="none" stroke="#000000" d="M65.37517 95.67819C65.37517 96.55475 64.66458 97.26534 63.78802 97.26534 62.91147 97.26534 62.20088 96.55475 62.20088 95.67819 62.20088 94.80162 62.91147 94.09103 63.78802 94.09103 64.66458 94.09103 65.37517 94.80162 65.37517 95.67819ZM63.78802 95.67819"/>
<path transform="matrix(1.00008,0,0,-1.00006,94.059238,173.36643)" d="M129.1555 95.67819C129.1555 96.55475 128.44492 97.26534 127.56834 97.26534 126.69179 97.26534 125.9812 96.55475 125.9812 95.67819 125.9812 94.80162 126.69179 94.09103 127.56834 94.09103 128.44492 94.09103 129.1555 94.80162 129.1555 95.67819ZM127.56834 95.67819" fill="#ffffff"/>
<path transform="matrix(1.00008,0,0,-1.00006,94.059238,173.36643)" stroke-width=".3985" stroke-linecap="butt" stroke-miterlimit="10" stroke-linejoin="miter" fill="none" stroke="#000000" d="M129.1555 95.67819C129.1555 96.55475 128.44492 97.26534 127.56834 97.26534 126.69179 97.26534 125.9812 96.55475 125.9812 95.67819 125.9812 94.80162 126.69179 94.09103 127.56834 94.09103 128.44492 94.09103 129.1555 94.80162 129.1555 95.67819ZM127.56834 95.67819"/>
<path transform="matrix(1.00008,0,0,-1.00006,94.059238,173.36643)" d="" fill="#ffffff"/>
<path transform="matrix(1.00008,0,0,-1.00006,94.059238,173.36643)" stroke-width=".3985" stroke-linecap="butt" stroke-miterlimit="10" stroke-linejoin="miter" fill="none" stroke="#000000" d=""/>
<path transform="matrix(1.00008,0,0,-1.00006,94.059238,173.36643)" d="M93.94781 95.68402V93.69977L98.16435 95.68402 93.94781 97.66827Z"/>
<path transform="matrix(1.00008,0,0,-1.00006,94.059238,173.36643)" stroke-width=".3985" stroke-linecap="butt" stroke-miterlimit="10" stroke-linejoin="miter" fill="none" stroke="#000000" d="M93.94781 95.68402V93.69977L98.16435 95.68402 93.94781 97.66827Z"/>
<use data-text="i" xlink:href="#font_1_4" transform="matrix(9.963397,0,0,-9.963197,182.3693,72.58938)"/>
<use data-text="e" xlink:href="#font_2_50" transform="matrix(6.974358,0,0,-6.9742186,185.80158,74.084468)"/>
<use data-text="x" xlink:href="#font_2_116" transform="matrix(6.974358,0,0,-6.9742186,189.34458,74.084468)"/>
<use data-text="t" xlink:href="#font_2_105" transform="matrix(6.974358,0,0,-6.9742186,193.52918,74.084468)"/>
<path transform="matrix(1.00008,0,0,-1.00006,94.059238,173.36643)" stroke-width=".3985" stroke-linecap="butt" stroke-miterlimit="10" stroke-linejoin="miter" fill="none" stroke="#000000" d="M127.5645 31.8911"/>
<use data-text="V" xlink:href="#font_1_3" transform="matrix(9.963397,0,0,-9.963197,225.15372,144.13068)"/>
<use data-text="B" xlink:href="#font_3_2" transform="matrix(6.974358,0,0,-6.9742186,230.9652,145.62577)"/>
<path transform="matrix(1.00008,0,0,-1.00006,94.059238,173.36643)" stroke-width=".3985" stroke-linecap="butt" stroke-miterlimit="10" stroke-linejoin="miter" fill="none" stroke="#000000" d="M127.57225 95.6811"/>
<use data-text="V" xlink:href="#font_1_3" transform="matrix(9.963397,0,0,-9.963197,225.16172,80.336849)"/>
<use data-text="A" xlink:href="#font_3_1" transform="matrix(6.974358,0,0,-6.9742186,230.97319,81.83193)"/>
<path transform="matrix(1.00008,0,0,-1.00006,94.059238,173.36643)" stroke-width=".3985" stroke-linecap="butt" stroke-miterlimit="10" stroke-linejoin="miter" fill="none" stroke="#000000" d="M127.5645 63.78127"/>
<use data-text="&#x2206;" xlink:href="#font_4_1" transform="matrix(9.963397,0,0,-9.963197,209.26346,112.220767)"/>
<use data-text="v" xlink:href="#font_1_5" transform="matrix(9.963397,0,0,-9.963197,217.56613,112.220767)"/>
<use data-text="e" xlink:href="#font_5_50" transform="matrix(6.974358,0,0,-6.9742186,222.39551,113.71585)"/>
<use data-text="x" xlink:href="#font_5_116" transform="matrix(6.974358,0,0,-6.9742186,226.0989,113.71585)"/>
<use data-text="t" xlink:href="#font_5_105" transform="matrix(6.974358,0,0,-6.9742186,229.80228,113.71585)"/>
<path transform="matrix(1.00008,0,0,-1.00006,94.059238,173.36643)" stroke-width=".3985" stroke-linecap="butt" stroke-miterlimit="10" stroke-linejoin="miter" fill="none" stroke="#000000" d="M31.89398 21.26105"/>
<use data-text="C" xlink:href="#font_6_42" transform="matrix(9.963397,0,0,-9.963197,86.72465,161.82173)"/>
<use data-text="o" xlink:href="#font_6_81" transform="matrix(9.963397,0,0,-9.963197,91.95544,161.82173)"/>
<use data-text="m" xlink:href="#font_6_75" transform="matrix(9.963397,0,0,-9.963197,97.18621,161.82173)"/>
<use data-text="p" xlink:href="#font_6_84" transform="matrix(9.963397,0,0,-9.963197,102.417,161.82173)"/>
<use data-text="l" xlink:href="#font_6_72" transform="matrix(9.963397,0,0,-9.963197,107.64777,161.82173)"/>
<use data-text="e" xlink:href="#font_6_50" transform="matrix(9.963397,0,0,-9.963197,112.87855,161.82173)"/>
<use data-text="x" xlink:href="#font_6_116" transform="matrix(9.963397,0,0,-9.963197,118.10934,161.82173)"/>
<use data-text="C" xlink:href="#font_6_42" transform="matrix(9.963397,0,0,-9.963197,128.56095,161.82173)"/>
<use data-text="i" xlink:href="#font_6_66" transform="matrix(9.963397,0,0,-9.963197,133.79172,161.82173)"/>
<use data-text="r" xlink:href="#font_6_96" transform="matrix(9.963397,0,0,-9.963197,139.02249,161.82173)"/>
<use data-text="c" xlink:href="#font_6_43" transform="matrix(9.963397,0,0,-9.963197,144.25327,161.82173)"/>
<use data-text="u" xlink:href="#font_6_109" transform="matrix(9.963397,0,0,-9.963197,149.48404,161.82173)"/>
<use data-text="i" xlink:href="#font_6_66" transform="matrix(9.963397,0,0,-9.963197,154.71485,161.82173)"/>
<use data-text="t" xlink:href="#font_6_105" transform="matrix(9.963397,0,0,-9.963197,159.94562,161.82173)"/>
<path transform="matrix(1.00008,0,0,-1.00006,94.059238,173.36643)" stroke-width=".3985" stroke-linecap="butt" stroke-miterlimit="10" stroke-linejoin="miter" fill="none" stroke="#000000" d="M-63.77652-31.8892-63.7804-47.19933M-63.7804-59.10576-63.77652-74.40944"/>
<path transform="matrix(1.00008,0,0,-1.00006,94.059238,173.36643)" stroke-width=".797" stroke-linecap="butt" stroke-miterlimit="10" stroke-linejoin="miter" fill="none" stroke="#000000" d="M-51.8708-47.19647H-75.68224M-57.82367-51.16504H-69.72937M-51.8708-55.1336H-75.68224M-57.82367-59.10217H-69.72937"/>
<use data-text="V" xlink:href="#font_1_3" transform="matrix(9.963397,0,0,-9.963197,1.0437927,228.66974)"/>
<use data-text="t" xlink:href="#font_3_5" transform="matrix(6.974358,0,0,-6.9742186,6.8552706,230.16483)"/>
<use data-text="h" xlink:href="#font_3_3" transform="matrix(6.974358,0,0,-6.9742186,9.861221,230.16483)"/>
<path transform="matrix(1.00008,0,0,-1.00006,94.059238,173.36643)" stroke-width=".3985" stroke-linecap="butt" stroke-miterlimit="10" stroke-linejoin="miter" fill="none" stroke="#000000" d="M-63.77844-31.89017-47.76538-31.89209M-16.01506-31.89209 .00185-31.89017"/>
<path transform="matrix(1.00008,0,0,-1.00006,94.059238,173.36643)" stroke-width=".797" stroke-linecap="butt" stroke-linejoin="bevel" fill="none" stroke="#000000" d="M-48.161-31.89017-45.08359-25.93732-39.72577-37.84302-34.36795-25.93732-29.01015-37.84302-23.65233-25.93732-18.29451-37.84302-15.6156-31.89017"/>
<path transform="matrix(1.00008,0,0,-1.00006,94.059238,173.36643)" d="M1.58899-31.89017C1.58899-31.01361 .8784-30.30302 .00185-30.30302-.8747-30.30302-1.58528-31.01361-1.58528-31.89017-1.58528-32.76674-.8747-33.47733 .00185-33.47733 .8784-33.47733 1.58899-32.76674 1.58899-31.89017ZM.00185-31.89017" fill="#ffffff"/>
<path transform="matrix(1.00008,0,0,-1.00006,94.059238,173.36643)" stroke-width=".3985" stroke-linecap="butt" stroke-miterlimit="10" stroke-linejoin="miter" fill="none" stroke="#000000" d="M1.58899-31.89017C1.58899-31.01361 .8784-30.30302 .00185-30.30302-.8747-30.30302-1.58528-31.01361-1.58528-31.89017-1.58528-32.76674-.8747-33.47733 .00185-33.47733 .8784-33.47733 1.58899-32.76674 1.58899-31.89017ZM.00185-31.89017"/>
<path transform="matrix(1.00008,0,0,-1.00006,94.059238,173.36643)" d="" fill="#ffffff"/>
<path transform="matrix(1.00008,0,0,-1.00006,94.059238,173.36643)" stroke-width=".3985" stroke-linecap="butt" stroke-miterlimit="10" stroke-linejoin="miter" fill="none" stroke="#000000" d=""/>
<use data-text="R" xlink:href="#font_1_2" transform="matrix(9.963397,0,0,-9.963197,54.29605,195.49176)"/>
<use data-text="t" xlink:href="#font_3_5" transform="matrix(6.974358,0,0,-6.9742186,61.860658,196.98685)"/>
<use data-text="h" xlink:href="#font_3_3" transform="matrix(6.974358,0,0,-6.9742186,64.86661,196.98685)"/>
<path transform="matrix(1.00008,0,0,-1.00006,94.059238,173.36643)" d="M-9.74329-31.89305V-33.8773L-5.52675-31.89305-9.74329-29.90878Z"/>
<path transform="matrix(1.00008,0,0,-1.00006,94.059238,173.36643)" stroke-width=".3985" stroke-linecap="butt" stroke-miterlimit="10" stroke-linejoin="miter" fill="none" stroke="#000000" d="M-9.74329-31.89305V-33.8773L-5.52675-31.89305-9.74329-29.90878Z"/>
<use data-text="i" xlink:href="#font_1_4" transform="matrix(9.963397,0,0,-9.963197,78.66701,200.17804)"/>
<use data-text="e" xlink:href="#font_2_50" transform="matrix(6.974358,0,0,-6.9742186,82.09929,201.67313)"/>
<use data-text="x" xlink:href="#font_2_116" transform="matrix(6.974358,0,0,-6.9742186,85.64227,201.67313)"/>
<use data-text="t" xlink:href="#font_2_105" transform="matrix(6.974358,0,0,-6.9742186,89.82689,201.67313)"/>
<path transform="matrix(1.00008,0,0,-1.00006,94.059238,173.36643)" stroke-width=".3985" stroke-linecap="butt" stroke-miterlimit="10" stroke-linejoin="miter" fill="none" stroke="#000000" d="M-63.77844-74.41168-31.89021-74.4162M-31.89021-74.4162 .00185-74.41168"/>
<path transform="matrix(1.00008,0,0,-1.00006,94.059238,173.36643)" d="M1.58899-74.41168C1.58899-73.53513 .8784-72.82454 .00185-72.82454-.8747-72.82454-1.58528-73.53513-1.58528-74.41168-1.58528-75.28825-.8747-75.99883 .00185-75.99883 .8784-75.99883 1.58899-75.28825 1.58899-74.41168ZM.00185-74.41168" fill="#ffffff"/>
<path transform="matrix(1.00008,0,0,-1.00006,94.059238,173.36643)" stroke-width=".3985" stroke-linecap="butt" stroke-miterlimit="10" stroke-linejoin="miter" fill="none" stroke="#000000" d="M1.58899-74.41168C1.58899-73.53513 .8784-72.82454 .00185-72.82454-.8747-72.82454-1.58528-73.53513-1.58528-74.41168-1.58528-75.28825-.8747-75.99883 .00185-75.99883 .8784-75.99883 1.58899-75.28825 1.58899-74.41168ZM.00185-74.41168"/>
<path transform="matrix(1.00008,0,0,-1.00006,94.059238,173.36643)" d="" fill="#ffffff"/>
<path transform="matrix(1.00008,0,0,-1.00006,94.059238,173.36643)" stroke-width=".3985" stroke-linecap="butt" stroke-miterlimit="10" stroke-linejoin="miter" fill="none" stroke="#000000" d=""/>
<path transform="matrix(1.00008,0,0,-1.00006,94.059238,173.36643)" stroke-width=".3985" stroke-linecap="butt" stroke-miterlimit="10" stroke-linejoin="miter" fill="none" stroke="#000000" d="M.00183-74.41396"/>
<use data-text="V" xlink:href="#font_1_3" transform="matrix(9.963397,0,0,-9.963197,97.58152,250.44205)"/>
<use data-text="B" xlink:href="#font_3_2" transform="matrix(6.974358,0,0,-6.9742186,103.393,251.93714)"/>
<path transform="matrix(1.00008,0,0,-1.00006,94.059238,173.36643)" stroke-width=".3985" stroke-linecap="butt" stroke-miterlimit="10" stroke-linejoin="miter" fill="none" stroke="#000000" d="M.00183-31.89113"/>
<use data-text="V" xlink:href="#font_1_3" transform="matrix(9.963397,0,0,-9.963197,97.58152,207.9165)"/>
<use data-text="A" xlink:href="#font_3_1" transform="matrix(6.974358,0,0,-6.9742186,103.393,209.41159)"/>
<path transform="matrix(1.00008,0,0,-1.00006,94.059238,173.36643)" stroke-width=".3985" stroke-linecap="butt" stroke-miterlimit="10" stroke-linejoin="miter" fill="none" stroke="#000000" d="M-31.88829-85.04047"/>
<use data-text="T" xlink:href="#font_6_104" transform="matrix(9.963397,0,0,-9.963197,12.474716,268.0201)"/>
<use data-text="h" xlink:href="#font_6_63" transform="matrix(9.963397,0,0,-9.963197,17.705506,268.0201)"/>
<use data-text="e" xlink:href="#font_6_50" transform="matrix(9.963397,0,0,-9.963197,22.93628,268.0201)"/>
<use data-text="v" xlink:href="#font_6_112" transform="matrix(9.963397,0,0,-9.963197,28.167069,268.0201)"/>
<use data-text="e" xlink:href="#font_6_50" transform="matrix(9.963397,0,0,-9.963197,33.397844,268.0201)"/>
<use data-text="n" xlink:href="#font_6_77" transform="matrix(9.963397,0,0,-9.963197,38.628618,268.0201)"/>
<use data-text="i" xlink:href="#font_6_66" transform="matrix(9.963397,0,0,-9.963197,43.859407,268.0201)"/>
<use data-text="n" xlink:href="#font_6_77" transform="matrix(9.963397,0,0,-9.963197,49.09018,268.0201)"/>
<use data-text="E" xlink:href="#font_6_49" transform="matrix(9.963397,0,0,-9.963197,59.54178,268.0201)"/>
<use data-text="q" xlink:href="#font_6_91" transform="matrix(9.963397,0,0,-9.963197,64.77257,268.0201)"/>
<use data-text="u" xlink:href="#font_6_109" transform="matrix(9.963397,0,0,-9.963197,70.00334,268.0201)"/>
<use data-text="i" xlink:href="#font_6_66" transform="matrix(9.963397,0,0,-9.963197,75.234119,268.0201)"/>
<use data-text="v" xlink:href="#font_6_112" transform="matrix(9.963397,0,0,-9.963197,80.464908,268.0201)"/>
<use data-text="a" xlink:href="#font_6_28" transform="matrix(9.963397,0,0,-9.963197,85.69568,268.0201)"/>
<use data-text="l" xlink:href="#font_6_72" transform="matrix(9.963397,0,0,-9.963197,90.92645,268.0201)"/>
<use data-text="e" xlink:href="#font_6_50" transform="matrix(9.963397,0,0,-9.963197,96.15726,268.0201)"/>
<use data-text="n" xlink:href="#font_6_77" transform="matrix(9.963397,0,0,-9.963197,101.38806,268.0201)"/>
<use data-text="t" xlink:href="#font_6_105" transform="matrix(9.963397,0,0,-9.963197,106.618839,268.0201)"/>
<path transform="matrix(1.00008,0,0,-1.00006,94.059238,173.36643)" stroke-width=".3985" stroke-linecap="butt" stroke-miterlimit="10" stroke-linejoin="miter" fill="none" stroke="#000000" d="M.00183-53.15125"/>
<use data-text="&#x2206;" xlink:href="#font_4_1" transform="matrix(9.963397,0,0,-9.963197,97.58152,229.16077)"/>
<use data-text="v" xlink:href="#font_1_5" transform="matrix(9.963397,0,0,-9.963197,105.88419,229.16077)"/>
<use data-text="e" xlink:href="#font_5_50" transform="matrix(6.974358,0,0,-6.9742186,110.71357,230.65586)"/>
<use data-text="x" xlink:href="#font_5_116" transform="matrix(6.974358,0,0,-6.9742186,114.41697,230.65586)"/>
<use data-text="t" xlink:href="#font_5_105" transform="matrix(6.974358,0,0,-6.9742186,118.12035,230.65586)"/>
<path transform="matrix(1.00008,0,0,-1.00006,94.059238,173.36643)" stroke-width=".3985" stroke-linecap="butt" stroke-miterlimit="10" stroke-linejoin="miter" fill="none" stroke="#000000" d="M63.78416-74.40945 63.78802-65.059M63.78802-41.24611 63.78416-31.88924"/>
<path transform="matrix(1.00008,0,0,-1.00006,94.059238,173.36643)" stroke-width=".797" stroke-linecap="butt" stroke-miterlimit="10" stroke-linejoin="miter" fill="none" stroke="#000000" d="M51.87843-53.14934C51.87843-59.72475 57.20872-65.05505 63.78415-65.05505 70.35957-65.05505 75.68987-59.72475 75.68987-53.14934 75.68987-46.57391 70.35957-41.2436 63.78415-41.2436 57.20872-41.2436 51.87843-46.57391 51.87843-53.14934ZM63.78415-53.14934"/>
<path transform="matrix(1.00008,0,0,-1.00006,94.059238,173.36643)" stroke-width=".797" stroke-linecap="butt" stroke-miterlimit="10" stroke-linejoin="miter" fill="none" stroke="#000000" d="M63.78415-61.48329V-44.81538"/>
<path transform="matrix(1.00008,0,0,-1.00006,94.059238,173.36643)" d="M63.78415-48.9327H65.7684L63.78415-44.71616 61.7999-48.9327Z"/>
<path transform="matrix(1.00008,0,0,-1.00006,94.059238,173.36643)" stroke-width=".797" stroke-linecap="butt" stroke-miterlimit="10" stroke-linejoin="miter" fill="none" stroke="#000000" d="M63.78415-48.9327H65.7684L63.78415-44.71616 61.7999-48.9327Z"/>
<use data-text="I" xlink:href="#font_1_1" transform="matrix(9.963397,0,0,-9.963197,132.80333,228.66974)"/>
<use data-text="n" xlink:href="#font_3_4" transform="matrix(6.974358,0,0,-6.9742186,137.18268,230.16483)"/>
<path transform="matrix(1.00008,0,0,-1.00006,94.059238,173.36643)" stroke-width=".3985" stroke-linecap="butt" stroke-miterlimit="10" stroke-linejoin="miter" fill="none" stroke="#000000" d="M63.7861-74.41171 95.68207-74.41623M95.68207-74.41623 127.56642-74.41171"/>
<path transform="matrix(1.00008,0,0,-1.00006,94.059238,173.36643)" d="M129.15357-74.41171C129.15357-73.53516 128.44298-72.82457 127.56642-72.82457 126.68987-72.82457 125.97928-73.53516 125.97928-74.41171 125.97928-75.28828 126.68987-75.99886 127.56642-75.99886 128.44298-75.99886 129.15357-75.28828 129.15357-74.41171ZM127.56642-74.41171" fill="#ffffff"/>
<path transform="matrix(1.00008,0,0,-1.00006,94.059238,173.36643)" stroke-width=".3985" stroke-linecap="butt" stroke-miterlimit="10" stroke-linejoin="miter" fill="none" stroke="#000000" d="M129.15357-74.41171C129.15357-73.53516 128.44298-72.82457 127.56642-72.82457 126.68987-72.82457 125.97928-73.53516 125.97928-74.41171 125.97928-75.28828 126.68987-75.99886 127.56642-75.99886 128.44298-75.99886 129.15357-75.28828 129.15357-74.41171ZM127.56642-74.41171"/>
<path transform="matrix(1.00008,0,0,-1.00006,94.059238,173.36643)" d="" fill="#ffffff"/>
<path transform="matrix(1.00008,0,0,-1.00006,94.059238,173.36643)" stroke-width=".3985" stroke-linecap="butt" stroke-miterlimit="10" stroke-linejoin="miter" fill="none" stroke="#000000" d=""/>
<path transform="matrix(1.00008,0,0,-1.00006,94.059238,173.36643)" stroke-width=".3985" stroke-linecap="butt" stroke-miterlimit="10" stroke-linejoin="miter" fill="none" stroke="#000000" d="M63.7861-31.89021 79.736-31.89214M79.736-31.89214 95.67625-31.89021 111.6281-31.89214M111.6281-31.89214 127.5664-31.89021"/>
<path transform="matrix(1.00008,0,0,-1.00006,94.059238,173.36643)" d="M129.15355-31.89021C129.15355-31.01366 128.44297-30.30307 127.5664-30.30307 126.68985-30.30307 125.97926-31.01366 125.97926-31.89021 125.97926-32.76678 126.68985-33.47736 127.5664-33.47736 128.44297-33.47736 129.15355-32.76678 129.15355-31.89021ZM127.5664-31.89021" fill="#ffffff"/>
<path transform="matrix(1.00008,0,0,-1.00006,94.059238,173.36643)" stroke-width=".3985" stroke-linecap="butt" stroke-miterlimit="10" stroke-linejoin="miter" fill="none" stroke="#000000" d="M129.15355-31.89021C129.15355-31.01366 128.44297-30.30307 127.5664-30.30307 126.68985-30.30307 125.97926-31.01366 125.97926-31.89021 125.97926-32.76678 126.68985-33.47736 127.5664-33.47736 128.44297-33.47736 129.15355-32.76678 129.15355-31.89021ZM127.5664-31.89021"/>
<path transform="matrix(1.00008,0,0,-1.00006,94.059238,173.36643)" d="" fill="#ffffff"/>
<path transform="matrix(1.00008,0,0,-1.00006,94.059238,173.36643)" stroke-width=".3985" stroke-linecap="butt" stroke-miterlimit="10" stroke-linejoin="miter" fill="none" stroke="#000000" d=""/>
<path transform="matrix(1.00008,0,0,-1.00006,94.059238,173.36643)" d="M109.89189-31.89214V-33.87639L114.10843-31.89214 109.89189-29.90788Z"/>
<path transform="matrix(1.00008,0,0,-1.00006,94.059238,173.36643)" stroke-width=".3985" stroke-linecap="butt" stroke-miterlimit="10" stroke-linejoin="miter" fill="none" stroke="#000000" d="M109.89189-31.89214V-33.87639L114.10843-31.89214 109.89189-29.90788Z"/>
<use data-text="i" xlink:href="#font_1_4" transform="matrix(9.963397,0,0,-9.963197,198.31558,200.17704)"/>
<use data-text="e" xlink:href="#font_2_50" transform="matrix(6.974358,0,0,-6.9742186,201.74787,201.67212)"/>
<use data-text="x" xlink:href="#font_2_116" transform="matrix(6.974358,0,0,-6.9742186,205.29084,201.67212)"/>
<use data-text="t" xlink:href="#font_2_105" transform="matrix(6.974358,0,0,-6.9742186,209.47547,201.67212)"/>
<path transform="matrix(1.00008,0,0,-1.00006,94.059238,173.36643)" stroke-width=".3985" stroke-linecap="butt" stroke-miterlimit="10" stroke-linejoin="miter" fill="none" stroke="#000000" d="M95.67627-31.89021 95.68211-37.27838M95.68211-69.02872 95.67627-74.41043"/>
<path transform="matrix(1.00008,0,0,-1.00006,94.059238,173.36643)" stroke-width=".797" stroke-linecap="butt" stroke-linejoin="bevel" fill="none" stroke="#000000" d="M95.67627-36.87762 101.62912-39.95503 89.72342-45.31285 101.62912-50.67067 89.72342-56.02847 101.62912-61.38629 89.72342-66.74411 95.67627-69.42302"/>
<path transform="matrix(1.00008,0,0,-1.00006,94.059238,173.36643)" d="M97.26343-31.89021C97.26343-31.01366 96.55284-30.30307 95.67627-30.30307 94.79971-30.30307 94.08913-31.01366 94.08913-31.89021 94.08913-32.76678 94.79971-33.47736 95.67627-33.47736 96.55284-33.47736 97.26343-32.76678 97.26343-31.89021ZM95.67627-31.89021"/>
<path transform="matrix(1.00008,0,0,-1.00006,94.059238,173.36643)" stroke-width=".3985" stroke-linecap="butt" stroke-miterlimit="10" stroke-linejoin="miter" fill="none" stroke="#000000" d="M97.26343-31.89021C97.26343-31.01366 96.55284-30.30307 95.67627-30.30307 94.79971-30.30307 94.08913-31.01366 94.08913-31.89021 94.08913-32.76678 94.79971-33.47736 95.67627-33.47736 96.55284-33.47736 97.26343-32.76678 97.26343-31.89021ZM95.67627-31.89021"/>
<path transform="matrix(1.00008,0,0,-1.00006,94.059238,173.36643)" d="M97.26343-74.41043C97.26343-73.53386 96.55284-72.82327 95.67627-72.82327 94.79971-72.82327 94.08913-73.53386 94.08913-74.41043 94.08913-75.28699 94.79971-75.99757 95.67627-75.99757 96.55284-75.99757 97.26343-75.28699 97.26343-74.41043ZM95.67627-74.41043"/>
<path transform="matrix(1.00008,0,0,-1.00006,94.059238,173.36643)" stroke-width=".3985" stroke-linecap="butt" stroke-miterlimit="10" stroke-linejoin="miter" fill="none" stroke="#000000" d="M97.26343-74.41043C97.26343-73.53386 96.55284-72.82327 95.67627-72.82327 94.79971-72.82327 94.08913-73.53386 94.08913-74.41043 94.08913-75.28699 94.79971-75.99757 95.67627-75.99757 96.55284-75.99757 97.26343-75.28699 97.26343-74.41043ZM95.67627-74.41043"/>
<use data-text="R" xlink:href="#font_1_2" transform="matrix(9.963397,0,0,-9.963197,198.44559,228.67075)"/>
<use data-text="n" xlink:href="#font_3_4" transform="matrix(6.974358,0,0,-6.9742186,206.0102,230.16584)"/>
<path transform="matrix(1.00008,0,0,-1.00006,94.059238,173.36643)" stroke-width=".3985" stroke-linecap="butt" stroke-miterlimit="10" stroke-linejoin="miter" fill="none" stroke="#000000" d="M127.5703-74.41397"/>
<use data-text="V" xlink:href="#font_1_3" transform="matrix(9.963397,0,0,-9.963197,225.15972,250.44205)"/>
<use data-text="B" xlink:href="#font_3_2" transform="matrix(6.974358,0,0,-6.9742186,230.97119,251.93714)"/>
<path transform="matrix(1.00008,0,0,-1.00006,94.059238,173.36643)" stroke-width=".3985" stroke-linecap="butt" stroke-miterlimit="10" stroke-linejoin="miter" fill="none" stroke="#000000" d="M127.57028-31.89117"/>
<use data-text="V" xlink:href="#font_1_3" transform="matrix(9.963397,0,0,-9.963197,225.15972,207.9165)"/>
<use data-text="A" xlink:href="#font_3_1" transform="matrix(6.974358,0,0,-6.9742186,230.97119,209.41159)"/>
<path transform="matrix(1.00008,0,0,-1.00006,94.059238,173.36643)" stroke-width=".3985" stroke-linecap="butt" stroke-miterlimit="10" stroke-linejoin="miter" fill="none" stroke="#000000" d="M127.57028-53.15129"/>
<use data-text="&#x2206;" xlink:href="#font_4_1" transform="matrix(9.963397,0,0,-9.963197,225.15972,229.16077)"/>
<use data-text="v" xlink:href="#font_1_5" transform="matrix(9.963397,0,0,-9.963197,233.46239,229.16077)"/>
<use data-text="e" xlink:href="#font_5_50" transform="matrix(6.974358,0,0,-6.9742186,238.29177,230.65586)"/>
<use data-text="x" xlink:href="#font_5_116" transform="matrix(6.974358,0,0,-6.9742186,241.99517,230.65586)"/>
<use data-text="t" xlink:href="#font_5_105" transform="matrix(6.974358,0,0,-6.9742186,245.69855,230.65586)"/>
<path transform="matrix(1.00008,0,0,-1.00006,94.059238,173.36643)" stroke-width=".3985" stroke-linecap="butt" stroke-miterlimit="10" stroke-linejoin="miter" fill="none" stroke="#000000" d="M95.67627-85.04176"/>
<use data-text="N" xlink:href="#font_6_76" transform="matrix(9.963397,0,0,-9.963197,145.28034,268.02113)"/>
<use data-text="o" xlink:href="#font_6_81" transform="matrix(9.963397,0,0,-9.963197,150.51113,268.02113)"/>
<use data-text="r" xlink:href="#font_6_96" transform="matrix(9.963397,0,0,-9.963197,155.7419,268.02113)"/>
<use data-text="t" xlink:href="#font_6_105" transform="matrix(9.963397,0,0,-9.963197,160.97269,268.02113)"/>
<use data-text="o" xlink:href="#font_6_81" transform="matrix(9.963397,0,0,-9.963197,166.20346,268.02113)"/>
<use data-text="n" xlink:href="#font_6_77" transform="matrix(9.963397,0,0,-9.963197,171.43424,268.02113)"/>
<use data-text="E" xlink:href="#font_6_49" transform="matrix(9.963397,0,0,-9.963197,181.88584,268.02113)"/>
<use data-text="q" xlink:href="#font_6_91" transform="matrix(9.963397,0,0,-9.963197,187.11663,268.02113)"/>
<use data-text="u" xlink:href="#font_6_109" transform="matrix(9.963397,0,0,-9.963197,192.3474,268.02113)"/>
<use data-text="i" xlink:href="#font_6_66" transform="matrix(9.963397,0,0,-9.963197,197.57819,268.02113)"/>
<use data-text="v" xlink:href="#font_6_112" transform="matrix(9.963397,0,0,-9.963197,202.80896,268.02113)"/>
<use data-text="a" xlink:href="#font_6_28" transform="matrix(9.963397,0,0,-9.963197,208.03974,268.02113)"/>
<use data-text="l" xlink:href="#font_6_72" transform="matrix(9.963397,0,0,-9.963197,213.27053,268.02113)"/>
<use data-text="e" xlink:href="#font_6_50" transform="matrix(9.963397,0,0,-9.963197,218.5013,268.02113)"/>
<use data-text="n" xlink:href="#font_6_77" transform="matrix(9.963397,0,0,-9.963197,223.73207,268.02113)"/>
<use data-text="t" xlink:href="#font_6_105" transform="matrix(9.963397,0,0,-9.963197,228.96288,268.02113)"/>
</svg>
