<svg xmlns="http://www.w3.org/2000/svg" xmlns:xlink="http://www.w3.org/1999/xlink" xmlns:inkscape="http://www.inkscape.org/namespaces/inkscape" version="1.1" width="459" height="124" viewBox="0 0 459 124">
<defs>
<path id="font_1_3" d="M.6279907 .5686035C.6769867 .64660647 .71899417 .6496124 .7559967 .6516113 .7679901 .65260317 .7689972 .6696167 .7689972 .6706085 .7689972 .6786041 .7639923 .6826172 .7559967 .6826172 .7299957 .6826172 .70098879 .6796112 .673996 .6796112 .6409912 .6796112 .6069946 .6826172 .57499697 .6826172 .56900027 .6826172 .55599978 .6826172 .55599978 .66360476 .55599978 .65260317 .5649872 .6516113 .57199099 .6516113 .598999 .6496124 .6179962 .63960269 .6179962 .61860659 .6179962 .6036072 .6029968 .581604 .6029968 .5805969L.29599 .092544559 .22799683 .62161257C.22799683 .63861086 .25099183 .6516113 .29699708 .6516113 .31098939 .6516113 .32199098 .6516113 .32199098 .6716156 .32199098 .680603 .31399537 .6826172 .30799867 .6826172 .2679901 .6826172 .22499085 .6796112 .18399048 .6796112 .1659851 .6796112 .14698792 .680603 .1289978 .680603 .11099243 .680603 .09199524 .6826172 .07499695 .6826172 .067993167 .6826172 .055999757 .6826172 .055999757 .66360476 .055999757 .6516113 .06498718 .6516113 .08099365 .6516113 .13699341 .6516113 .13798523 .64260867 .14099121 .6175995L.21998596 .0005340576C.22299195-.019470215 .22698975-.022460938 .23999024-.022460938 .2559967-.022460938 .2599945-.017471314 .2679901-.004470825L.6279907 .5686035Z"/>
<path id="font_2_1" d="M.2639923 .66430667C.2649994 .66630557 .2679901 .67930606 .2679901 .68029788 .2679901 .68530276 .2639923 .6943054 .2519989 .6943054 .23199463 .6943054 .14898682 .6863098 .12399292 .6843109 .115997318 .68330386 .101989749 .682312 .101989749 .66130068 .101989749 .64730837 .115997318 .64730837 .12799073 .64730837 .17599488 .64730837 .17599488 .64030459 .17599488 .63230898 .17599488 .62532046 .1659851 .58532717 .1599884 .5623474L.13699341 .4703827C.12799073 .43640138 .07299805 .21731568 .070999149 .20431519 .06599426 .18029785 .06599426 .16729737 .06599426 .1552887 .06599426 .054244996 .12998963-.009765625 .21299744-.009765625 .33799745-.009765625 .47099305 .12626648 .47099305 .27433778 .47099305 .39138795 .3899994 .44140626 .32099916 .44140626 .2689972 .44140626 .22499085 .4123993 .19499207 .38638307L.2639923 .66430667M.21398926 .018234253C.16499329 .018234253 .13699341 .06124878 .13699341 .120269779 .13699341 .1572876 .1459961 .19129944 .17399597 .3043518 .17999268 .32336427 .17999268 .32536317 .19898987 .34736634 .23699951 .39138795 .28199769 .4133911 .31799317 .4133911 .35699464 .4133911 .3909912 .38438417 .3909912 .31636048 .3909912 .27534486 .36898805 .17329407 .33898927 .11526489 .31498719 .06625366 .2649994 .018234253 .21398926 .018234253Z"/>
<path id="font_3_3" d="M.1269989 .07699585 .23298645 .18003845C.3889923 .31811524 .44898988 .3721466 .44898988 .47216798 .44898988 .5860901 .35899354 .6660156 .23699951 .6660156 .12399292 .6660156 .049987794 .57411196 .049987794 .48516847 .049987794 .4291687 .099990848 .4291687 .102996829 .4291687 .11999512 .4291687 .15499878 .44117738 .15499878 .48217774 .15499878 .5081787 .13699341 .5341797 .101989749 .5341797 .09399414 .5341797 .09199524 .5341797 .08898926 .5331726 .11199951 .59806826 .1659851 .63500979 .22399903 .63500979 .31498719 .63500979 .35798646 .5541382 .35798646 .47216798 .35798646 .39215089 .30799867 .31311036 .25299073 .25108338L.06098938 .036987306C.049987794 .025985718 .049987794 .023986817 .049987794 0H.42099L.44898988 .17404175H.42399598C.4189911 .14402771 .4119873 .1000061 .4019928 .084991458 .394989 .07699585 .32899476 .07699585 .30699159 .07699585H.1269989Z"/>
<path id="font_3_5" d="M.2939911 .16503906V.07800293C.2939911 .041992189 .2919922 .0309906 .21798706 .0309906H.19699097V0C.23799134 .0029907227 .2899933 .0029907227 .33198548 .0029907227 .37399293 .0029907227 .4269867 .0029907227 .46798707 0V.0309906H.44699098C.37298585 .0309906 .37098695 .041992189 .37098695 .07800293V.16503906H.47099305V.19602967H.37098695V.65075686C.37098695 .67074587 .37098695 .6767578 .35499574 .6767578 .34599305 .6767578 .34298707 .6767578 .33499146 .66474917L.027999878 .19602967V.16503906H.2939911M.2999878 .19602967H.055999757L.2999878 .5688019V.19602967Z"/>
<path id="font_3_7" d="M.62098696 .58461C.6349945 .62161257 .6619873 .65060427 .7299957 .6516113V.6826172C.69898989 .680603 .6589966 .6796112 .6329956 .6796112 .6029968 .6796112 .54499819 .6816101 .5189972 .6826172V.6516113C.57099917 .65060427 .59199526 .6246033 .59199526 .6016083 .59199526 .5935974 .58898928 .5876007 .58699038 .581604L.4039917 .09954834 .21299744 .604599C.20698548 .61860659 .20698548 .62060549 .20698548 .62260439 .20698548 .6516113 .2639923 .6516113 .2889862 .6516113V.6826172C.25299073 .6796112 .18399048 .6796112 .1459961 .6796112 .09799194 .6796112 .054992677 .6816101 .018997193 .6826172V.6516113C.083999637 .6516113 .102996829 .6516113 .116989139 .6136017L.34899903-.00047302247C.35598756-.019470215 .36099244-.022460938 .37399293-.022460938 .3909912-.022460938 .3929901-.017471314 .397995-.0034637452L.62098696 .58461Z"/>
<path id="font_1_2" d="M.375 .6136017C.3809967 .63760378 .38398744 .6476135 .40299989 .65060427 .4119873 .6516113 .44400025 .6516113 .46398927 .6516113 .5349884 .6516113 .6459961 .6516113 .6459961 .5525818 .6459961 .51856997 .6299896 .44955445 .59098818 .41055299 .5649872 .38453675 .5119934 .35253907 .42199708 .35253907H.30999757L.375 .6136017M.5189972 .33953858C.6199951 .3615265 .7389984 .43154908 .7389984 .5325775 .7389984 .61860659 .6489868 .6826172 .5179901 .6826172H.23298645C.21299744 .6826172 .20399475 .6826172 .20399475 .6626129 .20399475 .6516113 .21299744 .6516113 .23199463 .6516113 .23399353 .6516113 .25299073 .6516113 .269989 .6496124 .28799439 .6476135 .29699708 .64660647 .29699708 .63360598 .29699708 .62960818 .29599 .6266022 .29299928 .6145935L.15899658 .07752991C.14898682 .038528444 .14698792 .030532837 .067993167 .030532837 .049987794 .030532837 .040985109 .030532837 .040985109 .010528564 .040985109-.00047302247 .052993776-.00047302247 .054992677-.00047302247 .08299255-.00047302247 .15299988 .002532959 .18099976 .002532959 .20899964 .002532959 .27999879-.00047302247 .30799867-.00047302247 .31599427-.00047302247 .32798768-.00047302247 .32798768 .01953125 .32798768 .030532837 .31900025 .030532837 .2999878 .030532837 .2630005 .030532837 .23498535 .030532837 .23498535 .048538209 .23498535 .054534913 .23699951 .059524537 .23799134 .0655365L.3039856 .3305359H.4229889C.5139923 .3305359 .5319977 .27453614 .5319977 .23953247 .5319977 .22453308 .5239868 .19352722 .5179901 .17053223 .5109863 .14253235 .5019989 .105529788 .5019989 .08552551 .5019989-.022460938 .621994-.022460938 .6349945-.022460938 .7200012-.022460938 .7549896 .07853699 .7549896 .0925293 .7549896 .104537967 .74398806 .104537967 .7429962 .104537967 .73399356 .104537967 .7319946 .09753418 .7299957 .090530399 .7049866 .016525269 .6619873-.00047302247 .6389923-.00047302247 .60598757-.00047302247 .598999 .021530152 .598999 .060531618 .598999 .091537479 .6049957 .14253235 .60899356 .17453003 .61099246 .1885376 .61299136 .20753479 .61299136 .2215271 .61299136 .2985382 .54599 .3295288 .5189972 .33953858Z"/>
<path id="font_4_1" d="M.33499146 .63612368C.33499146 .6630554 .33299256 .6640625 .30499269 .6640625 .24099732 .6014404 .1499939 .6004486 .10899353 .6004486V.5644531C.1329956 .5644531 .19898987 .5644531 .2539978 .592453V.08203125C.2539978 .04899597 .2539978 .035995485 .1539917 .035995485H.115997318V0C.13398743 .0009918213 .25698854 .0039978029 .2939911 .0039978029 .32499696 .0039978029 .45098878 .0009918213 .47299195 0V.035995485H.43499757C.33499146 .035995485 .33499146 .04899597 .33499146 .08203125V.63612368Z"/>
<path id="font_3_4" d="M.2899933 .35191346C.37199403 .37893678 .42999269 .4490509 .42999269 .52809146 .42999269 .6100464 .34199525 .6660156 .24598694 .6660156 .14498902 .6660156 .068984989 .60606387 .068984989 .53009036 .068984989 .49710084 .09098816 .47808839 .11999512 .47808839 .15098572 .47808839 .17098999 .50009158 .17098999 .5290985 .17098999 .57910159 .12399292 .57910159 .10899353 .57910159 .13999939 .62802127 .20599365 .64100649 .24198914 .64100649 .2829895 .64100649 .33799745 .6190338 .33799745 .5290985 .33799745 .51708987 .33599855 .45906068 .30999757 .4149933 .27999879 .36691285 .24598694 .36390687 .22099304 .36291505 .21299744 .36190797 .18899536 .35990907 .18199158 .35990907 .17399597 .35890199 .16699219 .35791017 .16699219 .3479004 .16699219 .33691407 .17399597 .33691407 .19099427 .33691407H.23498535C.31698609 .33691407 .35398866 .2686615 .35398866 .17037964 .35398866 .034469606 .2849884 .0055389406 .24099732 .0055389406 .19799805 .0055389406 .12298584 .022491456 .08799744 .08137512 .12298584 .07637024 .1539917 .09837341 .1539917 .1363678 .1539917 .17237854 .1269989 .19238281 .09799194 .19238281 .07398987 .19238281 .041992189 .17837525 .041992189 .1343689 .041992189 .043441774 .1349945-.022460938 .24398804-.022460938 .3659973-.022460938 .45700074 .06838989 .45700074 .17037964 .45700074 .252594 .3939972 .33088685 .2899933 .35191346Z"/>
<path id="font_3_8" d="M.10598755 .07595825C.10598755 .0309906 .09498596 .0309906 .027999878 .0309906V0C.06098938 .0009918213 .10798645 .0029907227 .13699341 .0029907227 .16699219 .0029907227 .20698548 .0019989014 .24699402 0V.0309906C.17999268 .0309906 .16899109 .0309906 .16899109 .07595825V.17886353L.23298645 .23381043C.30999757 .12789917 .35198976 .07196045 .35198976 .053970338 .35198976 .034988405 .33499146 .0309906 .31599427 .0309906V0C.34399415 .0009918213 .40299989 .0029907227 .42399598 .0029907227 .45298768 .0029907227 .48199464 .0019989014 .5109863 0V.0309906C.47399903 .0309906 .45199586 .0309906 .4139862 .0839386L.2869873 .26278688C.28599549 .26478578 .2809906 .2707672 .2809906 .2737732 .2809906 .277771 .35198976 .33770753 .3619995 .34570313 .4249878 .39666749 .46699525 .39865113 .48799134 .3996582V.43066407C.45899964 .42765809 .44599916 .42765809 .41799928 .42765809 .38198854 .42765809 .31999208 .42965699 .30599977 .43066407V.3996582C.32499696 .39865113 .33499146 .3876648 .33499146 .37467958 .33499146 .3547058 .32099916 .3427124 .31298829 .33570863L.17199707 .21382141V.69433596L.027999878 .68333438V.6523285C.09799194 .6523285 .10598755 .64530947 .10598755 .5961609V.07595825Z"/>
<path id="font_3_1" d="M.6769867 .16200257H.6519928C.6469879 .13600159 .6429901 .11299133 .6339874 .08898926 .6289978 .07299805 .6259918 .06498718 .56799319 .06498718H.48799134C.5009918 .1210022 .5319977 .16900635 .57699587 .23501587 .6239929 .306015 .6649933 .37503053 .6649933 .45404054 .6649933 .59306338 .5299988 .7050781 .36099244 .7050781 .18899536 .7050781 .055999757 .5910492 .055999757 .45404054 .055999757 .37503053 .09700012 .306015 .14399719 .23501587 .18798828 .16900635 .21998596 .1210022 .23298645 .06498718H.15299988C.09498596 .06498718 .09199524 .07299805 .08699036 .08799744 .07899475 .11099243 .07398987 .13700867 .068984989 .16200257H.04399109L.07699585 0H.23699951C.25898744 0 .2619934 0 .2619934 .020996094 .2619934 .09098816 .23098755 .17900086 .20799256 .24301148 .18699646 .3010254 .15899658 .3800354 .15899658 .45503236 .15899658 .6150665 .2689972 .68307498 .3600006 .68307498 .45599366 .68307498 .56199648 .61105349 .56199648 .45503236 .56199648 .3800354 .5349884 .3040161 .5059967 .22201538 .4909973 .18000794 .45899964 .08999634 .45899964 .020996094 .45899964 0 .46199037 0 .4850006 0H.6439972L.6769867 .16200257Z"/>
<path id="font_1_1" d="M.37399293 .6056366C.3829956 .6416168 .38598634 .6516113 .46499635 .6516113 .4889984 .6516113 .49699403 .6516113 .49699403 .6706085 .49699403 .6826172 .48599244 .6826172 .48199464 .6826172 .45298768 .6826172 .3789978 .6796112 .34999085 .6796112 .31999208 .6796112 .24699402 .6826172 .21699524 .6826172 .20999146 .6826172 .19699097 .6826172 .19699097 .6626129 .19699097 .6516113 .20599365 .6516113 .22499085 .6516113 .2669983 .6516113 .2939911 .6516113 .2939911 .63261416 .2939911 .6276245 .2939911 .6256256 .2919922 .6166229L.15699768 .07795715C.147995 .040985109 .14498902 .0309906 .06599426 .0309906 .042999269 .0309906 .033996583 .0309906 .033996583 .010986328 .033996583 0 .04598999 0 .04899597 0 .07798767 0 .15098572 .0029907227 .17999268 .0029907227 .20999146 .0029907227 .28399659 0 .31399537 0 .32199098 0 .33399964 0 .33399964 .018997193 .33399964 .0309906 .32598878 .0309906 .3039856 .0309906 .28599549 .0309906 .2809906 .0309906 .26098634 .032989503 .23999024 .034988405 .23599243 .038986207 .23599243 .049987794 .23599243 .05796814 .23799134 .065963748 .23999024 .07296753L.37399293 .6056366Z"/>
<path id="font_4_2" d="M.5049896 .18203736H.47099305C.46798707 .16001892 .45799256 .100997928 .44499208 .09098816 .43699647 .084991458 .3600006 .084991458 .34599305 .084991458H.1619873C.2669983 .17803955 .3019867 .20603943 .3619995 .25306703 .43598939 .312088 .5049896 .374115 .5049896 .46914674 .5049896 .5900879 .39898683 .6640625 .2709961 .6640625 .14698792 .6640625 .06298828 .57710269 .06298828 .4851532 .06298828 .43414308 .10598755 .42915345 .115997318 .42915345 .13999939 .42915345 .16899109 .44615174 .16899109 .48214723 .16899109 .5001526 .1619873 .53515627 .10998535 .53515627 .14099121 .6060791 .20899964 .62805178 .2559967 .62805178 .35598756 .62805178 .4079895 .5501404 .4079895 .46914674 .4079895 .38212586 .34599305 .3130951 .31399537 .27708436L.07299805 .038986207C.06298828 .02999878 .06298828 .027999878 .06298828 0H.47499085L.5049896 .18203736Z"/>
<path id="font_3_2" d="M.2939911 .64004519C.2939911 .66400149 .2939911 .6660156 .2709961 .6660156 .20899964 .60227969 .12098694 .60227969 .08898926 .60227969V.57128909C.10899353 .57128909 .16799927 .57128909 .21998596 .5972748V.07902527C.21998596 .042999269 .21699524 .0309906 .1269989 .0309906H.09498596V0C.12998963 .0029907227 .21699524 .0029907227 .25698854 .0029907227 .29699708 .0029907227 .38398744 .0029907227 .4189911 0V.0309906H.3869934C.29699708 .0309906 .2939911 .041992189 .2939911 .07902527V.64004519Z"/>
<path id="font_4_4" d="M.5289917 .1640625V.20005799H.41799928V.64582827C.41799928 .66682437 .41799928 .6738281 .3959961 .6738281 .38398744 .6738281 .37998963 .6738281 .36999513 .65982058L.038986207 .20005799V.1640625H.33299256V.08201599C.33299256 .04800415 .33299256 .035995485 .2519989 .035995485H.22499085V0C.2749939 .0019989014 .33898927 .0039978029 .375 .0039978029 .4119873 .0039978029 .47599793 .0019989014 .526001 0V.035995485H.49899293C.41799928 .035995485 .41799928 .04800415 .41799928 .08201599V.1640625H.5289917M.33999635 .5658722V.20005799H.07598877L.33999635 .5658722Z"/>
<path id="font_3_6" d="M.44898988 .20022583C.44898988 .3193512 .36698915 .41944886 .25898744 .41944886 .21099854 .41944886 .16799927 .40345765 .13198853 .36842347V.5637665C.1519928 .5577698 .18499756 .55078127 .21699524 .55078127 .33999635 .55078127 .4099884 .6417694 .4099884 .6547699 .4099884 .6607666 .40699769 .6657715 .3999939 .6657715 .39898683 .6657715 .39698792 .6657715 .3919983 .66278079 .37199403 .6537781 .32299806 .6337738 .2559967 .6337738 .21598816 .6337738 .16999817 .6407776 .12298584 .6617737 .114990238 .66477969 .11299133 .66477969 .11099243 .66477969 .100997928 .66477969 .100997928 .6567688 .100997928 .6407776V.34439088C.100997928 .32637025 .100997928 .31835938 .114990238 .31835938 .12199402 .31835938 .12399292 .32136537 .12799073 .32736207 .13899231 .3433838 .17599488 .39746095 .25698854 .39746095 .30899049 .39746095 .33399964 .35139466 .34199525 .33337403 .35798646 .29632569 .3600006 .25727845 .3600006 .20722962 .3600006 .17222595 .3600006 .11222839 .33599855 .07035828 .31199647 .031463624 .2749939 .0055389406 .22898865 .0055389406 .1559906 .0055389406 .09899902 .058380128 .08198547 .11723328 .084991458 .1162262 .08799744 .115234378 .09899902 .115234378 .13198853 .115234378 .14898682 .14022827 .14898682 .16423035 .14898682 .18823242 .13198853 .21322632 .09899902 .21322632 .084991458 .21322632 .049987794 .20622254 .049987794 .16023255 .049987794 .07434082 .11898804-.022460938 .23098755-.022460938 .34700013-.022460938 .44898988 .073349 .44898988 .20022583Z"/>
<path id="font_4_3" d="M.272995 .33428956C.35099793 .33428956 .40699769 .2803192 .40699769 .1733551 .40699769 .04940796 .33499146 .012466431 .2769928 .012466431 .23699951 .012466431 .14898682 .0234375 .10699463 .082351688 .1539917 .084350589 .16499329 .11735535 .16499329 .13835144 .16499329 .17034912 .14099121 .19335938 .10998535 .19335938 .08198547 .19335938 .053985597 .17634583 .053985597 .13534546 .053985597 .041412355 .1579895-.01953125 .2789917-.01953125 .41799928-.01953125 .5139923 .07336426 .5139923 .1733551 .5139923 .2513275 .44999696 .32929994 .33999635 .35229493 .44499208 .39024354 .48298646 .4650879 .48298646 .5260773 .48298646 .60505679 .3919983 .6640625 .2809906 .6640625 .16999817 .6640625 .084991458 .61006167 .084991458 .5300751 .084991458 .49606324 .10699463 .47706605 .13699341 .47706605 .16799927 .47706605 .18798828 .5000763 .18798828 .5280762 .18798828 .5570679 .16799927 .57806399 .13699341 .5800781 .17199707 .62405398 .24099732 .63505557 .27799989 .63505557 .32299806 .63505557 .38598634 .6130676 .38598634 .5260773 .38598634 .48406983 .37199403 .43814088 .34599305 .4072113 .31298829 .36927796 .2849884 .3672943 .23498535 .36428834 .20999146 .3623047 .20799256 .3623047 .20298767 .3612976 .20098877 .3612976 .19299317 .3592987 .19299317 .34829713 .19299317 .33428956 .20199585 .33428956 .21899414 .33428956H.272995Z"/>
<path id="font_5_27" d="M.71699526 0V.0309906H.69898989C.6389923 .0309906 .625 .037979127 .6139984 .07095337L.397995 .6958008C.3929901 .7088165 .3909912 .7158203 .375 .7158203 .35899354 .7158203 .35598756 .70980837 .35099793 .6958008L.14399719 .09791565C.12599182 .04698181 .085998538 .03199768 .03199768 .0309906V0L.13398743 .0029907227 .24899292 0V.0309906C.19898987 .0309906 .17399597 .05596924 .17399597 .0819397 .17399597 .08493042 .1749878 .09492493 .17599488 .09692383L.22200012 .2277832H.46899415L.5219879 .07495117C.522995 .07095337 .5249939 .064956668 .5249939 .060958864 .5249939 .0309906 .46899415 .0309906 .44198609 .0309906V0C.47799684 .0029907227 .5479889 .0029907227 .58599856 .0029907227L.71699526 0M.45799256 .25878907H.23298645L.34498597 .58380129 .45799256 .25878907Z"/>
<path id="font_5_34" d="M.651001 .18289185C.651001 .26983644 .56900027 .34480287 .45799256 .35679627 .5549927 .3757782 .6239929 .43974305 .6239929 .51368716 .6239929 .6006317 .5319977 .6826172 .4019928 .6826172H.035995485V.6516113H.05999756C.13699341 .6516113 .13899231 .64060977 .13899231 .6046295V.07795715C.13899231 .041992189 .13699341 .0309906 .05999756 .0309906H.035995485V0H.42799378C.5609894-.0002593994 .651001 .08874512 .651001 .18273926V.18289185M.5269928 .5136719C.5269928 .44970704 .47799684 .36573792 .36698915 .36573792H.22200012V.6116333C.22200012 .64460757 .22399903 .6516113 .2709961 .6516113H.394989C.49198915 .65174868 .5269928 .56674197 .5269928 .51374819V.5136719M.5509949 .18386841C.5509949 .1129303 .49899293 .0309906 .3959961 .0309906H.2709961C.22399903 .0309906 .22200012 .037994386 .22200012 .07095337V.34375H.4099884C.5089874 .34399415 .5509949 .25099183 .5509949 .18399048V.18386841Z"/>
<path id="font_6_105" d="M.375 .12606812V.1809845H.34098817V.12705994C.34098817 .059173585 .30899049 .022232056 .269989 .022232056 .20098877 .022232056 .20098877 .10609436 .20098877 .124069217V.39465333H.35699464V.43066407H.20098877V.6142578H.16699219C.1659851 .5244446 .125 .42565919 .0289917 .4226532V.39465333H.12199402V.1250763C.12199402 .01322937 .20599365-.009765625 .2619934-.009765625 .32899476-.010009766 .375 .04699707 .375 .12599182V.12606812Z"/>
<path id="font_6_81" d="M.5289917 .21325684C.5289917 .3382721 .42199708 .44628907 .28399659 .44628907 .1459961 .44628907 .038986207 .3382721 .038986207 .21325684 .038986207 .0892334 .14898682-.009765625 .28399659-.009765625 .4189911-.009765625 .5289917 .0892334 .5289917 .21325684M.43798829 .22225952C.43798829 .17424011 .43499757 .12124634 .4059906 .08023071 .3789978 .042236329 .33299256 .022232056 .28399659 .022232056 .24699402 .022232056 .19299317 .034225465 .1599884 .083236698 .1329956 .12423706 .12998963 .17625427 .12998963 .22225952 .12998963 .2652588 .1309967 .32426454 .1659851 .36727906 .19099427 .39627076 .23298645 .41827394 .28399659 .41827394 .34298707 .41827394 .3849945 .39027406 .40699769 .3592682 .43499757 .32026673 .43798829 .27026368 .43798829 .22225952Z"/>
</defs>
<path transform="matrix(1.00003,0,0,-1.00002,13.2018589,103.97682)" stroke-width=".3985" stroke-linecap="butt" stroke-miterlimit="10" stroke-linejoin="miter" fill="none" stroke="#000000" d="M0 0"/>
<path transform="matrix(1.00003,0,0,-1.00002,13.2018589,103.97682)" stroke-width=".3985" stroke-linecap="butt" stroke-miterlimit="10" stroke-linejoin="miter" fill="none" stroke="#000000" d="M0 85.04042"/>
<path transform="matrix(1.00003,0,0,-1.00002,13.2018589,103.97682)" stroke-width=".3985" stroke-linecap="butt" stroke-miterlimit="10" stroke-linejoin="miter" fill="none" stroke="#000000" d="M0 85.043V48.47728M0 36.57085V0"/>
<path transform="matrix(1.00003,0,0,-1.00002,13.2018589,103.97682)" stroke-width=".797" stroke-linecap="butt" stroke-miterlimit="10" stroke-linejoin="miter" fill="none" stroke="#000000" d="M11.90572 48.47435H-11.90572M5.95285 44.50578H-5.95285M11.90572 40.5372H-11.90572M5.95285 36.56863H-5.95285"/>
<use data-text="V" xlink:href="#font_1_3" transform="matrix(9.962899,0,0,-9.962799,35.14952,57.521898)"/>
<use data-text="b" xlink:href="#font_2_1" transform="matrix(6.9740097,0,0,-6.97394,40.960695,59.01593)"/>
<use data-text="2" xlink:href="#font_3_3" transform="matrix(9.962899,0,0,-9.962799,30.438378,69.477138)"/>
<use data-text="4" xlink:href="#font_3_5" transform="matrix(9.962899,0,0,-9.962799,35.419824,69.477138)"/>
<use data-text="V" xlink:href="#font_3_7" transform="matrix(9.962899,0,0,-9.962799,42.055116,69.477138)"/>
<path transform="matrix(1.00003,0,0,-1.00002,13.2018589,103.97682)" stroke-width=".3985" stroke-linecap="butt" stroke-miterlimit="10" stroke-linejoin="miter" fill="none" stroke="#000000" d="M0 85.043 26.64761 85.04816M58.39793 85.04816 85.04042 85.043 85.0456 58.40054M85.0456 26.65019 85.04042 .00258 58.3977 .0015M26.64784 .00104 0 0"/>
<path transform="matrix(1.00003,0,0,-1.00002,13.2018589,103.97682)" stroke-width=".797" stroke-linecap="butt" stroke-linejoin="bevel" fill="none" stroke="#000000" d="M26.2475 85.04298 29.2917 90.99585 34.58308 79.09013 39.87447 90.99585 45.16585 79.09013 50.45723 90.99585 55.74861 79.09013 58.7928 85.04298"/>
<use data-text="R" xlink:href="#font_1_2" transform="matrix(9.962899,0,0,-9.962799,49.709955,9.1549229)"/>
<use data-text="1" xlink:href="#font_4_1" transform="matrix(6.9740097,0,0,-6.97394,57.274187,10.649956)"/>
<use data-text="3" xlink:href="#font_3_4" transform="matrix(9.962899,0,0,-9.962799,46.17785,35.991464)"/>
<use data-text="k" xlink:href="#font_3_8" transform="matrix(9.962899,0,0,-9.962799,52.81314,35.991464)"/>
<use data-text="&#x2126;" xlink:href="#font_3_1" transform="matrix(9.962899,0,0,-9.962799,58.06359,35.991464)"/>
<path transform="matrix(1.00003,0,0,-1.00002,13.2018589,103.97682)" d="M69.9873 85.05077V83.06651L74.20384 85.05077 69.9873 87.03502Z"/>
<path transform="matrix(1.00003,0,0,-1.00002,13.2018589,103.97682)" stroke-width=".3985" stroke-linecap="butt" stroke-miterlimit="10" stroke-linejoin="miter" fill="none" stroke="#000000" d="M69.9873 85.05077V83.06651L74.20384 85.05077 69.9873 87.03502Z"/>
<use data-text="I" xlink:href="#font_1_1" transform="matrix(9.962899,0,0,-9.962799,80.50488,13.907021)"/>
<use data-text="1" xlink:href="#font_4_1" transform="matrix(6.9740097,0,0,-6.97394,84.88401,15.402054)"/>
<path transform="matrix(1.00003,0,0,-1.00002,13.2018589,103.97682)" stroke-width=".797" stroke-linecap="butt" stroke-linejoin="bevel" fill="none" stroke="#000000" d="M85.04042 58.79549 90.99327 55.75128 79.08757 50.4599 90.99327 45.16852 79.08757 39.87714 90.99327 34.58575 79.08757 29.29437 85.04042 26.25018"/>
<path transform="matrix(1.00003,0,0,-1.00002,13.2018589,103.97682)" d="M86.62756 85.043C86.62756 85.91957 85.91698 86.63016 85.04042 86.63016 84.16386 86.63016 83.45328 85.91957 83.45328 85.043 83.45328 84.16644 84.16386 83.45586 85.04042 83.45586 85.91698 83.45586 86.62756 84.16644 86.62756 85.043ZM85.04042 85.043"/>
<path transform="matrix(1.00003,0,0,-1.00002,13.2018589,103.97682)" stroke-width=".3985" stroke-linecap="butt" stroke-miterlimit="10" stroke-linejoin="miter" fill="none" stroke="#000000" d="M86.62756 85.043C86.62756 85.91957 85.91698 86.63016 85.04042 86.63016 84.16386 86.63016 83.45328 85.91957 83.45328 85.043 83.45328 84.16644 84.16386 83.45586 85.04042 83.45586 85.91698 83.45586 86.62756 84.16644 86.62756 85.043ZM85.04042 85.043"/>
<path transform="matrix(1.00003,0,0,-1.00002,13.2018589,103.97682)" d="M86.62756 .00258C86.62756 .87914 85.91698 1.58972 85.04042 1.58972 84.16386 1.58972 83.45328 .87914 83.45328 .00258 83.45328-.87396 84.16386-1.58455 85.04042-1.58455 85.91698-1.58455 86.62756-.87396 86.62756 .00258ZM85.04042 .00258"/>
<path transform="matrix(1.00003,0,0,-1.00002,13.2018589,103.97682)" stroke-width=".3985" stroke-linecap="butt" stroke-miterlimit="10" stroke-linejoin="miter" fill="none" stroke="#000000" d="M86.62756 .00258C86.62756 .87914 85.91698 1.58972 85.04042 1.58972 84.16386 1.58972 83.45328 .87914 83.45328 .00258 83.45328-.87396 84.16386-1.58455 85.04042-1.58455 85.91698-1.58455 86.62756-.87396 86.62756 .00258ZM85.04042 .00258"/>
<use data-text="R" xlink:href="#font_1_2" transform="matrix(9.962899,0,0,-9.962799,71.99563,57.520898)"/>
<use data-text="2" xlink:href="#font_4_2" transform="matrix(6.9740097,0,0,-6.97394,79.56085,59.01493)"/>
<use data-text="1" xlink:href="#font_3_2" transform="matrix(9.962899,0,0,-9.962799,68.46452,69.476139)"/>
<use data-text="k" xlink:href="#font_3_8" transform="matrix(9.962899,0,0,-9.962799,75.099819,69.476139)"/>
<use data-text="&#x2126;" xlink:href="#font_3_1" transform="matrix(9.962899,0,0,-9.962799,80.35026,69.476139)"/>
<path transform="matrix(1.00003,0,0,-1.00002,13.2018589,103.97682)" d="M85.04816 73.46234H83.0639L85.04816 69.24579 87.03241 73.46234Z"/>
<path transform="matrix(1.00003,0,0,-1.00002,13.2018589,103.97682)" stroke-width=".3985" stroke-linecap="butt" stroke-miterlimit="10" stroke-linejoin="miter" fill="none" stroke="#000000" d="M85.04816 73.46234H83.0639L85.04816 69.24579 87.03241 73.46234Z"/>
<use data-text="I" xlink:href="#font_1_1" transform="matrix(9.962899,0,0,-9.962799,85.88604,34.903444)"/>
<use data-text="2" xlink:href="#font_4_2" transform="matrix(6.9740097,0,0,-6.97394,90.26517,36.398477)"/>
<path transform="matrix(1.00003,0,0,-1.00002,13.2018589,103.97682)" stroke-width=".797" stroke-linecap="butt" stroke-linejoin="bevel" fill="none" stroke="#000000" d="M58.79263 .00151 55.74857-5.95128 50.45712 5.95413 45.16597-5.95145 39.87453 5.954 34.58337-5.95158 29.29193 5.95383 26.24785 .00102"/>
<use data-text="R" xlink:href="#font_1_2" transform="matrix(9.962899,0,0,-9.962799,49.708955,121.04016)"/>
<use data-text="4" xlink:href="#font_4_4" transform="matrix(6.9740097,0,0,-6.97394,57.273187,122.535198)"/>
<use data-text="5" xlink:href="#font_3_6" transform="matrix(9.962899,0,0,-9.962799,46.178853,94.20563)"/>
<use data-text="k" xlink:href="#font_3_8" transform="matrix(9.962899,0,0,-9.962799,52.814146,94.20563)"/>
<use data-text="&#x2126;" xlink:href="#font_3_1" transform="matrix(9.962899,0,0,-9.962799,58.064596,94.20563)"/>
<path transform="matrix(1.00003,0,0,-1.00002,13.2018589,103.97682)" d="M73.4596 .00203 73.45958 1.98625 69.24313 .00198 73.45961-1.98218Z"/>
<path transform="matrix(1.00003,0,0,-1.00002,13.2018589,103.97682)" stroke-width=".3985" stroke-linecap="butt" stroke-miterlimit="10" stroke-linejoin="miter" fill="none" stroke="#000000" d="M73.4596 .00203 73.45958 1.98625 69.24313 .00198 73.45961-1.98218Z"/>
<use data-text="I" xlink:href="#font_1_1" transform="matrix(9.962899,0,0,-9.962799,80.50488,98.960727)"/>
<use data-text="1" xlink:href="#font_4_1" transform="matrix(6.9740097,0,0,-6.97394,84.88401,100.45576)"/>
<path transform="matrix(1.00003,0,0,-1.00002,13.2018589,103.97682)" stroke-width=".3985" stroke-linecap="butt" stroke-miterlimit="10" stroke-linejoin="miter" fill="none" stroke="#000000" d="M85.043 85.0456 116.94026 85.05077M116.94026 85.05077 148.82334 85.0456 148.8324 58.40314M148.8324 26.6528 148.82334 .00516 116.94026 .00388M116.94026 .00388 85.043 .00256"/>
<path transform="matrix(1.00003,0,0,-1.00002,13.2018589,103.97682)" d="M115.20407 85.05077V83.06651L119.42061 85.05077 115.20407 87.03502Z"/>
<path transform="matrix(1.00003,0,0,-1.00002,13.2018589,103.97682)" stroke-width=".3985" stroke-linecap="butt" stroke-miterlimit="10" stroke-linejoin="miter" fill="none" stroke="#000000" d="M115.20407 85.05077V83.06651L119.42061 85.05077 115.20407 87.03502Z"/>
<use data-text="I" xlink:href="#font_1_1" transform="matrix(9.962899,0,0,-9.962799,125.724239,29.249329)"/>
<use data-text="3" xlink:href="#font_4_3" transform="matrix(6.9740097,0,0,-6.97394,130.10337,30.744362)"/>
<path transform="matrix(1.00003,0,0,-1.00002,13.2018589,103.97682)" stroke-width=".797" stroke-linecap="butt" stroke-linejoin="bevel" fill="none" stroke="#000000" d="M148.82334 58.79808 154.77619 55.75389 142.87049 50.46251 154.77619 45.17113 142.87049 39.87973 154.77619 34.58835 142.87049 29.29697 148.82334 26.25278"/>
<use data-text="R" xlink:href="#font_1_2" transform="matrix(9.962899,0,0,-9.962799,135.78455,57.517896)"/>
<use data-text="3" xlink:href="#font_4_3" transform="matrix(6.9740097,0,0,-6.97394,143.34976,59.01193)"/>
<use data-text="2" xlink:href="#font_3_3" transform="matrix(9.962899,0,0,-9.962799,132.25345,69.47313)"/>
<use data-text="k" xlink:href="#font_3_8" transform="matrix(9.962899,0,0,-9.962799,138.88874,69.47313)"/>
<use data-text="&#x2126;" xlink:href="#font_3_1" transform="matrix(9.962899,0,0,-9.962799,144.13918,69.47313)"/>
<path transform="matrix(1.00003,0,0,-1.00002,13.2018589,103.97682)" stroke-width=".3985" stroke-linecap="butt" stroke-miterlimit="10" stroke-linejoin="miter" fill="none" stroke="#000000" d="M85.043 85.0456"/>
<use data-text="A" xlink:href="#font_5_27" transform="matrix(9.962899,0,0,-9.962799,94.5143,9.051926)"/>
<path transform="matrix(1.00003,0,0,-1.00002,13.2018589,103.97682)" stroke-width=".3985" stroke-linecap="butt" stroke-miterlimit="10" stroke-linejoin="miter" fill="none" stroke="#000000" d="M85.043 .00256"/>
<use data-text="B" xlink:href="#font_5_34" transform="matrix(9.962899,0,0,-9.962799,94.723308,116.778079)"/>
<path transform="matrix(1.00003,0,0,-1.00002,13.2018589,103.97682)" stroke-width=".3985" stroke-linecap="butt" stroke-miterlimit="10" stroke-linejoin="miter" fill="none" stroke="#000000" d="M159.45079 42.5202H180.3124"/>
<path transform="matrix(1.00003,0,0,-1.00002,193.71892,61.455774)" stroke-width=".3985" stroke-linecap="round" stroke-linejoin="round" fill="none" stroke="#000000" d="M-2.07224 2.39104C-1.69365 .95639-.84999 .27895 0 0-.84999-.27895-1.69365-.95639-2.07224-2.39104"/>
<path transform="matrix(1.00003,0,0,-1.00002,13.2018589,103.97682)" stroke-width=".3985" stroke-linecap="butt" stroke-miterlimit="10" stroke-linejoin="miter" fill="none" stroke="#000000" d="M201.971 0"/>
<path transform="matrix(1.00003,0,0,-1.00002,13.2018589,103.97682)" stroke-width=".3985" stroke-linecap="butt" stroke-miterlimit="10" stroke-linejoin="miter" fill="none" stroke="#000000" d="M201.971 85.04042"/>
<path transform="matrix(1.00003,0,0,-1.00002,13.2018589,103.97682)" stroke-width=".3985" stroke-linecap="butt" stroke-miterlimit="10" stroke-linejoin="miter" fill="none" stroke="#000000" d="M201.97714 85.043 201.98946 48.47728M201.98946 36.57085 201.97714 0"/>
<path transform="matrix(1.00003,0,0,-1.00002,13.2018589,103.97682)" stroke-width=".797" stroke-linecap="butt" stroke-miterlimit="10" stroke-linejoin="miter" fill="none" stroke="#000000" d="M213.88286 48.47435H190.07143M207.93 44.50578H196.02429M213.88286 40.5372H190.07143M207.93 36.56863H196.02429"/>
<use data-text="V" xlink:href="#font_1_3" transform="matrix(9.962899,0,0,-9.962799,230.44239,63.599016)"/>
<use data-text="b" xlink:href="#font_2_1" transform="matrix(6.9740097,0,0,-6.97394,236.25356,65.09405)"/>
<path transform="matrix(1.00003,0,0,-1.00002,13.2018589,103.97682)" stroke-width=".3985" stroke-linecap="butt" stroke-miterlimit="10" stroke-linejoin="miter" fill="none" stroke="#000000" d="M201.97714 85.043 228.63709 85.04816M260.38743 85.04816 287.01756 85.043 287.0351 58.40054M287.0351 26.65019 287.01756 .00258 260.38719 .0015M228.63733 .00104 201.97714 0"/>
<path transform="matrix(1.00003,0,0,-1.00002,13.2018589,103.97682)" stroke-width=".797" stroke-linecap="butt" stroke-linejoin="bevel" fill="none" stroke="#000000" d="M228.22466 85.04298 231.26885 90.99585 236.56023 79.09013 241.85161 90.99585 247.14299 79.09013 252.43437 90.99585 257.72575 79.09013 260.76997 85.04298"/>
<use data-text="R" xlink:href="#font_1_2" transform="matrix(9.962899,0,0,-9.962799,251.71204,9.1549229)"/>
<use data-text="1" xlink:href="#font_4_1" transform="matrix(6.9740097,0,0,-6.97394,259.27629,10.649956)"/>
<path transform="matrix(1.00003,0,0,-1.00002,13.2018589,103.97682)" d="M271.98298 85.05077V83.06651L276.19953 85.05077 271.98298 87.03502Z"/>
<path transform="matrix(1.00003,0,0,-1.00002,13.2018589,103.97682)" stroke-width=".3985" stroke-linecap="butt" stroke-miterlimit="10" stroke-linejoin="miter" fill="none" stroke="#000000" d="M271.98298 85.05077V83.06651L276.19953 85.05077 271.98298 87.03502Z"/>
<use data-text="I" xlink:href="#font_1_1" transform="matrix(9.962899,0,0,-9.962799,282.51295,13.907021)"/>
<use data-text="1" xlink:href="#font_4_1" transform="matrix(6.9740097,0,0,-6.97394,286.8921,15.402054)"/>
<path transform="matrix(1.00003,0,0,-1.00002,13.2018589,103.97682)" stroke-width=".797" stroke-linecap="butt" stroke-linejoin="bevel" fill="none" stroke="#000000" d="M287.01756 58.79549 292.97044 55.75128 281.0647 50.4599 292.97044 45.16852 281.0647 39.87714 292.97044 34.58575 281.0647 29.29437 287.01756 26.25018"/>
<use data-text="R" xlink:href="#font_1_2" transform="matrix(9.962899,0,0,-9.962799,275.54377,63.598016)"/>
<use data-text="2" xlink:href="#font_4_2" transform="matrix(6.9740097,0,0,-6.97394,283.10798,65.09305)"/>
<use data-text="3" xlink:href="#font_4_3" transform="matrix(6.9740097,0,0,-6.97394,287.07618,65.09305)"/>
<path transform="matrix(1.00003,0,0,-1.00002,13.2018589,103.97682)" d="M287.04386 15.06339H285.0596L287.04386 10.84685 289.02809 15.06339Z"/>
<path transform="matrix(1.00003,0,0,-1.00002,13.2018589,103.97682)" stroke-width=".3985" stroke-linecap="butt" stroke-miterlimit="10" stroke-linejoin="miter" fill="none" stroke="#000000" d="M287.04386 15.06339H285.0596L287.04386 10.84685 289.02809 15.06339Z"/>
<use data-text="I" xlink:href="#font_1_1" transform="matrix(9.962899,0,0,-9.962799,303.7826,93.30561)"/>
<use data-text="1" xlink:href="#font_4_1" transform="matrix(6.9740097,0,0,-6.97394,308.1617,94.800647)"/>
<path transform="matrix(1.00003,0,0,-1.00002,13.2018589,103.97682)" stroke-width=".797" stroke-linecap="butt" stroke-linejoin="bevel" fill="none" stroke="#000000" d="M260.76979 .00151 257.7257-5.95128 252.43427 5.95413 247.14311-5.95145 241.85167 5.954 236.56052-5.95158 231.26908 5.95383 228.22499 .00102"/>
<use data-text="R" xlink:href="#font_1_2" transform="matrix(9.962899,0,0,-9.962799,251.70403,121.04016)"/>
<use data-text="4" xlink:href="#font_4_4" transform="matrix(6.9740097,0,0,-6.97394,259.26826,122.535198)"/>
<path transform="matrix(1.00003,0,0,-1.00002,13.2018589,103.97682)" d="M275.45527 .00203 275.45524 1.98625 271.23878 .00198 275.45527-1.98218Z"/>
<path transform="matrix(1.00003,0,0,-1.00002,13.2018589,103.97682)" stroke-width=".3985" stroke-linecap="butt" stroke-miterlimit="10" stroke-linejoin="miter" fill="none" stroke="#000000" d="M275.45527 .00203 275.45524 1.98625 271.23878 .00198 275.45527-1.98218Z"/>
<use data-text="I" xlink:href="#font_1_1" transform="matrix(9.962899,0,0,-9.962799,282.51295,98.960727)"/>
<use data-text="1" xlink:href="#font_4_1" transform="matrix(6.9740097,0,0,-6.97394,286.8921,100.45576)"/>
<path transform="matrix(1.00003,0,0,-1.00002,13.2018589,103.97682)" stroke-width=".3985" stroke-linecap="butt" stroke-miterlimit="10" stroke-linejoin="miter" fill="none" stroke="#000000" d="M297.6415 42.5202H329.13316"/>
<path transform="matrix(1.00003,0,0,-1.00002,342.54414,61.455774)" stroke-width=".3985" stroke-linecap="round" stroke-linejoin="round" fill="none" stroke="#000000" d="M-2.07224 2.39104C-1.69365 .95639-.84999 .27895 0 0-.84999-.27895-1.69365-.95639-2.07224-2.39104"/>
<path transform="matrix(1.00003,0,0,-1.00002,13.2018589,103.97682)" stroke-width=".3985" stroke-linecap="butt" stroke-miterlimit="10" stroke-linejoin="miter" fill="none" stroke="#000000" d="M350.79176 0"/>
<path transform="matrix(1.00003,0,0,-1.00002,13.2018589,103.97682)" stroke-width=".3985" stroke-linecap="butt" stroke-miterlimit="10" stroke-linejoin="miter" fill="none" stroke="#000000" d="M350.79176 85.04042"/>
<path transform="matrix(1.00003,0,0,-1.00002,13.2018589,103.97682)" stroke-width=".3985" stroke-linecap="butt" stroke-miterlimit="10" stroke-linejoin="miter" fill="none" stroke="#000000" d="M350.80244 85.043 350.82386 48.47728M350.82386 36.57085 350.80244 0"/>
<path transform="matrix(1.00003,0,0,-1.00002,13.2018589,103.97682)" stroke-width=".797" stroke-linecap="butt" stroke-miterlimit="10" stroke-linejoin="miter" fill="none" stroke="#000000" d="M362.70817 48.47435H338.89674M356.7553 44.50578H344.8496M362.70817 40.5372H338.89674M356.7553 36.56863H344.8496"/>
<use data-text="V" xlink:href="#font_1_3" transform="matrix(9.962899,0,0,-9.962799,379.28083,63.599016)"/>
<use data-text="b" xlink:href="#font_2_1" transform="matrix(6.9740097,0,0,-6.97394,385.09199,65.09405)"/>
<path transform="matrix(1.00003,0,0,-1.00002,13.2018589,103.97682)" stroke-width=".3985" stroke-linecap="butt" stroke-miterlimit="10" stroke-linejoin="miter" fill="none" stroke="#000000" d="M350.80244 85.043 393.34663 85.04816M393.34663 85.04816 435.84288 85.043 435.86946 58.40054M435.86946 26.65019 435.84288 .00258 393.34663 .00127M393.34663 .00127 350.80244 0"/>
<path transform="matrix(1.00003,0,0,-1.00002,13.2018589,103.97682)" d="M391.6104 85.04817V83.06392L395.82698 85.04817 391.6104 87.03242Z"/>
<path transform="matrix(1.00003,0,0,-1.00002,13.2018589,103.97682)" stroke-width=".3985" stroke-linecap="butt" stroke-miterlimit="10" stroke-linejoin="miter" fill="none" stroke="#000000" d="M391.6104 85.04817V83.06392L395.82698 85.04817 391.6104 87.03242Z"/>
<use data-text="I" xlink:href="#font_1_1" transform="matrix(9.962899,0,0,-9.962799,402.14753,13.910019)"/>
<use data-text="1" xlink:href="#font_4_1" transform="matrix(6.9740097,0,0,-6.97394,406.52665,15.405052)"/>
<path transform="matrix(1.00003,0,0,-1.00002,13.2018589,103.97682)" stroke-width=".797" stroke-linecap="butt" stroke-linejoin="bevel" fill="none" stroke="#000000" d="M435.84288 58.79549 441.79573 55.75128 429.89 50.4599 441.79573 45.16852 429.89 39.87714 441.79573 34.58575 429.89 29.29437 435.84288 26.25018"/>
<use data-text="R" xlink:href="#font_1_2" transform="matrix(9.962899,0,0,-9.962799,422.13618,63.598016)"/>
<use data-text="t" xlink:href="#font_6_105" transform="matrix(6.9740097,0,0,-6.97394,429.7004,65.09305)"/>
<use data-text="o" xlink:href="#font_6_81" transform="matrix(6.9740097,0,0,-6.97394,432.8108,65.09305)"/>
<use data-text="t" xlink:href="#font_6_105" transform="matrix(6.9740097,0,0,-6.97394,436.77903,65.09305)"/>
<path transform="matrix(1.00003,0,0,-1.00002,13.2018589,103.97682)" d="M435.88276 15.06339H433.89848L435.88276 10.84685 437.867 15.06339Z"/>
<path transform="matrix(1.00003,0,0,-1.00002,13.2018589,103.97682)" stroke-width=".3985" stroke-linecap="butt" stroke-miterlimit="10" stroke-linejoin="miter" fill="none" stroke="#000000" d="M435.88276 15.06339H433.89848L435.88276 10.84685 437.867 15.06339Z"/>
<use data-text="I" xlink:href="#font_1_1" transform="matrix(9.962899,0,0,-9.962799,452.63105,93.30561)"/>
<use data-text="1" xlink:href="#font_4_1" transform="matrix(6.9740097,0,0,-6.97394,457.01017,94.800647)"/>
<path transform="matrix(1.00003,0,0,-1.00002,13.2018589,103.97682)" d="M395.08283 .00128V1.9855L390.86637 .00124 395.08287-1.98293Z"/>
<path transform="matrix(1.00003,0,0,-1.00002,13.2018589,103.97682)" stroke-width=".3985" stroke-linecap="butt" stroke-miterlimit="10" stroke-linejoin="miter" fill="none" stroke="#000000" d="M395.08283 .00128V1.9855L390.86637 .00124 395.08287-1.98293Z"/>
<use data-text="I" xlink:href="#font_1_1" transform="matrix(9.962899,0,0,-9.962799,402.14753,98.96172)"/>
<use data-text="1" xlink:href="#font_4_1" transform="matrix(6.9740097,0,0,-6.97394,406.52665,100.45676)"/>
</svg>
