<svg xmlns="http://www.w3.org/2000/svg" xmlns:xlink="http://www.w3.org/1999/xlink" xmlns:inkscape="http://www.inkscape.org/namespaces/inkscape" version="1.1" width="216" height="120" viewBox="0 0 216 120">
<defs>
<path id="font_1_1" d="M.37399293 .6056366C.3829956 .6416168 .38598634 .6516113 .46499635 .6516113 .4889984 .6516113 .49699403 .6516113 .49699403 .6706085 .49699403 .6826172 .48599244 .6826172 .48199464 .6826172 .45298768 .6826172 .3789978 .6796112 .34999085 .6796112 .31999208 .6796112 .24699402 .6826172 .21699524 .6826172 .20999146 .6826172 .19699097 .6826172 .19699097 .6626129 .19699097 .6516113 .20599365 .6516113 .22499085 .6516113 .2669983 .6516113 .2939911 .6516113 .2939911 .63261416 .2939911 .6276245 .2939911 .6256256 .2919922 .6166229L.15699768 .07795715C.147995 .040985109 .14498902 .0309906 .06599426 .0309906 .042999269 .0309906 .033996583 .0309906 .033996583 .010986328 .033996583 0 .04598999 0 .04899597 0 .07798767 0 .15098572 .0029907227 .17999268 .0029907227 .20999146 .0029907227 .28399659 0 .31399537 0 .32199098 0 .33399964 0 .33399964 .018997193 .33399964 .0309906 .32598878 .0309906 .3039856 .0309906 .28599549 .0309906 .2809906 .0309906 .26098634 .032989503 .23999024 .034988405 .23599243 .038986207 .23599243 .049987794 .23599243 .05796814 .23799134 .065963748 .23999024 .07296753L.37399293 .6056366Z"/>
<path id="font_2_2" d="M.2939911 .64004519C.2939911 .66400149 .2939911 .6660156 .2709961 .6660156 .20899964 .60227969 .12098694 .60227969 .08898926 .60227969V.57128909C.10899353 .57128909 .16799927 .57128909 .21998596 .5972748V.07902527C.21998596 .042999269 .21699524 .0309906 .1269989 .0309906H.09498596V0C.12998963 .0029907227 .21699524 .0029907227 .25698854 .0029907227 .29699708 .0029907227 .38398744 .0029907227 .4189911 0V.0309906H.3869934C.29699708 .0309906 .2939911 .041992189 .2939911 .07902527V.64004519Z"/>
<path id="font_2_3" d="M.1269989 .07699585 .23298645 .18003845C.3889923 .31811524 .44898988 .3721466 .44898988 .47216798 .44898988 .5860901 .35899354 .6660156 .23699951 .6660156 .12399292 .6660156 .049987794 .57411196 .049987794 .48516847 .049987794 .4291687 .099990848 .4291687 .102996829 .4291687 .11999512 .4291687 .15499878 .44117738 .15499878 .48217774 .15499878 .5081787 .13699341 .5341797 .101989749 .5341797 .09399414 .5341797 .09199524 .5341797 .08898926 .5331726 .11199951 .59806826 .1659851 .63500979 .22399903 .63500979 .31498719 .63500979 .35798646 .5541382 .35798646 .47216798 .35798646 .39215089 .30799867 .31311036 .25299073 .25108338L.06098938 .036987306C.049987794 .025985718 .049987794 .023986817 .049987794 0H.42099L.44898988 .17404175H.42399598C.4189911 .14402771 .4119873 .1000061 .4019928 .084991458 .394989 .07699585 .32899476 .07699585 .30699159 .07699585H.1269989Z"/>
<path id="font_2_5" d="M.10598755 .07595825C.10598755 .0309906 .09498596 .0309906 .027999878 .0309906V0C.06098938 .0009918213 .10798645 .0029907227 .13699341 .0029907227 .16699219 .0029907227 .20698548 .0019989014 .24699402 0V.0309906C.17999268 .0309906 .16899109 .0309906 .16899109 .07595825V.17886353L.23298645 .23381043C.30999757 .12789917 .35198976 .07196045 .35198976 .053970338 .35198976 .034988405 .33499146 .0309906 .31599427 .0309906V0C.34399415 .0009918213 .40299989 .0029907227 .42399598 .0029907227 .45298768 .0029907227 .48199464 .0019989014 .5109863 0V.0309906C.47399903 .0309906 .45199586 .0309906 .4139862 .0839386L.2869873 .26278688C.28599549 .26478578 .2809906 .2707672 .2809906 .2737732 .2809906 .277771 .35198976 .33770753 .3619995 .34570313 .4249878 .39666749 .46699525 .39865113 .48799134 .3996582V.43066407C.45899964 .42765809 .44599916 .42765809 .41799928 .42765809 .38198854 .42765809 .31999208 .42965699 .30599977 .43066407V.3996582C.32499696 .39865113 .33499146 .3876648 .33499146 .37467958 .33499146 .3547058 .32099916 .3427124 .31298829 .33570863L.17199707 .21382141V.69433596L.027999878 .68333438V.6523285C.09799194 .6523285 .10598755 .64530947 .10598755 .5961609V.07595825Z"/>
<path id="font_2_1" d="M.6769867 .16200257H.6519928C.6469879 .13600159 .6429901 .11299133 .6339874 .08898926 .6289978 .07299805 .6259918 .06498718 .56799319 .06498718H.48799134C.5009918 .1210022 .5319977 .16900635 .57699587 .23501587 .6239929 .306015 .6649933 .37503053 .6649933 .45404054 .6649933 .59306338 .5299988 .7050781 .36099244 .7050781 .18899536 .7050781 .055999757 .5910492 .055999757 .45404054 .055999757 .37503053 .09700012 .306015 .14399719 .23501587 .18798828 .16900635 .21998596 .1210022 .23298645 .06498718H.15299988C.09498596 .06498718 .09199524 .07299805 .08699036 .08799744 .07899475 .11099243 .07398987 .13700867 .068984989 .16200257H.04399109L.07699585 0H.23699951C.25898744 0 .2619934 0 .2619934 .020996094 .2619934 .09098816 .23098755 .17900086 .20799256 .24301148 .18699646 .3010254 .15899658 .3800354 .15899658 .45503236 .15899658 .6150665 .2689972 .68307498 .3600006 .68307498 .45599366 .68307498 .56199648 .61105349 .56199648 .45503236 .56199648 .3800354 .5349884 .3040161 .5059967 .22201538 .4909973 .18000794 .45899964 .08999634 .45899964 .020996094 .45899964 0 .46199037 0 .4850006 0H.6439972L.6769867 .16200257Z"/>
<path id="font_2_4" d="M.2939911 .16503906V.07800293C.2939911 .041992189 .2919922 .0309906 .21798706 .0309906H.19699097V0C.23799134 .0029907227 .2899933 .0029907227 .33198548 .0029907227 .37399293 .0029907227 .4269867 .0029907227 .46798707 0V.0309906H.44699098C.37298585 .0309906 .37098695 .041992189 .37098695 .07800293V.16503906H.47099305V.19602967H.37098695V.65075686C.37098695 .67074587 .37098695 .6767578 .35499574 .6767578 .34599305 .6767578 .34298707 .6767578 .33499146 .66474917L.027999878 .19602967V.16503906H.2939911M.2999878 .19602967H.055999757L.2999878 .5688019V.19602967Z"/>
<path id="font_3_64" d="M.27598573 .18710327V.24511719H.010986328V.18710327H.27598573Z"/>
<path id="font_3_101" d="M.45700074 .2036438C.45700074 .33070375 .36799623 .4267578 .25698854 .4267578 .18899536 .4267578 .1519928 .37573243 .13198853 .327713V.35173036C.13198853 .6047821 .2559967 .64100649 .30699159 .64100649 .33099366 .64100649 .37298585 .634964 .394989 .6007538 .37998963 .6007538 .33999635 .6007538 .33999635 .5557556 .33999635 .524765 .3639984 .5097656 .38598634 .5097656 .4019928 .5097656 .43199159 .51875308 .43199159 .5577545 .43199159 .6178589 .3880005 .6660156 .30499269 .6660156 .1769867 .6660156 .041992189 .5367584 .041992189 .31570436 .041992189 .048553468 .1579895-.022460938 .25099183-.022460938 .3619995-.022460938 .45700074 .07156372 .45700074 .2036438M.36698915 .20463562C.36698915 .15661621 .36698915 .10658264 .34999085 .0705719 .31999208 .010528564 .27398683 .0055389406 .25099183 .0055389406 .18798828 .0055389406 .1579895 .06556702 .1519928 .080566409 .13398743 .127594 .13398743 .2076416 .13398743 .22564698 .13398743 .30369569 .1659851 .40374757 .2559967 .40374757 .27198792 .40374757 .31799317 .40374757 .34899903 .34172059 .36698915 .30470277 .36698915 .2536621 .36698915 .20463562Z"/>
<path id="font_3_111" d="M.7299957 .6516113V.6826172C.69898989 .680603 .6589966 .6796112 .6329956 .6796112L.5189972 .6826172V.6516113C.57099917 .6506195 .59199526 .6246033 .59199526 .6016083 .59199526 .5936127 .58898928 .5876007 .58699038 .581604L.4039917 .09954834 .21299744 .60461428C.20698548 .61860659 .20698548 .62260439 .20698548 .62260439 .20698548 .6516113 .2639923 .6516113 .2889862 .6516113V.6826172C.25299073 .6796112 .18399048 .6796112 .1459961 .6796112L.018997193 .6826172V.6516113C.083999637 .6516113 .102996829 .6516113 .116989139 .6136017L.34899903-.00047302247C.35598756-.019470215 .36099244-.022460938 .37399293-.022460938 .3909912-.022460938 .3929901-.017471314 .397995-.0034637452L.62098696 .58461C.6349945 .62161257 .6619873 .6506195 .7299957 .6516113Z"/>
<path id="font_3_82" d="M.4189911 0V.0309906H.3869934C.29699708 .0309906 .2939911 .041992189 .2939911 .07902527V.64012148C.2939911 .6640167 .2939911 .6660156 .2709961 .6660156 .20899964 .60227969 .12098694 .60227969 .08898926 .60227969V.57128909C.10899353 .57128909 .16799927 .57128909 .21998596 .5972748V.07902527C.21998596 .042999269 .21699524 .0309906 .1269989 .0309906H.09498596V0C.12998963 .0029907227 .21699524 .0029907227 .25698854 .0029907227 .29699708 .0029907227 .38398744 .0029907227 .4189911 0Z"/>
<path id="font_3_51" d="M.45700074 .16764832C.45700074 .20367432 .44599916 .24871826 .4079895 .29074098 .3889923 .31176759 .37298585 .32176209 .30899049 .36180116 .3809967 .39881898 .42999269 .4508667 .42999269 .51690676 .42999269 .6089783 .34098817 .6660156 .25 .6660156 .1499939 .6660156 .068984989 .5919647 .068984989 .49890138 .068984989 .48088075 .070999149 .43585206 .11299133 .38882447 .12399292 .3768158 .16099549 .35179139 .18598938 .33477784 .12799073 .30575563 .041992189 .24971009 .041992189 .15063477 .041992189 .044555665 .14399719-.022460938 .24899292-.022460938 .3619995-.022460938 .45700074 .060577394 .45700074 .16764832M.38598634 .51690676C.38598634 .45986939 .34700013 .41183473 .2869873 .3768158L.16299439 .4568634C.116989139 .4868927 .11299133 .5209198 .11299133 .53793337 .11299133 .5989685 .17799378 .64100649 .24899292 .64100649 .32199098 .64100649 .38598634 .588974 .38598634 .51690676M.40699769 .13162232C.40699769 .05757141 .33198548 .0055389406 .25 .0055389406 .1639862 .0055389406 .09199524 .06758118 .09199524 .15063477 .09199524 .2086792 .12399292 .2727356 .20899964 .31976319L.33198548 .24171448C.3600006 .22268677 .40699769 .19267273 .40699769 .13162232Z"/>
</defs>
<path transform="matrix(1,0,0,-1,20.508004,74.04)" stroke-width=".3985" stroke-linecap="butt" stroke-miterlimit="10" stroke-linejoin="miter" fill="none" stroke="#000000" d="M0 0"/>
<path transform="matrix(1,0,0,-1,20.508004,74.04)" stroke-width=".3985" stroke-linecap="butt" stroke-miterlimit="10" stroke-linejoin="miter" fill="none" stroke="#000000" d="M0 0H14.17339M14.17339 0H28.3468 40.8194M72.5678 0H85.04042 97.51302M129.26142 0H141.73404 155.90744M155.90744 0H170.08086"/>
<path transform="matrix(1,0,0,-1,20.508004,74.04)" d="M1.58714 0C1.58714 .87656 .87656 1.58714 0 1.58714-.87656 1.58714-1.58714 .87656-1.58714 0-1.58714-.87656-.87656-1.58714 0-1.58714 .87656-1.58714 1.58714-.87656 1.58714 0ZM0 0" fill="#ffffff"/>
<path transform="matrix(1,0,0,-1,20.508004,74.04)" stroke-width=".3985" stroke-linecap="butt" stroke-miterlimit="10" stroke-linejoin="miter" fill="none" stroke="#000000" d="M1.58714 0C1.58714 .87656 .87656 1.58714 0 1.58714-.87656 1.58714-1.58714 .87656-1.58714 0-1.58714-.87656-.87656-1.58714 0-1.58714 .87656-1.58714 1.58714-.87656 1.58714 0ZM0 0"/>
<path transform="matrix(1,0,0,-1,20.508004,74.04)" d="" fill="#ffffff"/>
<path transform="matrix(1,0,0,-1,20.508004,74.04)" stroke-width=".3985" stroke-linecap="butt" stroke-miterlimit="10" stroke-linejoin="miter" fill="none" stroke="#000000" d=""/>
<path transform="matrix(1,0,0,-1,20.508004,74.04)" d="M29.93394 0C29.93394 .87656 29.22336 1.58714 28.3468 1.58714 27.47025 1.58714 26.75966 .87656 26.75966 0 26.75966-.87656 27.47025-1.58714 28.3468-1.58714 29.22336-1.58714 29.93394-.87656 29.93394 0ZM28.3468 0"/>
<path transform="matrix(1,0,0,-1,20.508004,74.04)" stroke-width=".3985" stroke-linecap="butt" stroke-miterlimit="10" stroke-linejoin="miter" fill="none" stroke="#000000" d="M29.93394 0C29.93394 .87656 29.22336 1.58714 28.3468 1.58714 27.47025 1.58714 26.75966 .87656 26.75966 0 26.75966-.87656 27.47025-1.58714 28.3468-1.58714 29.22336-1.58714 29.93394-.87656 29.93394 0ZM28.3468 0"/>
<path transform="matrix(1,0,0,-1,20.508004,74.04)" d="M12.43716 0V-1.98425L16.65372 0 12.43716 1.98425Z"/>
<path transform="matrix(1,0,0,-1,20.508004,74.04)" stroke-width=".3985" stroke-linecap="butt" stroke-miterlimit="10" stroke-linejoin="miter" fill="none" stroke="#000000" d="M12.43716 0V-1.98425L16.65372 0 12.43716 1.98425Z"/>
<use data-text="I" xlink:href="#font_1_1" transform="matrix(9.9626,0,0,-9.9626,32.101007,70.520008)"/>
<path transform="matrix(1,0,0,-1,20.508004,74.04)" stroke-width=".797" stroke-linecap="butt" stroke-linejoin="bevel" fill="none" stroke="#000000" d="M40.4209 0 43.4983 5.95285 48.85612-5.95285 54.21394 5.95285 59.57176-5.95285 64.92957 5.95285 70.28738-5.95285 72.9663 0"/>
<path transform="matrix(1,0,0,-1,20.508004,74.04)" d="M86.62756 0C86.62756 .87656 85.91698 1.58714 85.04042 1.58714 84.16386 1.58714 83.45328 .87656 83.45328 0 83.45328-.87656 84.16386-1.58714 85.04042-1.58714 85.91698-1.58714 86.62756-.87656 86.62756 0ZM85.04042 0"/>
<path transform="matrix(1,0,0,-1,20.508004,74.04)" stroke-width=".3985" stroke-linecap="butt" stroke-miterlimit="10" stroke-linejoin="miter" fill="none" stroke="#000000" d="M86.62756 0C86.62756 .87656 85.91698 1.58714 85.04042 1.58714 84.16386 1.58714 83.45328 .87656 83.45328 0 83.45328-.87656 84.16386-1.58714 85.04042-1.58714 85.91698-1.58714 86.62756-.87656 86.62756 0ZM85.04042 0"/>
<use data-text="1" xlink:href="#font_2_2" transform="matrix(9.9626,0,0,-9.9626,65.163,90.567)"/>
<use data-text="2" xlink:href="#font_2_3" transform="matrix(9.9626,0,0,-9.9626,70.1443,90.567)"/>
<use data-text="k" xlink:href="#font_2_5" transform="matrix(9.9626,0,0,-9.9626,76.779399,90.567)"/>
<use data-text="&#x2126;" xlink:href="#font_2_1" transform="matrix(9.9626,0,0,-9.9626,82.029689,90.567)"/>
<path transform="matrix(1,0,0,-1,20.508004,74.04)" stroke-width=".797" stroke-linecap="butt" stroke-linejoin="bevel" fill="none" stroke="#000000" d="M97.11452 0 100.19193 5.95285 105.54974-5.95285 110.90756 5.95285 116.26538-5.95285 121.6232 5.95285 126.981-5.95285 129.65991 0"/>
<path transform="matrix(1,0,0,-1,20.508004,74.04)" d="M143.32118 0C143.32118 .87656 142.6106 1.58714 141.73404 1.58714 140.85749 1.58714 140.1469 .87656 140.1469 0 140.1469-.87656 140.85749-1.58714 141.73404-1.58714 142.6106-1.58714 143.32118-.87656 143.32118 0ZM141.73404 0"/>
<path transform="matrix(1,0,0,-1,20.508004,74.04)" stroke-width=".3985" stroke-linecap="butt" stroke-miterlimit="10" stroke-linejoin="miter" fill="none" stroke="#000000" d="M143.32118 0C143.32118 .87656 142.6106 1.58714 141.73404 1.58714 140.85749 1.58714 140.1469 .87656 140.1469 0 140.1469-.87656 140.85749-1.58714 141.73404-1.58714 142.6106-1.58714 143.32118-.87656 143.32118 0ZM141.73404 0"/>
<use data-text="1" xlink:href="#font_2_2" transform="matrix(9.9626,0,0,-9.9626,124.347,90.567)"/>
<use data-text="k" xlink:href="#font_2_5" transform="matrix(9.9626,0,0,-9.9626,130.98209,90.567)"/>
<use data-text="&#x2126;" xlink:href="#font_2_1" transform="matrix(9.9626,0,0,-9.9626,136.23239,90.567)"/>
<path transform="matrix(1,0,0,-1,20.508004,74.04)" d="M171.668 0C171.668 .87656 170.95742 1.58714 170.08086 1.58714 169.20429 1.58714 168.4937 .87656 168.4937 0 168.4937-.87656 169.20429-1.58714 170.08086-1.58714 170.95742-1.58714 171.668-.87656 171.668 0ZM170.08086 0" fill="#ffffff"/>
<path transform="matrix(1,0,0,-1,20.508004,74.04)" stroke-width=".3985" stroke-linecap="butt" stroke-miterlimit="10" stroke-linejoin="miter" fill="none" stroke="#000000" d="M171.668 0C171.668 .87656 170.95742 1.58714 170.08086 1.58714 169.20429 1.58714 168.4937 .87656 168.4937 0 168.4937-.87656 169.20429-1.58714 170.08086-1.58714 170.95742-1.58714 171.668-.87656 171.668 0ZM170.08086 0"/>
<path transform="matrix(1,0,0,-1,20.508004,74.04)" d="" fill="#ffffff"/>
<path transform="matrix(1,0,0,-1,20.508004,74.04)" stroke-width=".3985" stroke-linecap="butt" stroke-miterlimit="10" stroke-linejoin="miter" fill="none" stroke="#000000" d=""/>
<path transform="matrix(1,0,0,-1,20.508004,74.04)" d="M154.17122 0V-1.98425L158.38776 0 154.17122 1.98425Z"/>
<path transform="matrix(1,0,0,-1,20.508004,74.04)" stroke-width=".3985" stroke-linecap="butt" stroke-miterlimit="10" stroke-linejoin="miter" fill="none" stroke="#000000" d="M154.17122 0V-1.98425L158.38776 0 154.17122 1.98425Z"/>
<use data-text="I" xlink:href="#font_1_1" transform="matrix(9.9626,0,0,-9.9626,173.83499,70.520008)"/>
<path transform="matrix(1,0,0,-1,20.508004,74.04)" stroke-width=".3985" stroke-linecap="butt" stroke-miterlimit="10" stroke-linejoin="miter" fill="none" stroke="#000000" d="M28.3468 0 28.34679-14.17339M28.34679-14.17339 28.3468-28.3468 40.8194-28.34679M72.5678-28.34679 85.04042-28.3468 85.0404-14.17339M85.0404-14.17339 85.04042 0"/>
<path transform="matrix(1,0,0,-1,20.508004,74.04)" stroke-width=".797" stroke-linecap="butt" stroke-linejoin="bevel" fill="none" stroke="#000000" d="M40.4209-28.34679 43.4983-22.39394 48.85612-34.29964 54.21394-22.39394 59.57176-34.29964 64.92957-22.39394 70.28738-34.29964 72.9663-28.34679"/>
<use data-text="1" xlink:href="#font_2_2" transform="matrix(9.9626,0,0,-9.9626,65.163,118.914)"/>
<use data-text="2" xlink:href="#font_2_3" transform="matrix(9.9626,0,0,-9.9626,70.1443,118.914)"/>
<use data-text="k" xlink:href="#font_2_5" transform="matrix(9.9626,0,0,-9.9626,76.779399,118.914)"/>
<use data-text="&#x2126;" xlink:href="#font_2_1" transform="matrix(9.9626,0,0,-9.9626,82.029689,118.914)"/>
<path transform="matrix(1,0,0,-1,20.508004,74.04)" stroke-width=".3985" stroke-linecap="butt" stroke-miterlimit="10" stroke-linejoin="miter" fill="none" stroke="#000000" d="M28.3468 0 28.34679 14.17339M28.34679 14.17339 28.3468 28.3468 40.8194 28.34679M72.5678 28.34679 85.04042 28.3468 85.0404 14.17339M85.0404 14.17339 85.04042 0"/>
<path transform="matrix(1,0,0,-1,20.508004,74.04)" stroke-width=".797" stroke-linecap="butt" stroke-linejoin="bevel" fill="none" stroke="#000000" d="M40.4209 28.34679 43.4983 34.29964 48.85612 22.39394 54.21394 34.29964 59.57176 22.39394 64.92957 34.29964 70.28738 22.39394 72.9663 28.34679"/>
<use data-text="1" xlink:href="#font_2_2" transform="matrix(9.9626,0,0,-9.9626,65.163,62.22)"/>
<use data-text="2" xlink:href="#font_2_3" transform="matrix(9.9626,0,0,-9.9626,70.1443,62.22)"/>
<use data-text="k" xlink:href="#font_2_5" transform="matrix(9.9626,0,0,-9.9626,76.779399,62.22)"/>
<use data-text="&#x2126;" xlink:href="#font_2_1" transform="matrix(9.9626,0,0,-9.9626,82.029689,62.22)"/>
<path transform="matrix(1,0,0,-1,20.508004,74.04)" stroke-width=".3985" stroke-linecap="butt" stroke-miterlimit="10" stroke-linejoin="miter" fill="none" stroke="#000000" d="M28.3468 28.3468 28.34679 42.5202M28.34679 42.5202 28.3468 56.69362H69.16621M100.9146 56.69362H141.73404L141.73403 28.3468M141.73403 28.3468 141.73404 0"/>
<path transform="matrix(1,0,0,-1,20.508004,74.04)" d="M29.93394 28.3468C29.93394 29.22336 29.22336 29.93394 28.3468 29.93394 27.47025 29.93394 26.75966 29.22336 26.75966 28.3468 26.75966 27.47025 27.47025 26.75966 28.3468 26.75966 29.22336 26.75966 29.93394 27.47025 29.93394 28.3468ZM28.3468 28.3468"/>
<path transform="matrix(1,0,0,-1,20.508004,74.04)" stroke-width=".3985" stroke-linecap="butt" stroke-miterlimit="10" stroke-linejoin="miter" fill="none" stroke="#000000" d="M29.93394 28.3468C29.93394 29.22336 29.22336 29.93394 28.3468 29.93394 27.47025 29.93394 26.75966 29.22336 26.75966 28.3468 26.75966 27.47025 27.47025 26.75966 28.3468 26.75966 29.22336 26.75966 29.93394 27.47025 29.93394 28.3468ZM28.3468 28.3468"/>
<path transform="matrix(1,0,0,-1,20.508004,74.04)" stroke-width=".797" stroke-linecap="butt" stroke-linejoin="bevel" fill="none" stroke="#000000" d="M68.7677 56.69362 71.84512 62.64647 77.20294 50.74075 82.56075 62.64647 87.91856 50.74075 93.27638 62.64647 98.6342 50.74075 101.31311 56.69362"/>
<use data-text="4" xlink:href="#font_2_4" transform="matrix(9.9626,0,0,-9.9626,96.001,7.578003)"/>
<use data-text="k" xlink:href="#font_2_5" transform="matrix(9.9626,0,0,-9.9626,102.63609,7.578003)"/>
<use data-text="&#x2126;" xlink:href="#font_2_1" transform="matrix(9.9626,0,0,-9.9626,107.88638,7.578003)"/>
<path transform="matrix(1,0,0,-1,20.508004,74.04)" stroke-width=".3985" stroke-linecap="butt" stroke-miterlimit="10" stroke-linejoin="miter" fill="none" stroke="#000000" d="M0 0"/>
<use data-text="-" xlink:href="#font_3_64" transform="matrix(9.9626,0,0,-9.9626,1.2170029,70.301)"/>
<use data-text="6" xlink:href="#font_3_101" transform="matrix(9.9626,0,0,-9.9626,4.534546,70.301)"/>
<use data-text="V" xlink:href="#font_3_111" transform="matrix(9.9626,0,0,-9.9626,9.515846,70.301)"/>
<path transform="matrix(1,0,0,-1,20.508004,74.04)" stroke-width=".3985" stroke-linecap="butt" stroke-miterlimit="10" stroke-linejoin="miter" fill="none" stroke="#000000" d="M170.08086 0"/>
<use data-text="-" xlink:href="#font_3_64" transform="matrix(9.9626,0,0,-9.9626,194.10901,70.301)"/>
<use data-text="1" xlink:href="#font_3_82" transform="matrix(9.9626,0,0,-9.9626,197.42655,70.301)"/>
<use data-text="8" xlink:href="#font_3_51" transform="matrix(9.9626,0,0,-9.9626,202.40784,70.301)"/>
<use data-text="V" xlink:href="#font_3_111" transform="matrix(9.9626,0,0,-9.9626,207.38915,70.301)"/>
</svg>
