<svg xmlns="http://www.w3.org/2000/svg" xmlns:xlink="http://www.w3.org/1999/xlink" xmlns:inkscape="http://www.inkscape.org/namespaces/inkscape" version="1.1" width="212" height="168" viewBox="0 0 212 168">
<defs>
<path id="font_1_2" d="M.6279907 .5686035C.6769867 .64660647 .71899417 .6496124 .7559967 .6516113 .7679901 .65260317 .7689972 .6696167 .7689972 .6706085 .7689972 .6786041 .7639923 .6826172 .7559967 .6826172 .7299957 .6826172 .70098879 .6796112 .673996 .6796112 .6409912 .6796112 .6069946 .6826172 .57499697 .6826172 .56900027 .6826172 .55599978 .6826172 .55599978 .66360476 .55599978 .65260317 .5649872 .6516113 .57199099 .6516113 .598999 .6496124 .6179962 .63960269 .6179962 .61860659 .6179962 .6036072 .6029968 .581604 .6029968 .5805969L.29599 .092544559 .22799683 .62161257C.22799683 .63861086 .25099183 .6516113 .29699708 .6516113 .31098939 .6516113 .32199098 .6516113 .32199098 .6716156 .32199098 .680603 .31399537 .6826172 .30799867 .6826172 .2679901 .6826172 .22499085 .6796112 .18399048 .6796112 .1659851 .6796112 .14698792 .680603 .1289978 .680603 .11099243 .680603 .09199524 .6826172 .07499695 .6826172 .067993167 .6826172 .055999757 .6826172 .055999757 .66360476 .055999757 .6516113 .06498718 .6516113 .08099365 .6516113 .13699341 .6516113 .13798523 .64260867 .14099121 .6175995L.21998596 .0005340576C.22299195-.019470215 .22698975-.022460938 .23999024-.022460938 .2559967-.022460938 .2599945-.017471314 .2679901-.004470825L.6279907 .5686035Z"/>
<path id="font_2_2" d="M.34199525 .32141114H.44898988C.5249939 .32141114 .5379944 .30943299 .5379944 .27648927 .5379944 .2615204 .5379944 .25952149 .5309906 .23156739 .5289917 .22558594 .5279999 .22259522 .5279999 .21958924 .5279999 .20960999 .5349884 .20462036 .54499819 .20462036 .55799868 .20462036 .5589905 .20960999 .56399539 .22758484L.6179962 .43946839C.61898806 .44247438 .621994 .457489 .621994 .45948792 .621994 .46949769 .61499026 .4744873 .6049957 .4744873 .59098818 .4744873 .58999636 .4684906 .58499148 .45048524 .5649872 .37242127 .5359955 .35742188 .45098878 .35742188H.35099793L.4139862 .60858157C.42199708 .63960269 .4229889 .64260867 .46499635 .64260867H.6179962C.7509918 .64260867 .776001 .6105957 .776001 .52752688 .776001 .49450685 .7719879 .47349549 .7719879 .46548463 .7719879 .457489 .7749939 .44847108 .78900149 .44847108 .80400088 .44847108 .8049927 .457489 .8069916 .4744873L.82499697 .64860537C.8279877 .6786041 .82099917 .6786041 .79599 .6786041H.2619934C.24299622 .6786041 .22999573 .6786041 .22999573 .6566162 .22999573 .64260867 .24198914 .64260867 .2619934 .64260867 .2630005 .64260867 .28199769 .64260867 .2999878 .64060977 .32099916 .63861086 .32299806 .63661196 .32299806 .6266022 .32299806 .6195984 .31999208 .6095886 .31900025 .60458377L.18798828 .081848148C.17799378 .042907716 .1769867 .03591919 .09899902 .03591919 .08198547 .03591919 .068984989 .03591919 .068984989 .014923096 .068984989 .004928589 .07598877-.000076293948 .084991458-.000076293948 .11399841-.000076293948 .18798828 .003921509 .21699524 .003921509L.2939911 .0029296876C.31999208 .0029296876 .34799195-.000076293948 .37298585-.000076293948 .37998963-.000076293948 .394989-.000076293948 .394989 .02192688 .394989 .03591919 .3829956 .03591919 .3600006 .03591919 .35798646 .03591919 .33299256 .03591919 .30799867 .03791809 .2869873 .039916994 .2769928 .040908815 .2769928 .054885866 .2769928 .058883668 .2769928 .06187439 .27999879 .07286072L.34199525 .32141114Z"/>
<clipPath id="clip_3">
<path transform="matrix(1.00005,0,0,-1.00002,37.709978,166.46907)" d="M-36.61191 0H157.65918V161.39636H-36.61191Z"/>
</clipPath>
<path id="font_2_1" d="M.18899536 .07797241C.18099976 .04399109 .1789856 .035995485 .100997928 .035995485 .08299255 .035995485 .070999149 .035995485 .070999149 .01399231 .070999149 0 .08299255 0 .100997928 0H.45799256C.6799927 0 .8929901 .20388794 .8929901 .42175294 .8929901 .5676575 .7919922 .6826172 .6289978 .6826172H.2649994C.24499512 .6826172 .23298645 .6826172 .23298645 .660614 .23298645 .64660647 .24398804 .64660647 .2659912 .64660647 .28199769 .64660647 .28599549 .64660647 .3039856 .64460757 .32398988 .64260867 .32598878 .64060977 .32598878 .63061526 .32598878 .62861636 .32598878 .6236267 .32199098 .6086426L.18899536 .07797241M.41299439 .6126251C.42099 .6436157 .42199708 .64660647 .46398927 .64660647H.59199526C.70399478 .64660647 .7979889 .59065249 .7979889 .45472718 .7979889 .43174745 .7879944 .2588501 .6879883 .14492798 .6489868 .09994507 .5629883 .035995485 .43998719 .035995485H.3039856C.272995 .035995485 .27198792 .036987306 .27198792 .04598999 .27198792 .04698181 .27198792 .051986696 .27598573 .066970828L.41299439 .6126251Z"/>
<path id="font_1_1" d="M.37399293 .6056366C.3829956 .6416168 .38598634 .6516113 .46499635 .6516113 .4889984 .6516113 .49699403 .6516113 .49699403 .6706085 .49699403 .6826172 .48599244 .6826172 .48199464 .6826172 .45298768 .6826172 .3789978 .6796112 .34999085 .6796112 .31999208 .6796112 .24699402 .6826172 .21699524 .6826172 .20999146 .6826172 .19699097 .6826172 .19699097 .6626129 .19699097 .6516113 .20599365 .6516113 .22499085 .6516113 .2669983 .6516113 .2939911 .6516113 .2939911 .63261416 .2939911 .6276245 .2939911 .6256256 .2919922 .6166229L.15699768 .07795715C.147995 .040985109 .14498902 .0309906 .06599426 .0309906 .042999269 .0309906 .033996583 .0309906 .033996583 .010986328 .033996583 0 .04598999 0 .04899597 0 .07798767 0 .15098572 .0029907227 .17999268 .0029907227 .20999146 .0029907227 .28399659 0 .31399537 0 .32199098 0 .33399964 0 .33399964 .018997193 .33399964 .0309906 .32598878 .0309906 .3039856 .0309906 .28599549 .0309906 .2809906 .0309906 .26098634 .032989503 .23999024 .034988405 .23599243 .038986207 .23599243 .049987794 .23599243 .05796814 .23799134 .065963748 .23999024 .07296753L.37399293 .6056366Z"/>
</defs>
<path transform="matrix(1.00005,0,0,-1.00002,37.709978,166.46907)" stroke-width="1.19553" stroke-linecap="butt" stroke-miterlimit="10" stroke-linejoin="miter" fill="none" stroke="#000000" d="M64.55853 75.71666V85.67969"/>
<path transform="matrix(1.00005,0,0,-1.00002,37.709978,166.46907)" stroke-width=".3985" stroke-linecap="butt" stroke-miterlimit="10" stroke-linejoin="miter" fill="none" stroke="#000000" d="M-36.61191 80.69818H155.66666"/>
<path transform="matrix(1.00005,0,0,-1.00002,193.38442,85.76927)" d="M1.99252 0-1.19551 1.59401 0 0-1.19551-1.59401"/>
<path transform="matrix(1.00005,0,0,-1.00002,37.709978,166.46907)" stroke-width=".3985" stroke-linecap="butt" stroke-miterlimit="10" stroke-linejoin="miter" fill="none" stroke="#000000" d="M40.34909 0V159.40384"/>
<path transform="matrix(0,-1.00002,-1.00005,-0,78.06108,7.062042)" d="M1.99252 0-1.19551 1.59401 0 0-1.19551-1.59401"/>
<use data-text="V" xlink:href="#font_1_2" transform="matrix(9.963098,0,0,-9.962799,96.053897,101.07876)"/>
<use data-text="F" xlink:href="#font_2_2" transform="matrix(6.9741489,0,0,-6.97394,101.86517,102.57279)"/>
<g clip-path="url(#clip_3)">
<path transform="matrix(1.00005,0,0,-1.00002,37.709978,166.46907)" stroke-width="1.59404" stroke-linecap="butt" stroke-miterlimit="10" stroke-linejoin="miter" fill="none" stroke="#0000ff" d="M-40.34909 80.69818H64.55853"/>
<path transform="matrix(1.00005,0,0,-1.00002,37.709978,166.46907)" stroke-width="1.59404" stroke-linecap="butt" stroke-miterlimit="10" stroke-linejoin="miter" fill="none" stroke="#0000ff" d="M64.55853 80.69818V161.39636"/>
</g>
<use data-text="V" xlink:href="#font_1_2" transform="matrix(9.963098,0,0,-9.962799,198.89704,88.426509)"/>
<use data-text="D" xlink:href="#font_2_1" transform="matrix(6.9741489,0,0,-6.97394,204.70832,89.92054)"/>
<use data-text="I" xlink:href="#font_1_1" transform="matrix(9.963098,0,0,-9.962799,81.58116,7.725891)"/>
<use data-text="D" xlink:href="#font_2_1" transform="matrix(6.9741489,0,0,-6.97394,85.96039,9.219925)"/>
</svg>
