<svg xmlns="http://www.w3.org/2000/svg" xmlns:xlink="http://www.w3.org/1999/xlink" xmlns:inkscape="http://www.inkscape.org/namespaces/inkscape" version="1.1" width="262" height="125" viewBox="0 0 262 125">
<defs>
<path id="font_1_2" d="M.6279907 .5686035C.6769867 .64660647 .71899417 .6496124 .7559967 .6516113 .7679901 .65260317 .7689972 .6696167 .7689972 .6706085 .7689972 .6786041 .7639923 .6826172 .7559967 .6826172 .7299957 .6826172 .70098879 .6796112 .673996 .6796112 .6409912 .6796112 .6069946 .6826172 .57499697 .6826172 .56900027 .6826172 .55599978 .6826172 .55599978 .66360476 .55599978 .65260317 .5649872 .6516113 .57199099 .6516113 .598999 .6496124 .6179962 .63960269 .6179962 .61860659 .6179962 .6036072 .6029968 .581604 .6029968 .5805969L.29599 .092544559 .22799683 .62161257C.22799683 .63861086 .25099183 .6516113 .29699708 .6516113 .31098939 .6516113 .32199098 .6516113 .32199098 .6716156 .32199098 .680603 .31399537 .6826172 .30799867 .6826172 .2679901 .6826172 .22499085 .6796112 .18399048 .6796112 .1659851 .6796112 .14698792 .680603 .1289978 .680603 .11099243 .680603 .09199524 .6826172 .07499695 .6826172 .067993167 .6826172 .055999757 .6826172 .055999757 .66360476 .055999757 .6516113 .06498718 .6516113 .08099365 .6516113 .13699341 .6516113 .13798523 .64260867 .14099121 .6175995L.21998596 .0005340576C.22299195-.019470215 .22698975-.022460938 .23999024-.022460938 .2559967-.022460938 .2599945-.017471314 .2679901-.004470825L.6279907 .5686035Z"/>
<path id="font_2_1" d="M.33499146 .63612368C.33499146 .6630554 .33299256 .6640625 .30499269 .6640625 .24099732 .6014404 .1499939 .6004486 .10899353 .6004486V.5644531C.1329956 .5644531 .19898987 .5644531 .2539978 .592453V.08203125C.2539978 .04899597 .2539978 .035995485 .1539917 .035995485H.115997318V0C.13398743 .0009918213 .25698854 .0039978029 .2939911 .0039978029 .32499696 .0039978029 .45098878 .0009918213 .47299195 0V.035995485H.43499757C.33499146 .035995485 .33499146 .04899597 .33499146 .08203125V.63612368Z"/>
<path id="font_1_1" d="M.375 .6136017C.3809967 .63760378 .38398744 .6476135 .40299989 .65060427 .4119873 .6516113 .44400025 .6516113 .46398927 .6516113 .5349884 .6516113 .6459961 .6516113 .6459961 .5525818 .6459961 .51856997 .6299896 .44955445 .59098818 .41055299 .5649872 .38453675 .5119934 .35253907 .42199708 .35253907H.30999757L.375 .6136017M.5189972 .33953858C.6199951 .3615265 .7389984 .43154908 .7389984 .5325775 .7389984 .61860659 .6489868 .6826172 .5179901 .6826172H.23298645C.21299744 .6826172 .20399475 .6826172 .20399475 .6626129 .20399475 .6516113 .21299744 .6516113 .23199463 .6516113 .23399353 .6516113 .25299073 .6516113 .269989 .6496124 .28799439 .6476135 .29699708 .64660647 .29699708 .63360598 .29699708 .62960818 .29599 .6266022 .29299928 .6145935L.15899658 .07752991C.14898682 .038528444 .14698792 .030532837 .067993167 .030532837 .049987794 .030532837 .040985109 .030532837 .040985109 .010528564 .040985109-.00047302247 .052993776-.00047302247 .054992677-.00047302247 .08299255-.00047302247 .15299988 .002532959 .18099976 .002532959 .20899964 .002532959 .27999879-.00047302247 .30799867-.00047302247 .31599427-.00047302247 .32798768-.00047302247 .32798768 .01953125 .32798768 .030532837 .31900025 .030532837 .2999878 .030532837 .2630005 .030532837 .23498535 .030532837 .23498535 .048538209 .23498535 .054534913 .23699951 .059524537 .23799134 .0655365L.3039856 .3305359H.4229889C.5139923 .3305359 .5319977 .27453614 .5319977 .23953247 .5319977 .22453308 .5239868 .19352722 .5179901 .17053223 .5109863 .14253235 .5019989 .105529788 .5019989 .08552551 .5019989-.022460938 .621994-.022460938 .6349945-.022460938 .7200012-.022460938 .7549896 .07853699 .7549896 .0925293 .7549896 .104537967 .74398806 .104537967 .7429962 .104537967 .73399356 .104537967 .7319946 .09753418 .7299957 .090530399 .7049866 .016525269 .6619873-.00047302247 .6389923-.00047302247 .60598757-.00047302247 .598999 .021530152 .598999 .060531618 .598999 .091537479 .6049957 .14253235 .60899356 .17453003 .61099246 .1885376 .61299136 .20753479 .61299136 .2215271 .61299136 .2985382 .54599 .3295288 .5189972 .33953858Z"/>
<path id="font_2_2" d="M.5049896 .18203736H.47099305C.46798707 .16001892 .45799256 .100997928 .44499208 .09098816 .43699647 .084991458 .3600006 .084991458 .34599305 .084991458H.1619873C.2669983 .17803955 .3019867 .20603943 .3619995 .25306703 .43598939 .312088 .5049896 .374115 .5049896 .46914674 .5049896 .5900879 .39898683 .6640625 .2709961 .6640625 .14698792 .6640625 .06298828 .57710269 .06298828 .4851532 .06298828 .43414308 .10598755 .42915345 .115997318 .42915345 .13999939 .42915345 .16899109 .44615174 .16899109 .48214723 .16899109 .5001526 .1619873 .53515627 .10998535 .53515627 .14099121 .6060791 .20899964 .62805178 .2559967 .62805178 .35598756 .62805178 .4079895 .5501404 .4079895 .46914674 .4079895 .38212586 .34599305 .3130951 .31399537 .27708436L.07299805 .038986207C.06298828 .02999878 .06298828 .027999878 .06298828 0H.47499085L.5049896 .18203736Z"/>
<path id="font_2_3" d="M.272995 .33428956C.35099793 .33428956 .40699769 .2803192 .40699769 .1733551 .40699769 .04940796 .33499146 .012466431 .2769928 .012466431 .23699951 .012466431 .14898682 .0234375 .10699463 .082351688 .1539917 .084350589 .16499329 .11735535 .16499329 .13835144 .16499329 .17034912 .14099121 .19335938 .10998535 .19335938 .08198547 .19335938 .053985597 .17634583 .053985597 .13534546 .053985597 .041412355 .1579895-.01953125 .2789917-.01953125 .41799928-.01953125 .5139923 .07336426 .5139923 .1733551 .5139923 .2513275 .44999696 .32929994 .33999635 .35229493 .44499208 .39024354 .48298646 .4650879 .48298646 .5260773 .48298646 .60505679 .3919983 .6640625 .2809906 .6640625 .16999817 .6640625 .084991458 .61006167 .084991458 .5300751 .084991458 .49606324 .10699463 .47706605 .13699341 .47706605 .16799927 .47706605 .18798828 .5000763 .18798828 .5280762 .18798828 .5570679 .16799927 .57806399 .13699341 .5800781 .17199707 .62405398 .24099732 .63505557 .27799989 .63505557 .32299806 .63505557 .38598634 .6130676 .38598634 .5260773 .38598634 .48406983 .37199403 .43814088 .34599305 .4072113 .31298829 .36927796 .2849884 .3672943 .23498535 .36428834 .20999146 .3623047 .20799256 .3623047 .20298767 .3612976 .20098877 .3612976 .19299317 .3592987 .19299317 .34829713 .19299317 .33428956 .20199585 .33428956 .21899414 .33428956H.272995Z"/>
<path id="font_3_81" d="M.5289917 .21325684C.5289917 .3382721 .42199708 .44628907 .28399659 .44628907 .1459961 .44628907 .038986207 .3382721 .038986207 .21325684 .038986207 .0892334 .14898682-.009765625 .28399659-.009765625 .4189911-.009765625 .5289917 .0892334 .5289917 .21325684M.43798829 .22225952C.43798829 .17424011 .43499757 .12124634 .4059906 .08023071 .3789978 .042236329 .33299256 .022232056 .28399659 .022232056 .24699402 .022232056 .19299317 .034225465 .1599884 .083236698 .1329956 .12423706 .12998963 .17625427 .12998963 .22225952 .12998963 .2652588 .1309967 .32426454 .1659851 .36727906 .19099427 .39627076 .23298645 .41827394 .28399659 .41827394 .34298707 .41827394 .3849945 .39027406 .40699769 .3592682 .43499757 .32026673 .43798829 .27026368 .43798829 .22225952Z"/>
<path id="font_3_109" d="M.58999636 0V.035995485C.522995 .035995485 .5149994 .042999269 .5149994 .092056278V.44140626L.36099244 .43052674V.39453126C.42799378 .39439393 .43598939 .3874359 .43598939 .33872987V.16749573C.43598939 .079330448 .3789978 .018234253 .30299378 .018234253 .21199036 .018234253 .20799256 .061309816 .20799256 .11239624V.44140626L.053985597 .43052674V.39453126C.1289978 .39453126 .1289978 .39154054 .1289978 .30273438V.15246582C.1289978 .083343509 .1289978-.009765625 .29599-.009765625 .31799317-.009765625 .3909912-.009765625 .43899537 .07432556H.43998719V-.009765625L.58999636 0Z"/>
<path id="font_3_105" d="M.375 .12606812V.1809845H.34098817V.12705994C.34098817 .059173585 .30899049 .022232056 .269989 .022232056 .20098877 .022232056 .20098877 .10609436 .20098877 .124069217V.39465333H.35699464V.43066407H.20098877V.6142578H.16699219C.1659851 .5244446 .125 .42565919 .0289917 .4226532V.39465333H.12199402V.1250763C.12199402 .01322937 .20599365-.009765625 .2619934-.009765625 .32899476-.010009766 .375 .04699707 .375 .12599182V.12606812Z"/>
</defs>
<path transform="matrix(1.00008,0,0,-1.00002,25.496766,121.33911)" stroke-width=".3985" stroke-linecap="butt" stroke-miterlimit="10" stroke-linejoin="miter" fill="none" stroke="#000000" d="M0 0"/>
<path transform="matrix(1.00008,0,0,-1.00002,25.496766,121.33911)" stroke-width=".3985" stroke-linecap="butt" stroke-miterlimit="10" stroke-linejoin="miter" fill="none" stroke="#000000" d="M0 0V50.74075M0 62.64647V113.38724H42.5202M42.5202 113.38724H85.04042L85.0404 100.91461M85.0404 69.16623 85.04042 56.69362 85.0404 34.29965M85.0404 22.39395 85.04042 0H42.5202M42.5202 0H0"/>
<path transform="matrix(1.00008,0,0,-1.00002,25.496766,121.33911)" stroke-width=".797" stroke-linecap="butt" stroke-miterlimit="10" stroke-linejoin="miter" fill="none" stroke="#000000" d="M-11.90572 62.64647H11.90572M-5.95285 58.6779H5.95285M-11.90572 54.70934H11.90572M-5.95285 50.74075H5.95285"/>
<use data-text="V" xlink:href="#font_1_2" transform="matrix(9.963397,0,0,-9.962799,.5067673,66.791019)"/>
<use data-text="1" xlink:href="#font_2_1" transform="matrix(6.974358,0,0,-6.97394,6.319229,68.28505)"/>
<path transform="matrix(1.00008,0,0,-1.00002,25.496766,121.33911)" stroke-width=".797" stroke-linecap="butt" stroke-linejoin="bevel" fill="none" stroke="#000000" d="M85.0404 101.31313 90.99326 98.2357 79.08755 92.8779 90.99326 87.52008 79.08755 82.16226 90.99326 76.80444 79.08755 71.44662 85.0404 68.76772"/>
<path transform="matrix(1.00008,0,0,-1.00002,25.496766,121.33911)" d="M86.62756 113.38724C86.62756 114.2638 85.91698 114.97438 85.04042 114.97438 84.16386 114.97438 83.45328 114.2638 83.45328 113.38724 83.45328 112.51067 84.16386 111.80008 85.04042 111.80008 85.91698 111.80008 86.62756 112.51067 86.62756 113.38724ZM85.04042 113.38724"/>
<path transform="matrix(1.00008,0,0,-1.00002,25.496766,121.33911)" stroke-width=".3985" stroke-linecap="butt" stroke-miterlimit="10" stroke-linejoin="miter" fill="none" stroke="#000000" d="M86.62756 113.38724C86.62756 114.2638 85.91698 114.97438 85.04042 114.97438 84.16386 114.97438 83.45328 114.2638 83.45328 113.38724 83.45328 112.51067 84.16386 111.80008 85.04042 111.80008 85.91698 111.80008 86.62756 112.51067 86.62756 113.38724ZM85.04042 113.38724"/>
<use data-text="R" xlink:href="#font_1_1" transform="matrix(9.963397,0,0,-9.962799,90.34995,38.44445)"/>
<use data-text="1" xlink:href="#font_2_1" transform="matrix(6.974358,0,0,-6.97394,97.91556,39.938478)"/>
<path transform="matrix(1.00008,0,0,-1.00002,25.496766,121.33911)" stroke-width=".797" stroke-linecap="butt" stroke-miterlimit="10" stroke-linejoin="miter" fill="none" stroke="#000000" d="M96.94612 34.29965H73.13469M90.99326 30.33109H79.08755M96.94612 26.36252H73.13469M90.99326 22.39395H79.08755"/>
<path transform="matrix(1.00008,0,0,-1.00002,25.496766,121.33911)" d="M86.62756 0C86.62756 .87656 85.91698 1.58714 85.04042 1.58714 84.16386 1.58714 83.45328 .87656 83.45328 0 83.45328-.87656 84.16386-1.58714 85.04042-1.58714 85.91698-1.58714 86.62756-.87656 86.62756 0ZM85.04042 0"/>
<path transform="matrix(1.00008,0,0,-1.00002,25.496766,121.33911)" stroke-width=".3985" stroke-linecap="butt" stroke-miterlimit="10" stroke-linejoin="miter" fill="none" stroke="#000000" d="M86.62756 0C86.62756 .87656 85.91698 1.58714 85.04042 1.58714 84.16386 1.58714 83.45328 .87656 83.45328 0 83.45328-.87656 84.16386-1.58714 85.04042-1.58714 85.91698-1.58714 86.62756-.87656 86.62756 0ZM85.04042 0"/>
<use data-text="V" xlink:href="#font_1_2" transform="matrix(9.963397,0,0,-9.962799,85.554569,95.13859)"/>
<use data-text="2" xlink:href="#font_2_2" transform="matrix(6.974358,0,0,-6.97394,91.367038,96.632617)"/>
<path transform="matrix(1.00008,0,0,-1.00002,25.496766,121.33911)" stroke-width=".3985" stroke-linecap="butt" stroke-miterlimit="10" stroke-linejoin="miter" fill="none" stroke="#000000" d="M85.04042 113.38724H111.68643M143.43483 113.38724H170.08086V72.56781M170.08086 40.81941V0H127.56062M127.56062 0H85.04042"/>
<path transform="matrix(1.00008,0,0,-1.00002,25.496766,121.33911)" stroke-width=".797" stroke-linecap="butt" stroke-linejoin="bevel" fill="none" stroke="#000000" d="M111.28793 113.38724 114.36534 119.34009 119.72316 107.43439 125.08098 119.34009 130.43878 107.43439 135.7966 119.34009 141.15442 107.43439 143.83333 113.38724"/>
<path transform="matrix(1.00008,0,0,-1.00002,25.496766,121.33911)" d="M171.668 113.38724C171.668 114.2638 170.95742 114.97438 170.08086 114.97438 169.20429 114.97438 168.4937 114.2638 168.4937 113.38724 168.4937 112.51067 169.20429 111.80008 170.08086 111.80008 170.95742 111.80008 171.668 112.51067 171.668 113.38724ZM170.08086 113.38724"/>
<path transform="matrix(1.00008,0,0,-1.00002,25.496766,121.33911)" stroke-width=".3985" stroke-linecap="butt" stroke-miterlimit="10" stroke-linejoin="miter" fill="none" stroke="#000000" d="M171.668 113.38724C171.668 114.2638 170.95742 114.97438 170.08086 114.97438 169.20429 114.97438 168.4937 114.2638 168.4937 113.38724 168.4937 112.51067 169.20429 111.80008 170.08086 111.80008 170.95742 111.80008 171.668 112.51067 171.668 113.38724ZM170.08086 113.38724"/>
<use data-text="R" xlink:href="#font_1_1" transform="matrix(9.963397,0,0,-9.962799,147.05048,24.477173)"/>
<use data-text="2" xlink:href="#font_2_2" transform="matrix(6.974358,0,0,-6.97394,154.61609,25.971199)"/>
<path transform="matrix(1.00008,0,0,-1.00002,25.496766,121.33911)" stroke-width=".797" stroke-linecap="butt" stroke-linejoin="bevel" fill="none" stroke="#000000" d="M170.08086 72.96631 176.0337 69.8889 164.128 64.53108 176.0337 59.17326 164.128 53.81544 176.0337 48.45764 164.128 43.09982 170.08086 40.42091"/>
<use data-text="R" xlink:href="#font_1_1" transform="matrix(9.963397,0,0,-9.962799,175.39676,66.791019)"/>
<use data-text="3" xlink:href="#font_2_3" transform="matrix(6.974358,0,0,-6.97394,182.96237,68.28505)"/>
<path transform="matrix(1.00008,0,0,-1.00002,25.496766,121.33911)" d="M171.668 0C171.668 .87656 170.95742 1.58714 170.08086 1.58714 169.20429 1.58714 168.4937 .87656 168.4937 0 168.4937-.87656 169.20429-1.58714 170.08086-1.58714 170.95742-1.58714 171.668-.87656 171.668 0ZM170.08086 0"/>
<path transform="matrix(1.00008,0,0,-1.00002,25.496766,121.33911)" stroke-width=".3985" stroke-linecap="butt" stroke-miterlimit="10" stroke-linejoin="miter" fill="none" stroke="#000000" d="M171.668 0C171.668 .87656 170.95742 1.58714 170.08086 1.58714 169.20429 1.58714 168.4937 .87656 168.4937 0 168.4937-.87656 169.20429-1.58714 170.08086-1.58714 170.95742-1.58714 171.668-.87656 171.668 0ZM170.08086 0"/>
<path transform="matrix(1.00008,0,0,-1.00002,25.496766,121.33911)" stroke-width=".3985" stroke-linecap="butt" stroke-miterlimit="10" stroke-linejoin="miter" fill="none" stroke="#000000" d="M170.08086 113.38724H198.42766M198.42766 113.38724H226.77448"/>
<path transform="matrix(1.00008,0,0,-1.00002,25.496766,121.33911)" d="M228.36162 113.38724C228.36162 114.2638 227.65103 114.97438 226.77448 114.97438 225.8979 114.97438 225.18732 114.2638 225.18732 113.38724 225.18732 112.51067 225.8979 111.80008 226.77448 111.80008 227.65103 111.80008 228.36162 112.51067 228.36162 113.38724ZM226.77448 113.38724" fill="#ffffff"/>
<path transform="matrix(1.00008,0,0,-1.00002,25.496766,121.33911)" stroke-width=".3985" stroke-linecap="butt" stroke-miterlimit="10" stroke-linejoin="miter" fill="none" stroke="#000000" d="M228.36162 113.38724C228.36162 114.2638 227.65103 114.97438 226.77448 114.97438 225.8979 114.97438 225.18732 114.2638 225.18732 113.38724 225.18732 112.51067 225.8979 111.80008 226.77448 111.80008 227.65103 111.80008 228.36162 112.51067 228.36162 113.38724ZM226.77448 113.38724"/>
<path transform="matrix(1.00008,0,0,-1.00002,25.496766,121.33911)" d="" fill="#ffffff"/>
<path transform="matrix(1.00008,0,0,-1.00002,25.496766,121.33911)" stroke-width=".3985" stroke-linecap="butt" stroke-miterlimit="10" stroke-linejoin="miter" fill="none" stroke="#000000" d=""/>
<path transform="matrix(1.00008,0,0,-1.00002,25.496766,121.33911)" stroke-width=".3985" stroke-linecap="butt" stroke-miterlimit="10" stroke-linejoin="miter" fill="none" stroke="#000000" d="M170.08086 0H198.42766M198.42766 0H226.77448"/>
<path transform="matrix(1.00008,0,0,-1.00002,25.496766,121.33911)" d="M228.36162 0C228.36162 .87656 227.65103 1.58714 226.77448 1.58714 225.8979 1.58714 225.18732 .87656 225.18732 0 225.18732-.87656 225.8979-1.58714 226.77448-1.58714 227.65103-1.58714 228.36162-.87656 228.36162 0ZM226.77448 0" fill="#ffffff"/>
<path transform="matrix(1.00008,0,0,-1.00002,25.496766,121.33911)" stroke-width=".3985" stroke-linecap="butt" stroke-miterlimit="10" stroke-linejoin="miter" fill="none" stroke="#000000" d="M228.36162 0C228.36162 .87656 227.65103 1.58714 226.77448 1.58714 225.8979 1.58714 225.18732 .87656 225.18732 0 225.18732-.87656 225.8979-1.58714 226.77448-1.58714 227.65103-1.58714 228.36162-.87656 228.36162 0ZM226.77448 0"/>
<path transform="matrix(1.00008,0,0,-1.00002,25.496766,121.33911)" d="" fill="#ffffff"/>
<path transform="matrix(1.00008,0,0,-1.00002,25.496766,121.33911)" stroke-width=".3985" stroke-linecap="butt" stroke-miterlimit="10" stroke-linejoin="miter" fill="none" stroke="#000000" d=""/>
<use data-text="V" xlink:href="#font_1_2" transform="matrix(9.963397,0,0,-9.962799,243.3942,67.26603)"/>
<use data-text="o" xlink:href="#font_3_81" transform="matrix(6.974358,0,0,-6.97394,249.20667,68.760059)"/>
<use data-text="u" xlink:href="#font_3_109" transform="matrix(6.974358,0,0,-6.97394,253.17508,68.760059)"/>
<use data-text="t" xlink:href="#font_3_105" transform="matrix(6.974358,0,0,-6.97394,257.5759,68.760059)"/>
</svg>
