<svg xmlns="http://www.w3.org/2000/svg" xmlns:xlink="http://www.w3.org/1999/xlink" xmlns:inkscape="http://www.inkscape.org/namespaces/inkscape" version="1.1" width="264" height="84" viewBox="0 0 264 84">
<defs>
<path id="font_1_1" d="M.6279907 .5686035C.6769867 .64660647 .71899417 .6496124 .7559967 .6516113 .7679901 .65260317 .7689972 .6696167 .7689972 .6706085 .7689972 .6786041 .7639923 .6826172 .7559967 .6826172 .7299957 .6826172 .70098879 .6796112 .673996 .6796112 .6409912 .6796112 .6069946 .6826172 .57499697 .6826172 .56900027 .6826172 .55599978 .6826172 .55599978 .66360476 .55599978 .65260317 .5649872 .6516113 .57199099 .6516113 .598999 .6496124 .6179962 .63960269 .6179962 .61860659 .6179962 .6036072 .6029968 .581604 .6029968 .5805969L.29599 .092544559 .22799683 .62161257C.22799683 .63861086 .25099183 .6516113 .29699708 .6516113 .31098939 .6516113 .32199098 .6516113 .32199098 .6716156 .32199098 .680603 .31399537 .6826172 .30799867 .6826172 .2679901 .6826172 .22499085 .6796112 .18399048 .6796112 .1659851 .6796112 .14698792 .680603 .1289978 .680603 .11099243 .680603 .09199524 .6826172 .07499695 .6826172 .067993167 .6826172 .055999757 .6826172 .055999757 .66360476 .055999757 .6516113 .06498718 .6516113 .08099365 .6516113 .13699341 .6516113 .13798523 .64260867 .14099121 .6175995L.21998596 .0005340576C.22299195-.019470215 .22698975-.022460938 .23999024-.022460938 .2559967-.022460938 .2599945-.017471314 .2679901-.004470825L.6279907 .5686035Z"/>
<path id="font_2_66" d="M.27398683 0V.035995485C.21598816 .035995485 .20599365 .035995485 .20599365 .07803345V.44140626L.05899048 .43052674V.39453126C.12199402 .39453126 .1309967 .3885193 .1309967 .33952333V.07952881C.1309967 .035995485 .12098694 .035995485 .055999757 .035995485V0C.055999757 0 .12799073 .0039978029 .16799927 .0039978029 .20298767 .0039978029 .23899842 .0029907227 .27398683 0M.21899414 .60214236C.21899414 .6341553 .19400025 .66015627 .1619873 .66015627 .12799073 .66015627 .10499573 .6321411 .10499573 .6031494 .10499573 .57115176 .12998963 .54515078 .1619873 .54515078 .19599915 .54515078 .21899414 .57315066 .21899414 .60214236Z"/>
<path id="font_2_77" d="M.58999636 0V.035995485C.5249939 .035995485 .5149994 .035995485 .5149994 .07904053V.3032837C.5149994 .3903656 .47200013 .44140626 .36499024 .44140626 .2829895 .44140626 .22999573 .39637757 .20199585 .34432984H.20098877V.44140626L.053985597 .43052674V.39453126C.12098694 .39453126 .1289978 .3875122 .1289978 .33843995V.079055789C.1289978 .035995485 .11898804 .035995485 .053985597 .035995485V0C.053985597 0 .12599182 .0039978029 .16799927 .0039978029 .20498657 .0039978029 .27398683 .0009918213 .2829895 0V.035995485C.21798706 .035995485 .20799256 .035995485 .20799256 .079055789V.25932313C.20799256 .36434938 .29100038 .4133911 .35699464 .4133911 .4269867 .4133911 .43598939 .3583374 .43598939 .3072815V.07904053C.43598939 .035995485 .42599488 .035995485 .36099244 .035995485V0C.36099244 0 .43299867 .0039978029 .47499085 .0039978029 .5119934 .0039978029 .58099368 .0009918213 .58999636 0Z"/>
<path id="font_3_3" d="M.2939911 .64004519C.2939911 .66400149 .2939911 .6660156 .2709961 .6660156 .20899964 .60227969 .12098694 .60227969 .08898926 .60227969V.57128909C.10899353 .57128909 .16799927 .57128909 .21998596 .5972748V.07902527C.21998596 .042999269 .21699524 .0309906 .1269989 .0309906H.09498596V0C.12998963 .0029907227 .21699524 .0029907227 .25698854 .0029907227 .29699708 .0029907227 .38398744 .0029907227 .4189911 0V.0309906H.3869934C.29699708 .0309906 .2939911 .041992189 .2939911 .07902527V.64004519Z"/>
<path id="font_4_402" d="M.5339966 .00024414063V.03126526C.46299745 .03126526 .45599366 .038253786 .45599366 .089279178V.44140626L.30799867 .43040467V.3993988C.3789978 .3993988 .38598634 .39239503 .38598634 .3413849V.16731262C.38598634 .07926941 .33999635 .011245728 .2659912 .011245728 .18299866 .011245728 .17999268 .059265138 .17999268 .11128235V.44140626L.03199768 .43040467V.3993988C.102996829 .3993988 .10998535 .39239503 .10998535 .3413849V-.115982059C.10998535-.16308594 .100997928-.16308594 .03199768-.16308594V-.1940918L.14498902-.19110108 .2579956-.1940918V-.16308594C.18899536-.16308594 .17999268-.16308594 .17999268-.115982059V.002243042C.19499207-.003753662 .22299195-.0107421879 .26098634-.0107421879 .31599427-.0107421879 .3600006 .01625061 .3880005 .07527161H.3889923V-.0107421879L.5339966 .00024414063Z"/>
<path id="font_3_4" d="M.58200076 .6796112H.032989503V.64860537H.056991579C.13398743 .64860537 .13598633 .63760378 .13598633 .601593V.07791138C.13598633 .04197693 .13398743 .0309906 .056991579 .0309906H.032989503V0C.067993167 .0029907227 .1459961 .0029907227 .18499756 .0029907227 .22599793 .0029907227 .31698609 .0029907227 .35299684 0V.0309906H.31999208C.22499085 .0309906 .22499085 .04397583 .22499085 .0789032V.3244629H.31098939C.40699769 .3244629 .4169922 .29252626 .4169922 .20767212H.44198609V.47251893H.4169922C.4169922 .3884735 .40699769 .35546876 .31098939 .35546876H.22499085V.6085968C.22499085 .64160159 .22698975 .64860537 .27398683 .64860537H.3939972C.5439911 .64860537 .56900027 .5925751 .58499148 .45451356H.6100006L.58200076 .6796112Z"/>
<path id="font_3_5" d="M.10598755 .07595825C.10598755 .0309906 .09498596 .0309906 .027999878 .0309906V0C.06098938 .0009918213 .10798645 .0029907227 .13699341 .0029907227 .16699219 .0029907227 .20698548 .0019989014 .24699402 0V.0309906C.17999268 .0309906 .16899109 .0309906 .16899109 .07595825V.17886353L.23298645 .23381043C.30999757 .12789917 .35198976 .07196045 .35198976 .053970338 .35198976 .034988405 .33499146 .0309906 .31599427 .0309906V0C.34399415 .0009918213 .40299989 .0029907227 .42399598 .0029907227 .45298768 .0029907227 .48199464 .0019989014 .5109863 0V.0309906C.47399903 .0309906 .45199586 .0309906 .4139862 .0839386L.2869873 .26278688C.28599549 .26478578 .2809906 .2707672 .2809906 .2737732 .2809906 .277771 .35198976 .33770753 .3619995 .34570313 .4249878 .39666749 .46699525 .39865113 .48799134 .3996582V.43066407C.45899964 .42765809 .44599916 .42765809 .41799928 .42765809 .38198854 .42765809 .31999208 .42965699 .30599977 .43066407V.3996582C.32499696 .39865113 .33499146 .3876648 .33499146 .37467958 .33499146 .3547058 .32099916 .3427124 .31298829 .33570863L.17199707 .21382141V.69433596L.027999878 .68333438V.6523285C.09799194 .6523285 .10598755 .64530947 .10598755 .5961609V.07595825Z"/>
<path id="font_3_1" d="M.6769867 .16200257H.6519928C.6469879 .13600159 .6429901 .11299133 .6339874 .08898926 .6289978 .07299805 .6259918 .06498718 .56799319 .06498718H.48799134C.5009918 .1210022 .5319977 .16900635 .57699587 .23501587 .6239929 .306015 .6649933 .37503053 .6649933 .45404054 .6649933 .59306338 .5299988 .7050781 .36099244 .7050781 .18899536 .7050781 .055999757 .5910492 .055999757 .45404054 .055999757 .37503053 .09700012 .306015 .14399719 .23501587 .18798828 .16900635 .21998596 .1210022 .23298645 .06498718H.15299988C.09498596 .06498718 .09199524 .07299805 .08699036 .08799744 .07899475 .11099243 .07398987 .13700867 .068984989 .16200257H.04399109L.07699585 0H.23699951C.25898744 0 .2619934 0 .2619934 .020996094 .2619934 .09098816 .23098755 .17900086 .20799256 .24301148 .18699646 .3010254 .15899658 .3800354 .15899658 .45503236 .15899658 .6150665 .2689972 .68307498 .3600006 .68307498 .45599366 .68307498 .56199648 .61105349 .56199648 .45503236 .56199648 .3800354 .5349884 .3040161 .5059967 .22201538 .4909973 .18000794 .45899964 .08999634 .45899964 .020996094 .45899964 0 .46199037 0 .4850006 0H.6439972L.6769867 .16200257Z"/>
<path id="font_3_2" d="M.45999146 .31976319C.45999146 .39982606 .45498658 .47988893 .41999818 .5539398 .37399293 .65000918 .2919922 .6660156 .25 .6660156 .18998719 .6660156 .116989139 .64001467 .07598877 .54693606 .04399109 .47789 .038986207 .39982606 .038986207 .31976319 .038986207 .24472046 .042999269 .15464783 .083999637 .07859802 .1269989-.0024719239 .19999695-.022460938 .24899292-.022460938 .30299378-.022460938 .3789978-.0014648438 .4229889 .09359741 .45498658 .16265869 .45999146 .2407074 .45999146 .31976319M.24899292-.00047302247C.20999146-.00047302247 .15098572 .024551392 .1329956 .12062073 .12199402 .18066406 .12199402 .2727356 .12199402 .3317871 .12199402 .39582826 .12199402 .46188355 .12998963 .5159149 .14898682 .63500979 .22399903 .64401248 .24899292 .64401248 .28199769 .64401248 .34799195 .6259918 .36698915 .52693179 .3769989 .47088624 .3769989 .39482118 .3769989 .3317871 .3769989 .25672914 .3769989 .18867493 .3659973 .12461853 .35099793 .029556275 .2939911-.00047302247 .24899292-.00047302247Z"/>
<path id="font_3_6" d="M.17199707 .37635804V.4423828L.027999878 .43138124V.40037538C.09899902 .40037538 .10598755 .3943634 .10598755 .35035707V-.11816406C.10598755-.16334534 .09498596-.16334534 .027999878-.16334534V-.19433594C.06199646-.19334412 .11399841-.19134522 .13999939-.19134522 .16699219-.19134522 .21798706-.19334412 .25299073-.19433594V-.16334534C.18598938-.16334534 .1749878-.16334534 .1749878-.11816406V.05026245 .059265138C.17999268 .043258668 .22200012-.0107421879 .2979889-.0107421879 .4169922-.0107421879 .5209961 .08728027 .5209961 .2163086 .5209961 .34335328 .42399598 .4423828 .31199647 .4423828 .23399353 .4423828 .19198609 .39837647 .17199707 .37635804M.1749878 .11428833V.33735658C.20399475 .3883667 .25299073 .41737367 .3039856 .41737367 .3769989 .41737367 .43798829 .3293457 .43798829 .2163086 .43798829 .09527588 .36799623 .011245728 .2939911 .011245728 .2539978 .011245728 .21598816 .03125 .18899536 .072265628 .1749878 .09327698 .1749878 .0942688 .1749878 .11428833Z"/>
<path id="font_2_81" d="M.5289917 .21325684C.5289917 .3382721 .42199708 .44628907 .28399659 .44628907 .1459961 .44628907 .038986207 .3382721 .038986207 .21325684 .038986207 .0892334 .14898682-.009765625 .28399659-.009765625 .4189911-.009765625 .5289917 .0892334 .5289917 .21325684M.43798829 .22225952C.43798829 .17424011 .43499757 .12124634 .4059906 .08023071 .3789978 .042236329 .33299256 .022232056 .28399659 .022232056 .24699402 .022232056 .19299317 .034225465 .1599884 .083236698 .1329956 .12423706 .12998963 .17625427 .12998963 .22225952 .12998963 .2652588 .1309967 .32426454 .1659851 .36727906 .19099427 .39627076 .23298645 .41827394 .28399659 .41827394 .34298707 .41827394 .3849945 .39027406 .40699769 .3592682 .43499757 .32026673 .43798829 .27026368 .43798829 .22225952Z"/>
<path id="font_2_109" d="M.58999636 0V.035995485C.522995 .035995485 .5149994 .042999269 .5149994 .092056278V.44140626L.36099244 .43052674V.39453126C.42799378 .39439393 .43598939 .3874359 .43598939 .33872987V.16749573C.43598939 .079330448 .3789978 .018234253 .30299378 .018234253 .21199036 .018234253 .20799256 .061309816 .20799256 .11239624V.44140626L.053985597 .43052674V.39453126C.1289978 .39453126 .1289978 .39154054 .1289978 .30273438V.15246582C.1289978 .083343509 .1289978-.009765625 .29599-.009765625 .31799317-.009765625 .3909912-.009765625 .43899537 .07432556H.43998719V-.009765625L.58999636 0Z"/>
<path id="font_2_105" d="M.375 .12606812V.1809845H.34098817V.12705994C.34098817 .059173585 .30899049 .022232056 .269989 .022232056 .20098877 .022232056 .20098877 .10609436 .20098877 .124069217V.39465333H.35699464V.43066407H.20098877V.6142578H.16699219C.1659851 .5244446 .125 .42565919 .0289917 .4226532V.39465333H.12199402V.1250763C.12199402 .01322937 .20599365-.009765625 .2619934-.009765625 .32899476-.010009766 .375 .04699707 .375 .12599182V.12606812Z"/>
</defs>
<path transform="matrix(1.00002,0,0,-1.00008,28.176247,80.59449)" stroke-width=".3985" stroke-linecap="butt" stroke-miterlimit="10" stroke-linejoin="miter" fill="none" stroke="#000000" d="M0 0"/>
<path transform="matrix(1.00002,0,0,-1.00008,28.176247,80.59449)" stroke-width=".3985" stroke-linecap="butt" stroke-miterlimit="10" stroke-linejoin="miter" fill="none" stroke="#000000" d="M0 0V16.44109M0 40.25252V56.69362H38.55173M46.48868 56.69362H85.04042L85.0404 44.221M85.0404 12.47261 85.04042 0H42.5202M42.5202 0H0"/>
<path transform="matrix(1.00002,0,0,-1.00008,28.176247,80.59449)" stroke-width=".797" stroke-linecap="butt" stroke-miterlimit="10" stroke-linejoin="miter" fill="none" stroke="#000000" d="M-11.90572 28.3468C-11.90572 21.77138-6.57541 16.44109 0 16.44109 6.57541 16.44109 11.90572 21.77138 11.90572 28.3468 11.90572 34.92223 6.57541 40.25252 0 40.25252-6.57541 40.25252-11.90572 34.92223-11.90572 28.3468ZM0 28.3468"/>
<path transform="matrix(1.00002,0,0,-1.00008,28.176247,80.59449)" stroke-width=".797" stroke-linecap="butt" stroke-miterlimit="10" stroke-linejoin="miter" fill="none" stroke="#000000" d="M5.95285 28.3468C4.98253 26.82289 4.0539 25.37038 2.97643 25.37038 1.89896 25.37038 .97032 26.82288 0 28.3468-.9703 29.87071-1.89894 31.32323-2.97643 31.32323-4.05388 31.32323-4.98251 29.87073-5.95285 28.3468"/>
<use data-text="V" xlink:href="#font_1_1" transform="matrix(9.962799,0,0,-9.963397,.506691,54.392396)"/>
<use data-text="i" xlink:href="#font_2_66" transform="matrix(6.97394,0,0,-6.974358,6.31781,55.88652)"/>
<use data-text="n" xlink:href="#font_2_77" transform="matrix(6.97394,0,0,-6.974358,8.570396,55.88652)"/>
<path transform="matrix(1.00002,0,0,-1.00008,28.176247,80.59449)" stroke-width=".797" stroke-linecap="butt" stroke-miterlimit="10" stroke-linejoin="miter" fill="none" stroke="#000000" d="M38.55173 68.59933V44.78789M46.48868 68.59933V44.78789"/>
<use data-text="1" xlink:href="#font_3_3" transform="matrix(9.962799,0,0,-9.963397,61.35491,7.5786516)"/>
<use data-text="&#x00b5;" xlink:href="#font_4_402" transform="matrix(9.962799,0,0,-9.963397,67.99705,7.5786516)"/>
<use data-text="F" xlink:href="#font_3_4" transform="matrix(9.962799,0,0,-9.963397,73.536159,7.5786516)"/>
<path transform="matrix(1.00002,0,0,-1.00008,28.176247,80.59449)" stroke-width=".797" stroke-linecap="butt" stroke-linejoin="bevel" fill="none" stroke="#000000" d="M85.0404 44.6195 90.99326 41.54208 79.08755 36.18428 90.99326 30.82646 79.08755 25.46864 90.99326 20.11082 79.08755 14.753 85.0404 12.0741"/>
<path transform="matrix(1.00002,0,0,-1.00008,28.176247,80.59449)" d="M86.62756 56.69362C86.62756 57.57018 85.91698 58.28076 85.04042 58.28076 84.16386 58.28076 83.45328 57.57018 83.45328 56.69362 83.45328 55.81705 84.16386 55.10646 85.04042 55.10646 85.91698 55.10646 86.62756 55.81705 86.62756 56.69362ZM85.04042 56.69362"/>
<path transform="matrix(1.00002,0,0,-1.00008,28.176247,80.59449)" stroke-width=".3985" stroke-linecap="butt" stroke-miterlimit="10" stroke-linejoin="miter" fill="none" stroke="#000000" d="M86.62756 56.69362C86.62756 57.57018 85.91698 58.28076 85.04042 58.28076 84.16386 58.28076 83.45328 57.57018 83.45328 56.69362 83.45328 55.81705 84.16386 55.10646 85.04042 55.10646 85.91698 55.10646 86.62756 55.81705 86.62756 56.69362ZM85.04042 56.69362"/>
<path transform="matrix(1.00002,0,0,-1.00008,28.176247,80.59449)" d="M86.62756 0C86.62756 .87656 85.91698 1.58714 85.04042 1.58714 84.16386 1.58714 83.45328 .87656 83.45328 0 83.45328-.87656 84.16386-1.58714 85.04042-1.58714 85.91698-1.58714 86.62756-.87656 86.62756 0ZM85.04042 0"/>
<path transform="matrix(1.00002,0,0,-1.00008,28.176247,80.59449)" stroke-width=".3985" stroke-linecap="butt" stroke-miterlimit="10" stroke-linejoin="miter" fill="none" stroke="#000000" d="M86.62756 0C86.62756 .87656 85.91698 1.58714 85.04042 1.58714 84.16386 1.58714 83.45328 .87656 83.45328 0 83.45328-.87656 84.16386-1.58714 85.04042-1.58714 85.91698-1.58714 86.62756-.87656 86.62756 0ZM85.04042 0"/>
<use data-text="1" xlink:href="#font_3_3" transform="matrix(9.962799,0,0,-9.963397,85.9634,54.392396)"/>
<use data-text="k" xlink:href="#font_3_5" transform="matrix(9.962799,0,0,-9.963397,92.59863,54.392396)"/>
<use data-text="&#x2126;" xlink:href="#font_3_1" transform="matrix(9.962799,0,0,-9.963397,97.84903,54.392396)"/>
<path transform="matrix(1.00002,0,0,-1.00008,28.176247,80.59449)" stroke-width=".3985" stroke-linecap="butt" stroke-miterlimit="10" stroke-linejoin="miter" fill="none" stroke="#000000" d="M85.04042 56.69362H111.68643M143.43483 56.69362H170.08086V32.31528M170.08086 24.37833V0H127.56062M127.56062 0H85.04042"/>
<path transform="matrix(1.00002,0,0,-1.00008,28.176247,80.59449)" stroke-width=".797" stroke-linecap="butt" stroke-linejoin="bevel" fill="none" stroke="#000000" d="M111.28793 56.69362 114.36534 62.64647 119.72316 50.74075 125.08098 62.64647 130.43878 50.74075 135.7966 62.64647 141.15442 50.74075 143.83333 56.69362"/>
<use data-text="1" xlink:href="#font_3_3" transform="matrix(9.962799,0,0,-9.963397,141.2095,14.127174)"/>
<use data-text="0" xlink:href="#font_3_2" transform="matrix(9.962799,0,0,-9.963397,146.19092,14.127174)"/>
<use data-text="0" xlink:href="#font_3_2" transform="matrix(9.962799,0,0,-9.963397,151.17232,14.127174)"/>
<use data-text="k" xlink:href="#font_3_5" transform="matrix(9.962799,0,0,-9.963397,157.80754,14.127174)"/>
<use data-text="&#x2126;" xlink:href="#font_3_1" transform="matrix(9.962799,0,0,-9.963397,163.05794,14.127174)"/>
<path transform="matrix(1.00002,0,0,-1.00008,28.176247,80.59449)" stroke-width=".797" stroke-linecap="butt" stroke-miterlimit="10" stroke-linejoin="miter" fill="none" stroke="#000000" d="M181.98657 32.31528H158.17514M181.98657 24.37833H158.17514"/>
<path transform="matrix(1.00002,0,0,-1.00008,28.176247,80.59449)" d="M171.668 56.69362C171.668 57.57018 170.95742 58.28076 170.08086 58.28076 169.20429 58.28076 168.4937 57.57018 168.4937 56.69362 168.4937 55.81705 169.20429 55.10646 170.08086 55.10646 170.95742 55.10646 171.668 55.81705 171.668 56.69362ZM170.08086 56.69362"/>
<path transform="matrix(1.00002,0,0,-1.00008,28.176247,80.59449)" stroke-width=".3985" stroke-linecap="butt" stroke-miterlimit="10" stroke-linejoin="miter" fill="none" stroke="#000000" d="M171.668 56.69362C171.668 57.57018 170.95742 58.28076 170.08086 58.28076 169.20429 58.28076 168.4937 57.57018 168.4937 56.69362 168.4937 55.81705 169.20429 55.10646 170.08086 55.10646 170.95742 55.10646 171.668 55.81705 171.668 56.69362ZM170.08086 56.69362"/>
<path transform="matrix(1.00002,0,0,-1.00008,28.176247,80.59449)" d="M171.668 0C171.668 .87656 170.95742 1.58714 170.08086 1.58714 169.20429 1.58714 168.4937 .87656 168.4937 0 168.4937-.87656 169.20429-1.58714 170.08086-1.58714 170.95742-1.58714 171.668-.87656 171.668 0ZM170.08086 0"/>
<path transform="matrix(1.00002,0,0,-1.00008,28.176247,80.59449)" stroke-width=".3985" stroke-linecap="butt" stroke-miterlimit="10" stroke-linejoin="miter" fill="none" stroke="#000000" d="M171.668 0C171.668 .87656 170.95742 1.58714 170.08086 1.58714 169.20429 1.58714 168.4937 .87656 168.4937 0 168.4937-.87656 169.20429-1.58714 170.08086-1.58714 170.95742-1.58714 171.668-.87656 171.668 0ZM170.08086 0"/>
<use data-text="1" xlink:href="#font_3_3" transform="matrix(9.962799,0,0,-9.963397,154.90979,54.392396)"/>
<use data-text="0" xlink:href="#font_3_2" transform="matrix(9.962799,0,0,-9.963397,159.8912,54.392396)"/>
<use data-text="0" xlink:href="#font_3_2" transform="matrix(9.962799,0,0,-9.963397,164.87259,54.392396)"/>
<use data-text="p" xlink:href="#font_3_6" transform="matrix(9.962799,0,0,-9.963397,171.50782,54.392396)"/>
<use data-text="F" xlink:href="#font_3_4" transform="matrix(9.962799,0,0,-9.963397,177.03717,54.392396)"/>
<path transform="matrix(1.00002,0,0,-1.00008,28.176247,80.59449)" stroke-width=".3985" stroke-linecap="butt" stroke-miterlimit="10" stroke-linejoin="miter" fill="none" stroke="#000000" d="M170.08086 56.69362H198.42766M198.42766 56.69362H226.77448"/>
<path transform="matrix(1.00002,0,0,-1.00008,28.176247,80.59449)" d="M228.36162 56.69362C228.36162 57.57018 227.65103 58.28076 226.77448 58.28076 225.8979 58.28076 225.18732 57.57018 225.18732 56.69362 225.18732 55.81705 225.8979 55.10646 226.77448 55.10646 227.65103 55.10646 228.36162 55.81705 228.36162 56.69362ZM226.77448 56.69362" fill="#ffffff"/>
<path transform="matrix(1.00002,0,0,-1.00008,28.176247,80.59449)" stroke-width=".3985" stroke-linecap="butt" stroke-miterlimit="10" stroke-linejoin="miter" fill="none" stroke="#000000" d="M228.36162 56.69362C228.36162 57.57018 227.65103 58.28076 226.77448 58.28076 225.8979 58.28076 225.18732 57.57018 225.18732 56.69362 225.18732 55.81705 225.8979 55.10646 226.77448 55.10646 227.65103 55.10646 228.36162 55.81705 228.36162 56.69362ZM226.77448 56.69362"/>
<path transform="matrix(1.00002,0,0,-1.00008,28.176247,80.59449)" d="" fill="#ffffff"/>
<path transform="matrix(1.00002,0,0,-1.00008,28.176247,80.59449)" stroke-width=".3985" stroke-linecap="butt" stroke-miterlimit="10" stroke-linejoin="miter" fill="none" stroke="#000000" d=""/>
<path transform="matrix(1.00002,0,0,-1.00008,28.176247,80.59449)" stroke-width=".3985" stroke-linecap="butt" stroke-miterlimit="10" stroke-linejoin="miter" fill="none" stroke="#000000" d="M170.08086 0H198.42766M198.42766 0H226.77448"/>
<path transform="matrix(1.00002,0,0,-1.00008,28.176247,80.59449)" d="M228.36162 0C228.36162 .87656 227.65103 1.58714 226.77448 1.58714 225.8979 1.58714 225.18732 .87656 225.18732 0 225.18732-.87656 225.8979-1.58714 226.77448-1.58714 227.65103-1.58714 228.36162-.87656 228.36162 0ZM226.77448 0" fill="#ffffff"/>
<path transform="matrix(1.00002,0,0,-1.00008,28.176247,80.59449)" stroke-width=".3985" stroke-linecap="butt" stroke-miterlimit="10" stroke-linejoin="miter" fill="none" stroke="#000000" d="M228.36162 0C228.36162 .87656 227.65103 1.58714 226.77448 1.58714 225.8979 1.58714 225.18732 .87656 225.18732 0 225.18732-.87656 225.8979-1.58714 226.77448-1.58714 227.65103-1.58714 228.36162-.87656 228.36162 0ZM226.77448 0"/>
<path transform="matrix(1.00002,0,0,-1.00008,28.176247,80.59449)" d="" fill="#ffffff"/>
<path transform="matrix(1.00002,0,0,-1.00008,28.176247,80.59449)" stroke-width=".3985" stroke-linecap="butt" stroke-miterlimit="10" stroke-linejoin="miter" fill="none" stroke="#000000" d=""/>
<use data-text="V" xlink:href="#font_1_1" transform="matrix(9.962799,0,0,-9.963397,246.06061,54.86743)"/>
<use data-text="o" xlink:href="#font_2_81" transform="matrix(6.97394,0,0,-6.974358,251.87174,56.361558)"/>
<use data-text="u" xlink:href="#font_2_109" transform="matrix(6.97394,0,0,-6.974358,255.8399,56.361558)"/>
<use data-text="t" xlink:href="#font_2_105" transform="matrix(6.97394,0,0,-6.974358,260.24049,56.361558)"/>
</svg>
