<svg xmlns="http://www.w3.org/2000/svg" xmlns:xlink="http://www.w3.org/1999/xlink" xmlns:inkscape="http://www.inkscape.org/namespaces/inkscape" version="1.1" width="191" height="125" viewBox="0 0 191 125">
<path transform="matrix(1.00003,0,0,-1.00002,13.2018589,121.33911)" stroke-width=".3985" stroke-linecap="butt" stroke-miterlimit="10" stroke-linejoin="miter" fill="none" stroke="#000000" d="M0 0"/>
<path transform="matrix(1.00003,0,0,-1.00002,13.2018589,121.33911)" stroke-width=".3985" stroke-linecap="butt" stroke-miterlimit="10" stroke-linejoin="miter" fill="none" stroke="#000000" d="M0 0V50.74075M0 62.64647V113.38724H42.5202M42.5202 113.38724H85.04042L85.0404 100.91461M85.0404 69.16623 85.04042 56.69362 85.0404 34.29965M85.0404 22.39395 85.04042 0H42.5202M42.5202 0H0"/>
<path transform="matrix(1.00003,0,0,-1.00002,13.2018589,121.33911)" stroke-width=".797" stroke-linecap="butt" stroke-miterlimit="10" stroke-linejoin="miter" fill="none" stroke="#000000" d="M-11.90572 62.64647H11.90572M-5.95285 58.6779H5.95285M-11.90572 54.70934H11.90572M-5.95285 50.74075H5.95285"/>
<path transform="matrix(1.00003,0,0,-1.00002,13.2018589,121.33911)" stroke-width=".797" stroke-linecap="butt" stroke-linejoin="bevel" fill="none" stroke="#000000" d="M85.0404 101.31313 90.99326 98.2357 79.08755 92.8779 90.99326 87.52008 79.08755 82.16226 90.99326 76.80444 79.08755 71.44662 85.0404 68.76772"/>
<path transform="matrix(1.00003,0,0,-1.00002,13.2018589,121.33911)" d="M86.62756 113.38724C86.62756 114.2638 85.91698 114.97438 85.04042 114.97438 84.16386 114.97438 83.45328 114.2638 83.45328 113.38724 83.45328 112.51067 84.16386 111.80008 85.04042 111.80008 85.91698 111.80008 86.62756 112.51067 86.62756 113.38724ZM85.04042 113.38724"/>
<path transform="matrix(1.00003,0,0,-1.00002,13.2018589,121.33911)" stroke-width=".3985" stroke-linecap="butt" stroke-miterlimit="10" stroke-linejoin="miter" fill="none" stroke="#000000" d="M86.62756 113.38724C86.62756 114.2638 85.91698 114.97438 85.04042 114.97438 84.16386 114.97438 83.45328 114.2638 83.45328 113.38724 83.45328 112.51067 84.16386 111.80008 85.04042 111.80008 85.91698 111.80008 86.62756 112.51067 86.62756 113.38724ZM85.04042 113.38724"/>
<path transform="matrix(1.00003,0,0,-1.00002,13.2018589,121.33911)" stroke-width=".797" stroke-linecap="butt" stroke-miterlimit="10" stroke-linejoin="miter" fill="none" stroke="#000000" d="M96.94612 34.29965H73.13469M90.99326 30.33109H79.08755M96.94612 26.36252H73.13469M90.99326 22.39395H79.08755"/>
<path transform="matrix(1.00003,0,0,-1.00002,13.2018589,121.33911)" d="M86.62756 0C86.62756 .87656 85.91698 1.58714 85.04042 1.58714 84.16386 1.58714 83.45328 .87656 83.45328 0 83.45328-.87656 84.16386-1.58714 85.04042-1.58714 85.91698-1.58714 86.62756-.87656 86.62756 0ZM85.04042 0"/>
<path transform="matrix(1.00003,0,0,-1.00002,13.2018589,121.33911)" stroke-width=".3985" stroke-linecap="butt" stroke-miterlimit="10" stroke-linejoin="miter" fill="none" stroke="#000000" d="M86.62756 0C86.62756 .87656 85.91698 1.58714 85.04042 1.58714 84.16386 1.58714 83.45328 .87656 83.45328 0 83.45328-.87656 84.16386-1.58714 85.04042-1.58714 85.91698-1.58714 86.62756-.87656 86.62756 0ZM85.04042 0"/>
<path transform="matrix(1.00003,0,0,-1.00002,13.2018589,121.33911)" stroke-width=".3985" stroke-linecap="butt" stroke-miterlimit="10" stroke-linejoin="miter" fill="none" stroke="#000000" d="M85.04042 113.38724H111.68643M143.43483 113.38724H170.08086V72.56781M170.08086 40.81941V0H127.56062M127.56062 0H85.04042"/>
<path transform="matrix(1.00003,0,0,-1.00002,13.2018589,121.33911)" stroke-width=".797" stroke-linecap="butt" stroke-linejoin="bevel" fill="none" stroke="#000000" d="M111.28793 113.38724 114.36534 119.34009 119.72316 107.43439 125.08098 119.34009 130.43878 107.43439 135.7966 119.34009 141.15442 107.43439 143.83333 113.38724"/>
<path transform="matrix(1.00003,0,0,-1.00002,13.2018589,121.33911)" stroke-width=".797" stroke-linecap="butt" stroke-linejoin="bevel" fill="none" stroke="#000000" d="M170.08086 72.96631 176.0337 69.8889 164.128 64.53108 176.0337 59.17326 164.128 53.81544 176.0337 48.45764 164.128 43.09982 170.08086 40.42091"/>
</svg>
